<?xml version="1.0" encoding="UTF-8" standalone="no"?><svg xmlns="http://www.w3.org/2000/svg" xmlns:xlink="http://www.w3.org/1999/xlink" clip-rule="evenodd" stroke-miterlimit="10" viewBox="0 0 720 540"><desc>SVG generated by Keynote</desc><defs></defs><g transform="matrix(1.00, 0.00, -0.00, -1.00, 0.0, 540.0)"><path d="M 0.0 540.0 L 720.0 540.0 L 720.0 0.0 L 0.0 0.0 Z M 0.0 540.0 " fill="#FFFFFF"></path><text xml:space="preserve" font-family="Tahoma,Tahoma" font-size="10.0" fill="#000000" transform="matrix(1.00, 0.00, -0.00, -1.00, 558.1, 18.0)">1</text><text xml:space="preserve" font-family="Tahoma,Tahoma" font-size="10.0" fill="#000000" transform="matrix(1.00, 0.00, -0.00, -1.00, 563.6, 18.0)">5</text><image xlink:href="../../9F097685-8107-42F1-AC16-11D3B4EA8ECD/assets/00D6B300AF89141429CCD3DD2FBD813A.png" width="190.00" height="37.00" transform="matrix(1.00, 0.00, -0.00, -1.00, 42.0, 457.0)"></image><text xml:space="preserve" font-family="Tahoma,Tahoma" font-size="36.0" fill="#000000" transform="matrix(1.00, 0.00, -0.00, -1.00, 41.1, 429.7)">I</text><text xml:space="preserve" font-family="Tahoma,Tahoma" font-size="36.0" fill="#000000" transform="matrix(1.00, 0.00, -0.00, -1.00, 54.4, 429.7)">n</text><text xml:space="preserve" font-family="Tahoma,Tahoma" font-size="36.0" fill="#000000" transform="matrix(1.00, 0.00, -0.00, -1.00, 74.4, 429.7)">t</text><text xml:space="preserve" font-family="Tahoma,Tahoma" font-size="36.0" fill="#000000" transform="matrix(1.00, 0.00, -0.00, -1.00, 86.5, 429.7)">e</text><text xml:space="preserve" font-family="Tahoma,Tahoma" font-size="36.0" fill="#000000" transform="matrix(1.00, 0.00, -0.00, -1.00, 105.4, 429.7)">r</text><text xml:space="preserve" font-family="Tahoma,Tahoma" font-size="36.0" fill="#000000" transform="matrix(1.00, 0.00, -0.00, -1.00, 117.8, 429.7)">a</text><text xml:space="preserve" font-family="Tahoma,Tahoma" font-size="36.0" fill="#000000" transform="matrix(1.00, 0.00, -0.00, -1.00, 136.7, 429.7)">c</text><text xml:space="preserve" font-family="Tahoma,Tahoma" font-size="36.0" fill="#000000" transform="matrix(1.00, 0.00, -0.00, -1.00, 153.3, 429.7)">t</text><text xml:space="preserve" font-family="Tahoma,Tahoma" font-size="36.0" fill="#000000" transform="matrix(1.00, 0.00, -0.00, -1.00, 165.4, 429.7)">i</text><text xml:space="preserve" font-family="Tahoma,Tahoma" font-size="36.0" fill="#000000" transform="matrix(1.00, 0.00, -0.00, -1.00, 173.6, 429.7)">v</text><text xml:space="preserve" font-family="Tahoma,Tahoma" font-size="36.0" fill="#000000" transform="matrix(1.00, 0.00, -0.00, -1.00, 191.5, 429.7)">i</text><text xml:space="preserve" font-family="Tahoma,Tahoma" font-size="36.0" fill="#000000" transform="matrix(1.00, 0.00, -0.00, -1.00, 199.8, 429.7)">t</text><text xml:space="preserve" font-family="Tahoma,Tahoma" font-size="36.0" fill="#000000" transform="matrix(1.00, 0.00, -0.00, -1.00, 211.5, 429.7)">y</text><text xml:space="preserve" font-family="Tahoma,Tahoma" font-size="36.0" fill="#000000" transform="matrix(1.00, 0.00, -0.00, -1.00, 229.4, 429.7)"> </text><path d="M 0.0 0.0 L 666.0 0.0 " fill="none" stroke="#0000FF" stroke-width="6.00" stroke-linejoin="round" transform="matrix(1.00, 0.00, 0.00, -1.00, 42.0, 402.0)"></path><text xml:space="preserve" font-family="Tahoma,Tahoma" font-size="20.0" fill="#FF0000" transform="matrix(1.00, 0.00, -0.00, -1.00, 37.5, 361.9)">F</text><text xml:space="preserve" font-family="Tahoma,Tahoma" font-size="20.0" fill="#FF0000" transform="matrix(1.00, 0.00, -0.00, -1.00, 47.9, 361.9)">i</text><text xml:space="preserve" font-family="Tahoma,Tahoma" font-size="20.0" fill="#FF0000" transform="matrix(1.00, 0.00, -0.00, -1.00, 52.5, 361.9)">l</text><text xml:space="preserve" font-family="Tahoma,Tahoma" font-size="20.0" fill="#FF0000" transform="matrix(1.00, 0.00, -0.00, -1.00, 57.1, 361.9)">e</text><text xml:space="preserve" font-family="Tahoma,Tahoma" font-size="20.0" fill="#FF0000" transform="matrix(1.00, 0.00, -0.00, -1.00, 67.6, 361.9)"> </text><text xml:space="preserve" font-family="Tahoma,Tahoma" font-size="20.0" fill="#FF0000" transform="matrix(1.00, 0.00, -0.00, -1.00, 73.8, 361.9)">O</text><text xml:space="preserve" font-family="Tahoma,Tahoma" font-size="20.0" fill="#FF0000" transform="matrix(1.00, 0.00, -0.00, -1.00, 88.0, 361.9)">u</text><text xml:space="preserve" font-family="Tahoma,Tahoma" font-size="20.0" fill="#FF0000" transform="matrix(1.00, 0.00, -0.00, -1.00, 99.1, 361.9)">t</text><text xml:space="preserve" font-family="Tahoma,Tahoma" font-size="20.0" fill="#FF0000" transform="matrix(1.00, 0.00, -0.00, -1.00, 105.8, 361.9)">p</text><text xml:space="preserve" font-family="Tahoma,Tahoma" font-size="20.0" fill="#FF0000" transform="matrix(1.00, 0.00, -0.00, -1.00, 116.9, 361.9)">u</text><text xml:space="preserve" font-family="Tahoma,Tahoma" font-size="20.0" fill="#FF0000" transform="matrix(1.00, 0.00, -0.00, -1.00, 128.0, 361.9)">t</text><text xml:space="preserve" font-family="Tahoma,Tahoma" font-size="20.0" fill="#0000FF" transform="matrix(1.00, 0.00, -0.00, -1.00, 134.7, 361.9)">:</text><text xml:space="preserve" font-family="Tahoma,Tahoma" font-size="20.0" fill="#0000FF" transform="matrix(1.00, 0.00, -0.00, -1.00, 141.8, 361.9)"> </text><text xml:space="preserve" font-family="Tahoma,Tahoma" font-size="20.0" fill="#0000FF" transform="matrix(1.00, 0.00, -0.00, -1.00, 37.5, 313.9)">E</text><text xml:space="preserve" font-family="Tahoma,Tahoma" font-size="20.0" fill="#0000FF" transform="matrix(1.00, 0.00, -0.00, -1.00, 48.7, 313.9)">x</text><text xml:space="preserve" font-family="Tahoma,Tahoma" font-size="20.0" fill="#0000FF" transform="matrix(1.00, 0.00, -0.00, -1.00, 58.6, 313.9)">a</text><text xml:space="preserve" font-family="Tahoma,Tahoma" font-size="20.0" fill="#0000FF" transform="matrix(1.00, 0.00, -0.00, -1.00, 69.1, 313.9)">m</text><text xml:space="preserve" font-family="Tahoma,Tahoma" font-size="20.0" fill="#0000FF" transform="matrix(1.00, 0.00, -0.00, -1.00, 85.9, 313.9)">p</text><text xml:space="preserve" font-family="Tahoma,Tahoma" font-size="20.0" fill="#0000FF" transform="matrix(1.00, 0.00, -0.00, -1.00, 96.9, 313.9)">l</text><text xml:space="preserve" font-family="Tahoma,Tahoma" font-size="20.0" fill="#0000FF" transform="matrix(1.00, 0.00, -0.00, -1.00, 101.5, 313.9)">e</text><text xml:space="preserve" font-family="Tahoma,Tahoma" font-size="20.0" fill="#0000FF" transform="matrix(1.00, 0.00, -0.00, -1.00, 112.0, 313.9)">:</text><text xml:space="preserve" font-family="Tahoma,Tahoma" font-size="20.0" fill="#0000FF" transform="matrix(1.00, 0.00, -0.00, -1.00, 119.1, 313.9)"> </text><text xml:space="preserve" font-family="Tahoma,Tahoma" font-size="20.0" fill="#0000FF" transform="matrix(1.00, 0.00, -0.00, -1.00, 37.5, 289.9)">I</text><text xml:space="preserve" font-family="Tahoma,Tahoma" font-size="20.0" fill="#0000FF" transform="matrix(1.00, 0.00, -0.00, -1.00, 44.9, 289.9)"> </text><text xml:space="preserve" font-family="Tahoma,Tahoma" font-size="20.0" fill="#0000FF" transform="matrix(1.00, 0.00, -0.00, -1.00, 51.2, 289.9)">w</text><text xml:space="preserve" font-family="Tahoma,Tahoma" font-size="20.0" fill="#0000FF" transform="matrix(1.00, 0.00, -0.00, -1.00, 65.8, 289.9)">a</text><text xml:space="preserve" font-family="Tahoma,Tahoma" font-size="20.0" fill="#0000FF" transform="matrix(1.00, 0.00, -0.00, -1.00, 76.3, 289.9)">n</text><text xml:space="preserve" font-family="Tahoma,Tahoma" font-size="20.0" fill="#0000FF" transform="matrix(1.00, 0.00, -0.00, -1.00, 87.5, 289.9)">t</text><text xml:space="preserve" font-family="Tahoma,Tahoma" font-size="20.0" fill="#0000FF" transform="matrix(1.00, 0.00, -0.00, -1.00, 94.2, 289.9)"> </text><text xml:space="preserve" font-family="Tahoma,Tahoma" font-size="20.0" fill="#0000FF" transform="matrix(1.00, 0.00, -0.00, -1.00, 100.4, 289.9)">t</text><text xml:space="preserve" font-family="Tahoma,Tahoma" font-size="20.0" fill="#0000FF" transform="matrix(1.00, 0.00, -0.00, -1.00, 107.1, 289.9)">o</text><text xml:space="preserve" font-family="Tahoma,Tahoma" font-size="20.0" fill="#0000FF" transform="matrix(1.00, 0.00, -0.00, -1.00, 118.0, 289.9)"> </text><text xml:space="preserve" font-family="Tahoma,Tahoma" font-size="20.0" fill="#0000FF" transform="matrix(1.00, 0.00, -0.00, -1.00, 124.2, 289.9)">w</text><text xml:space="preserve" font-family="Tahoma,Tahoma" font-size="20.0" fill="#0000FF" transform="matrix(1.00, 0.00, -0.00, -1.00, 139.1, 289.9)">r</text><text xml:space="preserve" font-family="Tahoma,Tahoma" font-size="20.0" fill="#0000FF" transform="matrix(1.00, 0.00, -0.00, -1.00, 146.3, 289.9)">i</text><text xml:space="preserve" font-family="Tahoma,Tahoma" font-size="20.0" fill="#0000FF" transform="matrix(1.00, 0.00, -0.00, -1.00, 150.9, 289.9)">t</text><text xml:space="preserve" font-family="Tahoma,Tahoma" font-size="20.0" fill="#0000FF" transform="matrix(1.00, 0.00, -0.00, -1.00, 157.6, 289.9)">e</text><text xml:space="preserve" font-family="Tahoma,Tahoma" font-size="20.0" fill="#0000FF" transform="matrix(1.00, 0.00, -0.00, -1.00, 168.1, 289.9)"> </text><text xml:space="preserve" font-family="Tahoma,Tahoma" font-size="20.0" fill="#0000FF" transform="matrix(1.00, 0.00, -0.00, -1.00, 174.4, 289.9)">t</text><text xml:space="preserve" font-family="Tahoma,Tahoma" font-size="20.0" fill="#0000FF" transform="matrix(1.00, 0.00, -0.00, -1.00, 181.1, 289.9)">h</text><text xml:space="preserve" font-family="Tahoma,Tahoma" font-size="20.0" fill="#0000FF" transform="matrix(1.00, 0.00, -0.00, -1.00, 192.2, 289.9)">e</text><text xml:space="preserve" font-family="Tahoma,Tahoma" font-size="20.0" fill="#0000FF" transform="matrix(1.00, 0.00, -0.00, -1.00, 202.7, 289.9)"> </text><text xml:space="preserve" font-family="Tahoma,Tahoma" font-size="20.0" fill="#0000FF" transform="matrix(1.00, 0.00, -0.00, -1.00, 209.0, 289.9)">f</text><text xml:space="preserve" font-family="Tahoma,Tahoma" font-size="20.0" fill="#0000FF" transform="matrix(1.00, 0.00, -0.00, -1.00, 215.2, 289.9)">o</text><text xml:space="preserve" font-family="Tahoma,Tahoma" font-size="20.0" fill="#0000FF" transform="matrix(1.00, 0.00, -0.00, -1.00, 226.0, 289.9)">l</text><text xml:space="preserve" font-family="Tahoma,Tahoma" font-size="20.0" fill="#0000FF" transform="matrix(1.00, 0.00, -0.00, -1.00, 230.6, 289.9)">l</text><text xml:space="preserve" font-family="Tahoma,Tahoma" font-size="20.0" fill="#0000FF" transform="matrix(1.00, 0.00, -0.00, -1.00, 235.2, 289.9)">o</text><text xml:space="preserve" font-family="Tahoma,Tahoma" font-size="20.0" fill="#0000FF" transform="matrix(1.00, 0.00, -0.00, -1.00, 246.1, 289.9)">w</text><text xml:space="preserve" font-family="Tahoma,Tahoma" font-size="20.0" fill="#0000FF" transform="matrix(1.00, 0.00, -0.00, -1.00, 260.9, 289.9)">i</text><text xml:space="preserve" font-family="Tahoma,Tahoma" font-size="20.0" fill="#0000FF" transform="matrix(1.00, 0.00, -0.00, -1.00, 265.5, 289.9)">n</text><text xml:space="preserve" font-family="Tahoma,Tahoma" font-size="20.0" fill="#0000FF" transform="matrix(1.00, 0.00, -0.00, -1.00, 276.6, 289.9)">g</text><text xml:space="preserve" font-family="Tahoma,Tahoma" font-size="20.0" fill="#0000FF" transform="matrix(1.00, 0.00, -0.00, -1.00, 287.7, 289.9)"> </text><text xml:space="preserve" font-family="Tahoma,Tahoma" font-size="20.0" fill="#0000FF" transform="matrix(1.00, 0.00, -0.00, -1.00, 293.9, 289.9)">s</text><text xml:space="preserve" font-family="Tahoma,Tahoma" font-size="20.0" fill="#0000FF" transform="matrix(1.00, 0.00, -0.00, -1.00, 302.8, 289.9)">t</text><text xml:space="preserve" font-family="Tahoma,Tahoma" font-size="20.0" fill="#0000FF" transform="matrix(1.00, 0.00, -0.00, -1.00, 309.5, 289.9)">r</text><text xml:space="preserve" font-family="Tahoma,Tahoma" font-size="20.0" fill="#0000FF" transform="matrix(1.00, 0.00, -0.00, -1.00, 316.7, 289.9)">i</text><text xml:space="preserve" font-family="Tahoma,Tahoma" font-size="20.0" fill="#0000FF" transform="matrix(1.00, 0.00, -0.00, -1.00, 321.3, 289.9)">n</text><text xml:space="preserve" font-family="Tahoma,Tahoma" font-size="20.0" fill="#0000FF" transform="matrix(1.00, 0.00, -0.00, -1.00, 332.5, 289.9)">g</text><text xml:space="preserve" font-family="Tahoma,Tahoma" font-size="20.0" fill="#0000FF" transform="matrix(1.00, 0.00, -0.00, -1.00, 343.5, 289.9)"> </text><text xml:space="preserve" font-family="Tahoma,Tahoma" font-size="20.0" fill="#0000FF" transform="matrix(1.00, 0.00, -0.00, -1.00, 349.7, 289.9)">a</text><text xml:space="preserve" font-family="Tahoma,Tahoma" font-size="20.0" fill="#0000FF" transform="matrix(1.00, 0.00, -0.00, -1.00, 360.2, 289.9)">r</text><text xml:space="preserve" font-family="Tahoma,Tahoma" font-size="20.0" fill="#0000FF" transform="matrix(1.00, 0.00, -0.00, -1.00, 367.5, 289.9)">r</text><text xml:space="preserve" font-family="Tahoma,Tahoma" font-size="20.0" fill="#0000FF" transform="matrix(1.00, 0.00, -0.00, -1.00, 374.3, 289.9)">a</text><text xml:space="preserve" font-family="Tahoma,Tahoma" font-size="20.0" fill="#0000FF" transform="matrix(1.00, 0.00, -0.00, -1.00, 384.7, 289.9)">y</text><text xml:space="preserve" font-family="Tahoma,Tahoma" font-size="20.0" fill="#0000FF" transform="matrix(1.00, 0.00, -0.00, -1.00, 394.6, 289.9)"> </text><text xml:space="preserve" font-family="Tahoma,Tahoma" font-size="20.0" fill="#0000FF" transform="matrix(1.00, 0.00, -0.00, -1.00, 400.9, 289.9)">i</text><text xml:space="preserve" font-family="Tahoma,Tahoma" font-size="20.0" fill="#0000FF" transform="matrix(1.00, 0.00, -0.00, -1.00, 405.4, 289.9)">n</text><text xml:space="preserve" font-family="Tahoma,Tahoma" font-size="20.0" fill="#0000FF" transform="matrix(1.00, 0.00, -0.00, -1.00, 416.6, 289.9)">t</text><text xml:space="preserve" font-family="Tahoma,Tahoma" font-size="20.0" fill="#0000FF" transform="matrix(1.00, 0.00, -0.00, -1.00, 423.3, 289.9)">o</text><text xml:space="preserve" font-family="Tahoma,Tahoma" font-size="20.0" fill="#0000FF" transform="matrix(1.00, 0.00, -0.00, -1.00, 434.1, 289.9)"> </text><text xml:space="preserve" font-family="Tahoma,Tahoma" font-size="20.0" fill="#0000FF" transform="matrix(1.00, 0.00, -0.00, -1.00, 440.4, 289.9)">a</text><text xml:space="preserve" font-family="Tahoma,Tahoma" font-size="20.0" fill="#0000FF" transform="matrix(1.00, 0.00, -0.00, -1.00, 450.9, 289.9)"> </text><text xml:space="preserve" font-family="Tahoma,Tahoma" font-size="20.0" fill="#0000FF" transform="matrix(1.00, 0.00, -0.00, -1.00, 457.1, 289.9)">f</text><text xml:space="preserve" font-family="Tahoma,Tahoma" font-size="20.0" fill="#0000FF" transform="matrix(1.00, 0.00, -0.00, -1.00, 463.5, 289.9)">i</text><text xml:space="preserve" font-family="Tahoma,Tahoma" font-size="20.0" fill="#0000FF" transform="matrix(1.00, 0.00, -0.00, -1.00, 468.1, 289.9)">l</text><text xml:space="preserve" font-family="Tahoma,Tahoma" font-size="20.0" fill="#0000FF" transform="matrix(1.00, 0.00, -0.00, -1.00, 472.6, 289.9)">e</text><text xml:space="preserve" font-family="Tahoma,Tahoma" font-size="20.0" fill="#0000FF" transform="matrix(1.00, 0.00, -0.00, -1.00, 483.2, 289.9)"> </text><text xml:space="preserve" font-family="Tahoma,Tahoma" font-size="20.0" fill="#0000FF" transform="matrix(1.00, 0.00, -0.00, -1.00, 489.4, 289.9)">n</text><text xml:space="preserve" font-family="Tahoma,Tahoma" font-size="20.0" fill="#0000FF" transform="matrix(1.00, 0.00, -0.00, -1.00, 500.6, 289.9)">a</text><text xml:space="preserve" font-family="Tahoma,Tahoma" font-size="20.0" fill="#0000FF" transform="matrix(1.00, 0.00, -0.00, -1.00, 511.1, 289.9)">m</text><text xml:space="preserve" font-family="Tahoma,Tahoma" font-size="20.0" fill="#0000FF" transform="matrix(1.00, 0.00, -0.00, -1.00, 527.8, 289.9)">e</text><text xml:space="preserve" font-family="Tahoma,Tahoma" font-size="20.0" fill="#0000FF" transform="matrix(1.00, 0.00, -0.00, -1.00, 538.4, 289.9)"> </text><text xml:space="preserve" font-family="Tahoma,Tahoma" font-size="20.0" fill="#0000FF" transform="matrix(1.00, 0.00, -0.00, -1.00, 544.6, 289.9)">o</text><text xml:space="preserve" font-family="Tahoma,Tahoma" font-size="20.0" fill="#0000FF" transform="matrix(1.00, 0.00, -0.00, -1.00, 555.5, 289.9)">u</text><text xml:space="preserve" font-family="Tahoma,Tahoma" font-size="20.0" fill="#0000FF" transform="matrix(1.00, 0.00, -0.00, -1.00, 566.6, 289.9)">t</text><text xml:space="preserve" font-family="Tahoma,Tahoma" font-size="20.0" fill="#0000FF" transform="matrix(1.00, 0.00, -0.00, -1.00, 573.3, 289.9)">.</text><text xml:space="preserve" font-family="Tahoma,Tahoma" font-size="20.0" fill="#0000FF" transform="matrix(1.00, 0.00, -0.00, -1.00, 579.4, 289.9)"> </text><text xml:space="preserve" font-family="Tahoma,Tahoma" font-size="20.0" fill="#0000FF" transform="matrix(1.00, 0.00, -0.00, -1.00, 585.6, 289.9)">G</text><text xml:space="preserve" font-family="Tahoma,Tahoma" font-size="20.0" fill="#0000FF" transform="matrix(1.00, 0.00, -0.00, -1.00, 599.0, 289.9)">i</text><text xml:space="preserve" font-family="Tahoma,Tahoma" font-size="20.0" fill="#0000FF" transform="matrix(1.00, 0.00, -0.00, -1.00, 603.5, 289.9)">v</text><text xml:space="preserve" font-family="Tahoma,Tahoma" font-size="20.0" fill="#0000FF" transform="matrix(1.00, 0.00, -0.00, -1.00, 613.3, 289.9)">e</text><text xml:space="preserve" font-family="Tahoma,Tahoma" font-size="20.0" fill="#0000FF" transform="matrix(1.00, 0.00, -0.00, -1.00, 623.9, 289.9)"> </text><text xml:space="preserve" font-family="Tahoma,Tahoma" font-size="20.0" fill="#0000FF" transform="matrix(1.00, 0.00, -0.00, -1.00, 630.1, 289.9)">m</text><text xml:space="preserve" font-family="Tahoma,Tahoma" font-size="20.0" fill="#0000FF" transform="matrix(1.00, 0.00, -0.00, -1.00, 646.9, 289.9)">e</text><text xml:space="preserve" font-family="Tahoma,Tahoma" font-size="20.0" fill="#0000FF" transform="matrix(1.00, 0.00, -0.00, -1.00, 657.4, 289.9)"> </text><text xml:space="preserve" font-family="Tahoma,Tahoma" font-size="20.0" fill="#0000FF" transform="matrix(1.00, 0.00, -0.00, -1.00, 663.7, 289.9)">t</text><text xml:space="preserve" font-family="Tahoma,Tahoma" font-size="20.0" fill="#0000FF" transform="matrix(1.00, 0.00, -0.00, -1.00, 670.4, 289.9)">h</text><text xml:space="preserve" font-family="Tahoma,Tahoma" font-size="20.0" fill="#0000FF" transform="matrix(1.00, 0.00, -0.00, -1.00, 681.5, 289.9)">e</text><text xml:space="preserve" font-family="Tahoma,Tahoma" font-size="20.0" fill="#0000FF" transform="matrix(1.00, 0.00, -0.00, -1.00, 692.1, 289.9)"> </text><text xml:space="preserve" font-family="Tahoma,Tahoma" font-size="20.0" fill="#0000FF" transform="matrix(1.00, 0.00, -0.00, -1.00, 37.5, 265.9)">c</text><text xml:space="preserve" font-family="Tahoma,Tahoma" font-size="20.0" fill="#0000FF" transform="matrix(1.00, 0.00, -0.00, -1.00, 46.7, 265.9)">o</text><text xml:space="preserve" font-family="Tahoma,Tahoma" font-size="20.0" fill="#0000FF" transform="matrix(1.00, 0.00, -0.00, -1.00, 57.6, 265.9)">d</text><text xml:space="preserve" font-family="Tahoma,Tahoma" font-size="20.0" fill="#0000FF" transform="matrix(1.00, 0.00, -0.00, -1.00, 68.6, 265.9)">e</text><text xml:space="preserve" font-family="Tahoma,Tahoma" font-size="20.0" fill="#0000FF" transform="matrix(1.00, 0.00, -0.00, -1.00, 79.2, 265.9)"> </text><text xml:space="preserve" font-family="Tahoma,Tahoma" font-size="20.0" fill="#0000FF" transform="matrix(1.00, 0.00, -0.00, -1.00, 85.4, 265.9)">t</text><text xml:space="preserve" font-family="Tahoma,Tahoma" font-size="20.0" fill="#0000FF" transform="matrix(1.00, 0.00, -0.00, -1.00, 92.1, 265.9)">h</text><text xml:space="preserve" font-family="Tahoma,Tahoma" font-size="20.0" fill="#0000FF" transform="matrix(1.00, 0.00, -0.00, -1.00, 103.2, 265.9)">a</text><text xml:space="preserve" font-family="Tahoma,Tahoma" font-size="20.0" fill="#0000FF" transform="matrix(1.00, 0.00, -0.00, -1.00, 113.7, 265.9)">t</text><text xml:space="preserve" font-family="Tahoma,Tahoma" font-size="20.0" fill="#0000FF" transform="matrix(1.00, 0.00, -0.00, -1.00, 120.4, 265.9)"> </text><text xml:space="preserve" font-family="Tahoma,Tahoma" font-size="20.0" fill="#0000FF" transform="matrix(1.00, 0.00, -0.00, -1.00, 126.7, 265.9)">w</text><text xml:space="preserve" font-family="Tahoma,Tahoma" font-size="20.0" fill="#0000FF" transform="matrix(1.00, 0.00, -0.00, -1.00, 141.5, 265.9)">o</text><text xml:space="preserve" font-family="Tahoma,Tahoma" font-size="20.0" fill="#0000FF" transform="matrix(1.00, 0.00, -0.00, -1.00, 152.4, 265.9)">u</text><text xml:space="preserve" font-family="Tahoma,Tahoma" font-size="20.0" fill="#0000FF" transform="matrix(1.00, 0.00, -0.00, -1.00, 163.5, 265.9)">l</text><text xml:space="preserve" font-family="Tahoma,Tahoma" font-size="20.0" fill="#0000FF" transform="matrix(1.00, 0.00, -0.00, -1.00, 168.1, 265.9)">d</text><text xml:space="preserve" font-family="Tahoma,Tahoma" font-size="20.0" fill="#0000FF" transform="matrix(1.00, 0.00, -0.00, -1.00, 179.1, 265.9)"> </text><text xml:space="preserve" font-family="Tahoma,Tahoma" font-size="20.0" fill="#0000FF" transform="matrix(1.00, 0.00, -0.00, -1.00, 185.4, 265.9)">p</text><text xml:space="preserve" font-family="Tahoma,Tahoma" font-size="20.0" fill="#0000FF" transform="matrix(1.00, 0.00, -0.00, -1.00, 196.4, 265.9)">e</text><text xml:space="preserve" font-family="Tahoma,Tahoma" font-size="20.0" fill="#0000FF" transform="matrix(1.00, 0.00, -0.00, -1.00, 207.0, 265.9)">r</text><text xml:space="preserve" font-family="Tahoma,Tahoma" font-size="20.0" fill="#0000FF" transform="matrix(1.00, 0.00, -0.00, -1.00, 214.2, 265.9)">f</text><text xml:space="preserve" font-family="Tahoma,Tahoma" font-size="20.0" fill="#0000FF" transform="matrix(1.00, 0.00, -0.00, -1.00, 220.4, 265.9)">o</text><text xml:space="preserve" font-family="Tahoma,Tahoma" font-size="20.0" fill="#0000FF" transform="matrix(1.00, 0.00, -0.00, -1.00, 231.2, 265.9)">r</text><text xml:space="preserve" font-family="Tahoma,Tahoma" font-size="20.0" fill="#0000FF" transform="matrix(1.00, 0.00, -0.00, -1.00, 238.4, 265.9)">m</text><text xml:space="preserve" font-family="Tahoma,Tahoma" font-size="20.0" fill="#0000FF" transform="matrix(1.00, 0.00, -0.00, -1.00, 255.2, 265.9)"> </text><text xml:space="preserve" font-family="Tahoma,Tahoma" font-size="20.0" fill="#0000FF" transform="matrix(1.00, 0.00, -0.00, -1.00, 261.5, 265.9)">t</text><text xml:space="preserve" font-family="Tahoma,Tahoma" font-size="20.0" fill="#0000FF" transform="matrix(1.00, 0.00, -0.00, -1.00, 268.2, 265.9)">h</text><text xml:space="preserve" font-family="Tahoma,Tahoma" font-size="20.0" fill="#0000FF" transform="matrix(1.00, 0.00, -0.00, -1.00, 279.3, 265.9)">i</text><text xml:space="preserve" font-family="Tahoma,Tahoma" font-size="20.0" fill="#0000FF" transform="matrix(1.00, 0.00, -0.00, -1.00, 283.9, 265.9)">s</text><text xml:space="preserve" font-family="Tahoma,Tahoma" font-size="20.0" fill="#0000FF" transform="matrix(1.00, 0.00, -0.00, -1.00, 292.8, 265.9)"> </text><text xml:space="preserve" font-family="Tahoma,Tahoma" font-size="20.0" fill="#0000FF" transform="matrix(1.00, 0.00, -0.00, -1.00, 299.0, 265.9)">t</text><text xml:space="preserve" font-family="Tahoma,Tahoma" font-size="20.0" fill="#0000FF" transform="matrix(1.00, 0.00, -0.00, -1.00, 305.7, 265.9)">a</text><text xml:space="preserve" font-family="Tahoma,Tahoma" font-size="20.0" fill="#0000FF" transform="matrix(1.00, 0.00, -0.00, -1.00, 316.2, 265.9)">s</text><text xml:space="preserve" font-family="Tahoma,Tahoma" font-size="20.0" fill="#0000FF" transform="matrix(1.00, 0.00, -0.00, -1.00, 325.2, 265.9)">k</text><text xml:space="preserve" font-family="Tahoma,Tahoma" font-size="20.0" fill="#0000FF" transform="matrix(1.00, 0.00, -0.00, -1.00, 335.1, 265.9)">!</text><text xml:space="preserve" font-family="Tahoma,Tahoma" font-size="20.0" fill="#0000FF" transform="matrix(1.00, 0.00, -0.00, -1.00, 341.8, 265.9)"> </text><text xml:space="preserve" font-family="Tahoma,Tahoma" font-size="20.0" fill="#0000FF" transform="matrix(1.00, 0.00, -0.00, -1.00, 37.5, 217.9)">S</text><text xml:space="preserve" font-family="Tahoma,Tahoma" font-size="20.0" fill="#0000FF" transform="matrix(1.00, 0.00, -0.00, -1.00, 48.6, 217.9)">t</text><text xml:space="preserve" font-family="Tahoma,Tahoma" font-size="20.0" fill="#0000FF" transform="matrix(1.00, 0.00, -0.00, -1.00, 55.3, 217.9)">r</text><text xml:space="preserve" font-family="Tahoma,Tahoma" font-size="20.0" fill="#0000FF" transform="matrix(1.00, 0.00, -0.00, -1.00, 62.5, 217.9)">i</text><text xml:space="preserve" font-family="Tahoma,Tahoma" font-size="20.0" fill="#0000FF" transform="matrix(1.00, 0.00, -0.00, -1.00, 67.1, 217.9)">n</text><text xml:space="preserve" font-family="Tahoma,Tahoma" font-size="20.0" fill="#0000FF" transform="matrix(1.00, 0.00, -0.00, -1.00, 78.2, 217.9)">g</text><text xml:space="preserve" font-family="Tahoma,Tahoma" font-size="20.0" fill="#0000FF" transform="matrix(1.00, 0.00, -0.00, -1.00, 89.3, 217.9)">[</text><text xml:space="preserve" font-family="Tahoma,Tahoma" font-size="20.0" fill="#0000FF" transform="matrix(1.00, 0.00, -0.00, -1.00, 96.9, 217.9)">]</text><text xml:space="preserve" font-family="Tahoma,Tahoma" font-size="20.0" fill="#0000FF" transform="matrix(1.00, 0.00, -0.00, -1.00, 104.6, 217.9)"> </text><text xml:space="preserve" font-family="Tahoma,Tahoma" font-size="20.0" fill="#0000FF" transform="matrix(1.00, 0.00, -0.00, -1.00, 110.8, 217.9)">m</text><text xml:space="preserve" font-family="Tahoma,Tahoma" font-size="20.0" fill="#0000FF" transform="matrix(1.00, 0.00, -0.00, -1.00, 127.5, 217.9)">y</text><text xml:space="preserve" font-family="Tahoma,Tahoma" font-size="20.0" fill="#0000FF" transform="matrix(1.00, 0.00, -0.00, -1.00, 137.4, 217.9)">S</text><text xml:space="preserve" font-family="Tahoma,Tahoma" font-size="20.0" fill="#0000FF" transform="matrix(1.00, 0.00, -0.00, -1.00, 148.6, 217.9)">t</text><text xml:space="preserve" font-family="Tahoma,Tahoma" font-size="20.0" fill="#0000FF" transform="matrix(1.00, 0.00, -0.00, -1.00, 155.3, 217.9)">r</text><text xml:space="preserve" font-family="Tahoma,Tahoma" font-size="20.0" fill="#0000FF" transform="matrix(1.00, 0.00, -0.00, -1.00, 162.5, 217.9)">i</text><text xml:space="preserve" font-family="Tahoma,Tahoma" font-size="20.0" fill="#0000FF" transform="matrix(1.00, 0.00, -0.00, -1.00, 167.0, 217.9)">n</text><text xml:space="preserve" font-family="Tahoma,Tahoma" font-size="20.0" fill="#0000FF" transform="matrix(1.00, 0.00, -0.00, -1.00, 178.2, 217.9)">g</text><text xml:space="preserve" font-family="Tahoma,Tahoma" font-size="20.0" fill="#0000FF" transform="matrix(1.00, 0.00, -0.00, -1.00, 189.2, 217.9)">s</text><text xml:space="preserve" font-family="Tahoma,Tahoma" font-size="20.0" fill="#0000FF" transform="matrix(1.00, 0.00, -0.00, -1.00, 198.2, 217.9)"> </text><text xml:space="preserve" font-family="Tahoma,Tahoma" font-size="20.0" fill="#0000FF" transform="matrix(1.00, 0.00, -0.00, -1.00, 204.4, 217.9)">=</text><text xml:space="preserve" font-family="Tahoma,Tahoma" font-size="20.0" fill="#0000FF" transform="matrix(1.00, 0.00, -0.00, -1.00, 218.9, 217.9)"> </text><text xml:space="preserve" font-family="Tahoma,Tahoma" font-size="20.0" fill="#0000FF" transform="matrix(1.00, 0.00, -0.00, -1.00, 225.2, 217.9)">{</text><text xml:space="preserve" font-family="Tahoma,Tahoma" font-size="20.0" fill="#0000FF" transform="matrix(1.00, 0.00, -0.00, -1.00, 234.8, 217.9)">“</text><text xml:space="preserve" font-family="Tahoma,Tahoma" font-size="20.0" fill="#0000FF" transform="matrix(1.00, 0.00, -0.00, -1.00, 242.8, 217.9)">H</text><text xml:space="preserve" font-family="Tahoma,Tahoma" font-size="20.0" fill="#0000FF" transform="matrix(1.00, 0.00, -0.00, -1.00, 256.3, 217.9)">e</text><text xml:space="preserve" font-family="Tahoma,Tahoma" font-size="20.0" fill="#0000FF" transform="matrix(1.00, 0.00, -0.00, -1.00, 266.9, 217.9)">l</text><text xml:space="preserve" font-family="Tahoma,Tahoma" font-size="20.0" fill="#0000FF" transform="matrix(1.00, 0.00, -0.00, -1.00, 271.5, 217.9)">l</text><text xml:space="preserve" font-family="Tahoma,Tahoma" font-size="20.0" fill="#0000FF" transform="matrix(1.00, 0.00, -0.00, -1.00, 276.1, 217.9)">o</text><text xml:space="preserve" font-family="Tahoma,Tahoma" font-size="20.0" fill="#0000FF" transform="matrix(1.00, 0.00, -0.00, -1.00, 286.9, 217.9)"> </text><text xml:space="preserve" font-family="Tahoma,Tahoma" font-size="20.0" fill="#0000FF" transform="matrix(1.00, 0.00, -0.00, -1.00, 293.2, 217.9)">t</text><text xml:space="preserve" font-family="Tahoma,Tahoma" font-size="20.0" fill="#0000FF" transform="matrix(1.00, 0.00, -0.00, -1.00, 299.9, 217.9)">h</text><text xml:space="preserve" font-family="Tahoma,Tahoma" font-size="20.0" fill="#0000FF" transform="matrix(1.00, 0.00, -0.00, -1.00, 311.0, 217.9)">e</text><text xml:space="preserve" font-family="Tahoma,Tahoma" font-size="20.0" fill="#0000FF" transform="matrix(1.00, 0.00, -0.00, -1.00, 321.5, 217.9)">r</text><text xml:space="preserve" font-family="Tahoma,Tahoma" font-size="20.0" fill="#0000FF" transform="matrix(1.00, 0.00, -0.00, -1.00, 328.7, 217.9)">e</text><text xml:space="preserve" font-family="Tahoma,Tahoma" font-size="20.0" fill="#0000FF" transform="matrix(1.00, 0.00, -0.00, -1.00, 339.2, 217.9)">”</text><text xml:space="preserve" font-family="Tahoma,Tahoma" font-size="20.0" fill="#0000FF" transform="matrix(1.00, 0.00, -0.00, -1.00, 345.3, 217.9)">,</text><text xml:space="preserve" font-family="Tahoma,Tahoma" font-size="20.0" fill="#0000FF" transform="matrix(1.00, 0.00, -0.00, -1.00, 351.3, 217.9)"> </text><text xml:space="preserve" font-family="Tahoma,Tahoma" font-size="20.0" fill="#0000FF" transform="matrix(1.00, 0.00, -0.00, -1.00, 357.5, 217.9)">“</text><text xml:space="preserve" font-family="Tahoma,Tahoma" font-size="20.0" fill="#0000FF" transform="matrix(1.00, 0.00, -0.00, -1.00, 365.6, 217.9)">I</text><text xml:space="preserve" font-family="Tahoma,Tahoma" font-size="20.0" fill="#0000FF" transform="matrix(1.00, 0.00, -0.00, -1.00, 373.0, 217.9)"> </text><text xml:space="preserve" font-family="Tahoma,Tahoma" font-size="20.0" fill="#0000FF" transform="matrix(1.00, 0.00, -0.00, -1.00, 379.3, 217.9)">a</text><text xml:space="preserve" font-family="Tahoma,Tahoma" font-size="20.0" fill="#0000FF" transform="matrix(1.00, 0.00, -0.00, -1.00, 389.8, 217.9)">m</text><text xml:space="preserve" font-family="Tahoma,Tahoma" font-size="20.0" fill="#0000FF" transform="matrix(1.00, 0.00, -0.00, -1.00, 406.6, 217.9)"> </text><text xml:space="preserve" font-family="Tahoma,Tahoma" font-size="20.0" fill="#0000FF" transform="matrix(1.00, 0.00, -0.00, -1.00, 412.8, 217.9)">b</text><text xml:space="preserve" font-family="Tahoma,Tahoma" font-size="20.0" fill="#0000FF" transform="matrix(1.00, 0.00, -0.00, -1.00, 423.9, 217.9)">o</text><text xml:space="preserve" font-family="Tahoma,Tahoma" font-size="20.0" fill="#0000FF" transform="matrix(1.00, 0.00, -0.00, -1.00, 434.7, 217.9)">b</text><text xml:space="preserve" font-family="Tahoma,Tahoma" font-size="20.0" fill="#0000FF" transform="matrix(1.00, 0.00, -0.00, -1.00, 445.8, 217.9)">”</text><text xml:space="preserve" font-family="Tahoma,Tahoma" font-size="20.0" fill="#0000FF" transform="matrix(1.00, 0.00, -0.00, -1.00, 451.8, 217.9)">,</text><text xml:space="preserve" font-family="Tahoma,Tahoma" font-size="20.0" fill="#0000FF" transform="matrix(1.00, 0.00, -0.00, -1.00, 457.9, 217.9)"> </text><text xml:space="preserve" font-family="Tahoma,Tahoma" font-size="20.0" fill="#0000FF" transform="matrix(1.00, 0.00, -0.00, -1.00, 464.1, 217.9)">“</text><text xml:space="preserve" font-family="Tahoma,Tahoma" font-size="20.0" fill="#0000FF" transform="matrix(1.00, 0.00, -0.00, -1.00, 472.2, 217.9)">I</text><text xml:space="preserve" font-family="Tahoma,Tahoma" font-size="20.0" fill="#0000FF" transform="matrix(1.00, 0.00, -0.00, -1.00, 479.6, 217.9)"> </text><text xml:space="preserve" font-family="Tahoma,Tahoma" font-size="20.0" fill="#0000FF" transform="matrix(1.00, 0.00, -0.00, -1.00, 485.9, 217.9)">l</text><text xml:space="preserve" font-family="Tahoma,Tahoma" font-size="20.0" fill="#0000FF" transform="matrix(1.00, 0.00, -0.00, -1.00, 490.4, 217.9)">i</text><text xml:space="preserve" font-family="Tahoma,Tahoma" font-size="20.0" fill="#0000FF" transform="matrix(1.00, 0.00, -0.00, -1.00, 495.0, 217.9)">v</text><text xml:space="preserve" font-family="Tahoma,Tahoma" font-size="20.0" fill="#0000FF" transform="matrix(1.00, 0.00, -0.00, -1.00, 504.8, 217.9)">e</text><text xml:space="preserve" font-family="Tahoma,Tahoma" font-size="20.0" fill="#0000FF" transform="matrix(1.00, 0.00, -0.00, -1.00, 515.3, 217.9)"> </text><text xml:space="preserve" font-family="Tahoma,Tahoma" font-size="20.0" fill="#0000FF" transform="matrix(1.00, 0.00, -0.00, -1.00, 521.6, 217.9)">i</text><text xml:space="preserve" font-family="Tahoma,Tahoma" font-size="20.0" fill="#0000FF" transform="matrix(1.00, 0.00, -0.00, -1.00, 526.1, 217.9)">n</text><text xml:space="preserve" font-family="Tahoma,Tahoma" font-size="20.0" fill="#0000FF" transform="matrix(1.00, 0.00, -0.00, -1.00, 537.3, 217.9)"> </text><text xml:space="preserve" font-family="Tahoma,Tahoma" font-size="20.0" fill="#0000FF" transform="matrix(1.00, 0.00, -0.00, -1.00, 543.5, 217.9)">t</text><text xml:space="preserve" font-family="Tahoma,Tahoma" font-size="20.0" fill="#0000FF" transform="matrix(1.00, 0.00, -0.00, -1.00, 550.2, 217.9)">h</text><text xml:space="preserve" font-family="Tahoma,Tahoma" font-size="20.0" fill="#0000FF" transform="matrix(1.00, 0.00, -0.00, -1.00, 561.4, 217.9)">e</text><text xml:space="preserve" font-family="Tahoma,Tahoma" font-size="20.0" fill="#0000FF" transform="matrix(1.00, 0.00, -0.00, -1.00, 571.9, 217.9)"> </text><text xml:space="preserve" font-family="Tahoma,Tahoma" font-size="20.0" fill="#0000FF" transform="matrix(1.00, 0.00, -0.00, -1.00, 578.2, 217.9)">f</text><text xml:space="preserve" font-family="Tahoma,Tahoma" font-size="20.0" fill="#0000FF" transform="matrix(1.00, 0.00, -0.00, -1.00, 584.3, 217.9)">o</text><text xml:space="preserve" font-family="Tahoma,Tahoma" font-size="20.0" fill="#0000FF" transform="matrix(1.00, 0.00, -0.00, -1.00, 595.2, 217.9)">r</text><text xml:space="preserve" font-family="Tahoma,Tahoma" font-size="20.0" fill="#0000FF" transform="matrix(1.00, 0.00, -0.00, -1.00, 602.3, 217.9)">e</text><text xml:space="preserve" font-family="Tahoma,Tahoma" font-size="20.0" fill="#0000FF" transform="matrix(1.00, 0.00, -0.00, -1.00, 612.8, 217.9)">s</text><text xml:space="preserve" font-family="Tahoma,Tahoma" font-size="20.0" fill="#0000FF" transform="matrix(1.00, 0.00, -0.00, -1.00, 621.8, 217.9)">t</text><text xml:space="preserve" font-family="Tahoma,Tahoma" font-size="20.0" fill="#0000FF" transform="matrix(1.00, 0.00, -0.00, -1.00, 628.6, 217.9)">”</text><text xml:space="preserve" font-family="Tahoma,Tahoma" font-size="20.0" fill="#0000FF" transform="matrix(1.00, 0.00, -0.00, -1.00, 636.7, 217.9)">}</text><text xml:space="preserve" font-family="Tahoma,Tahoma" font-size="20.0" fill="#0000FF" transform="matrix(1.00, 0.00, -0.00, -1.00, 646.3, 217.9)">;</text><text xml:space="preserve" font-family="Tahoma,Tahoma" font-size="20.0" fill="#0000FF" transform="matrix(1.00, 0.00, -0.00, -1.00, 653.4, 217.9)"> </text><text xml:space="preserve" font-family="Tahoma,Tahoma" font-size="20.0" fill="#0000FF" transform="matrix(1.00, 0.00, -0.00, -1.00, 37.5, 169.9)">I</text><text xml:space="preserve" font-family="Tahoma,Tahoma" font-size="20.0" fill="#0000FF" transform="matrix(1.00, 0.00, -0.00, -1.00, 44.9, 169.9)"> </text><text xml:space="preserve" font-family="Tahoma,Tahoma" font-size="20.0" fill="#0000FF" transform="matrix(1.00, 0.00, -0.00, -1.00, 51.2, 169.9)">w</text><text xml:space="preserve" font-family="Tahoma,Tahoma" font-size="20.0" fill="#0000FF" transform="matrix(1.00, 0.00, -0.00, -1.00, 65.8, 169.9)">a</text><text xml:space="preserve" font-family="Tahoma,Tahoma" font-size="20.0" fill="#0000FF" transform="matrix(1.00, 0.00, -0.00, -1.00, 76.3, 169.9)">n</text><text xml:space="preserve" font-family="Tahoma,Tahoma" font-size="20.0" fill="#0000FF" transform="matrix(1.00, 0.00, -0.00, -1.00, 87.5, 169.9)">t</text><text xml:space="preserve" font-family="Tahoma,Tahoma" font-size="20.0" fill="#0000FF" transform="matrix(1.00, 0.00, -0.00, -1.00, 94.2, 169.9)"> </text><text xml:space="preserve" font-family="Tahoma,Tahoma" font-size="20.0" fill="#0000FF" transform="matrix(1.00, 0.00, -0.00, -1.00, 100.4, 169.9)">e</text><text xml:space="preserve" font-family="Tahoma,Tahoma" font-size="20.0" fill="#0000FF" transform="matrix(1.00, 0.00, -0.00, -1.00, 111.0, 169.9)">a</text><text xml:space="preserve" font-family="Tahoma,Tahoma" font-size="20.0" fill="#0000FF" transform="matrix(1.00, 0.00, -0.00, -1.00, 121.5, 169.9)">c</text><text xml:space="preserve" font-family="Tahoma,Tahoma" font-size="20.0" fill="#0000FF" transform="matrix(1.00, 0.00, -0.00, -1.00, 130.7, 169.9)">h</text><text xml:space="preserve" font-family="Tahoma,Tahoma" font-size="20.0" fill="#0000FF" transform="matrix(1.00, 0.00, -0.00, -1.00, 141.8, 169.9)"> </text><text xml:space="preserve" font-family="Tahoma,Tahoma" font-size="20.0" fill="#0000FF" transform="matrix(1.00, 0.00, -0.00, -1.00, 148.1, 169.9)">s</text><text xml:space="preserve" font-family="Tahoma,Tahoma" font-size="20.0" fill="#0000FF" transform="matrix(1.00, 0.00, -0.00, -1.00, 157.0, 169.9)">t</text><text xml:space="preserve" font-family="Tahoma,Tahoma" font-size="20.0" fill="#0000FF" transform="matrix(1.00, 0.00, -0.00, -1.00, 163.7, 169.9)">r</text><text xml:space="preserve" font-family="Tahoma,Tahoma" font-size="20.0" fill="#0000FF" transform="matrix(1.00, 0.00, -0.00, -1.00, 170.9, 169.9)">i</text><text xml:space="preserve" font-family="Tahoma,Tahoma" font-size="20.0" fill="#0000FF" transform="matrix(1.00, 0.00, -0.00, -1.00, 175.5, 169.9)">n</text><text xml:space="preserve" font-family="Tahoma,Tahoma" font-size="20.0" fill="#0000FF" transform="matrix(1.00, 0.00, -0.00, -1.00, 186.6, 169.9)">g</text><text xml:space="preserve" font-family="Tahoma,Tahoma" font-size="20.0" fill="#0000FF" transform="matrix(1.00, 0.00, -0.00, -1.00, 197.7, 169.9)"> </text><text xml:space="preserve" font-family="Tahoma,Tahoma" font-size="20.0" fill="#0000FF" transform="matrix(1.00, 0.00, -0.00, -1.00, 203.9, 169.9)">i</text><text xml:space="preserve" font-family="Tahoma,Tahoma" font-size="20.0" fill="#0000FF" transform="matrix(1.00, 0.00, -0.00, -1.00, 208.5, 169.9)">n</text><text xml:space="preserve" font-family="Tahoma,Tahoma" font-size="20.0" fill="#0000FF" transform="matrix(1.00, 0.00, -0.00, -1.00, 219.6, 169.9)"> </text><text xml:space="preserve" font-family="Tahoma,Tahoma" font-size="20.0" fill="#0000FF" transform="matrix(1.00, 0.00, -0.00, -1.00, 225.9, 169.9)">t</text><text xml:space="preserve" font-family="Tahoma,Tahoma" font-size="20.0" fill="#0000FF" transform="matrix(1.00, 0.00, -0.00, -1.00, 232.6, 169.9)">h</text><text xml:space="preserve" font-family="Tahoma,Tahoma" font-size="20.0" fill="#0000FF" transform="matrix(1.00, 0.00, -0.00, -1.00, 243.7, 169.9)">e</text><text xml:space="preserve" font-family="Tahoma,Tahoma" font-size="20.0" fill="#0000FF" transform="matrix(1.00, 0.00, -0.00, -1.00, 254.2, 169.9)">i</text><text xml:space="preserve" font-family="Tahoma,Tahoma" font-size="20.0" fill="#0000FF" transform="matrix(1.00, 0.00, -0.00, -1.00, 258.8, 169.9)">r</text><text xml:space="preserve" font-family="Tahoma,Tahoma" font-size="20.0" fill="#0000FF" transform="matrix(1.00, 0.00, -0.00, -1.00, 266.0, 169.9)"> </text><text xml:space="preserve" font-family="Tahoma,Tahoma" font-size="20.0" fill="#0000FF" transform="matrix(1.00, 0.00, -0.00, -1.00, 272.3, 169.9)">o</text><text xml:space="preserve" font-family="Tahoma,Tahoma" font-size="20.0" fill="#0000FF" transform="matrix(1.00, 0.00, -0.00, -1.00, 283.1, 169.9)">w</text><text xml:space="preserve" font-family="Tahoma,Tahoma" font-size="20.0" fill="#0000FF" transform="matrix(1.00, 0.00, -0.00, -1.00, 298.0, 169.9)">n</text><text xml:space="preserve" font-family="Tahoma,Tahoma" font-size="20.0" fill="#0000FF" transform="matrix(1.00, 0.00, -0.00, -1.00, 309.1, 169.9)"> </text><text xml:space="preserve" font-family="Tahoma,Tahoma" font-size="20.0" fill="#0000FF" transform="matrix(1.00, 0.00, -0.00, -1.00, 315.4, 169.9)">s</text><text xml:space="preserve" font-family="Tahoma,Tahoma" font-size="20.0" fill="#0000FF" transform="matrix(1.00, 0.00, -0.00, -1.00, 324.3, 169.9)">e</text><text xml:space="preserve" font-family="Tahoma,Tahoma" font-size="20.0" fill="#0000FF" transform="matrix(1.00, 0.00, -0.00, -1.00, 334.8, 169.9)">p</text><text xml:space="preserve" font-family="Tahoma,Tahoma" font-size="20.0" fill="#0000FF" transform="matrix(1.00, 0.00, -0.00, -1.00, 345.9, 169.9)">a</text><text xml:space="preserve" font-family="Tahoma,Tahoma" font-size="20.0" fill="#0000FF" transform="matrix(1.00, 0.00, -0.00, -1.00, 356.4, 169.9)">r</text><text xml:space="preserve" font-family="Tahoma,Tahoma" font-size="20.0" fill="#0000FF" transform="matrix(1.00, 0.00, -0.00, -1.00, 363.2, 169.9)">a</text><text xml:space="preserve" font-family="Tahoma,Tahoma" font-size="20.0" fill="#0000FF" transform="matrix(1.00, 0.00, -0.00, -1.00, 373.7, 169.9)">t</text><text xml:space="preserve" font-family="Tahoma,Tahoma" font-size="20.0" fill="#0000FF" transform="matrix(1.00, 0.00, -0.00, -1.00, 380.4, 169.9)">e</text><text xml:space="preserve" font-family="Tahoma,Tahoma" font-size="20.0" fill="#0000FF" transform="matrix(1.00, 0.00, -0.00, -1.00, 391.0, 169.9)"> </text><text xml:space="preserve" font-family="Tahoma,Tahoma" font-size="20.0" fill="#0000FF" transform="matrix(1.00, 0.00, -0.00, -1.00, 397.2, 169.9)">l</text><text xml:space="preserve" font-family="Tahoma,Tahoma" font-size="20.0" fill="#0000FF" transform="matrix(1.00, 0.00, -0.00, -1.00, 401.8, 169.9)">i</text><text xml:space="preserve" font-family="Tahoma,Tahoma" font-size="20.0" fill="#0000FF" transform="matrix(1.00, 0.00, -0.00, -1.00, 406.3, 169.9)">n</text><text xml:space="preserve" font-family="Tahoma,Tahoma" font-size="20.0" fill="#0000FF" transform="matrix(1.00, 0.00, -0.00, -1.00, 417.5, 169.9)">e</text><text xml:space="preserve" font-family="Tahoma,Tahoma" font-size="20.0" fill="#0000FF" transform="matrix(1.00, 0.00, -0.00, -1.00, 428.0, 169.9)">.</text><text xml:space="preserve" font-family="Tahoma,Tahoma" font-size="11.0" fill="#7E7E7E" transform="matrix(1.00, 0.00, -0.00, -1.00, 468.7, 502.4)">C</text><text xml:space="preserve" font-family="Tahoma,Tahoma" font-size="11.0" fill="#7E7E7E" transform="matrix(1.00, 0.00, -0.00, -1.00, 475.3, 502.4)">o</text><text xml:space="preserve" font-family="Tahoma,Tahoma" font-size="11.0" fill="#7E7E7E" transform="matrix(1.00, 0.00, -0.00, -1.00, 481.3, 502.4)">p</text><text xml:space="preserve" font-family="Tahoma,Tahoma" font-size="11.0" fill="#7E7E7E" transform="matrix(1.00, 0.00, -0.00, -1.00, 487.4, 502.4)">y</text><text xml:space="preserve" font-family="Tahoma,Tahoma" font-size="11.0" fill="#7E7E7E" transform="matrix(1.00, 0.00, -0.00, -1.00, 492.8, 502.4)">r</text><text xml:space="preserve" font-family="Tahoma,Tahoma" font-size="11.0" fill="#7E7E7E" transform="matrix(1.00, 0.00, -0.00, -1.00, 496.8, 502.4)">i</text><text xml:space="preserve" font-family="Tahoma,Tahoma" font-size="11.0" fill="#7E7E7E" transform="matrix(1.00, 0.00, -0.00, -1.00, 499.3, 502.4)">g</text><text xml:space="preserve" font-family="Tahoma,Tahoma" font-size="11.0" fill="#7E7E7E" transform="matrix(1.00, 0.00, -0.00, -1.00, 505.4, 502.4)">h</text><text xml:space="preserve" font-family="Tahoma,Tahoma" font-size="11.0" fill="#7E7E7E" transform="matrix(1.00, 0.00, -0.00, -1.00, 511.5, 502.4)">t</text><text xml:space="preserve" font-family="Tahoma,Tahoma" font-size="11.0" fill="#7E7E7E" transform="matrix(1.00, 0.00, -0.00, -1.00, 515.2, 502.4)"> </text><text xml:space="preserve" font-family="Tahoma,Tahoma" font-size="11.0" fill="#7E7E7E" transform="matrix(1.00, 0.00, -0.00, -1.00, 518.6, 502.4)">©</text><text xml:space="preserve" font-family="Tahoma,Tahoma" font-size="11.0" fill="#7E7E7E" transform="matrix(1.00, 0.00, -0.00, -1.00, 528.8, 502.4)"> </text><text xml:space="preserve" font-family="Tahoma,Tahoma" font-size="11.0" fill="#7E7E7E" transform="matrix(1.00, 0.00, -0.00, -1.00, 532.3, 502.4)">T</text><text xml:space="preserve" font-family="Tahoma,Tahoma" font-size="11.0" fill="#7E7E7E" transform="matrix(1.00, 0.00, -0.00, -1.00, 537.7, 502.4)">u</text><text xml:space="preserve" font-family="Tahoma,Tahoma" font-size="11.0" fill="#7E7E7E" transform="matrix(1.00, 0.00, -0.00, -1.00, 543.8, 502.4)">a</text><text xml:space="preserve" font-family="Tahoma,Tahoma" font-size="11.0" fill="#7E7E7E" transform="matrix(1.00, 0.00, -0.00, -1.00, 549.6, 502.4)">n</text><text xml:space="preserve" font-family="Tahoma,Tahoma" font-size="11.0" fill="#7E7E7E" transform="matrix(1.00, 0.00, -0.00, -1.00, 555.7, 502.4)"> </text><text xml:space="preserve" font-family="Tahoma,Tahoma" font-size="11.0" fill="#7E7E7E" transform="matrix(1.00, 0.00, -0.00, -1.00, 559.1, 502.4)">T</text><text xml:space="preserve" font-family="Tahoma,Tahoma" font-size="11.0" fill="#7E7E7E" transform="matrix(1.00, 0.00, -0.00, -1.00, 564.5, 502.4)">r</text><text xml:space="preserve" font-family="Tahoma,Tahoma" font-size="11.0" fill="#7E7E7E" transform="matrix(1.00, 0.00, -0.00, -1.00, 568.3, 502.4)">a</text><text xml:space="preserve" font-family="Tahoma,Tahoma" font-size="11.0" fill="#7E7E7E" transform="matrix(1.00, 0.00, -0.00, -1.00, 574.1, 502.4)">n</text><text xml:space="preserve" font-family="Tahoma,Tahoma" font-size="11.0" fill="#7E7E7E" transform="matrix(1.00, 0.00, -0.00, -1.00, 580.2, 502.4)"> </text><text xml:space="preserve" font-family="Tahoma,Tahoma" font-size="11.0" fill="#7E7E7E" transform="matrix(1.00, 0.00, -0.00, -1.00, 583.7, 502.4)">2</text><text xml:space="preserve" font-family="Tahoma,Tahoma" font-size="11.0" fill="#7E7E7E" transform="matrix(1.00, 0.00, -0.00, -1.00, 589.7, 502.4)">0</text><text xml:space="preserve" font-family="Tahoma,Tahoma" font-size="11.0" fill="#7E7E7E" transform="matrix(1.00, 0.00, -0.00, -1.00, 595.7, 502.4)">1</text><text xml:space="preserve" font-family="Tahoma,Tahoma" font-size="11.0" fill="#7E7E7E" transform="matrix(1.00, 0.00, -0.00, -1.00, 601.7, 502.4)">4</text></g></svg>