<?xml version="1.0" encoding="UTF-8" standalone="no"?><svg xmlns="http://www.w3.org/2000/svg" xmlns:xlink="http://www.w3.org/1999/xlink" clip-rule="evenodd" stroke-miterlimit="10" viewBox="0 0 1024 768"><desc>SVG generated by Keynote</desc><defs></defs><g transform="matrix(1.00, 0.00, -0.00, -1.00, 0.0, 768.0)"><g><clipPath id="clip0x7ff62de696d0"><path d="M 0.0 768.0 L 1024.0 768.0 L 1024.0 0.0 L 0.0 0.0 Z M 0.0 768.0 "></path></clipPath><g clip-path="url(#clip0x7ff62de696d0)"><image xlink:href="../../BE4D2DDB-FBE4-467E-AE38-B34F9028D09E/assets/9397CAD6F20342ACC2646ABBCA758461.jpeg" width="2048.00" height="1536.00" transform="matrix(0.50, 0.00, -0.00, -0.50, 0.0, 768.0)"></image></g></g><image xlink:href="9C14BB5B6AF1ED07A1477C3B9027AA34.png" width="398.00" height="56.00" transform="matrix(1.00, 0.00, -0.00, -1.00, 171.0, 689.0)"></image><text xml:space="preserve" font-family="HelveticaNeue-Bold,Helvetica Neue" font-weight="bold" font-size="64.0" fill="#FEFFFE" transform="matrix(1.00, 0.00, -0.00, -1.00, 170.6, 640.7)">1</text><text xml:space="preserve" font-family="HelveticaNeue-Bold,Helvetica Neue" font-weight="bold" font-size="64.0" fill="#FEFFFE" transform="matrix(1.00, 0.00, -0.00, -1.00, 206.2, 640.7)">.</text><text xml:space="preserve" font-family="HelveticaNeue-Bold,Helvetica Neue" font-weight="bold" font-size="64.0" fill="#FEFFFE" transform="matrix(1.00, 0.00, -0.00, -1.00, 224.0, 640.7)"> </text><text xml:space="preserve" font-family="HelveticaNeue-Bold,Helvetica Neue" font-weight="bold" font-size="64.0" fill="#FEFFFE" transform="matrix(1.00, 0.00, -0.00, -1.00, 241.8, 640.7)">W</text><text xml:space="preserve" font-family="HelveticaNeue-Bold,Helvetica Neue" font-weight="bold" font-size="64.0" fill="#FEFFFE" transform="matrix(1.00, 0.00, -0.00, -1.00, 302.2, 640.7)">h</text><text xml:space="preserve" font-family="HelveticaNeue-Bold,Helvetica Neue" font-weight="bold" font-size="64.0" fill="#FEFFFE" transform="matrix(1.00, 0.00, -0.00, -1.00, 340.2, 640.7)">a</text><text xml:space="preserve" font-family="HelveticaNeue-Bold,Helvetica Neue" font-weight="bold" font-size="64.0" fill="#FEFFFE" transform="matrix(1.00, 0.00, -0.00, -1.00, 376.9, 640.7)">t</text><text xml:space="preserve" font-family="HelveticaNeue-Bold,Helvetica Neue" font-weight="bold" font-size="64.0" fill="#FEFFFE" transform="matrix(1.00, 0.00, -0.00, -1.00, 399.4, 640.7)"> </text><text xml:space="preserve" font-family="HelveticaNeue-Bold,Helvetica Neue" font-weight="bold" font-size="64.0" fill="#FEFFFE" transform="matrix(1.00, 0.00, -0.00, -1.00, 417.2, 640.7)">d</text><text xml:space="preserve" font-family="HelveticaNeue-Bold,Helvetica Neue" font-weight="bold" font-size="64.0" fill="#FEFFFE" transform="matrix(1.00, 0.00, -0.00, -1.00, 456.3, 640.7)">o</text><text xml:space="preserve" font-family="HelveticaNeue-Bold,Helvetica Neue" font-weight="bold" font-size="64.0" fill="#FEFFFE" transform="matrix(1.00, 0.00, -0.00, -1.00, 495.4, 640.7)">e</text><text xml:space="preserve" font-family="HelveticaNeue-Bold,Helvetica Neue" font-weight="bold" font-size="64.0" fill="#FEFFFE" transform="matrix(1.00, 0.00, -0.00, -1.00, 532.2, 640.7)">s</text><text xml:space="preserve" font-family="HelveticaNeue-Bold,Helvetica Neue" font-weight="bold" font-size="64.0" fill="#FEFFFE" transform="matrix(1.00, 0.00, -0.00, -1.00, 566.5, 640.7)"> </text><image xlink:href="8107A555AB6C58536459DCA40C5F1AFD.png" width="143.00" height="60.00" transform="matrix(1.00, 0.00, -0.00, -1.00, 582.0, 690.0)"></image><text xml:space="preserve" font-family="HelveticaNeue-Bold,Helvetica Neue" font-weight="bold" font-size="64.0" fill="#609AE2" transform="matrix(1.00, 0.00, -0.00, -1.00, 584.3, 640.7)">Q</text><text xml:space="preserve" font-family="HelveticaNeue-Bold,Helvetica Neue" font-weight="bold" font-size="64.0" fill="#609AE2" transform="matrix(1.00, 0.00, -0.00, -1.00, 634.1, 640.7)">u</text><text xml:space="preserve" font-family="HelveticaNeue-Bold,Helvetica Neue" font-weight="bold" font-size="64.0" fill="#609AE2" transform="matrix(1.00, 0.00, -0.00, -1.00, 672.1, 640.7)">i</text><text xml:space="preserve" font-family="HelveticaNeue-Bold,Helvetica Neue" font-weight="bold" font-size="64.0" fill="#609AE2" transform="matrix(1.00, 0.00, -0.00, -1.00, 688.6, 640.7)">z</text><image xlink:href="9C86D135B4881771657BA79BC9CDE644.png" width="119.00" height="57.00" transform="matrix(1.00, 0.00, -0.00, -1.00, 737.0, 690.0)"></image><text xml:space="preserve" font-family="HelveticaNeue-Bold,Helvetica Neue" font-weight="bold" font-size="64.0" fill="#FEFFFE" transform="matrix(1.00, 0.00, -0.00, -1.00, 721.8, 640.7)"> </text><text xml:space="preserve" font-family="HelveticaNeue-Bold,Helvetica Neue" font-weight="bold" font-size="64.0" fill="#FEFFFE" transform="matrix(1.00, 0.00, -0.00, -1.00, 739.6, 640.7)">d</text><text xml:space="preserve" font-family="HelveticaNeue-Bold,Helvetica Neue" font-weight="bold" font-size="64.0" fill="#FEFFFE" transform="matrix(1.00, 0.00, -0.00, -1.00, 778.7, 640.7)">o</text><text xml:space="preserve" font-family="HelveticaNeue-Bold,Helvetica Neue" font-weight="bold" font-size="64.0" fill="#FEFFFE" transform="matrix(1.00, 0.00, -0.00, -1.00, 817.8, 640.7)">?</text><image xlink:href="74B43DB869A09EB75A9D38D60D1C98A6.png" width="761.00" height="41.00" transform="matrix(1.00, 0.00, -0.00, -1.00, 131.0, 399.0)"></image><text xml:space="preserve" font-family="HelveticaNeue-Medium,Helvetica Neue" font-size="34.0" fill="#609AE2" transform="matrix(1.00, 0.00, -0.00, -1.00, 134.0, 371.9)">S</text><text xml:space="preserve" font-family="HelveticaNeue-Medium,Helvetica Neue" font-size="34.0" fill="#609AE2" transform="matrix(1.00, 0.00, -0.00, -1.00, 156.0, 371.9)">h</text><text xml:space="preserve" font-family="HelveticaNeue-Medium,Helvetica Neue" font-size="34.0" fill="#609AE2" transform="matrix(1.00, 0.00, -0.00, -1.00, 175.5, 371.9)">o</text><text xml:space="preserve" font-family="HelveticaNeue-Medium,Helvetica Neue" font-size="34.0" fill="#609AE2" transform="matrix(1.00, 0.00, -0.00, -1.00, 195.7, 371.9)">w</text><text xml:space="preserve" font-family="HelveticaNeue-Medium,Helvetica Neue" font-size="34.0" fill="#609AE2" transform="matrix(1.00, 0.00, -0.00, -1.00, 222.1, 371.9)"> </text><text xml:space="preserve" font-family="HelveticaNeue-Medium,Helvetica Neue" font-size="34.0" fill="#609AE2" transform="matrix(1.00, 0.00, -0.00, -1.00, 231.6, 371.9)">q</text><text xml:space="preserve" font-family="HelveticaNeue-Medium,Helvetica Neue" font-size="34.0" fill="#609AE2" transform="matrix(1.00, 0.00, -0.00, -1.00, 252.4, 371.9)">u</text><text xml:space="preserve" font-family="HelveticaNeue-Medium,Helvetica Neue" font-size="34.0" fill="#609AE2" transform="matrix(1.00, 0.00, -0.00, -1.00, 271.9, 371.9)">e</text><text xml:space="preserve" font-family="HelveticaNeue-Medium,Helvetica Neue" font-size="34.0" fill="#609AE2" transform="matrix(1.00, 0.00, -0.00, -1.00, 290.8, 371.9)">s</text><text xml:space="preserve" font-family="HelveticaNeue-Medium,Helvetica Neue" font-size="34.0" fill="#609AE2" transform="matrix(1.00, 0.00, -0.00, -1.00, 308.4, 371.9)">t</text><text xml:space="preserve" font-family="HelveticaNeue-Medium,Helvetica Neue" font-size="34.0" fill="#609AE2" transform="matrix(1.00, 0.00, -0.00, -1.00, 319.7, 371.9)">i</text><text xml:space="preserve" font-family="HelveticaNeue-Medium,Helvetica Neue" font-size="34.0" fill="#609AE2" transform="matrix(1.00, 0.00, -0.00, -1.00, 327.9, 371.9)">o</text><text xml:space="preserve" font-family="HelveticaNeue-Medium,Helvetica Neue" font-size="34.0" fill="#609AE2" transform="matrix(1.00, 0.00, -0.00, -1.00, 348.1, 371.9)">n</text><text xml:space="preserve" font-family="HelveticaNeue-Medium,Helvetica Neue" font-size="34.0" fill="#609AE2" transform="matrix(1.00, 0.00, -0.00, -1.00, 367.6, 371.9)">s</text><text xml:space="preserve" font-family="HelveticaNeue-Medium,Helvetica Neue" font-size="34.0" fill="#609AE2" transform="matrix(1.00, 0.00, -0.00, -1.00, 385.3, 371.9)"> </text><text xml:space="preserve" font-family="HelveticaNeue-Medium,Helvetica Neue" font-size="34.0" fill="#609AE2" transform="matrix(1.00, 0.00, -0.00, -1.00, 394.7, 371.9)">a</text><text xml:space="preserve" font-family="HelveticaNeue-Medium,Helvetica Neue" font-size="34.0" fill="#609AE2" transform="matrix(1.00, 0.00, -0.00, -1.00, 413.6, 371.9)">n</text><text xml:space="preserve" font-family="HelveticaNeue-Medium,Helvetica Neue" font-size="34.0" fill="#609AE2" transform="matrix(1.00, 0.00, -0.00, -1.00, 433.1, 371.9)">d</text><text xml:space="preserve" font-family="HelveticaNeue-Medium,Helvetica Neue" font-size="34.0" fill="#609AE2" transform="matrix(1.00, 0.00, -0.00, -1.00, 453.9, 371.9)"> </text><text xml:space="preserve" font-family="HelveticaNeue-Medium,Helvetica Neue" font-size="34.0" fill="#609AE2" transform="matrix(1.00, 0.00, -0.00, -1.00, 463.4, 371.9)">m</text><text xml:space="preserve" font-family="HelveticaNeue-Medium,Helvetica Neue" font-size="34.0" fill="#609AE2" transform="matrix(1.00, 0.00, -0.00, -1.00, 492.9, 371.9)">a</text><text xml:space="preserve" font-family="HelveticaNeue-Medium,Helvetica Neue" font-size="34.0" fill="#609AE2" transform="matrix(1.00, 0.00, -0.00, -1.00, 511.8, 371.9)">k</text><text xml:space="preserve" font-family="HelveticaNeue-Medium,Helvetica Neue" font-size="34.0" fill="#609AE2" transform="matrix(1.00, 0.00, -0.00, -1.00, 530.1, 371.9)">e</text><text xml:space="preserve" font-family="HelveticaNeue-Medium,Helvetica Neue" font-size="34.0" fill="#609AE2" transform="matrix(1.00, 0.00, -0.00, -1.00, 549.0, 371.9)"> </text><text xml:space="preserve" font-family="HelveticaNeue-Medium,Helvetica Neue" font-size="34.0" fill="#609AE2" transform="matrix(1.00, 0.00, -0.00, -1.00, 558.5, 371.9)">u</text><text xml:space="preserve" font-family="HelveticaNeue-Medium,Helvetica Neue" font-size="34.0" fill="#609AE2" transform="matrix(1.00, 0.00, -0.00, -1.00, 578.0, 371.9)">s</text><text xml:space="preserve" font-family="HelveticaNeue-Medium,Helvetica Neue" font-size="34.0" fill="#609AE2" transform="matrix(1.00, 0.00, -0.00, -1.00, 595.6, 371.9)">e</text><text xml:space="preserve" font-family="HelveticaNeue-Medium,Helvetica Neue" font-size="34.0" fill="#609AE2" transform="matrix(1.00, 0.00, -0.00, -1.00, 614.5, 371.9)">r</text><text xml:space="preserve" font-family="HelveticaNeue-Medium,Helvetica Neue" font-size="34.0" fill="#609AE2" transform="matrix(1.00, 0.00, -0.00, -1.00, 626.5, 371.9)">s</text><text xml:space="preserve" font-family="HelveticaNeue-Medium,Helvetica Neue" font-size="34.0" fill="#609AE2" transform="matrix(1.00, 0.00, -0.00, -1.00, 644.1, 371.9)"> </text><text xml:space="preserve" font-family="HelveticaNeue-Medium,Helvetica Neue" font-size="34.0" fill="#609AE2" transform="matrix(1.00, 0.00, -0.00, -1.00, 653.6, 371.9)">g</text><text xml:space="preserve" font-family="HelveticaNeue-Medium,Helvetica Neue" font-size="34.0" fill="#609AE2" transform="matrix(1.00, 0.00, -0.00, -1.00, 673.8, 371.9)">u</text><text xml:space="preserve" font-family="HelveticaNeue-Medium,Helvetica Neue" font-size="34.0" fill="#609AE2" transform="matrix(1.00, 0.00, -0.00, -1.00, 693.3, 371.9)">e</text><text xml:space="preserve" font-family="HelveticaNeue-Medium,Helvetica Neue" font-size="34.0" fill="#609AE2" transform="matrix(1.00, 0.00, -0.00, -1.00, 712.2, 371.9)">s</text><text xml:space="preserve" font-family="HelveticaNeue-Medium,Helvetica Neue" font-size="34.0" fill="#609AE2" transform="matrix(1.00, 0.00, -0.00, -1.00, 729.8, 371.9)">s</text><text xml:space="preserve" font-family="HelveticaNeue-Medium,Helvetica Neue" font-size="34.0" fill="#609AE2" transform="matrix(1.00, 0.00, -0.00, -1.00, 747.5, 371.9)"> </text><text xml:space="preserve" font-family="HelveticaNeue-Medium,Helvetica Neue" font-size="34.0" fill="#609AE2" transform="matrix(1.00, 0.00, -0.00, -1.00, 756.9, 371.9)">a</text><text xml:space="preserve" font-family="HelveticaNeue-Medium,Helvetica Neue" font-size="34.0" fill="#609AE2" transform="matrix(1.00, 0.00, -0.00, -1.00, 775.8, 371.9)">n</text><text xml:space="preserve" font-family="HelveticaNeue-Medium,Helvetica Neue" font-size="34.0" fill="#609AE2" transform="matrix(1.00, 0.00, -0.00, -1.00, 795.3, 371.9)">s</text><text xml:space="preserve" font-family="HelveticaNeue-Medium,Helvetica Neue" font-size="34.0" fill="#609AE2" transform="matrix(1.00, 0.00, -0.00, -1.00, 813.0, 371.9)">w</text><text xml:space="preserve" font-family="HelveticaNeue-Medium,Helvetica Neue" font-size="34.0" fill="#609AE2" transform="matrix(1.00, 0.00, -0.00, -1.00, 839.4, 371.9)">e</text><text xml:space="preserve" font-family="HelveticaNeue-Medium,Helvetica Neue" font-size="34.0" fill="#609AE2" transform="matrix(1.00, 0.00, -0.00, -1.00, 858.3, 371.9)">r</text><text xml:space="preserve" font-family="HelveticaNeue-Medium,Helvetica Neue" font-size="34.0" fill="#609AE2" transform="matrix(1.00, 0.00, -0.00, -1.00, 870.3, 371.9)">s</text></g></svg>