<?xml version="1.0" encoding="UTF-8" standalone="no"?><svg xmlns="http://www.w3.org/2000/svg" xmlns:xlink="http://www.w3.org/1999/xlink" clip-rule="evenodd" stroke-miterlimit="10" viewBox="0 0 245 33"><desc>SVG generated by Keynote</desc><defs></defs><g transform="matrix(1.00, 0.00, -0.00, -1.00, 0.0, 33.0)"><image xlink:href="3A864F971D0223A88334553F0897FDD8.png" width="22.00" height="12.00" transform="matrix(1.00, 0.00, -0.00, -1.00, 1.0, 22.0)"></image><text xml:space="preserve" font-family="HelveticaNeue-BoldItalic,Helvetica Neue" font-style="italic" font-weight="bold" font-size="24.0" fill="#FEFFFE" transform="matrix(1.00, 0.00, -0.00, -1.00, 6.6, 11.9)">–</text><image xlink:href="6E7D96416C7BC901D077B63863748E08.png" width="221.00" height="31.00" transform="matrix(1.00, 0.00, -0.00, -1.00, 21.0, 32.0)"></image><text xml:space="preserve" font-family="HelveticaNeue-BoldItalic,Helvetica Neue" font-style="italic" font-weight="bold" font-size="24.0" fill="#FEFFFE" transform="matrix(1.00, 0.00, -0.00, -1.00, 18.6, 11.9)"> </text><text xml:space="preserve" font-family="HelveticaNeue-BoldItalic,Helvetica Neue" font-style="italic" font-weight="bold" font-size="24.0" fill="#FEFFFE" transform="matrix(1.00, 0.00, -0.00, -1.00, 25.2, 11.9)">B</text><text xml:space="preserve" font-family="HelveticaNeue-BoldItalic,Helvetica Neue" font-style="italic" font-weight="bold" font-size="24.0" fill="#FEFFFE" transform="matrix(1.00, 0.00, -0.00, -1.00, 42.6, 11.9)">e</text><text xml:space="preserve" font-family="HelveticaNeue-BoldItalic,Helvetica Neue" font-style="italic" font-weight="bold" font-size="24.0" fill="#FEFFFE" transform="matrix(1.00, 0.00, -0.00, -1.00, 56.3, 11.9)">n</text><text xml:space="preserve" font-family="HelveticaNeue-BoldItalic,Helvetica Neue" font-style="italic" font-weight="bold" font-size="24.0" fill="#FEFFFE" transform="matrix(1.00, 0.00, -0.00, -1.00, 71.0, 11.9)">j</text><text xml:space="preserve" font-family="HelveticaNeue-BoldItalic,Helvetica Neue" font-style="italic" font-weight="bold" font-size="24.0" fill="#FEFFFE" transform="matrix(1.00, 0.00, -0.00, -1.00, 77.2, 11.9)">a</text><text xml:space="preserve" font-family="HelveticaNeue-BoldItalic,Helvetica Neue" font-style="italic" font-weight="bold" font-size="24.0" fill="#FEFFFE" transform="matrix(1.00, 0.00, -0.00, -1.00, 91.0, 11.9)">m</text><text xml:space="preserve" font-family="HelveticaNeue-BoldItalic,Helvetica Neue" font-style="italic" font-weight="bold" font-size="24.0" fill="#FEFFFE" transform="matrix(1.00, 0.00, -0.00, -1.00, 112.8, 11.9)">i</text><text xml:space="preserve" font-family="HelveticaNeue-BoldItalic,Helvetica Neue" font-style="italic" font-weight="bold" font-size="24.0" fill="#FEFFFE" transform="matrix(1.00, 0.00, -0.00, -1.00, 119.0, 11.9)">n</text><text xml:space="preserve" font-family="HelveticaNeue-BoldItalic,Helvetica Neue" font-style="italic" font-weight="bold" font-size="24.0" fill="#FEFFFE" transform="matrix(1.00, 0.00, -0.00, -1.00, 133.6, 11.9)"> </text><text xml:space="preserve" font-family="HelveticaNeue-BoldItalic,Helvetica Neue" font-style="italic" font-weight="bold" font-size="24.0" fill="#FEFFFE" transform="matrix(1.00, 0.00, -0.00, -1.00, 140.3, 11.9)">F</text><text xml:space="preserve" font-family="HelveticaNeue-BoldItalic,Helvetica Neue" font-style="italic" font-weight="bold" font-size="24.0" fill="#FEFFFE" transform="matrix(1.00, 0.00, -0.00, -1.00, 154.5, 11.9)">r</text><text xml:space="preserve" font-family="HelveticaNeue-BoldItalic,Helvetica Neue" font-style="italic" font-weight="bold" font-size="24.0" fill="#FEFFFE" transform="matrix(1.00, 0.00, -0.00, -1.00, 163.9, 11.9)">a</text><text xml:space="preserve" font-family="HelveticaNeue-BoldItalic,Helvetica Neue" font-style="italic" font-weight="bold" font-size="24.0" fill="#FEFFFE" transform="matrix(1.00, 0.00, -0.00, -1.00, 177.7, 11.9)">n</text><text xml:space="preserve" font-family="HelveticaNeue-BoldItalic,Helvetica Neue" font-style="italic" font-weight="bold" font-size="24.0" fill="#FEFFFE" transform="matrix(1.00, 0.00, -0.00, -1.00, 192.3, 11.9)">k</text><text xml:space="preserve" font-family="HelveticaNeue-BoldItalic,Helvetica Neue" font-style="italic" font-weight="bold" font-size="24.0" fill="#FEFFFE" transform="matrix(1.00, 0.00, -0.00, -1.00, 205.7, 11.9)">l</text><text xml:space="preserve" font-family="HelveticaNeue-BoldItalic,Helvetica Neue" font-style="italic" font-weight="bold" font-size="24.0" fill="#FEFFFE" transform="matrix(1.00, 0.00, -0.00, -1.00, 211.9, 11.9)">i</text><text xml:space="preserve" font-family="HelveticaNeue-BoldItalic,Helvetica Neue" font-style="italic" font-weight="bold" font-size="24.0" fill="#FEFFFE" transform="matrix(1.00, 0.00, -0.00, -1.00, 218.1, 11.9)">n</text><text xml:space="preserve" font-family="HelveticaNeue-BoldItalic,Helvetica Neue" font-style="italic" font-weight="bold" font-size="24.0" fill="#FEFFFE" transform="matrix(1.00, 0.00, -0.00, -1.00, 232.8, 11.9)">.</text><text xml:space="preserve" font-family="HelveticaNeue-BoldItalic,Helvetica Neue" font-style="italic" font-weight="bold" font-size="24.0" fill="#FEFFFE" transform="matrix(1.00, 0.00, -0.00, -1.00, 239.4, 11.9)"> </text></g></svg>