<?xml version="1.0" encoding="UTF-8" standalone="no"?><svg xmlns="http://www.w3.org/2000/svg" xmlns:xlink="http://www.w3.org/1999/xlink" clip-rule="evenodd" stroke-miterlimit="10" viewBox="0 0 833 460"><desc>SVG generated by Keynote</desc><defs></defs><g transform="matrix(1.00, 0.00, -0.00, -1.00, 0.0, 460.0)"><image xlink:href="../../6730FE5F-EAEF-4FE2-A68D-3659B75AB88F/assets/731B64DB902FCF81D6DAC44EF8A6BEA3.png" width="18.00" height="18.00" transform="matrix(1.00, 0.00, -0.00, -1.00, 1.0, 448.0)"></image><text xml:space="preserve" font-family="HelveticaNeue-Medium,Helvetica Neue" font-size="25.5" fill="#EAEAEA" transform="matrix(1.00, 0.00, -0.00, -1.00, 4.0, 431.9)">•</text><image xlink:href="../../6730FE5F-EAEF-4FE2-A68D-3659B75AB88F/assets/D898CB366EFD75CCD010DDC4A2A3BB12.png" width="267.00" height="41.00" transform="matrix(1.00, 0.00, -0.00, -1.00, 33.0, 457.0)"></image><text xml:space="preserve" font-family="HelveticaNeue-Medium,Helvetica Neue" font-size="34.0" fill="#EAEAEA" transform="matrix(1.00, 0.00, -0.00, -1.00, 36.0, 429.4)">S</text><text xml:space="preserve" font-family="HelveticaNeue-Medium,Helvetica Neue" font-size="34.0" fill="#EAEAEA" transform="matrix(1.00, 0.00, -0.00, -1.00, 58.0, 429.4)">h</text><text xml:space="preserve" font-family="HelveticaNeue-Medium,Helvetica Neue" font-size="34.0" fill="#EAEAEA" transform="matrix(1.00, 0.00, -0.00, -1.00, 77.5, 429.4)">o</text><text xml:space="preserve" font-family="HelveticaNeue-Medium,Helvetica Neue" font-size="34.0" fill="#EAEAEA" transform="matrix(1.00, 0.00, -0.00, -1.00, 97.7, 429.4)">w</text><text xml:space="preserve" font-family="HelveticaNeue-Medium,Helvetica Neue" font-size="34.0" fill="#EAEAEA" transform="matrix(1.00, 0.00, -0.00, -1.00, 124.2, 429.4)"> </text><text xml:space="preserve" font-family="HelveticaNeue-Medium,Helvetica Neue" font-size="34.0" fill="#EAEAEA" transform="matrix(1.00, 0.00, -0.00, -1.00, 133.6, 429.4)">a</text><text xml:space="preserve" font-family="HelveticaNeue-Medium,Helvetica Neue" font-size="34.0" fill="#EAEAEA" transform="matrix(1.00, 0.00, -0.00, -1.00, 152.5, 429.4)"> </text><text xml:space="preserve" font-family="HelveticaNeue-Medium,Helvetica Neue" font-size="34.0" fill="#EAEAEA" transform="matrix(1.00, 0.00, -0.00, -1.00, 162.0, 429.4)">q</text><text xml:space="preserve" font-family="HelveticaNeue-Medium,Helvetica Neue" font-size="34.0" fill="#EAEAEA" transform="matrix(1.00, 0.00, -0.00, -1.00, 182.7, 429.4)">u</text><text xml:space="preserve" font-family="HelveticaNeue-Medium,Helvetica Neue" font-size="34.0" fill="#EAEAEA" transform="matrix(1.00, 0.00, -0.00, -1.00, 202.3, 429.4)">e</text><text xml:space="preserve" font-family="HelveticaNeue-Medium,Helvetica Neue" font-size="34.0" fill="#EAEAEA" transform="matrix(1.00, 0.00, -0.00, -1.00, 221.2, 429.4)">s</text><text xml:space="preserve" font-family="HelveticaNeue-Medium,Helvetica Neue" font-size="34.0" fill="#EAEAEA" transform="matrix(1.00, 0.00, -0.00, -1.00, 238.8, 429.4)">t</text><text xml:space="preserve" font-family="HelveticaNeue-Medium,Helvetica Neue" font-size="34.0" fill="#EAEAEA" transform="matrix(1.00, 0.00, -0.00, -1.00, 250.1, 429.4)">i</text><text xml:space="preserve" font-family="HelveticaNeue-Medium,Helvetica Neue" font-size="34.0" fill="#EAEAEA" transform="matrix(1.00, 0.00, -0.00, -1.00, 258.3, 429.4)">o</text><text xml:space="preserve" font-family="HelveticaNeue-Medium,Helvetica Neue" font-size="34.0" fill="#EAEAEA" transform="matrix(1.00, 0.00, -0.00, -1.00, 278.5, 429.4)">n</text><text xml:space="preserve" font-family="HelveticaNeue-Medium,Helvetica Neue" font-size="34.0" fill="#EAEAEA" transform="matrix(1.00, 0.00, -0.00, -1.00, 298.0, 429.4)"> </text><image xlink:href="../../6730FE5F-EAEF-4FE2-A68D-3659B75AB88F/assets/731B64DB902FCF81D6DAC44EF8A6BEA3.png" width="18.00" height="18.00" transform="matrix(1.00, 0.00, -0.00, -1.00, 1.0, 365.0)"></image><text xml:space="preserve" font-family="HelveticaNeue-Medium,Helvetica Neue" font-size="25.5" fill="#EAEAEA" transform="matrix(1.00, 0.00, -0.00, -1.00, 4.0, 348.9)">•</text><image xlink:href="../../6730FE5F-EAEF-4FE2-A68D-3659B75AB88F/assets/124053E48CB4B38B2A7F6563E9CE8F6F.png" width="267.00" height="35.00" transform="matrix(1.00, 0.00, -0.00, -1.00, 33.0, 374.0)"></image><text xml:space="preserve" font-family="HelveticaNeue-Medium,Helvetica Neue" font-size="34.0" fill="#EAEAEA" transform="matrix(1.00, 0.00, -0.00, -1.00, 36.0, 346.4)">S</text><text xml:space="preserve" font-family="HelveticaNeue-Medium,Helvetica Neue" font-size="34.0" fill="#EAEAEA" transform="matrix(1.00, 0.00, -0.00, -1.00, 58.0, 346.4)">h</text><text xml:space="preserve" font-family="HelveticaNeue-Medium,Helvetica Neue" font-size="34.0" fill="#EAEAEA" transform="matrix(1.00, 0.00, -0.00, -1.00, 77.5, 346.4)">o</text><text xml:space="preserve" font-family="HelveticaNeue-Medium,Helvetica Neue" font-size="34.0" fill="#EAEAEA" transform="matrix(1.00, 0.00, -0.00, -1.00, 97.7, 346.4)">w</text><text xml:space="preserve" font-family="HelveticaNeue-Medium,Helvetica Neue" font-size="34.0" fill="#EAEAEA" transform="matrix(1.00, 0.00, -0.00, -1.00, 124.2, 346.4)"> </text><text xml:space="preserve" font-family="HelveticaNeue-Medium,Helvetica Neue" font-size="34.0" fill="#EAEAEA" transform="matrix(1.00, 0.00, -0.00, -1.00, 133.6, 346.4)">a</text><text xml:space="preserve" font-family="HelveticaNeue-Medium,Helvetica Neue" font-size="34.0" fill="#EAEAEA" transform="matrix(1.00, 0.00, -0.00, -1.00, 152.5, 346.4)">n</text><text xml:space="preserve" font-family="HelveticaNeue-Medium,Helvetica Neue" font-size="34.0" fill="#EAEAEA" transform="matrix(1.00, 0.00, -0.00, -1.00, 172.0, 346.4)"> </text><text xml:space="preserve" font-family="HelveticaNeue-Medium,Helvetica Neue" font-size="34.0" fill="#EAEAEA" transform="matrix(1.00, 0.00, -0.00, -1.00, 181.5, 346.4)">a</text><text xml:space="preserve" font-family="HelveticaNeue-Medium,Helvetica Neue" font-size="34.0" fill="#EAEAEA" transform="matrix(1.00, 0.00, -0.00, -1.00, 200.4, 346.4)">n</text><text xml:space="preserve" font-family="HelveticaNeue-Medium,Helvetica Neue" font-size="34.0" fill="#EAEAEA" transform="matrix(1.00, 0.00, -0.00, -1.00, 219.9, 346.4)">s</text><text xml:space="preserve" font-family="HelveticaNeue-Medium,Helvetica Neue" font-size="34.0" fill="#EAEAEA" transform="matrix(1.00, 0.00, -0.00, -1.00, 237.6, 346.4)">w</text><text xml:space="preserve" font-family="HelveticaNeue-Medium,Helvetica Neue" font-size="34.0" fill="#EAEAEA" transform="matrix(1.00, 0.00, -0.00, -1.00, 264.0, 346.4)">e</text><text xml:space="preserve" font-family="HelveticaNeue-Medium,Helvetica Neue" font-size="34.0" fill="#EAEAEA" transform="matrix(1.00, 0.00, -0.00, -1.00, 282.9, 346.4)">r</text><text xml:space="preserve" font-family="HelveticaNeue-Medium,Helvetica Neue" font-size="34.0" fill="#EAEAEA" transform="matrix(1.00, 0.00, -0.00, -1.00, 294.9, 346.4)"> </text><image xlink:href="../../6730FE5F-EAEF-4FE2-A68D-3659B75AB88F/assets/731B64DB902FCF81D6DAC44EF8A6BEA3.png" width="18.00" height="18.00" transform="matrix(1.00, 0.00, -0.00, -1.00, 1.0, 282.0)"></image><text xml:space="preserve" font-family="HelveticaNeue-Medium,Helvetica Neue" font-size="25.5" fill="#EAEAEA" transform="matrix(1.00, 0.00, -0.00, -1.00, 4.0, 265.9)">•</text><image xlink:href="../../6730FE5F-EAEF-4FE2-A68D-3659B75AB88F/assets/A2BE75A6D3496D200363F0B0D1B809F4.png" width="565.00" height="41.00" transform="matrix(1.00, 0.00, -0.00, -1.00, 34.0, 291.0)"></image><text xml:space="preserve" font-family="HelveticaNeue-Medium,Helvetica Neue" font-size="34.0" fill="#EAEAEA" transform="matrix(1.00, 0.00, -0.00, -1.00, 36.0, 263.4)">D</text><text xml:space="preserve" font-family="HelveticaNeue-Medium,Helvetica Neue" font-size="34.0" fill="#EAEAEA" transform="matrix(1.00, 0.00, -0.00, -1.00, 60.5, 263.4)">i</text><text xml:space="preserve" font-family="HelveticaNeue-Medium,Helvetica Neue" font-size="34.0" fill="#EAEAEA" transform="matrix(1.00, 0.00, -0.00, -1.00, 68.7, 263.4)">s</text><text xml:space="preserve" font-family="HelveticaNeue-Medium,Helvetica Neue" font-size="34.0" fill="#EAEAEA" transform="matrix(1.00, 0.00, -0.00, -1.00, 86.4, 263.4)">p</text><text xml:space="preserve" font-family="HelveticaNeue-Medium,Helvetica Neue" font-size="34.0" fill="#EAEAEA" transform="matrix(1.00, 0.00, -0.00, -1.00, 107.2, 263.4)">l</text><text xml:space="preserve" font-family="HelveticaNeue-Medium,Helvetica Neue" font-size="34.0" fill="#EAEAEA" transform="matrix(1.00, 0.00, -0.00, -1.00, 115.4, 263.4)">a</text><text xml:space="preserve" font-family="HelveticaNeue-Medium,Helvetica Neue" font-size="34.0" fill="#EAEAEA" transform="matrix(1.00, 0.00, -0.00, -1.00, 134.3, 263.4)">y</text><text xml:space="preserve" font-family="HelveticaNeue-Medium,Helvetica Neue" font-size="34.0" fill="#EAEAEA" transform="matrix(1.00, 0.00, -0.00, -1.00, 151.9, 263.4)"> </text><text xml:space="preserve" font-family="HelveticaNeue-Medium,Helvetica Neue" font-size="34.0" fill="#EAEAEA" transform="matrix(1.00, 0.00, -0.00, -1.00, 161.4, 263.4)">?</text><text xml:space="preserve" font-family="HelveticaNeue-Medium,Helvetica Neue" font-size="34.0" fill="#EAEAEA" transform="matrix(1.00, 0.00, -0.00, -1.00, 180.3, 263.4)">?</text><text xml:space="preserve" font-family="HelveticaNeue-Medium,Helvetica Neue" font-size="34.0" fill="#EAEAEA" transform="matrix(1.00, 0.00, -0.00, -1.00, 199.2, 263.4)">?</text><text xml:space="preserve" font-family="HelveticaNeue-Medium,Helvetica Neue" font-size="34.0" fill="#EAEAEA" transform="matrix(1.00, 0.00, -0.00, -1.00, 218.1, 263.4)"> </text><text xml:space="preserve" font-family="HelveticaNeue-Medium,Helvetica Neue" font-size="34.0" fill="#EAEAEA" transform="matrix(1.00, 0.00, -0.00, -1.00, 227.5, 263.4)">w</text><text xml:space="preserve" font-family="HelveticaNeue-Medium,Helvetica Neue" font-size="34.0" fill="#EAEAEA" transform="matrix(1.00, 0.00, -0.00, -1.00, 254.0, 263.4)">h</text><text xml:space="preserve" font-family="HelveticaNeue-Medium,Helvetica Neue" font-size="34.0" fill="#EAEAEA" transform="matrix(1.00, 0.00, -0.00, -1.00, 273.5, 263.4)">i</text><text xml:space="preserve" font-family="HelveticaNeue-Medium,Helvetica Neue" font-size="34.0" fill="#EAEAEA" transform="matrix(1.00, 0.00, -0.00, -1.00, 281.7, 263.4)">l</text><text xml:space="preserve" font-family="HelveticaNeue-Medium,Helvetica Neue" font-size="34.0" fill="#EAEAEA" transform="matrix(1.00, 0.00, -0.00, -1.00, 289.9, 263.4)">e</text><text xml:space="preserve" font-family="HelveticaNeue-Medium,Helvetica Neue" font-size="34.0" fill="#EAEAEA" transform="matrix(1.00, 0.00, -0.00, -1.00, 308.8, 263.4)"> </text><text xml:space="preserve" font-family="HelveticaNeue-Medium,Helvetica Neue" font-size="34.0" fill="#EAEAEA" transform="matrix(1.00, 0.00, -0.00, -1.00, 318.2, 263.4)">u</text><text xml:space="preserve" font-family="HelveticaNeue-Medium,Helvetica Neue" font-size="34.0" fill="#EAEAEA" transform="matrix(1.00, 0.00, -0.00, -1.00, 337.8, 263.4)">s</text><text xml:space="preserve" font-family="HelveticaNeue-Medium,Helvetica Neue" font-size="34.0" fill="#EAEAEA" transform="matrix(1.00, 0.00, -0.00, -1.00, 355.4, 263.4)">e</text><text xml:space="preserve" font-family="HelveticaNeue-Medium,Helvetica Neue" font-size="34.0" fill="#EAEAEA" transform="matrix(1.00, 0.00, -0.00, -1.00, 374.3, 263.4)">r</text><text xml:space="preserve" font-family="HelveticaNeue-Medium,Helvetica Neue" font-size="34.0" fill="#EAEAEA" transform="matrix(1.00, 0.00, -0.00, -1.00, 386.3, 263.4)">s</text><text xml:space="preserve" font-family="HelveticaNeue-Medium,Helvetica Neue" font-size="34.0" fill="#EAEAEA" transform="matrix(1.00, 0.00, -0.00, -1.00, 403.9, 263.4)"> </text><text xml:space="preserve" font-family="HelveticaNeue-Medium,Helvetica Neue" font-size="34.0" fill="#EAEAEA" transform="matrix(1.00, 0.00, -0.00, -1.00, 413.4, 263.4)">a</text><text xml:space="preserve" font-family="HelveticaNeue-Medium,Helvetica Neue" font-size="34.0" fill="#EAEAEA" transform="matrix(1.00, 0.00, -0.00, -1.00, 432.3, 263.4)">r</text><text xml:space="preserve" font-family="HelveticaNeue-Medium,Helvetica Neue" font-size="34.0" fill="#EAEAEA" transform="matrix(1.00, 0.00, -0.00, -1.00, 443.6, 263.4)">e</text><text xml:space="preserve" font-family="HelveticaNeue-Medium,Helvetica Neue" font-size="34.0" fill="#EAEAEA" transform="matrix(1.00, 0.00, -0.00, -1.00, 462.5, 263.4)"> </text><text xml:space="preserve" font-family="HelveticaNeue-Medium,Helvetica Neue" font-size="34.0" fill="#EAEAEA" transform="matrix(1.00, 0.00, -0.00, -1.00, 472.0, 263.4)">t</text><text xml:space="preserve" font-family="HelveticaNeue-Medium,Helvetica Neue" font-size="34.0" fill="#EAEAEA" transform="matrix(1.00, 0.00, -0.00, -1.00, 483.3, 263.4)">h</text><text xml:space="preserve" font-family="HelveticaNeue-Medium,Helvetica Neue" font-size="34.0" fill="#EAEAEA" transform="matrix(1.00, 0.00, -0.00, -1.00, 502.8, 263.4)">i</text><text xml:space="preserve" font-family="HelveticaNeue-Medium,Helvetica Neue" font-size="34.0" fill="#EAEAEA" transform="matrix(1.00, 0.00, -0.00, -1.00, 511.0, 263.4)">n</text><text xml:space="preserve" font-family="HelveticaNeue-Medium,Helvetica Neue" font-size="34.0" fill="#EAEAEA" transform="matrix(1.00, 0.00, -0.00, -1.00, 530.5, 263.4)">k</text><text xml:space="preserve" font-family="HelveticaNeue-Medium,Helvetica Neue" font-size="34.0" fill="#EAEAEA" transform="matrix(1.00, 0.00, -0.00, -1.00, 548.8, 263.4)">i</text><text xml:space="preserve" font-family="HelveticaNeue-Medium,Helvetica Neue" font-size="34.0" fill="#EAEAEA" transform="matrix(1.00, 0.00, -0.00, -1.00, 557.0, 263.4)">n</text><text xml:space="preserve" font-family="HelveticaNeue-Medium,Helvetica Neue" font-size="34.0" fill="#EAEAEA" transform="matrix(1.00, 0.00, -0.00, -1.00, 576.5, 263.4)">g</text><text xml:space="preserve" font-family="HelveticaNeue-Medium,Helvetica Neue" font-size="34.0" fill="#EAEAEA" transform="matrix(1.00, 0.00, -0.00, -1.00, 596.7, 263.4)"> </text><image xlink:href="../../6730FE5F-EAEF-4FE2-A68D-3659B75AB88F/assets/731B64DB902FCF81D6DAC44EF8A6BEA3.png" width="18.00" height="18.00" transform="matrix(1.00, 0.00, -0.00, -1.00, 1.0, 199.0)"></image><text xml:space="preserve" font-family="HelveticaNeue-Medium,Helvetica Neue" font-size="25.5" fill="#CE7123" transform="matrix(1.00, 0.00, -0.00, -1.00, 4.0, 182.9)">•</text><image xlink:href="../../6730FE5F-EAEF-4FE2-A68D-3659B75AB88F/assets/D5659EE71B247BAE13787EC040679655.png" width="554.00" height="40.00" transform="matrix(1.00, 0.00, -0.00, -1.00, 34.0, 207.0)"></image><text xml:space="preserve" font-family="HelveticaNeue-Medium,Helvetica Neue" font-size="34.0" fill="#CE7123" transform="matrix(1.00, 0.00, -0.00, -1.00, 36.0, 180.4)">P</text><text xml:space="preserve" font-family="HelveticaNeue-Medium,Helvetica Neue" font-size="34.0" fill="#CE7123" transform="matrix(1.00, 0.00, -0.00, -1.00, 58.7, 180.4)">l</text><text xml:space="preserve" font-family="HelveticaNeue-Medium,Helvetica Neue" font-size="34.0" fill="#CE7123" transform="matrix(1.00, 0.00, -0.00, -1.00, 66.9, 180.4)">a</text><text xml:space="preserve" font-family="HelveticaNeue-Medium,Helvetica Neue" font-size="34.0" fill="#CE7123" transform="matrix(1.00, 0.00, -0.00, -1.00, 85.8, 180.4)">y</text><text xml:space="preserve" font-family="HelveticaNeue-Medium,Helvetica Neue" font-size="34.0" fill="#CE7123" transform="matrix(1.00, 0.00, -0.00, -1.00, 103.4, 180.4)"> </text><text xml:space="preserve" font-family="HelveticaNeue-Medium,Helvetica Neue" font-size="34.0" fill="#CE7123" transform="matrix(1.00, 0.00, -0.00, -1.00, 112.9, 180.4)">a</text><text xml:space="preserve" font-family="HelveticaNeue-Medium,Helvetica Neue" font-size="34.0" fill="#CE7123" transform="matrix(1.00, 0.00, -0.00, -1.00, 131.8, 180.4)"> </text><text xml:space="preserve" font-family="HelveticaNeue-Medium,Helvetica Neue" font-size="34.0" fill="#CE7123" transform="matrix(1.00, 0.00, -0.00, -1.00, 141.2, 180.4)">s</text><text xml:space="preserve" font-family="HelveticaNeue-Medium,Helvetica Neue" font-size="34.0" fill="#CE7123" transform="matrix(1.00, 0.00, -0.00, -1.00, 158.9, 180.4)">o</text><text xml:space="preserve" font-family="HelveticaNeue-Medium,Helvetica Neue" font-size="34.0" fill="#CE7123" transform="matrix(1.00, 0.00, -0.00, -1.00, 179.0, 180.4)">n</text><text xml:space="preserve" font-family="HelveticaNeue-Medium,Helvetica Neue" font-size="34.0" fill="#CE7123" transform="matrix(1.00, 0.00, -0.00, -1.00, 198.6, 180.4)">g</text><text xml:space="preserve" font-family="HelveticaNeue-Medium,Helvetica Neue" font-size="34.0" fill="#CE7123" transform="matrix(1.00, 0.00, -0.00, -1.00, 218.7, 180.4)"> </text><text xml:space="preserve" font-family="HelveticaNeue-Medium,Helvetica Neue" font-size="34.0" fill="#CE7123" transform="matrix(1.00, 0.00, -0.00, -1.00, 228.2, 180.4)">w</text><text xml:space="preserve" font-family="HelveticaNeue-Medium,Helvetica Neue" font-size="34.0" fill="#CE7123" transform="matrix(1.00, 0.00, -0.00, -1.00, 254.6, 180.4)">h</text><text xml:space="preserve" font-family="HelveticaNeue-Medium,Helvetica Neue" font-size="34.0" fill="#CE7123" transform="matrix(1.00, 0.00, -0.00, -1.00, 274.1, 180.4)">i</text><text xml:space="preserve" font-family="HelveticaNeue-Medium,Helvetica Neue" font-size="34.0" fill="#CE7123" transform="matrix(1.00, 0.00, -0.00, -1.00, 282.3, 180.4)">l</text><text xml:space="preserve" font-family="HelveticaNeue-Medium,Helvetica Neue" font-size="34.0" fill="#CE7123" transform="matrix(1.00, 0.00, -0.00, -1.00, 290.5, 180.4)">e</text><text xml:space="preserve" font-family="HelveticaNeue-Medium,Helvetica Neue" font-size="34.0" fill="#CE7123" transform="matrix(1.00, 0.00, -0.00, -1.00, 309.4, 180.4)"> </text><text xml:space="preserve" font-family="HelveticaNeue-Medium,Helvetica Neue" font-size="34.0" fill="#CE7123" transform="matrix(1.00, 0.00, -0.00, -1.00, 318.9, 180.4)">u</text><text xml:space="preserve" font-family="HelveticaNeue-Medium,Helvetica Neue" font-size="34.0" fill="#CE7123" transform="matrix(1.00, 0.00, -0.00, -1.00, 338.4, 180.4)">s</text><text xml:space="preserve" font-family="HelveticaNeue-Medium,Helvetica Neue" font-size="34.0" fill="#CE7123" transform="matrix(1.00, 0.00, -0.00, -1.00, 356.0, 180.4)">e</text><text xml:space="preserve" font-family="HelveticaNeue-Medium,Helvetica Neue" font-size="34.0" fill="#CE7123" transform="matrix(1.00, 0.00, -0.00, -1.00, 374.9, 180.4)">r</text><text xml:space="preserve" font-family="HelveticaNeue-Medium,Helvetica Neue" font-size="34.0" fill="#CE7123" transform="matrix(1.00, 0.00, -0.00, -1.00, 386.9, 180.4)">s</text><text xml:space="preserve" font-family="HelveticaNeue-Medium,Helvetica Neue" font-size="34.0" fill="#CE7123" transform="matrix(1.00, 0.00, -0.00, -1.00, 404.6, 180.4)"> </text><text xml:space="preserve" font-family="HelveticaNeue-Medium,Helvetica Neue" font-size="34.0" fill="#CE7123" transform="matrix(1.00, 0.00, -0.00, -1.00, 414.0, 180.4)">a</text><text xml:space="preserve" font-family="HelveticaNeue-Medium,Helvetica Neue" font-size="34.0" fill="#CE7123" transform="matrix(1.00, 0.00, -0.00, -1.00, 432.9, 180.4)">r</text><text xml:space="preserve" font-family="HelveticaNeue-Medium,Helvetica Neue" font-size="34.0" fill="#CE7123" transform="matrix(1.00, 0.00, -0.00, -1.00, 444.3, 180.4)">e</text><text xml:space="preserve" font-family="HelveticaNeue-Medium,Helvetica Neue" font-size="34.0" fill="#CE7123" transform="matrix(1.00, 0.00, -0.00, -1.00, 463.2, 180.4)"> </text><text xml:space="preserve" font-family="HelveticaNeue-Medium,Helvetica Neue" font-size="34.0" fill="#CE7123" transform="matrix(1.00, 0.00, -0.00, -1.00, 472.6, 180.4)">w</text><text xml:space="preserve" font-family="HelveticaNeue-Medium,Helvetica Neue" font-size="34.0" fill="#CE7123" transform="matrix(1.00, 0.00, -0.00, -1.00, 499.1, 180.4)">a</text><text xml:space="preserve" font-family="HelveticaNeue-Medium,Helvetica Neue" font-size="34.0" fill="#CE7123" transform="matrix(1.00, 0.00, -0.00, -1.00, 518.0, 180.4)">i</text><text xml:space="preserve" font-family="HelveticaNeue-Medium,Helvetica Neue" font-size="34.0" fill="#CE7123" transform="matrix(1.00, 0.00, -0.00, -1.00, 526.2, 180.4)">t</text><text xml:space="preserve" font-family="HelveticaNeue-Medium,Helvetica Neue" font-size="34.0" fill="#CE7123" transform="matrix(1.00, 0.00, -0.00, -1.00, 537.5, 180.4)">i</text><text xml:space="preserve" font-family="HelveticaNeue-Medium,Helvetica Neue" font-size="34.0" fill="#CE7123" transform="matrix(1.00, 0.00, -0.00, -1.00, 545.7, 180.4)">n</text><text xml:space="preserve" font-family="HelveticaNeue-Medium,Helvetica Neue" font-size="34.0" fill="#CE7123" transform="matrix(1.00, 0.00, -0.00, -1.00, 565.2, 180.4)">g</text><text xml:space="preserve" font-family="HelveticaNeue-Medium,Helvetica Neue" font-size="34.0" fill="#CE7123" transform="matrix(1.00, 0.00, -0.00, -1.00, 585.4, 180.4)"> </text><g><clipPath id="clip0x7ff62f1076b0"><path d="M 35.0 187.3 L 585.4 187.3 L 585.4 191.0 L 35.0 191.0 Z M 35.0 187.3 "></path></clipPath><g clip-path="url(#clip0x7ff62f1076b0)"><path d="M 36.0 295.8 L 585.4 295.8 " fill="none" stroke="#CE7123" stroke-width="1.65" transform="matrix(1.00, 0.00, 0.00, -1.00, 0.0, 485.0)"></path></g></g><image xlink:href="../../6730FE5F-EAEF-4FE2-A68D-3659B75AB88F/assets/731B64DB902FCF81D6DAC44EF8A6BEA3.png" width="18.00" height="18.00" transform="matrix(1.00, 0.00, -0.00, -1.00, 1.0, 116.0)"></image><text xml:space="preserve" font-family="HelveticaNeue-Medium,Helvetica Neue" font-size="25.5" fill="#EAEAEA" transform="matrix(1.00, 0.00, -0.00, -1.00, 4.0, 99.9)">•</text><image xlink:href="../../6730FE5F-EAEF-4FE2-A68D-3659B75AB88F/assets/CAE8A9BC166154DD2E38A6B3155E1B3F.png" width="586.00" height="40.00" transform="matrix(1.00, 0.00, -0.00, -1.00, 34.0, 124.0)"></image><text xml:space="preserve" font-family="HelveticaNeue-Medium,Helvetica Neue" font-size="34.0" fill="#EAEAEA" transform="matrix(1.00, 0.00, -0.00, -1.00, 36.0, 97.4)">M</text><text xml:space="preserve" font-family="HelveticaNeue-Medium,Helvetica Neue" font-size="34.0" fill="#EAEAEA" transform="matrix(1.00, 0.00, -0.00, -1.00, 66.2, 97.4)">a</text><text xml:space="preserve" font-family="HelveticaNeue-Medium,Helvetica Neue" font-size="34.0" fill="#EAEAEA" transform="matrix(1.00, 0.00, -0.00, -1.00, 85.1, 97.4)">k</text><text xml:space="preserve" font-family="HelveticaNeue-Medium,Helvetica Neue" font-size="34.0" fill="#EAEAEA" transform="matrix(1.00, 0.00, -0.00, -1.00, 103.4, 97.4)">e</text><text xml:space="preserve" font-family="HelveticaNeue-Medium,Helvetica Neue" font-size="34.0" fill="#EAEAEA" transform="matrix(1.00, 0.00, -0.00, -1.00, 122.3, 97.4)"> </text><text xml:space="preserve" font-family="HelveticaNeue-Medium,Helvetica Neue" font-size="34.0" fill="#EAEAEA" transform="matrix(1.00, 0.00, -0.00, -1.00, 131.7, 97.4)">a</text><text xml:space="preserve" font-family="HelveticaNeue-Medium,Helvetica Neue" font-size="34.0" fill="#EAEAEA" transform="matrix(1.00, 0.00, -0.00, -1.00, 150.6, 97.4)"> </text><text xml:space="preserve" font-family="HelveticaNeue-Medium,Helvetica Neue" font-size="34.0" fill="#EAEAEA" transform="matrix(1.00, 0.00, -0.00, -1.00, 160.1, 97.4)">s</text><text xml:space="preserve" font-family="HelveticaNeue-Medium,Helvetica Neue" font-size="34.0" fill="#EAEAEA" transform="matrix(1.00, 0.00, -0.00, -1.00, 177.7, 97.4)">o</text><text xml:space="preserve" font-family="HelveticaNeue-Medium,Helvetica Neue" font-size="34.0" fill="#EAEAEA" transform="matrix(1.00, 0.00, -0.00, -1.00, 197.9, 97.4)">u</text><text xml:space="preserve" font-family="HelveticaNeue-Medium,Helvetica Neue" font-size="34.0" fill="#EAEAEA" transform="matrix(1.00, 0.00, -0.00, -1.00, 217.4, 97.4)">n</text><text xml:space="preserve" font-family="HelveticaNeue-Medium,Helvetica Neue" font-size="34.0" fill="#EAEAEA" transform="matrix(1.00, 0.00, -0.00, -1.00, 236.9, 97.4)">d</text><text xml:space="preserve" font-family="HelveticaNeue-Medium,Helvetica Neue" font-size="34.0" fill="#EAEAEA" transform="matrix(1.00, 0.00, -0.00, -1.00, 257.7, 97.4)"> </text><text xml:space="preserve" font-family="HelveticaNeue-Medium,Helvetica Neue" font-size="34.0" fill="#EAEAEA" transform="matrix(1.00, 0.00, -0.00, -1.00, 267.2, 97.4)">w</text><text xml:space="preserve" font-family="HelveticaNeue-Medium,Helvetica Neue" font-size="34.0" fill="#EAEAEA" transform="matrix(1.00, 0.00, -0.00, -1.00, 293.6, 97.4)">h</text><text xml:space="preserve" font-family="HelveticaNeue-Medium,Helvetica Neue" font-size="34.0" fill="#EAEAEA" transform="matrix(1.00, 0.00, -0.00, -1.00, 313.1, 97.4)">e</text><text xml:space="preserve" font-family="HelveticaNeue-Medium,Helvetica Neue" font-size="34.0" fill="#EAEAEA" transform="matrix(1.00, 0.00, -0.00, -1.00, 332.0, 97.4)">n</text><text xml:space="preserve" font-family="HelveticaNeue-Medium,Helvetica Neue" font-size="34.0" fill="#EAEAEA" transform="matrix(1.00, 0.00, -0.00, -1.00, 351.6, 97.4)"> </text><text xml:space="preserve" font-family="HelveticaNeue-Medium,Helvetica Neue" font-size="34.0" fill="#EAEAEA" transform="matrix(1.00, 0.00, -0.00, -1.00, 361.0, 97.4)">u</text><text xml:space="preserve" font-family="HelveticaNeue-Medium,Helvetica Neue" font-size="34.0" fill="#EAEAEA" transform="matrix(1.00, 0.00, -0.00, -1.00, 380.5, 97.4)">s</text><text xml:space="preserve" font-family="HelveticaNeue-Medium,Helvetica Neue" font-size="34.0" fill="#EAEAEA" transform="matrix(1.00, 0.00, -0.00, -1.00, 398.2, 97.4)">e</text><text xml:space="preserve" font-family="HelveticaNeue-Medium,Helvetica Neue" font-size="34.0" fill="#EAEAEA" transform="matrix(1.00, 0.00, -0.00, -1.00, 417.1, 97.4)">r</text><text xml:space="preserve" font-family="HelveticaNeue-Medium,Helvetica Neue" font-size="34.0" fill="#EAEAEA" transform="matrix(1.00, 0.00, -0.00, -1.00, 429.0, 97.4)">s</text><text xml:space="preserve" font-family="HelveticaNeue-Medium,Helvetica Neue" font-size="34.0" fill="#EAEAEA" transform="matrix(1.00, 0.00, -0.00, -1.00, 446.7, 97.4)"> </text><text xml:space="preserve" font-family="HelveticaNeue-Medium,Helvetica Neue" font-size="34.0" fill="#EAEAEA" transform="matrix(1.00, 0.00, -0.00, -1.00, 456.1, 97.4)">g</text><text xml:space="preserve" font-family="HelveticaNeue-Medium,Helvetica Neue" font-size="34.0" fill="#EAEAEA" transform="matrix(1.00, 0.00, -0.00, -1.00, 476.3, 97.4)">e</text><text xml:space="preserve" font-family="HelveticaNeue-Medium,Helvetica Neue" font-size="34.0" fill="#EAEAEA" transform="matrix(1.00, 0.00, -0.00, -1.00, 495.2, 97.4)">t</text><text xml:space="preserve" font-family="HelveticaNeue-Medium,Helvetica Neue" font-size="34.0" fill="#EAEAEA" transform="matrix(1.00, 0.00, -0.00, -1.00, 506.5, 97.4)"> </text><text xml:space="preserve" font-family="HelveticaNeue-Medium,Helvetica Neue" font-size="34.0" fill="#EAEAEA" transform="matrix(1.00, 0.00, -0.00, -1.00, 516.0, 97.4)">i</text><text xml:space="preserve" font-family="HelveticaNeue-Medium,Helvetica Neue" font-size="34.0" fill="#EAEAEA" transform="matrix(1.00, 0.00, -0.00, -1.00, 524.2, 97.4)">t</text><text xml:space="preserve" font-family="HelveticaNeue-Medium,Helvetica Neue" font-size="34.0" fill="#EAEAEA" transform="matrix(1.00, 0.00, -0.00, -1.00, 535.5, 97.4)"> </text><text xml:space="preserve" font-family="HelveticaNeue-Medium,Helvetica Neue" font-size="34.0" fill="#EAEAEA" transform="matrix(1.00, 0.00, -0.00, -1.00, 544.9, 97.4)">r</text><text xml:space="preserve" font-family="HelveticaNeue-Medium,Helvetica Neue" font-size="34.0" fill="#EAEAEA" transform="matrix(1.00, 0.00, -0.00, -1.00, 556.9, 97.4)">i</text><text xml:space="preserve" font-family="HelveticaNeue-Medium,Helvetica Neue" font-size="34.0" fill="#EAEAEA" transform="matrix(1.00, 0.00, -0.00, -1.00, 565.1, 97.4)">g</text><text xml:space="preserve" font-family="HelveticaNeue-Medium,Helvetica Neue" font-size="34.0" fill="#EAEAEA" transform="matrix(1.00, 0.00, -0.00, -1.00, 585.3, 97.4)">h</text><text xml:space="preserve" font-family="HelveticaNeue-Medium,Helvetica Neue" font-size="34.0" fill="#EAEAEA" transform="matrix(1.00, 0.00, -0.00, -1.00, 604.8, 97.4)">t</text><text xml:space="preserve" font-family="HelveticaNeue-Medium,Helvetica Neue" font-size="34.0" fill="#EAEAEA" transform="matrix(1.00, 0.00, -0.00, -1.00, 616.1, 97.4)"> </text><text xml:space="preserve" font-family="HelveticaNeue-Medium,Helvetica Neue" font-size="34.0" fill="#EAEAEA" transform="matrix(1.00, 0.00, -0.00, -1.00, 625.6, 97.4)"> </text><image xlink:href="../../6730FE5F-EAEF-4FE2-A68D-3659B75AB88F/assets/731B64DB902FCF81D6DAC44EF8A6BEA3.png" width="18.00" height="18.00" transform="matrix(1.00, 0.00, -0.00, -1.00, 1.0, 33.0)"></image><text xml:space="preserve" font-family="HelveticaNeue-Medium,Helvetica Neue" font-size="25.5" fill="#CE7123" transform="matrix(1.00, 0.00, -0.00, -1.00, 4.0, 16.9)">•</text><image xlink:href="../../6730FE5F-EAEF-4FE2-A68D-3659B75AB88F/assets/9DDE8DC6A256BC9E7754B01A5A2D7213.png" width="801.00" height="40.00" transform="matrix(1.00, 0.00, -0.00, -1.00, 31.0, 41.0)"></image><text xml:space="preserve" font-family="HelveticaNeue-Medium,Helvetica Neue" font-size="34.0" fill="#CE7123" transform="matrix(1.00, 0.00, -0.00, -1.00, 36.0, 14.4)">A</text><text xml:space="preserve" font-family="HelveticaNeue-Medium,Helvetica Neue" font-size="34.0" fill="#CE7123" transform="matrix(1.00, 0.00, -0.00, -1.00, 58.7, 14.4)">n</text><text xml:space="preserve" font-family="HelveticaNeue-Medium,Helvetica Neue" font-size="34.0" fill="#CE7123" transform="matrix(1.00, 0.00, -0.00, -1.00, 78.2, 14.4)">i</text><text xml:space="preserve" font-family="HelveticaNeue-Medium,Helvetica Neue" font-size="34.0" fill="#CE7123" transform="matrix(1.00, 0.00, -0.00, -1.00, 86.4, 14.4)">m</text><text xml:space="preserve" font-family="HelveticaNeue-Medium,Helvetica Neue" font-size="34.0" fill="#CE7123" transform="matrix(1.00, 0.00, -0.00, -1.00, 116.0, 14.4)">a</text><text xml:space="preserve" font-family="HelveticaNeue-Medium,Helvetica Neue" font-size="34.0" fill="#CE7123" transform="matrix(1.00, 0.00, -0.00, -1.00, 134.9, 14.4)">t</text><text xml:space="preserve" font-family="HelveticaNeue-Medium,Helvetica Neue" font-size="34.0" fill="#CE7123" transform="matrix(1.00, 0.00, -0.00, -1.00, 146.2, 14.4)">e</text><text xml:space="preserve" font-family="HelveticaNeue-Medium,Helvetica Neue" font-size="34.0" fill="#CE7123" transform="matrix(1.00, 0.00, -0.00, -1.00, 165.1, 14.4)"> </text><text xml:space="preserve" font-family="HelveticaNeue-Medium,Helvetica Neue" font-size="34.0" fill="#CE7123" transform="matrix(1.00, 0.00, -0.00, -1.00, 174.6, 14.4)">q</text><text xml:space="preserve" font-family="HelveticaNeue-Medium,Helvetica Neue" font-size="34.0" fill="#CE7123" transform="matrix(1.00, 0.00, -0.00, -1.00, 195.3, 14.4)">u</text><text xml:space="preserve" font-family="HelveticaNeue-Medium,Helvetica Neue" font-size="34.0" fill="#CE7123" transform="matrix(1.00, 0.00, -0.00, -1.00, 214.8, 14.4)">e</text><text xml:space="preserve" font-family="HelveticaNeue-Medium,Helvetica Neue" font-size="34.0" fill="#CE7123" transform="matrix(1.00, 0.00, -0.00, -1.00, 233.7, 14.4)">s</text><text xml:space="preserve" font-family="HelveticaNeue-Medium,Helvetica Neue" font-size="34.0" fill="#CE7123" transform="matrix(1.00, 0.00, -0.00, -1.00, 251.4, 14.4)">t</text><text xml:space="preserve" font-family="HelveticaNeue-Medium,Helvetica Neue" font-size="34.0" fill="#CE7123" transform="matrix(1.00, 0.00, -0.00, -1.00, 262.7, 14.4)">i</text><text xml:space="preserve" font-family="HelveticaNeue-Medium,Helvetica Neue" font-size="34.0" fill="#CE7123" transform="matrix(1.00, 0.00, -0.00, -1.00, 270.9, 14.4)">o</text><text xml:space="preserve" font-family="HelveticaNeue-Medium,Helvetica Neue" font-size="34.0" fill="#CE7123" transform="matrix(1.00, 0.00, -0.00, -1.00, 291.1, 14.4)">n</text><text xml:space="preserve" font-family="HelveticaNeue-Medium,Helvetica Neue" font-size="34.0" fill="#CE7123" transform="matrix(1.00, 0.00, -0.00, -1.00, 310.6, 14.4)">s</text><text xml:space="preserve" font-family="HelveticaNeue-Medium,Helvetica Neue" font-size="34.0" fill="#CE7123" transform="matrix(1.00, 0.00, -0.00, -1.00, 328.2, 14.4)"> </text><text xml:space="preserve" font-family="HelveticaNeue-Medium,Helvetica Neue" font-size="34.0" fill="#CE7123" transform="matrix(1.00, 0.00, -0.00, -1.00, 337.7, 14.4)">a</text><text xml:space="preserve" font-family="HelveticaNeue-Medium,Helvetica Neue" font-size="34.0" fill="#CE7123" transform="matrix(1.00, 0.00, -0.00, -1.00, 356.6, 14.4)">n</text><text xml:space="preserve" font-family="HelveticaNeue-Medium,Helvetica Neue" font-size="34.0" fill="#CE7123" transform="matrix(1.00, 0.00, -0.00, -1.00, 376.1, 14.4)">d</text><text xml:space="preserve" font-family="HelveticaNeue-Medium,Helvetica Neue" font-size="34.0" fill="#CE7123" transform="matrix(1.00, 0.00, -0.00, -1.00, 396.9, 14.4)"> </text><text xml:space="preserve" font-family="HelveticaNeue-Medium,Helvetica Neue" font-size="34.0" fill="#CE7123" transform="matrix(1.00, 0.00, -0.00, -1.00, 406.3, 14.4)">a</text><text xml:space="preserve" font-family="HelveticaNeue-Medium,Helvetica Neue" font-size="34.0" fill="#CE7123" transform="matrix(1.00, 0.00, -0.00, -1.00, 425.2, 14.4)">n</text><text xml:space="preserve" font-family="HelveticaNeue-Medium,Helvetica Neue" font-size="34.0" fill="#CE7123" transform="matrix(1.00, 0.00, -0.00, -1.00, 444.7, 14.4)">s</text><text xml:space="preserve" font-family="HelveticaNeue-Medium,Helvetica Neue" font-size="34.0" fill="#CE7123" transform="matrix(1.00, 0.00, -0.00, -1.00, 462.4, 14.4)">w</text><text xml:space="preserve" font-family="HelveticaNeue-Medium,Helvetica Neue" font-size="34.0" fill="#CE7123" transform="matrix(1.00, 0.00, -0.00, -1.00, 488.8, 14.4)">e</text><text xml:space="preserve" font-family="HelveticaNeue-Medium,Helvetica Neue" font-size="34.0" fill="#CE7123" transform="matrix(1.00, 0.00, -0.00, -1.00, 507.8, 14.4)">r</text><text xml:space="preserve" font-family="HelveticaNeue-Medium,Helvetica Neue" font-size="34.0" fill="#CE7123" transform="matrix(1.00, 0.00, -0.00, -1.00, 519.7, 14.4)">s</text><text xml:space="preserve" font-family="HelveticaNeue-Medium,Helvetica Neue" font-size="34.0" fill="#CE7123" transform="matrix(1.00, 0.00, -0.00, -1.00, 537.4, 14.4)"> </text><text xml:space="preserve" font-family="HelveticaNeue-Medium,Helvetica Neue" font-size="34.0" fill="#CE7123" transform="matrix(1.00, 0.00, -0.00, -1.00, 546.8, 14.4)">s</text><text xml:space="preserve" font-family="HelveticaNeue-Medium,Helvetica Neue" font-size="34.0" fill="#CE7123" transform="matrix(1.00, 0.00, -0.00, -1.00, 564.5, 14.4)">o</text><text xml:space="preserve" font-family="HelveticaNeue-Medium,Helvetica Neue" font-size="34.0" fill="#CE7123" transform="matrix(1.00, 0.00, -0.00, -1.00, 584.6, 14.4)"> </text><text xml:space="preserve" font-family="HelveticaNeue-Medium,Helvetica Neue" font-size="34.0" fill="#CE7123" transform="matrix(1.00, 0.00, -0.00, -1.00, 594.1, 14.4)">t</text><text xml:space="preserve" font-family="HelveticaNeue-Medium,Helvetica Neue" font-size="34.0" fill="#CE7123" transform="matrix(1.00, 0.00, -0.00, -1.00, 605.4, 14.4)">h</text><text xml:space="preserve" font-family="HelveticaNeue-Medium,Helvetica Neue" font-size="34.0" fill="#CE7123" transform="matrix(1.00, 0.00, -0.00, -1.00, 624.9, 14.4)">e</text><text xml:space="preserve" font-family="HelveticaNeue-Medium,Helvetica Neue" font-size="34.0" fill="#CE7123" transform="matrix(1.00, 0.00, -0.00, -1.00, 643.8, 14.4)">y</text><text xml:space="preserve" font-family="HelveticaNeue-Medium,Helvetica Neue" font-size="34.0" fill="#CE7123" transform="matrix(1.00, 0.00, -0.00, -1.00, 661.5, 14.4)"> </text><text xml:space="preserve" font-family="HelveticaNeue-Medium,Helvetica Neue" font-size="34.0" fill="#CE7123" transform="matrix(1.00, 0.00, -0.00, -1.00, 670.9, 14.4)">l</text><text xml:space="preserve" font-family="HelveticaNeue-Medium,Helvetica Neue" font-size="34.0" fill="#CE7123" transform="matrix(1.00, 0.00, -0.00, -1.00, 679.1, 14.4)">o</text><text xml:space="preserve" font-family="HelveticaNeue-Medium,Helvetica Neue" font-size="34.0" fill="#CE7123" transform="matrix(1.00, 0.00, -0.00, -1.00, 699.3, 14.4)">o</text><text xml:space="preserve" font-family="HelveticaNeue-Medium,Helvetica Neue" font-size="34.0" fill="#CE7123" transform="matrix(1.00, 0.00, -0.00, -1.00, 719.4, 14.4)">k</text><text xml:space="preserve" font-family="HelveticaNeue-Medium,Helvetica Neue" font-size="34.0" fill="#CE7123" transform="matrix(1.00, 0.00, -0.00, -1.00, 737.7, 14.4)"> </text><text xml:space="preserve" font-family="HelveticaNeue-Medium,Helvetica Neue" font-size="34.0" fill="#CE7123" transform="matrix(1.00, 0.00, -0.00, -1.00, 747.1, 14.4)">g</text><text xml:space="preserve" font-family="HelveticaNeue-Medium,Helvetica Neue" font-size="34.0" fill="#CE7123" transform="matrix(1.00, 0.00, -0.00, -1.00, 767.3, 14.4)">r</text><text xml:space="preserve" font-family="HelveticaNeue-Medium,Helvetica Neue" font-size="34.0" fill="#CE7123" transform="matrix(1.00, 0.00, -0.00, -1.00, 778.7, 14.4)">e</text><text xml:space="preserve" font-family="HelveticaNeue-Medium,Helvetica Neue" font-size="34.0" fill="#CE7123" transform="matrix(1.00, 0.00, -0.00, -1.00, 797.6, 14.4)">a</text><text xml:space="preserve" font-family="HelveticaNeue-Medium,Helvetica Neue" font-size="34.0" fill="#CE7123" transform="matrix(1.00, 0.00, -0.00, -1.00, 816.5, 14.4)">t</text><g><clipPath id="clip0x7ff62f11f320"><path d="M 35.0 21.3 L 827.8 21.3 L 827.8 25.0 L 35.0 25.0 Z M 35.0 21.3 "></path></clipPath><g clip-path="url(#clip0x7ff62f11f320)"><path d="M 36.0 461.8 L 827.8 461.8 " fill="none" stroke="#CE7123" stroke-width="1.65" transform="matrix(1.00, 0.00, 0.00, -1.00, 0.0, 485.0)"></path></g></g></g></svg>