<?xml version="1.0" encoding="UTF-8" standalone="no"?><svg xmlns="http://www.w3.org/2000/svg" xmlns:xlink="http://www.w3.org/1999/xlink" clip-rule="evenodd" stroke-miterlimit="10" viewBox="0 0 1024 768"><desc>SVG generated by Keynote</desc><defs></defs><g transform="matrix(1.00, 0.00, -0.00, -1.00, 0.0, 768.0)"><g><clipPath id="clip0x7ff62f7f7aa0"><path d="M 0.0 768.0 L 1024.0 768.0 L 1024.0 0.0 L 0.0 0.0 Z M 0.0 768.0 "></path></clipPath><g clip-path="url(#clip0x7ff62f7f7aa0)"><image xlink:href="../../BE4D2DDB-FBE4-467E-AE38-B34F9028D09E/assets/9397CAD6F20342ACC2646ABBCA758461.jpeg" width="2048.00" height="1536.00" transform="matrix(0.50, 0.00, -0.00, -0.50, 0.0, 768.0)"></image></g></g><image xlink:href="../../9462C2DE-6E8B-445D-BDA8-7667E5D94E61/assets/7A7A6122253E0CB1EA52BF735AAD37EA.png" width="375.00" height="57.00" transform="matrix(1.00, 0.00, -0.00, -1.00, 122.0, 729.0)"></image><text xml:space="preserve" font-family="HelveticaNeue-Bold,Helvetica Neue" font-weight="bold" font-size="64.0" fill="#FEFFFE" transform="matrix(1.00, 0.00, -0.00, -1.00, 125.5, 679.7)">3</text><text xml:space="preserve" font-family="HelveticaNeue-Bold,Helvetica Neue" font-weight="bold" font-size="64.0" fill="#FEFFFE" transform="matrix(1.00, 0.00, -0.00, -1.00, 161.1, 679.7)">.</text><text xml:space="preserve" font-family="HelveticaNeue-Bold,Helvetica Neue" font-weight="bold" font-size="64.0" fill="#FEFFFE" transform="matrix(1.00, 0.00, -0.00, -1.00, 178.9, 679.7)"> </text><text xml:space="preserve" font-family="HelveticaNeue-Bold,Helvetica Neue" font-weight="bold" font-size="64.0" fill="#FEFFFE" transform="matrix(1.00, 0.00, -0.00, -1.00, 196.7, 679.7)">C</text><text xml:space="preserve" font-family="HelveticaNeue-Bold,Helvetica Neue" font-weight="bold" font-size="64.0" fill="#FEFFFE" transform="matrix(1.00, 0.00, -0.00, -1.00, 244.1, 679.7)">r</text><text xml:space="preserve" font-family="HelveticaNeue-Bold,Helvetica Neue" font-weight="bold" font-size="64.0" fill="#FEFFFE" transform="matrix(1.00, 0.00, -0.00, -1.00, 267.8, 679.7)">o</text><text xml:space="preserve" font-family="HelveticaNeue-Bold,Helvetica Neue" font-weight="bold" font-size="64.0" fill="#FEFFFE" transform="matrix(1.00, 0.00, -0.00, -1.00, 306.9, 679.7)">s</text><text xml:space="preserve" font-family="HelveticaNeue-Bold,Helvetica Neue" font-weight="bold" font-size="64.0" fill="#FEFFFE" transform="matrix(1.00, 0.00, -0.00, -1.00, 341.3, 679.7)">s</text><text xml:space="preserve" font-family="HelveticaNeue-Bold,Helvetica Neue" font-weight="bold" font-size="64.0" fill="#FEFFFE" transform="matrix(1.00, 0.00, -0.00, -1.00, 375.7, 679.7)"> </text><text xml:space="preserve" font-family="HelveticaNeue-Bold,Helvetica Neue" font-weight="bold" font-size="64.0" fill="#FEFFFE" transform="matrix(1.00, 0.00, -0.00, -1.00, 393.5, 679.7)">o</text><text xml:space="preserve" font-family="HelveticaNeue-Bold,Helvetica Neue" font-weight="bold" font-size="64.0" fill="#FEFFFE" transform="matrix(1.00, 0.00, -0.00, -1.00, 432.6, 679.7)">u</text><text xml:space="preserve" font-family="HelveticaNeue-Bold,Helvetica Neue" font-weight="bold" font-size="64.0" fill="#FEFFFE" transform="matrix(1.00, 0.00, -0.00, -1.00, 470.5, 679.7)">t</text><text xml:space="preserve" font-family="HelveticaNeue-Bold,Helvetica Neue" font-weight="bold" font-size="64.0" fill="#FEFFFE" transform="matrix(1.00, 0.00, -0.00, -1.00, 493.1, 679.7)"> </text><image xlink:href="../../9462C2DE-6E8B-445D-BDA8-7667E5D94E61/assets/26229F836511DAC2EA655C59B3BD814D.png" width="393.00" height="54.00" transform="matrix(1.00, 0.00, -0.00, -1.00, 510.0, 716.0)"></image><text xml:space="preserve" font-family="HelveticaNeue-Bold,Helvetica Neue" font-weight="bold" font-size="64.0" fill="#CE7123" transform="matrix(1.00, 0.00, -0.00, -1.00, 510.8, 679.7)">u</text><text xml:space="preserve" font-family="HelveticaNeue-Bold,Helvetica Neue" font-weight="bold" font-size="64.0" fill="#CE7123" transform="matrix(1.00, 0.00, -0.00, -1.00, 548.8, 679.7)">n</text><text xml:space="preserve" font-family="HelveticaNeue-Bold,Helvetica Neue" font-weight="bold" font-size="64.0" fill="#CE7123" transform="matrix(1.00, 0.00, -0.00, -1.00, 586.8, 679.7)">n</text><text xml:space="preserve" font-family="HelveticaNeue-Bold,Helvetica Neue" font-weight="bold" font-size="64.0" fill="#CE7123" transform="matrix(1.00, 0.00, -0.00, -1.00, 624.7, 679.7)">e</text><text xml:space="preserve" font-family="HelveticaNeue-Bold,Helvetica Neue" font-weight="bold" font-size="64.0" fill="#CE7123" transform="matrix(1.00, 0.00, -0.00, -1.00, 661.4, 679.7)">c</text><text xml:space="preserve" font-family="HelveticaNeue-Bold,Helvetica Neue" font-weight="bold" font-size="64.0" fill="#CE7123" transform="matrix(1.00, 0.00, -0.00, -1.00, 698.2, 679.7)">e</text><text xml:space="preserve" font-family="HelveticaNeue-Bold,Helvetica Neue" font-weight="bold" font-size="64.0" fill="#CE7123" transform="matrix(1.00, 0.00, -0.00, -1.00, 734.9, 679.7)">s</text><text xml:space="preserve" font-family="HelveticaNeue-Bold,Helvetica Neue" font-weight="bold" font-size="64.0" fill="#CE7123" transform="matrix(1.00, 0.00, -0.00, -1.00, 769.3, 679.7)">s</text><text xml:space="preserve" font-family="HelveticaNeue-Bold,Helvetica Neue" font-weight="bold" font-size="64.0" fill="#CE7123" transform="matrix(1.00, 0.00, -0.00, -1.00, 803.6, 679.7)">a</text><text xml:space="preserve" font-family="HelveticaNeue-Bold,Helvetica Neue" font-weight="bold" font-size="64.0" fill="#CE7123" transform="matrix(1.00, 0.00, -0.00, -1.00, 840.4, 679.7)">r</text><text xml:space="preserve" font-family="HelveticaNeue-Bold,Helvetica Neue" font-weight="bold" font-size="64.0" fill="#CE7123" transform="matrix(1.00, 0.00, -0.00, -1.00, 865.3, 679.7)">y</text><text xml:space="preserve" font-family="HelveticaNeue-Bold,Helvetica Neue" font-weight="bold" font-size="64.0" fill="#CE7123" transform="matrix(1.00, 0.00, -0.00, -1.00, 898.5, 679.7)"> </text><image xlink:href="../../9462C2DE-6E8B-445D-BDA8-7667E5D94E61/assets/74037D82348AA093D29B7B965D8F5237.png" width="258.00" height="56.00" transform="matrix(1.00, 0.00, -0.00, -1.00, 382.0, 650.0)"></image><text xml:space="preserve" font-family="HelveticaNeue-Bold,Helvetica Neue" font-weight="bold" font-size="64.0" fill="#CE7123" transform="matrix(1.00, 0.00, -0.00, -1.00, 386.9, 601.7)">f</text><text xml:space="preserve" font-family="HelveticaNeue-Bold,Helvetica Neue" font-weight="bold" font-size="64.0" fill="#CE7123" transform="matrix(1.00, 0.00, -0.00, -1.00, 408.3, 601.7)">e</text><text xml:space="preserve" font-family="HelveticaNeue-Bold,Helvetica Neue" font-weight="bold" font-size="64.0" fill="#CE7123" transform="matrix(1.00, 0.00, -0.00, -1.00, 445.0, 601.7)">a</text><text xml:space="preserve" font-family="HelveticaNeue-Bold,Helvetica Neue" font-weight="bold" font-size="64.0" fill="#CE7123" transform="matrix(1.00, 0.00, -0.00, -1.00, 481.7, 601.7)">t</text><text xml:space="preserve" font-family="HelveticaNeue-Bold,Helvetica Neue" font-weight="bold" font-size="64.0" fill="#CE7123" transform="matrix(1.00, 0.00, -0.00, -1.00, 504.3, 601.7)">u</text><text xml:space="preserve" font-family="HelveticaNeue-Bold,Helvetica Neue" font-weight="bold" font-size="64.0" fill="#CE7123" transform="matrix(1.00, 0.00, -0.00, -1.00, 542.2, 601.7)">r</text><text xml:space="preserve" font-family="HelveticaNeue-Bold,Helvetica Neue" font-weight="bold" font-size="64.0" fill="#CE7123" transform="matrix(1.00, 0.00, -0.00, -1.00, 566.0, 601.7)">e</text><text xml:space="preserve" font-family="HelveticaNeue-Bold,Helvetica Neue" font-weight="bold" font-size="64.0" fill="#CE7123" transform="matrix(1.00, 0.00, -0.00, -1.00, 602.7, 601.7)">s</text><image xlink:href="../../6730FE5F-EAEF-4FE2-A68D-3659B75AB88F/assets/731B64DB902FCF81D6DAC44EF8A6BEA3.png" width="18.00" height="18.00" transform="matrix(1.00, 0.00, -0.00, -1.00, 61.0, 541.0)"></image><text xml:space="preserve" font-family="HelveticaNeue-Medium,Helvetica Neue" font-size="25.5" fill="#EAEAEA" transform="matrix(1.00, 0.00, -0.00, -1.00, 64.0, 524.9)">•</text><image xlink:href="../../6730FE5F-EAEF-4FE2-A68D-3659B75AB88F/assets/D898CB366EFD75CCD010DDC4A2A3BB12.png" width="267.00" height="41.00" transform="matrix(1.00, 0.00, -0.00, -1.00, 93.0, 550.0)"></image><text xml:space="preserve" font-family="HelveticaNeue-Medium,Helvetica Neue" font-size="34.0" fill="#EAEAEA" transform="matrix(1.00, 0.00, -0.00, -1.00, 96.0, 522.4)">S</text><text xml:space="preserve" font-family="HelveticaNeue-Medium,Helvetica Neue" font-size="34.0" fill="#EAEAEA" transform="matrix(1.00, 0.00, -0.00, -1.00, 118.0, 522.4)">h</text><text xml:space="preserve" font-family="HelveticaNeue-Medium,Helvetica Neue" font-size="34.0" fill="#EAEAEA" transform="matrix(1.00, 0.00, -0.00, -1.00, 137.5, 522.4)">o</text><text xml:space="preserve" font-family="HelveticaNeue-Medium,Helvetica Neue" font-size="34.0" fill="#EAEAEA" transform="matrix(1.00, 0.00, -0.00, -1.00, 157.7, 522.4)">w</text><text xml:space="preserve" font-family="HelveticaNeue-Medium,Helvetica Neue" font-size="34.0" fill="#EAEAEA" transform="matrix(1.00, 0.00, -0.00, -1.00, 184.2, 522.4)"> </text><text xml:space="preserve" font-family="HelveticaNeue-Medium,Helvetica Neue" font-size="34.0" fill="#EAEAEA" transform="matrix(1.00, 0.00, -0.00, -1.00, 193.6, 522.4)">a</text><text xml:space="preserve" font-family="HelveticaNeue-Medium,Helvetica Neue" font-size="34.0" fill="#EAEAEA" transform="matrix(1.00, 0.00, -0.00, -1.00, 212.5, 522.4)"> </text><text xml:space="preserve" font-family="HelveticaNeue-Medium,Helvetica Neue" font-size="34.0" fill="#EAEAEA" transform="matrix(1.00, 0.00, -0.00, -1.00, 222.0, 522.4)">q</text><text xml:space="preserve" font-family="HelveticaNeue-Medium,Helvetica Neue" font-size="34.0" fill="#EAEAEA" transform="matrix(1.00, 0.00, -0.00, -1.00, 242.7, 522.4)">u</text><text xml:space="preserve" font-family="HelveticaNeue-Medium,Helvetica Neue" font-size="34.0" fill="#EAEAEA" transform="matrix(1.00, 0.00, -0.00, -1.00, 262.3, 522.4)">e</text><text xml:space="preserve" font-family="HelveticaNeue-Medium,Helvetica Neue" font-size="34.0" fill="#EAEAEA" transform="matrix(1.00, 0.00, -0.00, -1.00, 281.2, 522.4)">s</text><text xml:space="preserve" font-family="HelveticaNeue-Medium,Helvetica Neue" font-size="34.0" fill="#EAEAEA" transform="matrix(1.00, 0.00, -0.00, -1.00, 298.8, 522.4)">t</text><text xml:space="preserve" font-family="HelveticaNeue-Medium,Helvetica Neue" font-size="34.0" fill="#EAEAEA" transform="matrix(1.00, 0.00, -0.00, -1.00, 310.1, 522.4)">i</text><text xml:space="preserve" font-family="HelveticaNeue-Medium,Helvetica Neue" font-size="34.0" fill="#EAEAEA" transform="matrix(1.00, 0.00, -0.00, -1.00, 318.3, 522.4)">o</text><text xml:space="preserve" font-family="HelveticaNeue-Medium,Helvetica Neue" font-size="34.0" fill="#EAEAEA" transform="matrix(1.00, 0.00, -0.00, -1.00, 338.5, 522.4)">n</text><text xml:space="preserve" font-family="HelveticaNeue-Medium,Helvetica Neue" font-size="34.0" fill="#EAEAEA" transform="matrix(1.00, 0.00, -0.00, -1.00, 358.0, 522.4)"> </text><image xlink:href="../../6730FE5F-EAEF-4FE2-A68D-3659B75AB88F/assets/731B64DB902FCF81D6DAC44EF8A6BEA3.png" width="18.00" height="18.00" transform="matrix(1.00, 0.00, -0.00, -1.00, 61.0, 458.0)"></image><text xml:space="preserve" font-family="HelveticaNeue-Medium,Helvetica Neue" font-size="25.5" fill="#EAEAEA" transform="matrix(1.00, 0.00, -0.00, -1.00, 64.0, 441.9)">•</text><image xlink:href="../../6730FE5F-EAEF-4FE2-A68D-3659B75AB88F/assets/124053E48CB4B38B2A7F6563E9CE8F6F.png" width="267.00" height="35.00" transform="matrix(1.00, 0.00, -0.00, -1.00, 93.0, 467.0)"></image><text xml:space="preserve" font-family="HelveticaNeue-Medium,Helvetica Neue" font-size="34.0" fill="#EAEAEA" transform="matrix(1.00, 0.00, -0.00, -1.00, 96.0, 439.4)">S</text><text xml:space="preserve" font-family="HelveticaNeue-Medium,Helvetica Neue" font-size="34.0" fill="#EAEAEA" transform="matrix(1.00, 0.00, -0.00, -1.00, 118.0, 439.4)">h</text><text xml:space="preserve" font-family="HelveticaNeue-Medium,Helvetica Neue" font-size="34.0" fill="#EAEAEA" transform="matrix(1.00, 0.00, -0.00, -1.00, 137.5, 439.4)">o</text><text xml:space="preserve" font-family="HelveticaNeue-Medium,Helvetica Neue" font-size="34.0" fill="#EAEAEA" transform="matrix(1.00, 0.00, -0.00, -1.00, 157.7, 439.4)">w</text><text xml:space="preserve" font-family="HelveticaNeue-Medium,Helvetica Neue" font-size="34.0" fill="#EAEAEA" transform="matrix(1.00, 0.00, -0.00, -1.00, 184.2, 439.4)"> </text><text xml:space="preserve" font-family="HelveticaNeue-Medium,Helvetica Neue" font-size="34.0" fill="#EAEAEA" transform="matrix(1.00, 0.00, -0.00, -1.00, 193.6, 439.4)">a</text><text xml:space="preserve" font-family="HelveticaNeue-Medium,Helvetica Neue" font-size="34.0" fill="#EAEAEA" transform="matrix(1.00, 0.00, -0.00, -1.00, 212.5, 439.4)">n</text><text xml:space="preserve" font-family="HelveticaNeue-Medium,Helvetica Neue" font-size="34.0" fill="#EAEAEA" transform="matrix(1.00, 0.00, -0.00, -1.00, 232.0, 439.4)"> </text><text xml:space="preserve" font-family="HelveticaNeue-Medium,Helvetica Neue" font-size="34.0" fill="#EAEAEA" transform="matrix(1.00, 0.00, -0.00, -1.00, 241.5, 439.4)">a</text><text xml:space="preserve" font-family="HelveticaNeue-Medium,Helvetica Neue" font-size="34.0" fill="#EAEAEA" transform="matrix(1.00, 0.00, -0.00, -1.00, 260.4, 439.4)">n</text><text xml:space="preserve" font-family="HelveticaNeue-Medium,Helvetica Neue" font-size="34.0" fill="#EAEAEA" transform="matrix(1.00, 0.00, -0.00, -1.00, 279.9, 439.4)">s</text><text xml:space="preserve" font-family="HelveticaNeue-Medium,Helvetica Neue" font-size="34.0" fill="#EAEAEA" transform="matrix(1.00, 0.00, -0.00, -1.00, 297.6, 439.4)">w</text><text xml:space="preserve" font-family="HelveticaNeue-Medium,Helvetica Neue" font-size="34.0" fill="#EAEAEA" transform="matrix(1.00, 0.00, -0.00, -1.00, 324.0, 439.4)">e</text><text xml:space="preserve" font-family="HelveticaNeue-Medium,Helvetica Neue" font-size="34.0" fill="#EAEAEA" transform="matrix(1.00, 0.00, -0.00, -1.00, 342.9, 439.4)">r</text><text xml:space="preserve" font-family="HelveticaNeue-Medium,Helvetica Neue" font-size="34.0" fill="#EAEAEA" transform="matrix(1.00, 0.00, -0.00, -1.00, 354.9, 439.4)"> </text><image xlink:href="../../6730FE5F-EAEF-4FE2-A68D-3659B75AB88F/assets/731B64DB902FCF81D6DAC44EF8A6BEA3.png" width="18.00" height="18.00" transform="matrix(1.00, 0.00, -0.00, -1.00, 61.0, 375.0)"></image><text xml:space="preserve" font-family="HelveticaNeue-Medium,Helvetica Neue" font-size="25.5" fill="#EAEAEA" transform="matrix(1.00, 0.00, -0.00, -1.00, 64.0, 358.9)">•</text><image xlink:href="../../6730FE5F-EAEF-4FE2-A68D-3659B75AB88F/assets/A2BE75A6D3496D200363F0B0D1B809F4.png" width="565.00" height="41.00" transform="matrix(1.00, 0.00, -0.00, -1.00, 94.0, 384.0)"></image><text xml:space="preserve" font-family="HelveticaNeue-Medium,Helvetica Neue" font-size="34.0" fill="#EAEAEA" transform="matrix(1.00, 0.00, -0.00, -1.00, 96.0, 356.4)">D</text><text xml:space="preserve" font-family="HelveticaNeue-Medium,Helvetica Neue" font-size="34.0" fill="#EAEAEA" transform="matrix(1.00, 0.00, -0.00, -1.00, 120.5, 356.4)">i</text><text xml:space="preserve" font-family="HelveticaNeue-Medium,Helvetica Neue" font-size="34.0" fill="#EAEAEA" transform="matrix(1.00, 0.00, -0.00, -1.00, 128.7, 356.4)">s</text><text xml:space="preserve" font-family="HelveticaNeue-Medium,Helvetica Neue" font-size="34.0" fill="#EAEAEA" transform="matrix(1.00, 0.00, -0.00, -1.00, 146.4, 356.4)">p</text><text xml:space="preserve" font-family="HelveticaNeue-Medium,Helvetica Neue" font-size="34.0" fill="#EAEAEA" transform="matrix(1.00, 0.00, -0.00, -1.00, 167.2, 356.4)">l</text><text xml:space="preserve" font-family="HelveticaNeue-Medium,Helvetica Neue" font-size="34.0" fill="#EAEAEA" transform="matrix(1.00, 0.00, -0.00, -1.00, 175.4, 356.4)">a</text><text xml:space="preserve" font-family="HelveticaNeue-Medium,Helvetica Neue" font-size="34.0" fill="#EAEAEA" transform="matrix(1.00, 0.00, -0.00, -1.00, 194.3, 356.4)">y</text><text xml:space="preserve" font-family="HelveticaNeue-Medium,Helvetica Neue" font-size="34.0" fill="#EAEAEA" transform="matrix(1.00, 0.00, -0.00, -1.00, 211.9, 356.4)"> </text><text xml:space="preserve" font-family="HelveticaNeue-Medium,Helvetica Neue" font-size="34.0" fill="#EAEAEA" transform="matrix(1.00, 0.00, -0.00, -1.00, 221.4, 356.4)">?</text><text xml:space="preserve" font-family="HelveticaNeue-Medium,Helvetica Neue" font-size="34.0" fill="#EAEAEA" transform="matrix(1.00, 0.00, -0.00, -1.00, 240.3, 356.4)">?</text><text xml:space="preserve" font-family="HelveticaNeue-Medium,Helvetica Neue" font-size="34.0" fill="#EAEAEA" transform="matrix(1.00, 0.00, -0.00, -1.00, 259.2, 356.4)">?</text><text xml:space="preserve" font-family="HelveticaNeue-Medium,Helvetica Neue" font-size="34.0" fill="#EAEAEA" transform="matrix(1.00, 0.00, -0.00, -1.00, 278.1, 356.4)"> </text><text xml:space="preserve" font-family="HelveticaNeue-Medium,Helvetica Neue" font-size="34.0" fill="#EAEAEA" transform="matrix(1.00, 0.00, -0.00, -1.00, 287.5, 356.4)">w</text><text xml:space="preserve" font-family="HelveticaNeue-Medium,Helvetica Neue" font-size="34.0" fill="#EAEAEA" transform="matrix(1.00, 0.00, -0.00, -1.00, 314.0, 356.4)">h</text><text xml:space="preserve" font-family="HelveticaNeue-Medium,Helvetica Neue" font-size="34.0" fill="#EAEAEA" transform="matrix(1.00, 0.00, -0.00, -1.00, 333.5, 356.4)">i</text><text xml:space="preserve" font-family="HelveticaNeue-Medium,Helvetica Neue" font-size="34.0" fill="#EAEAEA" transform="matrix(1.00, 0.00, -0.00, -1.00, 341.7, 356.4)">l</text><text xml:space="preserve" font-family="HelveticaNeue-Medium,Helvetica Neue" font-size="34.0" fill="#EAEAEA" transform="matrix(1.00, 0.00, -0.00, -1.00, 349.9, 356.4)">e</text><text xml:space="preserve" font-family="HelveticaNeue-Medium,Helvetica Neue" font-size="34.0" fill="#EAEAEA" transform="matrix(1.00, 0.00, -0.00, -1.00, 368.8, 356.4)"> </text><text xml:space="preserve" font-family="HelveticaNeue-Medium,Helvetica Neue" font-size="34.0" fill="#EAEAEA" transform="matrix(1.00, 0.00, -0.00, -1.00, 378.2, 356.4)">u</text><text xml:space="preserve" font-family="HelveticaNeue-Medium,Helvetica Neue" font-size="34.0" fill="#EAEAEA" transform="matrix(1.00, 0.00, -0.00, -1.00, 397.8, 356.4)">s</text><text xml:space="preserve" font-family="HelveticaNeue-Medium,Helvetica Neue" font-size="34.0" fill="#EAEAEA" transform="matrix(1.00, 0.00, -0.00, -1.00, 415.4, 356.4)">e</text><text xml:space="preserve" font-family="HelveticaNeue-Medium,Helvetica Neue" font-size="34.0" fill="#EAEAEA" transform="matrix(1.00, 0.00, -0.00, -1.00, 434.3, 356.4)">r</text><text xml:space="preserve" font-family="HelveticaNeue-Medium,Helvetica Neue" font-size="34.0" fill="#EAEAEA" transform="matrix(1.00, 0.00, -0.00, -1.00, 446.3, 356.4)">s</text><text xml:space="preserve" font-family="HelveticaNeue-Medium,Helvetica Neue" font-size="34.0" fill="#EAEAEA" transform="matrix(1.00, 0.00, -0.00, -1.00, 463.9, 356.4)"> </text><text xml:space="preserve" font-family="HelveticaNeue-Medium,Helvetica Neue" font-size="34.0" fill="#EAEAEA" transform="matrix(1.00, 0.00, -0.00, -1.00, 473.4, 356.4)">a</text><text xml:space="preserve" font-family="HelveticaNeue-Medium,Helvetica Neue" font-size="34.0" fill="#EAEAEA" transform="matrix(1.00, 0.00, -0.00, -1.00, 492.3, 356.4)">r</text><text xml:space="preserve" font-family="HelveticaNeue-Medium,Helvetica Neue" font-size="34.0" fill="#EAEAEA" transform="matrix(1.00, 0.00, -0.00, -1.00, 503.6, 356.4)">e</text><text xml:space="preserve" font-family="HelveticaNeue-Medium,Helvetica Neue" font-size="34.0" fill="#EAEAEA" transform="matrix(1.00, 0.00, -0.00, -1.00, 522.5, 356.4)"> </text><text xml:space="preserve" font-family="HelveticaNeue-Medium,Helvetica Neue" font-size="34.0" fill="#EAEAEA" transform="matrix(1.00, 0.00, -0.00, -1.00, 532.0, 356.4)">t</text><text xml:space="preserve" font-family="HelveticaNeue-Medium,Helvetica Neue" font-size="34.0" fill="#EAEAEA" transform="matrix(1.00, 0.00, -0.00, -1.00, 543.3, 356.4)">h</text><text xml:space="preserve" font-family="HelveticaNeue-Medium,Helvetica Neue" font-size="34.0" fill="#EAEAEA" transform="matrix(1.00, 0.00, -0.00, -1.00, 562.8, 356.4)">i</text><text xml:space="preserve" font-family="HelveticaNeue-Medium,Helvetica Neue" font-size="34.0" fill="#EAEAEA" transform="matrix(1.00, 0.00, -0.00, -1.00, 571.0, 356.4)">n</text><text xml:space="preserve" font-family="HelveticaNeue-Medium,Helvetica Neue" font-size="34.0" fill="#EAEAEA" transform="matrix(1.00, 0.00, -0.00, -1.00, 590.5, 356.4)">k</text><text xml:space="preserve" font-family="HelveticaNeue-Medium,Helvetica Neue" font-size="34.0" fill="#EAEAEA" transform="matrix(1.00, 0.00, -0.00, -1.00, 608.8, 356.4)">i</text><text xml:space="preserve" font-family="HelveticaNeue-Medium,Helvetica Neue" font-size="34.0" fill="#EAEAEA" transform="matrix(1.00, 0.00, -0.00, -1.00, 617.0, 356.4)">n</text><text xml:space="preserve" font-family="HelveticaNeue-Medium,Helvetica Neue" font-size="34.0" fill="#EAEAEA" transform="matrix(1.00, 0.00, -0.00, -1.00, 636.5, 356.4)">g</text><text xml:space="preserve" font-family="HelveticaNeue-Medium,Helvetica Neue" font-size="34.0" fill="#EAEAEA" transform="matrix(1.00, 0.00, -0.00, -1.00, 656.7, 356.4)"> </text><image xlink:href="../../6730FE5F-EAEF-4FE2-A68D-3659B75AB88F/assets/731B64DB902FCF81D6DAC44EF8A6BEA3.png" width="18.00" height="18.00" transform="matrix(1.00, 0.00, -0.00, -1.00, 61.0, 292.0)"></image><text xml:space="preserve" font-family="HelveticaNeue-Medium,Helvetica Neue" font-size="25.5" fill="#CE7123" transform="matrix(1.00, 0.00, -0.00, -1.00, 64.0, 275.9)">•</text><image xlink:href="../../6730FE5F-EAEF-4FE2-A68D-3659B75AB88F/assets/D5659EE71B247BAE13787EC040679655.png" width="554.00" height="40.00" transform="matrix(1.00, 0.00, -0.00, -1.00, 94.0, 300.0)"></image><text xml:space="preserve" font-family="HelveticaNeue-Medium,Helvetica Neue" font-size="34.0" fill="#CE7123" transform="matrix(1.00, 0.00, -0.00, -1.00, 96.0, 273.4)">P</text><text xml:space="preserve" font-family="HelveticaNeue-Medium,Helvetica Neue" font-size="34.0" fill="#CE7123" transform="matrix(1.00, 0.00, -0.00, -1.00, 118.7, 273.4)">l</text><text xml:space="preserve" font-family="HelveticaNeue-Medium,Helvetica Neue" font-size="34.0" fill="#CE7123" transform="matrix(1.00, 0.00, -0.00, -1.00, 126.9, 273.4)">a</text><text xml:space="preserve" font-family="HelveticaNeue-Medium,Helvetica Neue" font-size="34.0" fill="#CE7123" transform="matrix(1.00, 0.00, -0.00, -1.00, 145.8, 273.4)">y</text><text xml:space="preserve" font-family="HelveticaNeue-Medium,Helvetica Neue" font-size="34.0" fill="#CE7123" transform="matrix(1.00, 0.00, -0.00, -1.00, 163.4, 273.4)"> </text><text xml:space="preserve" font-family="HelveticaNeue-Medium,Helvetica Neue" font-size="34.0" fill="#CE7123" transform="matrix(1.00, 0.00, -0.00, -1.00, 172.9, 273.4)">a</text><text xml:space="preserve" font-family="HelveticaNeue-Medium,Helvetica Neue" font-size="34.0" fill="#CE7123" transform="matrix(1.00, 0.00, -0.00, -1.00, 191.8, 273.4)"> </text><text xml:space="preserve" font-family="HelveticaNeue-Medium,Helvetica Neue" font-size="34.0" fill="#CE7123" transform="matrix(1.00, 0.00, -0.00, -1.00, 201.2, 273.4)">s</text><text xml:space="preserve" font-family="HelveticaNeue-Medium,Helvetica Neue" font-size="34.0" fill="#CE7123" transform="matrix(1.00, 0.00, -0.00, -1.00, 218.9, 273.4)">o</text><text xml:space="preserve" font-family="HelveticaNeue-Medium,Helvetica Neue" font-size="34.0" fill="#CE7123" transform="matrix(1.00, 0.00, -0.00, -1.00, 239.0, 273.4)">n</text><text xml:space="preserve" font-family="HelveticaNeue-Medium,Helvetica Neue" font-size="34.0" fill="#CE7123" transform="matrix(1.00, 0.00, -0.00, -1.00, 258.6, 273.4)">g</text><text xml:space="preserve" font-family="HelveticaNeue-Medium,Helvetica Neue" font-size="34.0" fill="#CE7123" transform="matrix(1.00, 0.00, -0.00, -1.00, 278.7, 273.4)"> </text><text xml:space="preserve" font-family="HelveticaNeue-Medium,Helvetica Neue" font-size="34.0" fill="#CE7123" transform="matrix(1.00, 0.00, -0.00, -1.00, 288.2, 273.4)">w</text><text xml:space="preserve" font-family="HelveticaNeue-Medium,Helvetica Neue" font-size="34.0" fill="#CE7123" transform="matrix(1.00, 0.00, -0.00, -1.00, 314.6, 273.4)">h</text><text xml:space="preserve" font-family="HelveticaNeue-Medium,Helvetica Neue" font-size="34.0" fill="#CE7123" transform="matrix(1.00, 0.00, -0.00, -1.00, 334.1, 273.4)">i</text><text xml:space="preserve" font-family="HelveticaNeue-Medium,Helvetica Neue" font-size="34.0" fill="#CE7123" transform="matrix(1.00, 0.00, -0.00, -1.00, 342.3, 273.4)">l</text><text xml:space="preserve" font-family="HelveticaNeue-Medium,Helvetica Neue" font-size="34.0" fill="#CE7123" transform="matrix(1.00, 0.00, -0.00, -1.00, 350.5, 273.4)">e</text><text xml:space="preserve" font-family="HelveticaNeue-Medium,Helvetica Neue" font-size="34.0" fill="#CE7123" transform="matrix(1.00, 0.00, -0.00, -1.00, 369.4, 273.4)"> </text><text xml:space="preserve" font-family="HelveticaNeue-Medium,Helvetica Neue" font-size="34.0" fill="#CE7123" transform="matrix(1.00, 0.00, -0.00, -1.00, 378.9, 273.4)">u</text><text xml:space="preserve" font-family="HelveticaNeue-Medium,Helvetica Neue" font-size="34.0" fill="#CE7123" transform="matrix(1.00, 0.00, -0.00, -1.00, 398.4, 273.4)">s</text><text xml:space="preserve" font-family="HelveticaNeue-Medium,Helvetica Neue" font-size="34.0" fill="#CE7123" transform="matrix(1.00, 0.00, -0.00, -1.00, 416.0, 273.4)">e</text><text xml:space="preserve" font-family="HelveticaNeue-Medium,Helvetica Neue" font-size="34.0" fill="#CE7123" transform="matrix(1.00, 0.00, -0.00, -1.00, 434.9, 273.4)">r</text><text xml:space="preserve" font-family="HelveticaNeue-Medium,Helvetica Neue" font-size="34.0" fill="#CE7123" transform="matrix(1.00, 0.00, -0.00, -1.00, 446.9, 273.4)">s</text><text xml:space="preserve" font-family="HelveticaNeue-Medium,Helvetica Neue" font-size="34.0" fill="#CE7123" transform="matrix(1.00, 0.00, -0.00, -1.00, 464.6, 273.4)"> </text><text xml:space="preserve" font-family="HelveticaNeue-Medium,Helvetica Neue" font-size="34.0" fill="#CE7123" transform="matrix(1.00, 0.00, -0.00, -1.00, 474.0, 273.4)">a</text><text xml:space="preserve" font-family="HelveticaNeue-Medium,Helvetica Neue" font-size="34.0" fill="#CE7123" transform="matrix(1.00, 0.00, -0.00, -1.00, 492.9, 273.4)">r</text><text xml:space="preserve" font-family="HelveticaNeue-Medium,Helvetica Neue" font-size="34.0" fill="#CE7123" transform="matrix(1.00, 0.00, -0.00, -1.00, 504.3, 273.4)">e</text><text xml:space="preserve" font-family="HelveticaNeue-Medium,Helvetica Neue" font-size="34.0" fill="#CE7123" transform="matrix(1.00, 0.00, -0.00, -1.00, 523.2, 273.4)"> </text><text xml:space="preserve" font-family="HelveticaNeue-Medium,Helvetica Neue" font-size="34.0" fill="#CE7123" transform="matrix(1.00, 0.00, -0.00, -1.00, 532.6, 273.4)">w</text><text xml:space="preserve" font-family="HelveticaNeue-Medium,Helvetica Neue" font-size="34.0" fill="#CE7123" transform="matrix(1.00, 0.00, -0.00, -1.00, 559.1, 273.4)">a</text><text xml:space="preserve" font-family="HelveticaNeue-Medium,Helvetica Neue" font-size="34.0" fill="#CE7123" transform="matrix(1.00, 0.00, -0.00, -1.00, 578.0, 273.4)">i</text><text xml:space="preserve" font-family="HelveticaNeue-Medium,Helvetica Neue" font-size="34.0" fill="#CE7123" transform="matrix(1.00, 0.00, -0.00, -1.00, 586.2, 273.4)">t</text><text xml:space="preserve" font-family="HelveticaNeue-Medium,Helvetica Neue" font-size="34.0" fill="#CE7123" transform="matrix(1.00, 0.00, -0.00, -1.00, 597.5, 273.4)">i</text><text xml:space="preserve" font-family="HelveticaNeue-Medium,Helvetica Neue" font-size="34.0" fill="#CE7123" transform="matrix(1.00, 0.00, -0.00, -1.00, 605.7, 273.4)">n</text><text xml:space="preserve" font-family="HelveticaNeue-Medium,Helvetica Neue" font-size="34.0" fill="#CE7123" transform="matrix(1.00, 0.00, -0.00, -1.00, 625.2, 273.4)">g</text><text xml:space="preserve" font-family="HelveticaNeue-Medium,Helvetica Neue" font-size="34.0" fill="#CE7123" transform="matrix(1.00, 0.00, -0.00, -1.00, 645.4, 273.4)"> </text><g><clipPath id="clip0x7ff614b214e0"><path d="M 95.0 280.3 L 645.4 280.3 L 645.4 284.0 L 95.0 284.0 Z M 95.0 280.3 "></path></clipPath><g clip-path="url(#clip0x7ff614b214e0)"><path d="M 36.0 295.8 L 585.4 295.8 " fill="none" stroke="#CE7123" stroke-width="1.65" transform="matrix(1.00, 0.00, 0.00, -1.00, 60.0, 578.0)"></path></g></g><image xlink:href="../../6730FE5F-EAEF-4FE2-A68D-3659B75AB88F/assets/731B64DB902FCF81D6DAC44EF8A6BEA3.png" width="18.00" height="18.00" transform="matrix(1.00, 0.00, -0.00, -1.00, 61.0, 209.0)"></image><text xml:space="preserve" font-family="HelveticaNeue-Medium,Helvetica Neue" font-size="25.5" fill="#EAEAEA" transform="matrix(1.00, 0.00, -0.00, -1.00, 64.0, 192.9)">•</text><image xlink:href="../../6730FE5F-EAEF-4FE2-A68D-3659B75AB88F/assets/CAE8A9BC166154DD2E38A6B3155E1B3F.png" width="586.00" height="40.00" transform="matrix(1.00, 0.00, -0.00, -1.00, 94.0, 217.0)"></image><text xml:space="preserve" font-family="HelveticaNeue-Medium,Helvetica Neue" font-size="34.0" fill="#EAEAEA" transform="matrix(1.00, 0.00, -0.00, -1.00, 96.0, 190.4)">M</text><text xml:space="preserve" font-family="HelveticaNeue-Medium,Helvetica Neue" font-size="34.0" fill="#EAEAEA" transform="matrix(1.00, 0.00, -0.00, -1.00, 126.2, 190.4)">a</text><text xml:space="preserve" font-family="HelveticaNeue-Medium,Helvetica Neue" font-size="34.0" fill="#EAEAEA" transform="matrix(1.00, 0.00, -0.00, -1.00, 145.1, 190.4)">k</text><text xml:space="preserve" font-family="HelveticaNeue-Medium,Helvetica Neue" font-size="34.0" fill="#EAEAEA" transform="matrix(1.00, 0.00, -0.00, -1.00, 163.4, 190.4)">e</text><text xml:space="preserve" font-family="HelveticaNeue-Medium,Helvetica Neue" font-size="34.0" fill="#EAEAEA" transform="matrix(1.00, 0.00, -0.00, -1.00, 182.3, 190.4)"> </text><text xml:space="preserve" font-family="HelveticaNeue-Medium,Helvetica Neue" font-size="34.0" fill="#EAEAEA" transform="matrix(1.00, 0.00, -0.00, -1.00, 191.7, 190.4)">a</text><text xml:space="preserve" font-family="HelveticaNeue-Medium,Helvetica Neue" font-size="34.0" fill="#EAEAEA" transform="matrix(1.00, 0.00, -0.00, -1.00, 210.6, 190.4)"> </text><text xml:space="preserve" font-family="HelveticaNeue-Medium,Helvetica Neue" font-size="34.0" fill="#EAEAEA" transform="matrix(1.00, 0.00, -0.00, -1.00, 220.1, 190.4)">s</text><text xml:space="preserve" font-family="HelveticaNeue-Medium,Helvetica Neue" font-size="34.0" fill="#EAEAEA" transform="matrix(1.00, 0.00, -0.00, -1.00, 237.7, 190.4)">o</text><text xml:space="preserve" font-family="HelveticaNeue-Medium,Helvetica Neue" font-size="34.0" fill="#EAEAEA" transform="matrix(1.00, 0.00, -0.00, -1.00, 257.9, 190.4)">u</text><text xml:space="preserve" font-family="HelveticaNeue-Medium,Helvetica Neue" font-size="34.0" fill="#EAEAEA" transform="matrix(1.00, 0.00, -0.00, -1.00, 277.4, 190.4)">n</text><text xml:space="preserve" font-family="HelveticaNeue-Medium,Helvetica Neue" font-size="34.0" fill="#EAEAEA" transform="matrix(1.00, 0.00, -0.00, -1.00, 296.9, 190.4)">d</text><text xml:space="preserve" font-family="HelveticaNeue-Medium,Helvetica Neue" font-size="34.0" fill="#EAEAEA" transform="matrix(1.00, 0.00, -0.00, -1.00, 317.7, 190.4)"> </text><text xml:space="preserve" font-family="HelveticaNeue-Medium,Helvetica Neue" font-size="34.0" fill="#EAEAEA" transform="matrix(1.00, 0.00, -0.00, -1.00, 327.2, 190.4)">w</text><text xml:space="preserve" font-family="HelveticaNeue-Medium,Helvetica Neue" font-size="34.0" fill="#EAEAEA" transform="matrix(1.00, 0.00, -0.00, -1.00, 353.6, 190.4)">h</text><text xml:space="preserve" font-family="HelveticaNeue-Medium,Helvetica Neue" font-size="34.0" fill="#EAEAEA" transform="matrix(1.00, 0.00, -0.00, -1.00, 373.1, 190.4)">e</text><text xml:space="preserve" font-family="HelveticaNeue-Medium,Helvetica Neue" font-size="34.0" fill="#EAEAEA" transform="matrix(1.00, 0.00, -0.00, -1.00, 392.0, 190.4)">n</text><text xml:space="preserve" font-family="HelveticaNeue-Medium,Helvetica Neue" font-size="34.0" fill="#EAEAEA" transform="matrix(1.00, 0.00, -0.00, -1.00, 411.6, 190.4)"> </text><text xml:space="preserve" font-family="HelveticaNeue-Medium,Helvetica Neue" font-size="34.0" fill="#EAEAEA" transform="matrix(1.00, 0.00, -0.00, -1.00, 421.0, 190.4)">u</text><text xml:space="preserve" font-family="HelveticaNeue-Medium,Helvetica Neue" font-size="34.0" fill="#EAEAEA" transform="matrix(1.00, 0.00, -0.00, -1.00, 440.5, 190.4)">s</text><text xml:space="preserve" font-family="HelveticaNeue-Medium,Helvetica Neue" font-size="34.0" fill="#EAEAEA" transform="matrix(1.00, 0.00, -0.00, -1.00, 458.2, 190.4)">e</text><text xml:space="preserve" font-family="HelveticaNeue-Medium,Helvetica Neue" font-size="34.0" fill="#EAEAEA" transform="matrix(1.00, 0.00, -0.00, -1.00, 477.1, 190.4)">r</text><text xml:space="preserve" font-family="HelveticaNeue-Medium,Helvetica Neue" font-size="34.0" fill="#EAEAEA" transform="matrix(1.00, 0.00, -0.00, -1.00, 489.0, 190.4)">s</text><text xml:space="preserve" font-family="HelveticaNeue-Medium,Helvetica Neue" font-size="34.0" fill="#EAEAEA" transform="matrix(1.00, 0.00, -0.00, -1.00, 506.7, 190.4)"> </text><text xml:space="preserve" font-family="HelveticaNeue-Medium,Helvetica Neue" font-size="34.0" fill="#EAEAEA" transform="matrix(1.00, 0.00, -0.00, -1.00, 516.1, 190.4)">g</text><text xml:space="preserve" font-family="HelveticaNeue-Medium,Helvetica Neue" font-size="34.0" fill="#EAEAEA" transform="matrix(1.00, 0.00, -0.00, -1.00, 536.3, 190.4)">e</text><text xml:space="preserve" font-family="HelveticaNeue-Medium,Helvetica Neue" font-size="34.0" fill="#EAEAEA" transform="matrix(1.00, 0.00, -0.00, -1.00, 555.2, 190.4)">t</text><text xml:space="preserve" font-family="HelveticaNeue-Medium,Helvetica Neue" font-size="34.0" fill="#EAEAEA" transform="matrix(1.00, 0.00, -0.00, -1.00, 566.5, 190.4)"> </text><text xml:space="preserve" font-family="HelveticaNeue-Medium,Helvetica Neue" font-size="34.0" fill="#EAEAEA" transform="matrix(1.00, 0.00, -0.00, -1.00, 576.0, 190.4)">i</text><text xml:space="preserve" font-family="HelveticaNeue-Medium,Helvetica Neue" font-size="34.0" fill="#EAEAEA" transform="matrix(1.00, 0.00, -0.00, -1.00, 584.2, 190.4)">t</text><text xml:space="preserve" font-family="HelveticaNeue-Medium,Helvetica Neue" font-size="34.0" fill="#EAEAEA" transform="matrix(1.00, 0.00, -0.00, -1.00, 595.5, 190.4)"> </text><text xml:space="preserve" font-family="HelveticaNeue-Medium,Helvetica Neue" font-size="34.0" fill="#EAEAEA" transform="matrix(1.00, 0.00, -0.00, -1.00, 604.9, 190.4)">r</text><text xml:space="preserve" font-family="HelveticaNeue-Medium,Helvetica Neue" font-size="34.0" fill="#EAEAEA" transform="matrix(1.00, 0.00, -0.00, -1.00, 616.9, 190.4)">i</text><text xml:space="preserve" font-family="HelveticaNeue-Medium,Helvetica Neue" font-size="34.0" fill="#EAEAEA" transform="matrix(1.00, 0.00, -0.00, -1.00, 625.1, 190.4)">g</text><text xml:space="preserve" font-family="HelveticaNeue-Medium,Helvetica Neue" font-size="34.0" fill="#EAEAEA" transform="matrix(1.00, 0.00, -0.00, -1.00, 645.3, 190.4)">h</text><text xml:space="preserve" font-family="HelveticaNeue-Medium,Helvetica Neue" font-size="34.0" fill="#EAEAEA" transform="matrix(1.00, 0.00, -0.00, -1.00, 664.8, 190.4)">t</text><text xml:space="preserve" font-family="HelveticaNeue-Medium,Helvetica Neue" font-size="34.0" fill="#EAEAEA" transform="matrix(1.00, 0.00, -0.00, -1.00, 676.1, 190.4)"> </text><text xml:space="preserve" font-family="HelveticaNeue-Medium,Helvetica Neue" font-size="34.0" fill="#EAEAEA" transform="matrix(1.00, 0.00, -0.00, -1.00, 685.6, 190.4)"> </text><image xlink:href="../../6730FE5F-EAEF-4FE2-A68D-3659B75AB88F/assets/731B64DB902FCF81D6DAC44EF8A6BEA3.png" width="18.00" height="18.00" transform="matrix(1.00, 0.00, -0.00, -1.00, 61.0, 126.0)"></image><text xml:space="preserve" font-family="HelveticaNeue-Medium,Helvetica Neue" font-size="25.5" fill="#CE7123" transform="matrix(1.00, 0.00, -0.00, -1.00, 64.0, 109.9)">•</text><image xlink:href="../../6730FE5F-EAEF-4FE2-A68D-3659B75AB88F/assets/9DDE8DC6A256BC9E7754B01A5A2D7213.png" width="801.00" height="40.00" transform="matrix(1.00, 0.00, -0.00, -1.00, 91.0, 134.0)"></image><text xml:space="preserve" font-family="HelveticaNeue-Medium,Helvetica Neue" font-size="34.0" fill="#CE7123" transform="matrix(1.00, 0.00, -0.00, -1.00, 96.0, 107.4)">A</text><text xml:space="preserve" font-family="HelveticaNeue-Medium,Helvetica Neue" font-size="34.0" fill="#CE7123" transform="matrix(1.00, 0.00, -0.00, -1.00, 118.7, 107.4)">n</text><text xml:space="preserve" font-family="HelveticaNeue-Medium,Helvetica Neue" font-size="34.0" fill="#CE7123" transform="matrix(1.00, 0.00, -0.00, -1.00, 138.2, 107.4)">i</text><text xml:space="preserve" font-family="HelveticaNeue-Medium,Helvetica Neue" font-size="34.0" fill="#CE7123" transform="matrix(1.00, 0.00, -0.00, -1.00, 146.4, 107.4)">m</text><text xml:space="preserve" font-family="HelveticaNeue-Medium,Helvetica Neue" font-size="34.0" fill="#CE7123" transform="matrix(1.00, 0.00, -0.00, -1.00, 176.0, 107.4)">a</text><text xml:space="preserve" font-family="HelveticaNeue-Medium,Helvetica Neue" font-size="34.0" fill="#CE7123" transform="matrix(1.00, 0.00, -0.00, -1.00, 194.9, 107.4)">t</text><text xml:space="preserve" font-family="HelveticaNeue-Medium,Helvetica Neue" font-size="34.0" fill="#CE7123" transform="matrix(1.00, 0.00, -0.00, -1.00, 206.2, 107.4)">e</text><text xml:space="preserve" font-family="HelveticaNeue-Medium,Helvetica Neue" font-size="34.0" fill="#CE7123" transform="matrix(1.00, 0.00, -0.00, -1.00, 225.1, 107.4)"> </text><text xml:space="preserve" font-family="HelveticaNeue-Medium,Helvetica Neue" font-size="34.0" fill="#CE7123" transform="matrix(1.00, 0.00, -0.00, -1.00, 234.6, 107.4)">q</text><text xml:space="preserve" font-family="HelveticaNeue-Medium,Helvetica Neue" font-size="34.0" fill="#CE7123" transform="matrix(1.00, 0.00, -0.00, -1.00, 255.3, 107.4)">u</text><text xml:space="preserve" font-family="HelveticaNeue-Medium,Helvetica Neue" font-size="34.0" fill="#CE7123" transform="matrix(1.00, 0.00, -0.00, -1.00, 274.8, 107.4)">e</text><text xml:space="preserve" font-family="HelveticaNeue-Medium,Helvetica Neue" font-size="34.0" fill="#CE7123" transform="matrix(1.00, 0.00, -0.00, -1.00, 293.7, 107.4)">s</text><text xml:space="preserve" font-family="HelveticaNeue-Medium,Helvetica Neue" font-size="34.0" fill="#CE7123" transform="matrix(1.00, 0.00, -0.00, -1.00, 311.4, 107.4)">t</text><text xml:space="preserve" font-family="HelveticaNeue-Medium,Helvetica Neue" font-size="34.0" fill="#CE7123" transform="matrix(1.00, 0.00, -0.00, -1.00, 322.7, 107.4)">i</text><text xml:space="preserve" font-family="HelveticaNeue-Medium,Helvetica Neue" font-size="34.0" fill="#CE7123" transform="matrix(1.00, 0.00, -0.00, -1.00, 330.9, 107.4)">o</text><text xml:space="preserve" font-family="HelveticaNeue-Medium,Helvetica Neue" font-size="34.0" fill="#CE7123" transform="matrix(1.00, 0.00, -0.00, -1.00, 351.1, 107.4)">n</text><text xml:space="preserve" font-family="HelveticaNeue-Medium,Helvetica Neue" font-size="34.0" fill="#CE7123" transform="matrix(1.00, 0.00, -0.00, -1.00, 370.6, 107.4)">s</text><text xml:space="preserve" font-family="HelveticaNeue-Medium,Helvetica Neue" font-size="34.0" fill="#CE7123" transform="matrix(1.00, 0.00, -0.00, -1.00, 388.2, 107.4)"> </text><text xml:space="preserve" font-family="HelveticaNeue-Medium,Helvetica Neue" font-size="34.0" fill="#CE7123" transform="matrix(1.00, 0.00, -0.00, -1.00, 397.7, 107.4)">a</text><text xml:space="preserve" font-family="HelveticaNeue-Medium,Helvetica Neue" font-size="34.0" fill="#CE7123" transform="matrix(1.00, 0.00, -0.00, -1.00, 416.6, 107.4)">n</text><text xml:space="preserve" font-family="HelveticaNeue-Medium,Helvetica Neue" font-size="34.0" fill="#CE7123" transform="matrix(1.00, 0.00, -0.00, -1.00, 436.1, 107.4)">d</text><text xml:space="preserve" font-family="HelveticaNeue-Medium,Helvetica Neue" font-size="34.0" fill="#CE7123" transform="matrix(1.00, 0.00, -0.00, -1.00, 456.9, 107.4)"> </text><text xml:space="preserve" font-family="HelveticaNeue-Medium,Helvetica Neue" font-size="34.0" fill="#CE7123" transform="matrix(1.00, 0.00, -0.00, -1.00, 466.3, 107.4)">a</text><text xml:space="preserve" font-family="HelveticaNeue-Medium,Helvetica Neue" font-size="34.0" fill="#CE7123" transform="matrix(1.00, 0.00, -0.00, -1.00, 485.2, 107.4)">n</text><text xml:space="preserve" font-family="HelveticaNeue-Medium,Helvetica Neue" font-size="34.0" fill="#CE7123" transform="matrix(1.00, 0.00, -0.00, -1.00, 504.7, 107.4)">s</text><text xml:space="preserve" font-family="HelveticaNeue-Medium,Helvetica Neue" font-size="34.0" fill="#CE7123" transform="matrix(1.00, 0.00, -0.00, -1.00, 522.4, 107.4)">w</text><text xml:space="preserve" font-family="HelveticaNeue-Medium,Helvetica Neue" font-size="34.0" fill="#CE7123" transform="matrix(1.00, 0.00, -0.00, -1.00, 548.8, 107.4)">e</text><text xml:space="preserve" font-family="HelveticaNeue-Medium,Helvetica Neue" font-size="34.0" fill="#CE7123" transform="matrix(1.00, 0.00, -0.00, -1.00, 567.8, 107.4)">r</text><text xml:space="preserve" font-family="HelveticaNeue-Medium,Helvetica Neue" font-size="34.0" fill="#CE7123" transform="matrix(1.00, 0.00, -0.00, -1.00, 579.7, 107.4)">s</text><text xml:space="preserve" font-family="HelveticaNeue-Medium,Helvetica Neue" font-size="34.0" fill="#CE7123" transform="matrix(1.00, 0.00, -0.00, -1.00, 597.4, 107.4)"> </text><text xml:space="preserve" font-family="HelveticaNeue-Medium,Helvetica Neue" font-size="34.0" fill="#CE7123" transform="matrix(1.00, 0.00, -0.00, -1.00, 606.8, 107.4)">s</text><text xml:space="preserve" font-family="HelveticaNeue-Medium,Helvetica Neue" font-size="34.0" fill="#CE7123" transform="matrix(1.00, 0.00, -0.00, -1.00, 624.5, 107.4)">o</text><text xml:space="preserve" font-family="HelveticaNeue-Medium,Helvetica Neue" font-size="34.0" fill="#CE7123" transform="matrix(1.00, 0.00, -0.00, -1.00, 644.6, 107.4)"> </text><text xml:space="preserve" font-family="HelveticaNeue-Medium,Helvetica Neue" font-size="34.0" fill="#CE7123" transform="matrix(1.00, 0.00, -0.00, -1.00, 654.1, 107.4)">t</text><text xml:space="preserve" font-family="HelveticaNeue-Medium,Helvetica Neue" font-size="34.0" fill="#CE7123" transform="matrix(1.00, 0.00, -0.00, -1.00, 665.4, 107.4)">h</text><text xml:space="preserve" font-family="HelveticaNeue-Medium,Helvetica Neue" font-size="34.0" fill="#CE7123" transform="matrix(1.00, 0.00, -0.00, -1.00, 684.9, 107.4)">e</text><text xml:space="preserve" font-family="HelveticaNeue-Medium,Helvetica Neue" font-size="34.0" fill="#CE7123" transform="matrix(1.00, 0.00, -0.00, -1.00, 703.8, 107.4)">y</text><text xml:space="preserve" font-family="HelveticaNeue-Medium,Helvetica Neue" font-size="34.0" fill="#CE7123" transform="matrix(1.00, 0.00, -0.00, -1.00, 721.5, 107.4)"> </text><text xml:space="preserve" font-family="HelveticaNeue-Medium,Helvetica Neue" font-size="34.0" fill="#CE7123" transform="matrix(1.00, 0.00, -0.00, -1.00, 730.9, 107.4)">l</text><text xml:space="preserve" font-family="HelveticaNeue-Medium,Helvetica Neue" font-size="34.0" fill="#CE7123" transform="matrix(1.00, 0.00, -0.00, -1.00, 739.1, 107.4)">o</text><text xml:space="preserve" font-family="HelveticaNeue-Medium,Helvetica Neue" font-size="34.0" fill="#CE7123" transform="matrix(1.00, 0.00, -0.00, -1.00, 759.3, 107.4)">o</text><text xml:space="preserve" font-family="HelveticaNeue-Medium,Helvetica Neue" font-size="34.0" fill="#CE7123" transform="matrix(1.00, 0.00, -0.00, -1.00, 779.4, 107.4)">k</text><text xml:space="preserve" font-family="HelveticaNeue-Medium,Helvetica Neue" font-size="34.0" fill="#CE7123" transform="matrix(1.00, 0.00, -0.00, -1.00, 797.7, 107.4)"> </text><text xml:space="preserve" font-family="HelveticaNeue-Medium,Helvetica Neue" font-size="34.0" fill="#CE7123" transform="matrix(1.00, 0.00, -0.00, -1.00, 807.1, 107.4)">g</text><text xml:space="preserve" font-family="HelveticaNeue-Medium,Helvetica Neue" font-size="34.0" fill="#CE7123" transform="matrix(1.00, 0.00, -0.00, -1.00, 827.3, 107.4)">r</text><text xml:space="preserve" font-family="HelveticaNeue-Medium,Helvetica Neue" font-size="34.0" fill="#CE7123" transform="matrix(1.00, 0.00, -0.00, -1.00, 838.7, 107.4)">e</text><text xml:space="preserve" font-family="HelveticaNeue-Medium,Helvetica Neue" font-size="34.0" fill="#CE7123" transform="matrix(1.00, 0.00, -0.00, -1.00, 857.6, 107.4)">a</text><text xml:space="preserve" font-family="HelveticaNeue-Medium,Helvetica Neue" font-size="34.0" fill="#CE7123" transform="matrix(1.00, 0.00, -0.00, -1.00, 876.5, 107.4)">t</text><g><clipPath id="clip0x7ff6128f50d0"><path d="M 95.0 114.3 L 887.8 114.3 L 887.8 118.0 L 95.0 118.0 Z M 95.0 114.3 "></path></clipPath><g clip-path="url(#clip0x7ff6128f50d0)"><path d="M 36.0 461.8 L 827.8 461.8 " fill="none" stroke="#CE7123" stroke-width="1.65" transform="matrix(1.00, 0.00, 0.00, -1.00, 60.0, 578.0)"></path></g></g><image xlink:href="../../DE629342-4F0C-4417-94FF-D6D835F92EA0/assets/09263325317538C452AF7BD9896C7049.png" width="180.00" height="100.00" transform="matrix(1.00, 0.00, -0.00, -1.00, 677.4, 291.7)" opacity="0.50"></image><g><clipPath id="clip0x7ff62f7d0c70"><path d="M 767.2 289.7 C 719.8 289.7 681.4 272.9 681.4 252.3 C 681.4 241.6 691.9 232.1 708.4 225.3 L 682.5 198.1 L 738.5 217.3 C 747.5 215.9 757.1 215.0 767.2 215.0 C 814.6 215.0 853.0 231.7 853.0 252.3 C 853.0 272.9 814.6 289.7 767.2 289.7 Z M 767.2 289.7 "></path></clipPath><g clip-path="url(#clip0x7ff62f7d0c70)"><image xlink:href="../../DE629342-4F0C-4417-94FF-D6D835F92EA0/assets/71D9304BD44382C20CC202032C6D6058.png" width="512.00" height="512.00" transform="matrix(0.50, 0.00, -0.00, -0.50, 681.4, 289.7)"></image></g></g><image xlink:href="../../DE629342-4F0C-4417-94FF-D6D835F92EA0/assets/18DE178F459B161FBFF83AFD8BFA3665.png" width="29.00" height="28.00" transform="matrix(1.00, 0.00, -0.00, -1.00, 719.0, 265.0)"></image><text xml:space="preserve" font-family="HelveticaNeue-Medium,Helvetica Neue" font-size="30.0" fill="#FEFFFE" transform="matrix(1.00, 0.00, -0.00, -1.00, 720.2, 241.5)">M</text><image xlink:href="../../DE629342-4F0C-4417-94FF-D6D835F92EA0/assets/E29B948B653DF038E460FC3A2BE9C640.png" width="23.00" height="23.00" transform="matrix(1.00, 0.00, -0.00, -1.00, 744.0, 260.0)"></image><text xml:space="preserve" font-family="HelveticaNeue-Medium,Helvetica Neue" font-size="30.0" fill="#FEFFFE" transform="matrix(1.00, 0.00, -0.00, -1.00, 746.9, 241.5)">a</text><image xlink:href="../../DE629342-4F0C-4417-94FF-D6D835F92EA0/assets/ECE435D27C21F59BF67F93D2C0D67D90.png" width="23.00" height="29.00" transform="matrix(1.00, 0.00, -0.00, -1.00, 760.0, 260.0)"></image><text xml:space="preserve" font-family="HelveticaNeue-Medium,Helvetica Neue" font-size="30.0" fill="#FEFFFE" transform="matrix(1.00, 0.00, -0.00, -1.00, 763.6, 241.5)">y</text><image xlink:href="../../DE629342-4F0C-4417-94FF-D6D835F92EA0/assets/6A0B444EE8A930C9D5BDA82FC577DFE0.png" width="22.00" height="28.00" transform="matrix(1.00, 0.00, -0.00, -1.00, 778.0, 265.0)"></image><text xml:space="preserve" font-family="HelveticaNeue-Medium,Helvetica Neue" font-size="30.0" fill="#FEFFFE" transform="matrix(1.00, 0.00, -0.00, -1.00, 779.2, 241.5)">b</text><image xlink:href="../../DE629342-4F0C-4417-94FF-D6D835F92EA0/assets/37B854F0DE654F10AB2B754F27846A2A.png" width="22.00" height="23.00" transform="matrix(1.00, 0.00, -0.00, -1.00, 795.0, 260.0)"></image><text xml:space="preserve" font-family="HelveticaNeue-Medium,Helvetica Neue" font-size="30.0" fill="#FEFFFE" transform="matrix(1.00, 0.00, -0.00, -1.00, 797.5, 241.5)">e</text></g></svg>