<?xml version="1.0" encoding="UTF-8" standalone="no"?><svg xmlns="http://www.w3.org/2000/svg" xmlns:xlink="http://www.w3.org/1999/xlink" clip-rule="evenodd" stroke-miterlimit="10" viewBox="0 0 183 106"><desc>SVG generated by Keynote</desc><defs></defs><g transform="matrix(1.00, 0.00, -0.00, -1.00, 0.0, 106.0)"><image xlink:href="09263325317538C452AF7BD9896C7049.png" width="180.00" height="100.00" transform="matrix(1.00, 0.00, -0.00, -1.00, 1.4, 100.7)" opacity="0.50"></image><g><clipPath id="clip0x7ff62f125040"><path d="M 91.2 98.7 C 43.8 98.7 5.4 81.9 5.4 61.3 C 5.4 50.6 15.9 41.1 32.4 34.3 L 6.5 7.1 L 62.5 26.3 C 71.5 24.9 81.1 24.0 91.2 24.0 C 138.6 24.0 177.0 40.7 177.0 61.3 C 177.0 81.9 138.6 98.7 91.2 98.7 Z M 91.2 98.7 "></path></clipPath><g clip-path="url(#clip0x7ff62f125040)"><image xlink:href="71D9304BD44382C20CC202032C6D6058.png" width="512.00" height="512.00" transform="matrix(0.50, 0.00, -0.00, -0.50, 5.4, 98.7)"></image></g></g></g></svg>