<?xml version="1.0" encoding="UTF-8" standalone="no"?><svg xmlns="http://www.w3.org/2000/svg" xmlns:xlink="http://www.w3.org/1999/xlink" clip-rule="evenodd" stroke-miterlimit="10" viewBox="0 0 720 540"><desc>SVG generated by Keynote</desc><defs></defs><g transform="matrix(1.00, 0.00, -0.00, -1.00, 0.0, 540.0)"><path d="M 0.0 540.0 L 720.0 540.0 L 720.0 0.0 L 0.0 0.0 Z M 0.0 540.0 " fill="#FFFFFF"></path><text xml:space="preserve" font-family="Tahoma,Tahoma" font-size="10.0" fill="#000000" transform="matrix(1.00, 0.00, -0.00, -1.00, 558.1, 18.0)">7</text><image xlink:href="../../4E4F6FBC-6D39-436E-A8CA-D215696F6B90/assets/E15639A85F2B6ACB0B323A20E92411DA.png" width="407.00" height="38.00" transform="matrix(1.00, 0.00, -0.00, -1.00, 54.0, 458.0)"></image><text xml:space="preserve" font-family="Tahoma,Tahoma" font-size="36.0" fill="#000000" transform="matrix(1.00, 0.00, -0.00, -1.00, 51.6, 430.1)">E</text><text xml:space="preserve" font-family="Tahoma,Tahoma" font-size="36.0" fill="#000000" transform="matrix(1.00, 0.00, -0.00, -1.00, 71.8, 430.1)">x</text><text xml:space="preserve" font-family="Tahoma,Tahoma" font-size="36.0" fill="#000000" transform="matrix(1.00, 0.00, -0.00, -1.00, 89.6, 430.1)">a</text><text xml:space="preserve" font-family="Tahoma,Tahoma" font-size="36.0" fill="#000000" transform="matrix(1.00, 0.00, -0.00, -1.00, 108.5, 430.1)">m</text><text xml:space="preserve" font-family="Tahoma,Tahoma" font-size="36.0" fill="#000000" transform="matrix(1.00, 0.00, -0.00, -1.00, 138.7, 430.1)">p</text><text xml:space="preserve" font-family="Tahoma,Tahoma" font-size="36.0" fill="#000000" transform="matrix(1.00, 0.00, -0.00, -1.00, 158.6, 430.1)">l</text><text xml:space="preserve" font-family="Tahoma,Tahoma" font-size="36.0" fill="#000000" transform="matrix(1.00, 0.00, -0.00, -1.00, 166.8, 430.1)">e</text><text xml:space="preserve" font-family="Tahoma,Tahoma" font-size="36.0" fill="#000000" transform="matrix(1.00, 0.00, -0.00, -1.00, 185.8, 430.1)">s</text><text xml:space="preserve" font-family="Tahoma,Tahoma" font-size="36.0" fill="#000000" transform="matrix(1.00, 0.00, -0.00, -1.00, 201.9, 430.1)"> </text><text xml:space="preserve" font-family="Tahoma,Tahoma" font-size="36.0" fill="#000000" transform="matrix(1.00, 0.00, -0.00, -1.00, 213.1, 430.1)">o</text><text xml:space="preserve" font-family="Tahoma,Tahoma" font-size="36.0" fill="#000000" transform="matrix(1.00, 0.00, -0.00, -1.00, 232.7, 430.1)">f</text><text xml:space="preserve" font-family="Tahoma,Tahoma" font-size="36.0" fill="#000000" transform="matrix(1.00, 0.00, -0.00, -1.00, 244.1, 430.1)"> </text><text xml:space="preserve" font-family="Tahoma,Tahoma" font-size="36.0" fill="#000000" transform="matrix(1.00, 0.00, -0.00, -1.00, 255.4, 430.1)">D</text><text xml:space="preserve" font-family="Tahoma,Tahoma" font-size="36.0" fill="#000000" transform="matrix(1.00, 0.00, -0.00, -1.00, 279.8, 430.1)">e</text><text xml:space="preserve" font-family="Tahoma,Tahoma" font-size="36.0" fill="#000000" transform="matrix(1.00, 0.00, -0.00, -1.00, 298.8, 430.1)">c</text><text xml:space="preserve" font-family="Tahoma,Tahoma" font-size="36.0" fill="#000000" transform="matrix(1.00, 0.00, -0.00, -1.00, 315.4, 430.1)">l</text><text xml:space="preserve" font-family="Tahoma,Tahoma" font-size="36.0" fill="#000000" transform="matrix(1.00, 0.00, -0.00, -1.00, 323.6, 430.1)">a</text><text xml:space="preserve" font-family="Tahoma,Tahoma" font-size="36.0" fill="#000000" transform="matrix(1.00, 0.00, -0.00, -1.00, 342.5, 430.1)">r</text><text xml:space="preserve" font-family="Tahoma,Tahoma" font-size="36.0" fill="#000000" transform="matrix(1.00, 0.00, -0.00, -1.00, 354.9, 430.1)">a</text><text xml:space="preserve" font-family="Tahoma,Tahoma" font-size="36.0" fill="#000000" transform="matrix(1.00, 0.00, -0.00, -1.00, 373.7, 430.1)">t</text><text xml:space="preserve" font-family="Tahoma,Tahoma" font-size="36.0" fill="#000000" transform="matrix(1.00, 0.00, -0.00, -1.00, 385.8, 430.1)">i</text><text xml:space="preserve" font-family="Tahoma,Tahoma" font-size="36.0" fill="#000000" transform="matrix(1.00, 0.00, -0.00, -1.00, 394.0, 430.1)">o</text><text xml:space="preserve" font-family="Tahoma,Tahoma" font-size="36.0" fill="#000000" transform="matrix(1.00, 0.00, -0.00, -1.00, 413.6, 430.1)">n</text><text xml:space="preserve" font-family="Tahoma,Tahoma" font-size="36.0" fill="#000000" transform="matrix(1.00, 0.00, -0.00, -1.00, 433.6, 430.1)">s</text><text xml:space="preserve" font-family="Tahoma,Tahoma" font-size="36.0" fill="#000000" transform="matrix(1.00, 0.00, -0.00, -1.00, 449.7, 430.1)">:</text><path d="M 0.0 0.0 L 660.0 0.0 " fill="none" stroke="#0000FF" stroke-width="6.00" stroke-linejoin="round" transform="matrix(1.00, 0.00, 0.00, -1.00, 48.0, 402.0)"></path><text xml:space="preserve" font-family="CourierNewPSMT,Courier New" font-size="20.0" fill="#FF0000" transform="matrix(1.00, 0.00, -0.00, -1.00, 51.6, 357.4)">•</text><text xml:space="preserve" font-family="CourierNewPS-ItalicMT,Courier New" font-style="italic" font-size="20.0" fill="#FF0000" transform="matrix(1.00, 0.00, -0.00, -1.00, 63.6, 357.4)">i</text><text xml:space="preserve" font-family="CourierNewPS-ItalicMT,Courier New" font-style="italic" font-size="20.0" fill="#FF0000" transform="matrix(1.00, 0.00, -0.00, -1.00, 75.6, 357.4)">n</text><text xml:space="preserve" font-family="CourierNewPS-ItalicMT,Courier New" font-style="italic" font-size="20.0" fill="#FF0000" transform="matrix(1.00, 0.00, -0.00, -1.00, 87.6, 357.4)">t</text><text xml:space="preserve" font-family="CourierNewPS-ItalicMT,Courier New" font-style="italic" font-size="20.0" fill="#FF0000" transform="matrix(1.00, 0.00, -0.00, -1.00, 99.6, 357.4)"> </text><text xml:space="preserve" font-family="CourierNewPS-ItalicMT,Courier New" font-style="italic" font-size="20.0" fill="#0000FF" transform="matrix(1.00, 0.00, -0.00, -1.00, 111.6, 357.4)">n</text><text xml:space="preserve" font-family="CourierNewPS-ItalicMT,Courier New" font-style="italic" font-size="20.0" fill="#0000FF" transform="matrix(1.00, 0.00, -0.00, -1.00, 123.6, 357.4)">u</text><text xml:space="preserve" font-family="CourierNewPS-ItalicMT,Courier New" font-style="italic" font-size="20.0" fill="#0000FF" transform="matrix(1.00, 0.00, -0.00, -1.00, 135.6, 357.4)">m</text><text xml:space="preserve" font-family="CourierNewPS-ItalicMT,Courier New" font-style="italic" font-size="20.0" fill="#0000FF" transform="matrix(1.00, 0.00, -0.00, -1.00, 147.6, 357.4)">b</text><text xml:space="preserve" font-family="CourierNewPS-ItalicMT,Courier New" font-style="italic" font-size="20.0" fill="#0000FF" transform="matrix(1.00, 0.00, -0.00, -1.00, 159.6, 357.4)">e</text><text xml:space="preserve" font-family="CourierNewPS-ItalicMT,Courier New" font-style="italic" font-size="20.0" fill="#0000FF" transform="matrix(1.00, 0.00, -0.00, -1.00, 171.6, 357.4)">r</text><text xml:space="preserve" font-family="CourierNewPS-ItalicMT,Courier New" font-style="italic" font-size="20.0" fill="#0000FF" transform="matrix(1.00, 0.00, -0.00, -1.00, 183.6, 357.4)">O</text><text xml:space="preserve" font-family="CourierNewPS-ItalicMT,Courier New" font-style="italic" font-size="20.0" fill="#0000FF" transform="matrix(1.00, 0.00, -0.00, -1.00, 195.6, 357.4)">f</text><text xml:space="preserve" font-family="CourierNewPS-ItalicMT,Courier New" font-style="italic" font-size="20.0" fill="#0000FF" transform="matrix(1.00, 0.00, -0.00, -1.00, 207.6, 357.4)">F</text><text xml:space="preserve" font-family="CourierNewPS-ItalicMT,Courier New" font-style="italic" font-size="20.0" fill="#0000FF" transform="matrix(1.00, 0.00, -0.00, -1.00, 219.6, 357.4)">i</text><text xml:space="preserve" font-family="CourierNewPS-ItalicMT,Courier New" font-style="italic" font-size="20.0" fill="#0000FF" transform="matrix(1.00, 0.00, -0.00, -1.00, 231.6, 357.4)">n</text><text xml:space="preserve" font-family="CourierNewPS-ItalicMT,Courier New" font-style="italic" font-size="20.0" fill="#0000FF" transform="matrix(1.00, 0.00, -0.00, -1.00, 243.7, 357.4)">g</text><text xml:space="preserve" font-family="CourierNewPS-ItalicMT,Courier New" font-style="italic" font-size="20.0" fill="#0000FF" transform="matrix(1.00, 0.00, -0.00, -1.00, 255.7, 357.4)">e</text><text xml:space="preserve" font-family="CourierNewPS-ItalicMT,Courier New" font-style="italic" font-size="20.0" fill="#0000FF" transform="matrix(1.00, 0.00, -0.00, -1.00, 267.7, 357.4)">r</text><text xml:space="preserve" font-family="CourierNewPS-ItalicMT,Courier New" font-style="italic" font-size="20.0" fill="#0000FF" transform="matrix(1.00, 0.00, -0.00, -1.00, 279.7, 357.4)">s</text><text xml:space="preserve" font-family="CourierNewPS-ItalicMT,Courier New" font-style="italic" font-size="20.0" fill="#0000FF" transform="matrix(1.00, 0.00, -0.00, -1.00, 291.7, 357.4)"> </text><text xml:space="preserve" font-family="CourierNewPS-ItalicMT,Courier New" font-style="italic" font-size="20.0" fill="#0000FF" transform="matrix(1.00, 0.00, -0.00, -1.00, 303.7, 357.4)">=</text><text xml:space="preserve" font-family="CourierNewPS-ItalicMT,Courier New" font-style="italic" font-size="20.0" fill="#0000FF" transform="matrix(1.00, 0.00, -0.00, -1.00, 315.7, 357.4)"> </text><text xml:space="preserve" font-family="CourierNewPS-ItalicMT,Courier New" font-style="italic" font-size="20.0" fill="#0000FF" transform="matrix(1.00, 0.00, -0.00, -1.00, 327.7, 357.4)">1</text><text xml:space="preserve" font-family="CourierNewPS-ItalicMT,Courier New" font-style="italic" font-size="20.0" fill="#0000FF" transform="matrix(1.00, 0.00, -0.00, -1.00, 339.7, 357.4)">1</text><text xml:space="preserve" font-family="CourierNewPS-ItalicMT,Courier New" font-style="italic" font-size="20.0" fill="#0000FF" transform="matrix(1.00, 0.00, -0.00, -1.00, 351.7, 357.4)">;</text><text xml:space="preserve" font-family="CourierNewPS-ItalicMT,Courier New" font-style="italic" font-size="20.0" fill="#0000FF" transform="matrix(1.00, 0.00, -0.00, -1.00, 363.7, 357.4)"> </text><text xml:space="preserve" font-family="CourierNewPS-ItalicMT,Courier New" font-style="italic" font-size="20.0" fill="#0000FF" transform="matrix(1.00, 0.00, -0.00, -1.00, 375.7, 357.4)"> </text><text xml:space="preserve" font-family="CourierNewPSMT,Courier New" font-size="20.0" fill="#FF0000" transform="matrix(1.00, 0.00, -0.00, -1.00, 51.6, 334.4)">•</text><text xml:space="preserve" font-family="CourierNewPS-ItalicMT,Courier New" font-style="italic" font-size="20.0" fill="#FF0000" transform="matrix(1.00, 0.00, -0.00, -1.00, 63.6, 334.4)">d</text><text xml:space="preserve" font-family="CourierNewPS-ItalicMT,Courier New" font-style="italic" font-size="20.0" fill="#FF0000" transform="matrix(1.00, 0.00, -0.00, -1.00, 75.6, 334.4)">o</text><text xml:space="preserve" font-family="CourierNewPS-ItalicMT,Courier New" font-style="italic" font-size="20.0" fill="#FF0000" transform="matrix(1.00, 0.00, -0.00, -1.00, 87.6, 334.4)">u</text><text xml:space="preserve" font-family="CourierNewPS-ItalicMT,Courier New" font-style="italic" font-size="20.0" fill="#FF0000" transform="matrix(1.00, 0.00, -0.00, -1.00, 99.6, 334.4)">b</text><text xml:space="preserve" font-family="CourierNewPS-ItalicMT,Courier New" font-style="italic" font-size="20.0" fill="#FF0000" transform="matrix(1.00, 0.00, -0.00, -1.00, 111.6, 334.4)">l</text><text xml:space="preserve" font-family="CourierNewPS-ItalicMT,Courier New" font-style="italic" font-size="20.0" fill="#FF0000" transform="matrix(1.00, 0.00, -0.00, -1.00, 123.6, 334.4)">e</text><text xml:space="preserve" font-family="CourierNewPS-ItalicMT,Courier New" font-style="italic" font-size="20.0" fill="#0000FF" transform="matrix(1.00, 0.00, -0.00, -1.00, 135.6, 334.4)"> </text><text xml:space="preserve" font-family="CourierNewPS-ItalicMT,Courier New" font-style="italic" font-size="20.0" fill="#0000FF" transform="matrix(1.00, 0.00, -0.00, -1.00, 147.6, 334.4)">G</text><text xml:space="preserve" font-family="CourierNewPS-ItalicMT,Courier New" font-style="italic" font-size="20.0" fill="#0000FF" transform="matrix(1.00, 0.00, -0.00, -1.00, 159.6, 334.4)">P</text><text xml:space="preserve" font-family="CourierNewPS-ItalicMT,Courier New" font-style="italic" font-size="20.0" fill="#0000FF" transform="matrix(1.00, 0.00, -0.00, -1.00, 171.6, 334.4)">A</text><text xml:space="preserve" font-family="CourierNewPS-ItalicMT,Courier New" font-style="italic" font-size="20.0" fill="#0000FF" transform="matrix(1.00, 0.00, -0.00, -1.00, 183.6, 334.4)"> </text><text xml:space="preserve" font-family="CourierNewPS-ItalicMT,Courier New" font-style="italic" font-size="20.0" fill="#0000FF" transform="matrix(1.00, 0.00, -0.00, -1.00, 195.6, 334.4)">=</text><text xml:space="preserve" font-family="CourierNewPS-ItalicMT,Courier New" font-style="italic" font-size="20.0" fill="#0000FF" transform="matrix(1.00, 0.00, -0.00, -1.00, 207.6, 334.4)"> </text><text xml:space="preserve" font-family="CourierNewPS-ItalicMT,Courier New" font-style="italic" font-size="20.0" fill="#0000FF" transform="matrix(1.00, 0.00, -0.00, -1.00, 219.6, 334.4)">3</text><text xml:space="preserve" font-family="CourierNewPS-ItalicMT,Courier New" font-style="italic" font-size="20.0" fill="#0000FF" transform="matrix(1.00, 0.00, -0.00, -1.00, 231.6, 334.4)">.</text><text xml:space="preserve" font-family="CourierNewPS-ItalicMT,Courier New" font-style="italic" font-size="20.0" fill="#0000FF" transform="matrix(1.00, 0.00, -0.00, -1.00, 243.6, 334.4)">9</text><text xml:space="preserve" font-family="CourierNewPS-ItalicMT,Courier New" font-style="italic" font-size="20.0" fill="#0000FF" transform="matrix(1.00, 0.00, -0.00, -1.00, 255.7, 334.4)">5</text><text xml:space="preserve" font-family="CourierNewPS-ItalicMT,Courier New" font-style="italic" font-size="20.0" fill="#0000FF" transform="matrix(1.00, 0.00, -0.00, -1.00, 267.7, 334.4)">;</text><text xml:space="preserve" font-family="CourierNewPS-ItalicMT,Courier New" font-style="italic" font-size="20.0" fill="#0000FF" transform="matrix(1.00, 0.00, -0.00, -1.00, 279.6, 334.4)"> </text><text xml:space="preserve" font-family="CourierNewPSMT,Courier New" font-size="20.0" fill="#FF0000" transform="matrix(1.00, 0.00, -0.00, -1.00, 51.6, 311.4)">•</text><text xml:space="preserve" font-family="CourierNewPS-ItalicMT,Courier New" font-style="italic" font-size="20.0" fill="#FF0000" transform="matrix(1.00, 0.00, -0.00, -1.00, 63.6, 311.4)">c</text><text xml:space="preserve" font-family="CourierNewPS-ItalicMT,Courier New" font-style="italic" font-size="20.0" fill="#FF0000" transform="matrix(1.00, 0.00, -0.00, -1.00, 75.6, 311.4)">h</text><text xml:space="preserve" font-family="CourierNewPS-ItalicMT,Courier New" font-style="italic" font-size="20.0" fill="#FF0000" transform="matrix(1.00, 0.00, -0.00, -1.00, 87.6, 311.4)">a</text><text xml:space="preserve" font-family="CourierNewPS-ItalicMT,Courier New" font-style="italic" font-size="20.0" fill="#FF0000" transform="matrix(1.00, 0.00, -0.00, -1.00, 99.6, 311.4)">r</text><text xml:space="preserve" font-family="CourierNewPS-ItalicMT,Courier New" font-style="italic" font-size="20.0" fill="#0000FF" transform="matrix(1.00, 0.00, -0.00, -1.00, 111.6, 311.4)"> </text><text xml:space="preserve" font-family="CourierNewPS-ItalicMT,Courier New" font-style="italic" font-size="20.0" fill="#0000FF" transform="matrix(1.00, 0.00, -0.00, -1.00, 123.6, 311.4)">f</text><text xml:space="preserve" font-family="CourierNewPS-ItalicMT,Courier New" font-style="italic" font-size="20.0" fill="#0000FF" transform="matrix(1.00, 0.00, -0.00, -1.00, 135.6, 311.4)">i</text><text xml:space="preserve" font-family="CourierNewPS-ItalicMT,Courier New" font-style="italic" font-size="20.0" fill="#0000FF" transform="matrix(1.00, 0.00, -0.00, -1.00, 147.6, 311.4)">r</text><text xml:space="preserve" font-family="CourierNewPS-ItalicMT,Courier New" font-style="italic" font-size="20.0" fill="#0000FF" transform="matrix(1.00, 0.00, -0.00, -1.00, 159.6, 311.4)">s</text><text xml:space="preserve" font-family="CourierNewPS-ItalicMT,Courier New" font-style="italic" font-size="20.0" fill="#0000FF" transform="matrix(1.00, 0.00, -0.00, -1.00, 171.6, 311.4)">t</text><text xml:space="preserve" font-family="CourierNewPS-ItalicMT,Courier New" font-style="italic" font-size="20.0" fill="#0000FF" transform="matrix(1.00, 0.00, -0.00, -1.00, 183.6, 311.4)">L</text><text xml:space="preserve" font-family="CourierNewPS-ItalicMT,Courier New" font-style="italic" font-size="20.0" fill="#0000FF" transform="matrix(1.00, 0.00, -0.00, -1.00, 195.6, 311.4)">e</text><text xml:space="preserve" font-family="CourierNewPS-ItalicMT,Courier New" font-style="italic" font-size="20.0" fill="#0000FF" transform="matrix(1.00, 0.00, -0.00, -1.00, 207.6, 311.4)">t</text><text xml:space="preserve" font-family="CourierNewPS-ItalicMT,Courier New" font-style="italic" font-size="20.0" fill="#0000FF" transform="matrix(1.00, 0.00, -0.00, -1.00, 219.6, 311.4)">t</text><text xml:space="preserve" font-family="CourierNewPS-ItalicMT,Courier New" font-style="italic" font-size="20.0" fill="#0000FF" transform="matrix(1.00, 0.00, -0.00, -1.00, 231.6, 311.4)">e</text><text xml:space="preserve" font-family="CourierNewPS-ItalicMT,Courier New" font-style="italic" font-size="20.0" fill="#0000FF" transform="matrix(1.00, 0.00, -0.00, -1.00, 243.7, 311.4)">r</text><text xml:space="preserve" font-family="CourierNewPS-ItalicMT,Courier New" font-style="italic" font-size="20.0" fill="#0000FF" transform="matrix(1.00, 0.00, -0.00, -1.00, 255.7, 311.4)"> </text><text xml:space="preserve" font-family="CourierNewPS-ItalicMT,Courier New" font-style="italic" font-size="20.0" fill="#0000FF" transform="matrix(1.00, 0.00, -0.00, -1.00, 267.7, 311.4)">=</text><text xml:space="preserve" font-family="CourierNewPS-ItalicMT,Courier New" font-style="italic" font-size="20.0" fill="#0000FF" transform="matrix(1.00, 0.00, -0.00, -1.00, 279.7, 311.4)"> </text><text xml:space="preserve" font-family="CourierNewPS-ItalicMT,Courier New" font-style="italic" font-size="20.0" fill="#0000FF" transform="matrix(1.00, 0.00, -0.00, -1.00, 291.7, 311.4)">‘</text><text xml:space="preserve" font-family="CourierNewPS-ItalicMT,Courier New" font-style="italic" font-size="20.0" fill="#0000FF" transform="matrix(1.00, 0.00, -0.00, -1.00, 303.7, 311.4)">a</text><text xml:space="preserve" font-family="CourierNewPS-ItalicMT,Courier New" font-style="italic" font-size="20.0" fill="#0000FF" transform="matrix(1.00, 0.00, -0.00, -1.00, 315.7, 311.4)">’</text><text xml:space="preserve" font-family="CourierNewPS-ItalicMT,Courier New" font-style="italic" font-size="20.0" fill="#0000FF" transform="matrix(1.00, 0.00, -0.00, -1.00, 327.7, 311.4)">;</text><text xml:space="preserve" font-family="CourierNewPS-ItalicMT,Courier New" font-style="italic" font-size="20.0" fill="#0000FF" transform="matrix(1.00, 0.00, -0.00, -1.00, 339.6, 311.4)"> </text><text xml:space="preserve" font-family="CourierNewPSMT,Courier New" font-size="20.0" fill="#FF0000" transform="matrix(1.00, 0.00, -0.00, -1.00, 51.6, 288.4)">•</text><text xml:space="preserve" font-family="CourierNewPS-ItalicMT,Courier New" font-style="italic" font-size="20.0" fill="#FF0000" transform="matrix(1.00, 0.00, -0.00, -1.00, 63.6, 288.4)">S</text><text xml:space="preserve" font-family="CourierNewPS-ItalicMT,Courier New" font-style="italic" font-size="20.0" fill="#FF0000" transform="matrix(1.00, 0.00, -0.00, -1.00, 75.6, 288.4)">t</text><text xml:space="preserve" font-family="CourierNewPS-ItalicMT,Courier New" font-style="italic" font-size="20.0" fill="#FF0000" transform="matrix(1.00, 0.00, -0.00, -1.00, 87.6, 288.4)">r</text><text xml:space="preserve" font-family="CourierNewPS-ItalicMT,Courier New" font-style="italic" font-size="20.0" fill="#FF0000" transform="matrix(1.00, 0.00, -0.00, -1.00, 99.6, 288.4)">i</text><text xml:space="preserve" font-family="CourierNewPS-ItalicMT,Courier New" font-style="italic" font-size="20.0" fill="#FF0000" transform="matrix(1.00, 0.00, -0.00, -1.00, 111.6, 288.4)">n</text><text xml:space="preserve" font-family="CourierNewPS-ItalicMT,Courier New" font-style="italic" font-size="20.0" fill="#FF0000" transform="matrix(1.00, 0.00, -0.00, -1.00, 123.6, 288.4)">g</text><text xml:space="preserve" font-family="CourierNewPS-ItalicMT,Courier New" font-style="italic" font-size="20.0" fill="#0000FF" transform="matrix(1.00, 0.00, -0.00, -1.00, 135.6, 288.4)"> </text><text xml:space="preserve" font-family="CourierNewPS-ItalicMT,Courier New" font-style="italic" font-size="20.0" fill="#0000FF" transform="matrix(1.00, 0.00, -0.00, -1.00, 147.6, 288.4)">m</text><text xml:space="preserve" font-family="CourierNewPS-ItalicMT,Courier New" font-style="italic" font-size="20.0" fill="#0000FF" transform="matrix(1.00, 0.00, -0.00, -1.00, 159.6, 288.4)">y</text><text xml:space="preserve" font-family="CourierNewPS-ItalicMT,Courier New" font-style="italic" font-size="20.0" fill="#0000FF" transform="matrix(1.00, 0.00, -0.00, -1.00, 171.6, 288.4)">N</text><text xml:space="preserve" font-family="CourierNewPS-ItalicMT,Courier New" font-style="italic" font-size="20.0" fill="#0000FF" transform="matrix(1.00, 0.00, -0.00, -1.00, 183.6, 288.4)">a</text><text xml:space="preserve" font-family="CourierNewPS-ItalicMT,Courier New" font-style="italic" font-size="20.0" fill="#0000FF" transform="matrix(1.00, 0.00, -0.00, -1.00, 195.6, 288.4)">m</text><text xml:space="preserve" font-family="CourierNewPS-ItalicMT,Courier New" font-style="italic" font-size="20.0" fill="#0000FF" transform="matrix(1.00, 0.00, -0.00, -1.00, 207.6, 288.4)">e</text><text xml:space="preserve" font-family="CourierNewPS-ItalicMT,Courier New" font-style="italic" font-size="20.0" fill="#0000FF" transform="matrix(1.00, 0.00, -0.00, -1.00, 219.6, 288.4)"> </text><text xml:space="preserve" font-family="CourierNewPS-ItalicMT,Courier New" font-style="italic" font-size="20.0" fill="#0000FF" transform="matrix(1.00, 0.00, -0.00, -1.00, 231.6, 288.4)">=</text><text xml:space="preserve" font-family="CourierNewPS-ItalicMT,Courier New" font-style="italic" font-size="20.0" fill="#0000FF" transform="matrix(1.00, 0.00, -0.00, -1.00, 243.6, 288.4)"> </text><text xml:space="preserve" font-family="CourierNewPS-ItalicMT,Courier New" font-style="italic" font-size="20.0" fill="#0000FF" transform="matrix(1.00, 0.00, -0.00, -1.00, 255.7, 288.4)">“</text><text xml:space="preserve" font-family="CourierNewPS-ItalicMT,Courier New" font-style="italic" font-size="20.0" fill="#0000FF" transform="matrix(1.00, 0.00, -0.00, -1.00, 267.7, 288.4)">T</text><text xml:space="preserve" font-family="CourierNewPS-ItalicMT,Courier New" font-style="italic" font-size="20.0" fill="#0000FF" transform="matrix(1.00, 0.00, -0.00, -1.00, 279.7, 288.4)">u</text><text xml:space="preserve" font-family="CourierNewPS-ItalicMT,Courier New" font-style="italic" font-size="20.0" fill="#0000FF" transform="matrix(1.00, 0.00, -0.00, -1.00, 291.7, 288.4)">a</text><text xml:space="preserve" font-family="CourierNewPS-ItalicMT,Courier New" font-style="italic" font-size="20.0" fill="#0000FF" transform="matrix(1.00, 0.00, -0.00, -1.00, 303.7, 288.4)">n</text><text xml:space="preserve" font-family="CourierNewPS-ItalicMT,Courier New" font-style="italic" font-size="20.0" fill="#0000FF" transform="matrix(1.00, 0.00, -0.00, -1.00, 315.7, 288.4)"> </text><text xml:space="preserve" font-family="CourierNewPS-ItalicMT,Courier New" font-style="italic" font-size="20.0" fill="#0000FF" transform="matrix(1.00, 0.00, -0.00, -1.00, 327.7, 288.4)">T</text><text xml:space="preserve" font-family="CourierNewPS-ItalicMT,Courier New" font-style="italic" font-size="20.0" fill="#0000FF" transform="matrix(1.00, 0.00, -0.00, -1.00, 339.7, 288.4)">r</text><text xml:space="preserve" font-family="CourierNewPS-ItalicMT,Courier New" font-style="italic" font-size="20.0" fill="#0000FF" transform="matrix(1.00, 0.00, -0.00, -1.00, 351.7, 288.4)">a</text><text xml:space="preserve" font-family="CourierNewPS-ItalicMT,Courier New" font-style="italic" font-size="20.0" fill="#0000FF" transform="matrix(1.00, 0.00, -0.00, -1.00, 363.7, 288.4)">n</text><text xml:space="preserve" font-family="CourierNewPS-ItalicMT,Courier New" font-style="italic" font-size="20.0" fill="#0000FF" transform="matrix(1.00, 0.00, -0.00, -1.00, 375.7, 288.4)">”</text><text xml:space="preserve" font-family="CourierNewPS-ItalicMT,Courier New" font-style="italic" font-size="20.0" fill="#0000FF" transform="matrix(1.00, 0.00, -0.00, -1.00, 387.7, 288.4)">;</text><text xml:space="preserve" font-family="CourierNewPS-ItalicMT,Courier New" font-style="italic" font-size="20.0" fill="#0000FF" transform="matrix(1.00, 0.00, -0.00, -1.00, 399.7, 288.4)"> </text><text xml:space="preserve" font-family="CourierNewPSMT,Courier New" font-size="20.0" fill="#FF0000" transform="matrix(1.00, 0.00, -0.00, -1.00, 51.6, 265.4)">•</text><text xml:space="preserve" font-family="CourierNewPS-ItalicMT,Courier New" font-style="italic" font-size="20.0" fill="#FF0000" transform="matrix(1.00, 0.00, -0.00, -1.00, 63.6, 265.4)">b</text><text xml:space="preserve" font-family="CourierNewPS-ItalicMT,Courier New" font-style="italic" font-size="20.0" fill="#FF0000" transform="matrix(1.00, 0.00, -0.00, -1.00, 75.6, 265.4)">o</text><text xml:space="preserve" font-family="CourierNewPS-ItalicMT,Courier New" font-style="italic" font-size="20.0" fill="#FF0000" transform="matrix(1.00, 0.00, -0.00, -1.00, 87.6, 265.4)">o</text><text xml:space="preserve" font-family="CourierNewPS-ItalicMT,Courier New" font-style="italic" font-size="20.0" fill="#FF0000" transform="matrix(1.00, 0.00, -0.00, -1.00, 99.6, 265.4)">l</text><text xml:space="preserve" font-family="CourierNewPS-ItalicMT,Courier New" font-style="italic" font-size="20.0" fill="#FF0000" transform="matrix(1.00, 0.00, -0.00, -1.00, 111.6, 265.4)">e</text><text xml:space="preserve" font-family="CourierNewPS-ItalicMT,Courier New" font-style="italic" font-size="20.0" fill="#FF0000" transform="matrix(1.00, 0.00, -0.00, -1.00, 123.6, 265.4)">a</text><text xml:space="preserve" font-family="CourierNewPS-ItalicMT,Courier New" font-style="italic" font-size="20.0" fill="#FF0000" transform="matrix(1.00, 0.00, -0.00, -1.00, 135.6, 265.4)">n</text><text xml:space="preserve" font-family="CourierNewPS-ItalicMT,Courier New" font-style="italic" font-size="20.0" fill="#FF0000" transform="matrix(1.00, 0.00, -0.00, -1.00, 147.6, 265.4)"> </text><text xml:space="preserve" font-family="CourierNewPS-ItalicMT,Courier New" font-style="italic" font-size="20.0" fill="#0000FF" transform="matrix(1.00, 0.00, -0.00, -1.00, 159.6, 265.4)">c</text><text xml:space="preserve" font-family="CourierNewPS-ItalicMT,Courier New" font-style="italic" font-size="20.0" fill="#0000FF" transform="matrix(1.00, 0.00, -0.00, -1.00, 171.6, 265.4)">a</text><text xml:space="preserve" font-family="CourierNewPS-ItalicMT,Courier New" font-style="italic" font-size="20.0" fill="#0000FF" transform="matrix(1.00, 0.00, -0.00, -1.00, 183.6, 265.4)">t</text><text xml:space="preserve" font-family="CourierNewPS-ItalicMT,Courier New" font-style="italic" font-size="20.0" fill="#0000FF" transform="matrix(1.00, 0.00, -0.00, -1.00, 195.6, 265.4)">s</text><text xml:space="preserve" font-family="CourierNewPS-ItalicMT,Courier New" font-style="italic" font-size="20.0" fill="#0000FF" transform="matrix(1.00, 0.00, -0.00, -1.00, 207.6, 265.4)">C</text><text xml:space="preserve" font-family="CourierNewPS-ItalicMT,Courier New" font-style="italic" font-size="20.0" fill="#0000FF" transform="matrix(1.00, 0.00, -0.00, -1.00, 219.6, 265.4)">a</text><text xml:space="preserve" font-family="CourierNewPS-ItalicMT,Courier New" font-style="italic" font-size="20.0" fill="#0000FF" transform="matrix(1.00, 0.00, -0.00, -1.00, 231.6, 265.4)">n</text><text xml:space="preserve" font-family="CourierNewPS-ItalicMT,Courier New" font-style="italic" font-size="20.0" fill="#0000FF" transform="matrix(1.00, 0.00, -0.00, -1.00, 243.6, 265.4)">F</text><text xml:space="preserve" font-family="CourierNewPS-ItalicMT,Courier New" font-style="italic" font-size="20.0" fill="#0000FF" transform="matrix(1.00, 0.00, -0.00, -1.00, 255.6, 265.4)">l</text><text xml:space="preserve" font-family="CourierNewPS-ItalicMT,Courier New" font-style="italic" font-size="20.0" fill="#0000FF" transform="matrix(1.00, 0.00, -0.00, -1.00, 267.7, 265.4)">y</text><text xml:space="preserve" font-family="CourierNewPS-ItalicMT,Courier New" font-style="italic" font-size="20.0" fill="#0000FF" transform="matrix(1.00, 0.00, -0.00, -1.00, 279.7, 265.4)"> </text><text xml:space="preserve" font-family="CourierNewPS-ItalicMT,Courier New" font-style="italic" font-size="20.0" fill="#0000FF" transform="matrix(1.00, 0.00, -0.00, -1.00, 291.7, 265.4)">=</text><text xml:space="preserve" font-family="CourierNewPS-ItalicMT,Courier New" font-style="italic" font-size="20.0" fill="#0000FF" transform="matrix(1.00, 0.00, -0.00, -1.00, 303.7, 265.4)"> </text><text xml:space="preserve" font-family="CourierNewPS-ItalicMT,Courier New" font-style="italic" font-size="20.0" fill="#0000FF" transform="matrix(1.00, 0.00, -0.00, -1.00, 315.7, 265.4)">f</text><text xml:space="preserve" font-family="CourierNewPS-ItalicMT,Courier New" font-style="italic" font-size="20.0" fill="#0000FF" transform="matrix(1.00, 0.00, -0.00, -1.00, 327.7, 265.4)">a</text><text xml:space="preserve" font-family="CourierNewPS-ItalicMT,Courier New" font-style="italic" font-size="20.0" fill="#0000FF" transform="matrix(1.00, 0.00, -0.00, -1.00, 339.7, 265.4)">l</text><text xml:space="preserve" font-family="CourierNewPS-ItalicMT,Courier New" font-style="italic" font-size="20.0" fill="#0000FF" transform="matrix(1.00, 0.00, -0.00, -1.00, 351.7, 265.4)">s</text><text xml:space="preserve" font-family="CourierNewPS-ItalicMT,Courier New" font-style="italic" font-size="20.0" fill="#0000FF" transform="matrix(1.00, 0.00, -0.00, -1.00, 363.7, 265.4)">e</text><text xml:space="preserve" font-family="CourierNewPS-ItalicMT,Courier New" font-style="italic" font-size="20.0" fill="#0000FF" transform="matrix(1.00, 0.00, -0.00, -1.00, 375.7, 265.4)">;</text><text xml:space="preserve" font-family="CourierNewPS-ItalicMT,Courier New" font-style="italic" font-size="20.0" fill="#0000FF" transform="matrix(1.00, 0.00, -0.00, -1.00, 387.7, 265.4)"> </text><text xml:space="preserve" font-family="Tahoma,Tahoma" font-size="11.0" fill="#7E7E7E" transform="matrix(1.00, 0.00, -0.00, -1.00, 468.7, 502.4)">C</text><text xml:space="preserve" font-family="Tahoma,Tahoma" font-size="11.0" fill="#7E7E7E" transform="matrix(1.00, 0.00, -0.00, -1.00, 475.3, 502.4)">o</text><text xml:space="preserve" font-family="Tahoma,Tahoma" font-size="11.0" fill="#7E7E7E" transform="matrix(1.00, 0.00, -0.00, -1.00, 481.3, 502.4)">p</text><text xml:space="preserve" font-family="Tahoma,Tahoma" font-size="11.0" fill="#7E7E7E" transform="matrix(1.00, 0.00, -0.00, -1.00, 487.4, 502.4)">y</text><text xml:space="preserve" font-family="Tahoma,Tahoma" font-size="11.0" fill="#7E7E7E" transform="matrix(1.00, 0.00, -0.00, -1.00, 492.8, 502.4)">r</text><text xml:space="preserve" font-family="Tahoma,Tahoma" font-size="11.0" fill="#7E7E7E" transform="matrix(1.00, 0.00, -0.00, -1.00, 496.8, 502.4)">i</text><text xml:space="preserve" font-family="Tahoma,Tahoma" font-size="11.0" fill="#7E7E7E" transform="matrix(1.00, 0.00, -0.00, -1.00, 499.3, 502.4)">g</text><text xml:space="preserve" font-family="Tahoma,Tahoma" font-size="11.0" fill="#7E7E7E" transform="matrix(1.00, 0.00, -0.00, -1.00, 505.4, 502.4)">h</text><text xml:space="preserve" font-family="Tahoma,Tahoma" font-size="11.0" fill="#7E7E7E" transform="matrix(1.00, 0.00, -0.00, -1.00, 511.5, 502.4)">t</text><text xml:space="preserve" font-family="Tahoma,Tahoma" font-size="11.0" fill="#7E7E7E" transform="matrix(1.00, 0.00, -0.00, -1.00, 515.2, 502.4)"> </text><text xml:space="preserve" font-family="Tahoma,Tahoma" font-size="11.0" fill="#7E7E7E" transform="matrix(1.00, 0.00, -0.00, -1.00, 518.6, 502.4)">©</text><text xml:space="preserve" font-family="Tahoma,Tahoma" font-size="11.0" fill="#7E7E7E" transform="matrix(1.00, 0.00, -0.00, -1.00, 528.8, 502.4)"> </text><text xml:space="preserve" font-family="Tahoma,Tahoma" font-size="11.0" fill="#7E7E7E" transform="matrix(1.00, 0.00, -0.00, -1.00, 532.3, 502.4)">T</text><text xml:space="preserve" font-family="Tahoma,Tahoma" font-size="11.0" fill="#7E7E7E" transform="matrix(1.00, 0.00, -0.00, -1.00, 537.7, 502.4)">u</text><text xml:space="preserve" font-family="Tahoma,Tahoma" font-size="11.0" fill="#7E7E7E" transform="matrix(1.00, 0.00, -0.00, -1.00, 543.8, 502.4)">a</text><text xml:space="preserve" font-family="Tahoma,Tahoma" font-size="11.0" fill="#7E7E7E" transform="matrix(1.00, 0.00, -0.00, -1.00, 549.6, 502.4)">n</text><text xml:space="preserve" font-family="Tahoma,Tahoma" font-size="11.0" fill="#7E7E7E" transform="matrix(1.00, 0.00, -0.00, -1.00, 555.7, 502.4)"> </text><text xml:space="preserve" font-family="Tahoma,Tahoma" font-size="11.0" fill="#7E7E7E" transform="matrix(1.00, 0.00, -0.00, -1.00, 559.1, 502.4)">T</text><text xml:space="preserve" font-family="Tahoma,Tahoma" font-size="11.0" fill="#7E7E7E" transform="matrix(1.00, 0.00, -0.00, -1.00, 564.5, 502.4)">r</text><text xml:space="preserve" font-family="Tahoma,Tahoma" font-size="11.0" fill="#7E7E7E" transform="matrix(1.00, 0.00, -0.00, -1.00, 568.3, 502.4)">a</text><text xml:space="preserve" font-family="Tahoma,Tahoma" font-size="11.0" fill="#7E7E7E" transform="matrix(1.00, 0.00, -0.00, -1.00, 574.1, 502.4)">n</text><text xml:space="preserve" font-family="Tahoma,Tahoma" font-size="11.0" fill="#7E7E7E" transform="matrix(1.00, 0.00, -0.00, -1.00, 580.2, 502.4)"> </text><text xml:space="preserve" font-family="Tahoma,Tahoma" font-size="11.0" fill="#7E7E7E" transform="matrix(1.00, 0.00, -0.00, -1.00, 583.7, 502.4)">2</text><text xml:space="preserve" font-family="Tahoma,Tahoma" font-size="11.0" fill="#7E7E7E" transform="matrix(1.00, 0.00, -0.00, -1.00, 589.7, 502.4)">0</text><text xml:space="preserve" font-family="Tahoma,Tahoma" font-size="11.0" fill="#7E7E7E" transform="matrix(1.00, 0.00, -0.00, -1.00, 595.7, 502.4)">1</text><text xml:space="preserve" font-family="Tahoma,Tahoma" font-size="11.0" fill="#7E7E7E" transform="matrix(1.00, 0.00, -0.00, -1.00, 601.7, 502.4)">4</text></g></svg>