<?xml version="1.0" encoding="UTF-8" standalone="no"?><svg xmlns="http://www.w3.org/2000/svg" xmlns:xlink="http://www.w3.org/1999/xlink" clip-rule="evenodd" stroke-miterlimit="10" viewBox="0 0 1024 768"><desc>SVG generated by Keynote</desc><defs></defs><g transform="matrix(1.00, 0.00, -0.00, -1.00, 0.0, 768.0)"><g><clipPath id="clip0x7ff6179c1410"><path d="M 0.0 768.0 L 1024.0 768.0 L 1024.0 0.0 L 0.0 0.0 Z M 0.0 768.0 "></path></clipPath><g clip-path="url(#clip0x7ff6179c1410)"><image xlink:href="../../BE4D2DDB-FBE4-467E-AE38-B34F9028D09E/assets/9397CAD6F20342ACC2646ABBCA758461.jpeg" width="2048.00" height="1536.00" transform="matrix(0.50, 0.00, -0.00, -0.50, 0.0, 768.0)"></image></g></g><image xlink:href="../../99C35F40-C8BF-452B-BFD0-8C8D79E868CA/assets/AEC1FA514F77C629F6DAFC97C0B9031F.png" width="783.00" height="145.00" transform="matrix(1.00, 0.00, -0.00, -1.00, 120.8, 454.6)" opacity="0.50"></image><g><clipPath id="clip0x7ff617f320d0"><path d="M 125.0 453.0 L 899.0 453.0 L 899.0 315.0 L 125.0 315.0 Z M 124.8 452.6 "></path></clipPath><g clip-path="url(#clip0x7ff617f320d0)"><image xlink:href="../../99C35F40-C8BF-452B-BFD0-8C8D79E868CA/assets/B825BE3D085405B2E92111833D4ADB9A.png" width="775.00" height="139.00" transform="matrix(1.00, 0.00, -0.00, 1.00, 124.8, 314.6)"></image></g></g><image xlink:href="../../860F66B8-DE07-4E1F-AE8C-17331EE4A157/assets/74A90A8FE32063A396BC3FC43DB5C49F.png" width="26.00" height="32.00" transform="matrix(1.00, 0.00, -0.00, -1.00, 225.0, 398.0)"></image><text xml:space="preserve" font-family="HelveticaNeue-Medium,Helvetica Neue" font-size="40.0" fill="#3B3B3B" transform="matrix(1.00, 0.00, -0.00, -1.00, 225.9, 368.5)">T</text><image xlink:href="../../860F66B8-DE07-4E1F-AE8C-17331EE4A157/assets/239FDF868F9753F9558BE6B1A7B55188.png" width="21.00" height="32.00" transform="matrix(1.00, 0.00, -0.00, -1.00, 251.0, 398.0)"></image><text xml:space="preserve" font-family="HelveticaNeue-Medium,Helvetica Neue" font-size="40.0" fill="#3B3B3B" transform="matrix(1.00, 0.00, -0.00, -1.00, 249.7, 368.5)">h</text><image xlink:href="../../860F66B8-DE07-4E1F-AE8C-17331EE4A157/assets/A556D617439CB6EB282A48C48FC448B7.png" width="24.00" height="25.00" transform="matrix(1.00, 0.00, -0.00, -1.00, 272.0, 390.0)"></image><text xml:space="preserve" font-family="HelveticaNeue-Medium,Helvetica Neue" font-size="40.0" fill="#3B3B3B" transform="matrix(1.00, 0.00, -0.00, -1.00, 272.6, 368.5)">a</text><image xlink:href="../../860F66B8-DE07-4E1F-AE8C-17331EE4A157/assets/21CF009BEBAED432781185626EE66EF8.png" width="15.00" height="30.00" transform="matrix(1.00, 0.00, -0.00, -1.00, 294.0, 396.0)"></image><text xml:space="preserve" font-family="HelveticaNeue-Medium,Helvetica Neue" font-size="40.0" fill="#3B3B3B" transform="matrix(1.00, 0.00, -0.00, -1.00, 294.9, 368.5)">t</text><image xlink:href="../../860F66B8-DE07-4E1F-AE8C-17331EE4A157/assets/01BD900840F1E1664093F358517AE7C4.png" width="8.00" height="15.00" transform="matrix(1.00, 0.00, -0.00, -1.00, 310.0, 398.0)"></image><text xml:space="preserve" font-family="HelveticaNeue-Medium,Helvetica Neue" font-size="40.0" fill="#3B3B3B" transform="matrix(1.00, 0.00, -0.00, -1.00, 308.2, 368.5)">’</text><image xlink:href="../../860F66B8-DE07-4E1F-AE8C-17331EE4A157/assets/B46A3EF6F15171415CC600EDEE0A9A1D.png" width="22.00" height="25.00" transform="matrix(1.00, 0.00, -0.00, -1.00, 316.0, 390.0)"></image><text xml:space="preserve" font-family="HelveticaNeue-Medium,Helvetica Neue" font-size="40.0" fill="#3B3B3B" transform="matrix(1.00, 0.00, -0.00, -1.00, 316.3, 368.5)">s</text><text xml:space="preserve" font-family="HelveticaNeue-Medium,Helvetica Neue" font-size="40.0" fill="#3B3B3B" transform="matrix(1.00, 0.00, -0.00, -1.00, 337.1, 368.5)"> </text><image xlink:href="../../860F66B8-DE07-4E1F-AE8C-17331EE4A157/assets/F170773CA6C7766BF2DE82A3ACA9F095.png" width="24.00" height="25.00" transform="matrix(1.00, 0.00, -0.00, -1.00, 348.0, 390.0)"></image><text xml:space="preserve" font-family="HelveticaNeue-Medium,Helvetica Neue" font-size="40.0" fill="#3B3B3B" transform="matrix(1.00, 0.00, -0.00, -1.00, 348.2, 368.5)">a</text><image xlink:href="../../860F66B8-DE07-4E1F-AE8C-17331EE4A157/assets/B1B4D18BE8207D77CC01A773FCF8AA57.png" width="8.00" height="32.00" transform="matrix(1.00, 0.00, -0.00, -1.00, 371.0, 398.0)"></image><text xml:space="preserve" font-family="HelveticaNeue-Medium,Helvetica Neue" font-size="40.0" fill="#3B3B3B" transform="matrix(1.00, 0.00, -0.00, -1.00, 370.5, 368.5)">l</text><image xlink:href="../../860F66B8-DE07-4E1F-AE8C-17331EE4A157/assets/69448C6DC22BBFA069C9DEE9E4BBF8EB.png" width="8.00" height="32.00" transform="matrix(1.00, 0.00, -0.00, -1.00, 381.0, 398.0)"></image><text xml:space="preserve" font-family="HelveticaNeue-Medium,Helvetica Neue" font-size="40.0" fill="#3B3B3B" transform="matrix(1.00, 0.00, -0.00, -1.00, 380.1, 368.5)">l</text><image xlink:href="../../860F66B8-DE07-4E1F-AE8C-17331EE4A157/assets/EE1D49CEE7A0FD6A223FC51009B658FD.png" width="8.00" height="32.00" transform="matrix(1.00, 0.00, -0.00, -1.00, 391.0, 398.0)"></image><text xml:space="preserve" font-family="HelveticaNeue-Medium,Helvetica Neue" font-size="40.0" fill="#3B3B3B" transform="matrix(1.00, 0.00, -0.00, -1.00, 389.7, 368.5)">!</text><text xml:space="preserve" font-family="HelveticaNeue-Medium,Helvetica Neue" font-size="40.0" fill="#3B3B3B" transform="matrix(1.00, 0.00, -0.00, -1.00, 400.9, 368.5)"> </text><image xlink:href="../../860F66B8-DE07-4E1F-AE8C-17331EE4A157/assets/03C28C745C70B526C0B3C3B777B51265.png" width="26.00" height="32.00" transform="matrix(1.00, 0.00, -0.00, -1.00, 411.0, 398.0)"></image><text xml:space="preserve" font-family="HelveticaNeue-Medium,Helvetica Neue" font-size="40.0" fill="#3B3B3B" transform="matrix(1.00, 0.00, -0.00, -1.00, 412.0, 368.5)">T</text><image xlink:href="../../860F66B8-DE07-4E1F-AE8C-17331EE4A157/assets/FBB069E782D971E6CD7FBFDB7AA4456E.png" width="21.00" height="32.00" transform="matrix(1.00, 0.00, -0.00, -1.00, 437.0, 398.0)"></image><text xml:space="preserve" font-family="HelveticaNeue-Medium,Helvetica Neue" font-size="40.0" fill="#3B3B3B" transform="matrix(1.00, 0.00, -0.00, -1.00, 435.7, 368.5)">h</text><image xlink:href="../../860F66B8-DE07-4E1F-AE8C-17331EE4A157/assets/5956FBD1C0ECF6FD08578C6D52BE8A10.png" width="24.00" height="25.00" transform="matrix(1.00, 0.00, -0.00, -1.00, 458.0, 390.0)"></image><text xml:space="preserve" font-family="HelveticaNeue-Medium,Helvetica Neue" font-size="40.0" fill="#3B3B3B" transform="matrix(1.00, 0.00, -0.00, -1.00, 458.7, 368.5)">a</text><image xlink:href="../../860F66B8-DE07-4E1F-AE8C-17331EE4A157/assets/25CC53C057264EBEBFE440E29682A16E.png" width="21.00" height="24.00" transform="matrix(1.00, 0.00, -0.00, -1.00, 482.0, 390.0)"></image><text xml:space="preserve" font-family="HelveticaNeue-Medium,Helvetica Neue" font-size="40.0" fill="#3B3B3B" transform="matrix(1.00, 0.00, -0.00, -1.00, 480.9, 368.5)">n</text><image xlink:href="../../860F66B8-DE07-4E1F-AE8C-17331EE4A157/assets/0042C994513E3B377E4C0D50AD92C9C3.png" width="22.00" height="32.00" transform="matrix(1.00, 0.00, -0.00, -1.00, 505.0, 398.0)"></image><text xml:space="preserve" font-family="HelveticaNeue-Medium,Helvetica Neue" font-size="40.0" fill="#3B3B3B" transform="matrix(1.00, 0.00, -0.00, -1.00, 503.9, 368.5)">k</text><image xlink:href="../../860F66B8-DE07-4E1F-AE8C-17331EE4A157/assets/B46A3EF6F15171415CC600EDEE0A9A1D.png" width="22.00" height="25.00" transform="matrix(1.00, 0.00, -0.00, -1.00, 525.0, 390.0)"></image><text xml:space="preserve" font-family="HelveticaNeue-Medium,Helvetica Neue" font-size="40.0" fill="#3B3B3B" transform="matrix(1.00, 0.00, -0.00, -1.00, 525.3, 368.5)">s</text><text xml:space="preserve" font-family="HelveticaNeue-Medium,Helvetica Neue" font-size="40.0" fill="#3B3B3B" transform="matrix(1.00, 0.00, -0.00, -1.00, 546.1, 368.5)"> </text><image xlink:href="../../860F66B8-DE07-4E1F-AE8C-17331EE4A157/assets/DB16775D0FAA523F981EB8243745F1DA.png" width="15.00" height="32.00" transform="matrix(1.00, 0.00, -0.00, -1.00, 556.0, 398.0)"></image><text xml:space="preserve" font-family="HelveticaNeue-Medium,Helvetica Neue" font-size="40.0" fill="#3B3B3B" transform="matrix(1.00, 0.00, -0.00, -1.00, 557.2, 368.5)">f</text><image xlink:href="../../860F66B8-DE07-4E1F-AE8C-17331EE4A157/assets/5E52594857FF6EF7ED92A53F507ED2DB.png" width="24.00" height="25.00" transform="matrix(1.00, 0.00, -0.00, -1.00, 570.0, 390.0)"></image><text xml:space="preserve" font-family="HelveticaNeue-Medium,Helvetica Neue" font-size="40.0" fill="#3B3B3B" transform="matrix(1.00, 0.00, -0.00, -1.00, 569.8, 368.5)">o</text><image xlink:href="../../860F66B8-DE07-4E1F-AE8C-17331EE4A157/assets/D884F9B860CD62CEB14A4BC138B8DD52.png" width="16.00" height="24.00" transform="matrix(1.00, 0.00, -0.00, -1.00, 594.0, 390.0)"></image><text xml:space="preserve" font-family="HelveticaNeue-Medium,Helvetica Neue" font-size="40.0" fill="#3B3B3B" transform="matrix(1.00, 0.00, -0.00, -1.00, 593.5, 368.5)">r</text><text xml:space="preserve" font-family="HelveticaNeue-Medium,Helvetica Neue" font-size="40.0" fill="#3B3B3B" transform="matrix(1.00, 0.00, -0.00, -1.00, 607.6, 368.5)"> </text><image xlink:href="../../860F66B8-DE07-4E1F-AE8C-17331EE4A157/assets/D14A5F445E38E30EE36585C4EFA5F72D.png" width="33.00" height="24.00" transform="matrix(1.00, 0.00, -0.00, -1.00, 618.0, 390.0)"></image><text xml:space="preserve" font-family="HelveticaNeue-Medium,Helvetica Neue" font-size="40.0" fill="#3B3B3B" transform="matrix(1.00, 0.00, -0.00, -1.00, 618.7, 368.5)">w</text><image xlink:href="../../860F66B8-DE07-4E1F-AE8C-17331EE4A157/assets/AEF9A07DE10DE886302099F4C49AA5B9.png" width="23.00" height="25.00" transform="matrix(1.00, 0.00, -0.00, -1.00, 650.0, 390.0)"></image><text xml:space="preserve" font-family="HelveticaNeue-Medium,Helvetica Neue" font-size="40.0" fill="#3B3B3B" transform="matrix(1.00, 0.00, -0.00, -1.00, 649.9, 368.5)">a</text><image xlink:href="../../860F66B8-DE07-4E1F-AE8C-17331EE4A157/assets/BF260BFABEABCD501840725CDE7C8959.png" width="15.00" height="30.00" transform="matrix(1.00, 0.00, -0.00, -1.00, 671.0, 396.0)"></image><text xml:space="preserve" font-family="HelveticaNeue-Medium,Helvetica Neue" font-size="40.0" fill="#3B3B3B" transform="matrix(1.00, 0.00, -0.00, -1.00, 672.1, 368.5)">t</text><image xlink:href="../../860F66B8-DE07-4E1F-AE8C-17331EE4A157/assets/1D6E5647B07A7AF2789B6C8583E677DA.png" width="23.00" height="25.00" transform="matrix(1.00, 0.00, -0.00, -1.00, 685.0, 390.0)"></image><text xml:space="preserve" font-family="HelveticaNeue-Medium,Helvetica Neue" font-size="40.0" fill="#3B3B3B" transform="matrix(1.00, 0.00, -0.00, -1.00, 685.4, 368.5)">c</text><image xlink:href="../../860F66B8-DE07-4E1F-AE8C-17331EE4A157/assets/239FDF868F9753F9558BE6B1A7B55188.png" width="21.00" height="32.00" transform="matrix(1.00, 0.00, -0.00, -1.00, 709.0, 398.0)"></image><text xml:space="preserve" font-family="HelveticaNeue-Medium,Helvetica Neue" font-size="40.0" fill="#3B3B3B" transform="matrix(1.00, 0.00, -0.00, -1.00, 707.7, 368.5)">h</text><image xlink:href="../../860F66B8-DE07-4E1F-AE8C-17331EE4A157/assets/F2095EEBE63CD7B4CC76AB65C05F7191.png" width="7.00" height="32.00" transform="matrix(1.00, 0.00, -0.00, -1.00, 732.0, 398.0)"></image><text xml:space="preserve" font-family="HelveticaNeue-Medium,Helvetica Neue" font-size="40.0" fill="#3B3B3B" transform="matrix(1.00, 0.00, -0.00, -1.00, 730.6, 368.5)">i</text><image xlink:href="../../860F66B8-DE07-4E1F-AE8C-17331EE4A157/assets/67930A43AEC6250EC26F0E47378C4B9B.png" width="21.00" height="24.00" transform="matrix(1.00, 0.00, -0.00, -1.00, 741.0, 390.0)"></image><text xml:space="preserve" font-family="HelveticaNeue-Medium,Helvetica Neue" font-size="40.0" fill="#3B3B3B" transform="matrix(1.00, 0.00, -0.00, -1.00, 740.3, 368.5)">n</text><image xlink:href="../../860F66B8-DE07-4E1F-AE8C-17331EE4A157/assets/D45F723740C60541E0D2C9EF5788F964.png" width="23.00" height="32.00" transform="matrix(1.00, 0.00, -0.00, -1.00, 763.0, 390.0)"></image><text xml:space="preserve" font-family="HelveticaNeue-Medium,Helvetica Neue" font-size="40.0" fill="#3B3B3B" transform="matrix(1.00, 0.00, -0.00, -1.00, 763.2, 368.5)">g</text><image xlink:href="../../860F66B8-DE07-4E1F-AE8C-17331EE4A157/assets/03A40B4F652E6E9D7D3E9F68C736C9F7.png" width="9.00" height="32.00" transform="matrix(1.00, 0.00, -0.00, -1.00, 788.0, 398.0)"></image><text xml:space="preserve" font-family="HelveticaNeue-Medium,Helvetica Neue" font-size="40.0" fill="#3B3B3B" transform="matrix(1.00, 0.00, -0.00, -1.00, 786.9, 368.5)">!</text><image xlink:href="../../860F66B8-DE07-4E1F-AE8C-17331EE4A157/assets/7C4CF1357547E96328DF3759868A8150.png" width="33.00" height="37.00" transform="matrix(1.00, 0.00, -0.00, -1.00, 190.0, 230.0)"></image><text xml:space="preserve" font-family="HelveticaNeue-Medium,Helvetica Neue" font-size="38.0" fill="#EAEAEA" transform="matrix(1.00, 0.00, -0.00, -1.00, 192.7, 199.8)">C</text><image xlink:href="../../860F66B8-DE07-4E1F-AE8C-17331EE4A157/assets/99B2A85EB93517DA1A8949A5426EAC3B.png" width="13.00" height="36.00" transform="matrix(1.00, 0.00, -0.00, -1.00, 218.0, 229.0)"></image><text xml:space="preserve" font-family="HelveticaNeue-Medium,Helvetica Neue" font-size="38.0" fill="#EAEAEA" transform="matrix(1.00, 0.00, -0.00, -1.00, 220.2, 199.8)">l</text><image xlink:href="../../860F66B8-DE07-4E1F-AE8C-17331EE4A157/assets/C94DC4D1FC00051F2C654740D4B13C62.png" width="14.00" height="36.00" transform="matrix(1.00, 0.00, -0.00, -1.00, 227.0, 229.0)"></image><text xml:space="preserve" font-family="HelveticaNeue-Medium,Helvetica Neue" font-size="38.0" fill="#EAEAEA" transform="matrix(1.00, 0.00, -0.00, -1.00, 229.3, 199.8)">i</text><image xlink:href="../../860F66B8-DE07-4E1F-AE8C-17331EE4A157/assets/35D8C926FDCB69CB0A47EE2980C6A737.png" width="28.00" height="29.00" transform="matrix(1.00, 0.00, -0.00, -1.00, 235.0, 222.0)"></image><text xml:space="preserve" font-family="HelveticaNeue-Medium,Helvetica Neue" font-size="38.0" fill="#EAEAEA" transform="matrix(1.00, 0.00, -0.00, -1.00, 238.5, 199.8)">c</text><image xlink:href="../../860F66B8-DE07-4E1F-AE8C-17331EE4A157/assets/DB131AF6E3A41BA3371E3699BC4FFE9D.png" width="28.00" height="36.00" transform="matrix(1.00, 0.00, -0.00, -1.00, 257.0, 229.0)"></image><text xml:space="preserve" font-family="HelveticaNeue-Medium,Helvetica Neue" font-size="38.0" fill="#EAEAEA" transform="matrix(1.00, 0.00, -0.00, -1.00, 259.6, 199.8)">k</text><text xml:space="preserve" font-family="HelveticaNeue-Medium,Helvetica Neue" font-size="38.0" fill="#EAEAEA" transform="matrix(1.00, 0.00, -0.00, -1.00, 280.0, 199.8)"> </text><g><clipPath id="clip0x7ff617f837b0"><path d="M 289.6 195.0 L 290.6 195.0 L 290.6 198.9 L 289.6 198.9 Z M 289.6 195.0 "></path></clipPath><g clip-path="url(#clip0x7ff617f837b0)"><path d="M 102.4 43.5 L 179.1 43.5 " fill="none" stroke="#ECAC0F" stroke-width="1.90" transform="matrix(1.00, 0.00, 0.00, -1.00, 188.2, 240.4)"></path></g></g><image xlink:href="../../860F66B8-DE07-4E1F-AE8C-17331EE4A157/assets/AE59A72B33421F181C507D638CA42B13.png" width="27.00" height="36.00" transform="matrix(1.00, 0.00, -0.00, -1.00, 288.0, 229.0)"></image><text xml:space="preserve" font-family="HelveticaNeue-Medium,Helvetica Neue" font-size="38.0" fill="#ECAC0F" transform="matrix(1.00, 0.00, -0.00, -1.00, 290.6, 199.8)">h</text><g><clipPath id="clip0x7ff617f86ad0"><path d="M 289.6 195.0 L 312.4 195.0 L 312.4 198.9 L 289.6 198.9 Z M 289.6 195.0 "></path></clipPath><g clip-path="url(#clip0x7ff617f86ad0)"><path d="M 102.4 43.5 L 179.1 43.5 " fill="none" stroke="#ECAC0F" stroke-width="1.90" transform="matrix(1.00, 0.00, 0.00, -1.00, 188.2, 240.4)"></path></g></g><image xlink:href="../../860F66B8-DE07-4E1F-AE8C-17331EE4A157/assets/B1FB65F6A06FBCF673F57499BE8860DB.png" width="28.00" height="29.00" transform="matrix(1.00, 0.00, -0.00, -1.00, 309.0, 222.0)"></image><text xml:space="preserve" font-family="HelveticaNeue-Medium,Helvetica Neue" font-size="38.0" fill="#ECAC0F" transform="matrix(1.00, 0.00, -0.00, -1.00, 312.4, 199.8)">e</text><g><clipPath id="clip0x7ff617f89e00"><path d="M 311.4 195.0 L 333.5 195.0 L 333.5 198.9 L 311.4 198.9 Z M 311.4 195.0 "></path></clipPath><g clip-path="url(#clip0x7ff617f89e00)"><path d="M 102.4 43.5 L 179.1 43.5 " fill="none" stroke="#ECAC0F" stroke-width="1.90" transform="matrix(1.00, 0.00, 0.00, -1.00, 188.2, 240.4)"></path></g></g><image xlink:href="../../860F66B8-DE07-4E1F-AE8C-17331EE4A157/assets/2C21B6687CF043462DF49889B6440E26.png" width="21.00" height="29.00" transform="matrix(1.00, 0.00, -0.00, -1.00, 331.0, 222.0)"></image><text xml:space="preserve" font-family="HelveticaNeue-Medium,Helvetica Neue" font-size="38.0" fill="#ECAC0F" transform="matrix(1.00, 0.00, -0.00, -1.00, 333.5, 199.8)">r</text><g><clipPath id="clip0x7ff617f8d4c0"><path d="M 332.5 195.0 L 346.2 195.0 L 346.2 198.9 L 332.5 198.9 Z M 332.5 195.0 "></path></clipPath><g clip-path="url(#clip0x7ff617f8d4c0)"><path d="M 102.4 43.5 L 179.1 43.5 " fill="none" stroke="#ECAC0F" stroke-width="1.90" transform="matrix(1.00, 0.00, 0.00, -1.00, 188.2, 240.4)"></path></g></g><image xlink:href="../../860F66B8-DE07-4E1F-AE8C-17331EE4A157/assets/7085BBCD26441F53E9A6987DE2950ACC.png" width="28.00" height="29.00" transform="matrix(1.00, 0.00, -0.00, -1.00, 343.0, 222.0)"></image><text xml:space="preserve" font-family="HelveticaNeue-Medium,Helvetica Neue" font-size="38.0" fill="#ECAC0F" transform="matrix(1.00, 0.00, -0.00, -1.00, 346.2, 199.8)">e</text><g><clipPath id="clip0x7ff617f907f0"><path d="M 345.2 195.0 L 367.3 195.0 L 367.3 198.9 L 345.2 198.9 Z M 345.2 195.0 "></path></clipPath><g clip-path="url(#clip0x7ff617f907f0)"><path d="M 102.4 43.5 L 179.1 43.5 " fill="none" stroke="#ECAC0F" stroke-width="1.90" transform="matrix(1.00, 0.00, 0.00, -1.00, 188.2, 240.4)"></path></g></g><text xml:space="preserve" font-family="HelveticaNeue-Medium,Helvetica Neue" font-size="38.0" fill="#EAEAEA" transform="matrix(1.00, 0.00, -0.00, -1.00, 367.3, 199.8)"> </text><g><clipPath id="clip0x7ff617f92430"><path d="M 366.3 195.0 L 367.3 195.0 L 367.3 198.9 L 366.3 198.9 Z M 366.3 195.0 "></path></clipPath><g clip-path="url(#clip0x7ff617f92430)"><path d="M 102.4 43.5 L 179.1 43.5 " fill="none" stroke="#ECAC0F" stroke-width="1.90" transform="matrix(1.00, 0.00, 0.00, -1.00, 188.2, 240.4)"></path></g></g><image xlink:href="../../860F66B8-DE07-4E1F-AE8C-17331EE4A157/assets/5E05076CAC99345C36F3CA52F2072601.png" width="20.00" height="35.00" transform="matrix(1.00, 0.00, -0.00, -1.00, 374.0, 228.0)"></image><text xml:space="preserve" font-family="HelveticaNeue-Medium,Helvetica Neue" font-size="38.0" fill="#EAEAEA" transform="matrix(1.00, 0.00, -0.00, -1.00, 377.9, 199.8)">t</text><image xlink:href="../../860F66B8-DE07-4E1F-AE8C-17331EE4A157/assets/B626BB4B56DC6D3CE5BECFE8BDB7EBB9.png" width="29.00" height="29.00" transform="matrix(1.00, 0.00, -0.00, -1.00, 387.0, 222.0)"></image><text xml:space="preserve" font-family="HelveticaNeue-Medium,Helvetica Neue" font-size="38.0" fill="#EAEAEA" transform="matrix(1.00, 0.00, -0.00, -1.00, 390.6, 199.8)">o</text><text xml:space="preserve" font-family="HelveticaNeue-Medium,Helvetica Neue" font-size="38.0" fill="#EAEAEA" transform="matrix(1.00, 0.00, -0.00, -1.00, 413.1, 199.8)"> </text><image xlink:href="../../860F66B8-DE07-4E1F-AE8C-17331EE4A157/assets/AA3BB737C815D31C8CC46ABD6A9596A1.png" width="21.00" height="29.00" transform="matrix(1.00, 0.00, -0.00, -1.00, 421.0, 222.0)"></image><text xml:space="preserve" font-family="HelveticaNeue-Medium,Helvetica Neue" font-size="38.0" fill="#EAEAEA" transform="matrix(1.00, 0.00, -0.00, -1.00, 423.7, 199.8)">r</text><image xlink:href="../../860F66B8-DE07-4E1F-AE8C-17331EE4A157/assets/90791FC2F57BA61165C653AC9725C539.png" width="28.00" height="29.00" transform="matrix(1.00, 0.00, -0.00, -1.00, 433.0, 222.0)"></image><text xml:space="preserve" font-family="HelveticaNeue-Medium,Helvetica Neue" font-size="38.0" fill="#EAEAEA" transform="matrix(1.00, 0.00, -0.00, -1.00, 436.3, 199.8)">e</text><image xlink:href="../../860F66B8-DE07-4E1F-AE8C-17331EE4A157/assets/1A93286A003C80BB6C91BBF68B9E56A6.png" width="21.00" height="35.00" transform="matrix(1.00, 0.00, -0.00, -1.00, 453.0, 228.0)"></image><text xml:space="preserve" font-family="HelveticaNeue-Medium,Helvetica Neue" font-size="38.0" fill="#EAEAEA" transform="matrix(1.00, 0.00, -0.00, -1.00, 457.5, 199.8)">t</text><image xlink:href="../../860F66B8-DE07-4E1F-AE8C-17331EE4A157/assets/26CE90D39D61F2174460587FCEE0C9CB.png" width="26.00" height="29.00" transform="matrix(1.00, 0.00, -0.00, -1.00, 468.0, 222.0)"></image><text xml:space="preserve" font-family="HelveticaNeue-Medium,Helvetica Neue" font-size="38.0" fill="#EAEAEA" transform="matrix(1.00, 0.00, -0.00, -1.00, 470.1, 199.8)">u</text><image xlink:href="../../860F66B8-DE07-4E1F-AE8C-17331EE4A157/assets/0146A6D3F05F8283BA09C41D984CCC35.png" width="20.00" height="29.00" transform="matrix(1.00, 0.00, -0.00, -1.00, 490.0, 222.0)"></image><text xml:space="preserve" font-family="HelveticaNeue-Medium,Helvetica Neue" font-size="38.0" fill="#EAEAEA" transform="matrix(1.00, 0.00, -0.00, -1.00, 491.9, 199.8)">r</text><image xlink:href="../../860F66B8-DE07-4E1F-AE8C-17331EE4A157/assets/F258534E66BB9776D2335AF4F46B719A.png" width="26.00" height="29.00" transform="matrix(1.00, 0.00, -0.00, -1.00, 504.0, 222.0)"></image><text xml:space="preserve" font-family="HelveticaNeue-Medium,Helvetica Neue" font-size="38.0" fill="#EAEAEA" transform="matrix(1.00, 0.00, -0.00, -1.00, 506.0, 199.8)">n</text><text xml:space="preserve" font-family="HelveticaNeue-Medium,Helvetica Neue" font-size="38.0" fill="#EAEAEA" transform="matrix(1.00, 0.00, -0.00, -1.00, 527.8, 199.8)"> </text><image xlink:href="../../860F66B8-DE07-4E1F-AE8C-17331EE4A157/assets/9E8A9D9D7EEEF93587B40DE535291AA8.png" width="21.00" height="35.00" transform="matrix(1.00, 0.00, -0.00, -1.00, 534.0, 228.0)"></image><text xml:space="preserve" font-family="HelveticaNeue-Medium,Helvetica Neue" font-size="38.0" fill="#EAEAEA" transform="matrix(1.00, 0.00, -0.00, -1.00, 538.4, 199.8)">t</text><image xlink:href="../../860F66B8-DE07-4E1F-AE8C-17331EE4A157/assets/9FF73DA0F4CA23CABA7C34CC02F4B9DE.png" width="29.00" height="29.00" transform="matrix(1.00, 0.00, -0.00, -1.00, 548.0, 222.0)"></image><text xml:space="preserve" font-family="HelveticaNeue-Medium,Helvetica Neue" font-size="38.0" fill="#EAEAEA" transform="matrix(1.00, 0.00, -0.00, -1.00, 551.0, 199.8)">o</text><text xml:space="preserve" font-family="HelveticaNeue-Medium,Helvetica Neue" font-size="38.0" fill="#EAEAEA" transform="matrix(1.00, 0.00, -0.00, -1.00, 573.6, 199.8)"> </text><image xlink:href="../../860F66B8-DE07-4E1F-AE8C-17331EE4A157/assets/85CB8BDE953F77F73C9EA26C4229EC09.png" width="31.00" height="36.00" transform="matrix(1.00, 0.00, -0.00, -1.00, 580.0, 229.0)"></image><text xml:space="preserve" font-family="HelveticaNeue-Medium,Helvetica Neue" font-size="38.0" fill="#EAEAEA" transform="matrix(1.00, 0.00, -0.00, -1.00, 584.1, 199.8)">T</text><image xlink:href="../../860F66B8-DE07-4E1F-AE8C-17331EE4A157/assets/F213F0F3612401D6B43033E964673355.png" width="26.00" height="29.00" transform="matrix(1.00, 0.00, -0.00, -1.00, 601.0, 222.0)"></image><text xml:space="preserve" font-family="HelveticaNeue-Medium,Helvetica Neue" font-size="38.0" fill="#EAEAEA" transform="matrix(1.00, 0.00, -0.00, -1.00, 603.2, 199.8)">u</text><image xlink:href="../../860F66B8-DE07-4E1F-AE8C-17331EE4A157/assets/0BD7F3674E9B2D889102C7A7ACEBE505.png" width="20.00" height="35.00" transform="matrix(1.00, 0.00, -0.00, -1.00, 621.0, 228.0)"></image><text xml:space="preserve" font-family="HelveticaNeue-Medium,Helvetica Neue" font-size="38.0" fill="#EAEAEA" transform="matrix(1.00, 0.00, -0.00, -1.00, 625.0, 199.8)">t</text><image xlink:href="../../860F66B8-DE07-4E1F-AE8C-17331EE4A157/assets/7349F81850A27DC9F555E03B988B61F7.png" width="29.00" height="29.00" transform="matrix(1.00, 0.00, -0.00, -1.00, 634.0, 222.0)"></image><text xml:space="preserve" font-family="HelveticaNeue-Medium,Helvetica Neue" font-size="38.0" fill="#EAEAEA" transform="matrix(1.00, 0.00, -0.00, -1.00, 637.6, 199.8)">o</text><image xlink:href="../../860F66B8-DE07-4E1F-AE8C-17331EE4A157/assets/A50FBAE5AE437132A489663655CFE111.png" width="20.00" height="29.00" transform="matrix(1.00, 0.00, -0.00, -1.00, 658.0, 222.0)"></image><text xml:space="preserve" font-family="HelveticaNeue-Medium,Helvetica Neue" font-size="38.0" fill="#EAEAEA" transform="matrix(1.00, 0.00, -0.00, -1.00, 660.2, 199.8)">r</text><image xlink:href="../../860F66B8-DE07-4E1F-AE8C-17331EE4A157/assets/A26B1A7164BB8D5A8E348F217CF9B6F2.png" width="14.00" height="36.00" transform="matrix(1.00, 0.00, -0.00, -1.00, 671.0, 229.0)"></image><text xml:space="preserve" font-family="HelveticaNeue-Medium,Helvetica Neue" font-size="38.0" fill="#EAEAEA" transform="matrix(1.00, 0.00, -0.00, -1.00, 673.5, 199.8)">i</text><image xlink:href="../../860F66B8-DE07-4E1F-AE8C-17331EE4A157/assets/361992910F629841D438BB9D07F12BE9.png" width="29.00" height="29.00" transform="matrix(1.00, 0.00, -0.00, -1.00, 679.0, 222.0)"></image><text xml:space="preserve" font-family="HelveticaNeue-Medium,Helvetica Neue" font-size="38.0" fill="#EAEAEA" transform="matrix(1.00, 0.00, -0.00, -1.00, 682.7, 199.8)">a</text><image xlink:href="../../860F66B8-DE07-4E1F-AE8C-17331EE4A157/assets/8CCAF85661B7A0A52DB252DAC1AE7CFB.png" width="13.00" height="36.00" transform="matrix(1.00, 0.00, -0.00, -1.00, 702.0, 229.0)"></image><text xml:space="preserve" font-family="HelveticaNeue-Medium,Helvetica Neue" font-size="38.0" fill="#EAEAEA" transform="matrix(1.00, 0.00, -0.00, -1.00, 703.8, 199.8)">l</text><image xlink:href="../../860F66B8-DE07-4E1F-AE8C-17331EE4A157/assets/7ED217A9048865754BFF85D0EA8C9E65.png" width="26.00" height="29.00" transform="matrix(1.00, 0.00, -0.00, -1.00, 710.0, 222.0)"></image><text xml:space="preserve" font-family="HelveticaNeue-Medium,Helvetica Neue" font-size="38.0" fill="#EAEAEA" transform="matrix(1.00, 0.00, -0.00, -1.00, 713.0, 199.8)">s</text><text xml:space="preserve" font-family="HelveticaNeue-Medium,Helvetica Neue" font-size="38.0" fill="#EAEAEA" transform="matrix(1.00, 0.00, -0.00, -1.00, 732.7, 199.8)"> </text><image xlink:href="../../860F66B8-DE07-4E1F-AE8C-17331EE4A157/assets/3C135E680F7B7BA2EB0E56E9BFA37A76.png" width="29.00" height="36.00" transform="matrix(1.00, 0.00, -0.00, -1.00, 741.0, 222.0)"></image><text xml:space="preserve" font-family="HelveticaNeue-Medium,Helvetica Neue" font-size="38.0" fill="#EAEAEA" transform="matrix(1.00, 0.00, -0.00, -1.00, 743.3, 199.8)">p</text><image xlink:href="../../860F66B8-DE07-4E1F-AE8C-17331EE4A157/assets/D62ADBD0FB5E663D3F65A2770CF1A2C6.png" width="29.00" height="29.00" transform="matrix(1.00, 0.00, -0.00, -1.00, 763.0, 222.0)"></image><text xml:space="preserve" font-family="HelveticaNeue-Medium,Helvetica Neue" font-size="38.0" fill="#EAEAEA" transform="matrix(1.00, 0.00, -0.00, -1.00, 766.5, 199.8)">a</text><image xlink:href="../../860F66B8-DE07-4E1F-AE8C-17331EE4A157/assets/146520913E81EBEEA25EC4D8B78EBA1F.png" width="29.00" height="36.00" transform="matrix(1.00, 0.00, -0.00, -1.00, 784.0, 222.0)"></image><text xml:space="preserve" font-family="HelveticaNeue-Medium,Helvetica Neue" font-size="38.0" fill="#EAEAEA" transform="matrix(1.00, 0.00, -0.00, -1.00, 787.6, 199.8)">g</text><image xlink:href="../../860F66B8-DE07-4E1F-AE8C-17331EE4A157/assets/E0BDC0FDAD6F587786E8D7F14A15BF4F.png" width="28.00" height="29.00" transform="matrix(1.00, 0.00, -0.00, -1.00, 807.0, 222.0)"></image><text xml:space="preserve" font-family="HelveticaNeue-Medium,Helvetica Neue" font-size="38.0" fill="#EAEAEA" transform="matrix(1.00, 0.00, -0.00, -1.00, 810.1, 199.8)">e</text></g></svg>