<?xml version="1.0" encoding="UTF-8" standalone="no"?><svg xmlns="http://www.w3.org/2000/svg" xmlns:xlink="http://www.w3.org/1999/xlink" clip-rule="evenodd" stroke-miterlimit="10" viewBox="0 0 826 45"><desc>SVG generated by Keynote</desc><defs></defs><g transform="matrix(1.00, 0.00, -0.00, -1.00, 0.0, 45.0)"><g><g><clipPath id="clip0x7ff612170ce0"><path d="M 1.1 43.7 L 392.9 43.7 L 392.9 1.2 L 1.1 1.2 Z M 1.1 43.7 "></path></clipPath><g clip-path="url(#clip0x7ff612170ce0)"><g><clipPath id="clip0x7ff61217e930"><path d="M 0.0 0.0 L 826.0 0.0 L 826.0 45.0 L 0.0 45.0 Z M 0.0 0.0 "></path></clipPath><g clip-path="url(#clip0x7ff61217e930)"><g><g><clipPath id="clip0x7ff612105aa0"><path d="M 1.0 1.0 L 393.0 1.0 L 393.0 44.0 L 1.0 44.0 Z M 1.0 1.0 "></path></clipPath><g clip-path="url(#clip0x7ff612105aa0)"><path d="M 1.1 42.7 L 392.6 42.7 L 392.6 1.5 L 1.1 1.5 Z M 1.1 42.7 " fill="#000000" fill-opacity="0.10"></path><path d="M 392.6 42.7 L 824.9 42.7 L 824.9 1.5 L 392.6 1.5 Z M 392.6 42.7 " fill="#000000" fill-opacity="0.10"></path><path d="M 1.1 1.5 L 392.6 1.5 L 392.6 -39.0 L 1.1 -39.0 Z M 1.1 1.5 " fill="#000000" fill-opacity="0.10"></path><path d="M 392.6 1.5 L 824.9 1.5 L 824.9 -39.0 L 392.6 -39.0 Z M 392.6 1.5 " fill="#000000" fill-opacity="0.10"></path></g></g></g></g></g></g></g><image xlink:href="695EC752D77851F1A8F1AE595929B558.png" width="62.00" height="25.00" transform="matrix(1.00, 0.00, -0.00, -1.00, 32.0, 32.0)"></image><g><clipPath id="clip0x7ff611e1aa80"><path d="M 1.1 43.7 L 392.9 43.7 L 392.9 1.2 L 1.1 1.2 Z M 1.1 43.7 "></path></clipPath><g clip-path="url(#clip0x7ff611e1aa80)"><g><clipPath id="clip0x7ff611e19200"><path d="M 1.1 1.7 L 392.4 1.7 L 392.4 41.7 L 1.1 41.7 Z M 1.1 1.7 "></path></clipPath><g clip-path="url(#clip0x7ff611e19200)"><text xml:space="preserve" font-family="HelveticaNeue,Helvetica Neue" font-size="26.0" fill="#609AE2" transform="matrix(1.00, 0.00, -0.00, -1.00, 34.0, 12.0)">C</text><text xml:space="preserve" font-family="HelveticaNeue,Helvetica Neue" font-size="26.0" fill="#609AE2" transform="matrix(1.00, 0.00, -0.00, -1.00, 52.8, 12.0)">l</text><text xml:space="preserve" font-family="HelveticaNeue,Helvetica Neue" font-size="26.0" fill="#609AE2" transform="matrix(1.00, 0.00, -0.00, -1.00, 58.5, 12.0)">i</text><text xml:space="preserve" font-family="HelveticaNeue,Helvetica Neue" font-size="26.0" fill="#609AE2" transform="matrix(1.00, 0.00, -0.00, -1.00, 64.3, 12.0)">c</text><text xml:space="preserve" font-family="HelveticaNeue,Helvetica Neue" font-size="26.0" fill="#609AE2" transform="matrix(1.00, 0.00, -0.00, -1.00, 78.3, 12.0)">k</text></g></g></g></g><g><clipPath id="clip0x7ff6133dfbe0"><path d="M 1.1 43.7 L 392.9 43.7 L 392.9 1.2 L 1.1 1.2 Z M 1.1 43.7 "></path></clipPath><g clip-path="url(#clip0x7ff6133dfbe0)"><g><clipPath id="clip0x7ff6133e0310"><path d="M 0.0 0.0 L 826.0 0.0 L 826.0 45.0 L 0.0 45.0 Z M 0.0 0.0 "></path></clipPath><g clip-path="url(#clip0x7ff6133e0310)"><path d="M 392.5 37.3 L 392.5 120.1 " fill="none" stroke="#F7F7F7" stroke-width="0.50" transform="matrix(1.00, 0.00, 0.00, -1.00, 0.1, 81.0)"></path><path d="M 1.0 79.6 L 824.7 79.6 " fill="none" stroke="#F7F7F7" stroke-width="0.50" transform="matrix(1.00, 0.00, 0.00, -1.00, 0.1, 81.0)"></path><path d="M 1.0 38.3 L 824.7 38.3 " fill="none" stroke="#EFEFEF" stroke-width="2.00" transform="matrix(1.00, 0.00, 0.00, -1.00, 0.1, 81.0)"></path></g></g></g></g><g><clipPath id="clip0x7ff6133e2370"><path d="M 392.4 43.7 L 824.9 43.7 L 824.9 1.2 L 392.4 1.2 Z M 392.4 43.7 "></path></clipPath><g clip-path="url(#clip0x7ff6133e2370)"><g><clipPath id="clip0x7ff6133e2aa0"><path d="M 0.0 0.0 L 826.0 0.0 L 826.0 45.0 L 0.0 45.0 Z M 0.0 0.0 "></path></clipPath><g clip-path="url(#clip0x7ff6133e2aa0)"><g><g><clipPath id="clip0x7ff6133e4420"><path d="M 392.0 1.0 L 825.0 1.0 L 825.0 44.0 L 392.0 44.0 Z M 392.0 1.0 "></path></clipPath><g clip-path="url(#clip0x7ff6133e4420)"><path d="M 1.1 42.7 L 392.6 42.7 L 392.6 1.5 L 1.1 1.5 Z M 1.1 42.7 " fill="#000000" fill-opacity="0.10"></path><path d="M 392.6 42.7 L 824.9 42.7 L 824.9 1.5 L 392.6 1.5 Z M 392.6 42.7 " fill="#000000" fill-opacity="0.10"></path><path d="M 1.1 1.5 L 392.6 1.5 L 392.6 -39.0 L 1.1 -39.0 Z M 1.1 1.5 " fill="#000000" fill-opacity="0.10"></path><path d="M 392.6 1.5 L 824.9 1.5 L 824.9 -39.0 L 392.6 -39.0 Z M 392.6 1.5 " fill="#000000" fill-opacity="0.10"></path></g></g></g></g></g></g></g><g><clipPath id="clip0x7ff6133e3a50"><path d="M 392.4 43.7 L 824.9 43.7 L 824.9 1.2 L 392.4 1.2 Z M 392.4 43.7 "></path></clipPath><g clip-path="url(#clip0x7ff6133e3a50)"><g><clipPath id="clip0x7ff6133e6440"><path d="M 0.0 0.0 L 826.0 0.0 L 826.0 45.0 L 0.0 45.0 Z M 0.0 0.0 "></path></clipPath><g clip-path="url(#clip0x7ff6133e6440)"><path d="M 392.5 37.3 L 392.5 120.1 " fill="none" stroke="#F7F7F7" stroke-width="0.50" transform="matrix(1.00, 0.00, 0.00, -1.00, 0.1, 81.0)"></path><path d="M 1.0 79.6 L 824.7 79.6 " fill="none" stroke="#F7F7F7" stroke-width="0.50" transform="matrix(1.00, 0.00, 0.00, -1.00, 0.1, 81.0)"></path><path d="M 1.0 38.3 L 824.7 38.3 " fill="none" stroke="#EFEFEF" stroke-width="2.00" transform="matrix(1.00, 0.00, 0.00, -1.00, 0.1, 81.0)"></path></g></g></g></g></g></g></svg>