<?xml version="1.0" encoding="UTF-8" standalone="no"?><svg xmlns="http://www.w3.org/2000/svg" xmlns:xlink="http://www.w3.org/1999/xlink" clip-rule="evenodd" stroke-miterlimit="10" viewBox="0 0 826 43"><desc>SVG generated by Keynote</desc><defs></defs><g transform="matrix(1.00, 0.00, -0.00, -1.00, 0.0, 43.0)"><g><g><clipPath id="clip0x7ff61331ed50"><path d="M 1.1 42.2 L 392.9 42.2 L 392.9 1.2 L 1.1 1.2 Z M 1.1 42.2 "></path></clipPath><g clip-path="url(#clip0x7ff61331ed50)"><g><clipPath id="clip0x7ff61332cb40"><path d="M 0.0 0.0 L 826.0 0.0 L 826.0 43.0 L 0.0 43.0 Z M 0.0 0.0 "></path></clipPath><g clip-path="url(#clip0x7ff61332cb40)"><g><g><clipPath id="clip0x7ff613326f10"><path d="M 1.0 1.0 L 393.0 1.0 L 393.0 43.0 L 1.0 43.0 Z M 1.0 1.0 "></path></clipPath><g clip-path="url(#clip0x7ff613326f10)"><path d="M 1.1 82.5 L 392.6 82.5 L 392.6 42.0 L 1.1 42.0 Z M 1.1 82.5 " fill="#000000" fill-opacity="0.10"></path><path d="M 392.6 82.5 L 824.9 82.5 L 824.9 42.0 L 392.6 42.0 Z M 392.6 82.5 " fill="#000000" fill-opacity="0.10"></path><path d="M 1.1 42.0 L 392.6 42.0 L 392.6 1.5 L 1.1 1.5 Z M 1.1 42.0 " fill="#000000" fill-opacity="0.10"></path><path d="M 392.6 42.0 L 824.9 42.0 L 824.9 1.5 L 392.6 1.5 Z M 392.6 42.0 " fill="#000000" fill-opacity="0.10"></path><path d="M 1.1 1.5 L 392.6 1.5 L 392.6 -39.0 L 1.1 -39.0 Z M 1.1 1.5 " fill="#000000" fill-opacity="0.10"></path><path d="M 392.6 1.5 L 824.9 1.5 L 824.9 -39.0 L 392.6 -39.0 Z M 392.6 1.5 " fill="#000000" fill-opacity="0.10"></path></g></g></g></g></g></g></g><g><clipPath id="clip0x7ff613327b40"><path d="M 1.1 42.2 L 392.9 42.2 L 392.9 1.2 L 1.1 1.2 Z M 1.1 42.2 "></path></clipPath><g clip-path="url(#clip0x7ff613327b40)"><g><clipPath id="clip0x7ff6133223e0"><path d="M 0.0 0.0 L 826.0 0.0 L 826.0 43.0 L 0.0 43.0 Z M 0.0 0.0 "></path></clipPath><g clip-path="url(#clip0x7ff6133223e0)"><path d="M 392.5 79.6 L 392.5 201.1 " fill="none" stroke="#F7F7F7" stroke-width="0.50" transform="matrix(1.00, 0.00, 0.00, -1.00, 0.1, 162.0)"></path><path d="M 1.0 120.1 L 824.7 120.1 " fill="none" stroke="#F7F7F7" stroke-width="0.50" transform="matrix(1.00, 0.00, 0.00, -1.00, 0.1, 162.0)"></path><path d="M 1.0 160.6 L 824.7 160.6 " fill="none" stroke="#F7F7F7" stroke-width="0.50" transform="matrix(1.00, 0.00, 0.00, -1.00, 0.1, 162.0)"></path></g></g></g></g><g><clipPath id="clip0x7ff61332f7e0"><path d="M 392.4 42.2 L 824.9 42.2 L 824.9 1.2 L 392.4 1.2 Z M 392.4 42.2 "></path></clipPath><g clip-path="url(#clip0x7ff61332f7e0)"><g><clipPath id="clip0x7ff61332ff10"><path d="M 0.0 0.0 L 826.0 0.0 L 826.0 43.0 L 0.0 43.0 Z M 0.0 0.0 "></path></clipPath><g clip-path="url(#clip0x7ff61332ff10)"><g><g><clipPath id="clip0x7ff6133318c0"><path d="M 392.0 1.0 L 825.0 1.0 L 825.0 43.0 L 392.0 43.0 Z M 392.0 1.0 "></path></clipPath><g clip-path="url(#clip0x7ff6133318c0)"><path d="M 1.1 82.5 L 392.6 82.5 L 392.6 42.0 L 1.1 42.0 Z M 1.1 82.5 " fill="#000000" fill-opacity="0.10"></path><path d="M 392.6 82.5 L 824.9 82.5 L 824.9 42.0 L 392.6 42.0 Z M 392.6 82.5 " fill="#000000" fill-opacity="0.10"></path><path d="M 1.1 42.0 L 392.6 42.0 L 392.6 1.5 L 1.1 1.5 Z M 1.1 42.0 " fill="#000000" fill-opacity="0.10"></path><path d="M 392.6 42.0 L 824.9 42.0 L 824.9 1.5 L 392.6 1.5 Z M 392.6 42.0 " fill="#000000" fill-opacity="0.10"></path><path d="M 1.1 1.5 L 392.6 1.5 L 392.6 -39.0 L 1.1 -39.0 Z M 1.1 1.5 " fill="#000000" fill-opacity="0.10"></path><path d="M 392.6 1.5 L 824.9 1.5 L 824.9 -39.0 L 392.6 -39.0 Z M 392.6 1.5 " fill="#000000" fill-opacity="0.10"></path></g></g></g></g></g></g></g><image xlink:href="E261C725B3F2D3ED309BD73ABC17ADBB.png" width="137.00" height="30.00" transform="matrix(1.00, 0.00, -0.00, -1.00, 434.0, 32.0)"></image><g><clipPath id="clip0x7ff611e3f140"><path d="M 392.4 42.2 L 824.9 42.2 L 824.9 1.2 L 392.4 1.2 Z M 392.4 42.2 "></path></clipPath><g clip-path="url(#clip0x7ff611e3f140)"><g><clipPath id="clip0x7ff611e2a010"><path d="M 392.9 1.7 L 824.9 1.7 L 824.9 41.7 L 392.9 41.7 Z M 392.9 1.7 "></path></clipPath><g clip-path="url(#clip0x7ff611e2a010)"><text xml:space="preserve" font-family="HelveticaNeue,Helvetica Neue" font-size="26.0" fill="#28C439" transform="matrix(1.00, 0.00, -0.00, -1.00, 434.3, 12.0)">D</text><text xml:space="preserve" font-family="HelveticaNeue,Helvetica Neue" font-size="26.0" fill="#28C439" transform="matrix(1.00, 0.00, -0.00, -1.00, 452.6, 12.0)">i</text><text xml:space="preserve" font-family="HelveticaNeue,Helvetica Neue" font-size="26.0" fill="#28C439" transform="matrix(1.00, 0.00, -0.00, -1.00, 458.4, 12.0)">s</text><text xml:space="preserve" font-family="HelveticaNeue,Helvetica Neue" font-size="26.0" fill="#28C439" transform="matrix(1.00, 0.00, -0.00, -1.00, 471.4, 12.0)">p</text><text xml:space="preserve" font-family="HelveticaNeue,Helvetica Neue" font-size="26.0" fill="#28C439" transform="matrix(1.00, 0.00, -0.00, -1.00, 486.8, 12.0)">l</text><text xml:space="preserve" font-family="HelveticaNeue,Helvetica Neue" font-size="26.0" fill="#28C439" transform="matrix(1.00, 0.00, -0.00, -1.00, 492.6, 12.0)">a</text><text xml:space="preserve" font-family="HelveticaNeue,Helvetica Neue" font-size="26.0" fill="#28C439" transform="matrix(1.00, 0.00, -0.00, -1.00, 506.5, 12.0)">y</text><text xml:space="preserve" font-family="HelveticaNeue,Helvetica Neue" font-size="26.0" fill="#28C439" transform="matrix(1.00, 0.00, -0.00, -1.00, 519.5, 12.0)"> </text><text xml:space="preserve" font-family="HelveticaNeue,Helvetica Neue" font-size="26.0" fill="#28C439" transform="matrix(1.00, 0.00, -0.00, -1.00, 526.8, 12.0)">?</text><text xml:space="preserve" font-family="HelveticaNeue,Helvetica Neue" font-size="26.0" fill="#28C439" transform="matrix(1.00, 0.00, -0.00, -1.00, 541.2, 12.0)">?</text><text xml:space="preserve" font-family="HelveticaNeue,Helvetica Neue" font-size="26.0" fill="#28C439" transform="matrix(1.00, 0.00, -0.00, -1.00, 555.7, 12.0)">?</text></g></g></g></g><g><clipPath id="clip0x7ff611e4f880"><path d="M 392.4 42.2 L 824.9 42.2 L 824.9 1.2 L 392.4 1.2 Z M 392.4 42.2 "></path></clipPath><g clip-path="url(#clip0x7ff611e4f880)"><g><clipPath id="clip0x7ff611e4ffb0"><path d="M 0.0 0.0 L 826.0 0.0 L 826.0 43.0 L 0.0 43.0 Z M 0.0 0.0 "></path></clipPath><g clip-path="url(#clip0x7ff611e4ffb0)"><path d="M 392.5 79.6 L 392.5 201.1 " fill="none" stroke="#F7F7F7" stroke-width="0.50" transform="matrix(1.00, 0.00, 0.00, -1.00, 0.1, 162.0)"></path><path d="M 1.0 120.1 L 824.7 120.1 " fill="none" stroke="#F7F7F7" stroke-width="0.50" transform="matrix(1.00, 0.00, 0.00, -1.00, 0.1, 162.0)"></path><path d="M 1.0 160.6 L 824.7 160.6 " fill="none" stroke="#F7F7F7" stroke-width="0.50" transform="matrix(1.00, 0.00, 0.00, -1.00, 0.1, 162.0)"></path></g></g></g></g></g></g></svg>