<?xml version="1.0" encoding="UTF-8" standalone="no"?><svg xmlns="http://www.w3.org/2000/svg" xmlns:xlink="http://www.w3.org/1999/xlink" clip-rule="evenodd" stroke-miterlimit="10" viewBox="0 0 826 378"><desc>SVG generated by Keynote</desc><defs></defs><g transform="matrix(1.00, 0.00, -0.00, -1.00, 0.0, 378.0)"><g><g><clipPath id="clip0x7ff611882bd0"><path d="M 1.1 377.0 L 392.6 377.0 L 392.6 338.7 L 1.1 338.7 Z M 1.1 377.0 "></path></clipPath><g clip-path="url(#clip0x7ff611882bd0)"><g><clipPath id="clip0x7ff611883340"><path d="M 0.0 0.0 L 826.0 0.0 L 826.0 378.0 L 0.0 378.0 Z M 0.0 0.0 "></path></clipPath><g clip-path="url(#clip0x7ff611883340)"><g><g><clipPath id="clip0x7ff611872690"><path d="M 1.0 338.0 L 393.0 338.0 L 393.0 378.0 L 1.0 378.0 Z M 1.0 338.0 "></path></clipPath><g clip-path="url(#clip0x7ff611872690)"><path d="M 1.1 339.7 L 392.6 339.7 L 392.6 298.5 L 1.1 298.5 Z M 1.1 339.7 " fill="#000000" fill-opacity="0.10"></path><path d="M 392.6 339.7 L 824.9 339.7 L 824.9 298.5 L 392.6 298.5 Z M 392.6 339.7 " fill="#000000" fill-opacity="0.10"></path></g></g></g></g></g></g></g><image xlink:href="../../837DC819-474B-465B-BB7D-002C15675744/assets/5EC8361A1A285DB0E8525EF029FB7FA4.png" width="68.00" height="23.00" transform="matrix(1.00, 0.00, -0.00, -1.00, 163.0, 367.0)"></image><g><clipPath id="clip0x7ff6118746f0"><path d="M 1.1 377.0 L 392.6 377.0 L 392.6 338.7 L 1.1 338.7 Z M 1.1 377.0 "></path></clipPath><g clip-path="url(#clip0x7ff6118746f0)"><g><clipPath id="clip0x7ff6118755b0"><path d="M 1.1 340.7 L 392.6 340.7 L 392.6 377.0 L 1.1 377.0 Z M 1.1 340.7 "></path></clipPath><g clip-path="url(#clip0x7ff6118755b0)"><text xml:space="preserve" font-family="HelveticaNeue-Medium,Helvetica Neue" font-size="24.0" fill="#609AE2" transform="matrix(1.00, 0.00, -0.00, -1.00, 164.4, 349.9)">U</text><text xml:space="preserve" font-family="HelveticaNeue-Medium,Helvetica Neue" font-size="24.0" fill="#609AE2" transform="matrix(1.00, 0.00, -0.00, -1.00, 181.8, 349.9)">S</text><text xml:space="preserve" font-family="HelveticaNeue-Medium,Helvetica Neue" font-size="24.0" fill="#609AE2" transform="matrix(1.00, 0.00, -0.00, -1.00, 197.3, 349.9)">E</text><text xml:space="preserve" font-family="HelveticaNeue-Medium,Helvetica Neue" font-size="24.0" fill="#609AE2" transform="matrix(1.00, 0.00, -0.00, -1.00, 212.4, 349.9)">R</text></g></g></g></g><g><clipPath id="clip0x7ff612128aa0"><path d="M 1.1 377.0 L 392.6 377.0 L 392.6 338.7 L 1.1 338.7 Z M 1.1 377.0 "></path></clipPath><g clip-path="url(#clip0x7ff612128aa0)"><g><clipPath id="clip0x7ff612129210"><path d="M 0.0 0.0 L 826.0 0.0 L 826.0 378.0 L 0.0 378.0 Z M 0.0 0.0 "></path></clipPath><g clip-path="url(#clip0x7ff612129210)"><path d="M 392.5 37.3 L 392.5 79.6 " fill="none" stroke="#F7F7F7" stroke-width="0.50" transform="matrix(1.00, 0.00, 0.00, -1.00, 0.1, 378.0)"></path><path d="M 1.0 38.3 L 824.7 38.3 " fill="none" stroke="#EFEFEF" stroke-width="2.00" transform="matrix(1.00, 0.00, 0.00, -1.00, 0.1, 378.0)"></path></g></g></g></g><g><clipPath id="clip0x7ff612109d40"><path d="M 392.6 377.0 L 824.9 377.0 L 824.9 338.7 L 392.6 338.7 Z M 392.6 377.0 "></path></clipPath><g clip-path="url(#clip0x7ff612109d40)"><g><clipPath id="clip0x7ff61212b1d0"><path d="M 0.0 0.0 L 826.0 0.0 L 826.0 378.0 L 0.0 378.0 Z M 0.0 0.0 "></path></clipPath><g clip-path="url(#clip0x7ff61212b1d0)"><g><g><clipPath id="clip0x7ff61212cb30"><path d="M 392.0 338.0 L 825.0 338.0 L 825.0 378.0 L 392.0 378.0 Z M 392.0 338.0 "></path></clipPath><g clip-path="url(#clip0x7ff61212cb30)"><path d="M 1.1 339.7 L 392.6 339.7 L 392.6 298.5 L 1.1 298.5 Z M 1.1 339.7 " fill="#000000" fill-opacity="0.10"></path><path d="M 392.6 339.7 L 824.9 339.7 L 824.9 298.5 L 392.6 298.5 Z M 392.6 339.7 " fill="#000000" fill-opacity="0.10"></path></g></g></g></g></g></g></g><image xlink:href="../../837DC819-474B-465B-BB7D-002C15675744/assets/3038D2FAA0A216642B66B022C9A573D6.png" width="190.00" height="24.00" transform="matrix(1.00, 0.00, -0.00, -1.00, 513.0, 367.0)"></image><g><clipPath id="clip0x7ff61212ea10"><path d="M 392.6 377.0 L 824.9 377.0 L 824.9 338.7 L 392.6 338.7 Z M 392.6 377.0 "></path></clipPath><g clip-path="url(#clip0x7ff61212ea10)"><g><clipPath id="clip0x7ff61212f690"><path d="M 392.6 340.7 L 824.9 340.7 L 824.9 377.0 L 392.6 377.0 Z M 392.6 340.7 "></path></clipPath><g clip-path="url(#clip0x7ff61212f690)"><text xml:space="preserve" font-family="HelveticaNeue-Medium,Helvetica Neue" font-size="24.0" fill="#28C439" transform="matrix(1.00, 0.00, -0.00, -1.00, 514.9, 349.9)">Q</text><text xml:space="preserve" font-family="HelveticaNeue-Medium,Helvetica Neue" font-size="24.0" fill="#28C439" transform="matrix(1.00, 0.00, -0.00, -1.00, 533.2, 349.9)">U</text><text xml:space="preserve" font-family="HelveticaNeue-Medium,Helvetica Neue" font-size="24.0" fill="#28C439" transform="matrix(1.00, 0.00, -0.00, -1.00, 550.5, 349.9)">I</text><text xml:space="preserve" font-family="HelveticaNeue-Medium,Helvetica Neue" font-size="24.0" fill="#28C439" transform="matrix(1.00, 0.00, -0.00, -1.00, 557.2, 349.9)">Z</text><text xml:space="preserve" font-family="HelveticaNeue-Medium,Helvetica Neue" font-size="24.0" fill="#28C439" transform="matrix(1.00, 0.00, -0.00, -1.00, 572.3, 349.9)"> </text><text xml:space="preserve" font-family="HelveticaNeue-Medium,Helvetica Neue" font-size="24.0" fill="#28C439" transform="matrix(1.00, 0.00, -0.00, -1.00, 579.0, 349.9)">P</text><text xml:space="preserve" font-family="HelveticaNeue-Medium,Helvetica Neue" font-size="24.0" fill="#28C439" transform="matrix(1.00, 0.00, -0.00, -1.00, 595.0, 349.9)">R</text><text xml:space="preserve" font-family="HelveticaNeue-Medium,Helvetica Neue" font-size="24.0" fill="#28C439" transform="matrix(1.00, 0.00, -0.00, -1.00, 611.9, 349.9)">O</text><text xml:space="preserve" font-family="HelveticaNeue-Medium,Helvetica Neue" font-size="24.0" fill="#28C439" transform="matrix(1.00, 0.00, -0.00, -1.00, 630.1, 349.9)">G</text><text xml:space="preserve" font-family="HelveticaNeue-Medium,Helvetica Neue" font-size="24.0" fill="#28C439" transform="matrix(1.00, 0.00, -0.00, -1.00, 648.3, 349.9)">R</text><text xml:space="preserve" font-family="HelveticaNeue-Medium,Helvetica Neue" font-size="24.0" fill="#28C439" transform="matrix(1.00, 0.00, -0.00, -1.00, 665.2, 349.9)">A</text><text xml:space="preserve" font-family="HelveticaNeue-Medium,Helvetica Neue" font-size="24.0" fill="#28C439" transform="matrix(1.00, 0.00, -0.00, -1.00, 681.2, 349.9)">M</text></g></g></g></g><g><clipPath id="clip0x7ff612134de0"><path d="M 392.6 377.0 L 824.9 377.0 L 824.9 338.7 L 392.6 338.7 Z M 392.6 377.0 "></path></clipPath><g clip-path="url(#clip0x7ff612134de0)"><g><clipPath id="clip0x7ff612135510"><path d="M 0.0 0.0 L 826.0 0.0 L 826.0 378.0 L 0.0 378.0 Z M 0.0 0.0 "></path></clipPath><g clip-path="url(#clip0x7ff612135510)"><path d="M 392.5 37.3 L 392.5 79.6 " fill="none" stroke="#F7F7F7" stroke-width="0.50" transform="matrix(1.00, 0.00, 0.00, -1.00, 0.1, 378.0)"></path><path d="M 1.0 38.3 L 824.7 38.3 " fill="none" stroke="#EFEFEF" stroke-width="2.00" transform="matrix(1.00, 0.00, 0.00, -1.00, 0.1, 378.0)"></path></g></g></g></g><g><clipPath id="clip0x7ff612136d80"><path d="M 1.1 340.7 L 392.9 340.7 L 392.9 298.2 L 1.1 298.2 Z M 1.1 340.7 "></path></clipPath><g clip-path="url(#clip0x7ff612136d80)"><g><clipPath id="clip0x7ff6121374b0"><path d="M 0.0 0.0 L 826.0 0.0 L 826.0 378.0 L 0.0 378.0 Z M 0.0 0.0 "></path></clipPath><g clip-path="url(#clip0x7ff6121374b0)"><g><g><clipPath id="clip0x7ff612138e30"><path d="M 1.0 298.0 L 393.0 298.0 L 393.0 341.0 L 1.0 341.0 Z M 1.0 298.0 "></path></clipPath><g clip-path="url(#clip0x7ff612138e30)"><path d="M 1.1 339.7 L 392.6 339.7 L 392.6 298.5 L 1.1 298.5 Z M 1.1 339.7 " fill="#000000" fill-opacity="0.10"></path><path d="M 392.6 339.7 L 824.9 339.7 L 824.9 298.5 L 392.6 298.5 Z M 392.6 339.7 " fill="#000000" fill-opacity="0.10"></path><path d="M 1.1 298.5 L 392.6 298.5 L 392.6 258.0 L 1.1 258.0 Z M 1.1 298.5 " fill="#000000" fill-opacity="0.10"></path><path d="M 392.6 298.5 L 824.9 298.5 L 824.9 258.0 L 392.6 258.0 Z M 392.6 298.5 " fill="#000000" fill-opacity="0.10"></path></g></g></g></g></g></g></g><image xlink:href="../../837DC819-474B-465B-BB7D-002C15675744/assets/695EC752D77851F1A8F1AE595929B558.png" width="62.00" height="25.00" transform="matrix(1.00, 0.00, -0.00, -1.00, 32.0, 329.0)"></image><g><clipPath id="clip0x7ff61213b940"><path d="M 1.1 340.7 L 392.9 340.7 L 392.9 298.2 L 1.1 298.2 Z M 1.1 340.7 "></path></clipPath><g clip-path="url(#clip0x7ff61213b940)"><g><clipPath id="clip0x7ff61213c570"><path d="M 1.1 298.7 L 392.4 298.7 L 392.4 338.7 L 1.1 338.7 Z M 1.1 298.7 "></path></clipPath><g clip-path="url(#clip0x7ff61213c570)"><text xml:space="preserve" font-family="HelveticaNeue,Helvetica Neue" font-size="26.0" fill="#609AE2" transform="matrix(1.00, 0.00, -0.00, -1.00, 34.0, 309.0)">C</text><text xml:space="preserve" font-family="HelveticaNeue,Helvetica Neue" font-size="26.0" fill="#609AE2" transform="matrix(1.00, 0.00, -0.00, -1.00, 52.8, 309.0)">l</text><text xml:space="preserve" font-family="HelveticaNeue,Helvetica Neue" font-size="26.0" fill="#609AE2" transform="matrix(1.00, 0.00, -0.00, -1.00, 58.5, 309.0)">i</text><text xml:space="preserve" font-family="HelveticaNeue,Helvetica Neue" font-size="26.0" fill="#609AE2" transform="matrix(1.00, 0.00, -0.00, -1.00, 64.3, 309.0)">c</text><text xml:space="preserve" font-family="HelveticaNeue,Helvetica Neue" font-size="26.0" fill="#609AE2" transform="matrix(1.00, 0.00, -0.00, -1.00, 78.3, 309.0)">k</text></g></g></g></g><g><clipPath id="clip0x7ff61213ffd0"><path d="M 1.1 340.7 L 392.9 340.7 L 392.9 298.2 L 1.1 298.2 Z M 1.1 340.7 "></path></clipPath><g clip-path="url(#clip0x7ff61213ffd0)"><g><clipPath id="clip0x7ff612140700"><path d="M 0.0 0.0 L 826.0 0.0 L 826.0 378.0 L 0.0 378.0 Z M 0.0 0.0 "></path></clipPath><g clip-path="url(#clip0x7ff612140700)"><path d="M 392.5 37.3 L 392.5 120.1 " fill="none" stroke="#F7F7F7" stroke-width="0.50" transform="matrix(1.00, 0.00, 0.00, -1.00, 0.1, 378.0)"></path><path d="M 1.0 79.6 L 824.7 79.6 " fill="none" stroke="#F7F7F7" stroke-width="0.50" transform="matrix(1.00, 0.00, 0.00, -1.00, 0.1, 378.0)"></path><path d="M 1.0 38.3 L 824.7 38.3 " fill="none" stroke="#EFEFEF" stroke-width="2.00" transform="matrix(1.00, 0.00, 0.00, -1.00, 0.1, 378.0)"></path></g></g></g></g><g><clipPath id="clip0x7ff6121426a0"><path d="M 392.4 340.7 L 824.9 340.7 L 824.9 298.2 L 392.4 298.2 Z M 392.4 340.7 "></path></clipPath><g clip-path="url(#clip0x7ff6121426a0)"><g><clipPath id="clip0x7ff612142dd0"><path d="M 0.0 0.0 L 826.0 0.0 L 826.0 378.0 L 0.0 378.0 Z M 0.0 0.0 "></path></clipPath><g clip-path="url(#clip0x7ff612142dd0)"><g><g><clipPath id="clip0x7ff612144750"><path d="M 392.0 298.0 L 825.0 298.0 L 825.0 341.0 L 392.0 341.0 Z M 392.0 298.0 "></path></clipPath><g clip-path="url(#clip0x7ff612144750)"><path d="M 1.1 339.7 L 392.6 339.7 L 392.6 298.5 L 1.1 298.5 Z M 1.1 339.7 " fill="#000000" fill-opacity="0.10"></path><path d="M 392.6 339.7 L 824.9 339.7 L 824.9 298.5 L 392.6 298.5 Z M 392.6 339.7 " fill="#000000" fill-opacity="0.10"></path><path d="M 1.1 298.5 L 392.6 298.5 L 392.6 258.0 L 1.1 258.0 Z M 1.1 298.5 " fill="#000000" fill-opacity="0.10"></path><path d="M 392.6 298.5 L 824.9 298.5 L 824.9 258.0 L 392.6 258.0 Z M 392.6 298.5 " fill="#000000" fill-opacity="0.10"></path></g></g></g></g></g></g></g><g><clipPath id="clip0x7ff612143c10"><path d="M 392.4 340.7 L 824.9 340.7 L 824.9 298.2 L 392.4 298.2 Z M 392.4 340.7 "></path></clipPath><g clip-path="url(#clip0x7ff612143c10)"><g><clipPath id="clip0x7ff612146860"><path d="M 0.0 0.0 L 826.0 0.0 L 826.0 378.0 L 0.0 378.0 Z M 0.0 0.0 "></path></clipPath><g clip-path="url(#clip0x7ff612146860)"><path d="M 392.5 37.3 L 392.5 120.1 " fill="none" stroke="#F7F7F7" stroke-width="0.50" transform="matrix(1.00, 0.00, 0.00, -1.00, 0.1, 378.0)"></path><path d="M 1.0 79.6 L 824.7 79.6 " fill="none" stroke="#F7F7F7" stroke-width="0.50" transform="matrix(1.00, 0.00, 0.00, -1.00, 0.1, 378.0)"></path><path d="M 1.0 38.3 L 824.7 38.3 " fill="none" stroke="#EFEFEF" stroke-width="2.00" transform="matrix(1.00, 0.00, 0.00, -1.00, 0.1, 378.0)"></path></g></g></g></g><g><clipPath id="clip0x7ff612148800"><path d="M 1.1 298.7 L 392.9 298.7 L 392.9 257.7 L 1.1 257.7 Z M 1.1 298.7 "></path></clipPath><g clip-path="url(#clip0x7ff612148800)"><g><clipPath id="clip0x7ff612148f30"><path d="M 0.0 0.0 L 826.0 0.0 L 826.0 378.0 L 0.0 378.0 Z M 0.0 0.0 "></path></clipPath><g clip-path="url(#clip0x7ff612148f30)"><g><g><clipPath id="clip0x7ff612ee1f40"><path d="M 1.0 257.0 L 393.0 257.0 L 393.0 299.0 L 1.0 299.0 Z M 1.0 257.0 "></path></clipPath><g clip-path="url(#clip0x7ff612ee1f40)"><path d="M 1.1 339.7 L 392.6 339.7 L 392.6 298.5 L 1.1 298.5 Z M 1.1 339.7 " fill="#000000" fill-opacity="0.10"></path><path d="M 392.6 339.7 L 824.9 339.7 L 824.9 298.5 L 392.6 298.5 Z M 392.6 339.7 " fill="#000000" fill-opacity="0.10"></path><path d="M 1.1 298.5 L 392.6 298.5 L 392.6 258.0 L 1.1 258.0 Z M 1.1 298.5 " fill="#000000" fill-opacity="0.10"></path><path d="M 392.6 298.5 L 824.9 298.5 L 824.9 258.0 L 392.6 258.0 Z M 392.6 298.5 " fill="#000000" fill-opacity="0.10"></path><path d="M 1.1 258.0 L 392.6 258.0 L 392.6 217.5 L 1.1 217.5 Z M 1.1 258.0 " fill="#000000" fill-opacity="0.10"></path><path d="M 392.6 258.0 L 824.9 258.0 L 824.9 217.5 L 392.6 217.5 Z M 392.6 258.0 " fill="#000000" fill-opacity="0.10"></path></g></g></g></g></g></g></g><g><clipPath id="clip0x7ff612ee1550"><path d="M 1.1 298.7 L 392.9 298.7 L 392.9 257.7 L 1.1 257.7 Z M 1.1 298.7 "></path></clipPath><g clip-path="url(#clip0x7ff612ee1550)"><g><clipPath id="clip0x7ff612ee4b40"><path d="M 0.0 0.0 L 826.0 0.0 L 826.0 378.0 L 0.0 378.0 Z M 0.0 0.0 "></path></clipPath><g clip-path="url(#clip0x7ff612ee4b40)"><path d="M 392.5 38.3 L 392.5 160.6 " fill="none" stroke="#F7F7F7" stroke-width="0.50" transform="matrix(1.00, 0.00, 0.00, -1.00, 0.1, 378.0)"></path><path d="M 1.0 79.6 L 824.7 79.6 " fill="none" stroke="#F7F7F7" stroke-width="0.50" transform="matrix(1.00, 0.00, 0.00, -1.00, 0.1, 378.0)"></path><path d="M 1.0 120.1 L 824.7 120.1 " fill="none" stroke="#F7F7F7" stroke-width="0.50" transform="matrix(1.00, 0.00, 0.00, -1.00, 0.1, 378.0)"></path></g></g></g></g><g><clipPath id="clip0x7ff612ee6a20"><path d="M 392.4 298.7 L 824.9 298.7 L 824.9 257.7 L 392.4 257.7 Z M 392.4 298.7 "></path></clipPath><g clip-path="url(#clip0x7ff612ee6a20)"><g><clipPath id="clip0x7ff612ee71c0"><path d="M 0.0 0.0 L 826.0 0.0 L 826.0 378.0 L 0.0 378.0 Z M 0.0 0.0 "></path></clipPath><g clip-path="url(#clip0x7ff612ee71c0)"><g><g><clipPath id="clip0x7ff612ee8b50"><path d="M 392.0 257.0 L 825.0 257.0 L 825.0 299.0 L 392.0 299.0 Z M 392.0 257.0 "></path></clipPath><g clip-path="url(#clip0x7ff612ee8b50)"><path d="M 1.1 339.7 L 392.6 339.7 L 392.6 298.5 L 1.1 298.5 Z M 1.1 339.7 " fill="#000000" fill-opacity="0.10"></path><path d="M 392.6 339.7 L 824.9 339.7 L 824.9 298.5 L 392.6 298.5 Z M 392.6 339.7 " fill="#000000" fill-opacity="0.10"></path><path d="M 1.1 298.5 L 392.6 298.5 L 392.6 258.0 L 1.1 258.0 Z M 1.1 298.5 " fill="#000000" fill-opacity="0.10"></path><path d="M 392.6 298.5 L 824.9 298.5 L 824.9 258.0 L 392.6 258.0 Z M 392.6 298.5 " fill="#000000" fill-opacity="0.10"></path><path d="M 1.1 258.0 L 392.6 258.0 L 392.6 217.5 L 1.1 217.5 Z M 1.1 258.0 " fill="#000000" fill-opacity="0.10"></path><path d="M 392.6 258.0 L 824.9 258.0 L 824.9 217.5 L 392.6 217.5 Z M 392.6 258.0 " fill="#000000" fill-opacity="0.10"></path></g></g></g></g></g></g></g><image xlink:href="../../837DC819-474B-465B-BB7D-002C15675744/assets/F25BDAD63B939BF58861116B8A4380EA.png" width="88.00" height="29.00" transform="matrix(1.00, 0.00, -0.00, -1.00, 501.0, 287.0)"></image><g><clipPath id="clip0x7ff612eec2d0"><path d="M 392.4 298.7 L 824.9 298.7 L 824.9 257.7 L 392.4 257.7 Z M 392.4 298.7 "></path></clipPath><g clip-path="url(#clip0x7ff612eec2d0)"><g><clipPath id="clip0x7ff612eecea0"><path d="M 392.9 258.2 L 824.9 258.2 L 824.9 298.2 L 392.9 298.2 Z M 392.9 258.2 "></path></clipPath><g clip-path="url(#clip0x7ff612eecea0)"><text xml:space="preserve" font-family="HelveticaNeue,Helvetica Neue" font-size="26.0" fill="#28C439" transform="matrix(1.00, 0.00, -0.00, -1.00, 501.9, 268.5)">D</text><text xml:space="preserve" font-family="HelveticaNeue,Helvetica Neue" font-size="26.0" fill="#28C439" transform="matrix(1.00, 0.00, -0.00, -1.00, 520.3, 268.5)">i</text><text xml:space="preserve" font-family="HelveticaNeue,Helvetica Neue" font-size="26.0" fill="#28C439" transform="matrix(1.00, 0.00, -0.00, -1.00, 526.0, 268.5)">s</text><text xml:space="preserve" font-family="HelveticaNeue,Helvetica Neue" font-size="26.0" fill="#28C439" transform="matrix(1.00, 0.00, -0.00, -1.00, 539.0, 268.5)">p</text><text xml:space="preserve" font-family="HelveticaNeue,Helvetica Neue" font-size="26.0" fill="#28C439" transform="matrix(1.00, 0.00, -0.00, -1.00, 554.4, 268.5)">l</text><text xml:space="preserve" font-family="HelveticaNeue,Helvetica Neue" font-size="26.0" fill="#28C439" transform="matrix(1.00, 0.00, -0.00, -1.00, 560.2, 268.5)">a</text><text xml:space="preserve" font-family="HelveticaNeue,Helvetica Neue" font-size="26.0" fill="#28C439" transform="matrix(1.00, 0.00, -0.00, -1.00, 574.2, 268.5)">y</text></g></g></g></g><g><clipPath id="clip0x7ff612ef07c0"><path d="M 392.4 298.7 L 824.9 298.7 L 824.9 257.7 L 392.4 257.7 Z M 392.4 298.7 "></path></clipPath><g clip-path="url(#clip0x7ff612ef07c0)"><g><clipPath id="clip0x7ff612ef0ef0"><path d="M 0.0 0.0 L 826.0 0.0 L 826.0 378.0 L 0.0 378.0 Z M 0.0 0.0 "></path></clipPath><g clip-path="url(#clip0x7ff612ef0ef0)"><path d="M 392.5 38.3 L 392.5 160.6 " fill="none" stroke="#F7F7F7" stroke-width="0.50" transform="matrix(1.00, 0.00, 0.00, -1.00, 0.1, 378.0)"></path><path d="M 1.0 79.6 L 824.7 79.6 " fill="none" stroke="#F7F7F7" stroke-width="0.50" transform="matrix(1.00, 0.00, 0.00, -1.00, 0.1, 378.0)"></path><path d="M 1.0 120.1 L 824.7 120.1 " fill="none" stroke="#F7F7F7" stroke-width="0.50" transform="matrix(1.00, 0.00, 0.00, -1.00, 0.1, 378.0)"></path></g></g></g></g><g><clipPath id="clip0x7ff612ef2dd0"><path d="M 1.1 258.2 L 392.9 258.2 L 392.9 217.2 L 1.1 217.2 Z M 1.1 258.2 "></path></clipPath><g clip-path="url(#clip0x7ff612ef2dd0)"><g><clipPath id="clip0x7ff612ef3500"><path d="M 0.0 0.0 L 826.0 0.0 L 826.0 378.0 L 0.0 378.0 Z M 0.0 0.0 "></path></clipPath><g clip-path="url(#clip0x7ff612ef3500)"><g><g><clipPath id="clip0x7ff612ef4ea0"><path d="M 1.0 217.0 L 393.0 217.0 L 393.0 259.0 L 1.0 259.0 Z M 1.0 217.0 "></path></clipPath><g clip-path="url(#clip0x7ff612ef4ea0)"><path d="M 1.1 298.5 L 392.6 298.5 L 392.6 258.0 L 1.1 258.0 Z M 1.1 298.5 " fill="#000000" fill-opacity="0.10"></path><path d="M 392.6 298.5 L 824.9 298.5 L 824.9 258.0 L 392.6 258.0 Z M 392.6 298.5 " fill="#000000" fill-opacity="0.10"></path><path d="M 1.1 258.0 L 392.6 258.0 L 392.6 217.5 L 1.1 217.5 Z M 1.1 258.0 " fill="#000000" fill-opacity="0.10"></path><path d="M 392.6 258.0 L 824.9 258.0 L 824.9 217.5 L 392.6 217.5 Z M 392.6 258.0 " fill="#000000" fill-opacity="0.10"></path><path d="M 1.1 217.5 L 392.6 217.5 L 392.6 177.0 L 1.1 177.0 Z M 1.1 217.5 " fill="#000000" fill-opacity="0.10"></path><path d="M 392.6 217.5 L 824.9 217.5 L 824.9 177.0 L 392.6 177.0 Z M 392.6 217.5 " fill="#000000" fill-opacity="0.10"></path></g></g></g></g></g></g></g><g><clipPath id="clip0x7ff612ef44b0"><path d="M 1.1 258.2 L 392.9 258.2 L 392.9 217.2 L 1.1 217.2 Z M 1.1 258.2 "></path></clipPath><g clip-path="url(#clip0x7ff612ef44b0)"><g><clipPath id="clip0x7ff612ef7aa0"><path d="M 0.0 0.0 L 826.0 0.0 L 826.0 378.0 L 0.0 378.0 Z M 0.0 0.0 "></path></clipPath><g clip-path="url(#clip0x7ff612ef7aa0)"><path d="M 392.5 79.6 L 392.5 201.1 " fill="none" stroke="#F7F7F7" stroke-width="0.50" transform="matrix(1.00, 0.00, 0.00, -1.00, 0.1, 378.0)"></path><path d="M 1.0 120.1 L 824.7 120.1 " fill="none" stroke="#F7F7F7" stroke-width="0.50" transform="matrix(1.00, 0.00, 0.00, -1.00, 0.1, 378.0)"></path><path d="M 1.0 160.6 L 824.7 160.6 " fill="none" stroke="#F7F7F7" stroke-width="0.50" transform="matrix(1.00, 0.00, 0.00, -1.00, 0.1, 378.0)"></path></g></g></g></g><g><clipPath id="clip0x7ff612ef9980"><path d="M 392.4 258.2 L 824.9 258.2 L 824.9 217.2 L 392.4 217.2 Z M 392.4 258.2 "></path></clipPath><g clip-path="url(#clip0x7ff612ef9980)"><g><clipPath id="clip0x7ff612efa0b0"><path d="M 0.0 0.0 L 826.0 0.0 L 826.0 378.0 L 0.0 378.0 Z M 0.0 0.0 "></path></clipPath><g clip-path="url(#clip0x7ff612efa0b0)"><g><g><clipPath id="clip0x7ff612efba50"><path d="M 392.0 217.0 L 825.0 217.0 L 825.0 259.0 L 392.0 259.0 Z M 392.0 217.0 "></path></clipPath><g clip-path="url(#clip0x7ff612efba50)"><path d="M 1.1 298.5 L 392.6 298.5 L 392.6 258.0 L 1.1 258.0 Z M 1.1 298.5 " fill="#000000" fill-opacity="0.10"></path><path d="M 392.6 298.5 L 824.9 298.5 L 824.9 258.0 L 392.6 258.0 Z M 392.6 298.5 " fill="#000000" fill-opacity="0.10"></path><path d="M 1.1 258.0 L 392.6 258.0 L 392.6 217.5 L 1.1 217.5 Z M 1.1 258.0 " fill="#000000" fill-opacity="0.10"></path><path d="M 392.6 258.0 L 824.9 258.0 L 824.9 217.5 L 392.6 217.5 Z M 392.6 258.0 " fill="#000000" fill-opacity="0.10"></path><path d="M 1.1 217.5 L 392.6 217.5 L 392.6 177.0 L 1.1 177.0 Z M 1.1 217.5 " fill="#000000" fill-opacity="0.10"></path><path d="M 392.6 217.5 L 824.9 217.5 L 824.9 177.0 L 392.6 177.0 Z M 392.6 217.5 " fill="#000000" fill-opacity="0.10"></path></g></g></g></g></g></g></g><image xlink:href="../../837DC819-474B-465B-BB7D-002C15675744/assets/E261C725B3F2D3ED309BD73ABC17ADBB.png" width="137.00" height="30.00" transform="matrix(1.00, 0.00, -0.00, -1.00, 434.0, 248.0)"></image><g><clipPath id="clip0x7ff612ede110"><path d="M 392.4 258.2 L 824.9 258.2 L 824.9 217.2 L 392.4 217.2 Z M 392.4 258.2 "></path></clipPath><g clip-path="url(#clip0x7ff612ede110)"><g><clipPath id="clip0x7ff612edece0"><path d="M 392.9 217.7 L 824.9 217.7 L 824.9 257.7 L 392.9 257.7 Z M 392.9 217.7 "></path></clipPath><g clip-path="url(#clip0x7ff612edece0)"><text xml:space="preserve" font-family="HelveticaNeue,Helvetica Neue" font-size="26.0" fill="#28C439" transform="matrix(1.00, 0.00, -0.00, -1.00, 434.3, 228.0)">D</text><text xml:space="preserve" font-family="HelveticaNeue,Helvetica Neue" font-size="26.0" fill="#28C439" transform="matrix(1.00, 0.00, -0.00, -1.00, 452.6, 228.0)">i</text><text xml:space="preserve" font-family="HelveticaNeue,Helvetica Neue" font-size="26.0" fill="#28C439" transform="matrix(1.00, 0.00, -0.00, -1.00, 458.4, 228.0)">s</text><text xml:space="preserve" font-family="HelveticaNeue,Helvetica Neue" font-size="26.0" fill="#28C439" transform="matrix(1.00, 0.00, -0.00, -1.00, 471.4, 228.0)">p</text><text xml:space="preserve" font-family="HelveticaNeue,Helvetica Neue" font-size="26.0" fill="#28C439" transform="matrix(1.00, 0.00, -0.00, -1.00, 486.8, 228.0)">l</text><text xml:space="preserve" font-family="HelveticaNeue,Helvetica Neue" font-size="26.0" fill="#28C439" transform="matrix(1.00, 0.00, -0.00, -1.00, 492.6, 228.0)">a</text><text xml:space="preserve" font-family="HelveticaNeue,Helvetica Neue" font-size="26.0" fill="#28C439" transform="matrix(1.00, 0.00, -0.00, -1.00, 506.5, 228.0)">y</text><text xml:space="preserve" font-family="HelveticaNeue,Helvetica Neue" font-size="26.0" fill="#28C439" transform="matrix(1.00, 0.00, -0.00, -1.00, 519.5, 228.0)"> </text><text xml:space="preserve" font-family="HelveticaNeue,Helvetica Neue" font-size="26.0" fill="#28C439" transform="matrix(1.00, 0.00, -0.00, -1.00, 526.8, 228.0)">?</text><text xml:space="preserve" font-family="HelveticaNeue,Helvetica Neue" font-size="26.0" fill="#28C439" transform="matrix(1.00, 0.00, -0.00, -1.00, 541.2, 228.0)">?</text><text xml:space="preserve" font-family="HelveticaNeue,Helvetica Neue" font-size="26.0" fill="#28C439" transform="matrix(1.00, 0.00, -0.00, -1.00, 555.7, 228.0)">?</text></g></g></g></g><g><clipPath id="clip0x7ff612e3e200"><path d="M 392.4 258.2 L 824.9 258.2 L 824.9 217.2 L 392.4 217.2 Z M 392.4 258.2 "></path></clipPath><g clip-path="url(#clip0x7ff612e3e200)"><g><clipPath id="clip0x7ff612e3e930"><path d="M 0.0 0.0 L 826.0 0.0 L 826.0 378.0 L 0.0 378.0 Z M 0.0 0.0 "></path></clipPath><g clip-path="url(#clip0x7ff612e3e930)"><path d="M 392.5 79.6 L 392.5 201.1 " fill="none" stroke="#F7F7F7" stroke-width="0.50" transform="matrix(1.00, 0.00, 0.00, -1.00, 0.1, 378.0)"></path><path d="M 1.0 120.1 L 824.7 120.1 " fill="none" stroke="#F7F7F7" stroke-width="0.50" transform="matrix(1.00, 0.00, 0.00, -1.00, 0.1, 378.0)"></path><path d="M 1.0 160.6 L 824.7 160.6 " fill="none" stroke="#F7F7F7" stroke-width="0.50" transform="matrix(1.00, 0.00, 0.00, -1.00, 0.1, 378.0)"></path></g></g></g></g><g><clipPath id="clip0x7ff612e40810"><path d="M 1.1 217.7 L 392.9 217.7 L 392.9 176.7 L 1.1 176.7 Z M 1.1 217.7 "></path></clipPath><g clip-path="url(#clip0x7ff612e40810)"><g><clipPath id="clip0x7ff612ee6e00"><path d="M 0.0 0.0 L 826.0 0.0 L 826.0 378.0 L 0.0 378.0 Z M 0.0 0.0 "></path></clipPath><g clip-path="url(#clip0x7ff612ee6e00)"><g><g><clipPath id="clip0x7ff612e42960"><path d="M 1.0 176.0 L 393.0 176.0 L 393.0 218.0 L 1.0 218.0 Z M 1.0 176.0 "></path></clipPath><g clip-path="url(#clip0x7ff612e42960)"><path d="M 1.1 258.0 L 392.6 258.0 L 392.6 217.5 L 1.1 217.5 Z M 1.1 258.0 " fill="#000000" fill-opacity="0.10"></path><path d="M 392.6 258.0 L 824.9 258.0 L 824.9 217.5 L 392.6 217.5 Z M 392.6 258.0 " fill="#000000" fill-opacity="0.10"></path><path d="M 1.1 217.5 L 392.6 217.5 L 392.6 177.0 L 1.1 177.0 Z M 1.1 217.5 " fill="#000000" fill-opacity="0.10"></path><path d="M 392.6 217.5 L 824.9 217.5 L 824.9 177.0 L 392.6 177.0 Z M 392.6 217.5 " fill="#000000" fill-opacity="0.10"></path><path d="M 1.1 177.0 L 392.6 177.0 L 392.6 136.5 L 1.1 136.5 Z M 1.1 177.0 " fill="#000000" fill-opacity="0.10"></path><path d="M 392.6 177.0 L 824.9 177.0 L 824.9 136.5 L 392.6 136.5 Z M 392.6 177.0 " fill="#000000" fill-opacity="0.10"></path></g></g></g></g></g></g></g><image xlink:href="../../837DC819-474B-465B-BB7D-002C15675744/assets/CF641F33F133AD4472AF35C0872E354E.png" width="62.00" height="25.00" transform="matrix(1.00, 0.00, -0.00, -1.00, 41.0, 207.0)"></image><g><clipPath id="clip0x7ff612e45c10"><path d="M 1.1 217.7 L 392.9 217.7 L 392.9 176.7 L 1.1 176.7 Z M 1.1 217.7 "></path></clipPath><g clip-path="url(#clip0x7ff612e45c10)"><g><clipPath id="clip0x7ff612e467e0"><path d="M 1.1 177.2 L 392.4 177.2 L 392.4 217.2 L 1.1 217.2 Z M 1.1 177.2 "></path></clipPath><g clip-path="url(#clip0x7ff612e467e0)"><text xml:space="preserve" font-family="HelveticaNeue,Helvetica Neue" font-size="26.0" fill="#609AE2" transform="matrix(1.00, 0.00, -0.00, -1.00, 42.9, 187.5)">C</text><text xml:space="preserve" font-family="HelveticaNeue,Helvetica Neue" font-size="26.0" fill="#609AE2" transform="matrix(1.00, 0.00, -0.00, -1.00, 61.7, 187.5)">l</text><text xml:space="preserve" font-family="HelveticaNeue,Helvetica Neue" font-size="26.0" fill="#609AE2" transform="matrix(1.00, 0.00, -0.00, -1.00, 67.5, 187.5)">i</text><text xml:space="preserve" font-family="HelveticaNeue,Helvetica Neue" font-size="26.0" fill="#609AE2" transform="matrix(1.00, 0.00, -0.00, -1.00, 73.2, 187.5)">c</text><text xml:space="preserve" font-family="HelveticaNeue,Helvetica Neue" font-size="26.0" fill="#609AE2" transform="matrix(1.00, 0.00, -0.00, -1.00, 87.2, 187.5)">k</text></g></g></g></g><g><clipPath id="clip0x7ff612e49490"><path d="M 1.1 217.7 L 392.9 217.7 L 392.9 176.7 L 1.1 176.7 Z M 1.1 217.7 "></path></clipPath><g clip-path="url(#clip0x7ff612e49490)"><g><clipPath id="clip0x7ff612e49bc0"><path d="M 0.0 0.0 L 826.0 0.0 L 826.0 378.0 L 0.0 378.0 Z M 0.0 0.0 "></path></clipPath><g clip-path="url(#clip0x7ff612e49bc0)"><path d="M 392.5 120.1 L 392.5 241.6 " fill="none" stroke="#F7F7F7" stroke-width="0.50" transform="matrix(1.00, 0.00, 0.00, -1.00, 0.1, 378.0)"></path><path d="M 1.0 160.6 L 824.7 160.6 " fill="none" stroke="#F7F7F7" stroke-width="0.50" transform="matrix(1.00, 0.00, 0.00, -1.00, 0.1, 378.0)"></path><path d="M 1.0 201.1 L 824.7 201.1 " fill="none" stroke="#F7F7F7" stroke-width="0.50" transform="matrix(1.00, 0.00, 0.00, -1.00, 0.1, 378.0)"></path></g></g></g></g><g><clipPath id="clip0x7ff612e4baa0"><path d="M 392.4 217.7 L 824.9 217.7 L 824.9 176.7 L 392.4 176.7 Z M 392.4 217.7 "></path></clipPath><g clip-path="url(#clip0x7ff612e4baa0)"><g><clipPath id="clip0x7ff612e4c1d0"><path d="M 0.0 0.0 L 826.0 0.0 L 826.0 378.0 L 0.0 378.0 Z M 0.0 0.0 "></path></clipPath><g clip-path="url(#clip0x7ff612e4c1d0)"><g><g><clipPath id="clip0x7ff612e4db70"><path d="M 392.0 176.0 L 825.0 176.0 L 825.0 218.0 L 392.0 218.0 Z M 392.0 176.0 "></path></clipPath><g clip-path="url(#clip0x7ff612e4db70)"><path d="M 1.1 258.0 L 392.6 258.0 L 392.6 217.5 L 1.1 217.5 Z M 1.1 258.0 " fill="#000000" fill-opacity="0.10"></path><path d="M 392.6 258.0 L 824.9 258.0 L 824.9 217.5 L 392.6 217.5 Z M 392.6 258.0 " fill="#000000" fill-opacity="0.10"></path><path d="M 1.1 217.5 L 392.6 217.5 L 392.6 177.0 L 1.1 177.0 Z M 1.1 217.5 " fill="#000000" fill-opacity="0.10"></path><path d="M 392.6 217.5 L 824.9 217.5 L 824.9 177.0 L 392.6 177.0 Z M 392.6 217.5 " fill="#000000" fill-opacity="0.10"></path><path d="M 1.1 177.0 L 392.6 177.0 L 392.6 136.5 L 1.1 136.5 Z M 1.1 177.0 " fill="#000000" fill-opacity="0.10"></path><path d="M 392.6 177.0 L 824.9 177.0 L 824.9 136.5 L 392.6 136.5 Z M 392.6 177.0 " fill="#000000" fill-opacity="0.10"></path></g></g></g></g></g></g></g><g><clipPath id="clip0x7ff612e4d180"><path d="M 392.4 217.7 L 824.9 217.7 L 824.9 176.7 L 392.4 176.7 Z M 392.4 217.7 "></path></clipPath><g clip-path="url(#clip0x7ff612e4d180)"><g><clipPath id="clip0x7ff612e50770"><path d="M 0.0 0.0 L 826.0 0.0 L 826.0 378.0 L 0.0 378.0 Z M 0.0 0.0 "></path></clipPath><g clip-path="url(#clip0x7ff612e50770)"><path d="M 392.5 120.1 L 392.5 241.6 " fill="none" stroke="#F7F7F7" stroke-width="0.50" transform="matrix(1.00, 0.00, 0.00, -1.00, 0.1, 378.0)"></path><path d="M 1.0 160.6 L 824.7 160.6 " fill="none" stroke="#F7F7F7" stroke-width="0.50" transform="matrix(1.00, 0.00, 0.00, -1.00, 0.1, 378.0)"></path><path d="M 1.0 201.1 L 824.7 201.1 " fill="none" stroke="#F7F7F7" stroke-width="0.50" transform="matrix(1.00, 0.00, 0.00, -1.00, 0.1, 378.0)"></path></g></g></g></g><g><clipPath id="clip0x7ff612e52650"><path d="M 1.1 177.2 L 392.9 177.2 L 392.9 136.2 L 1.1 136.2 Z M 1.1 177.2 "></path></clipPath><g clip-path="url(#clip0x7ff612e52650)"><g><clipPath id="clip0x7ff612e52d80"><path d="M 0.0 0.0 L 826.0 0.0 L 826.0 378.0 L 0.0 378.0 Z M 0.0 0.0 "></path></clipPath><g clip-path="url(#clip0x7ff612e52d80)"><g><g><clipPath id="clip0x7ff612e54720"><path d="M 1.0 136.0 L 393.0 136.0 L 393.0 178.0 L 1.0 178.0 Z M 1.0 136.0 "></path></clipPath><g clip-path="url(#clip0x7ff612e54720)"><path d="M 1.1 217.5 L 392.6 217.5 L 392.6 177.0 L 1.1 177.0 Z M 1.1 217.5 " fill="#000000" fill-opacity="0.10"></path><path d="M 392.6 217.5 L 824.9 217.5 L 824.9 177.0 L 392.6 177.0 Z M 392.6 217.5 " fill="#000000" fill-opacity="0.10"></path><path d="M 1.1 177.0 L 392.6 177.0 L 392.6 136.5 L 1.1 136.5 Z M 1.1 177.0 " fill="#000000" fill-opacity="0.10"></path><path d="M 392.6 177.0 L 824.9 177.0 L 824.9 136.5 L 392.6 136.5 Z M 392.6 177.0 " fill="#000000" fill-opacity="0.10"></path><path d="M 1.1 136.5 L 392.6 136.5 L 392.6 1.0 L 1.1 1.0 Z M 1.1 136.5 " fill="#000000" fill-opacity="0.10"></path><path d="M 392.6 136.5 L 824.9 136.5 L 824.9 1.0 L 392.6 1.0 Z M 392.6 136.5 " fill="#000000" fill-opacity="0.10"></path></g></g></g></g></g></g></g><g><clipPath id="clip0x7ff612e53d30"><path d="M 1.1 177.2 L 392.9 177.2 L 392.9 136.2 L 1.1 136.2 Z M 1.1 177.2 "></path></clipPath><g clip-path="url(#clip0x7ff612e53d30)"><g><clipPath id="clip0x7ff612e572f0"><path d="M 0.0 0.0 L 826.0 0.0 L 826.0 378.0 L 0.0 378.0 Z M 0.0 0.0 "></path></clipPath><g clip-path="url(#clip0x7ff612e572f0)"><path d="M 392.5 160.6 L 392.5 377.1 " fill="none" stroke="#F7F7F7" stroke-width="0.50" transform="matrix(1.00, 0.00, 0.00, -1.00, 0.1, 378.0)"></path><path d="M 1.0 201.1 L 824.7 201.1 " fill="none" stroke="#F7F7F7" stroke-width="0.50" transform="matrix(1.00, 0.00, 0.00, -1.00, 0.1, 378.0)"></path><path d="M 1.0 241.6 L 824.7 241.6 " fill="none" stroke="#F7F7F7" stroke-width="0.50" transform="matrix(1.00, 0.00, 0.00, -1.00, 0.1, 378.0)"></path></g></g></g></g><g><clipPath id="clip0x7ff612e591d0"><path d="M 392.4 177.2 L 824.9 177.2 L 824.9 136.2 L 392.4 136.2 Z M 392.4 177.2 "></path></clipPath><g clip-path="url(#clip0x7ff612e591d0)"><g><clipPath id="clip0x7ff612e59900"><path d="M 0.0 0.0 L 826.0 0.0 L 826.0 378.0 L 0.0 378.0 Z M 0.0 0.0 "></path></clipPath><g clip-path="url(#clip0x7ff612e59900)"><g><g><clipPath id="clip0x7ff612e5b2b0"><path d="M 392.0 136.0 L 825.0 136.0 L 825.0 178.0 L 392.0 178.0 Z M 392.0 136.0 "></path></clipPath><g clip-path="url(#clip0x7ff612e5b2b0)"><path d="M 1.1 217.5 L 392.6 217.5 L 392.6 177.0 L 1.1 177.0 Z M 1.1 217.5 " fill="#000000" fill-opacity="0.10"></path><path d="M 392.6 217.5 L 824.9 217.5 L 824.9 177.0 L 392.6 177.0 Z M 392.6 217.5 " fill="#000000" fill-opacity="0.10"></path><path d="M 1.1 177.0 L 392.6 177.0 L 392.6 136.5 L 1.1 136.5 Z M 1.1 177.0 " fill="#000000" fill-opacity="0.10"></path><path d="M 392.6 177.0 L 824.9 177.0 L 824.9 136.5 L 392.6 136.5 Z M 392.6 177.0 " fill="#000000" fill-opacity="0.10"></path><path d="M 1.1 136.5 L 392.6 136.5 L 392.6 1.0 L 1.1 1.0 Z M 1.1 136.5 " fill="#000000" fill-opacity="0.10"></path><path d="M 392.6 136.5 L 824.9 136.5 L 824.9 1.0 L 392.6 1.0 Z M 392.6 136.5 " fill="#000000" fill-opacity="0.10"></path></g></g></g></g></g></g></g><image xlink:href="../../837DC819-474B-465B-BB7D-002C15675744/assets/2BA3C62985DD616D3E8754AA19723A69.png" width="87.00" height="29.00" transform="matrix(1.00, 0.00, -0.00, -1.00, 408.0, 166.0)"></image><g><clipPath id="clip0x7ff612e5e8c0"><path d="M 392.4 177.2 L 824.9 177.2 L 824.9 136.2 L 392.4 136.2 Z M 392.4 177.2 "></path></clipPath><g clip-path="url(#clip0x7ff612e5e8c0)"><g><clipPath id="clip0x7ff612e5f460"><path d="M 392.9 136.7 L 824.9 136.7 L 824.9 176.7 L 392.9 176.7 Z M 392.9 136.7 "></path></clipPath><g clip-path="url(#clip0x7ff612e5f460)"><text xml:space="preserve" font-family="HelveticaNeue,Helvetica Neue" font-size="26.0" fill="#28C439" transform="matrix(1.00, 0.00, -0.00, -1.00, 408.1, 147.0)">D</text><text xml:space="preserve" font-family="HelveticaNeue,Helvetica Neue" font-size="26.0" fill="#28C439" transform="matrix(1.00, 0.00, -0.00, -1.00, 426.4, 147.0)">i</text><text xml:space="preserve" font-family="HelveticaNeue,Helvetica Neue" font-size="26.0" fill="#28C439" transform="matrix(1.00, 0.00, -0.00, -1.00, 432.1, 147.0)">s</text><text xml:space="preserve" font-family="HelveticaNeue,Helvetica Neue" font-size="26.0" fill="#28C439" transform="matrix(1.00, 0.00, -0.00, -1.00, 445.1, 147.0)">p</text><text xml:space="preserve" font-family="HelveticaNeue,Helvetica Neue" font-size="26.0" fill="#28C439" transform="matrix(1.00, 0.00, -0.00, -1.00, 460.6, 147.0)">l</text><text xml:space="preserve" font-family="HelveticaNeue,Helvetica Neue" font-size="26.0" fill="#28C439" transform="matrix(1.00, 0.00, -0.00, -1.00, 466.3, 147.0)">a</text><text xml:space="preserve" font-family="HelveticaNeue,Helvetica Neue" font-size="26.0" fill="#28C439" transform="matrix(1.00, 0.00, -0.00, -1.00, 480.3, 147.0)">y</text></g></g></g></g><g><clipPath id="clip0x7ff612e62d80"><path d="M 392.4 177.2 L 824.9 177.2 L 824.9 136.2 L 392.4 136.2 Z M 392.4 177.2 "></path></clipPath><g clip-path="url(#clip0x7ff612e62d80)"><g><clipPath id="clip0x7ff612e634b0"><path d="M 0.0 0.0 L 826.0 0.0 L 826.0 378.0 L 0.0 378.0 Z M 0.0 0.0 "></path></clipPath><g clip-path="url(#clip0x7ff612e634b0)"><path d="M 392.5 160.6 L 392.5 377.1 " fill="none" stroke="#F7F7F7" stroke-width="0.50" transform="matrix(1.00, 0.00, 0.00, -1.00, 0.1, 378.0)"></path><path d="M 1.0 201.1 L 824.7 201.1 " fill="none" stroke="#F7F7F7" stroke-width="0.50" transform="matrix(1.00, 0.00, 0.00, -1.00, 0.1, 378.0)"></path><path d="M 1.0 241.6 L 824.7 241.6 " fill="none" stroke="#F7F7F7" stroke-width="0.50" transform="matrix(1.00, 0.00, 0.00, -1.00, 0.1, 378.0)"></path></g></g></g></g></g></g></svg>