<?xml version="1.0" encoding="UTF-8" standalone="no"?><svg xmlns="http://www.w3.org/2000/svg" xmlns:xlink="http://www.w3.org/1999/xlink" clip-rule="evenodd" stroke-miterlimit="10" viewBox="0 0 826 378"><desc>SVG generated by Keynote</desc><defs></defs><g transform="matrix(1.00, 0.00, -0.00, -1.00, 0.0, 378.0)"><g><g><clipPath id="clip0x7ff61334efb0"><path d="M 1.1 377.0 L 392.6 377.0 L 392.6 338.7 L 1.1 338.7 Z M 1.1 377.0 "></path></clipPath><g clip-path="url(#clip0x7ff61334efb0)"><g><clipPath id="clip0x7ff613351660"><path d="M 0.0 0.0 L 826.0 0.0 L 826.0 378.0 L 0.0 378.0 Z M 0.0 0.0 "></path></clipPath><g clip-path="url(#clip0x7ff613351660)"><g><g><clipPath id="clip0x7ff613358700"><path d="M 1.0 338.0 L 393.0 338.0 L 393.0 378.0 L 1.0 378.0 Z M 1.0 338.0 "></path></clipPath><g clip-path="url(#clip0x7ff613358700)"><path d="M 1.1 339.7 L 392.6 339.7 L 392.6 298.5 L 1.1 298.5 Z M 1.1 339.7 " fill="#000000" fill-opacity="0.10"></path><path d="M 392.6 339.7 L 824.9 339.7 L 824.9 298.5 L 392.6 298.5 Z M 392.6 339.7 " fill="#000000" fill-opacity="0.10"></path></g></g></g></g></g></g></g><image xlink:href="../../837DC819-474B-465B-BB7D-002C15675744/assets/5EC8361A1A285DB0E8525EF029FB7FA4.png" width="68.00" height="23.00" transform="matrix(1.00, 0.00, -0.00, -1.00, 163.0, 367.0)"></image><g><clipPath id="clip0x7ff6133513e0"><path d="M 1.1 377.0 L 392.6 377.0 L 392.6 338.7 L 1.1 338.7 Z M 1.1 377.0 "></path></clipPath><g clip-path="url(#clip0x7ff6133513e0)"><g><clipPath id="clip0x7ff613354380"><path d="M 1.1 340.7 L 392.6 340.7 L 392.6 377.0 L 1.1 377.0 Z M 1.1 340.7 "></path></clipPath><g clip-path="url(#clip0x7ff613354380)"><text xml:space="preserve" font-family="HelveticaNeue-Medium,Helvetica Neue" font-size="24.0" fill="#609AE2" transform="matrix(1.00, 0.00, -0.00, -1.00, 164.4, 349.9)">U</text><text xml:space="preserve" font-family="HelveticaNeue-Medium,Helvetica Neue" font-size="24.0" fill="#609AE2" transform="matrix(1.00, 0.00, -0.00, -1.00, 181.8, 349.9)">S</text><text xml:space="preserve" font-family="HelveticaNeue-Medium,Helvetica Neue" font-size="24.0" fill="#609AE2" transform="matrix(1.00, 0.00, -0.00, -1.00, 197.3, 349.9)">E</text><text xml:space="preserve" font-family="HelveticaNeue-Medium,Helvetica Neue" font-size="24.0" fill="#609AE2" transform="matrix(1.00, 0.00, -0.00, -1.00, 212.4, 349.9)">R</text></g></g></g></g><g><clipPath id="clip0x7ff61335f380"><path d="M 1.1 377.0 L 392.6 377.0 L 392.6 338.7 L 1.1 338.7 Z M 1.1 377.0 "></path></clipPath><g clip-path="url(#clip0x7ff61335f380)"><g><clipPath id="clip0x7ff61334a360"><path d="M 0.0 0.0 L 826.0 0.0 L 826.0 378.0 L 0.0 378.0 Z M 0.0 0.0 "></path></clipPath><g clip-path="url(#clip0x7ff61334a360)"><path d="M 392.5 37.3 L 392.5 79.6 " fill="none" stroke="#F7F7F7" stroke-width="0.50" transform="matrix(1.00, 0.00, 0.00, -1.00, 0.1, 378.0)"></path><path d="M 1.0 38.3 L 824.7 38.3 " fill="none" stroke="#EFEFEF" stroke-width="2.00" transform="matrix(1.00, 0.00, 0.00, -1.00, 0.1, 378.0)"></path></g></g></g></g><g><clipPath id="clip0x7ff613345c40"><path d="M 392.6 377.0 L 824.9 377.0 L 824.9 338.7 L 392.6 338.7 Z M 392.6 377.0 "></path></clipPath><g clip-path="url(#clip0x7ff613345c40)"><g><clipPath id="clip0x7ff61335a6e0"><path d="M 0.0 0.0 L 826.0 0.0 L 826.0 378.0 L 0.0 378.0 Z M 0.0 0.0 "></path></clipPath><g clip-path="url(#clip0x7ff61335a6e0)"><g><g><clipPath id="clip0x7ff6133463a0"><path d="M 392.0 338.0 L 825.0 338.0 L 825.0 378.0 L 392.0 378.0 Z M 392.0 338.0 "></path></clipPath><g clip-path="url(#clip0x7ff6133463a0)"><path d="M 1.1 339.7 L 392.6 339.7 L 392.6 298.5 L 1.1 298.5 Z M 1.1 339.7 " fill="#000000" fill-opacity="0.10"></path><path d="M 392.6 339.7 L 824.9 339.7 L 824.9 298.5 L 392.6 298.5 Z M 392.6 339.7 " fill="#000000" fill-opacity="0.10"></path></g></g></g></g></g></g></g><image xlink:href="../../837DC819-474B-465B-BB7D-002C15675744/assets/3038D2FAA0A216642B66B022C9A573D6.png" width="190.00" height="24.00" transform="matrix(1.00, 0.00, -0.00, -1.00, 513.0, 367.0)"></image><g><clipPath id="clip0x7ff613367d50"><path d="M 392.6 377.0 L 824.9 377.0 L 824.9 338.7 L 392.6 338.7 Z M 392.6 377.0 "></path></clipPath><g clip-path="url(#clip0x7ff613367d50)"><g><clipPath id="clip0x7ff613361870"><path d="M 392.6 340.7 L 824.9 340.7 L 824.9 377.0 L 392.6 377.0 Z M 392.6 340.7 "></path></clipPath><g clip-path="url(#clip0x7ff613361870)"><text xml:space="preserve" font-family="HelveticaNeue-Medium,Helvetica Neue" font-size="24.0" fill="#28C439" transform="matrix(1.00, 0.00, -0.00, -1.00, 514.9, 349.9)">Q</text><text xml:space="preserve" font-family="HelveticaNeue-Medium,Helvetica Neue" font-size="24.0" fill="#28C439" transform="matrix(1.00, 0.00, -0.00, -1.00, 533.2, 349.9)">U</text><text xml:space="preserve" font-family="HelveticaNeue-Medium,Helvetica Neue" font-size="24.0" fill="#28C439" transform="matrix(1.00, 0.00, -0.00, -1.00, 550.5, 349.9)">I</text><text xml:space="preserve" font-family="HelveticaNeue-Medium,Helvetica Neue" font-size="24.0" fill="#28C439" transform="matrix(1.00, 0.00, -0.00, -1.00, 557.2, 349.9)">Z</text><text xml:space="preserve" font-family="HelveticaNeue-Medium,Helvetica Neue" font-size="24.0" fill="#28C439" transform="matrix(1.00, 0.00, -0.00, -1.00, 572.3, 349.9)"> </text><text xml:space="preserve" font-family="HelveticaNeue-Medium,Helvetica Neue" font-size="24.0" fill="#28C439" transform="matrix(1.00, 0.00, -0.00, -1.00, 579.0, 349.9)">P</text><text xml:space="preserve" font-family="HelveticaNeue-Medium,Helvetica Neue" font-size="24.0" fill="#28C439" transform="matrix(1.00, 0.00, -0.00, -1.00, 595.0, 349.9)">R</text><text xml:space="preserve" font-family="HelveticaNeue-Medium,Helvetica Neue" font-size="24.0" fill="#28C439" transform="matrix(1.00, 0.00, -0.00, -1.00, 611.9, 349.9)">O</text><text xml:space="preserve" font-family="HelveticaNeue-Medium,Helvetica Neue" font-size="24.0" fill="#28C439" transform="matrix(1.00, 0.00, -0.00, -1.00, 630.1, 349.9)">G</text><text xml:space="preserve" font-family="HelveticaNeue-Medium,Helvetica Neue" font-size="24.0" fill="#28C439" transform="matrix(1.00, 0.00, -0.00, -1.00, 648.3, 349.9)">R</text><text xml:space="preserve" font-family="HelveticaNeue-Medium,Helvetica Neue" font-size="24.0" fill="#28C439" transform="matrix(1.00, 0.00, -0.00, -1.00, 665.2, 349.9)">A</text><text xml:space="preserve" font-family="HelveticaNeue-Medium,Helvetica Neue" font-size="24.0" fill="#28C439" transform="matrix(1.00, 0.00, -0.00, -1.00, 681.2, 349.9)">M</text></g></g></g></g><g><clipPath id="clip0x7ff613342b20"><path d="M 392.6 377.0 L 824.9 377.0 L 824.9 338.7 L 392.6 338.7 Z M 392.6 377.0 "></path></clipPath><g clip-path="url(#clip0x7ff613342b20)"><g><clipPath id="clip0x7ff61333d3b0"><path d="M 0.0 0.0 L 826.0 0.0 L 826.0 378.0 L 0.0 378.0 Z M 0.0 0.0 "></path></clipPath><g clip-path="url(#clip0x7ff61333d3b0)"><path d="M 392.5 37.3 L 392.5 79.6 " fill="none" stroke="#F7F7F7" stroke-width="0.50" transform="matrix(1.00, 0.00, 0.00, -1.00, 0.1, 378.0)"></path><path d="M 1.0 38.3 L 824.7 38.3 " fill="none" stroke="#EFEFEF" stroke-width="2.00" transform="matrix(1.00, 0.00, 0.00, -1.00, 0.1, 378.0)"></path></g></g></g></g><g><clipPath id="clip0x7ff613340b70"><path d="M 1.1 340.7 L 392.9 340.7 L 392.9 298.2 L 1.1 298.2 Z M 1.1 340.7 "></path></clipPath><g clip-path="url(#clip0x7ff613340b70)"><g><clipPath id="clip0x7ff61334f910"><path d="M 0.0 0.0 L 826.0 0.0 L 826.0 378.0 L 0.0 378.0 Z M 0.0 0.0 "></path></clipPath><g clip-path="url(#clip0x7ff61334f910)"><g><g><clipPath id="clip0x7ff61336b8b0"><path d="M 1.0 298.0 L 393.0 298.0 L 393.0 341.0 L 1.0 341.0 Z M 1.0 298.0 "></path></clipPath><g clip-path="url(#clip0x7ff61336b8b0)"><path d="M 1.1 339.7 L 392.6 339.7 L 392.6 298.5 L 1.1 298.5 Z M 1.1 339.7 " fill="#000000" fill-opacity="0.10"></path><path d="M 392.6 339.7 L 824.9 339.7 L 824.9 298.5 L 392.6 298.5 Z M 392.6 339.7 " fill="#000000" fill-opacity="0.10"></path><path d="M 1.1 298.5 L 392.6 298.5 L 392.6 258.0 L 1.1 258.0 Z M 1.1 298.5 " fill="#000000" fill-opacity="0.10"></path><path d="M 392.6 298.5 L 824.9 298.5 L 824.9 258.0 L 392.6 258.0 Z M 392.6 298.5 " fill="#000000" fill-opacity="0.10"></path></g></g></g></g></g></g></g><image xlink:href="../../837DC819-474B-465B-BB7D-002C15675744/assets/695EC752D77851F1A8F1AE595929B558.png" width="62.00" height="25.00" transform="matrix(1.00, 0.00, -0.00, -1.00, 32.0, 329.0)"></image><g><clipPath id="clip0x7ff61336e3b0"><path d="M 1.1 340.7 L 392.9 340.7 L 392.9 298.2 L 1.1 298.2 Z M 1.1 340.7 "></path></clipPath><g clip-path="url(#clip0x7ff61336e3b0)"><g><clipPath id="clip0x7ff61336f000"><path d="M 1.1 298.7 L 392.4 298.7 L 392.4 338.7 L 1.1 338.7 Z M 1.1 298.7 "></path></clipPath><g clip-path="url(#clip0x7ff61336f000)"><text xml:space="preserve" font-family="HelveticaNeue,Helvetica Neue" font-size="26.0" fill="#609AE2" transform="matrix(1.00, 0.00, -0.00, -1.00, 34.0, 309.0)">C</text><text xml:space="preserve" font-family="HelveticaNeue,Helvetica Neue" font-size="26.0" fill="#609AE2" transform="matrix(1.00, 0.00, -0.00, -1.00, 52.8, 309.0)">l</text><text xml:space="preserve" font-family="HelveticaNeue,Helvetica Neue" font-size="26.0" fill="#609AE2" transform="matrix(1.00, 0.00, -0.00, -1.00, 58.5, 309.0)">i</text><text xml:space="preserve" font-family="HelveticaNeue,Helvetica Neue" font-size="26.0" fill="#609AE2" transform="matrix(1.00, 0.00, -0.00, -1.00, 64.3, 309.0)">c</text><text xml:space="preserve" font-family="HelveticaNeue,Helvetica Neue" font-size="26.0" fill="#609AE2" transform="matrix(1.00, 0.00, -0.00, -1.00, 78.3, 309.0)">k</text></g></g></g></g><g><clipPath id="clip0x7ff613372a40"><path d="M 1.1 340.7 L 392.9 340.7 L 392.9 298.2 L 1.1 298.2 Z M 1.1 340.7 "></path></clipPath><g clip-path="url(#clip0x7ff613372a40)"><g><clipPath id="clip0x7ff613373170"><path d="M 0.0 0.0 L 826.0 0.0 L 826.0 378.0 L 0.0 378.0 Z M 0.0 0.0 "></path></clipPath><g clip-path="url(#clip0x7ff613373170)"><path d="M 392.5 37.3 L 392.5 120.1 " fill="none" stroke="#F7F7F7" stroke-width="0.50" transform="matrix(1.00, 0.00, 0.00, -1.00, 0.1, 378.0)"></path><path d="M 1.0 79.6 L 824.7 79.6 " fill="none" stroke="#F7F7F7" stroke-width="0.50" transform="matrix(1.00, 0.00, 0.00, -1.00, 0.1, 378.0)"></path><path d="M 1.0 38.3 L 824.7 38.3 " fill="none" stroke="#EFEFEF" stroke-width="2.00" transform="matrix(1.00, 0.00, 0.00, -1.00, 0.1, 378.0)"></path></g></g></g></g><g><clipPath id="clip0x7ff613375110"><path d="M 392.4 340.7 L 824.9 340.7 L 824.9 298.2 L 392.4 298.2 Z M 392.4 340.7 "></path></clipPath><g clip-path="url(#clip0x7ff613375110)"><g><clipPath id="clip0x7ff613375840"><path d="M 0.0 0.0 L 826.0 0.0 L 826.0 378.0 L 0.0 378.0 Z M 0.0 0.0 "></path></clipPath><g clip-path="url(#clip0x7ff613375840)"><g><g><clipPath id="clip0x7ff6133771c0"><path d="M 392.0 298.0 L 825.0 298.0 L 825.0 341.0 L 392.0 341.0 Z M 392.0 298.0 "></path></clipPath><g clip-path="url(#clip0x7ff6133771c0)"><path d="M 1.1 339.7 L 392.6 339.7 L 392.6 298.5 L 1.1 298.5 Z M 1.1 339.7 " fill="#000000" fill-opacity="0.10"></path><path d="M 392.6 339.7 L 824.9 339.7 L 824.9 298.5 L 392.6 298.5 Z M 392.6 339.7 " fill="#000000" fill-opacity="0.10"></path><path d="M 1.1 298.5 L 392.6 298.5 L 392.6 258.0 L 1.1 258.0 Z M 1.1 298.5 " fill="#000000" fill-opacity="0.10"></path><path d="M 392.6 298.5 L 824.9 298.5 L 824.9 258.0 L 392.6 258.0 Z M 392.6 298.5 " fill="#000000" fill-opacity="0.10"></path></g></g></g></g></g></g></g><g><clipPath id="clip0x7ff613376680"><path d="M 392.4 340.7 L 824.9 340.7 L 824.9 298.2 L 392.4 298.2 Z M 392.4 340.7 "></path></clipPath><g clip-path="url(#clip0x7ff613376680)"><g><clipPath id="clip0x7ff6133792d0"><path d="M 0.0 0.0 L 826.0 0.0 L 826.0 378.0 L 0.0 378.0 Z M 0.0 0.0 "></path></clipPath><g clip-path="url(#clip0x7ff6133792d0)"><path d="M 392.5 37.3 L 392.5 120.1 " fill="none" stroke="#F7F7F7" stroke-width="0.50" transform="matrix(1.00, 0.00, 0.00, -1.00, 0.1, 378.0)"></path><path d="M 1.0 79.6 L 824.7 79.6 " fill="none" stroke="#F7F7F7" stroke-width="0.50" transform="matrix(1.00, 0.00, 0.00, -1.00, 0.1, 378.0)"></path><path d="M 1.0 38.3 L 824.7 38.3 " fill="none" stroke="#EFEFEF" stroke-width="2.00" transform="matrix(1.00, 0.00, 0.00, -1.00, 0.1, 378.0)"></path></g></g></g></g><g><clipPath id="clip0x7ff61337b270"><path d="M 1.1 298.7 L 392.9 298.7 L 392.9 257.7 L 1.1 257.7 Z M 1.1 298.7 "></path></clipPath><g clip-path="url(#clip0x7ff61337b270)"><g><clipPath id="clip0x7ff61337b9a0"><path d="M 0.0 0.0 L 826.0 0.0 L 826.0 378.0 L 0.0 378.0 Z M 0.0 0.0 "></path></clipPath><g clip-path="url(#clip0x7ff61337b9a0)"><g><g><clipPath id="clip0x7ff61337d340"><path d="M 1.0 257.0 L 393.0 257.0 L 393.0 299.0 L 1.0 299.0 Z M 1.0 257.0 "></path></clipPath><g clip-path="url(#clip0x7ff61337d340)"><path d="M 1.1 339.7 L 392.6 339.7 L 392.6 298.5 L 1.1 298.5 Z M 1.1 339.7 " fill="#000000" fill-opacity="0.10"></path><path d="M 392.6 339.7 L 824.9 339.7 L 824.9 298.5 L 392.6 298.5 Z M 392.6 339.7 " fill="#000000" fill-opacity="0.10"></path><path d="M 1.1 298.5 L 392.6 298.5 L 392.6 258.0 L 1.1 258.0 Z M 1.1 298.5 " fill="#000000" fill-opacity="0.10"></path><path d="M 392.6 298.5 L 824.9 298.5 L 824.9 258.0 L 392.6 258.0 Z M 392.6 298.5 " fill="#000000" fill-opacity="0.10"></path><path d="M 1.1 258.0 L 392.6 258.0 L 392.6 217.5 L 1.1 217.5 Z M 1.1 258.0 " fill="#000000" fill-opacity="0.10"></path><path d="M 392.6 258.0 L 824.9 258.0 L 824.9 217.5 L 392.6 217.5 Z M 392.6 258.0 " fill="#000000" fill-opacity="0.10"></path></g></g></g></g></g></g></g><g><clipPath id="clip0x7ff61337c950"><path d="M 1.1 298.7 L 392.9 298.7 L 392.9 257.7 L 1.1 257.7 Z M 1.1 298.7 "></path></clipPath><g clip-path="url(#clip0x7ff61337c950)"><g><clipPath id="clip0x7ff61337ff40"><path d="M 0.0 0.0 L 826.0 0.0 L 826.0 378.0 L 0.0 378.0 Z M 0.0 0.0 "></path></clipPath><g clip-path="url(#clip0x7ff61337ff40)"><path d="M 392.5 38.3 L 392.5 160.6 " fill="none" stroke="#F7F7F7" stroke-width="0.50" transform="matrix(1.00, 0.00, 0.00, -1.00, 0.1, 378.0)"></path><path d="M 1.0 79.6 L 824.7 79.6 " fill="none" stroke="#F7F7F7" stroke-width="0.50" transform="matrix(1.00, 0.00, 0.00, -1.00, 0.1, 378.0)"></path><path d="M 1.0 120.1 L 824.7 120.1 " fill="none" stroke="#F7F7F7" stroke-width="0.50" transform="matrix(1.00, 0.00, 0.00, -1.00, 0.1, 378.0)"></path></g></g></g></g><g><clipPath id="clip0x7ff613381e20"><path d="M 392.4 298.7 L 824.9 298.7 L 824.9 257.7 L 392.4 257.7 Z M 392.4 298.7 "></path></clipPath><g clip-path="url(#clip0x7ff613381e20)"><g><clipPath id="clip0x7ff6133825c0"><path d="M 0.0 0.0 L 826.0 0.0 L 826.0 378.0 L 0.0 378.0 Z M 0.0 0.0 "></path></clipPath><g clip-path="url(#clip0x7ff6133825c0)"><g><g><clipPath id="clip0x7ff613383f50"><path d="M 392.0 257.0 L 825.0 257.0 L 825.0 299.0 L 392.0 299.0 Z M 392.0 257.0 "></path></clipPath><g clip-path="url(#clip0x7ff613383f50)"><path d="M 1.1 339.7 L 392.6 339.7 L 392.6 298.5 L 1.1 298.5 Z M 1.1 339.7 " fill="#000000" fill-opacity="0.10"></path><path d="M 392.6 339.7 L 824.9 339.7 L 824.9 298.5 L 392.6 298.5 Z M 392.6 339.7 " fill="#000000" fill-opacity="0.10"></path><path d="M 1.1 298.5 L 392.6 298.5 L 392.6 258.0 L 1.1 258.0 Z M 1.1 298.5 " fill="#000000" fill-opacity="0.10"></path><path d="M 392.6 298.5 L 824.9 298.5 L 824.9 258.0 L 392.6 258.0 Z M 392.6 298.5 " fill="#000000" fill-opacity="0.10"></path><path d="M 1.1 258.0 L 392.6 258.0 L 392.6 217.5 L 1.1 217.5 Z M 1.1 258.0 " fill="#000000" fill-opacity="0.10"></path><path d="M 392.6 258.0 L 824.9 258.0 L 824.9 217.5 L 392.6 217.5 Z M 392.6 258.0 " fill="#000000" fill-opacity="0.10"></path></g></g></g></g></g></g></g><image xlink:href="../../837DC819-474B-465B-BB7D-002C15675744/assets/F25BDAD63B939BF58861116B8A4380EA.png" width="88.00" height="29.00" transform="matrix(1.00, 0.00, -0.00, -1.00, 501.0, 287.0)"></image><g><clipPath id="clip0x7ff6133876d0"><path d="M 392.4 298.7 L 824.9 298.7 L 824.9 257.7 L 392.4 257.7 Z M 392.4 298.7 "></path></clipPath><g clip-path="url(#clip0x7ff6133876d0)"><g><clipPath id="clip0x7ff6133882a0"><path d="M 392.9 258.2 L 824.9 258.2 L 824.9 298.2 L 392.9 298.2 Z M 392.9 258.2 "></path></clipPath><g clip-path="url(#clip0x7ff6133882a0)"><text xml:space="preserve" font-family="HelveticaNeue,Helvetica Neue" font-size="26.0" fill="#28C439" transform="matrix(1.00, 0.00, -0.00, -1.00, 501.9, 268.5)">D</text><text xml:space="preserve" font-family="HelveticaNeue,Helvetica Neue" font-size="26.0" fill="#28C439" transform="matrix(1.00, 0.00, -0.00, -1.00, 520.3, 268.5)">i</text><text xml:space="preserve" font-family="HelveticaNeue,Helvetica Neue" font-size="26.0" fill="#28C439" transform="matrix(1.00, 0.00, -0.00, -1.00, 526.0, 268.5)">s</text><text xml:space="preserve" font-family="HelveticaNeue,Helvetica Neue" font-size="26.0" fill="#28C439" transform="matrix(1.00, 0.00, -0.00, -1.00, 539.0, 268.5)">p</text><text xml:space="preserve" font-family="HelveticaNeue,Helvetica Neue" font-size="26.0" fill="#28C439" transform="matrix(1.00, 0.00, -0.00, -1.00, 554.4, 268.5)">l</text><text xml:space="preserve" font-family="HelveticaNeue,Helvetica Neue" font-size="26.0" fill="#28C439" transform="matrix(1.00, 0.00, -0.00, -1.00, 560.2, 268.5)">a</text><text xml:space="preserve" font-family="HelveticaNeue,Helvetica Neue" font-size="26.0" fill="#28C439" transform="matrix(1.00, 0.00, -0.00, -1.00, 574.2, 268.5)">y</text></g></g></g></g><g><clipPath id="clip0x7ff61338bbc0"><path d="M 392.4 298.7 L 824.9 298.7 L 824.9 257.7 L 392.4 257.7 Z M 392.4 298.7 "></path></clipPath><g clip-path="url(#clip0x7ff61338bbc0)"><g><clipPath id="clip0x7ff61338c2f0"><path d="M 0.0 0.0 L 826.0 0.0 L 826.0 378.0 L 0.0 378.0 Z M 0.0 0.0 "></path></clipPath><g clip-path="url(#clip0x7ff61338c2f0)"><path d="M 392.5 38.3 L 392.5 160.6 " fill="none" stroke="#F7F7F7" stroke-width="0.50" transform="matrix(1.00, 0.00, 0.00, -1.00, 0.1, 378.0)"></path><path d="M 1.0 79.6 L 824.7 79.6 " fill="none" stroke="#F7F7F7" stroke-width="0.50" transform="matrix(1.00, 0.00, 0.00, -1.00, 0.1, 378.0)"></path><path d="M 1.0 120.1 L 824.7 120.1 " fill="none" stroke="#F7F7F7" stroke-width="0.50" transform="matrix(1.00, 0.00, 0.00, -1.00, 0.1, 378.0)"></path></g></g></g></g><g><clipPath id="clip0x7ff61338e1d0"><path d="M 1.1 258.2 L 392.9 258.2 L 392.9 217.2 L 1.1 217.2 Z M 1.1 258.2 "></path></clipPath><g clip-path="url(#clip0x7ff61338e1d0)"><g><clipPath id="clip0x7ff61338e900"><path d="M 0.0 0.0 L 826.0 0.0 L 826.0 378.0 L 0.0 378.0 Z M 0.0 0.0 "></path></clipPath><g clip-path="url(#clip0x7ff61338e900)"><g><g><clipPath id="clip0x7ff6133902a0"><path d="M 1.0 217.0 L 393.0 217.0 L 393.0 259.0 L 1.0 259.0 Z M 1.0 217.0 "></path></clipPath><g clip-path="url(#clip0x7ff6133902a0)"><path d="M 1.1 298.5 L 392.6 298.5 L 392.6 258.0 L 1.1 258.0 Z M 1.1 298.5 " fill="#000000" fill-opacity="0.10"></path><path d="M 392.6 298.5 L 824.9 298.5 L 824.9 258.0 L 392.6 258.0 Z M 392.6 298.5 " fill="#000000" fill-opacity="0.10"></path><path d="M 1.1 258.0 L 392.6 258.0 L 392.6 217.5 L 1.1 217.5 Z M 1.1 258.0 " fill="#000000" fill-opacity="0.10"></path><path d="M 392.6 258.0 L 824.9 258.0 L 824.9 217.5 L 392.6 217.5 Z M 392.6 258.0 " fill="#000000" fill-opacity="0.10"></path><path d="M 1.1 217.5 L 392.6 217.5 L 392.6 177.0 L 1.1 177.0 Z M 1.1 217.5 " fill="#000000" fill-opacity="0.10"></path><path d="M 392.6 217.5 L 824.9 217.5 L 824.9 177.0 L 392.6 177.0 Z M 392.6 217.5 " fill="#000000" fill-opacity="0.10"></path></g></g></g></g></g></g></g><g><clipPath id="clip0x7ff61338f8b0"><path d="M 1.1 258.2 L 392.9 258.2 L 392.9 217.2 L 1.1 217.2 Z M 1.1 258.2 "></path></clipPath><g clip-path="url(#clip0x7ff61338f8b0)"><g><clipPath id="clip0x7ff613392ea0"><path d="M 0.0 0.0 L 826.0 0.0 L 826.0 378.0 L 0.0 378.0 Z M 0.0 0.0 "></path></clipPath><g clip-path="url(#clip0x7ff613392ea0)"><path d="M 392.5 79.6 L 392.5 201.1 " fill="none" stroke="#F7F7F7" stroke-width="0.50" transform="matrix(1.00, 0.00, 0.00, -1.00, 0.1, 378.0)"></path><path d="M 1.0 120.1 L 824.7 120.1 " fill="none" stroke="#F7F7F7" stroke-width="0.50" transform="matrix(1.00, 0.00, 0.00, -1.00, 0.1, 378.0)"></path><path d="M 1.0 160.6 L 824.7 160.6 " fill="none" stroke="#F7F7F7" stroke-width="0.50" transform="matrix(1.00, 0.00, 0.00, -1.00, 0.1, 378.0)"></path></g></g></g></g><g><clipPath id="clip0x7ff6120e6bc0"><path d="M 392.4 258.2 L 824.9 258.2 L 824.9 217.2 L 392.4 217.2 Z M 392.4 258.2 "></path></clipPath><g clip-path="url(#clip0x7ff6120e6bc0)"><g><clipPath id="clip0x7ff6120e72f0"><path d="M 0.0 0.0 L 826.0 0.0 L 826.0 378.0 L 0.0 378.0 Z M 0.0 0.0 "></path></clipPath><g clip-path="url(#clip0x7ff6120e72f0)"><g><g><clipPath id="clip0x7ff6120e8c90"><path d="M 392.0 217.0 L 825.0 217.0 L 825.0 259.0 L 392.0 259.0 Z M 392.0 217.0 "></path></clipPath><g clip-path="url(#clip0x7ff6120e8c90)"><path d="M 1.1 298.5 L 392.6 298.5 L 392.6 258.0 L 1.1 258.0 Z M 1.1 298.5 " fill="#000000" fill-opacity="0.10"></path><path d="M 392.6 298.5 L 824.9 298.5 L 824.9 258.0 L 392.6 258.0 Z M 392.6 298.5 " fill="#000000" fill-opacity="0.10"></path><path d="M 1.1 258.0 L 392.6 258.0 L 392.6 217.5 L 1.1 217.5 Z M 1.1 258.0 " fill="#000000" fill-opacity="0.10"></path><path d="M 392.6 258.0 L 824.9 258.0 L 824.9 217.5 L 392.6 217.5 Z M 392.6 258.0 " fill="#000000" fill-opacity="0.10"></path><path d="M 1.1 217.5 L 392.6 217.5 L 392.6 177.0 L 1.1 177.0 Z M 1.1 217.5 " fill="#000000" fill-opacity="0.10"></path><path d="M 392.6 217.5 L 824.9 217.5 L 824.9 177.0 L 392.6 177.0 Z M 392.6 217.5 " fill="#000000" fill-opacity="0.10"></path></g></g></g></g></g></g></g><image xlink:href="../../837DC819-474B-465B-BB7D-002C15675744/assets/E261C725B3F2D3ED309BD73ABC17ADBB.png" width="137.00" height="30.00" transform="matrix(1.00, 0.00, -0.00, -1.00, 434.0, 248.0)"></image><g><clipPath id="clip0x7ff6120ec2f0"><path d="M 392.4 258.2 L 824.9 258.2 L 824.9 217.2 L 392.4 217.2 Z M 392.4 258.2 "></path></clipPath><g clip-path="url(#clip0x7ff6120ec2f0)"><g><clipPath id="clip0x7ff6120ecec0"><path d="M 392.9 217.7 L 824.9 217.7 L 824.9 257.7 L 392.9 257.7 Z M 392.9 217.7 "></path></clipPath><g clip-path="url(#clip0x7ff6120ecec0)"><text xml:space="preserve" font-family="HelveticaNeue,Helvetica Neue" font-size="26.0" fill="#28C439" transform="matrix(1.00, 0.00, -0.00, -1.00, 434.3, 228.0)">D</text><text xml:space="preserve" font-family="HelveticaNeue,Helvetica Neue" font-size="26.0" fill="#28C439" transform="matrix(1.00, 0.00, -0.00, -1.00, 452.6, 228.0)">i</text><text xml:space="preserve" font-family="HelveticaNeue,Helvetica Neue" font-size="26.0" fill="#28C439" transform="matrix(1.00, 0.00, -0.00, -1.00, 458.4, 228.0)">s</text><text xml:space="preserve" font-family="HelveticaNeue,Helvetica Neue" font-size="26.0" fill="#28C439" transform="matrix(1.00, 0.00, -0.00, -1.00, 471.4, 228.0)">p</text><text xml:space="preserve" font-family="HelveticaNeue,Helvetica Neue" font-size="26.0" fill="#28C439" transform="matrix(1.00, 0.00, -0.00, -1.00, 486.8, 228.0)">l</text><text xml:space="preserve" font-family="HelveticaNeue,Helvetica Neue" font-size="26.0" fill="#28C439" transform="matrix(1.00, 0.00, -0.00, -1.00, 492.6, 228.0)">a</text><text xml:space="preserve" font-family="HelveticaNeue,Helvetica Neue" font-size="26.0" fill="#28C439" transform="matrix(1.00, 0.00, -0.00, -1.00, 506.5, 228.0)">y</text><text xml:space="preserve" font-family="HelveticaNeue,Helvetica Neue" font-size="26.0" fill="#28C439" transform="matrix(1.00, 0.00, -0.00, -1.00, 519.5, 228.0)"> </text><text xml:space="preserve" font-family="HelveticaNeue,Helvetica Neue" font-size="26.0" fill="#28C439" transform="matrix(1.00, 0.00, -0.00, -1.00, 526.8, 228.0)">?</text><text xml:space="preserve" font-family="HelveticaNeue,Helvetica Neue" font-size="26.0" fill="#28C439" transform="matrix(1.00, 0.00, -0.00, -1.00, 541.2, 228.0)">?</text><text xml:space="preserve" font-family="HelveticaNeue,Helvetica Neue" font-size="26.0" fill="#28C439" transform="matrix(1.00, 0.00, -0.00, -1.00, 555.7, 228.0)">?</text></g></g></g></g><g><clipPath id="clip0x7ff6120f2060"><path d="M 392.4 258.2 L 824.9 258.2 L 824.9 217.2 L 392.4 217.2 Z M 392.4 258.2 "></path></clipPath><g clip-path="url(#clip0x7ff6120f2060)"><g><clipPath id="clip0x7ff6120f2790"><path d="M 0.0 0.0 L 826.0 0.0 L 826.0 378.0 L 0.0 378.0 Z M 0.0 0.0 "></path></clipPath><g clip-path="url(#clip0x7ff6120f2790)"><path d="M 392.5 79.6 L 392.5 201.1 " fill="none" stroke="#F7F7F7" stroke-width="0.50" transform="matrix(1.00, 0.00, 0.00, -1.00, 0.1, 378.0)"></path><path d="M 1.0 120.1 L 824.7 120.1 " fill="none" stroke="#F7F7F7" stroke-width="0.50" transform="matrix(1.00, 0.00, 0.00, -1.00, 0.1, 378.0)"></path><path d="M 1.0 160.6 L 824.7 160.6 " fill="none" stroke="#F7F7F7" stroke-width="0.50" transform="matrix(1.00, 0.00, 0.00, -1.00, 0.1, 378.0)"></path></g></g></g></g><g><clipPath id="clip0x7ff6120f4670"><path d="M 1.1 217.7 L 392.9 217.7 L 392.9 176.7 L 1.1 176.7 Z M 1.1 217.7 "></path></clipPath><g clip-path="url(#clip0x7ff6120f4670)"><g><clipPath id="clip0x7ff613382200"><path d="M 0.0 0.0 L 826.0 0.0 L 826.0 378.0 L 0.0 378.0 Z M 0.0 0.0 "></path></clipPath><g clip-path="url(#clip0x7ff613382200)"><g><g><clipPath id="clip0x7ff6120f67c0"><path d="M 1.0 176.0 L 393.0 176.0 L 393.0 218.0 L 1.0 218.0 Z M 1.0 176.0 "></path></clipPath><g clip-path="url(#clip0x7ff6120f67c0)"><path d="M 1.1 258.0 L 392.6 258.0 L 392.6 217.5 L 1.1 217.5 Z M 1.1 258.0 " fill="#000000" fill-opacity="0.10"></path><path d="M 392.6 258.0 L 824.9 258.0 L 824.9 217.5 L 392.6 217.5 Z M 392.6 258.0 " fill="#000000" fill-opacity="0.10"></path><path d="M 1.1 217.5 L 392.6 217.5 L 392.6 177.0 L 1.1 177.0 Z M 1.1 217.5 " fill="#000000" fill-opacity="0.10"></path><path d="M 392.6 217.5 L 824.9 217.5 L 824.9 177.0 L 392.6 177.0 Z M 392.6 217.5 " fill="#000000" fill-opacity="0.10"></path><path d="M 1.1 177.0 L 392.6 177.0 L 392.6 136.5 L 1.1 136.5 Z M 1.1 177.0 " fill="#000000" fill-opacity="0.10"></path><path d="M 392.6 177.0 L 824.9 177.0 L 824.9 136.5 L 392.6 136.5 Z M 392.6 177.0 " fill="#000000" fill-opacity="0.10"></path></g></g></g></g></g></g></g><image xlink:href="../../837DC819-474B-465B-BB7D-002C15675744/assets/CF641F33F133AD4472AF35C0872E354E.png" width="62.00" height="25.00" transform="matrix(1.00, 0.00, -0.00, -1.00, 41.0, 207.0)"></image><g><clipPath id="clip0x7ff6120f9a70"><path d="M 1.1 217.7 L 392.9 217.7 L 392.9 176.7 L 1.1 176.7 Z M 1.1 217.7 "></path></clipPath><g clip-path="url(#clip0x7ff6120f9a70)"><g><clipPath id="clip0x7ff6120fa640"><path d="M 1.1 177.2 L 392.4 177.2 L 392.4 217.2 L 1.1 217.2 Z M 1.1 177.2 "></path></clipPath><g clip-path="url(#clip0x7ff6120fa640)"><text xml:space="preserve" font-family="HelveticaNeue,Helvetica Neue" font-size="26.0" fill="#609AE2" transform="matrix(1.00, 0.00, -0.00, -1.00, 42.9, 187.5)">C</text><text xml:space="preserve" font-family="HelveticaNeue,Helvetica Neue" font-size="26.0" fill="#609AE2" transform="matrix(1.00, 0.00, -0.00, -1.00, 61.7, 187.5)">l</text><text xml:space="preserve" font-family="HelveticaNeue,Helvetica Neue" font-size="26.0" fill="#609AE2" transform="matrix(1.00, 0.00, -0.00, -1.00, 67.5, 187.5)">i</text><text xml:space="preserve" font-family="HelveticaNeue,Helvetica Neue" font-size="26.0" fill="#609AE2" transform="matrix(1.00, 0.00, -0.00, -1.00, 73.2, 187.5)">c</text><text xml:space="preserve" font-family="HelveticaNeue,Helvetica Neue" font-size="26.0" fill="#609AE2" transform="matrix(1.00, 0.00, -0.00, -1.00, 87.2, 187.5)">k</text></g></g></g></g><g><clipPath id="clip0x7ff6120cea40"><path d="M 1.1 217.7 L 392.9 217.7 L 392.9 176.7 L 1.1 176.7 Z M 1.1 217.7 "></path></clipPath><g clip-path="url(#clip0x7ff6120cea40)"><g><clipPath id="clip0x7ff6120cf170"><path d="M 0.0 0.0 L 826.0 0.0 L 826.0 378.0 L 0.0 378.0 Z M 0.0 0.0 "></path></clipPath><g clip-path="url(#clip0x7ff6120cf170)"><path d="M 392.5 120.1 L 392.5 241.6 " fill="none" stroke="#F7F7F7" stroke-width="0.50" transform="matrix(1.00, 0.00, 0.00, -1.00, 0.1, 378.0)"></path><path d="M 1.0 160.6 L 824.7 160.6 " fill="none" stroke="#F7F7F7" stroke-width="0.50" transform="matrix(1.00, 0.00, 0.00, -1.00, 0.1, 378.0)"></path><path d="M 1.0 201.1 L 824.7 201.1 " fill="none" stroke="#F7F7F7" stroke-width="0.50" transform="matrix(1.00, 0.00, 0.00, -1.00, 0.1, 378.0)"></path></g></g></g></g><g><clipPath id="clip0x7ff6120d1050"><path d="M 392.4 217.7 L 824.9 217.7 L 824.9 176.7 L 392.4 176.7 Z M 392.4 217.7 "></path></clipPath><g clip-path="url(#clip0x7ff6120d1050)"><g><clipPath id="clip0x7ff6120d1780"><path d="M 0.0 0.0 L 826.0 0.0 L 826.0 378.0 L 0.0 378.0 Z M 0.0 0.0 "></path></clipPath><g clip-path="url(#clip0x7ff6120d1780)"><g><g><clipPath id="clip0x7ff6120d3120"><path d="M 392.0 176.0 L 825.0 176.0 L 825.0 218.0 L 392.0 218.0 Z M 392.0 176.0 "></path></clipPath><g clip-path="url(#clip0x7ff6120d3120)"><path d="M 1.1 258.0 L 392.6 258.0 L 392.6 217.5 L 1.1 217.5 Z M 1.1 258.0 " fill="#000000" fill-opacity="0.10"></path><path d="M 392.6 258.0 L 824.9 258.0 L 824.9 217.5 L 392.6 217.5 Z M 392.6 258.0 " fill="#000000" fill-opacity="0.10"></path><path d="M 1.1 217.5 L 392.6 217.5 L 392.6 177.0 L 1.1 177.0 Z M 1.1 217.5 " fill="#000000" fill-opacity="0.10"></path><path d="M 392.6 217.5 L 824.9 217.5 L 824.9 177.0 L 392.6 177.0 Z M 392.6 217.5 " fill="#000000" fill-opacity="0.10"></path><path d="M 1.1 177.0 L 392.6 177.0 L 392.6 136.5 L 1.1 136.5 Z M 1.1 177.0 " fill="#000000" fill-opacity="0.10"></path><path d="M 392.6 177.0 L 824.9 177.0 L 824.9 136.5 L 392.6 136.5 Z M 392.6 177.0 " fill="#000000" fill-opacity="0.10"></path></g></g></g></g></g></g></g><g><clipPath id="clip0x7ff6120d2730"><path d="M 392.4 217.7 L 824.9 217.7 L 824.9 176.7 L 392.4 176.7 Z M 392.4 217.7 "></path></clipPath><g clip-path="url(#clip0x7ff6120d2730)"><g><clipPath id="clip0x7ff6120d5d20"><path d="M 0.0 0.0 L 826.0 0.0 L 826.0 378.0 L 0.0 378.0 Z M 0.0 0.0 "></path></clipPath><g clip-path="url(#clip0x7ff6120d5d20)"><path d="M 392.5 120.1 L 392.5 241.6 " fill="none" stroke="#F7F7F7" stroke-width="0.50" transform="matrix(1.00, 0.00, 0.00, -1.00, 0.1, 378.0)"></path><path d="M 1.0 160.6 L 824.7 160.6 " fill="none" stroke="#F7F7F7" stroke-width="0.50" transform="matrix(1.00, 0.00, 0.00, -1.00, 0.1, 378.0)"></path><path d="M 1.0 201.1 L 824.7 201.1 " fill="none" stroke="#F7F7F7" stroke-width="0.50" transform="matrix(1.00, 0.00, 0.00, -1.00, 0.1, 378.0)"></path></g></g></g></g></g></g></svg>