<?xml version="1.0" encoding="UTF-8" standalone="no"?><svg xmlns="http://www.w3.org/2000/svg" xmlns:xlink="http://www.w3.org/1999/xlink" clip-rule="evenodd" stroke-miterlimit="10" viewBox="0 0 826 43"><desc>SVG generated by Keynote</desc><defs></defs><g transform="matrix(1.00, 0.00, -0.00, -1.00, 0.0, 43.0)"><g><g><clipPath id="clip0x7ff611e33060"><path d="M 1.1 41.7 L 392.9 41.7 L 392.9 0.7 L 1.1 0.7 Z M 1.1 41.7 "></path></clipPath><g clip-path="url(#clip0x7ff611e33060)"><g><clipPath id="clip0x7ff611e27cd0"><path d="M 0.0 0.0 L 826.0 0.0 L 826.0 43.0 L 0.0 43.0 Z M 0.0 0.0 "></path></clipPath><g clip-path="url(#clip0x7ff611e27cd0)"><g><g><clipPath id="clip0x7ff611e30a30"><path d="M 1.0 0.0 L 393.0 0.0 L 393.0 42.0 L 1.0 42.0 Z M 1.0 0.0 "></path></clipPath><g clip-path="url(#clip0x7ff611e30a30)"><path d="M 1.1 82.7 L 392.6 82.7 L 392.6 41.5 L 1.1 41.5 Z M 1.1 82.7 " fill="#000000" fill-opacity="0.10"></path><path d="M 392.6 82.7 L 824.9 82.7 L 824.9 41.5 L 392.6 41.5 Z M 392.6 82.7 " fill="#000000" fill-opacity="0.10"></path><path d="M 1.1 41.5 L 392.6 41.5 L 392.6 1.0 L 1.1 1.0 Z M 1.1 41.5 " fill="#000000" fill-opacity="0.10"></path><path d="M 392.6 41.5 L 824.9 41.5 L 824.9 1.0 L 392.6 1.0 Z M 392.6 41.5 " fill="#000000" fill-opacity="0.10"></path><path d="M 1.1 1.0 L 392.6 1.0 L 392.6 -39.5 L 1.1 -39.5 Z M 1.1 1.0 " fill="#000000" fill-opacity="0.10"></path><path d="M 392.6 1.0 L 824.9 1.0 L 824.9 -39.5 L 392.6 -39.5 Z M 392.6 1.0 " fill="#000000" fill-opacity="0.10"></path></g></g></g></g></g></g></g><g><clipPath id="clip0x7ff611e30070"><path d="M 1.1 41.7 L 392.9 41.7 L 392.9 0.7 L 1.1 0.7 Z M 1.1 41.7 "></path></clipPath><g clip-path="url(#clip0x7ff611e30070)"><g><clipPath id="clip0x7ff611e2b5e0"><path d="M 0.0 0.0 L 826.0 0.0 L 826.0 43.0 L 0.0 43.0 Z M 0.0 0.0 "></path></clipPath><g clip-path="url(#clip0x7ff611e2b5e0)"><path d="M 392.5 38.3 L 392.5 160.6 " fill="none" stroke="#F7F7F7" stroke-width="0.50" transform="matrix(1.00, 0.00, 0.00, -1.00, 0.1, 121.0)"></path><path d="M 1.0 79.6 L 824.7 79.6 " fill="none" stroke="#F7F7F7" stroke-width="0.50" transform="matrix(1.00, 0.00, 0.00, -1.00, 0.1, 121.0)"></path><path d="M 1.0 120.1 L 824.7 120.1 " fill="none" stroke="#F7F7F7" stroke-width="0.50" transform="matrix(1.00, 0.00, 0.00, -1.00, 0.1, 121.0)"></path></g></g></g></g><g><clipPath id="clip0x7ff611e38210"><path d="M 392.4 41.7 L 824.9 41.7 L 824.9 0.7 L 392.4 0.7 Z M 392.4 41.7 "></path></clipPath><g clip-path="url(#clip0x7ff611e38210)"><g><clipPath id="clip0x7ff611e38940"><path d="M 0.0 0.0 L 826.0 0.0 L 826.0 43.0 L 0.0 43.0 Z M 0.0 0.0 "></path></clipPath><g clip-path="url(#clip0x7ff611e38940)"><g><g><clipPath id="clip0x7ff611e3a2e0"><path d="M 392.0 0.0 L 825.0 0.0 L 825.0 42.0 L 392.0 42.0 Z M 392.0 0.0 "></path></clipPath><g clip-path="url(#clip0x7ff611e3a2e0)"><path d="M 1.1 82.7 L 392.6 82.7 L 392.6 41.5 L 1.1 41.5 Z M 1.1 82.7 " fill="#000000" fill-opacity="0.10"></path><path d="M 392.6 82.7 L 824.9 82.7 L 824.9 41.5 L 392.6 41.5 Z M 392.6 82.7 " fill="#000000" fill-opacity="0.10"></path><path d="M 1.1 41.5 L 392.6 41.5 L 392.6 1.0 L 1.1 1.0 Z M 1.1 41.5 " fill="#000000" fill-opacity="0.10"></path><path d="M 392.6 41.5 L 824.9 41.5 L 824.9 1.0 L 392.6 1.0 Z M 392.6 41.5 " fill="#000000" fill-opacity="0.10"></path><path d="M 1.1 1.0 L 392.6 1.0 L 392.6 -39.5 L 1.1 -39.5 Z M 1.1 1.0 " fill="#000000" fill-opacity="0.10"></path><path d="M 392.6 1.0 L 824.9 1.0 L 824.9 -39.5 L 392.6 -39.5 Z M 392.6 1.0 " fill="#000000" fill-opacity="0.10"></path></g></g></g></g></g></g></g><image xlink:href="F25BDAD63B939BF58861116B8A4380EA.png" width="88.00" height="29.00" transform="matrix(1.00, 0.00, -0.00, -1.00, 501.0, 30.0)"></image><g><clipPath id="clip0x7ff611e3d800"><path d="M 392.4 41.7 L 824.9 41.7 L 824.9 0.7 L 392.4 0.7 Z M 392.4 41.7 "></path></clipPath><g clip-path="url(#clip0x7ff611e3d800)"><g><clipPath id="clip0x7ff611e3e1b0"><path d="M 392.9 1.2 L 824.9 1.2 L 824.9 41.2 L 392.9 41.2 Z M 392.9 1.2 "></path></clipPath><g clip-path="url(#clip0x7ff611e3e1b0)"><text xml:space="preserve" font-family="HelveticaNeue,Helvetica Neue" font-size="26.0" fill="#28C439" transform="matrix(1.00, 0.00, -0.00, -1.00, 501.9, 11.5)">D</text><text xml:space="preserve" font-family="HelveticaNeue,Helvetica Neue" font-size="26.0" fill="#28C439" transform="matrix(1.00, 0.00, -0.00, -1.00, 520.3, 11.5)">i</text><text xml:space="preserve" font-family="HelveticaNeue,Helvetica Neue" font-size="26.0" fill="#28C439" transform="matrix(1.00, 0.00, -0.00, -1.00, 526.0, 11.5)">s</text><text xml:space="preserve" font-family="HelveticaNeue,Helvetica Neue" font-size="26.0" fill="#28C439" transform="matrix(1.00, 0.00, -0.00, -1.00, 539.0, 11.5)">p</text><text xml:space="preserve" font-family="HelveticaNeue,Helvetica Neue" font-size="26.0" fill="#28C439" transform="matrix(1.00, 0.00, -0.00, -1.00, 554.4, 11.5)">l</text><text xml:space="preserve" font-family="HelveticaNeue,Helvetica Neue" font-size="26.0" fill="#28C439" transform="matrix(1.00, 0.00, -0.00, -1.00, 560.2, 11.5)">a</text><text xml:space="preserve" font-family="HelveticaNeue,Helvetica Neue" font-size="26.0" fill="#28C439" transform="matrix(1.00, 0.00, -0.00, -1.00, 574.2, 11.5)">y</text></g></g></g></g><g><clipPath id="clip0x7ff611e42420"><path d="M 392.4 41.7 L 824.9 41.7 L 824.9 0.7 L 392.4 0.7 Z M 392.4 41.7 "></path></clipPath><g clip-path="url(#clip0x7ff611e42420)"><g><clipPath id="clip0x7ff611e42b50"><path d="M 0.0 0.0 L 826.0 0.0 L 826.0 43.0 L 0.0 43.0 Z M 0.0 0.0 "></path></clipPath><g clip-path="url(#clip0x7ff611e42b50)"><path d="M 392.5 38.3 L 392.5 160.6 " fill="none" stroke="#F7F7F7" stroke-width="0.50" transform="matrix(1.00, 0.00, 0.00, -1.00, 0.1, 121.0)"></path><path d="M 1.0 79.6 L 824.7 79.6 " fill="none" stroke="#F7F7F7" stroke-width="0.50" transform="matrix(1.00, 0.00, 0.00, -1.00, 0.1, 121.0)"></path><path d="M 1.0 120.1 L 824.7 120.1 " fill="none" stroke="#F7F7F7" stroke-width="0.50" transform="matrix(1.00, 0.00, 0.00, -1.00, 0.1, 121.0)"></path></g></g></g></g></g></g></svg>