<?xml version="1.0" encoding="UTF-8" standalone="no"?><svg xmlns="http://www.w3.org/2000/svg" xmlns:xlink="http://www.w3.org/1999/xlink" clip-rule="evenodd" stroke-miterlimit="10" viewBox="0 0 826 378"><desc>SVG generated by Keynote</desc><defs></defs><g transform="matrix(1.00, 0.00, -0.00, -1.00, 0.0, 378.0)"><g><g><clipPath id="clip0x7ff612126d20"><path d="M 1.1 377.0 L 392.6 377.0 L 392.6 338.7 L 1.1 338.7 Z M 1.1 377.0 "></path></clipPath><g clip-path="url(#clip0x7ff612126d20)"><g><clipPath id="clip0x7ff612127580"><path d="M 0.0 0.0 L 826.0 0.0 L 826.0 378.0 L 0.0 378.0 Z M 0.0 0.0 "></path></clipPath><g clip-path="url(#clip0x7ff612127580)"><g><g><clipPath id="clip0x7ff61210ac20"><path d="M 1.0 338.0 L 393.0 338.0 L 393.0 378.0 L 1.0 378.0 Z M 1.0 338.0 "></path></clipPath><g clip-path="url(#clip0x7ff61210ac20)"><path d="M 1.1 339.7 L 392.6 339.7 L 392.6 298.5 L 1.1 298.5 Z M 1.1 339.7 " fill="#000000" fill-opacity="0.10"></path><path d="M 392.6 339.7 L 824.9 339.7 L 824.9 298.5 L 392.6 298.5 Z M 392.6 339.7 " fill="#000000" fill-opacity="0.10"></path></g></g></g></g></g></g></g><image xlink:href="../../837DC819-474B-465B-BB7D-002C15675744/assets/5EC8361A1A285DB0E8525EF029FB7FA4.png" width="68.00" height="23.00" transform="matrix(1.00, 0.00, -0.00, -1.00, 163.0, 367.0)"></image><g><clipPath id="clip0x7ff612116910"><path d="M 1.1 377.0 L 392.6 377.0 L 392.6 338.7 L 1.1 338.7 Z M 1.1 377.0 "></path></clipPath><g clip-path="url(#clip0x7ff612116910)"><g><clipPath id="clip0x7ff61210eff0"><path d="M 1.1 340.7 L 392.6 340.7 L 392.6 377.0 L 1.1 377.0 Z M 1.1 340.7 "></path></clipPath><g clip-path="url(#clip0x7ff61210eff0)"><text xml:space="preserve" font-family="HelveticaNeue-Medium,Helvetica Neue" font-size="24.0" fill="#609AE2" transform="matrix(1.00, 0.00, -0.00, -1.00, 164.4, 349.9)">U</text><text xml:space="preserve" font-family="HelveticaNeue-Medium,Helvetica Neue" font-size="24.0" fill="#609AE2" transform="matrix(1.00, 0.00, -0.00, -1.00, 181.8, 349.9)">S</text><text xml:space="preserve" font-family="HelveticaNeue-Medium,Helvetica Neue" font-size="24.0" fill="#609AE2" transform="matrix(1.00, 0.00, -0.00, -1.00, 197.3, 349.9)">E</text><text xml:space="preserve" font-family="HelveticaNeue-Medium,Helvetica Neue" font-size="24.0" fill="#609AE2" transform="matrix(1.00, 0.00, -0.00, -1.00, 212.4, 349.9)">R</text></g></g></g></g><g><clipPath id="clip0x7ff612124b30"><path d="M 1.1 377.0 L 392.6 377.0 L 392.6 338.7 L 1.1 338.7 Z M 1.1 377.0 "></path></clipPath><g clip-path="url(#clip0x7ff612124b30)"><g><clipPath id="clip0x7ff61211e550"><path d="M 0.0 0.0 L 826.0 0.0 L 826.0 378.0 L 0.0 378.0 Z M 0.0 0.0 "></path></clipPath><g clip-path="url(#clip0x7ff61211e550)"><path d="M 392.5 37.3 L 392.5 79.6 " fill="none" stroke="#F7F7F7" stroke-width="0.50" transform="matrix(1.00, 0.00, 0.00, -1.00, 0.1, 378.0)"></path><path d="M 1.0 38.3 L 824.7 38.3 " fill="none" stroke="#EFEFEF" stroke-width="2.00" transform="matrix(1.00, 0.00, 0.00, -1.00, 0.1, 378.0)"></path></g></g></g></g><g><clipPath id="clip0x7ff6121164a0"><path d="M 392.6 377.0 L 824.9 377.0 L 824.9 338.7 L 392.6 338.7 Z M 392.6 377.0 "></path></clipPath><g clip-path="url(#clip0x7ff6121164a0)"><g><clipPath id="clip0x7ff612111330"><path d="M 0.0 0.0 L 826.0 0.0 L 826.0 378.0 L 0.0 378.0 Z M 0.0 0.0 "></path></clipPath><g clip-path="url(#clip0x7ff612111330)"><g><g><clipPath id="clip0x7ff61211ddb0"><path d="M 392.0 338.0 L 825.0 338.0 L 825.0 378.0 L 392.0 378.0 Z M 392.0 338.0 "></path></clipPath><g clip-path="url(#clip0x7ff61211ddb0)"><path d="M 1.1 339.7 L 392.6 339.7 L 392.6 298.5 L 1.1 298.5 Z M 1.1 339.7 " fill="#000000" fill-opacity="0.10"></path><path d="M 392.6 339.7 L 824.9 339.7 L 824.9 298.5 L 392.6 298.5 Z M 392.6 339.7 " fill="#000000" fill-opacity="0.10"></path></g></g></g></g></g></g></g><image xlink:href="../../837DC819-474B-465B-BB7D-002C15675744/assets/3038D2FAA0A216642B66B022C9A573D6.png" width="190.00" height="24.00" transform="matrix(1.00, 0.00, -0.00, -1.00, 513.0, 367.0)"></image><g><clipPath id="clip0x7ff613751190"><path d="M 392.6 377.0 L 824.9 377.0 L 824.9 338.7 L 392.6 338.7 Z M 392.6 377.0 "></path></clipPath><g clip-path="url(#clip0x7ff613751190)"><g><clipPath id="clip0x7ff6137551a0"><path d="M 392.6 340.7 L 824.9 340.7 L 824.9 377.0 L 392.6 377.0 Z M 392.6 340.7 "></path></clipPath><g clip-path="url(#clip0x7ff6137551a0)"><text xml:space="preserve" font-family="HelveticaNeue-Medium,Helvetica Neue" font-size="24.0" fill="#28C439" transform="matrix(1.00, 0.00, -0.00, -1.00, 514.9, 349.9)">Q</text><text xml:space="preserve" font-family="HelveticaNeue-Medium,Helvetica Neue" font-size="24.0" fill="#28C439" transform="matrix(1.00, 0.00, -0.00, -1.00, 533.2, 349.9)">U</text><text xml:space="preserve" font-family="HelveticaNeue-Medium,Helvetica Neue" font-size="24.0" fill="#28C439" transform="matrix(1.00, 0.00, -0.00, -1.00, 550.5, 349.9)">I</text><text xml:space="preserve" font-family="HelveticaNeue-Medium,Helvetica Neue" font-size="24.0" fill="#28C439" transform="matrix(1.00, 0.00, -0.00, -1.00, 557.2, 349.9)">Z</text><text xml:space="preserve" font-family="HelveticaNeue-Medium,Helvetica Neue" font-size="24.0" fill="#28C439" transform="matrix(1.00, 0.00, -0.00, -1.00, 572.3, 349.9)"> </text><text xml:space="preserve" font-family="HelveticaNeue-Medium,Helvetica Neue" font-size="24.0" fill="#28C439" transform="matrix(1.00, 0.00, -0.00, -1.00, 579.0, 349.9)">P</text><text xml:space="preserve" font-family="HelveticaNeue-Medium,Helvetica Neue" font-size="24.0" fill="#28C439" transform="matrix(1.00, 0.00, -0.00, -1.00, 595.0, 349.9)">R</text><text xml:space="preserve" font-family="HelveticaNeue-Medium,Helvetica Neue" font-size="24.0" fill="#28C439" transform="matrix(1.00, 0.00, -0.00, -1.00, 611.9, 349.9)">O</text><text xml:space="preserve" font-family="HelveticaNeue-Medium,Helvetica Neue" font-size="24.0" fill="#28C439" transform="matrix(1.00, 0.00, -0.00, -1.00, 630.1, 349.9)">G</text><text xml:space="preserve" font-family="HelveticaNeue-Medium,Helvetica Neue" font-size="24.0" fill="#28C439" transform="matrix(1.00, 0.00, -0.00, -1.00, 648.3, 349.9)">R</text><text xml:space="preserve" font-family="HelveticaNeue-Medium,Helvetica Neue" font-size="24.0" fill="#28C439" transform="matrix(1.00, 0.00, -0.00, -1.00, 665.2, 349.9)">A</text><text xml:space="preserve" font-family="HelveticaNeue-Medium,Helvetica Neue" font-size="24.0" fill="#28C439" transform="matrix(1.00, 0.00, -0.00, -1.00, 681.2, 349.9)">M</text></g></g></g></g><g><clipPath id="clip0x7ff6137574d0"><path d="M 392.6 377.0 L 824.9 377.0 L 824.9 338.7 L 392.6 338.7 Z M 392.6 377.0 "></path></clipPath><g clip-path="url(#clip0x7ff6137574d0)"><g><clipPath id="clip0x7ff61371d370"><path d="M 0.0 0.0 L 826.0 0.0 L 826.0 378.0 L 0.0 378.0 Z M 0.0 0.0 "></path></clipPath><g clip-path="url(#clip0x7ff61371d370)"><path d="M 392.5 37.3 L 392.5 79.6 " fill="none" stroke="#F7F7F7" stroke-width="0.50" transform="matrix(1.00, 0.00, 0.00, -1.00, 0.1, 378.0)"></path><path d="M 1.0 38.3 L 824.7 38.3 " fill="none" stroke="#EFEFEF" stroke-width="2.00" transform="matrix(1.00, 0.00, 0.00, -1.00, 0.1, 378.0)"></path></g></g></g></g><g><clipPath id="clip0x7ff6137232c0"><path d="M 1.1 340.7 L 392.9 340.7 L 392.9 298.2 L 1.1 298.2 Z M 1.1 340.7 "></path></clipPath><g clip-path="url(#clip0x7ff6137232c0)"><g><clipPath id="clip0x7ff6137239f0"><path d="M 0.0 0.0 L 826.0 0.0 L 826.0 378.0 L 0.0 378.0 Z M 0.0 0.0 "></path></clipPath><g clip-path="url(#clip0x7ff6137239f0)"><g><g><clipPath id="clip0x7ff613751630"><path d="M 1.0 298.0 L 393.0 298.0 L 393.0 341.0 L 1.0 341.0 Z M 1.0 298.0 "></path></clipPath><g clip-path="url(#clip0x7ff613751630)"><path d="M 1.1 339.7 L 392.6 339.7 L 392.6 298.5 L 1.1 298.5 Z M 1.1 339.7 " fill="#000000" fill-opacity="0.10"></path><path d="M 392.6 339.7 L 824.9 339.7 L 824.9 298.5 L 392.6 298.5 Z M 392.6 339.7 " fill="#000000" fill-opacity="0.10"></path><path d="M 1.1 298.5 L 392.6 298.5 L 392.6 258.0 L 1.1 258.0 Z M 1.1 298.5 " fill="#000000" fill-opacity="0.10"></path><path d="M 392.6 298.5 L 824.9 298.5 L 824.9 258.0 L 392.6 258.0 Z M 392.6 298.5 " fill="#000000" fill-opacity="0.10"></path></g></g></g></g></g></g></g><image xlink:href="../../837DC819-474B-465B-BB7D-002C15675744/assets/695EC752D77851F1A8F1AE595929B558.png" width="62.00" height="25.00" transform="matrix(1.00, 0.00, -0.00, -1.00, 32.0, 329.0)"></image><g><clipPath id="clip0x7ff613729150"><path d="M 1.1 340.7 L 392.9 340.7 L 392.9 298.2 L 1.1 298.2 Z M 1.1 340.7 "></path></clipPath><g clip-path="url(#clip0x7ff613729150)"><g><clipPath id="clip0x7ff613702170"><path d="M 1.1 298.7 L 392.4 298.7 L 392.4 338.7 L 1.1 338.7 Z M 1.1 298.7 "></path></clipPath><g clip-path="url(#clip0x7ff613702170)"><text xml:space="preserve" font-family="HelveticaNeue,Helvetica Neue" font-size="26.0" fill="#609AE2" transform="matrix(1.00, 0.00, -0.00, -1.00, 34.0, 309.0)">C</text><text xml:space="preserve" font-family="HelveticaNeue,Helvetica Neue" font-size="26.0" fill="#609AE2" transform="matrix(1.00, 0.00, -0.00, -1.00, 52.8, 309.0)">l</text><text xml:space="preserve" font-family="HelveticaNeue,Helvetica Neue" font-size="26.0" fill="#609AE2" transform="matrix(1.00, 0.00, -0.00, -1.00, 58.5, 309.0)">i</text><text xml:space="preserve" font-family="HelveticaNeue,Helvetica Neue" font-size="26.0" fill="#609AE2" transform="matrix(1.00, 0.00, -0.00, -1.00, 64.3, 309.0)">c</text><text xml:space="preserve" font-family="HelveticaNeue,Helvetica Neue" font-size="26.0" fill="#609AE2" transform="matrix(1.00, 0.00, -0.00, -1.00, 78.3, 309.0)">k</text></g></g></g></g><g><clipPath id="clip0x7ff613705770"><path d="M 1.1 340.7 L 392.9 340.7 L 392.9 298.2 L 1.1 298.2 Z M 1.1 340.7 "></path></clipPath><g clip-path="url(#clip0x7ff613705770)"><g><clipPath id="clip0x7ff613705ea0"><path d="M 0.0 0.0 L 826.0 0.0 L 826.0 378.0 L 0.0 378.0 Z M 0.0 0.0 "></path></clipPath><g clip-path="url(#clip0x7ff613705ea0)"><path d="M 392.5 37.3 L 392.5 120.1 " fill="none" stroke="#F7F7F7" stroke-width="0.50" transform="matrix(1.00, 0.00, 0.00, -1.00, 0.1, 378.0)"></path><path d="M 1.0 79.6 L 824.7 79.6 " fill="none" stroke="#F7F7F7" stroke-width="0.50" transform="matrix(1.00, 0.00, 0.00, -1.00, 0.1, 378.0)"></path><path d="M 1.0 38.3 L 824.7 38.3 " fill="none" stroke="#EFEFEF" stroke-width="2.00" transform="matrix(1.00, 0.00, 0.00, -1.00, 0.1, 378.0)"></path></g></g></g></g><g><clipPath id="clip0x7ff613707e40"><path d="M 392.4 340.7 L 824.9 340.7 L 824.9 298.2 L 392.4 298.2 Z M 392.4 340.7 "></path></clipPath><g clip-path="url(#clip0x7ff613707e40)"><g><clipPath id="clip0x7ff613708570"><path d="M 0.0 0.0 L 826.0 0.0 L 826.0 378.0 L 0.0 378.0 Z M 0.0 0.0 "></path></clipPath><g clip-path="url(#clip0x7ff613708570)"><g><g><clipPath id="clip0x7ff613709ef0"><path d="M 392.0 298.0 L 825.0 298.0 L 825.0 341.0 L 392.0 341.0 Z M 392.0 298.0 "></path></clipPath><g clip-path="url(#clip0x7ff613709ef0)"><path d="M 1.1 339.7 L 392.6 339.7 L 392.6 298.5 L 1.1 298.5 Z M 1.1 339.7 " fill="#000000" fill-opacity="0.10"></path><path d="M 392.6 339.7 L 824.9 339.7 L 824.9 298.5 L 392.6 298.5 Z M 392.6 339.7 " fill="#000000" fill-opacity="0.10"></path><path d="M 1.1 298.5 L 392.6 298.5 L 392.6 258.0 L 1.1 258.0 Z M 1.1 298.5 " fill="#000000" fill-opacity="0.10"></path><path d="M 392.6 298.5 L 824.9 298.5 L 824.9 258.0 L 392.6 258.0 Z M 392.6 298.5 " fill="#000000" fill-opacity="0.10"></path></g></g></g></g></g></g></g><g><clipPath id="clip0x7ff6137093b0"><path d="M 392.4 340.7 L 824.9 340.7 L 824.9 298.2 L 392.4 298.2 Z M 392.4 340.7 "></path></clipPath><g clip-path="url(#clip0x7ff6137093b0)"><g><clipPath id="clip0x7ff61370c000"><path d="M 0.0 0.0 L 826.0 0.0 L 826.0 378.0 L 0.0 378.0 Z M 0.0 0.0 "></path></clipPath><g clip-path="url(#clip0x7ff61370c000)"><path d="M 392.5 37.3 L 392.5 120.1 " fill="none" stroke="#F7F7F7" stroke-width="0.50" transform="matrix(1.00, 0.00, 0.00, -1.00, 0.1, 378.0)"></path><path d="M 1.0 79.6 L 824.7 79.6 " fill="none" stroke="#F7F7F7" stroke-width="0.50" transform="matrix(1.00, 0.00, 0.00, -1.00, 0.1, 378.0)"></path><path d="M 1.0 38.3 L 824.7 38.3 " fill="none" stroke="#EFEFEF" stroke-width="2.00" transform="matrix(1.00, 0.00, 0.00, -1.00, 0.1, 378.0)"></path></g></g></g></g><g><clipPath id="clip0x7ff61370dfa0"><path d="M 1.1 298.7 L 392.9 298.7 L 392.9 257.7 L 1.1 257.7 Z M 1.1 298.7 "></path></clipPath><g clip-path="url(#clip0x7ff61370dfa0)"><g><clipPath id="clip0x7ff61370e6d0"><path d="M 0.0 0.0 L 826.0 0.0 L 826.0 378.0 L 0.0 378.0 Z M 0.0 0.0 "></path></clipPath><g clip-path="url(#clip0x7ff61370e6d0)"><g><g><clipPath id="clip0x7ff613710070"><path d="M 1.0 257.0 L 393.0 257.0 L 393.0 299.0 L 1.0 299.0 Z M 1.0 257.0 "></path></clipPath><g clip-path="url(#clip0x7ff613710070)"><path d="M 1.1 339.7 L 392.6 339.7 L 392.6 298.5 L 1.1 298.5 Z M 1.1 339.7 " fill="#000000" fill-opacity="0.10"></path><path d="M 392.6 339.7 L 824.9 339.7 L 824.9 298.5 L 392.6 298.5 Z M 392.6 339.7 " fill="#000000" fill-opacity="0.10"></path><path d="M 1.1 298.5 L 392.6 298.5 L 392.6 258.0 L 1.1 258.0 Z M 1.1 298.5 " fill="#000000" fill-opacity="0.10"></path><path d="M 392.6 298.5 L 824.9 298.5 L 824.9 258.0 L 392.6 258.0 Z M 392.6 298.5 " fill="#000000" fill-opacity="0.10"></path><path d="M 1.1 258.0 L 392.6 258.0 L 392.6 217.5 L 1.1 217.5 Z M 1.1 258.0 " fill="#000000" fill-opacity="0.10"></path><path d="M 392.6 258.0 L 824.9 258.0 L 824.9 217.5 L 392.6 217.5 Z M 392.6 258.0 " fill="#000000" fill-opacity="0.10"></path></g></g></g></g></g></g></g><g><clipPath id="clip0x7ff61370f680"><path d="M 1.1 298.7 L 392.9 298.7 L 392.9 257.7 L 1.1 257.7 Z M 1.1 298.7 "></path></clipPath><g clip-path="url(#clip0x7ff61370f680)"><g><clipPath id="clip0x7ff613712c70"><path d="M 0.0 0.0 L 826.0 0.0 L 826.0 378.0 L 0.0 378.0 Z M 0.0 0.0 "></path></clipPath><g clip-path="url(#clip0x7ff613712c70)"><path d="M 392.5 38.3 L 392.5 160.6 " fill="none" stroke="#F7F7F7" stroke-width="0.50" transform="matrix(1.00, 0.00, 0.00, -1.00, 0.1, 378.0)"></path><path d="M 1.0 79.6 L 824.7 79.6 " fill="none" stroke="#F7F7F7" stroke-width="0.50" transform="matrix(1.00, 0.00, 0.00, -1.00, 0.1, 378.0)"></path><path d="M 1.0 120.1 L 824.7 120.1 " fill="none" stroke="#F7F7F7" stroke-width="0.50" transform="matrix(1.00, 0.00, 0.00, -1.00, 0.1, 378.0)"></path></g></g></g></g><g><clipPath id="clip0x7ff613714b50"><path d="M 392.4 298.7 L 824.9 298.7 L 824.9 257.7 L 392.4 257.7 Z M 392.4 298.7 "></path></clipPath><g clip-path="url(#clip0x7ff613714b50)"><g><clipPath id="clip0x7ff6137152f0"><path d="M 0.0 0.0 L 826.0 0.0 L 826.0 378.0 L 0.0 378.0 Z M 0.0 0.0 "></path></clipPath><g clip-path="url(#clip0x7ff6137152f0)"><g><g><clipPath id="clip0x7ff613716c80"><path d="M 392.0 257.0 L 825.0 257.0 L 825.0 299.0 L 392.0 299.0 Z M 392.0 257.0 "></path></clipPath><g clip-path="url(#clip0x7ff613716c80)"><path d="M 1.1 339.7 L 392.6 339.7 L 392.6 298.5 L 1.1 298.5 Z M 1.1 339.7 " fill="#000000" fill-opacity="0.10"></path><path d="M 392.6 339.7 L 824.9 339.7 L 824.9 298.5 L 392.6 298.5 Z M 392.6 339.7 " fill="#000000" fill-opacity="0.10"></path><path d="M 1.1 298.5 L 392.6 298.5 L 392.6 258.0 L 1.1 258.0 Z M 1.1 298.5 " fill="#000000" fill-opacity="0.10"></path><path d="M 392.6 298.5 L 824.9 298.5 L 824.9 258.0 L 392.6 258.0 Z M 392.6 298.5 " fill="#000000" fill-opacity="0.10"></path><path d="M 1.1 258.0 L 392.6 258.0 L 392.6 217.5 L 1.1 217.5 Z M 1.1 258.0 " fill="#000000" fill-opacity="0.10"></path><path d="M 392.6 258.0 L 824.9 258.0 L 824.9 217.5 L 392.6 217.5 Z M 392.6 258.0 " fill="#000000" fill-opacity="0.10"></path></g></g></g></g></g></g></g><image xlink:href="../../837DC819-474B-465B-BB7D-002C15675744/assets/F25BDAD63B939BF58861116B8A4380EA.png" width="88.00" height="29.00" transform="matrix(1.00, 0.00, -0.00, -1.00, 501.0, 287.0)"></image><g><clipPath id="clip0x7ff61371a400"><path d="M 392.4 298.7 L 824.9 298.7 L 824.9 257.7 L 392.4 257.7 Z M 392.4 298.7 "></path></clipPath><g clip-path="url(#clip0x7ff61371a400)"><g><clipPath id="clip0x7ff61371afd0"><path d="M 392.9 258.2 L 824.9 258.2 L 824.9 298.2 L 392.9 298.2 Z M 392.9 258.2 "></path></clipPath><g clip-path="url(#clip0x7ff61371afd0)"><text xml:space="preserve" font-family="HelveticaNeue,Helvetica Neue" font-size="26.0" fill="#28C439" transform="matrix(1.00, 0.00, -0.00, -1.00, 501.9, 268.5)">D</text><text xml:space="preserve" font-family="HelveticaNeue,Helvetica Neue" font-size="26.0" fill="#28C439" transform="matrix(1.00, 0.00, -0.00, -1.00, 520.3, 268.5)">i</text><text xml:space="preserve" font-family="HelveticaNeue,Helvetica Neue" font-size="26.0" fill="#28C439" transform="matrix(1.00, 0.00, -0.00, -1.00, 526.0, 268.5)">s</text><text xml:space="preserve" font-family="HelveticaNeue,Helvetica Neue" font-size="26.0" fill="#28C439" transform="matrix(1.00, 0.00, -0.00, -1.00, 539.0, 268.5)">p</text><text xml:space="preserve" font-family="HelveticaNeue,Helvetica Neue" font-size="26.0" fill="#28C439" transform="matrix(1.00, 0.00, -0.00, -1.00, 554.4, 268.5)">l</text><text xml:space="preserve" font-family="HelveticaNeue,Helvetica Neue" font-size="26.0" fill="#28C439" transform="matrix(1.00, 0.00, -0.00, -1.00, 560.2, 268.5)">a</text><text xml:space="preserve" font-family="HelveticaNeue,Helvetica Neue" font-size="26.0" fill="#28C439" transform="matrix(1.00, 0.00, -0.00, -1.00, 574.2, 268.5)">y</text></g></g></g></g><g><clipPath id="clip0x7ff6105fa8d0"><path d="M 392.4 298.7 L 824.9 298.7 L 824.9 257.7 L 392.4 257.7 Z M 392.4 298.7 "></path></clipPath><g clip-path="url(#clip0x7ff6105fa8d0)"><g><clipPath id="clip0x7ff6105fb000"><path d="M 0.0 0.0 L 826.0 0.0 L 826.0 378.0 L 0.0 378.0 Z M 0.0 0.0 "></path></clipPath><g clip-path="url(#clip0x7ff6105fb000)"><path d="M 392.5 38.3 L 392.5 160.6 " fill="none" stroke="#F7F7F7" stroke-width="0.50" transform="matrix(1.00, 0.00, 0.00, -1.00, 0.1, 378.0)"></path><path d="M 1.0 79.6 L 824.7 79.6 " fill="none" stroke="#F7F7F7" stroke-width="0.50" transform="matrix(1.00, 0.00, 0.00, -1.00, 0.1, 378.0)"></path><path d="M 1.0 120.1 L 824.7 120.1 " fill="none" stroke="#F7F7F7" stroke-width="0.50" transform="matrix(1.00, 0.00, 0.00, -1.00, 0.1, 378.0)"></path></g></g></g></g></g></g></svg>