<?xml version="1.0" encoding="UTF-8" standalone="no"?><svg xmlns="http://www.w3.org/2000/svg" xmlns:xlink="http://www.w3.org/1999/xlink" clip-rule="evenodd" stroke-miterlimit="10" viewBox="0 0 826 43"><desc>SVG generated by Keynote</desc><defs></defs><g transform="matrix(1.00, 0.00, -0.00, -1.00, 0.0, 43.0)"><g><g><clipPath id="clip0x7ff611e6ddd0"><path d="M 1.1 41.7 L 392.9 41.7 L 392.9 0.7 L 1.1 0.7 Z M 1.1 41.7 "></path></clipPath><g clip-path="url(#clip0x7ff611e6ddd0)"><g><clipPath id="clip0x7ff611e6e500"><path d="M 0.0 0.0 L 826.0 0.0 L 826.0 43.0 L 0.0 43.0 Z M 0.0 0.0 "></path></clipPath><g clip-path="url(#clip0x7ff611e6e500)"><g><g><clipPath id="clip0x7ff611e6dd40"><path d="M 1.0 0.0 L 393.0 0.0 L 393.0 42.0 L 1.0 42.0 Z M 1.0 0.0 "></path></clipPath><g clip-path="url(#clip0x7ff611e6dd40)"><path d="M 1.1 82.0 L 392.6 82.0 L 392.6 41.5 L 1.1 41.5 Z M 1.1 82.0 " fill="#000000" fill-opacity="0.10"></path><path d="M 392.6 82.0 L 824.9 82.0 L 824.9 41.5 L 392.6 41.5 Z M 392.6 82.0 " fill="#000000" fill-opacity="0.10"></path><path d="M 1.1 41.5 L 392.6 41.5 L 392.6 1.0 L 1.1 1.0 Z M 1.1 41.5 " fill="#000000" fill-opacity="0.10"></path><path d="M 392.6 41.5 L 824.9 41.5 L 824.9 1.0 L 392.6 1.0 Z M 392.6 41.5 " fill="#000000" fill-opacity="0.10"></path><path d="M 1.1 1.0 L 392.6 1.0 L 392.6 -39.5 L 1.1 -39.5 Z M 1.1 1.0 " fill="#000000" fill-opacity="0.10"></path><path d="M 392.6 1.0 L 824.9 1.0 L 824.9 -39.5 L 392.6 -39.5 Z M 392.6 1.0 " fill="#000000" fill-opacity="0.10"></path></g></g></g></g></g></g></g><image xlink:href="CF641F33F133AD4472AF35C0872E354E.png" width="62.00" height="25.00" transform="matrix(1.00, 0.00, -0.00, -1.00, 41.0, 31.0)"></image><g><clipPath id="clip0x7ff611e737c0"><path d="M 1.1 41.7 L 392.9 41.7 L 392.9 0.7 L 1.1 0.7 Z M 1.1 41.7 "></path></clipPath><g clip-path="url(#clip0x7ff611e737c0)"><g><clipPath id="clip0x7ff611e74140"><path d="M 1.1 1.2 L 392.4 1.2 L 392.4 41.2 L 1.1 41.2 Z M 1.1 1.2 "></path></clipPath><g clip-path="url(#clip0x7ff611e74140)"><text xml:space="preserve" font-family="HelveticaNeue,Helvetica Neue" font-size="26.0" fill="#609AE2" transform="matrix(1.00, 0.00, -0.00, -1.00, 42.9, 11.5)">C</text><text xml:space="preserve" font-family="HelveticaNeue,Helvetica Neue" font-size="26.0" fill="#609AE2" transform="matrix(1.00, 0.00, -0.00, -1.00, 61.7, 11.5)">l</text><text xml:space="preserve" font-family="HelveticaNeue,Helvetica Neue" font-size="26.0" fill="#609AE2" transform="matrix(1.00, 0.00, -0.00, -1.00, 67.5, 11.5)">i</text><text xml:space="preserve" font-family="HelveticaNeue,Helvetica Neue" font-size="26.0" fill="#609AE2" transform="matrix(1.00, 0.00, -0.00, -1.00, 73.2, 11.5)">c</text><text xml:space="preserve" font-family="HelveticaNeue,Helvetica Neue" font-size="26.0" fill="#609AE2" transform="matrix(1.00, 0.00, -0.00, -1.00, 87.2, 11.5)">k</text></g></g></g></g><g><clipPath id="clip0x7ff611e775c0"><path d="M 1.1 41.7 L 392.9 41.7 L 392.9 0.7 L 1.1 0.7 Z M 1.1 41.7 "></path></clipPath><g clip-path="url(#clip0x7ff611e775c0)"><g><clipPath id="clip0x7ff611e77cf0"><path d="M 0.0 0.0 L 826.0 0.0 L 826.0 43.0 L 0.0 43.0 Z M 0.0 0.0 "></path></clipPath><g clip-path="url(#clip0x7ff611e77cf0)"><path d="M 392.5 120.1 L 392.5 241.6 " fill="none" stroke="#F7F7F7" stroke-width="0.50" transform="matrix(1.00, 0.00, 0.00, -1.00, 0.1, 202.0)"></path><path d="M 1.0 160.6 L 824.7 160.6 " fill="none" stroke="#F7F7F7" stroke-width="0.50" transform="matrix(1.00, 0.00, 0.00, -1.00, 0.1, 202.0)"></path><path d="M 1.0 201.1 L 824.7 201.1 " fill="none" stroke="#F7F7F7" stroke-width="0.50" transform="matrix(1.00, 0.00, 0.00, -1.00, 0.1, 202.0)"></path></g></g></g></g><g><clipPath id="clip0x7ff611e79bd0"><path d="M 392.4 41.7 L 824.9 41.7 L 824.9 0.7 L 392.4 0.7 Z M 392.4 41.7 "></path></clipPath><g clip-path="url(#clip0x7ff611e79bd0)"><g><clipPath id="clip0x7ff611e7a370"><path d="M 0.0 0.0 L 826.0 0.0 L 826.0 43.0 L 0.0 43.0 Z M 0.0 0.0 "></path></clipPath><g clip-path="url(#clip0x7ff611e7a370)"><g><g><clipPath id="clip0x7ff611e7bd00"><path d="M 392.0 0.0 L 825.0 0.0 L 825.0 42.0 L 392.0 42.0 Z M 392.0 0.0 "></path></clipPath><g clip-path="url(#clip0x7ff611e7bd00)"><path d="M 1.1 82.0 L 392.6 82.0 L 392.6 41.5 L 1.1 41.5 Z M 1.1 82.0 " fill="#000000" fill-opacity="0.10"></path><path d="M 392.6 82.0 L 824.9 82.0 L 824.9 41.5 L 392.6 41.5 Z M 392.6 82.0 " fill="#000000" fill-opacity="0.10"></path><path d="M 1.1 41.5 L 392.6 41.5 L 392.6 1.0 L 1.1 1.0 Z M 1.1 41.5 " fill="#000000" fill-opacity="0.10"></path><path d="M 392.6 41.5 L 824.9 41.5 L 824.9 1.0 L 392.6 1.0 Z M 392.6 41.5 " fill="#000000" fill-opacity="0.10"></path><path d="M 1.1 1.0 L 392.6 1.0 L 392.6 -39.5 L 1.1 -39.5 Z M 1.1 1.0 " fill="#000000" fill-opacity="0.10"></path><path d="M 392.6 1.0 L 824.9 1.0 L 824.9 -39.5 L 392.6 -39.5 Z M 392.6 1.0 " fill="#000000" fill-opacity="0.10"></path></g></g></g></g></g></g></g><g><clipPath id="clip0x7ff611e7b310"><path d="M 392.4 41.7 L 824.9 41.7 L 824.9 0.7 L 392.4 0.7 Z M 392.4 41.7 "></path></clipPath><g clip-path="url(#clip0x7ff611e7b310)"><g><clipPath id="clip0x7ff611e7e870"><path d="M 0.0 0.0 L 826.0 0.0 L 826.0 43.0 L 0.0 43.0 Z M 0.0 0.0 "></path></clipPath><g clip-path="url(#clip0x7ff611e7e870)"><path d="M 392.5 120.1 L 392.5 241.6 " fill="none" stroke="#F7F7F7" stroke-width="0.50" transform="matrix(1.00, 0.00, 0.00, -1.00, 0.1, 202.0)"></path><path d="M 1.0 160.6 L 824.7 160.6 " fill="none" stroke="#F7F7F7" stroke-width="0.50" transform="matrix(1.00, 0.00, 0.00, -1.00, 0.1, 202.0)"></path><path d="M 1.0 201.1 L 824.7 201.1 " fill="none" stroke="#F7F7F7" stroke-width="0.50" transform="matrix(1.00, 0.00, 0.00, -1.00, 0.1, 202.0)"></path></g></g></g></g></g></g></svg>