<?xml version="1.0" encoding="UTF-8" standalone="no"?><svg xmlns="http://www.w3.org/2000/svg" xmlns:xlink="http://www.w3.org/1999/xlink" clip-rule="evenodd" stroke-miterlimit="10" viewBox="0 0 826 43"><desc>SVG generated by Keynote</desc><defs></defs><g transform="matrix(1.00, 0.00, -0.00, -1.00, 0.0, 43.0)"><g><g><clipPath id="clip0x7ff611e7a800"><path d="M 1.1 42.2 L 392.9 42.2 L 392.9 1.2 L 1.1 1.2 Z M 1.1 42.2 "></path></clipPath><g clip-path="url(#clip0x7ff611e7a800)"><g><clipPath id="clip0x7ff611e00920"><path d="M 0.0 0.0 L 826.0 0.0 L 826.0 43.0 L 0.0 43.0 Z M 0.0 0.0 "></path></clipPath><g clip-path="url(#clip0x7ff611e00920)"><g><g><clipPath id="clip0x7ff611e0a6c0"><path d="M 1.0 1.0 L 393.0 1.0 L 393.0 43.0 L 1.0 43.0 Z M 1.0 1.0 "></path></clipPath><g clip-path="url(#clip0x7ff611e0a6c0)"><path d="M 1.1 82.5 L 392.6 82.5 L 392.6 42.0 L 1.1 42.0 Z M 1.1 82.5 " fill="#000000" fill-opacity="0.10"></path><path d="M 392.6 82.5 L 824.9 82.5 L 824.9 42.0 L 392.6 42.0 Z M 392.6 82.5 " fill="#000000" fill-opacity="0.10"></path><path d="M 1.1 42.0 L 392.6 42.0 L 392.6 1.5 L 1.1 1.5 Z M 1.1 42.0 " fill="#000000" fill-opacity="0.10"></path><path d="M 392.6 42.0 L 824.9 42.0 L 824.9 1.5 L 392.6 1.5 Z M 392.6 42.0 " fill="#000000" fill-opacity="0.10"></path><path d="M 1.1 1.5 L 392.6 1.5 L 392.6 -134.0 L 1.1 -134.0 Z M 1.1 1.5 " fill="#000000" fill-opacity="0.10"></path><path d="M 392.6 1.5 L 824.9 1.5 L 824.9 -134.0 L 392.6 -134.0 Z M 392.6 1.5 " fill="#000000" fill-opacity="0.10"></path></g></g></g></g></g></g></g><g><clipPath id="clip0x7ff611e08320"><path d="M 1.1 42.2 L 392.9 42.2 L 392.9 1.2 L 1.1 1.2 Z M 1.1 42.2 "></path></clipPath><g clip-path="url(#clip0x7ff611e08320)"><g><clipPath id="clip0x7ff611e0d8f0"><path d="M 0.0 0.0 L 826.0 0.0 L 826.0 43.0 L 0.0 43.0 Z M 0.0 0.0 "></path></clipPath><g clip-path="url(#clip0x7ff611e0d8f0)"><path d="M 392.5 160.6 L 392.5 377.1 " fill="none" stroke="#F7F7F7" stroke-width="0.50" transform="matrix(1.00, 0.00, 0.00, -1.00, 0.1, 243.0)"></path><path d="M 1.0 201.1 L 824.7 201.1 " fill="none" stroke="#F7F7F7" stroke-width="0.50" transform="matrix(1.00, 0.00, 0.00, -1.00, 0.1, 243.0)"></path><path d="M 1.0 241.6 L 824.7 241.6 " fill="none" stroke="#F7F7F7" stroke-width="0.50" transform="matrix(1.00, 0.00, 0.00, -1.00, 0.1, 243.0)"></path></g></g></g></g><g><clipPath id="clip0x7ff611e0f880"><path d="M 392.4 42.2 L 824.9 42.2 L 824.9 1.2 L 392.4 1.2 Z M 392.4 42.2 "></path></clipPath><g clip-path="url(#clip0x7ff611e0f880)"><g><clipPath id="clip0x7ff611e0ffb0"><path d="M 0.0 0.0 L 826.0 0.0 L 826.0 43.0 L 0.0 43.0 Z M 0.0 0.0 "></path></clipPath><g clip-path="url(#clip0x7ff611e0ffb0)"><g><g><clipPath id="clip0x7ff611e11960"><path d="M 392.0 1.0 L 825.0 1.0 L 825.0 43.0 L 392.0 43.0 Z M 392.0 1.0 "></path></clipPath><g clip-path="url(#clip0x7ff611e11960)"><path d="M 1.1 82.5 L 392.6 82.5 L 392.6 42.0 L 1.1 42.0 Z M 1.1 82.5 " fill="#000000" fill-opacity="0.10"></path><path d="M 392.6 82.5 L 824.9 82.5 L 824.9 42.0 L 392.6 42.0 Z M 392.6 82.5 " fill="#000000" fill-opacity="0.10"></path><path d="M 1.1 42.0 L 392.6 42.0 L 392.6 1.5 L 1.1 1.5 Z M 1.1 42.0 " fill="#000000" fill-opacity="0.10"></path><path d="M 392.6 42.0 L 824.9 42.0 L 824.9 1.5 L 392.6 1.5 Z M 392.6 42.0 " fill="#000000" fill-opacity="0.10"></path><path d="M 1.1 1.5 L 392.6 1.5 L 392.6 -134.0 L 1.1 -134.0 Z M 1.1 1.5 " fill="#000000" fill-opacity="0.10"></path><path d="M 392.6 1.5 L 824.9 1.5 L 824.9 -134.0 L 392.6 -134.0 Z M 392.6 1.5 " fill="#000000" fill-opacity="0.10"></path></g></g></g></g></g></g></g><image xlink:href="2BA3C62985DD616D3E8754AA19723A69.png" width="87.00" height="29.00" transform="matrix(1.00, 0.00, -0.00, -1.00, 408.0, 31.0)"></image><g><clipPath id="clip0x7ff62ccf5330"><path d="M 392.4 42.2 L 824.9 42.2 L 824.9 1.2 L 392.4 1.2 Z M 392.4 42.2 "></path></clipPath><g clip-path="url(#clip0x7ff62ccf5330)"><g><clipPath id="clip0x7ff62ccf5ce0"><path d="M 392.9 1.7 L 824.9 1.7 L 824.9 41.7 L 392.9 41.7 Z M 392.9 1.7 "></path></clipPath><g clip-path="url(#clip0x7ff62ccf5ce0)"><text xml:space="preserve" font-family="HelveticaNeue,Helvetica Neue" font-size="26.0" fill="#28C439" transform="matrix(1.00, 0.00, -0.00, -1.00, 408.1, 12.0)">D</text><text xml:space="preserve" font-family="HelveticaNeue,Helvetica Neue" font-size="26.0" fill="#28C439" transform="matrix(1.00, 0.00, -0.00, -1.00, 426.4, 12.0)">i</text><text xml:space="preserve" font-family="HelveticaNeue,Helvetica Neue" font-size="26.0" fill="#28C439" transform="matrix(1.00, 0.00, -0.00, -1.00, 432.1, 12.0)">s</text><text xml:space="preserve" font-family="HelveticaNeue,Helvetica Neue" font-size="26.0" fill="#28C439" transform="matrix(1.00, 0.00, -0.00, -1.00, 445.1, 12.0)">p</text><text xml:space="preserve" font-family="HelveticaNeue,Helvetica Neue" font-size="26.0" fill="#28C439" transform="matrix(1.00, 0.00, -0.00, -1.00, 460.6, 12.0)">l</text><text xml:space="preserve" font-family="HelveticaNeue,Helvetica Neue" font-size="26.0" fill="#28C439" transform="matrix(1.00, 0.00, -0.00, -1.00, 466.3, 12.0)">a</text><text xml:space="preserve" font-family="HelveticaNeue,Helvetica Neue" font-size="26.0" fill="#28C439" transform="matrix(1.00, 0.00, -0.00, -1.00, 480.3, 12.0)">y</text></g></g></g></g><g><clipPath id="clip0x7ff62ccf9f50"><path d="M 392.4 42.2 L 824.9 42.2 L 824.9 1.2 L 392.4 1.2 Z M 392.4 42.2 "></path></clipPath><g clip-path="url(#clip0x7ff62ccf9f50)"><g><clipPath id="clip0x7ff62ccfa680"><path d="M 0.0 0.0 L 826.0 0.0 L 826.0 43.0 L 0.0 43.0 Z M 0.0 0.0 "></path></clipPath><g clip-path="url(#clip0x7ff62ccfa680)"><path d="M 392.5 160.6 L 392.5 377.1 " fill="none" stroke="#F7F7F7" stroke-width="0.50" transform="matrix(1.00, 0.00, 0.00, -1.00, 0.1, 243.0)"></path><path d="M 1.0 201.1 L 824.7 201.1 " fill="none" stroke="#F7F7F7" stroke-width="0.50" transform="matrix(1.00, 0.00, 0.00, -1.00, 0.1, 243.0)"></path><path d="M 1.0 241.6 L 824.7 241.6 " fill="none" stroke="#F7F7F7" stroke-width="0.50" transform="matrix(1.00, 0.00, 0.00, -1.00, 0.1, 243.0)"></path></g></g></g></g></g></g></svg>