<?xml version="1.0" encoding="UTF-8" standalone="no"?><svg xmlns="http://www.w3.org/2000/svg" xmlns:xlink="http://www.w3.org/1999/xlink" clip-rule="evenodd" stroke-miterlimit="10" viewBox="0 0 826 378"><desc>SVG generated by Keynote</desc><defs></defs><g transform="matrix(1.00, 0.00, -0.00, -1.00, 0.0, 378.0)"><g><g><clipPath id="clip0x7ff612178a00"><path d="M 1.1 377.0 L 392.6 377.0 L 392.6 338.7 L 1.1 338.7 Z M 1.1 377.0 "></path></clipPath><g clip-path="url(#clip0x7ff612178a00)"><g><clipPath id="clip0x7ff612179170"><path d="M 0.0 0.0 L 826.0 0.0 L 826.0 378.0 L 0.0 378.0 Z M 0.0 0.0 "></path></clipPath><g clip-path="url(#clip0x7ff612179170)"><g><g><clipPath id="clip0x7ff612177f50"><path d="M 1.0 338.0 L 393.0 338.0 L 393.0 378.0 L 1.0 378.0 Z M 1.0 338.0 "></path></clipPath><g clip-path="url(#clip0x7ff612177f50)"><path d="M 1.1 339.7 L 392.6 339.7 L 392.6 298.5 L 1.1 298.5 Z M 1.1 339.7 " fill="#000000" fill-opacity="0.10"></path><path d="M 392.6 339.7 L 824.9 339.7 L 824.9 298.5 L 392.6 298.5 Z M 392.6 339.7 " fill="#000000" fill-opacity="0.10"></path></g></g></g></g></g></g></g><image xlink:href="../../837DC819-474B-465B-BB7D-002C15675744/assets/5EC8361A1A285DB0E8525EF029FB7FA4.png" width="68.00" height="23.00" transform="matrix(1.00, 0.00, -0.00, -1.00, 163.0, 367.0)"></image><g><clipPath id="clip0x7ff61217d220"><path d="M 1.1 377.0 L 392.6 377.0 L 392.6 338.7 L 1.1 338.7 Z M 1.1 377.0 "></path></clipPath><g clip-path="url(#clip0x7ff61217d220)"><g><clipPath id="clip0x7ff61217de00"><path d="M 1.1 340.7 L 392.6 340.7 L 392.6 377.0 L 1.1 377.0 Z M 1.1 340.7 "></path></clipPath><g clip-path="url(#clip0x7ff61217de00)"><text xml:space="preserve" font-family="HelveticaNeue-Medium,Helvetica Neue" font-size="24.0" fill="#609AE2" transform="matrix(1.00, 0.00, -0.00, -1.00, 164.4, 349.9)">U</text><text xml:space="preserve" font-family="HelveticaNeue-Medium,Helvetica Neue" font-size="24.0" fill="#609AE2" transform="matrix(1.00, 0.00, -0.00, -1.00, 181.8, 349.9)">S</text><text xml:space="preserve" font-family="HelveticaNeue-Medium,Helvetica Neue" font-size="24.0" fill="#609AE2" transform="matrix(1.00, 0.00, -0.00, -1.00, 197.3, 349.9)">E</text><text xml:space="preserve" font-family="HelveticaNeue-Medium,Helvetica Neue" font-size="24.0" fill="#609AE2" transform="matrix(1.00, 0.00, -0.00, -1.00, 212.4, 349.9)">R</text></g></g></g></g><g><clipPath id="clip0x7ff612180ec0"><path d="M 1.1 377.0 L 392.6 377.0 L 392.6 338.7 L 1.1 338.7 Z M 1.1 377.0 "></path></clipPath><g clip-path="url(#clip0x7ff612180ec0)"><g><clipPath id="clip0x7ff6121815f0"><path d="M 0.0 0.0 L 826.0 0.0 L 826.0 378.0 L 0.0 378.0 Z M 0.0 0.0 "></path></clipPath><g clip-path="url(#clip0x7ff6121815f0)"><path d="M 392.5 37.3 L 392.5 79.6 " fill="none" stroke="#F7F7F7" stroke-width="0.50" transform="matrix(1.00, 0.00, 0.00, -1.00, 0.1, 378.0)"></path><path d="M 1.0 38.3 L 824.7 38.3 " fill="none" stroke="#EFEFEF" stroke-width="2.00" transform="matrix(1.00, 0.00, 0.00, -1.00, 0.1, 378.0)"></path></g></g></g></g><g><clipPath id="clip0x7ff612182ee0"><path d="M 392.6 377.0 L 824.9 377.0 L 824.9 338.7 L 392.6 338.7 Z M 392.6 377.0 "></path></clipPath><g clip-path="url(#clip0x7ff612182ee0)"><g><clipPath id="clip0x7ff6121835d0"><path d="M 0.0 0.0 L 826.0 0.0 L 826.0 378.0 L 0.0 378.0 Z M 0.0 0.0 "></path></clipPath><g clip-path="url(#clip0x7ff6121835d0)"><g><g><clipPath id="clip0x7ff612184f30"><path d="M 392.0 338.0 L 825.0 338.0 L 825.0 378.0 L 392.0 378.0 Z M 392.0 338.0 "></path></clipPath><g clip-path="url(#clip0x7ff612184f30)"><path d="M 1.1 339.7 L 392.6 339.7 L 392.6 298.5 L 1.1 298.5 Z M 1.1 339.7 " fill="#000000" fill-opacity="0.10"></path><path d="M 392.6 339.7 L 824.9 339.7 L 824.9 298.5 L 392.6 298.5 Z M 392.6 339.7 " fill="#000000" fill-opacity="0.10"></path></g></g></g></g></g></g></g><image xlink:href="../../837DC819-474B-465B-BB7D-002C15675744/assets/3038D2FAA0A216642B66B022C9A573D6.png" width="190.00" height="24.00" transform="matrix(1.00, 0.00, -0.00, -1.00, 513.0, 367.0)"></image><g><clipPath id="clip0x7ff612186e10"><path d="M 392.6 377.0 L 824.9 377.0 L 824.9 338.7 L 392.6 338.7 Z M 392.6 377.0 "></path></clipPath><g clip-path="url(#clip0x7ff612186e10)"><g><clipPath id="clip0x7ff612187a90"><path d="M 392.6 340.7 L 824.9 340.7 L 824.9 377.0 L 392.6 377.0 Z M 392.6 340.7 "></path></clipPath><g clip-path="url(#clip0x7ff612187a90)"><text xml:space="preserve" font-family="HelveticaNeue-Medium,Helvetica Neue" font-size="24.0" fill="#28C439" transform="matrix(1.00, 0.00, -0.00, -1.00, 514.9, 349.9)">Q</text><text xml:space="preserve" font-family="HelveticaNeue-Medium,Helvetica Neue" font-size="24.0" fill="#28C439" transform="matrix(1.00, 0.00, -0.00, -1.00, 533.2, 349.9)">U</text><text xml:space="preserve" font-family="HelveticaNeue-Medium,Helvetica Neue" font-size="24.0" fill="#28C439" transform="matrix(1.00, 0.00, -0.00, -1.00, 550.5, 349.9)">I</text><text xml:space="preserve" font-family="HelveticaNeue-Medium,Helvetica Neue" font-size="24.0" fill="#28C439" transform="matrix(1.00, 0.00, -0.00, -1.00, 557.2, 349.9)">Z</text><text xml:space="preserve" font-family="HelveticaNeue-Medium,Helvetica Neue" font-size="24.0" fill="#28C439" transform="matrix(1.00, 0.00, -0.00, -1.00, 572.3, 349.9)"> </text><text xml:space="preserve" font-family="HelveticaNeue-Medium,Helvetica Neue" font-size="24.0" fill="#28C439" transform="matrix(1.00, 0.00, -0.00, -1.00, 579.0, 349.9)">P</text><text xml:space="preserve" font-family="HelveticaNeue-Medium,Helvetica Neue" font-size="24.0" fill="#28C439" transform="matrix(1.00, 0.00, -0.00, -1.00, 595.0, 349.9)">R</text><text xml:space="preserve" font-family="HelveticaNeue-Medium,Helvetica Neue" font-size="24.0" fill="#28C439" transform="matrix(1.00, 0.00, -0.00, -1.00, 611.9, 349.9)">O</text><text xml:space="preserve" font-family="HelveticaNeue-Medium,Helvetica Neue" font-size="24.0" fill="#28C439" transform="matrix(1.00, 0.00, -0.00, -1.00, 630.1, 349.9)">G</text><text xml:space="preserve" font-family="HelveticaNeue-Medium,Helvetica Neue" font-size="24.0" fill="#28C439" transform="matrix(1.00, 0.00, -0.00, -1.00, 648.3, 349.9)">R</text><text xml:space="preserve" font-family="HelveticaNeue-Medium,Helvetica Neue" font-size="24.0" fill="#28C439" transform="matrix(1.00, 0.00, -0.00, -1.00, 665.2, 349.9)">A</text><text xml:space="preserve" font-family="HelveticaNeue-Medium,Helvetica Neue" font-size="24.0" fill="#28C439" transform="matrix(1.00, 0.00, -0.00, -1.00, 681.2, 349.9)">M</text></g></g></g></g><g><clipPath id="clip0x7ff6121030a0"><path d="M 392.6 377.0 L 824.9 377.0 L 824.9 338.7 L 392.6 338.7 Z M 392.6 377.0 "></path></clipPath><g clip-path="url(#clip0x7ff6121030a0)"><g><clipPath id="clip0x7ff6121037d0"><path d="M 0.0 0.0 L 826.0 0.0 L 826.0 378.0 L 0.0 378.0 Z M 0.0 0.0 "></path></clipPath><g clip-path="url(#clip0x7ff6121037d0)"><path d="M 392.5 37.3 L 392.5 79.6 " fill="none" stroke="#F7F7F7" stroke-width="0.50" transform="matrix(1.00, 0.00, 0.00, -1.00, 0.1, 378.0)"></path><path d="M 1.0 38.3 L 824.7 38.3 " fill="none" stroke="#EFEFEF" stroke-width="2.00" transform="matrix(1.00, 0.00, 0.00, -1.00, 0.1, 378.0)"></path></g></g></g></g></g></g></svg>