<?xml version="1.0" encoding="UTF-8" standalone="no"?><svg xmlns="http://www.w3.org/2000/svg" xmlns:xlink="http://www.w3.org/1999/xlink" clip-rule="evenodd" stroke-miterlimit="10" viewBox="0 0 720 540"><desc>SVG generated by Keynote</desc><defs></defs><g transform="matrix(1.00, 0.00, -0.00, -1.00, 0.0, 540.0)"><path d="M 0.0 540.0 L 720.0 540.0 L 720.0 0.0 L 0.0 0.0 Z M 0.0 540.0 " fill="#FFFFFF"></path><text xml:space="preserve" font-family="Tahoma,Tahoma" font-size="10.0" fill="#000000" transform="matrix(1.00, 0.00, -0.00, -1.00, 558.1, 18.0)">9</text><image xlink:href="../../F16B00DD-706B-4F1C-8329-6C3B3D840D23/assets/60E461D06A9BB9645FC3BB8AB8CF0FD1.png" width="307.00" height="37.00" transform="matrix(1.00, 0.00, -0.00, -1.00, 33.0, 457.0)"></image><text xml:space="preserve" font-family="Tahoma,Tahoma" font-size="36.0" fill="#000000" transform="matrix(1.00, 0.00, -0.00, -1.00, 33.6, 430.1)">Y</text><text xml:space="preserve" font-family="Tahoma,Tahoma" font-size="36.0" fill="#000000" transform="matrix(1.00, 0.00, -0.00, -1.00, 52.2, 430.1)">o</text><text xml:space="preserve" font-family="Tahoma,Tahoma" font-size="36.0" fill="#000000" transform="matrix(1.00, 0.00, -0.00, -1.00, 71.7, 430.1)">u</text><text xml:space="preserve" font-family="Tahoma,Tahoma" font-size="36.0" fill="#000000" transform="matrix(1.00, 0.00, -0.00, -1.00, 91.8, 430.1)">r</text><text xml:space="preserve" font-family="Tahoma,Tahoma" font-size="36.0" fill="#000000" transform="matrix(1.00, 0.00, -0.00, -1.00, 104.8, 430.1)"> </text><text xml:space="preserve" font-family="Tahoma,Tahoma" font-size="36.0" fill="#000000" transform="matrix(1.00, 0.00, -0.00, -1.00, 116.0, 430.1)">F</text><text xml:space="preserve" font-family="Tahoma,Tahoma" font-size="36.0" fill="#000000" transform="matrix(1.00, 0.00, -0.00, -1.00, 134.8, 430.1)">i</text><text xml:space="preserve" font-family="Tahoma,Tahoma" font-size="36.0" fill="#000000" transform="matrix(1.00, 0.00, -0.00, -1.00, 143.0, 430.1)">r</text><text xml:space="preserve" font-family="Tahoma,Tahoma" font-size="36.0" fill="#000000" transform="matrix(1.00, 0.00, -0.00, -1.00, 156.0, 430.1)">s</text><text xml:space="preserve" font-family="Tahoma,Tahoma" font-size="36.0" fill="#000000" transform="matrix(1.00, 0.00, -0.00, -1.00, 172.1, 430.1)">t</text><text xml:space="preserve" font-family="Tahoma,Tahoma" font-size="36.0" fill="#000000" transform="matrix(1.00, 0.00, -0.00, -1.00, 184.1, 430.1)"> </text><text xml:space="preserve" font-family="Tahoma,Tahoma" font-size="36.0" fill="#000000" transform="matrix(1.00, 0.00, -0.00, -1.00, 195.4, 430.1)">P</text><text xml:space="preserve" font-family="Tahoma,Tahoma" font-size="36.0" fill="#000000" transform="matrix(1.00, 0.00, -0.00, -1.00, 215.2, 430.1)">r</text><text xml:space="preserve" font-family="Tahoma,Tahoma" font-size="36.0" fill="#000000" transform="matrix(1.00, 0.00, -0.00, -1.00, 228.0, 430.1)">o</text><text xml:space="preserve" font-family="Tahoma,Tahoma" font-size="36.0" fill="#000000" transform="matrix(1.00, 0.00, -0.00, -1.00, 247.6, 430.1)">g</text><text xml:space="preserve" font-family="Tahoma,Tahoma" font-size="36.0" fill="#000000" transform="matrix(1.00, 0.00, -0.00, -1.00, 267.5, 430.1)">r</text><text xml:space="preserve" font-family="Tahoma,Tahoma" font-size="36.0" fill="#000000" transform="matrix(1.00, 0.00, -0.00, -1.00, 279.8, 430.1)">a</text><text xml:space="preserve" font-family="Tahoma,Tahoma" font-size="36.0" fill="#000000" transform="matrix(1.00, 0.00, -0.00, -1.00, 298.7, 430.1)">m</text><text xml:space="preserve" font-family="Tahoma,Tahoma" font-size="36.0" fill="#000000" transform="matrix(1.00, 0.00, -0.00, -1.00, 329.0, 430.1)">:</text><path d="M 0.0 0.0 L 678.0 0.0 " fill="none" stroke="#0000FF" stroke-width="6.00" stroke-linejoin="round" transform="matrix(1.00, 0.00, 0.00, -1.00, 30.0, 402.0)"></path><text xml:space="preserve" font-family="CourierNewPS-ItalicMT,Courier New" font-style="italic" font-size="20.0" fill="#0000FF" transform="matrix(1.00, 0.00, -0.00, -1.00, 33.6, 357.4)">p</text><text xml:space="preserve" font-family="CourierNewPS-ItalicMT,Courier New" font-style="italic" font-size="20.0" fill="#0000FF" transform="matrix(1.00, 0.00, -0.00, -1.00, 45.6, 357.4)">u</text><text xml:space="preserve" font-family="CourierNewPS-ItalicMT,Courier New" font-style="italic" font-size="20.0" fill="#0000FF" transform="matrix(1.00, 0.00, -0.00, -1.00, 57.6, 357.4)">b</text><text xml:space="preserve" font-family="CourierNewPS-ItalicMT,Courier New" font-style="italic" font-size="20.0" fill="#0000FF" transform="matrix(1.00, 0.00, -0.00, -1.00, 69.6, 357.4)">l</text><text xml:space="preserve" font-family="CourierNewPS-ItalicMT,Courier New" font-style="italic" font-size="20.0" fill="#0000FF" transform="matrix(1.00, 0.00, -0.00, -1.00, 81.6, 357.4)">i</text><text xml:space="preserve" font-family="CourierNewPS-ItalicMT,Courier New" font-style="italic" font-size="20.0" fill="#0000FF" transform="matrix(1.00, 0.00, -0.00, -1.00, 93.6, 357.4)">c</text><text xml:space="preserve" font-family="CourierNewPS-ItalicMT,Courier New" font-style="italic" font-size="20.0" fill="#0000FF" transform="matrix(1.00, 0.00, -0.00, -1.00, 105.6, 357.4)"> </text><text xml:space="preserve" font-family="CourierNewPS-ItalicMT,Courier New" font-style="italic" font-size="20.0" fill="#0000FF" transform="matrix(1.00, 0.00, -0.00, -1.00, 117.6, 357.4)">c</text><text xml:space="preserve" font-family="CourierNewPS-ItalicMT,Courier New" font-style="italic" font-size="20.0" fill="#0000FF" transform="matrix(1.00, 0.00, -0.00, -1.00, 129.6, 357.4)">l</text><text xml:space="preserve" font-family="CourierNewPS-ItalicMT,Courier New" font-style="italic" font-size="20.0" fill="#0000FF" transform="matrix(1.00, 0.00, -0.00, -1.00, 141.6, 357.4)">a</text><text xml:space="preserve" font-family="CourierNewPS-ItalicMT,Courier New" font-style="italic" font-size="20.0" fill="#0000FF" transform="matrix(1.00, 0.00, -0.00, -1.00, 153.6, 357.4)">s</text><text xml:space="preserve" font-family="CourierNewPS-ItalicMT,Courier New" font-style="italic" font-size="20.0" fill="#0000FF" transform="matrix(1.00, 0.00, -0.00, -1.00, 165.6, 357.4)">s</text><text xml:space="preserve" font-family="CourierNewPS-ItalicMT,Courier New" font-style="italic" font-size="20.0" fill="#0000FF" transform="matrix(1.00, 0.00, -0.00, -1.00, 177.6, 357.4)"> </text><text xml:space="preserve" font-family="CourierNewPS-ItalicMT,Courier New" font-style="italic" font-size="20.0" fill="#0000FF" transform="matrix(1.00, 0.00, -0.00, -1.00, 189.7, 357.4)">M</text><text xml:space="preserve" font-family="CourierNewPS-ItalicMT,Courier New" font-style="italic" font-size="20.0" fill="#0000FF" transform="matrix(1.00, 0.00, -0.00, -1.00, 201.7, 357.4)">y</text><text xml:space="preserve" font-family="CourierNewPS-ItalicMT,Courier New" font-style="italic" font-size="20.0" fill="#0000FF" transform="matrix(1.00, 0.00, -0.00, -1.00, 213.7, 357.4)">F</text><text xml:space="preserve" font-family="CourierNewPS-ItalicMT,Courier New" font-style="italic" font-size="20.0" fill="#0000FF" transform="matrix(1.00, 0.00, -0.00, -1.00, 225.7, 357.4)">i</text><text xml:space="preserve" font-family="CourierNewPS-ItalicMT,Courier New" font-style="italic" font-size="20.0" fill="#0000FF" transform="matrix(1.00, 0.00, -0.00, -1.00, 237.7, 357.4)">r</text><text xml:space="preserve" font-family="CourierNewPS-ItalicMT,Courier New" font-style="italic" font-size="20.0" fill="#0000FF" transform="matrix(1.00, 0.00, -0.00, -1.00, 249.7, 357.4)">s</text><text xml:space="preserve" font-family="CourierNewPS-ItalicMT,Courier New" font-style="italic" font-size="20.0" fill="#0000FF" transform="matrix(1.00, 0.00, -0.00, -1.00, 261.7, 357.4)">t</text><text xml:space="preserve" font-family="CourierNewPS-ItalicMT,Courier New" font-style="italic" font-size="20.0" fill="#0000FF" transform="matrix(1.00, 0.00, -0.00, -1.00, 273.7, 357.4)">P</text><text xml:space="preserve" font-family="CourierNewPS-ItalicMT,Courier New" font-style="italic" font-size="20.0" fill="#0000FF" transform="matrix(1.00, 0.00, -0.00, -1.00, 285.7, 357.4)">r</text><text xml:space="preserve" font-family="CourierNewPS-ItalicMT,Courier New" font-style="italic" font-size="20.0" fill="#0000FF" transform="matrix(1.00, 0.00, -0.00, -1.00, 297.7, 357.4)">o</text><text xml:space="preserve" font-family="CourierNewPS-ItalicMT,Courier New" font-style="italic" font-size="20.0" fill="#0000FF" transform="matrix(1.00, 0.00, -0.00, -1.00, 309.7, 357.4)">g</text><text xml:space="preserve" font-family="CourierNewPS-ItalicMT,Courier New" font-style="italic" font-size="20.0" fill="#0000FF" transform="matrix(1.00, 0.00, -0.00, -1.00, 321.7, 357.4)">r</text><text xml:space="preserve" font-family="CourierNewPS-ItalicMT,Courier New" font-style="italic" font-size="20.0" fill="#0000FF" transform="matrix(1.00, 0.00, -0.00, -1.00, 333.7, 357.4)">a</text><text xml:space="preserve" font-family="CourierNewPS-ItalicMT,Courier New" font-style="italic" font-size="20.0" fill="#0000FF" transform="matrix(1.00, 0.00, -0.00, -1.00, 345.7, 357.4)">m</text><text xml:space="preserve" font-family="CourierNewPS-ItalicMT,Courier New" font-style="italic" font-size="20.0" fill="#0000FF" transform="matrix(1.00, 0.00, -0.00, -1.00, 357.7, 357.4)">{</text><text xml:space="preserve" font-family="CourierNewPS-ItalicMT,Courier New" font-style="italic" font-size="20.0" fill="#0000FF" transform="matrix(1.00, 0.00, -0.00, -1.00, 369.7, 357.4)"> </text><text xml:space="preserve" font-family="CourierNewPS-ItalicMT,Courier New" font-style="italic" font-size="20.0" fill="#0000FF" transform="matrix(1.00, 0.00, -0.00, -1.00, 33.6, 311.4)"> </text><text xml:space="preserve" font-family="CourierNewPS-ItalicMT,Courier New" font-style="italic" font-size="20.0" fill="#0000FF" transform="matrix(1.00, 0.00, -0.00, -1.00, 45.6, 311.4)"> </text><text xml:space="preserve" font-family="CourierNewPS-ItalicMT,Courier New" font-style="italic" font-size="20.0" fill="#0000FF" transform="matrix(1.00, 0.00, -0.00, -1.00, 57.6, 311.4)"> </text><text xml:space="preserve" font-family="CourierNewPS-ItalicMT,Courier New" font-style="italic" font-size="20.0" fill="#0000FF" transform="matrix(1.00, 0.00, -0.00, -1.00, 69.6, 311.4)"> </text><text xml:space="preserve" font-family="CourierNewPS-ItalicMT,Courier New" font-style="italic" font-size="20.0" fill="#0000FF" transform="matrix(1.00, 0.00, -0.00, -1.00, 81.6, 311.4)">p</text><text xml:space="preserve" font-family="CourierNewPS-ItalicMT,Courier New" font-style="italic" font-size="20.0" fill="#0000FF" transform="matrix(1.00, 0.00, -0.00, -1.00, 93.6, 311.4)">u</text><text xml:space="preserve" font-family="CourierNewPS-ItalicMT,Courier New" font-style="italic" font-size="20.0" fill="#0000FF" transform="matrix(1.00, 0.00, -0.00, -1.00, 105.6, 311.4)">b</text><text xml:space="preserve" font-family="CourierNewPS-ItalicMT,Courier New" font-style="italic" font-size="20.0" fill="#0000FF" transform="matrix(1.00, 0.00, -0.00, -1.00, 117.6, 311.4)">l</text><text xml:space="preserve" font-family="CourierNewPS-ItalicMT,Courier New" font-style="italic" font-size="20.0" fill="#0000FF" transform="matrix(1.00, 0.00, -0.00, -1.00, 129.6, 311.4)">i</text><text xml:space="preserve" font-family="CourierNewPS-ItalicMT,Courier New" font-style="italic" font-size="20.0" fill="#0000FF" transform="matrix(1.00, 0.00, -0.00, -1.00, 141.6, 311.4)">c</text><text xml:space="preserve" font-family="CourierNewPS-ItalicMT,Courier New" font-style="italic" font-size="20.0" fill="#0000FF" transform="matrix(1.00, 0.00, -0.00, -1.00, 153.6, 311.4)"> </text><text xml:space="preserve" font-family="CourierNewPS-ItalicMT,Courier New" font-style="italic" font-size="20.0" fill="#0000FF" transform="matrix(1.00, 0.00, -0.00, -1.00, 165.6, 311.4)">s</text><text xml:space="preserve" font-family="CourierNewPS-ItalicMT,Courier New" font-style="italic" font-size="20.0" fill="#0000FF" transform="matrix(1.00, 0.00, -0.00, -1.00, 177.6, 311.4)">t</text><text xml:space="preserve" font-family="CourierNewPS-ItalicMT,Courier New" font-style="italic" font-size="20.0" fill="#0000FF" transform="matrix(1.00, 0.00, -0.00, -1.00, 189.7, 311.4)">a</text><text xml:space="preserve" font-family="CourierNewPS-ItalicMT,Courier New" font-style="italic" font-size="20.0" fill="#0000FF" transform="matrix(1.00, 0.00, -0.00, -1.00, 201.7, 311.4)">t</text><text xml:space="preserve" font-family="CourierNewPS-ItalicMT,Courier New" font-style="italic" font-size="20.0" fill="#0000FF" transform="matrix(1.00, 0.00, -0.00, -1.00, 213.7, 311.4)">i</text><text xml:space="preserve" font-family="CourierNewPS-ItalicMT,Courier New" font-style="italic" font-size="20.0" fill="#0000FF" transform="matrix(1.00, 0.00, -0.00, -1.00, 225.7, 311.4)">c</text><text xml:space="preserve" font-family="CourierNewPS-ItalicMT,Courier New" font-style="italic" font-size="20.0" fill="#0000FF" transform="matrix(1.00, 0.00, -0.00, -1.00, 237.7, 311.4)"> </text><text xml:space="preserve" font-family="CourierNewPS-ItalicMT,Courier New" font-style="italic" font-size="20.0" fill="#0000FF" transform="matrix(1.00, 0.00, -0.00, -1.00, 249.7, 311.4)">v</text><text xml:space="preserve" font-family="CourierNewPS-ItalicMT,Courier New" font-style="italic" font-size="20.0" fill="#0000FF" transform="matrix(1.00, 0.00, -0.00, -1.00, 261.7, 311.4)">o</text><text xml:space="preserve" font-family="CourierNewPS-ItalicMT,Courier New" font-style="italic" font-size="20.0" fill="#0000FF" transform="matrix(1.00, 0.00, -0.00, -1.00, 273.7, 311.4)">i</text><text xml:space="preserve" font-family="CourierNewPS-ItalicMT,Courier New" font-style="italic" font-size="20.0" fill="#0000FF" transform="matrix(1.00, 0.00, -0.00, -1.00, 285.7, 311.4)">d</text><text xml:space="preserve" font-family="CourierNewPS-ItalicMT,Courier New" font-style="italic" font-size="20.0" fill="#0000FF" transform="matrix(1.00, 0.00, -0.00, -1.00, 297.7, 311.4)"> </text><text xml:space="preserve" font-family="CourierNewPS-ItalicMT,Courier New" font-style="italic" font-size="20.0" fill="#0000FF" transform="matrix(1.00, 0.00, -0.00, -1.00, 309.7, 311.4)">m</text><text xml:space="preserve" font-family="CourierNewPS-ItalicMT,Courier New" font-style="italic" font-size="20.0" fill="#0000FF" transform="matrix(1.00, 0.00, -0.00, -1.00, 321.7, 311.4)">a</text><text xml:space="preserve" font-family="CourierNewPS-ItalicMT,Courier New" font-style="italic" font-size="20.0" fill="#0000FF" transform="matrix(1.00, 0.00, -0.00, -1.00, 333.7, 311.4)">i</text><text xml:space="preserve" font-family="CourierNewPS-ItalicMT,Courier New" font-style="italic" font-size="20.0" fill="#0000FF" transform="matrix(1.00, 0.00, -0.00, -1.00, 345.7, 311.4)">n</text><text xml:space="preserve" font-family="CourierNewPS-ItalicMT,Courier New" font-style="italic" font-size="20.0" fill="#0000FF" transform="matrix(1.00, 0.00, -0.00, -1.00, 357.7, 311.4)">(</text><text xml:space="preserve" font-family="CourierNewPS-ItalicMT,Courier New" font-style="italic" font-size="20.0" fill="#0000FF" transform="matrix(1.00, 0.00, -0.00, -1.00, 369.7, 311.4)">S</text><text xml:space="preserve" font-family="CourierNewPS-ItalicMT,Courier New" font-style="italic" font-size="20.0" fill="#0000FF" transform="matrix(1.00, 0.00, -0.00, -1.00, 381.7, 311.4)">t</text><text xml:space="preserve" font-family="CourierNewPS-ItalicMT,Courier New" font-style="italic" font-size="20.0" fill="#0000FF" transform="matrix(1.00, 0.00, -0.00, -1.00, 393.7, 311.4)">r</text><text xml:space="preserve" font-family="CourierNewPS-ItalicMT,Courier New" font-style="italic" font-size="20.0" fill="#0000FF" transform="matrix(1.00, 0.00, -0.00, -1.00, 405.7, 311.4)">i</text><text xml:space="preserve" font-family="CourierNewPS-ItalicMT,Courier New" font-style="italic" font-size="20.0" fill="#0000FF" transform="matrix(1.00, 0.00, -0.00, -1.00, 417.7, 311.4)">n</text><text xml:space="preserve" font-family="CourierNewPS-ItalicMT,Courier New" font-style="italic" font-size="20.0" fill="#0000FF" transform="matrix(1.00, 0.00, -0.00, -1.00, 429.7, 311.4)">g</text><text xml:space="preserve" font-family="CourierNewPS-ItalicMT,Courier New" font-style="italic" font-size="20.0" fill="#0000FF" transform="matrix(1.00, 0.00, -0.00, -1.00, 441.7, 311.4)">[</text><text xml:space="preserve" font-family="CourierNewPS-ItalicMT,Courier New" font-style="italic" font-size="20.0" fill="#0000FF" transform="matrix(1.00, 0.00, -0.00, -1.00, 453.7, 311.4)">]</text><text xml:space="preserve" font-family="CourierNewPS-ItalicMT,Courier New" font-style="italic" font-size="20.0" fill="#0000FF" transform="matrix(1.00, 0.00, -0.00, -1.00, 465.7, 311.4)"> </text><text xml:space="preserve" font-family="CourierNewPS-ItalicMT,Courier New" font-style="italic" font-size="20.0" fill="#0000FF" transform="matrix(1.00, 0.00, -0.00, -1.00, 477.7, 311.4)">a</text><text xml:space="preserve" font-family="CourierNewPS-ItalicMT,Courier New" font-style="italic" font-size="20.0" fill="#0000FF" transform="matrix(1.00, 0.00, -0.00, -1.00, 489.8, 311.4)">r</text><text xml:space="preserve" font-family="CourierNewPS-ItalicMT,Courier New" font-style="italic" font-size="20.0" fill="#0000FF" transform="matrix(1.00, 0.00, -0.00, -1.00, 501.8, 311.4)">g</text><text xml:space="preserve" font-family="CourierNewPS-ItalicMT,Courier New" font-style="italic" font-size="20.0" fill="#0000FF" transform="matrix(1.00, 0.00, -0.00, -1.00, 513.8, 311.4)">s</text><text xml:space="preserve" font-family="CourierNewPS-ItalicMT,Courier New" font-style="italic" font-size="20.0" fill="#0000FF" transform="matrix(1.00, 0.00, -0.00, -1.00, 525.8, 311.4)">)</text><text xml:space="preserve" font-family="CourierNewPS-ItalicMT,Courier New" font-style="italic" font-size="20.0" fill="#0000FF" transform="matrix(1.00, 0.00, -0.00, -1.00, 537.8, 311.4)">{</text><text xml:space="preserve" font-family="CourierNewPS-ItalicMT,Courier New" font-style="italic" font-size="20.0" fill="#0000FF" transform="matrix(1.00, 0.00, -0.00, -1.00, 549.7, 311.4)"> </text><text xml:space="preserve" font-family="CourierNewPS-ItalicMT,Courier New" font-style="italic" font-size="20.0" fill="#0000FF" transform="matrix(1.00, 0.00, -0.00, -1.00, 33.6, 288.4)"> </text><text xml:space="preserve" font-family="CourierNewPS-ItalicMT,Courier New" font-style="italic" font-size="20.0" fill="#0000FF" transform="matrix(1.00, 0.00, -0.00, -1.00, 105.6, 288.4)">S</text><text xml:space="preserve" font-family="CourierNewPS-ItalicMT,Courier New" font-style="italic" font-size="20.0" fill="#0000FF" transform="matrix(1.00, 0.00, -0.00, -1.00, 117.6, 288.4)">y</text><text xml:space="preserve" font-family="CourierNewPS-ItalicMT,Courier New" font-style="italic" font-size="20.0" fill="#0000FF" transform="matrix(1.00, 0.00, -0.00, -1.00, 129.6, 288.4)">s</text><text xml:space="preserve" font-family="CourierNewPS-ItalicMT,Courier New" font-style="italic" font-size="20.0" fill="#0000FF" transform="matrix(1.00, 0.00, -0.00, -1.00, 141.6, 288.4)">t</text><text xml:space="preserve" font-family="CourierNewPS-ItalicMT,Courier New" font-style="italic" font-size="20.0" fill="#0000FF" transform="matrix(1.00, 0.00, -0.00, -1.00, 153.6, 288.4)">e</text><text xml:space="preserve" font-family="CourierNewPS-ItalicMT,Courier New" font-style="italic" font-size="20.0" fill="#0000FF" transform="matrix(1.00, 0.00, -0.00, -1.00, 165.6, 288.4)">m</text><text xml:space="preserve" font-family="CourierNewPS-ItalicMT,Courier New" font-style="italic" font-size="20.0" fill="#0000FF" transform="matrix(1.00, 0.00, -0.00, -1.00, 177.6, 288.4)">.</text><text xml:space="preserve" font-family="CourierNewPS-ItalicMT,Courier New" font-style="italic" font-size="20.0" fill="#0000FF" transform="matrix(1.00, 0.00, -0.00, -1.00, 189.6, 288.4)">o</text><text xml:space="preserve" font-family="CourierNewPS-ItalicMT,Courier New" font-style="italic" font-size="20.0" fill="#0000FF" transform="matrix(1.00, 0.00, -0.00, -1.00, 201.6, 288.4)">u</text><text xml:space="preserve" font-family="CourierNewPS-ItalicMT,Courier New" font-style="italic" font-size="20.0" fill="#0000FF" transform="matrix(1.00, 0.00, -0.00, -1.00, 213.6, 288.4)">t</text><text xml:space="preserve" font-family="CourierNewPS-ItalicMT,Courier New" font-style="italic" font-size="20.0" fill="#0000FF" transform="matrix(1.00, 0.00, -0.00, -1.00, 225.6, 288.4)">.</text><text xml:space="preserve" font-family="CourierNewPS-ItalicMT,Courier New" font-style="italic" font-size="20.0" fill="#0000FF" transform="matrix(1.00, 0.00, -0.00, -1.00, 237.6, 288.4)">p</text><text xml:space="preserve" font-family="CourierNewPS-ItalicMT,Courier New" font-style="italic" font-size="20.0" fill="#0000FF" transform="matrix(1.00, 0.00, -0.00, -1.00, 249.6, 288.4)">r</text><text xml:space="preserve" font-family="CourierNewPS-ItalicMT,Courier New" font-style="italic" font-size="20.0" fill="#0000FF" transform="matrix(1.00, 0.00, -0.00, -1.00, 261.6, 288.4)">i</text><text xml:space="preserve" font-family="CourierNewPS-ItalicMT,Courier New" font-style="italic" font-size="20.0" fill="#0000FF" transform="matrix(1.00, 0.00, -0.00, -1.00, 273.6, 288.4)">n</text><text xml:space="preserve" font-family="CourierNewPS-ItalicMT,Courier New" font-style="italic" font-size="20.0" fill="#0000FF" transform="matrix(1.00, 0.00, -0.00, -1.00, 285.6, 288.4)">t</text><text xml:space="preserve" font-family="CourierNewPS-ItalicMT,Courier New" font-style="italic" font-size="20.0" fill="#0000FF" transform="matrix(1.00, 0.00, -0.00, -1.00, 297.6, 288.4)">l</text><text xml:space="preserve" font-family="CourierNewPS-ItalicMT,Courier New" font-style="italic" font-size="20.0" fill="#0000FF" transform="matrix(1.00, 0.00, -0.00, -1.00, 309.6, 288.4)">n</text><text xml:space="preserve" font-family="CourierNewPS-ItalicMT,Courier New" font-style="italic" font-size="20.0" fill="#0000FF" transform="matrix(1.00, 0.00, -0.00, -1.00, 321.6, 288.4)">(</text><text xml:space="preserve" font-family="CourierNewPS-ItalicMT,Courier New" font-style="italic" font-size="20.0" fill="#0000FF" transform="matrix(1.00, 0.00, -0.00, -1.00, 333.6, 288.4)">“</text><text xml:space="preserve" font-family="CourierNewPS-ItalicMT,Courier New" font-style="italic" font-size="20.0" fill="#0000FF" transform="matrix(1.00, 0.00, -0.00, -1.00, 345.6, 288.4)">H</text><text xml:space="preserve" font-family="CourierNewPS-ItalicMT,Courier New" font-style="italic" font-size="20.0" fill="#0000FF" transform="matrix(1.00, 0.00, -0.00, -1.00, 357.6, 288.4)">e</text><text xml:space="preserve" font-family="CourierNewPS-ItalicMT,Courier New" font-style="italic" font-size="20.0" fill="#0000FF" transform="matrix(1.00, 0.00, -0.00, -1.00, 369.6, 288.4)">l</text><text xml:space="preserve" font-family="CourierNewPS-ItalicMT,Courier New" font-style="italic" font-size="20.0" fill="#0000FF" transform="matrix(1.00, 0.00, -0.00, -1.00, 381.6, 288.4)">l</text><text xml:space="preserve" font-family="CourierNewPS-ItalicMT,Courier New" font-style="italic" font-size="20.0" fill="#0000FF" transform="matrix(1.00, 0.00, -0.00, -1.00, 393.6, 288.4)">o</text><text xml:space="preserve" font-family="CourierNewPS-ItalicMT,Courier New" font-style="italic" font-size="20.0" fill="#0000FF" transform="matrix(1.00, 0.00, -0.00, -1.00, 405.7, 288.4)"> </text><text xml:space="preserve" font-family="CourierNewPS-ItalicMT,Courier New" font-style="italic" font-size="20.0" fill="#0000FF" transform="matrix(1.00, 0.00, -0.00, -1.00, 417.7, 288.4)">W</text><text xml:space="preserve" font-family="CourierNewPS-ItalicMT,Courier New" font-style="italic" font-size="20.0" fill="#0000FF" transform="matrix(1.00, 0.00, -0.00, -1.00, 429.7, 288.4)">o</text><text xml:space="preserve" font-family="CourierNewPS-ItalicMT,Courier New" font-style="italic" font-size="20.0" fill="#0000FF" transform="matrix(1.00, 0.00, -0.00, -1.00, 441.7, 288.4)">r</text><text xml:space="preserve" font-family="CourierNewPS-ItalicMT,Courier New" font-style="italic" font-size="20.0" fill="#0000FF" transform="matrix(1.00, 0.00, -0.00, -1.00, 453.7, 288.4)">l</text><text xml:space="preserve" font-family="CourierNewPS-ItalicMT,Courier New" font-style="italic" font-size="20.0" fill="#0000FF" transform="matrix(1.00, 0.00, -0.00, -1.00, 465.7, 288.4)">d</text><text xml:space="preserve" font-family="CourierNewPS-ItalicMT,Courier New" font-style="italic" font-size="20.0" fill="#0000FF" transform="matrix(1.00, 0.00, -0.00, -1.00, 477.7, 288.4)">!</text><text xml:space="preserve" font-family="CourierNewPS-ItalicMT,Courier New" font-style="italic" font-size="20.0" fill="#0000FF" transform="matrix(1.00, 0.00, -0.00, -1.00, 489.7, 288.4)">”</text><text xml:space="preserve" font-family="CourierNewPS-ItalicMT,Courier New" font-style="italic" font-size="20.0" fill="#0000FF" transform="matrix(1.00, 0.00, -0.00, -1.00, 501.7, 288.4)">)</text><text xml:space="preserve" font-family="CourierNewPS-ItalicMT,Courier New" font-style="italic" font-size="20.0" fill="#0000FF" transform="matrix(1.00, 0.00, -0.00, -1.00, 513.7, 288.4)">;</text><text xml:space="preserve" font-family="CourierNewPS-ItalicMT,Courier New" font-style="italic" font-size="20.0" fill="#0000FF" transform="matrix(1.00, 0.00, -0.00, -1.00, 525.7, 288.4)"> </text><text xml:space="preserve" font-family="CourierNewPS-ItalicMT,Courier New" font-style="italic" font-size="20.0" fill="#0000FF" transform="matrix(1.00, 0.00, -0.00, -1.00, 33.6, 265.4)"> </text><text xml:space="preserve" font-family="CourierNewPS-ItalicMT,Courier New" font-style="italic" font-size="20.0" fill="#0000FF" transform="matrix(1.00, 0.00, -0.00, -1.00, 45.6, 265.4)"> </text><text xml:space="preserve" font-family="CourierNewPS-ItalicMT,Courier New" font-style="italic" font-size="20.0" fill="#0000FF" transform="matrix(1.00, 0.00, -0.00, -1.00, 57.6, 265.4)"> </text><text xml:space="preserve" font-family="CourierNewPS-ItalicMT,Courier New" font-style="italic" font-size="20.0" fill="#0000FF" transform="matrix(1.00, 0.00, -0.00, -1.00, 69.6, 265.4)"> </text><text xml:space="preserve" font-family="CourierNewPS-ItalicMT,Courier New" font-style="italic" font-size="20.0" fill="#0000FF" transform="matrix(1.00, 0.00, -0.00, -1.00, 81.6, 265.4)">}</text><text xml:space="preserve" font-family="CourierNewPS-ItalicMT,Courier New" font-style="italic" font-size="20.0" fill="#0000FF" transform="matrix(1.00, 0.00, -0.00, -1.00, 93.6, 265.4)"> </text><text xml:space="preserve" font-family="CourierNewPS-ItalicMT,Courier New" font-style="italic" font-size="20.0" fill="#0000FF" transform="matrix(1.00, 0.00, -0.00, -1.00, 33.6, 242.4)">}</text><text xml:space="preserve" font-family="Tahoma,Tahoma" font-size="11.0" fill="#7E7E7E" transform="matrix(1.00, 0.00, -0.00, -1.00, 468.7, 502.4)">C</text><text xml:space="preserve" font-family="Tahoma,Tahoma" font-size="11.0" fill="#7E7E7E" transform="matrix(1.00, 0.00, -0.00, -1.00, 475.3, 502.4)">o</text><text xml:space="preserve" font-family="Tahoma,Tahoma" font-size="11.0" fill="#7E7E7E" transform="matrix(1.00, 0.00, -0.00, -1.00, 481.3, 502.4)">p</text><text xml:space="preserve" font-family="Tahoma,Tahoma" font-size="11.0" fill="#7E7E7E" transform="matrix(1.00, 0.00, -0.00, -1.00, 487.4, 502.4)">y</text><text xml:space="preserve" font-family="Tahoma,Tahoma" font-size="11.0" fill="#7E7E7E" transform="matrix(1.00, 0.00, -0.00, -1.00, 492.8, 502.4)">r</text><text xml:space="preserve" font-family="Tahoma,Tahoma" font-size="11.0" fill="#7E7E7E" transform="matrix(1.00, 0.00, -0.00, -1.00, 496.8, 502.4)">i</text><text xml:space="preserve" font-family="Tahoma,Tahoma" font-size="11.0" fill="#7E7E7E" transform="matrix(1.00, 0.00, -0.00, -1.00, 499.3, 502.4)">g</text><text xml:space="preserve" font-family="Tahoma,Tahoma" font-size="11.0" fill="#7E7E7E" transform="matrix(1.00, 0.00, -0.00, -1.00, 505.4, 502.4)">h</text><text xml:space="preserve" font-family="Tahoma,Tahoma" font-size="11.0" fill="#7E7E7E" transform="matrix(1.00, 0.00, -0.00, -1.00, 511.5, 502.4)">t</text><text xml:space="preserve" font-family="Tahoma,Tahoma" font-size="11.0" fill="#7E7E7E" transform="matrix(1.00, 0.00, -0.00, -1.00, 515.2, 502.4)"> </text><text xml:space="preserve" font-family="Tahoma,Tahoma" font-size="11.0" fill="#7E7E7E" transform="matrix(1.00, 0.00, -0.00, -1.00, 518.6, 502.4)">©</text><text xml:space="preserve" font-family="Tahoma,Tahoma" font-size="11.0" fill="#7E7E7E" transform="matrix(1.00, 0.00, -0.00, -1.00, 528.8, 502.4)"> </text><text xml:space="preserve" font-family="Tahoma,Tahoma" font-size="11.0" fill="#7E7E7E" transform="matrix(1.00, 0.00, -0.00, -1.00, 532.3, 502.4)">T</text><text xml:space="preserve" font-family="Tahoma,Tahoma" font-size="11.0" fill="#7E7E7E" transform="matrix(1.00, 0.00, -0.00, -1.00, 537.7, 502.4)">u</text><text xml:space="preserve" font-family="Tahoma,Tahoma" font-size="11.0" fill="#7E7E7E" transform="matrix(1.00, 0.00, -0.00, -1.00, 543.8, 502.4)">a</text><text xml:space="preserve" font-family="Tahoma,Tahoma" font-size="11.0" fill="#7E7E7E" transform="matrix(1.00, 0.00, -0.00, -1.00, 549.6, 502.4)">n</text><text xml:space="preserve" font-family="Tahoma,Tahoma" font-size="11.0" fill="#7E7E7E" transform="matrix(1.00, 0.00, -0.00, -1.00, 555.7, 502.4)"> </text><text xml:space="preserve" font-family="Tahoma,Tahoma" font-size="11.0" fill="#7E7E7E" transform="matrix(1.00, 0.00, -0.00, -1.00, 559.1, 502.4)">T</text><text xml:space="preserve" font-family="Tahoma,Tahoma" font-size="11.0" fill="#7E7E7E" transform="matrix(1.00, 0.00, -0.00, -1.00, 564.5, 502.4)">r</text><text xml:space="preserve" font-family="Tahoma,Tahoma" font-size="11.0" fill="#7E7E7E" transform="matrix(1.00, 0.00, -0.00, -1.00, 568.3, 502.4)">a</text><text xml:space="preserve" font-family="Tahoma,Tahoma" font-size="11.0" fill="#7E7E7E" transform="matrix(1.00, 0.00, -0.00, -1.00, 574.1, 502.4)">n</text><text xml:space="preserve" font-family="Tahoma,Tahoma" font-size="11.0" fill="#7E7E7E" transform="matrix(1.00, 0.00, -0.00, -1.00, 580.2, 502.4)"> </text><text xml:space="preserve" font-family="Tahoma,Tahoma" font-size="11.0" fill="#7E7E7E" transform="matrix(1.00, 0.00, -0.00, -1.00, 583.7, 502.4)">2</text><text xml:space="preserve" font-family="Tahoma,Tahoma" font-size="11.0" fill="#7E7E7E" transform="matrix(1.00, 0.00, -0.00, -1.00, 589.7, 502.4)">0</text><text xml:space="preserve" font-family="Tahoma,Tahoma" font-size="11.0" fill="#7E7E7E" transform="matrix(1.00, 0.00, -0.00, -1.00, 595.7, 502.4)">1</text><text xml:space="preserve" font-family="Tahoma,Tahoma" font-size="11.0" fill="#7E7E7E" transform="matrix(1.00, 0.00, -0.00, -1.00, 601.7, 502.4)">4</text></g></svg>