<?xml version="1.0" encoding="UTF-8" standalone="no"?><svg xmlns="http://www.w3.org/2000/svg" xmlns:xlink="http://www.w3.org/1999/xlink" clip-rule="evenodd" stroke-miterlimit="10" viewBox="0 0 720 540"><desc>SVG generated by Keynote</desc><defs></defs><g transform="matrix(1.00, 0.00, -0.00, -1.00, 0.0, 540.0)"><path d="M 0.0 540.0 L 720.0 540.0 L 720.0 0.0 L 0.0 0.0 Z M 0.0 540.0 " fill="#FFFFFF"></path><text xml:space="preserve" font-family="Tahoma,Tahoma" font-size="10.0" fill="#000000" transform="matrix(1.00, 0.00, -0.00, -1.00, 558.1, 18.0)">1</text><image xlink:href="8DE3302B566E58417FDCBC05C2EA976A.png" width="587.00" height="37.00" transform="matrix(1.00, 0.00, -0.00, -1.00, 38.0, 456.0)"></image><text xml:space="preserve" font-family="Tahoma,Tahoma" font-size="36.0" fill="#000000" transform="matrix(1.00, 0.00, -0.00, -1.00, 39.1, 428.5)">A</text><text xml:space="preserve" font-family="Tahoma,Tahoma" font-size="36.0" fill="#000000" transform="matrix(1.00, 0.00, -0.00, -1.00, 60.7, 428.5)"> </text><text xml:space="preserve" font-family="Tahoma,Tahoma" font-size="36.0" fill="#000000" transform="matrix(1.00, 0.00, -0.00, -1.00, 71.9, 428.5)">C</text><text xml:space="preserve" font-family="Tahoma,Tahoma" font-size="36.0" fill="#000000" transform="matrix(1.00, 0.00, -0.00, -1.00, 93.5, 428.5)">r</text><text xml:space="preserve" font-family="Tahoma,Tahoma" font-size="36.0" fill="#000000" transform="matrix(1.00, 0.00, -0.00, -1.00, 105.9, 428.5)">a</text><text xml:space="preserve" font-family="Tahoma,Tahoma" font-size="36.0" fill="#000000" transform="matrix(1.00, 0.00, -0.00, -1.00, 124.8, 428.5)">s</text><text xml:space="preserve" font-family="Tahoma,Tahoma" font-size="36.0" fill="#000000" transform="matrix(1.00, 0.00, -0.00, -1.00, 140.9, 428.5)">h</text><text xml:space="preserve" font-family="Tahoma,Tahoma" font-size="36.0" fill="#000000" transform="matrix(1.00, 0.00, -0.00, -1.00, 160.9, 428.5)"> </text><text xml:space="preserve" font-family="Tahoma,Tahoma" font-size="36.0" fill="#000000" transform="matrix(1.00, 0.00, -0.00, -1.00, 172.1, 428.5)">C</text><text xml:space="preserve" font-family="Tahoma,Tahoma" font-size="36.0" fill="#000000" transform="matrix(1.00, 0.00, -0.00, -1.00, 193.8, 428.5)">o</text><text xml:space="preserve" font-family="Tahoma,Tahoma" font-size="36.0" fill="#000000" transform="matrix(1.00, 0.00, -0.00, -1.00, 213.3, 428.5)">u</text><text xml:space="preserve" font-family="Tahoma,Tahoma" font-size="36.0" fill="#000000" transform="matrix(1.00, 0.00, -0.00, -1.00, 233.4, 428.5)">r</text><text xml:space="preserve" font-family="Tahoma,Tahoma" font-size="36.0" fill="#000000" transform="matrix(1.00, 0.00, -0.00, -1.00, 246.3, 428.5)">s</text><text xml:space="preserve" font-family="Tahoma,Tahoma" font-size="36.0" fill="#000000" transform="matrix(1.00, 0.00, -0.00, -1.00, 262.4, 428.5)">e</text><text xml:space="preserve" font-family="Tahoma,Tahoma" font-size="36.0" fill="#000000" transform="matrix(1.00, 0.00, -0.00, -1.00, 281.4, 428.5)"> </text><text xml:space="preserve" font-family="Tahoma,Tahoma" font-size="36.0" fill="#000000" transform="matrix(1.00, 0.00, -0.00, -1.00, 292.6, 428.5)">i</text><text xml:space="preserve" font-family="Tahoma,Tahoma" font-size="36.0" fill="#000000" transform="matrix(1.00, 0.00, -0.00, -1.00, 300.8, 428.5)">n</text><text xml:space="preserve" font-family="Tahoma,Tahoma" font-size="36.0" fill="#000000" transform="matrix(1.00, 0.00, -0.00, -1.00, 320.9, 428.5)"> </text><text xml:space="preserve" font-family="Tahoma,Tahoma" font-size="36.0" fill="#000000" transform="matrix(1.00, 0.00, -0.00, -1.00, 332.1, 428.5)">J</text><text xml:space="preserve" font-family="Tahoma,Tahoma" font-size="36.0" fill="#000000" transform="matrix(1.00, 0.00, -0.00, -1.00, 347.1, 428.5)">a</text><text xml:space="preserve" font-family="Tahoma,Tahoma" font-size="36.0" fill="#000000" transform="matrix(1.00, 0.00, -0.00, -1.00, 365.7, 428.5)">v</text><text xml:space="preserve" font-family="Tahoma,Tahoma" font-size="36.0" fill="#000000" transform="matrix(1.00, 0.00, -0.00, -1.00, 383.0, 428.5)">a</text><text xml:space="preserve" font-family="Tahoma,Tahoma" font-size="36.0" fill="#000000" transform="matrix(1.00, 0.00, -0.00, -1.00, 401.9, 428.5)"> </text><text xml:space="preserve" font-family="Tahoma,Tahoma" font-size="36.0" fill="#000000" transform="matrix(1.00, 0.00, -0.00, -1.00, 413.1, 428.5)">P</text><text xml:space="preserve" font-family="Tahoma,Tahoma" font-size="36.0" fill="#000000" transform="matrix(1.00, 0.00, -0.00, -1.00, 433.0, 428.5)">r</text><text xml:space="preserve" font-family="Tahoma,Tahoma" font-size="36.0" fill="#000000" transform="matrix(1.00, 0.00, -0.00, -1.00, 445.8, 428.5)">o</text><text xml:space="preserve" font-family="Tahoma,Tahoma" font-size="36.0" fill="#000000" transform="matrix(1.00, 0.00, -0.00, -1.00, 465.3, 428.5)">g</text><text xml:space="preserve" font-family="Tahoma,Tahoma" font-size="36.0" fill="#000000" transform="matrix(1.00, 0.00, -0.00, -1.00, 485.2, 428.5)">r</text><text xml:space="preserve" font-family="Tahoma,Tahoma" font-size="36.0" fill="#000000" transform="matrix(1.00, 0.00, -0.00, -1.00, 497.6, 428.5)">a</text><text xml:space="preserve" font-family="Tahoma,Tahoma" font-size="36.0" fill="#000000" transform="matrix(1.00, 0.00, -0.00, -1.00, 516.5, 428.5)">m</text><text xml:space="preserve" font-family="Tahoma,Tahoma" font-size="36.0" fill="#000000" transform="matrix(1.00, 0.00, -0.00, -1.00, 546.7, 428.5)">m</text><text xml:space="preserve" font-family="Tahoma,Tahoma" font-size="36.0" fill="#000000" transform="matrix(1.00, 0.00, -0.00, -1.00, 576.9, 428.5)">i</text><text xml:space="preserve" font-family="Tahoma,Tahoma" font-size="36.0" fill="#000000" transform="matrix(1.00, 0.00, -0.00, -1.00, 585.1, 428.5)">n</text><text xml:space="preserve" font-family="Tahoma,Tahoma" font-size="36.0" fill="#000000" transform="matrix(1.00, 0.00, -0.00, -1.00, 605.2, 428.5)">g</text><text xml:space="preserve" font-family="Tahoma,Tahoma" font-size="36.0" fill="#000000" transform="matrix(1.00, 0.00, -0.00, -1.00, 625.3, 428.5)"> </text><path d="M 0.0 0.0 L 666.0 0.0 " fill="none" stroke="#0000FF" stroke-width="6.00" stroke-linejoin="round" transform="matrix(1.00, 0.00, 0.00, -1.00, 42.0, 402.0)"></path><text xml:space="preserve" font-family="Tahoma,Tahoma" font-size="20.0" fill="#0000FF" transform="matrix(1.00, 0.00, -0.00, -1.00, 41.1, 361.9)">•</text><text xml:space="preserve" font-family="Tahoma,Tahoma" font-size="20.0" fill="#0000FF" transform="matrix(1.00, 0.00, -0.00, -1.00, 50.2, 361.9)"> </text><text xml:space="preserve" font-family="Tahoma,Tahoma" font-size="20.0" fill="#0000FF" transform="matrix(1.00, 0.00, -0.00, -1.00, 56.4, 361.9)">D</text><text xml:space="preserve" font-family="Tahoma,Tahoma" font-size="20.0" fill="#0000FF" transform="matrix(1.00, 0.00, -0.00, -1.00, 70.0, 361.9)">a</text><text xml:space="preserve" font-family="Tahoma,Tahoma" font-size="20.0" fill="#0000FF" transform="matrix(1.00, 0.00, -0.00, -1.00, 80.5, 361.9)">t</text><text xml:space="preserve" font-family="Tahoma,Tahoma" font-size="20.0" fill="#0000FF" transform="matrix(1.00, 0.00, -0.00, -1.00, 87.2, 361.9)">a</text><text xml:space="preserve" font-family="Tahoma,Tahoma" font-size="20.0" fill="#0000FF" transform="matrix(1.00, 0.00, -0.00, -1.00, 97.7, 361.9)"> </text><text xml:space="preserve" font-family="Tahoma,Tahoma" font-size="20.0" fill="#0000FF" transform="matrix(1.00, 0.00, -0.00, -1.00, 103.9, 361.9)">T</text><text xml:space="preserve" font-family="Tahoma,Tahoma" font-size="20.0" fill="#0000FF" transform="matrix(1.00, 0.00, -0.00, -1.00, 113.8, 361.9)">y</text><text xml:space="preserve" font-family="Tahoma,Tahoma" font-size="20.0" fill="#0000FF" transform="matrix(1.00, 0.00, -0.00, -1.00, 123.7, 361.9)">p</text><text xml:space="preserve" font-family="Tahoma,Tahoma" font-size="20.0" fill="#0000FF" transform="matrix(1.00, 0.00, -0.00, -1.00, 134.8, 361.9)">e</text><text xml:space="preserve" font-family="Tahoma,Tahoma" font-size="20.0" fill="#0000FF" transform="matrix(1.00, 0.00, -0.00, -1.00, 145.3, 361.9)">s</text><text xml:space="preserve" font-family="Tahoma,Tahoma" font-size="20.0" fill="#0000FF" transform="matrix(1.00, 0.00, -0.00, -1.00, 154.2, 361.9)"> </text><text xml:space="preserve" font-family="Tahoma,Tahoma" font-size="20.0" fill="#0000FF" transform="matrix(1.00, 0.00, -0.00, -1.00, 41.1, 337.9)">•</text><text xml:space="preserve" font-family="Tahoma,Tahoma" font-size="20.0" fill="#0000FF" transform="matrix(1.00, 0.00, -0.00, -1.00, 50.2, 337.9)">P</text><text xml:space="preserve" font-family="Tahoma,Tahoma" font-size="20.0" fill="#0000FF" transform="matrix(1.00, 0.00, -0.00, -1.00, 61.2, 337.9)">r</text><text xml:space="preserve" font-family="Tahoma,Tahoma" font-size="20.0" fill="#0000FF" transform="matrix(1.00, 0.00, -0.00, -1.00, 68.3, 337.9)">o</text><text xml:space="preserve" font-family="Tahoma,Tahoma" font-size="20.0" fill="#0000FF" transform="matrix(1.00, 0.00, -0.00, -1.00, 79.2, 337.9)">g</text><text xml:space="preserve" font-family="Tahoma,Tahoma" font-size="20.0" fill="#0000FF" transform="matrix(1.00, 0.00, -0.00, -1.00, 90.2, 337.9)">r</text><text xml:space="preserve" font-family="Tahoma,Tahoma" font-size="20.0" fill="#0000FF" transform="matrix(1.00, 0.00, -0.00, -1.00, 97.1, 337.9)">a</text><text xml:space="preserve" font-family="Tahoma,Tahoma" font-size="20.0" fill="#0000FF" transform="matrix(1.00, 0.00, -0.00, -1.00, 107.6, 337.9)">m</text><text xml:space="preserve" font-family="Tahoma,Tahoma" font-size="20.0" fill="#0000FF" transform="matrix(1.00, 0.00, -0.00, -1.00, 124.4, 337.9)"> </text><text xml:space="preserve" font-family="Tahoma,Tahoma" font-size="20.0" fill="#0000FF" transform="matrix(1.00, 0.00, -0.00, -1.00, 130.7, 337.9)">D</text><text xml:space="preserve" font-family="Tahoma,Tahoma" font-size="20.0" fill="#0000FF" transform="matrix(1.00, 0.00, -0.00, -1.00, 144.2, 337.9)">o</text><text xml:space="preserve" font-family="Tahoma,Tahoma" font-size="20.0" fill="#0000FF" transform="matrix(1.00, 0.00, -0.00, -1.00, 155.1, 337.9)">c</text><text xml:space="preserve" font-family="Tahoma,Tahoma" font-size="20.0" fill="#0000FF" transform="matrix(1.00, 0.00, -0.00, -1.00, 164.3, 337.9)">u</text><text xml:space="preserve" font-family="Tahoma,Tahoma" font-size="20.0" fill="#0000FF" transform="matrix(1.00, 0.00, -0.00, -1.00, 175.5, 337.9)">m</text><text xml:space="preserve" font-family="Tahoma,Tahoma" font-size="20.0" fill="#0000FF" transform="matrix(1.00, 0.00, -0.00, -1.00, 192.3, 337.9)">e</text><text xml:space="preserve" font-family="Tahoma,Tahoma" font-size="20.0" fill="#0000FF" transform="matrix(1.00, 0.00, -0.00, -1.00, 202.8, 337.9)">n</text><text xml:space="preserve" font-family="Tahoma,Tahoma" font-size="20.0" fill="#0000FF" transform="matrix(1.00, 0.00, -0.00, -1.00, 213.9, 337.9)">t</text><text xml:space="preserve" font-family="Tahoma,Tahoma" font-size="20.0" fill="#0000FF" transform="matrix(1.00, 0.00, -0.00, -1.00, 220.6, 337.9)">a</text><text xml:space="preserve" font-family="Tahoma,Tahoma" font-size="20.0" fill="#0000FF" transform="matrix(1.00, 0.00, -0.00, -1.00, 231.1, 337.9)">t</text><text xml:space="preserve" font-family="Tahoma,Tahoma" font-size="20.0" fill="#0000FF" transform="matrix(1.00, 0.00, -0.00, -1.00, 237.8, 337.9)">i</text><text xml:space="preserve" font-family="Tahoma,Tahoma" font-size="20.0" fill="#0000FF" transform="matrix(1.00, 0.00, -0.00, -1.00, 242.4, 337.9)">o</text><text xml:space="preserve" font-family="Tahoma,Tahoma" font-size="20.0" fill="#0000FF" transform="matrix(1.00, 0.00, -0.00, -1.00, 253.2, 337.9)">n</text><text xml:space="preserve" font-family="Tahoma,Tahoma" font-size="20.0" fill="#0000FF" transform="matrix(1.00, 0.00, -0.00, -1.00, 264.4, 337.9)"> </text><text xml:space="preserve" font-family="Tahoma,Tahoma" font-size="20.0" fill="#0000FF" transform="matrix(1.00, 0.00, -0.00, -1.00, 270.6, 337.9)">a</text><text xml:space="preserve" font-family="Tahoma,Tahoma" font-size="20.0" fill="#0000FF" transform="matrix(1.00, 0.00, -0.00, -1.00, 281.1, 337.9)">n</text><text xml:space="preserve" font-family="Tahoma,Tahoma" font-size="20.0" fill="#0000FF" transform="matrix(1.00, 0.00, -0.00, -1.00, 292.3, 337.9)">d</text><text xml:space="preserve" font-family="Tahoma,Tahoma" font-size="20.0" fill="#0000FF" transform="matrix(1.00, 0.00, -0.00, -1.00, 303.3, 337.9)"> </text><text xml:space="preserve" font-family="Tahoma,Tahoma" font-size="20.0" fill="#0000FF" transform="matrix(1.00, 0.00, -0.00, -1.00, 309.6, 337.9)">S</text><text xml:space="preserve" font-family="Tahoma,Tahoma" font-size="20.0" fill="#0000FF" transform="matrix(1.00, 0.00, -0.00, -1.00, 320.7, 337.9)">t</text><text xml:space="preserve" font-family="Tahoma,Tahoma" font-size="20.0" fill="#0000FF" transform="matrix(1.00, 0.00, -0.00, -1.00, 327.2, 337.9)">y</text><text xml:space="preserve" font-family="Tahoma,Tahoma" font-size="20.0" fill="#0000FF" transform="matrix(1.00, 0.00, -0.00, -1.00, 337.2, 337.9)">l</text><text xml:space="preserve" font-family="Tahoma,Tahoma" font-size="20.0" fill="#0000FF" transform="matrix(1.00, 0.00, -0.00, -1.00, 341.7, 337.9)">e</text><text xml:space="preserve" font-family="Tahoma,Tahoma" font-size="20.0" fill="#0000FF" transform="matrix(1.00, 0.00, -0.00, -1.00, 352.3, 337.9)"> </text><text xml:space="preserve" font-family="Tahoma,Tahoma" font-size="20.0" fill="#0000FF" transform="matrix(1.00, 0.00, -0.00, -1.00, 41.1, 313.9)">•</text><text xml:space="preserve" font-family="Tahoma,Tahoma" font-size="20.0" fill="#0000FF" transform="matrix(1.00, 0.00, -0.00, -1.00, 50.2, 313.9)">C</text><text xml:space="preserve" font-family="Tahoma,Tahoma" font-size="20.0" fill="#0000FF" transform="matrix(1.00, 0.00, -0.00, -1.00, 62.2, 313.9)">o</text><text xml:space="preserve" font-family="Tahoma,Tahoma" font-size="20.0" fill="#0000FF" transform="matrix(1.00, 0.00, -0.00, -1.00, 73.1, 313.9)">m</text><text xml:space="preserve" font-family="Tahoma,Tahoma" font-size="20.0" fill="#0000FF" transform="matrix(1.00, 0.00, -0.00, -1.00, 89.8, 313.9)">m</text><text xml:space="preserve" font-family="Tahoma,Tahoma" font-size="20.0" fill="#0000FF" transform="matrix(1.00, 0.00, -0.00, -1.00, 106.6, 313.9)">o</text><text xml:space="preserve" font-family="Tahoma,Tahoma" font-size="20.0" fill="#0000FF" transform="matrix(1.00, 0.00, -0.00, -1.00, 117.5, 313.9)">n</text><text xml:space="preserve" font-family="Tahoma,Tahoma" font-size="20.0" fill="#0000FF" transform="matrix(1.00, 0.00, -0.00, -1.00, 128.6, 313.9)"> </text><text xml:space="preserve" font-family="Tahoma,Tahoma" font-size="20.0" fill="#0000FF" transform="matrix(1.00, 0.00, -0.00, -1.00, 134.9, 313.9)">O</text><text xml:space="preserve" font-family="Tahoma,Tahoma" font-size="20.0" fill="#0000FF" transform="matrix(1.00, 0.00, -0.00, -1.00, 149.0, 313.9)">p</text><text xml:space="preserve" font-family="Tahoma,Tahoma" font-size="20.0" fill="#0000FF" transform="matrix(1.00, 0.00, -0.00, -1.00, 160.1, 313.9)">e</text><text xml:space="preserve" font-family="Tahoma,Tahoma" font-size="20.0" fill="#0000FF" transform="matrix(1.00, 0.00, -0.00, -1.00, 170.6, 313.9)">r</text><text xml:space="preserve" font-family="Tahoma,Tahoma" font-size="20.0" fill="#0000FF" transform="matrix(1.00, 0.00, -0.00, -1.00, 177.5, 313.9)">a</text><text xml:space="preserve" font-family="Tahoma,Tahoma" font-size="20.0" fill="#0000FF" transform="matrix(1.00, 0.00, -0.00, -1.00, 188.0, 313.9)">t</text><text xml:space="preserve" font-family="Tahoma,Tahoma" font-size="20.0" fill="#0000FF" transform="matrix(1.00, 0.00, -0.00, -1.00, 194.7, 313.9)">o</text><text xml:space="preserve" font-family="Tahoma,Tahoma" font-size="20.0" fill="#0000FF" transform="matrix(1.00, 0.00, -0.00, -1.00, 205.5, 313.9)">r</text><text xml:space="preserve" font-family="Tahoma,Tahoma" font-size="20.0" fill="#0000FF" transform="matrix(1.00, 0.00, -0.00, -1.00, 212.8, 313.9)">s</text><text xml:space="preserve" font-family="Tahoma,Tahoma" font-size="20.0" fill="#0000FF" transform="matrix(1.00, 0.00, -0.00, -1.00, 221.7, 313.9)"> </text><text xml:space="preserve" font-family="Tahoma,Tahoma" font-size="20.0" fill="#0000FF" transform="matrix(1.00, 0.00, -0.00, -1.00, 41.1, 289.9)">•</text><text xml:space="preserve" font-family="Tahoma,Tahoma" font-size="20.0" fill="#0000FF" transform="matrix(1.00, 0.00, -0.00, -1.00, 50.2, 289.9)">D</text><text xml:space="preserve" font-family="Tahoma,Tahoma" font-size="20.0" fill="#0000FF" transform="matrix(1.00, 0.00, -0.00, -1.00, 63.8, 289.9)">e</text><text xml:space="preserve" font-family="Tahoma,Tahoma" font-size="20.0" fill="#0000FF" transform="matrix(1.00, 0.00, -0.00, -1.00, 74.3, 289.9)">c</text><text xml:space="preserve" font-family="Tahoma,Tahoma" font-size="20.0" fill="#0000FF" transform="matrix(1.00, 0.00, -0.00, -1.00, 83.5, 289.9)">i</text><text xml:space="preserve" font-family="Tahoma,Tahoma" font-size="20.0" fill="#0000FF" transform="matrix(1.00, 0.00, -0.00, -1.00, 88.1, 289.9)">s</text><text xml:space="preserve" font-family="Tahoma,Tahoma" font-size="20.0" fill="#0000FF" transform="matrix(1.00, 0.00, -0.00, -1.00, 97.0, 289.9)">i</text><text xml:space="preserve" font-family="Tahoma,Tahoma" font-size="20.0" fill="#0000FF" transform="matrix(1.00, 0.00, -0.00, -1.00, 101.6, 289.9)">o</text><text xml:space="preserve" font-family="Tahoma,Tahoma" font-size="20.0" fill="#0000FF" transform="matrix(1.00, 0.00, -0.00, -1.00, 112.4, 289.9)">n</text><text xml:space="preserve" font-family="Tahoma,Tahoma" font-size="20.0" fill="#0000FF" transform="matrix(1.00, 0.00, -0.00, -1.00, 123.6, 289.9)">s</text><text xml:space="preserve" font-family="Tahoma,Tahoma" font-size="20.0" fill="#0000FF" transform="matrix(1.00, 0.00, -0.00, -1.00, 132.5, 289.9)"> </text><text xml:space="preserve" font-family="Tahoma,Tahoma" font-size="20.0" fill="#0000FF" transform="matrix(1.00, 0.00, -0.00, -1.00, 41.1, 265.9)">•</text><text xml:space="preserve" font-family="Tahoma,Tahoma" font-size="20.0" fill="#0000FF" transform="matrix(1.00, 0.00, -0.00, -1.00, 50.2, 265.9)">L</text><text xml:space="preserve" font-family="Tahoma,Tahoma" font-size="20.0" fill="#0000FF" transform="matrix(1.00, 0.00, -0.00, -1.00, 60.1, 265.9)">o</text><text xml:space="preserve" font-family="Tahoma,Tahoma" font-size="20.0" fill="#0000FF" transform="matrix(1.00, 0.00, -0.00, -1.00, 71.0, 265.9)">o</text><text xml:space="preserve" font-family="Tahoma,Tahoma" font-size="20.0" fill="#0000FF" transform="matrix(1.00, 0.00, -0.00, -1.00, 81.9, 265.9)">p</text><text xml:space="preserve" font-family="Tahoma,Tahoma" font-size="20.0" fill="#0000FF" transform="matrix(1.00, 0.00, -0.00, -1.00, 92.9, 265.9)">s</text><text xml:space="preserve" font-family="Tahoma,Tahoma" font-size="20.0" fill="#0000FF" transform="matrix(1.00, 0.00, -0.00, -1.00, 101.8, 265.9)"> </text><text xml:space="preserve" font-family="Tahoma,Tahoma" font-size="20.0" fill="#0000FF" transform="matrix(1.00, 0.00, -0.00, -1.00, 41.1, 241.9)">•</text><text xml:space="preserve" font-family="Tahoma,Tahoma" font-size="20.0" fill="#0000FF" transform="matrix(1.00, 0.00, -0.00, -1.00, 50.2, 241.9)">A</text><text xml:space="preserve" font-family="Tahoma,Tahoma" font-size="20.0" fill="#0000FF" transform="matrix(1.00, 0.00, -0.00, -1.00, 62.2, 241.9)">r</text><text xml:space="preserve" font-family="Tahoma,Tahoma" font-size="20.0" fill="#0000FF" transform="matrix(1.00, 0.00, -0.00, -1.00, 69.4, 241.9)">r</text><text xml:space="preserve" font-family="Tahoma,Tahoma" font-size="20.0" fill="#0000FF" transform="matrix(1.00, 0.00, -0.00, -1.00, 76.3, 241.9)">a</text><text xml:space="preserve" font-family="Tahoma,Tahoma" font-size="20.0" fill="#0000FF" transform="matrix(1.00, 0.00, -0.00, -1.00, 86.6, 241.9)">y</text><text xml:space="preserve" font-family="Tahoma,Tahoma" font-size="20.0" fill="#0000FF" transform="matrix(1.00, 0.00, -0.00, -1.00, 96.6, 241.9)">s</text><text xml:space="preserve" font-family="Tahoma,Tahoma" font-size="20.0" fill="#0000FF" transform="matrix(1.00, 0.00, -0.00, -1.00, 105.5, 241.9)"> </text><text xml:space="preserve" font-family="Tahoma,Tahoma" font-size="20.0" fill="#0000FF" transform="matrix(1.00, 0.00, -0.00, -1.00, 111.8, 241.9)">–</text><text xml:space="preserve" font-family="Tahoma,Tahoma" font-size="20.0" fill="#0000FF" transform="matrix(1.00, 0.00, -0.00, -1.00, 122.7, 241.9)"> </text><text xml:space="preserve" font-family="Tahoma,Tahoma" font-size="20.0" fill="#0000FF" transform="matrix(1.00, 0.00, -0.00, -1.00, 128.9, 241.9)">I</text><text xml:space="preserve" font-family="Tahoma,Tahoma" font-size="20.0" fill="#0000FF" transform="matrix(1.00, 0.00, -0.00, -1.00, 136.3, 241.9)">n</text><text xml:space="preserve" font-family="Tahoma,Tahoma" font-size="20.0" fill="#0000FF" transform="matrix(1.00, 0.00, -0.00, -1.00, 147.4, 241.9)"> </text><text xml:space="preserve" font-family="Tahoma,Tahoma" font-size="20.0" fill="#0000FF" transform="matrix(1.00, 0.00, -0.00, -1.00, 153.7, 241.9)">D</text><text xml:space="preserve" font-family="Tahoma,Tahoma" font-size="20.0" fill="#0000FF" transform="matrix(1.00, 0.00, -0.00, -1.00, 167.2, 241.9)">e</text><text xml:space="preserve" font-family="Tahoma,Tahoma" font-size="20.0" fill="#0000FF" transform="matrix(1.00, 0.00, -0.00, -1.00, 177.8, 241.9)">p</text><text xml:space="preserve" font-family="Tahoma,Tahoma" font-size="20.0" fill="#0000FF" transform="matrix(1.00, 0.00, -0.00, -1.00, 188.8, 241.9)">t</text><text xml:space="preserve" font-family="Tahoma,Tahoma" font-size="20.0" fill="#0000FF" transform="matrix(1.00, 0.00, -0.00, -1.00, 195.5, 241.9)">h</text><text xml:space="preserve" font-family="Tahoma,Tahoma" font-size="20.0" fill="#0000FF" transform="matrix(1.00, 0.00, -0.00, -1.00, 206.7, 241.9)"> </text><text xml:space="preserve" font-family="Tahoma,Tahoma" font-size="20.0" fill="#0000FF" transform="matrix(1.00, 0.00, -0.00, -1.00, 41.1, 217.9)">•</text><text xml:space="preserve" font-family="Tahoma,Tahoma" font-size="20.0" fill="#0000FF" transform="matrix(1.00, 0.00, -0.00, -1.00, 50.2, 217.9)">U</text><text xml:space="preserve" font-family="Tahoma,Tahoma" font-size="20.0" fill="#0000FF" transform="matrix(1.00, 0.00, -0.00, -1.00, 63.3, 217.9)">s</text><text xml:space="preserve" font-family="Tahoma,Tahoma" font-size="20.0" fill="#0000FF" transform="matrix(1.00, 0.00, -0.00, -1.00, 72.2, 217.9)">e</text><text xml:space="preserve" font-family="Tahoma,Tahoma" font-size="20.0" fill="#0000FF" transform="matrix(1.00, 0.00, -0.00, -1.00, 82.8, 217.9)">r</text><text xml:space="preserve" font-family="Tahoma,Tahoma" font-size="20.0" fill="#0000FF" transform="matrix(1.00, 0.00, -0.00, -1.00, 90.0, 217.9)"> </text><text xml:space="preserve" font-family="Tahoma,Tahoma" font-size="20.0" fill="#0000FF" transform="matrix(1.00, 0.00, -0.00, -1.00, 96.3, 217.9)">I</text><text xml:space="preserve" font-family="Tahoma,Tahoma" font-size="20.0" fill="#0000FF" transform="matrix(1.00, 0.00, -0.00, -1.00, 103.6, 217.9)">n</text><text xml:space="preserve" font-family="Tahoma,Tahoma" font-size="20.0" fill="#0000FF" transform="matrix(1.00, 0.00, -0.00, -1.00, 114.8, 217.9)">p</text><text xml:space="preserve" font-family="Tahoma,Tahoma" font-size="20.0" fill="#0000FF" transform="matrix(1.00, 0.00, -0.00, -1.00, 125.8, 217.9)">u</text><text xml:space="preserve" font-family="Tahoma,Tahoma" font-size="20.0" fill="#0000FF" transform="matrix(1.00, 0.00, -0.00, -1.00, 137.0, 217.9)">t</text><text xml:space="preserve" font-family="Tahoma,Tahoma" font-size="20.0" fill="#0000FF" transform="matrix(1.00, 0.00, -0.00, -1.00, 143.7, 217.9)">/</text><text xml:space="preserve" font-family="Tahoma,Tahoma" font-size="20.0" fill="#0000FF" transform="matrix(1.00, 0.00, -0.00, -1.00, 151.3, 217.9)">O</text><text xml:space="preserve" font-family="Tahoma,Tahoma" font-size="20.0" fill="#0000FF" transform="matrix(1.00, 0.00, -0.00, -1.00, 165.5, 217.9)">u</text><text xml:space="preserve" font-family="Tahoma,Tahoma" font-size="20.0" fill="#0000FF" transform="matrix(1.00, 0.00, -0.00, -1.00, 176.6, 217.9)">t</text><text xml:space="preserve" font-family="Tahoma,Tahoma" font-size="20.0" fill="#0000FF" transform="matrix(1.00, 0.00, -0.00, -1.00, 183.3, 217.9)">p</text><text xml:space="preserve" font-family="Tahoma,Tahoma" font-size="20.0" fill="#0000FF" transform="matrix(1.00, 0.00, -0.00, -1.00, 194.4, 217.9)">u</text><text xml:space="preserve" font-family="Tahoma,Tahoma" font-size="20.0" fill="#0000FF" transform="matrix(1.00, 0.00, -0.00, -1.00, 205.5, 217.9)">t</text><text xml:space="preserve" font-family="Tahoma,Tahoma" font-size="20.0" fill="#0000FF" transform="matrix(1.00, 0.00, -0.00, -1.00, 212.2, 217.9)"> </text><text xml:space="preserve" font-family="Tahoma,Tahoma" font-size="20.0" fill="#0000FF" transform="matrix(1.00, 0.00, -0.00, -1.00, 41.1, 193.9)">•</text><text xml:space="preserve" font-family="Tahoma,Tahoma" font-size="20.0" fill="#0000FF" transform="matrix(1.00, 0.00, -0.00, -1.00, 50.2, 193.9)">I</text><text xml:space="preserve" font-family="Tahoma,Tahoma" font-size="20.0" fill="#0000FF" transform="matrix(1.00, 0.00, -0.00, -1.00, 57.6, 193.9)">n</text><text xml:space="preserve" font-family="Tahoma,Tahoma" font-size="20.0" fill="#0000FF" transform="matrix(1.00, 0.00, -0.00, -1.00, 68.7, 193.9)">t</text><text xml:space="preserve" font-family="Tahoma,Tahoma" font-size="20.0" fill="#0000FF" transform="matrix(1.00, 0.00, -0.00, -1.00, 75.4, 193.9)">r</text><text xml:space="preserve" font-family="Tahoma,Tahoma" font-size="20.0" fill="#0000FF" transform="matrix(1.00, 0.00, -0.00, -1.00, 82.5, 193.9)">o</text><text xml:space="preserve" font-family="Tahoma,Tahoma" font-size="20.0" fill="#0000FF" transform="matrix(1.00, 0.00, -0.00, -1.00, 93.4, 193.9)"> </text><text xml:space="preserve" font-family="Tahoma,Tahoma" font-size="20.0" fill="#0000FF" transform="matrix(1.00, 0.00, -0.00, -1.00, 99.6, 193.9)">t</text><text xml:space="preserve" font-family="Tahoma,Tahoma" font-size="20.0" fill="#0000FF" transform="matrix(1.00, 0.00, -0.00, -1.00, 106.3, 193.9)">o</text><text xml:space="preserve" font-family="Tahoma,Tahoma" font-size="20.0" fill="#0000FF" transform="matrix(1.00, 0.00, -0.00, -1.00, 117.2, 193.9)"> </text><text xml:space="preserve" font-family="Tahoma,Tahoma" font-size="20.0" fill="#0000FF" transform="matrix(1.00, 0.00, -0.00, -1.00, 123.4, 193.9)">O</text><text xml:space="preserve" font-family="Tahoma,Tahoma" font-size="20.0" fill="#0000FF" transform="matrix(1.00, 0.00, -0.00, -1.00, 137.6, 193.9)">b</text><text xml:space="preserve" font-family="Tahoma,Tahoma" font-size="20.0" fill="#0000FF" transform="matrix(1.00, 0.00, -0.00, -1.00, 148.6, 193.9)">j</text><text xml:space="preserve" font-family="Tahoma,Tahoma" font-size="20.0" fill="#0000FF" transform="matrix(1.00, 0.00, -0.00, -1.00, 154.2, 193.9)">e</text><text xml:space="preserve" font-family="Tahoma,Tahoma" font-size="20.0" fill="#0000FF" transform="matrix(1.00, 0.00, -0.00, -1.00, 164.8, 193.9)">c</text><text xml:space="preserve" font-family="Tahoma,Tahoma" font-size="20.0" fill="#0000FF" transform="matrix(1.00, 0.00, -0.00, -1.00, 174.0, 193.9)">t</text><text xml:space="preserve" font-family="Tahoma,Tahoma" font-size="20.0" fill="#0000FF" transform="matrix(1.00, 0.00, -0.00, -1.00, 180.7, 193.9)">s</text><text xml:space="preserve" font-family="Tahoma,Tahoma" font-size="20.0" fill="#0000FF" transform="matrix(1.00, 0.00, -0.00, -1.00, 189.6, 193.9)"> </text><text xml:space="preserve" font-family="Tahoma,Tahoma" font-size="20.0" fill="#0000FF" transform="matrix(1.00, 0.00, -0.00, -1.00, 41.1, 169.9)">•</text><text xml:space="preserve" font-family="Tahoma,Tahoma" font-size="20.0" fill="#0000FF" transform="matrix(1.00, 0.00, -0.00, -1.00, 50.2, 169.9)">O</text><text xml:space="preserve" font-family="Tahoma,Tahoma" font-size="20.0" fill="#0000FF" transform="matrix(1.00, 0.00, -0.00, -1.00, 64.3, 169.9)">b</text><text xml:space="preserve" font-family="Tahoma,Tahoma" font-size="20.0" fill="#0000FF" transform="matrix(1.00, 0.00, -0.00, -1.00, 75.4, 169.9)">j</text><text xml:space="preserve" font-family="Tahoma,Tahoma" font-size="20.0" fill="#0000FF" transform="matrix(1.00, 0.00, -0.00, -1.00, 81.0, 169.9)">e</text><text xml:space="preserve" font-family="Tahoma,Tahoma" font-size="20.0" fill="#0000FF" transform="matrix(1.00, 0.00, -0.00, -1.00, 91.5, 169.9)">c</text><text xml:space="preserve" font-family="Tahoma,Tahoma" font-size="20.0" fill="#0000FF" transform="matrix(1.00, 0.00, -0.00, -1.00, 100.8, 169.9)">t</text><text xml:space="preserve" font-family="Tahoma,Tahoma" font-size="20.0" fill="#0000FF" transform="matrix(1.00, 0.00, -0.00, -1.00, 107.5, 169.9)"> </text><text xml:space="preserve" font-family="Tahoma,Tahoma" font-size="20.0" fill="#0000FF" transform="matrix(1.00, 0.00, -0.00, -1.00, 113.7, 169.9)">O</text><text xml:space="preserve" font-family="Tahoma,Tahoma" font-size="20.0" fill="#0000FF" transform="matrix(1.00, 0.00, -0.00, -1.00, 127.9, 169.9)">r</text><text xml:space="preserve" font-family="Tahoma,Tahoma" font-size="20.0" fill="#0000FF" transform="matrix(1.00, 0.00, -0.00, -1.00, 135.1, 169.9)">i</text><text xml:space="preserve" font-family="Tahoma,Tahoma" font-size="20.0" fill="#0000FF" transform="matrix(1.00, 0.00, -0.00, -1.00, 139.6, 169.9)">e</text><text xml:space="preserve" font-family="Tahoma,Tahoma" font-size="20.0" fill="#0000FF" transform="matrix(1.00, 0.00, -0.00, -1.00, 150.2, 169.9)">n</text><text xml:space="preserve" font-family="Tahoma,Tahoma" font-size="20.0" fill="#0000FF" transform="matrix(1.00, 0.00, -0.00, -1.00, 161.3, 169.9)">t</text><text xml:space="preserve" font-family="Tahoma,Tahoma" font-size="20.0" fill="#0000FF" transform="matrix(1.00, 0.00, -0.00, -1.00, 168.0, 169.9)">e</text><text xml:space="preserve" font-family="Tahoma,Tahoma" font-size="20.0" fill="#0000FF" transform="matrix(1.00, 0.00, -0.00, -1.00, 178.6, 169.9)">d</text><text xml:space="preserve" font-family="Tahoma,Tahoma" font-size="20.0" fill="#0000FF" transform="matrix(1.00, 0.00, -0.00, -1.00, 189.6, 169.9)"> </text><text xml:space="preserve" font-family="Tahoma,Tahoma" font-size="20.0" fill="#0000FF" transform="matrix(1.00, 0.00, -0.00, -1.00, 195.8, 169.9)">P</text><text xml:space="preserve" font-family="Tahoma,Tahoma" font-size="20.0" fill="#0000FF" transform="matrix(1.00, 0.00, -0.00, -1.00, 206.9, 169.9)">r</text><text xml:space="preserve" font-family="Tahoma,Tahoma" font-size="20.0" fill="#0000FF" transform="matrix(1.00, 0.00, -0.00, -1.00, 214.0, 169.9)">o</text><text xml:space="preserve" font-family="Tahoma,Tahoma" font-size="20.0" fill="#0000FF" transform="matrix(1.00, 0.00, -0.00, -1.00, 224.8, 169.9)">g</text><text xml:space="preserve" font-family="Tahoma,Tahoma" font-size="20.0" fill="#0000FF" transform="matrix(1.00, 0.00, -0.00, -1.00, 235.9, 169.9)">r</text><text xml:space="preserve" font-family="Tahoma,Tahoma" font-size="20.0" fill="#0000FF" transform="matrix(1.00, 0.00, -0.00, -1.00, 242.8, 169.9)">a</text><text xml:space="preserve" font-family="Tahoma,Tahoma" font-size="20.0" fill="#0000FF" transform="matrix(1.00, 0.00, -0.00, -1.00, 253.3, 169.9)">m</text><text xml:space="preserve" font-family="Tahoma,Tahoma" font-size="20.0" fill="#0000FF" transform="matrix(1.00, 0.00, -0.00, -1.00, 270.1, 169.9)">m</text><text xml:space="preserve" font-family="Tahoma,Tahoma" font-size="20.0" fill="#0000FF" transform="matrix(1.00, 0.00, -0.00, -1.00, 286.9, 169.9)">i</text><text xml:space="preserve" font-family="Tahoma,Tahoma" font-size="20.0" fill="#0000FF" transform="matrix(1.00, 0.00, -0.00, -1.00, 291.4, 169.9)">n</text><text xml:space="preserve" font-family="Tahoma,Tahoma" font-size="20.0" fill="#0000FF" transform="matrix(1.00, 0.00, -0.00, -1.00, 302.6, 169.9)">g</text><text xml:space="preserve" font-family="Tahoma,Tahoma" font-size="20.0" fill="#0000FF" transform="matrix(1.00, 0.00, -0.00, -1.00, 313.6, 169.9)"> </text><text xml:space="preserve" font-family="Tahoma,Tahoma" font-size="20.0" fill="#0000FF" transform="matrix(1.00, 0.00, -0.00, -1.00, 41.1, 145.9)">•</text><text xml:space="preserve" font-family="Tahoma,Tahoma" font-size="20.0" fill="#0000FF" transform="matrix(1.00, 0.00, -0.00, -1.00, 50.2, 145.9)">S</text><text xml:space="preserve" font-family="Tahoma,Tahoma" font-size="20.0" fill="#0000FF" transform="matrix(1.00, 0.00, -0.00, -1.00, 61.4, 145.9)">o</text><text xml:space="preserve" font-family="Tahoma,Tahoma" font-size="20.0" fill="#0000FF" transform="matrix(1.00, 0.00, -0.00, -1.00, 72.2, 145.9)">r</text><text xml:space="preserve" font-family="Tahoma,Tahoma" font-size="20.0" fill="#0000FF" transform="matrix(1.00, 0.00, -0.00, -1.00, 79.5, 145.9)">t</text><text xml:space="preserve" font-family="Tahoma,Tahoma" font-size="20.0" fill="#0000FF" transform="matrix(1.00, 0.00, -0.00, -1.00, 86.2, 145.9)">i</text><text xml:space="preserve" font-family="Tahoma,Tahoma" font-size="20.0" fill="#0000FF" transform="matrix(1.00, 0.00, -0.00, -1.00, 90.7, 145.9)">n</text><text xml:space="preserve" font-family="Tahoma,Tahoma" font-size="20.0" fill="#0000FF" transform="matrix(1.00, 0.00, -0.00, -1.00, 101.9, 145.9)">g</text><text xml:space="preserve" font-family="Tahoma,Tahoma" font-size="20.0" fill="#0000FF" transform="matrix(1.00, 0.00, -0.00, -1.00, 112.9, 145.9)"> </text><text xml:space="preserve" font-family="Tahoma,Tahoma" font-size="20.0" fill="#0000FF" transform="matrix(1.00, 0.00, -0.00, -1.00, 41.1, 121.9)">•</text><text xml:space="preserve" font-family="Tahoma,Tahoma" font-size="20.0" fill="#0000FF" transform="matrix(1.00, 0.00, -0.00, -1.00, 50.2, 121.9)">J</text><text xml:space="preserve" font-family="Tahoma,Tahoma" font-size="20.0" fill="#0000FF" transform="matrix(1.00, 0.00, -0.00, -1.00, 58.5, 121.9)">a</text><text xml:space="preserve" font-family="Tahoma,Tahoma" font-size="20.0" fill="#0000FF" transform="matrix(1.00, 0.00, -0.00, -1.00, 68.9, 121.9)">v</text><text xml:space="preserve" font-family="Tahoma,Tahoma" font-size="20.0" fill="#0000FF" transform="matrix(1.00, 0.00, -0.00, -1.00, 78.5, 121.9)">a</text><text xml:space="preserve" font-family="Tahoma,Tahoma" font-size="20.0" fill="#0000FF" transform="matrix(1.00, 0.00, -0.00, -1.00, 88.9, 121.9)"> </text><text xml:space="preserve" font-family="Tahoma,Tahoma" font-size="20.0" fill="#0000FF" transform="matrix(1.00, 0.00, -0.00, -1.00, 95.2, 121.9)">C</text><text xml:space="preserve" font-family="Tahoma,Tahoma" font-size="20.0" fill="#0000FF" transform="matrix(1.00, 0.00, -0.00, -1.00, 107.2, 121.9)">o</text><text xml:space="preserve" font-family="Tahoma,Tahoma" font-size="20.0" fill="#0000FF" transform="matrix(1.00, 0.00, -0.00, -1.00, 118.1, 121.9)">l</text><text xml:space="preserve" font-family="Tahoma,Tahoma" font-size="20.0" fill="#0000FF" transform="matrix(1.00, 0.00, -0.00, -1.00, 122.7, 121.9)">l</text><text xml:space="preserve" font-family="Tahoma,Tahoma" font-size="20.0" fill="#0000FF" transform="matrix(1.00, 0.00, -0.00, -1.00, 127.2, 121.9)">e</text><text xml:space="preserve" font-family="Tahoma,Tahoma" font-size="20.0" fill="#0000FF" transform="matrix(1.00, 0.00, -0.00, -1.00, 137.8, 121.9)">c</text><text xml:space="preserve" font-family="Tahoma,Tahoma" font-size="20.0" fill="#0000FF" transform="matrix(1.00, 0.00, -0.00, -1.00, 147.0, 121.9)">t</text><text xml:space="preserve" font-family="Tahoma,Tahoma" font-size="20.0" fill="#0000FF" transform="matrix(1.00, 0.00, -0.00, -1.00, 153.7, 121.9)">i</text><text xml:space="preserve" font-family="Tahoma,Tahoma" font-size="20.0" fill="#0000FF" transform="matrix(1.00, 0.00, -0.00, -1.00, 158.3, 121.9)">o</text><text xml:space="preserve" font-family="Tahoma,Tahoma" font-size="20.0" fill="#0000FF" transform="matrix(1.00, 0.00, -0.00, -1.00, 169.1, 121.9)">n</text><text xml:space="preserve" font-family="Tahoma,Tahoma" font-size="20.0" fill="#0000FF" transform="matrix(1.00, 0.00, -0.00, -1.00, 180.3, 121.9)">s</text><text xml:space="preserve" font-family="Tahoma,Tahoma" font-size="20.0" fill="#0000FF" transform="matrix(1.00, 0.00, -0.00, -1.00, 189.2, 121.9)"> </text><text xml:space="preserve" font-family="Tahoma,Tahoma" font-size="20.0" fill="#0000FF" transform="matrix(1.00, 0.00, -0.00, -1.00, 41.1, 97.9)">•</text><text xml:space="preserve" font-family="Tahoma,Tahoma" font-size="20.0" fill="#0000FF" transform="matrix(1.00, 0.00, -0.00, -1.00, 50.2, 97.9)">G</text><text xml:space="preserve" font-family="Tahoma,Tahoma" font-size="20.0" fill="#0000FF" transform="matrix(1.00, 0.00, -0.00, -1.00, 63.6, 97.9)">U</text><text xml:space="preserve" font-family="Tahoma,Tahoma" font-size="20.0" fill="#0000FF" transform="matrix(1.00, 0.00, -0.00, -1.00, 76.7, 97.9)">I</text><text xml:space="preserve" font-family="Tahoma,Tahoma" font-size="20.0" fill="#0000FF" transform="matrix(1.00, 0.00, -0.00, -1.00, 84.1, 97.9)"> </text><text xml:space="preserve" font-family="Tahoma,Tahoma" font-size="20.0" fill="#0000FF" transform="matrix(1.00, 0.00, -0.00, -1.00, 41.1, 73.9)">•</text><text xml:space="preserve" font-family="Tahoma,Tahoma" font-size="20.0" fill="#0000FF" transform="matrix(1.00, 0.00, -0.00, -1.00, 50.2, 73.9)">I</text><text xml:space="preserve" font-family="Tahoma,Tahoma" font-size="20.0" fill="#0000FF" transform="matrix(1.00, 0.00, -0.00, -1.00, 57.6, 73.9)">n</text><text xml:space="preserve" font-family="Tahoma,Tahoma" font-size="20.0" fill="#0000FF" transform="matrix(1.00, 0.00, -0.00, -1.00, 68.7, 73.9)">t</text><text xml:space="preserve" font-family="Tahoma,Tahoma" font-size="20.0" fill="#0000FF" transform="matrix(1.00, 0.00, -0.00, -1.00, 75.4, 73.9)">r</text><text xml:space="preserve" font-family="Tahoma,Tahoma" font-size="20.0" fill="#0000FF" transform="matrix(1.00, 0.00, -0.00, -1.00, 82.5, 73.9)">o</text><text xml:space="preserve" font-family="Tahoma,Tahoma" font-size="20.0" fill="#0000FF" transform="matrix(1.00, 0.00, -0.00, -1.00, 93.4, 73.9)"> </text><text xml:space="preserve" font-family="Tahoma,Tahoma" font-size="20.0" fill="#0000FF" transform="matrix(1.00, 0.00, -0.00, -1.00, 99.6, 73.9)">t</text><text xml:space="preserve" font-family="Tahoma,Tahoma" font-size="20.0" fill="#0000FF" transform="matrix(1.00, 0.00, -0.00, -1.00, 106.3, 73.9)">o</text><text xml:space="preserve" font-family="Tahoma,Tahoma" font-size="20.0" fill="#0000FF" transform="matrix(1.00, 0.00, -0.00, -1.00, 117.2, 73.9)"> </text><text xml:space="preserve" font-family="Tahoma,Tahoma" font-size="20.0" fill="#0000FF" transform="matrix(1.00, 0.00, -0.00, -1.00, 123.4, 73.9)">W</text><text xml:space="preserve" font-family="Tahoma,Tahoma" font-size="20.0" fill="#0000FF" transform="matrix(1.00, 0.00, -0.00, -1.00, 140.7, 73.9)">o</text><text xml:space="preserve" font-family="Tahoma,Tahoma" font-size="20.0" fill="#0000FF" transform="matrix(1.00, 0.00, -0.00, -1.00, 151.6, 73.9)">r</text><text xml:space="preserve" font-family="Tahoma,Tahoma" font-size="20.0" fill="#0000FF" transform="matrix(1.00, 0.00, -0.00, -1.00, 158.8, 73.9)">l</text><text xml:space="preserve" font-family="Tahoma,Tahoma" font-size="20.0" fill="#0000FF" transform="matrix(1.00, 0.00, -0.00, -1.00, 163.3, 73.9)">d</text><text xml:space="preserve" font-family="Tahoma,Tahoma" font-size="20.0" fill="#0000FF" transform="matrix(1.00, 0.00, -0.00, -1.00, 174.4, 73.9)"> </text><text xml:space="preserve" font-family="Tahoma,Tahoma" font-size="20.0" fill="#0000FF" transform="matrix(1.00, 0.00, -0.00, -1.00, 180.6, 73.9)">o</text><text xml:space="preserve" font-family="Tahoma,Tahoma" font-size="20.0" fill="#0000FF" transform="matrix(1.00, 0.00, -0.00, -1.00, 191.5, 73.9)">f</text><text xml:space="preserve" font-family="Tahoma,Tahoma" font-size="20.0" fill="#0000FF" transform="matrix(1.00, 0.00, -0.00, -1.00, 197.9, 73.9)"> </text><text xml:space="preserve" font-family="Tahoma,Tahoma" font-size="20.0" fill="#0000FF" transform="matrix(1.00, 0.00, -0.00, -1.00, 204.1, 73.9)">B</text><text xml:space="preserve" font-family="Tahoma,Tahoma" font-size="20.0" fill="#0000FF" transform="matrix(1.00, 0.00, -0.00, -1.00, 216.0, 73.9)">i</text><text xml:space="preserve" font-family="Tahoma,Tahoma" font-size="20.0" fill="#0000FF" transform="matrix(1.00, 0.00, -0.00, -1.00, 220.6, 73.9)">t</text><text xml:space="preserve" font-family="Tahoma,Tahoma" font-size="20.0" fill="#0000FF" transform="matrix(1.00, 0.00, -0.00, -1.00, 227.3, 73.9)">s</text><text xml:space="preserve" font-family="Tahoma,Tahoma" font-size="20.0" fill="#0000FF" transform="matrix(1.00, 0.00, -0.00, -1.00, 236.2, 73.9)">.</text><path d="M 0.5 0.0 L 216.5 0.0 L 216.5 24.0 L 0.5 24.0 Z M 0.0 0.0 " fill="none" stroke="#FF0000" stroke-width="6.00" stroke-linejoin="round" transform="matrix(1.00, 0.00, 0.00, -1.00, 35.5, 168.0)"></path><text xml:space="preserve" font-family="Tahoma,Tahoma" font-size="11.0" fill="#7E7E7E" transform="matrix(1.00, 0.00, -0.00, -1.00, 468.7, 502.4)">C</text><text xml:space="preserve" font-family="Tahoma,Tahoma" font-size="11.0" fill="#7E7E7E" transform="matrix(1.00, 0.00, -0.00, -1.00, 475.3, 502.4)">o</text><text xml:space="preserve" font-family="Tahoma,Tahoma" font-size="11.0" fill="#7E7E7E" transform="matrix(1.00, 0.00, -0.00, -1.00, 481.3, 502.4)">p</text><text xml:space="preserve" font-family="Tahoma,Tahoma" font-size="11.0" fill="#7E7E7E" transform="matrix(1.00, 0.00, -0.00, -1.00, 487.4, 502.4)">y</text><text xml:space="preserve" font-family="Tahoma,Tahoma" font-size="11.0" fill="#7E7E7E" transform="matrix(1.00, 0.00, -0.00, -1.00, 492.8, 502.4)">r</text><text xml:space="preserve" font-family="Tahoma,Tahoma" font-size="11.0" fill="#7E7E7E" transform="matrix(1.00, 0.00, -0.00, -1.00, 496.8, 502.4)">i</text><text xml:space="preserve" font-family="Tahoma,Tahoma" font-size="11.0" fill="#7E7E7E" transform="matrix(1.00, 0.00, -0.00, -1.00, 499.3, 502.4)">g</text><text xml:space="preserve" font-family="Tahoma,Tahoma" font-size="11.0" fill="#7E7E7E" transform="matrix(1.00, 0.00, -0.00, -1.00, 505.4, 502.4)">h</text><text xml:space="preserve" font-family="Tahoma,Tahoma" font-size="11.0" fill="#7E7E7E" transform="matrix(1.00, 0.00, -0.00, -1.00, 511.5, 502.4)">t</text><text xml:space="preserve" font-family="Tahoma,Tahoma" font-size="11.0" fill="#7E7E7E" transform="matrix(1.00, 0.00, -0.00, -1.00, 515.2, 502.4)"> </text><text xml:space="preserve" font-family="Tahoma,Tahoma" font-size="11.0" fill="#7E7E7E" transform="matrix(1.00, 0.00, -0.00, -1.00, 518.6, 502.4)">©</text><text xml:space="preserve" font-family="Tahoma,Tahoma" font-size="11.0" fill="#7E7E7E" transform="matrix(1.00, 0.00, -0.00, -1.00, 528.8, 502.4)"> </text><text xml:space="preserve" font-family="Tahoma,Tahoma" font-size="11.0" fill="#7E7E7E" transform="matrix(1.00, 0.00, -0.00, -1.00, 532.3, 502.4)">T</text><text xml:space="preserve" font-family="Tahoma,Tahoma" font-size="11.0" fill="#7E7E7E" transform="matrix(1.00, 0.00, -0.00, -1.00, 537.7, 502.4)">u</text><text xml:space="preserve" font-family="Tahoma,Tahoma" font-size="11.0" fill="#7E7E7E" transform="matrix(1.00, 0.00, -0.00, -1.00, 543.8, 502.4)">a</text><text xml:space="preserve" font-family="Tahoma,Tahoma" font-size="11.0" fill="#7E7E7E" transform="matrix(1.00, 0.00, -0.00, -1.00, 549.6, 502.4)">n</text><text xml:space="preserve" font-family="Tahoma,Tahoma" font-size="11.0" fill="#7E7E7E" transform="matrix(1.00, 0.00, -0.00, -1.00, 555.7, 502.4)"> </text><text xml:space="preserve" font-family="Tahoma,Tahoma" font-size="11.0" fill="#7E7E7E" transform="matrix(1.00, 0.00, -0.00, -1.00, 559.1, 502.4)">T</text><text xml:space="preserve" font-family="Tahoma,Tahoma" font-size="11.0" fill="#7E7E7E" transform="matrix(1.00, 0.00, -0.00, -1.00, 564.5, 502.4)">r</text><text xml:space="preserve" font-family="Tahoma,Tahoma" font-size="11.0" fill="#7E7E7E" transform="matrix(1.00, 0.00, -0.00, -1.00, 568.3, 502.4)">a</text><text xml:space="preserve" font-family="Tahoma,Tahoma" font-size="11.0" fill="#7E7E7E" transform="matrix(1.00, 0.00, -0.00, -1.00, 574.1, 502.4)">n</text><text xml:space="preserve" font-family="Tahoma,Tahoma" font-size="11.0" fill="#7E7E7E" transform="matrix(1.00, 0.00, -0.00, -1.00, 580.2, 502.4)"> </text><text xml:space="preserve" font-family="Tahoma,Tahoma" font-size="11.0" fill="#7E7E7E" transform="matrix(1.00, 0.00, -0.00, -1.00, 583.7, 502.4)">2</text><text xml:space="preserve" font-family="Tahoma,Tahoma" font-size="11.0" fill="#7E7E7E" transform="matrix(1.00, 0.00, -0.00, -1.00, 589.7, 502.4)">0</text><text xml:space="preserve" font-family="Tahoma,Tahoma" font-size="11.0" fill="#7E7E7E" transform="matrix(1.00, 0.00, -0.00, -1.00, 595.7, 502.4)">1</text><text xml:space="preserve" font-family="Tahoma,Tahoma" font-size="11.0" fill="#7E7E7E" transform="matrix(1.00, 0.00, -0.00, -1.00, 601.7, 502.4)">4</text></g></svg>