<?xml version="1.0" encoding="UTF-8" standalone="no"?><svg xmlns="http://www.w3.org/2000/svg" xmlns:xlink="http://www.w3.org/1999/xlink" clip-rule="evenodd" stroke-miterlimit="10" viewBox="0 0 256 70"><desc>SVG generated by Keynote</desc><defs></defs><g transform="matrix(1.00, 0.00, -0.00, -1.00, 0.0, 70.0)"><image xlink:href="../../54C91EC4-99B4-4DC8-BAA3-01182E7FEEFD/assets/89D79DB42C57EFED422FBEC3E0720674.png" width="252.00" height="63.00" transform="matrix(1.00, 0.00, -0.00, -1.00, 1.9, 64.6)" opacity="0.50"></image><g><clipPath id="clip0x7ff62be4d230"><path d="M 6.0 63.0 L 250.0 63.0 L 250.0 7.0 L 6.0 7.0 Z M 5.9 62.6 "></path></clipPath><g clip-path="url(#clip0x7ff62be4d230)"><image xlink:href="../../55E9911E-4F92-4749-8097-6C2207575093/assets/32E2AC9E4EAA66D76FDE00ACC09CC432.png" width="245.00" height="57.00" transform="matrix(1.00, 0.00, -0.00, 1.00, 5.9, 6.6)"></image></g></g><image xlink:href="../../55E9911E-4F92-4749-8097-6C2207575093/assets/9358CC32BC3840FC08F173692BA1A435.png" width="151.00" height="34.00" transform="matrix(1.00, 0.00, -0.00, -1.00, 49.0, 49.0)"></image><g><clipPath id="clip0x7ff62be506d0"><path d="M -2.8 -1.9 L 258.8 -1.9 L 258.8 70.3 L -2.8 70.3 Z M -2.8 -1.9 "></path></clipPath><g clip-path="url(#clip0x7ff62be506d0)"><text xml:space="preserve" font-family="HelveticaNeue-Medium,Helvetica Neue" font-size="39.2" fill="#3B3B3B" transform="matrix(1.00, 0.00, -0.00, -1.00, 49.2, 20.3)">Q</text><text xml:space="preserve" font-family="HelveticaNeue-Medium,Helvetica Neue" font-size="39.2" fill="#3B3B3B" transform="matrix(1.00, 0.00, -0.00, -1.00, 79.0, 20.3)">u</text><text xml:space="preserve" font-family="HelveticaNeue-Medium,Helvetica Neue" font-size="39.2" fill="#3B3B3B" transform="matrix(1.00, 0.00, -0.00, -1.00, 101.5, 20.3)">i</text><text xml:space="preserve" font-family="HelveticaNeue-Medium,Helvetica Neue" font-size="39.2" fill="#3B3B3B" transform="matrix(1.00, 0.00, -0.00, -1.00, 110.9, 20.3)">z</text><text xml:space="preserve" font-family="HelveticaNeue-Medium,Helvetica Neue" font-size="39.2" fill="#3B3B3B" transform="matrix(1.00, 0.00, -0.00, -1.00, 130.5, 20.3)"> </text><text xml:space="preserve" font-family="HelveticaNeue-Medium,Helvetica Neue" font-size="39.2" fill="#3B3B3B" transform="matrix(1.00, 0.00, -0.00, -1.00, 141.4, 20.3)">1</text><text xml:space="preserve" font-family="HelveticaNeue-Medium,Helvetica Neue" font-size="39.2" fill="#3B3B3B" transform="matrix(1.00, 0.00, -0.00, -1.00, 163.2, 20.3)">0</text><text xml:space="preserve" font-family="HelveticaNeue-Medium,Helvetica Neue" font-size="39.2" fill="#3B3B3B" transform="matrix(1.00, 0.00, -0.00, -1.00, 185.0, 20.3)">1</text></g></g></g></svg>