<?xml version="1.0" encoding="UTF-8" standalone="no"?><svg xmlns="http://www.w3.org/2000/svg" xmlns:xlink="http://www.w3.org/1999/xlink" clip-rule="evenodd" stroke-miterlimit="10" viewBox="0 0 720 540"><desc>SVG generated by Keynote</desc><defs></defs><g transform="matrix(1.00, 0.00, -0.00, -1.00, 0.0, 540.0)"><path d="M 0.0 540.0 L 720.0 540.0 L 720.0 0.0 L 0.0 0.0 Z M 0.0 540.0 " fill="#FFFFFF"></path><text xml:space="preserve" font-family="Tahoma,Tahoma" font-size="10.0" fill="#000000" transform="matrix(1.00, 0.00, -0.00, -1.00, 558.1, 18.0)">2</text><text xml:space="preserve" font-family="Tahoma,Tahoma" font-size="10.0" fill="#000000" transform="matrix(1.00, 0.00, -0.00, -1.00, 563.6, 18.0)">3</text><image xlink:href="../../6D67BE21-344D-4BF3-BD71-CAC06276F456/assets/45DBB3B3E5913D49F03E6FE23749797F.png" width="146.00" height="37.00" transform="matrix(1.00, 0.00, -0.00, -1.00, 41.0, 498.0)"></image><text xml:space="preserve" font-family="Tahoma,Tahoma" font-size="36.0" fill="#000000" transform="matrix(1.00, 0.00, -0.00, -1.00, 40.5, 470.8)">S</text><text xml:space="preserve" font-family="Tahoma,Tahoma" font-size="36.0" fill="#000000" transform="matrix(1.00, 0.00, -0.00, -1.00, 60.6, 470.8)">o</text><text xml:space="preserve" font-family="Tahoma,Tahoma" font-size="36.0" fill="#000000" transform="matrix(1.00, 0.00, -0.00, -1.00, 80.2, 470.8)">r</text><text xml:space="preserve" font-family="Tahoma,Tahoma" font-size="36.0" fill="#000000" transform="matrix(1.00, 0.00, -0.00, -1.00, 93.1, 470.8)">t</text><text xml:space="preserve" font-family="Tahoma,Tahoma" font-size="36.0" fill="#000000" transform="matrix(1.00, 0.00, -0.00, -1.00, 105.2, 470.8)">i</text><text xml:space="preserve" font-family="Tahoma,Tahoma" font-size="36.0" fill="#000000" transform="matrix(1.00, 0.00, -0.00, -1.00, 113.4, 470.8)">n</text><text xml:space="preserve" font-family="Tahoma,Tahoma" font-size="36.0" fill="#000000" transform="matrix(1.00, 0.00, -0.00, -1.00, 133.5, 470.8)">g</text><text xml:space="preserve" font-family="Tahoma,Tahoma" font-size="36.0" fill="#000000" transform="matrix(1.00, 0.00, -0.00, -1.00, 153.4, 470.8)"> </text><text xml:space="preserve" font-family="Tahoma,Tahoma" font-size="36.0" fill="#000000" transform="matrix(1.00, 0.00, -0.00, -1.00, 164.6, 470.8)">–</text><text xml:space="preserve" font-family="Tahoma,Tahoma" font-size="36.0" fill="#000000" transform="matrix(1.00, 0.00, -0.00, -1.00, 184.2, 470.8)"> </text><image xlink:href="../../6D67BE21-344D-4BF3-BD71-CAC06276F456/assets/503812E4CD0FCC64132F12D565EDC267.png" width="166.00" height="38.00" transform="matrix(1.00, 0.00, -0.00, -1.00, 196.0, 499.0)"></image><text xml:space="preserve" font-family="Tahoma,Tahoma" font-size="36.0" fill="#FF0000" transform="matrix(1.00, 0.00, -0.00, -1.00, 195.5, 470.8)">Q</text><text xml:space="preserve" font-family="Tahoma,Tahoma" font-size="36.0" fill="#FF0000" transform="matrix(1.00, 0.00, -0.00, -1.00, 221.0, 470.8)">u</text><text xml:space="preserve" font-family="Tahoma,Tahoma" font-size="36.0" fill="#FF0000" transform="matrix(1.00, 0.00, -0.00, -1.00, 241.0, 470.8)">i</text><text xml:space="preserve" font-family="Tahoma,Tahoma" font-size="36.0" fill="#FF0000" transform="matrix(1.00, 0.00, -0.00, -1.00, 249.2, 470.8)">c</text><text xml:space="preserve" font-family="Tahoma,Tahoma" font-size="36.0" fill="#FF0000" transform="matrix(1.00, 0.00, -0.00, -1.00, 265.9, 470.8)">k</text><text xml:space="preserve" font-family="Tahoma,Tahoma" font-size="36.0" fill="#FF0000" transform="matrix(1.00, 0.00, -0.00, -1.00, 283.8, 470.8)"> </text><text xml:space="preserve" font-family="Tahoma,Tahoma" font-size="36.0" fill="#FF0000" transform="matrix(1.00, 0.00, -0.00, -1.00, 295.0, 470.8)">S</text><text xml:space="preserve" font-family="Tahoma,Tahoma" font-size="36.0" fill="#FF0000" transform="matrix(1.00, 0.00, -0.00, -1.00, 315.2, 470.8)">o</text><text xml:space="preserve" font-family="Tahoma,Tahoma" font-size="36.0" fill="#FF0000" transform="matrix(1.00, 0.00, -0.00, -1.00, 334.7, 470.8)">r</text><text xml:space="preserve" font-family="Tahoma,Tahoma" font-size="36.0" fill="#FF0000" transform="matrix(1.00, 0.00, -0.00, -1.00, 347.7, 470.8)">t</text><text xml:space="preserve" font-family="Tahoma,Tahoma" font-size="36.0" fill="#FF0000" transform="matrix(1.00, 0.00, -0.00, -1.00, 359.8, 470.8)"> </text><path d="M 0.2 -0.2 L 666.2 -0.2 " fill="none" stroke="#0000FF" stroke-width="6.00" stroke-linejoin="round" transform="matrix(1.00, 0.00, 0.00, -1.00, 38.8, 462.8)"></path><text xml:space="preserve" font-family="Tahoma,Tahoma" font-size="11.0" fill="#7E7E7E" transform="matrix(1.00, 0.00, -0.00, -1.00, 468.7, 502.4)">C</text><text xml:space="preserve" font-family="Tahoma,Tahoma" font-size="11.0" fill="#7E7E7E" transform="matrix(1.00, 0.00, -0.00, -1.00, 475.3, 502.4)">o</text><text xml:space="preserve" font-family="Tahoma,Tahoma" font-size="11.0" fill="#7E7E7E" transform="matrix(1.00, 0.00, -0.00, -1.00, 481.3, 502.4)">p</text><text xml:space="preserve" font-family="Tahoma,Tahoma" font-size="11.0" fill="#7E7E7E" transform="matrix(1.00, 0.00, -0.00, -1.00, 487.4, 502.4)">y</text><text xml:space="preserve" font-family="Tahoma,Tahoma" font-size="11.0" fill="#7E7E7E" transform="matrix(1.00, 0.00, -0.00, -1.00, 492.8, 502.4)">r</text><text xml:space="preserve" font-family="Tahoma,Tahoma" font-size="11.0" fill="#7E7E7E" transform="matrix(1.00, 0.00, -0.00, -1.00, 496.8, 502.4)">i</text><text xml:space="preserve" font-family="Tahoma,Tahoma" font-size="11.0" fill="#7E7E7E" transform="matrix(1.00, 0.00, -0.00, -1.00, 499.3, 502.4)">g</text><text xml:space="preserve" font-family="Tahoma,Tahoma" font-size="11.0" fill="#7E7E7E" transform="matrix(1.00, 0.00, -0.00, -1.00, 505.4, 502.4)">h</text><text xml:space="preserve" font-family="Tahoma,Tahoma" font-size="11.0" fill="#7E7E7E" transform="matrix(1.00, 0.00, -0.00, -1.00, 511.5, 502.4)">t</text><text xml:space="preserve" font-family="Tahoma,Tahoma" font-size="11.0" fill="#7E7E7E" transform="matrix(1.00, 0.00, -0.00, -1.00, 515.2, 502.4)"> </text><text xml:space="preserve" font-family="Tahoma,Tahoma" font-size="11.0" fill="#7E7E7E" transform="matrix(1.00, 0.00, -0.00, -1.00, 518.6, 502.4)">©</text><text xml:space="preserve" font-family="Tahoma,Tahoma" font-size="11.0" fill="#7E7E7E" transform="matrix(1.00, 0.00, -0.00, -1.00, 528.8, 502.4)"> </text><text xml:space="preserve" font-family="Tahoma,Tahoma" font-size="11.0" fill="#7E7E7E" transform="matrix(1.00, 0.00, -0.00, -1.00, 532.3, 502.4)">T</text><text xml:space="preserve" font-family="Tahoma,Tahoma" font-size="11.0" fill="#7E7E7E" transform="matrix(1.00, 0.00, -0.00, -1.00, 537.7, 502.4)">u</text><text xml:space="preserve" font-family="Tahoma,Tahoma" font-size="11.0" fill="#7E7E7E" transform="matrix(1.00, 0.00, -0.00, -1.00, 543.8, 502.4)">a</text><text xml:space="preserve" font-family="Tahoma,Tahoma" font-size="11.0" fill="#7E7E7E" transform="matrix(1.00, 0.00, -0.00, -1.00, 549.6, 502.4)">n</text><text xml:space="preserve" font-family="Tahoma,Tahoma" font-size="11.0" fill="#7E7E7E" transform="matrix(1.00, 0.00, -0.00, -1.00, 555.7, 502.4)"> </text><text xml:space="preserve" font-family="Tahoma,Tahoma" font-size="11.0" fill="#7E7E7E" transform="matrix(1.00, 0.00, -0.00, -1.00, 559.1, 502.4)">T</text><text xml:space="preserve" font-family="Tahoma,Tahoma" font-size="11.0" fill="#7E7E7E" transform="matrix(1.00, 0.00, -0.00, -1.00, 564.5, 502.4)">r</text><text xml:space="preserve" font-family="Tahoma,Tahoma" font-size="11.0" fill="#7E7E7E" transform="matrix(1.00, 0.00, -0.00, -1.00, 568.3, 502.4)">a</text><text xml:space="preserve" font-family="Tahoma,Tahoma" font-size="11.0" fill="#7E7E7E" transform="matrix(1.00, 0.00, -0.00, -1.00, 574.1, 502.4)">n</text><text xml:space="preserve" font-family="Tahoma,Tahoma" font-size="11.0" fill="#7E7E7E" transform="matrix(1.00, 0.00, -0.00, -1.00, 580.2, 502.4)"> </text><text xml:space="preserve" font-family="Tahoma,Tahoma" font-size="11.0" fill="#7E7E7E" transform="matrix(1.00, 0.00, -0.00, -1.00, 583.7, 502.4)">2</text><text xml:space="preserve" font-family="Tahoma,Tahoma" font-size="11.0" fill="#7E7E7E" transform="matrix(1.00, 0.00, -0.00, -1.00, 589.7, 502.4)">0</text><text xml:space="preserve" font-family="Tahoma,Tahoma" font-size="11.0" fill="#7E7E7E" transform="matrix(1.00, 0.00, -0.00, -1.00, 595.7, 502.4)">1</text><text xml:space="preserve" font-family="Tahoma,Tahoma" font-size="11.0" fill="#7E7E7E" transform="matrix(1.00, 0.00, -0.00, -1.00, 601.7, 502.4)">4</text><g><g><clipPath id="clip0x7fd38c4e7340"><path d="M 125.5 396.5 L 606.5 396.5 L 606.5 366.4 L 125.5 366.4 Z M 125.5 396.5 "></path></clipPath><g clip-path="url(#clip0x7fd38c4e7340)"><g><clipPath id="clip0x7fd38c4e7ae0"><path d="M 126.5 367.4 L 185.5 367.4 L 185.5 395.5 L 126.5 395.5 Z M 126.5 367.4 "></path></clipPath><g clip-path="url(#clip0x7fd38c4e7ae0)"><text xml:space="preserve" font-family="Tahoma,Tahoma" font-size="18.0" fill="#333399" transform="matrix(1.00, 0.00, -0.00, -1.00, 130.1, 373.6)">2</text></g></g></g></g><g><clipPath id="clip0x7fd38c4e8dd0"><path d="M 125.5 396.5 L 606.5 396.5 L 606.5 366.4 L 125.5 366.4 Z M 125.5 396.5 "></path></clipPath><g clip-path="url(#clip0x7fd38c4e8dd0)"><g><clipPath id="clip0x7fd38c4e9590"><path d="M 186.5 367.4 L 245.5 367.4 L 245.5 395.5 L 186.5 395.5 Z M 186.5 367.4 "></path></clipPath><g clip-path="url(#clip0x7fd38c4e9590)"><text xml:space="preserve" font-family="Tahoma,Tahoma" font-size="18.0" fill="#333399" transform="matrix(1.00, 0.00, -0.00, -1.00, 190.1, 373.6)">1</text></g></g></g></g><g><clipPath id="clip0x7fd38c4ea850"><path d="M 125.5 396.5 L 606.5 396.5 L 606.5 366.4 L 125.5 366.4 Z M 125.5 396.5 "></path></clipPath><g clip-path="url(#clip0x7fd38c4ea850)"><g><clipPath id="clip0x7fd38c4eaff0"><path d="M 246.5 367.4 L 308.8 367.4 L 308.8 395.5 L 246.5 395.5 Z M 246.5 367.4 "></path></clipPath><g clip-path="url(#clip0x7fd38c4eaff0)"><text xml:space="preserve" font-family="Tahoma,Tahoma" font-size="18.0" fill="#333399" transform="matrix(1.00, 0.00, -0.00, -1.00, 250.1, 373.6)">3</text></g></g></g></g><g><clipPath id="clip0x7fd38c4ec260"><path d="M 125.5 396.5 L 606.5 396.5 L 606.5 366.4 L 125.5 366.4 Z M 125.5 396.5 "></path></clipPath><g clip-path="url(#clip0x7fd38c4ec260)"><g><clipPath id="clip0x7fd38c4ec9d0"><path d="M 309.8 367.4 L 365.5 367.4 L 365.5 395.5 L 309.8 395.5 Z M 309.8 367.4 "></path></clipPath><g clip-path="url(#clip0x7fd38c4ec9d0)"><text xml:space="preserve" font-family="Tahoma,Tahoma" font-size="18.0" fill="#333399" transform="matrix(1.00, 0.00, -0.00, -1.00, 313.3, 373.6)">4</text></g></g></g></g><g><clipPath id="clip0x7fd38c4edc60"><path d="M 125.5 396.5 L 606.5 396.5 L 606.5 366.4 L 125.5 366.4 Z M 125.5 396.5 "></path></clipPath><g clip-path="url(#clip0x7fd38c4edc60)"><g><clipPath id="clip0x7fd38c4ee430"><path d="M 366.5 367.4 L 425.5 367.4 L 425.5 395.5 L 366.5 395.5 Z M 366.5 367.4 "></path></clipPath><g clip-path="url(#clip0x7fd38c4ee430)"><text xml:space="preserve" font-family="Tahoma,Tahoma" font-size="18.0" fill="#333399" transform="matrix(1.00, 0.00, -0.00, -1.00, 370.1, 373.6)">7</text></g></g></g></g><g><clipPath id="clip0x7fd38c4ef690"><path d="M 125.5 396.5 L 606.5 396.5 L 606.5 366.4 L 125.5 366.4 Z M 125.5 396.5 "></path></clipPath><g clip-path="url(#clip0x7fd38c4ef690)"><g><clipPath id="clip0x7fd38c4efe00"><path d="M 426.5 367.4 L 485.5 367.4 L 485.5 395.5 L 426.5 395.5 Z M 426.5 367.4 "></path></clipPath><g clip-path="url(#clip0x7fd38c4efe00)"><text xml:space="preserve" font-family="Tahoma,Tahoma" font-size="18.0" fill="#333399" transform="matrix(1.00, 0.00, -0.00, -1.00, 430.1, 373.6)">5</text></g></g></g></g><g><clipPath id="clip0x7fd38c4f1090"><path d="M 125.5 396.5 L 606.5 396.5 L 606.5 366.4 L 125.5 366.4 Z M 125.5 396.5 "></path></clipPath><g clip-path="url(#clip0x7fd38c4f1090)"><g><clipPath id="clip0x7fd38c4f1830"><path d="M 486.5 367.4 L 545.5 367.4 L 545.5 395.5 L 486.5 395.5 Z M 486.5 367.4 "></path></clipPath><g clip-path="url(#clip0x7fd38c4f1830)"><text xml:space="preserve" font-family="Tahoma,Tahoma" font-size="18.0" fill="#333399" transform="matrix(1.00, 0.00, -0.00, -1.00, 490.1, 373.6)">6</text></g></g></g></g><g><clipPath id="clip0x7fd38c4f2aa0"><path d="M 125.5 396.5 L 606.5 396.5 L 606.5 366.4 L 125.5 366.4 Z M 125.5 396.5 "></path></clipPath><g clip-path="url(#clip0x7fd38c4f2aa0)"><g><clipPath id="clip0x7fd38c4f3250"><path d="M 546.5 367.4 L 605.5 367.4 L 605.5 395.5 L 546.5 395.5 Z M 546.5 367.4 "></path></clipPath><g clip-path="url(#clip0x7fd38c4f3250)"><text xml:space="preserve" font-family="Tahoma,Tahoma" font-size="18.0" fill="#333399" transform="matrix(1.00, 0.00, -0.00, -1.00, 550.1, 373.6)">8</text></g></g></g></g><g><clipPath id="clip0x7fd38c4f44f0"><path d="M 125.5 396.5 L 606.5 396.5 L 606.5 366.4 L 125.5 366.4 Z M 125.5 396.5 "></path></clipPath><g clip-path="url(#clip0x7fd38c4f44f0)"><g><clipPath id="clip0x7fd38c4f4c30"><path d="M 0.0 0.0 L 720.0 0.0 L 720.0 540.0 L 0.0 540.0 Z M 0.0 0.0 "></path></clipPath><g clip-path="url(#clip0x7fd38c4f4c30)"><path d="M 62.0 1.5 L 62.0 31.6 " fill="none" stroke="#000000" stroke-width="1.00" stroke-linejoin="round" transform="matrix(1.00, 0.00, 0.00, -1.00, 124.0, 398.0)"></path><path d="M 122.0 1.5 L 122.0 31.6 " fill="none" stroke="#000000" stroke-width="1.00" stroke-linejoin="round" transform="matrix(1.00, 0.00, 0.00, -1.00, 124.0, 398.0)"></path><path d="M 185.2 1.5 L 185.2 31.6 " fill="none" stroke="#000000" stroke-width="1.00" stroke-linejoin="round" transform="matrix(1.00, 0.00, 0.00, -1.00, 124.0, 398.0)"></path><path d="M 242.0 1.5 L 242.0 31.6 " fill="none" stroke="#000000" stroke-width="1.00" stroke-linejoin="round" transform="matrix(1.00, 0.00, 0.00, -1.00, 124.0, 398.0)"></path><path d="M 302.0 1.5 L 302.0 31.6 " fill="none" stroke="#000000" stroke-width="1.00" stroke-linejoin="round" transform="matrix(1.00, 0.00, 0.00, -1.00, 124.0, 398.0)"></path><path d="M 362.0 1.5 L 362.0 31.6 " fill="none" stroke="#000000" stroke-width="1.00" stroke-linejoin="round" transform="matrix(1.00, 0.00, 0.00, -1.00, 124.0, 398.0)"></path><path d="M 422.0 1.5 L 422.0 31.6 " fill="none" stroke="#000000" stroke-width="1.00" stroke-linejoin="round" transform="matrix(1.00, 0.00, 0.00, -1.00, 124.0, 398.0)"></path><path d="M 2.0 1.5 L 2.0 31.6 " fill="none" stroke="#000000" stroke-width="1.00" stroke-linejoin="round" transform="matrix(1.00, 0.00, 0.00, -1.00, 124.0, 398.0)"></path><path d="M 482.0 1.5 L 482.0 31.6 " fill="none" stroke="#000000" stroke-width="1.00" stroke-linejoin="round" transform="matrix(1.00, 0.00, 0.00, -1.00, 124.0, 398.0)"></path><path d="M 1.5 2.0 L 482.5 2.0 " fill="none" stroke="#000000" stroke-width="1.00" stroke-linejoin="round" transform="matrix(1.00, 0.00, 0.00, -1.00, 124.0, 398.0)"></path><path d="M 1.5 31.1 L 482.5 31.1 " fill="none" stroke="#000000" stroke-width="1.00" stroke-linejoin="round" transform="matrix(1.00, 0.00, 0.00, -1.00, 124.0, 398.0)"></path></g></g></g></g></g><text xml:space="preserve" font-family="Tahoma,Tahoma" font-size="16.0" fill="#0000FF" transform="matrix(1.00, 0.00, -0.00, -1.00, 40.5, 433.5)">B</text><text xml:space="preserve" font-family="Tahoma,Tahoma" font-size="16.0" fill="#0000FF" transform="matrix(1.00, 0.00, -0.00, -1.00, 49.9, 433.5)">y</text><text xml:space="preserve" font-family="Tahoma,Tahoma" font-size="16.0" fill="#0000FF" transform="matrix(1.00, 0.00, -0.00, -1.00, 57.9, 433.5)"> </text><text xml:space="preserve" font-family="Tahoma,Tahoma" font-size="16.0" fill="#0000FF" transform="matrix(1.00, 0.00, -0.00, -1.00, 62.9, 433.5)">t</text><text xml:space="preserve" font-family="Tahoma,Tahoma" font-size="16.0" fill="#0000FF" transform="matrix(1.00, 0.00, -0.00, -1.00, 68.2, 433.5)">h</text><text xml:space="preserve" font-family="Tahoma,Tahoma" font-size="16.0" fill="#0000FF" transform="matrix(1.00, 0.00, -0.00, -1.00, 77.2, 433.5)">e</text><text xml:space="preserve" font-family="Tahoma,Tahoma" font-size="16.0" fill="#0000FF" transform="matrix(1.00, 0.00, -0.00, -1.00, 85.6, 433.5)"> </text><text xml:space="preserve" font-family="Tahoma,Tahoma" font-size="16.0" fill="#0000FF" transform="matrix(1.00, 0.00, -0.00, -1.00, 90.6, 433.5)">t</text><text xml:space="preserve" font-family="Tahoma,Tahoma" font-size="16.0" fill="#0000FF" transform="matrix(1.00, 0.00, -0.00, -1.00, 95.9, 433.5)">i</text><text xml:space="preserve" font-family="Tahoma,Tahoma" font-size="16.0" fill="#0000FF" transform="matrix(1.00, 0.00, -0.00, -1.00, 99.6, 433.5)">m</text><text xml:space="preserve" font-family="Tahoma,Tahoma" font-size="16.0" fill="#0000FF" transform="matrix(1.00, 0.00, -0.00, -1.00, 113.0, 433.5)">e</text><text xml:space="preserve" font-family="Tahoma,Tahoma" font-size="16.0" fill="#0000FF" transform="matrix(1.00, 0.00, -0.00, -1.00, 121.5, 433.5)"> </text><text xml:space="preserve" font-family="Tahoma,Tahoma" font-size="16.0" fill="#0000FF" transform="matrix(1.00, 0.00, -0.00, -1.00, 126.4, 433.5)">w</text><text xml:space="preserve" font-family="Tahoma,Tahoma" font-size="16.0" fill="#0000FF" transform="matrix(1.00, 0.00, -0.00, -1.00, 138.3, 433.5)">e</text><text xml:space="preserve" font-family="Tahoma,Tahoma" font-size="16.0" fill="#0000FF" transform="matrix(1.00, 0.00, -0.00, -1.00, 146.8, 433.5)"> </text><text xml:space="preserve" font-family="Tahoma,Tahoma" font-size="16.0" fill="#0000FF" transform="matrix(1.00, 0.00, -0.00, -1.00, 151.7, 433.5)">a</text><text xml:space="preserve" font-family="Tahoma,Tahoma" font-size="16.0" fill="#0000FF" transform="matrix(1.00, 0.00, -0.00, -1.00, 160.1, 433.5)">r</text><text xml:space="preserve" font-family="Tahoma,Tahoma" font-size="16.0" fill="#0000FF" transform="matrix(1.00, 0.00, -0.00, -1.00, 165.8, 433.5)">e</text><text xml:space="preserve" font-family="Tahoma,Tahoma" font-size="16.0" fill="#0000FF" transform="matrix(1.00, 0.00, -0.00, -1.00, 174.3, 433.5)"> </text><text xml:space="preserve" font-family="Tahoma,Tahoma" font-size="16.0" fill="#0000FF" transform="matrix(1.00, 0.00, -0.00, -1.00, 179.3, 433.5)">d</text><text xml:space="preserve" font-family="Tahoma,Tahoma" font-size="16.0" fill="#0000FF" transform="matrix(1.00, 0.00, -0.00, -1.00, 188.1, 433.5)">o</text><text xml:space="preserve" font-family="Tahoma,Tahoma" font-size="16.0" fill="#0000FF" transform="matrix(1.00, 0.00, -0.00, -1.00, 196.8, 433.5)">n</text><text xml:space="preserve" font-family="Tahoma,Tahoma" font-size="16.0" fill="#0000FF" transform="matrix(1.00, 0.00, -0.00, -1.00, 205.7, 433.5)">e</text><text xml:space="preserve" font-family="Tahoma,Tahoma" font-size="16.0" fill="#0000FF" transform="matrix(1.00, 0.00, -0.00, -1.00, 214.1, 433.5)"> </text><text xml:space="preserve" font-family="Tahoma,Tahoma" font-size="16.0" fill="#0000FF" transform="matrix(1.00, 0.00, -0.00, -1.00, 219.1, 433.5)">w</text><text xml:space="preserve" font-family="Tahoma,Tahoma" font-size="16.0" fill="#0000FF" transform="matrix(1.00, 0.00, -0.00, -1.00, 231.0, 433.5)">i</text><text xml:space="preserve" font-family="Tahoma,Tahoma" font-size="16.0" fill="#0000FF" transform="matrix(1.00, 0.00, -0.00, -1.00, 234.7, 433.5)">t</text><text xml:space="preserve" font-family="Tahoma,Tahoma" font-size="16.0" fill="#0000FF" transform="matrix(1.00, 0.00, -0.00, -1.00, 240.0, 433.5)">h</text><text xml:space="preserve" font-family="Tahoma,Tahoma" font-size="16.0" fill="#0000FF" transform="matrix(1.00, 0.00, -0.00, -1.00, 248.9, 433.5)"> </text><text xml:space="preserve" font-family="Tahoma,Tahoma" font-size="16.0" fill="#0000FF" transform="matrix(1.00, 0.00, -0.00, -1.00, 253.9, 433.5)">t</text><text xml:space="preserve" font-family="Tahoma,Tahoma" font-size="16.0" fill="#0000FF" transform="matrix(1.00, 0.00, -0.00, -1.00, 259.3, 433.5)">h</text><text xml:space="preserve" font-family="Tahoma,Tahoma" font-size="16.0" fill="#0000FF" transform="matrix(1.00, 0.00, -0.00, -1.00, 268.2, 433.5)">e</text><text xml:space="preserve" font-family="Tahoma,Tahoma" font-size="16.0" fill="#0000FF" transform="matrix(1.00, 0.00, -0.00, -1.00, 276.6, 433.5)"> </text><text xml:space="preserve" font-family="Tahoma,Tahoma" font-size="16.0" fill="#0000FF" transform="matrix(1.00, 0.00, -0.00, -1.00, 281.6, 433.5)">f</text><text xml:space="preserve" font-family="Tahoma,Tahoma" font-size="16.0" fill="#0000FF" transform="matrix(1.00, 0.00, -0.00, -1.00, 286.7, 433.5)">i</text><text xml:space="preserve" font-family="Tahoma,Tahoma" font-size="16.0" fill="#0000FF" transform="matrix(1.00, 0.00, -0.00, -1.00, 290.4, 433.5)">r</text><text xml:space="preserve" font-family="Tahoma,Tahoma" font-size="16.0" fill="#0000FF" transform="matrix(1.00, 0.00, -0.00, -1.00, 296.2, 433.5)">s</text><text xml:space="preserve" font-family="Tahoma,Tahoma" font-size="16.0" fill="#0000FF" transform="matrix(1.00, 0.00, -0.00, -1.00, 303.3, 433.5)">t</text><text xml:space="preserve" font-family="Tahoma,Tahoma" font-size="16.0" fill="#0000FF" transform="matrix(1.00, 0.00, -0.00, -1.00, 308.7, 433.5)"> </text><text xml:space="preserve" font-family="Tahoma,Tahoma" font-size="16.0" fill="#0000FF" transform="matrix(1.00, 0.00, -0.00, -1.00, 313.7, 433.5)">i</text><text xml:space="preserve" font-family="Tahoma,Tahoma" font-size="16.0" fill="#0000FF" transform="matrix(1.00, 0.00, -0.00, -1.00, 317.3, 433.5)">t</text><text xml:space="preserve" font-family="Tahoma,Tahoma" font-size="16.0" fill="#0000FF" transform="matrix(1.00, 0.00, -0.00, -1.00, 322.7, 433.5)">e</text><text xml:space="preserve" font-family="Tahoma,Tahoma" font-size="16.0" fill="#0000FF" transform="matrix(1.00, 0.00, -0.00, -1.00, 331.1, 433.5)">r</text><text xml:space="preserve" font-family="Tahoma,Tahoma" font-size="16.0" fill="#0000FF" transform="matrix(1.00, 0.00, -0.00, -1.00, 336.6, 433.5)">a</text><text xml:space="preserve" font-family="Tahoma,Tahoma" font-size="16.0" fill="#0000FF" transform="matrix(1.00, 0.00, -0.00, -1.00, 345.0, 433.5)">t</text><text xml:space="preserve" font-family="Tahoma,Tahoma" font-size="16.0" fill="#0000FF" transform="matrix(1.00, 0.00, -0.00, -1.00, 350.4, 433.5)">i</text><text xml:space="preserve" font-family="Tahoma,Tahoma" font-size="16.0" fill="#0000FF" transform="matrix(1.00, 0.00, -0.00, -1.00, 354.0, 433.5)">o</text><text xml:space="preserve" font-family="Tahoma,Tahoma" font-size="16.0" fill="#0000FF" transform="matrix(1.00, 0.00, -0.00, -1.00, 362.7, 433.5)">n</text><text xml:space="preserve" font-family="Tahoma,Tahoma" font-size="16.0" fill="#0000FF" transform="matrix(1.00, 0.00, -0.00, -1.00, 371.6, 433.5)">,</text><text xml:space="preserve" font-family="Tahoma,Tahoma" font-size="16.0" fill="#0000FF" transform="matrix(1.00, 0.00, -0.00, -1.00, 376.5, 433.5)"> </text><text xml:space="preserve" font-family="Tahoma,Tahoma" font-size="16.0" fill="#0000FF" transform="matrix(1.00, 0.00, -0.00, -1.00, 381.5, 433.5)">w</text><text xml:space="preserve" font-family="Tahoma,Tahoma" font-size="16.0" fill="#0000FF" transform="matrix(1.00, 0.00, -0.00, -1.00, 393.3, 433.5)">e</text><text xml:space="preserve" font-family="Tahoma,Tahoma" font-size="16.0" fill="#0000FF" transform="matrix(1.00, 0.00, -0.00, -1.00, 401.8, 433.5)"> </text><text xml:space="preserve" font-family="Tahoma,Tahoma" font-size="16.0" fill="#0000FF" transform="matrix(1.00, 0.00, -0.00, -1.00, 406.8, 433.5)">w</text><text xml:space="preserve" font-family="Tahoma,Tahoma" font-size="16.0" fill="#0000FF" transform="matrix(1.00, 0.00, -0.00, -1.00, 418.6, 433.5)">i</text><text xml:space="preserve" font-family="Tahoma,Tahoma" font-size="16.0" fill="#0000FF" transform="matrix(1.00, 0.00, -0.00, -1.00, 422.3, 433.5)">l</text><text xml:space="preserve" font-family="Tahoma,Tahoma" font-size="16.0" fill="#0000FF" transform="matrix(1.00, 0.00, -0.00, -1.00, 426.0, 433.5)">l</text><text xml:space="preserve" font-family="Tahoma,Tahoma" font-size="16.0" fill="#0000FF" transform="matrix(1.00, 0.00, -0.00, -1.00, 429.6, 433.5)"> </text><text xml:space="preserve" font-family="Tahoma,Tahoma" font-size="16.0" fill="#0000FF" transform="matrix(1.00, 0.00, -0.00, -1.00, 434.6, 433.5)">h</text><text xml:space="preserve" font-family="Tahoma,Tahoma" font-size="16.0" fill="#0000FF" transform="matrix(1.00, 0.00, -0.00, -1.00, 443.5, 433.5)">a</text><text xml:space="preserve" font-family="Tahoma,Tahoma" font-size="16.0" fill="#0000FF" transform="matrix(1.00, 0.00, -0.00, -1.00, 451.8, 433.5)">v</text><text xml:space="preserve" font-family="Tahoma,Tahoma" font-size="16.0" fill="#0000FF" transform="matrix(1.00, 0.00, -0.00, -1.00, 459.7, 433.5)">e</text><text xml:space="preserve" font-family="Tahoma,Tahoma" font-size="16.0" fill="#0000FF" transform="matrix(1.00, 0.00, -0.00, -1.00, 468.1, 433.5)"> </text><text xml:space="preserve" font-family="Tahoma,Tahoma" font-size="16.0" fill="#0000FF" transform="matrix(1.00, 0.00, -0.00, -1.00, 473.1, 433.5)">t</text><text xml:space="preserve" font-family="Tahoma,Tahoma" font-size="16.0" fill="#0000FF" transform="matrix(1.00, 0.00, -0.00, -1.00, 478.5, 433.5)">h</text><text xml:space="preserve" font-family="Tahoma,Tahoma" font-size="16.0" fill="#0000FF" transform="matrix(1.00, 0.00, -0.00, -1.00, 487.4, 433.5)">e</text><text xml:space="preserve" font-family="Tahoma,Tahoma" font-size="16.0" fill="#0000FF" transform="matrix(1.00, 0.00, -0.00, -1.00, 495.8, 433.5)"> </text><text xml:space="preserve" font-family="Tahoma,Tahoma" font-size="16.0" fill="#0000FF" transform="matrix(1.00, 0.00, -0.00, -1.00, 500.8, 433.5)">p</text><text xml:space="preserve" font-family="Tahoma,Tahoma" font-size="16.0" fill="#0000FF" transform="matrix(1.00, 0.00, -0.00, -1.00, 509.6, 433.5)">i</text><text xml:space="preserve" font-family="Tahoma,Tahoma" font-size="16.0" fill="#0000FF" transform="matrix(1.00, 0.00, -0.00, -1.00, 513.3, 433.5)">v</text><text xml:space="preserve" font-family="Tahoma,Tahoma" font-size="16.0" fill="#0000FF" transform="matrix(1.00, 0.00, -0.00, -1.00, 521.1, 433.5)">o</text><text xml:space="preserve" font-family="Tahoma,Tahoma" font-size="16.0" fill="#0000FF" transform="matrix(1.00, 0.00, -0.00, -1.00, 529.8, 433.5)">t</text><text xml:space="preserve" font-family="Tahoma,Tahoma" font-size="16.0" fill="#0000FF" transform="matrix(1.00, 0.00, -0.00, -1.00, 535.2, 433.5)"> </text><text xml:space="preserve" font-family="Tahoma,Tahoma" font-size="16.0" fill="#0000FF" transform="matrix(1.00, 0.00, -0.00, -1.00, 540.2, 433.5)">i</text><text xml:space="preserve" font-family="Tahoma,Tahoma" font-size="16.0" fill="#0000FF" transform="matrix(1.00, 0.00, -0.00, -1.00, 543.8, 433.5)">n</text><text xml:space="preserve" font-family="Tahoma,Tahoma" font-size="16.0" fill="#0000FF" transform="matrix(1.00, 0.00, -0.00, -1.00, 552.7, 433.5)"> </text><text xml:space="preserve" font-family="Tahoma,Tahoma" font-size="16.0" fill="#0000FF" transform="matrix(1.00, 0.00, -0.00, -1.00, 557.7, 433.5)">t</text><text xml:space="preserve" font-family="Tahoma,Tahoma" font-size="16.0" fill="#0000FF" transform="matrix(1.00, 0.00, -0.00, -1.00, 563.1, 433.5)">h</text><text xml:space="preserve" font-family="Tahoma,Tahoma" font-size="16.0" fill="#0000FF" transform="matrix(1.00, 0.00, -0.00, -1.00, 572.0, 433.5)">e</text><text xml:space="preserve" font-family="Tahoma,Tahoma" font-size="16.0" fill="#0000FF" transform="matrix(1.00, 0.00, -0.00, -1.00, 580.4, 433.5)"> </text><text xml:space="preserve" font-family="Tahoma,Tahoma" font-size="16.0" fill="#0000FF" transform="matrix(1.00, 0.00, -0.00, -1.00, 585.4, 433.5)">r</text><text xml:space="preserve" font-family="Tahoma,Tahoma" font-size="16.0" fill="#0000FF" transform="matrix(1.00, 0.00, -0.00, -1.00, 591.2, 433.5)">i</text><text xml:space="preserve" font-family="Tahoma,Tahoma" font-size="16.0" fill="#0000FF" transform="matrix(1.00, 0.00, -0.00, -1.00, 594.8, 433.5)">g</text><text xml:space="preserve" font-family="Tahoma,Tahoma" font-size="16.0" fill="#0000FF" transform="matrix(1.00, 0.00, -0.00, -1.00, 603.7, 433.5)">h</text><text xml:space="preserve" font-family="Tahoma,Tahoma" font-size="16.0" fill="#0000FF" transform="matrix(1.00, 0.00, -0.00, -1.00, 612.6, 433.5)">t</text><text xml:space="preserve" font-family="Tahoma,Tahoma" font-size="16.0" fill="#0000FF" transform="matrix(1.00, 0.00, -0.00, -1.00, 618.0, 433.5)"> </text><text xml:space="preserve" font-family="Tahoma,Tahoma" font-size="16.0" fill="#0000FF" transform="matrix(1.00, 0.00, -0.00, -1.00, 622.9, 433.5)">p</text><text xml:space="preserve" font-family="Tahoma,Tahoma" font-size="16.0" fill="#0000FF" transform="matrix(1.00, 0.00, -0.00, -1.00, 631.8, 433.5)">o</text><text xml:space="preserve" font-family="Tahoma,Tahoma" font-size="16.0" fill="#0000FF" transform="matrix(1.00, 0.00, -0.00, -1.00, 640.5, 433.5)">s</text><text xml:space="preserve" font-family="Tahoma,Tahoma" font-size="16.0" fill="#0000FF" transform="matrix(1.00, 0.00, -0.00, -1.00, 647.6, 433.5)">i</text><text xml:space="preserve" font-family="Tahoma,Tahoma" font-size="16.0" fill="#0000FF" transform="matrix(1.00, 0.00, -0.00, -1.00, 651.3, 433.5)">t</text><text xml:space="preserve" font-family="Tahoma,Tahoma" font-size="16.0" fill="#0000FF" transform="matrix(1.00, 0.00, -0.00, -1.00, 656.7, 433.5)">i</text><text xml:space="preserve" font-family="Tahoma,Tahoma" font-size="16.0" fill="#0000FF" transform="matrix(1.00, 0.00, -0.00, -1.00, 660.3, 433.5)">o</text><text xml:space="preserve" font-family="Tahoma,Tahoma" font-size="16.0" fill="#0000FF" transform="matrix(1.00, 0.00, -0.00, -1.00, 669.0, 433.5)">n</text><text xml:space="preserve" font-family="Tahoma,Tahoma" font-size="16.0" fill="#0000FF" transform="matrix(1.00, 0.00, -0.00, -1.00, 677.9, 433.5)">.</text><text xml:space="preserve" font-family="Tahoma,Tahoma" font-size="16.0" fill="#0000FF" transform="matrix(1.00, 0.00, -0.00, -1.00, 682.7, 433.5)"> </text><text xml:space="preserve" font-family="Tahoma,Tahoma" font-size="16.0" fill="#0000FF" transform="matrix(1.00, 0.00, -0.00, -1.00, 40.5, 414.5)">N</text><text xml:space="preserve" font-family="Tahoma,Tahoma" font-size="16.0" fill="#0000FF" transform="matrix(1.00, 0.00, -0.00, -1.00, 51.2, 414.5)">o</text><text xml:space="preserve" font-family="Tahoma,Tahoma" font-size="16.0" fill="#0000FF" transform="matrix(1.00, 0.00, -0.00, -1.00, 59.9, 414.5)">w</text><text xml:space="preserve" font-family="Tahoma,Tahoma" font-size="16.0" fill="#0000FF" transform="matrix(1.00, 0.00, -0.00, -1.00, 71.7, 414.5)"> </text><text xml:space="preserve" font-family="Tahoma,Tahoma" font-size="16.0" fill="#0000FF" transform="matrix(1.00, 0.00, -0.00, -1.00, 76.7, 414.5)">w</text><text xml:space="preserve" font-family="Tahoma,Tahoma" font-size="16.0" fill="#0000FF" transform="matrix(1.00, 0.00, -0.00, -1.00, 88.6, 414.5)">e</text><text xml:space="preserve" font-family="Tahoma,Tahoma" font-size="16.0" fill="#0000FF" transform="matrix(1.00, 0.00, -0.00, -1.00, 97.0, 414.5)"> </text><text xml:space="preserve" font-family="Tahoma,Tahoma" font-size="16.0" fill="#0000FF" transform="matrix(1.00, 0.00, -0.00, -1.00, 102.0, 414.5)">d</text><text xml:space="preserve" font-family="Tahoma,Tahoma" font-size="16.0" fill="#0000FF" transform="matrix(1.00, 0.00, -0.00, -1.00, 110.9, 414.5)">o</text><text xml:space="preserve" font-family="Tahoma,Tahoma" font-size="16.0" fill="#0000FF" transform="matrix(1.00, 0.00, -0.00, -1.00, 119.5, 414.5)"> </text><text xml:space="preserve" font-family="Tahoma,Tahoma" font-size="16.0" fill="#0000FF" transform="matrix(1.00, 0.00, -0.00, -1.00, 124.5, 414.5)">a</text><text xml:space="preserve" font-family="Tahoma,Tahoma" font-size="16.0" fill="#0000FF" transform="matrix(1.00, 0.00, -0.00, -1.00, 132.9, 414.5)"> </text><text xml:space="preserve" font-family="Tahoma,Tahoma" font-size="16.0" fill="#0000FF" transform="matrix(1.00, 0.00, -0.00, -1.00, 137.9, 414.5)">r</text><text xml:space="preserve" font-family="Tahoma,Tahoma" font-size="16.0" fill="#0000FF" transform="matrix(1.00, 0.00, -0.00, -1.00, 143.6, 414.5)">e</text><text xml:space="preserve" font-family="Tahoma,Tahoma" font-size="16.0" fill="#0000FF" transform="matrix(1.00, 0.00, -0.00, -1.00, 152.0, 414.5)">c</text><text xml:space="preserve" font-family="Tahoma,Tahoma" font-size="16.0" fill="#0000FF" transform="matrix(1.00, 0.00, -0.00, -1.00, 159.4, 414.5)">u</text><text xml:space="preserve" font-family="Tahoma,Tahoma" font-size="16.0" fill="#0000FF" transform="matrix(1.00, 0.00, -0.00, -1.00, 168.4, 414.5)">r</text><text xml:space="preserve" font-family="Tahoma,Tahoma" font-size="16.0" fill="#0000FF" transform="matrix(1.00, 0.00, -0.00, -1.00, 174.1, 414.5)">s</text><text xml:space="preserve" font-family="Tahoma,Tahoma" font-size="16.0" fill="#0000FF" transform="matrix(1.00, 0.00, -0.00, -1.00, 181.3, 414.5)">i</text><text xml:space="preserve" font-family="Tahoma,Tahoma" font-size="16.0" fill="#0000FF" transform="matrix(1.00, 0.00, -0.00, -1.00, 184.9, 414.5)">v</text><text xml:space="preserve" font-family="Tahoma,Tahoma" font-size="16.0" fill="#0000FF" transform="matrix(1.00, 0.00, -0.00, -1.00, 192.8, 414.5)">e</text><text xml:space="preserve" font-family="Tahoma,Tahoma" font-size="16.0" fill="#0000FF" transform="matrix(1.00, 0.00, -0.00, -1.00, 201.2, 414.5)"> </text><text xml:space="preserve" font-family="Tahoma,Tahoma" font-size="16.0" fill="#0000FF" transform="matrix(1.00, 0.00, -0.00, -1.00, 206.2, 414.5)">c</text><text xml:space="preserve" font-family="Tahoma,Tahoma" font-size="16.0" fill="#0000FF" transform="matrix(1.00, 0.00, -0.00, -1.00, 213.6, 414.5)">a</text><text xml:space="preserve" font-family="Tahoma,Tahoma" font-size="16.0" fill="#0000FF" transform="matrix(1.00, 0.00, -0.00, -1.00, 222.0, 414.5)">l</text><text xml:space="preserve" font-family="Tahoma,Tahoma" font-size="16.0" fill="#0000FF" transform="matrix(1.00, 0.00, -0.00, -1.00, 225.7, 414.5)">l</text><text xml:space="preserve" font-family="Tahoma,Tahoma" font-size="16.0" fill="#0000FF" transform="matrix(1.00, 0.00, -0.00, -1.00, 229.3, 414.5)"> </text><text xml:space="preserve" font-family="Tahoma,Tahoma" font-size="16.0" fill="#0000FF" transform="matrix(1.00, 0.00, -0.00, -1.00, 234.3, 414.5)">a</text><text xml:space="preserve" font-family="Tahoma,Tahoma" font-size="16.0" fill="#0000FF" transform="matrix(1.00, 0.00, -0.00, -1.00, 242.7, 414.5)">n</text><text xml:space="preserve" font-family="Tahoma,Tahoma" font-size="16.0" fill="#0000FF" transform="matrix(1.00, 0.00, -0.00, -1.00, 251.6, 414.5)">d</text><text xml:space="preserve" font-family="Tahoma,Tahoma" font-size="16.0" fill="#0000FF" transform="matrix(1.00, 0.00, -0.00, -1.00, 260.5, 414.5)"> </text><text xml:space="preserve" font-family="Tahoma,Tahoma" font-size="16.0" fill="#0000FF" transform="matrix(1.00, 0.00, -0.00, -1.00, 265.4, 414.5)">p</text><text xml:space="preserve" font-family="Tahoma,Tahoma" font-size="16.0" fill="#0000FF" transform="matrix(1.00, 0.00, -0.00, -1.00, 274.3, 414.5)">e</text><text xml:space="preserve" font-family="Tahoma,Tahoma" font-size="16.0" fill="#0000FF" transform="matrix(1.00, 0.00, -0.00, -1.00, 282.7, 414.5)">r</text><text xml:space="preserve" font-family="Tahoma,Tahoma" font-size="16.0" fill="#0000FF" transform="matrix(1.00, 0.00, -0.00, -1.00, 288.5, 414.5)">f</text><text xml:space="preserve" font-family="Tahoma,Tahoma" font-size="16.0" fill="#0000FF" transform="matrix(1.00, 0.00, -0.00, -1.00, 293.4, 414.5)">o</text><text xml:space="preserve" font-family="Tahoma,Tahoma" font-size="16.0" fill="#0000FF" transform="matrix(1.00, 0.00, -0.00, -1.00, 302.1, 414.5)">r</text><text xml:space="preserve" font-family="Tahoma,Tahoma" font-size="16.0" fill="#0000FF" transform="matrix(1.00, 0.00, -0.00, -1.00, 307.9, 414.5)">m</text><text xml:space="preserve" font-family="Tahoma,Tahoma" font-size="16.0" fill="#0000FF" transform="matrix(1.00, 0.00, -0.00, -1.00, 321.3, 414.5)"> </text><text xml:space="preserve" font-family="Tahoma,Tahoma" font-size="16.0" fill="#0000FF" transform="matrix(1.00, 0.00, -0.00, -1.00, 326.3, 414.5)">t</text><text xml:space="preserve" font-family="Tahoma,Tahoma" font-size="16.0" fill="#0000FF" transform="matrix(1.00, 0.00, -0.00, -1.00, 331.7, 414.5)">h</text><text xml:space="preserve" font-family="Tahoma,Tahoma" font-size="16.0" fill="#0000FF" transform="matrix(1.00, 0.00, -0.00, -1.00, 340.6, 414.5)">e</text><text xml:space="preserve" font-family="Tahoma,Tahoma" font-size="16.0" fill="#0000FF" transform="matrix(1.00, 0.00, -0.00, -1.00, 349.0, 414.5)"> </text><text xml:space="preserve" font-family="Tahoma,Tahoma" font-size="16.0" fill="#0000FF" transform="matrix(1.00, 0.00, -0.00, -1.00, 354.0, 414.5)">s</text><text xml:space="preserve" font-family="Tahoma,Tahoma" font-size="16.0" fill="#0000FF" transform="matrix(1.00, 0.00, -0.00, -1.00, 361.2, 414.5)">a</text><text xml:space="preserve" font-family="Tahoma,Tahoma" font-size="16.0" fill="#0000FF" transform="matrix(1.00, 0.00, -0.00, -1.00, 369.6, 414.5)">m</text><text xml:space="preserve" font-family="Tahoma,Tahoma" font-size="16.0" fill="#0000FF" transform="matrix(1.00, 0.00, -0.00, -1.00, 383.0, 414.5)">e</text><text xml:space="preserve" font-family="Tahoma,Tahoma" font-size="16.0" fill="#0000FF" transform="matrix(1.00, 0.00, -0.00, -1.00, 391.4, 414.5)"> </text><text xml:space="preserve" font-family="Tahoma,Tahoma" font-size="16.0" fill="#0000FF" transform="matrix(1.00, 0.00, -0.00, -1.00, 396.4, 414.5)">c</text><text xml:space="preserve" font-family="Tahoma,Tahoma" font-size="16.0" fill="#0000FF" transform="matrix(1.00, 0.00, -0.00, -1.00, 403.8, 414.5)">a</text><text xml:space="preserve" font-family="Tahoma,Tahoma" font-size="16.0" fill="#0000FF" transform="matrix(1.00, 0.00, -0.00, -1.00, 412.2, 414.5)">l</text><text xml:space="preserve" font-family="Tahoma,Tahoma" font-size="16.0" fill="#0000FF" transform="matrix(1.00, 0.00, -0.00, -1.00, 415.8, 414.5)">c</text><text xml:space="preserve" font-family="Tahoma,Tahoma" font-size="16.0" fill="#0000FF" transform="matrix(1.00, 0.00, -0.00, -1.00, 423.2, 414.5)">u</text><text xml:space="preserve" font-family="Tahoma,Tahoma" font-size="16.0" fill="#0000FF" transform="matrix(1.00, 0.00, -0.00, -1.00, 432.1, 414.5)">l</text><text xml:space="preserve" font-family="Tahoma,Tahoma" font-size="16.0" fill="#0000FF" transform="matrix(1.00, 0.00, -0.00, -1.00, 435.8, 414.5)">a</text><text xml:space="preserve" font-family="Tahoma,Tahoma" font-size="16.0" fill="#0000FF" transform="matrix(1.00, 0.00, -0.00, -1.00, 444.2, 414.5)">t</text><text xml:space="preserve" font-family="Tahoma,Tahoma" font-size="16.0" fill="#0000FF" transform="matrix(1.00, 0.00, -0.00, -1.00, 449.6, 414.5)">i</text><text xml:space="preserve" font-family="Tahoma,Tahoma" font-size="16.0" fill="#0000FF" transform="matrix(1.00, 0.00, -0.00, -1.00, 453.2, 414.5)">o</text><text xml:space="preserve" font-family="Tahoma,Tahoma" font-size="16.0" fill="#0000FF" transform="matrix(1.00, 0.00, -0.00, -1.00, 461.9, 414.5)">n</text><text xml:space="preserve" font-family="Tahoma,Tahoma" font-size="16.0" fill="#0000FF" transform="matrix(1.00, 0.00, -0.00, -1.00, 470.8, 414.5)"> </text><text xml:space="preserve" font-family="Tahoma,Tahoma" font-size="16.0" fill="#0000FF" transform="matrix(1.00, 0.00, -0.00, -1.00, 475.8, 414.5)">f</text><text xml:space="preserve" font-family="Tahoma,Tahoma" font-size="16.0" fill="#0000FF" transform="matrix(1.00, 0.00, -0.00, -1.00, 480.7, 414.5)">o</text><text xml:space="preserve" font-family="Tahoma,Tahoma" font-size="16.0" fill="#0000FF" transform="matrix(1.00, 0.00, -0.00, -1.00, 489.4, 414.5)">r</text><text xml:space="preserve" font-family="Tahoma,Tahoma" font-size="16.0" fill="#0000FF" transform="matrix(1.00, 0.00, -0.00, -1.00, 495.2, 414.5)"> </text><text xml:space="preserve" font-family="Tahoma,Tahoma" font-size="16.0" fill="#0000FF" transform="matrix(1.00, 0.00, -0.00, -1.00, 500.2, 414.5)">t</text><text xml:space="preserve" font-family="Tahoma,Tahoma" font-size="16.0" fill="#0000FF" transform="matrix(1.00, 0.00, -0.00, -1.00, 505.5, 414.5)">h</text><text xml:space="preserve" font-family="Tahoma,Tahoma" font-size="16.0" fill="#0000FF" transform="matrix(1.00, 0.00, -0.00, -1.00, 514.5, 414.5)">e</text><text xml:space="preserve" font-family="Tahoma,Tahoma" font-size="16.0" fill="#0000FF" transform="matrix(1.00, 0.00, -0.00, -1.00, 522.9, 414.5)"> </text><text xml:space="preserve" font-family="Tahoma,Tahoma" font-size="16.0" fill="#0000FF" transform="matrix(1.00, 0.00, -0.00, -1.00, 527.9, 414.5)">l</text><text xml:space="preserve" font-family="Tahoma,Tahoma" font-size="16.0" fill="#0000FF" transform="matrix(1.00, 0.00, -0.00, -1.00, 531.5, 414.5)">e</text><text xml:space="preserve" font-family="Tahoma,Tahoma" font-size="16.0" fill="#0000FF" transform="matrix(1.00, 0.00, -0.00, -1.00, 540.0, 414.5)">f</text><text xml:space="preserve" font-family="Tahoma,Tahoma" font-size="16.0" fill="#0000FF" transform="matrix(1.00, 0.00, -0.00, -1.00, 545.1, 414.5)">t</text><text xml:space="preserve" font-family="Tahoma,Tahoma" font-size="16.0" fill="#0000FF" transform="matrix(1.00, 0.00, -0.00, -1.00, 550.4, 414.5)"> </text><text xml:space="preserve" font-family="Tahoma,Tahoma" font-size="16.0" fill="#0000FF" transform="matrix(1.00, 0.00, -0.00, -1.00, 555.4, 414.5)">a</text><text xml:space="preserve" font-family="Tahoma,Tahoma" font-size="16.0" fill="#0000FF" transform="matrix(1.00, 0.00, -0.00, -1.00, 563.8, 414.5)">n</text><text xml:space="preserve" font-family="Tahoma,Tahoma" font-size="16.0" fill="#0000FF" transform="matrix(1.00, 0.00, -0.00, -1.00, 572.7, 414.5)">d</text><text xml:space="preserve" font-family="Tahoma,Tahoma" font-size="16.0" fill="#0000FF" transform="matrix(1.00, 0.00, -0.00, -1.00, 581.6, 414.5)"> </text><text xml:space="preserve" font-family="Tahoma,Tahoma" font-size="16.0" fill="#0000FF" transform="matrix(1.00, 0.00, -0.00, -1.00, 586.6, 414.5)">r</text><text xml:space="preserve" font-family="Tahoma,Tahoma" font-size="16.0" fill="#0000FF" transform="matrix(1.00, 0.00, -0.00, -1.00, 592.3, 414.5)">i</text><text xml:space="preserve" font-family="Tahoma,Tahoma" font-size="16.0" fill="#0000FF" transform="matrix(1.00, 0.00, -0.00, -1.00, 596.0, 414.5)">g</text><text xml:space="preserve" font-family="Tahoma,Tahoma" font-size="16.0" fill="#0000FF" transform="matrix(1.00, 0.00, -0.00, -1.00, 604.8, 414.5)">h</text><text xml:space="preserve" font-family="Tahoma,Tahoma" font-size="16.0" fill="#0000FF" transform="matrix(1.00, 0.00, -0.00, -1.00, 613.7, 414.5)">t</text><text xml:space="preserve" font-family="Tahoma,Tahoma" font-size="16.0" fill="#0000FF" transform="matrix(1.00, 0.00, -0.00, -1.00, 619.1, 414.5)"> </text><text xml:space="preserve" font-family="Tahoma,Tahoma" font-size="16.0" fill="#0000FF" transform="matrix(1.00, 0.00, -0.00, -1.00, 624.1, 414.5)">p</text><text xml:space="preserve" font-family="Tahoma,Tahoma" font-size="16.0" fill="#0000FF" transform="matrix(1.00, 0.00, -0.00, -1.00, 632.9, 414.5)">o</text><text xml:space="preserve" font-family="Tahoma,Tahoma" font-size="16.0" fill="#0000FF" transform="matrix(1.00, 0.00, -0.00, -1.00, 641.6, 414.5)">r</text><text xml:space="preserve" font-family="Tahoma,Tahoma" font-size="16.0" fill="#0000FF" transform="matrix(1.00, 0.00, -0.00, -1.00, 647.4, 414.5)">t</text><text xml:space="preserve" font-family="Tahoma,Tahoma" font-size="16.0" fill="#0000FF" transform="matrix(1.00, 0.00, -0.00, -1.00, 652.7, 414.5)">i</text><text xml:space="preserve" font-family="Tahoma,Tahoma" font-size="16.0" fill="#0000FF" transform="matrix(1.00, 0.00, -0.00, -1.00, 656.4, 414.5)">o</text><text xml:space="preserve" font-family="Tahoma,Tahoma" font-size="16.0" fill="#0000FF" transform="matrix(1.00, 0.00, -0.00, -1.00, 665.1, 414.5)">n</text><text xml:space="preserve" font-family="Tahoma,Tahoma" font-size="16.0" fill="#0000FF" transform="matrix(1.00, 0.00, -0.00, -1.00, 674.0, 414.5)">s</text><text xml:space="preserve" font-family="Tahoma,Tahoma" font-size="16.0" fill="#0000FF" transform="matrix(1.00, 0.00, -0.00, -1.00, 681.1, 414.5)">.</text><text xml:space="preserve" font-family="Tahoma,Tahoma" font-size="16.0" fill="#0000FF" transform="matrix(1.00, 0.00, -0.00, -1.00, 686.0, 414.5)"> </text><g><g><clipPath id="clip0x7fd38c4fb200"><path d="M 77.5 324.5 L 294.5 324.5 L 294.5 294.2 L 77.5 294.2 Z M 77.5 324.5 "></path></clipPath><g clip-path="url(#clip0x7fd38c4fb200)"><g><clipPath id="clip0x7fd38c4fb9a0"><path d="M 78.5 295.2 L 149.5 295.2 L 149.5 323.5 L 78.5 323.5 Z M 78.5 295.2 "></path></clipPath><g clip-path="url(#clip0x7fd38c4fb9a0)"><text xml:space="preserve" font-family="Tahoma,Tahoma" font-size="18.0" fill="#333399" transform="matrix(1.00, 0.00, -0.00, -1.00, 82.1, 301.6)">2</text></g></g></g></g><g><clipPath id="clip0x7fd38c74cf70"><path d="M 77.5 324.5 L 294.5 324.5 L 294.5 294.2 L 77.5 294.2 Z M 77.5 324.5 "></path></clipPath><g clip-path="url(#clip0x7fd38c74cf70)"><g><clipPath id="clip0x7fd38c74d710"><path d="M 150.5 295.2 L 221.5 295.2 L 221.5 323.5 L 150.5 323.5 Z M 150.5 295.2 "></path></clipPath><g clip-path="url(#clip0x7fd38c74d710)"><text xml:space="preserve" font-family="Tahoma,Tahoma" font-size="18.0" fill="#333399" transform="matrix(1.00, 0.00, -0.00, -1.00, 154.1, 301.6)">1</text></g></g></g></g><g><clipPath id="clip0x7fd38c74e9d0"><path d="M 77.5 324.5 L 294.5 324.5 L 294.5 294.2 L 77.5 294.2 Z M 77.5 324.5 "></path></clipPath><g clip-path="url(#clip0x7fd38c74e9d0)"><g><clipPath id="clip0x7fd38c74f140"><path d="M 222.5 295.2 L 293.5 295.2 L 293.5 323.5 L 222.5 323.5 Z M 222.5 295.2 "></path></clipPath><g clip-path="url(#clip0x7fd38c74f140)"><text xml:space="preserve" font-family="Tahoma,Tahoma" font-size="18.0" fill="#333399" transform="matrix(1.00, 0.00, -0.00, -1.00, 226.1, 301.6)">3</text></g></g></g></g><g><clipPath id="clip0x7fd38c7503d0"><path d="M 77.5 324.5 L 294.5 324.5 L 294.5 294.2 L 77.5 294.2 Z M 77.5 324.5 "></path></clipPath><g clip-path="url(#clip0x7fd38c7503d0)"><g><clipPath id="clip0x7fd38c750b10"><path d="M 0.0 0.0 L 720.0 0.0 L 720.0 540.0 L 0.0 540.0 Z M 0.0 0.0 "></path></clipPath><g clip-path="url(#clip0x7fd38c750b10)"><path d="M 74.0 1.5 L 74.0 31.8 " fill="none" stroke="#000000" stroke-width="1.00" stroke-linejoin="round" transform="matrix(1.00, 0.00, 0.00, -1.00, 76.0, 326.0)"></path><path d="M 146.0 1.5 L 146.0 31.8 " fill="none" stroke="#000000" stroke-width="1.00" stroke-linejoin="round" transform="matrix(1.00, 0.00, 0.00, -1.00, 76.0, 326.0)"></path><path d="M 2.0 1.5 L 2.0 31.8 " fill="none" stroke="#000000" stroke-width="1.00" stroke-linejoin="round" transform="matrix(1.00, 0.00, 0.00, -1.00, 76.0, 326.0)"></path><path d="M 218.0 1.5 L 218.0 31.8 " fill="none" stroke="#000000" stroke-width="1.00" stroke-linejoin="round" transform="matrix(1.00, 0.00, 0.00, -1.00, 76.0, 326.0)"></path><path d="M 1.5 2.0 L 218.5 2.0 " fill="none" stroke="#000000" stroke-width="1.00" stroke-linejoin="round" transform="matrix(1.00, 0.00, 0.00, -1.00, 76.0, 326.0)"></path><path d="M 1.5 31.2 L 218.5 31.2 " fill="none" stroke="#000000" stroke-width="1.00" stroke-linejoin="round" transform="matrix(1.00, 0.00, 0.00, -1.00, 76.0, 326.0)"></path></g></g></g></g></g><g><g><clipPath id="clip0x7fd38c754ca0"><path d="M 369.5 324.5 L 676.8 324.5 L 676.8 294.2 L 369.5 294.2 Z M 369.5 324.5 "></path></clipPath><g clip-path="url(#clip0x7fd38c754ca0)"><g><clipPath id="clip0x7fd38c755440"><path d="M 370.5 295.2 L 446.1 295.2 L 446.1 323.5 L 370.5 323.5 Z M 370.5 295.2 "></path></clipPath><g clip-path="url(#clip0x7fd38c755440)"><text xml:space="preserve" font-family="Tahoma,Tahoma" font-size="18.0" fill="#333399" transform="matrix(1.00, 0.00, -0.00, -1.00, 374.1, 301.6)">7</text></g></g></g></g><g><clipPath id="clip0x7fd38c756710"><path d="M 369.5 324.5 L 676.8 324.5 L 676.8 294.2 L 369.5 294.2 Z M 369.5 324.5 "></path></clipPath><g clip-path="url(#clip0x7fd38c756710)"><g><clipPath id="clip0x7fd38c756ed0"><path d="M 447.1 295.2 L 522.6 295.2 L 522.6 323.5 L 447.1 323.5 Z M 447.1 295.2 "></path></clipPath><g clip-path="url(#clip0x7fd38c756ed0)"><text xml:space="preserve" font-family="Tahoma,Tahoma" font-size="18.0" fill="#333399" transform="matrix(1.00, 0.00, -0.00, -1.00, 450.7, 301.6)">5</text></g></g></g></g><g><clipPath id="clip0x7fd38c758190"><path d="M 369.5 324.5 L 676.8 324.5 L 676.8 294.2 L 369.5 294.2 Z M 369.5 324.5 "></path></clipPath><g clip-path="url(#clip0x7fd38c758190)"><g><clipPath id="clip0x7fd38c758900"><path d="M 523.6 295.2 L 599.2 295.2 L 599.2 323.5 L 523.6 323.5 Z M 523.6 295.2 "></path></clipPath><g clip-path="url(#clip0x7fd38c758900)"><text xml:space="preserve" font-family="Tahoma,Tahoma" font-size="18.0" fill="#333399" transform="matrix(1.00, 0.00, -0.00, -1.00, 527.2, 301.6)">6</text></g></g></g></g><g><clipPath id="clip0x7fd38c759b90"><path d="M 369.5 324.5 L 676.8 324.5 L 676.8 294.2 L 369.5 294.2 Z M 369.5 324.5 "></path></clipPath><g clip-path="url(#clip0x7fd38c759b90)"><g><clipPath id="clip0x7fd38c75a300"><path d="M 600.2 295.2 L 675.8 295.2 L 675.8 323.5 L 600.2 323.5 Z M 600.2 295.2 "></path></clipPath><g clip-path="url(#clip0x7fd38c75a300)"><text xml:space="preserve" font-family="Tahoma,Tahoma" font-size="18.0" fill="#333399" transform="matrix(1.00, 0.00, -0.00, -1.00, 603.8, 301.6)">8</text></g></g></g></g><g><clipPath id="clip0x7fd38c75b590"><path d="M 369.5 324.5 L 676.8 324.5 L 676.8 294.2 L 369.5 294.2 Z M 369.5 324.5 "></path></clipPath><g clip-path="url(#clip0x7fd38c75b590)"><g><clipPath id="clip0x7fd38c75bcd0"><path d="M 0.0 0.0 L 720.0 0.0 L 720.0 540.0 L 0.0 540.0 Z M 0.0 0.0 "></path></clipPath><g clip-path="url(#clip0x7fd38c75bcd0)"><path d="M 78.6 1.5 L 78.6 31.8 " fill="none" stroke="#000000" stroke-width="1.00" stroke-linejoin="round" transform="matrix(1.00, 0.00, 0.00, -1.00, 368.0, 326.0)"></path><path d="M 155.1 1.5 L 155.1 31.8 " fill="none" stroke="#000000" stroke-width="1.00" stroke-linejoin="round" transform="matrix(1.00, 0.00, 0.00, -1.00, 368.0, 326.0)"></path><path d="M 231.8 1.5 L 231.8 31.8 " fill="none" stroke="#000000" stroke-width="1.00" stroke-linejoin="round" transform="matrix(1.00, 0.00, 0.00, -1.00, 368.0, 326.0)"></path><path d="M 2.0 1.5 L 2.0 31.8 " fill="none" stroke="#000000" stroke-width="1.00" stroke-linejoin="round" transform="matrix(1.00, 0.00, 0.00, -1.00, 368.0, 326.0)"></path><path d="M 308.2 1.5 L 308.2 31.8 " fill="none" stroke="#000000" stroke-width="1.00" stroke-linejoin="round" transform="matrix(1.00, 0.00, 0.00, -1.00, 368.0, 326.0)"></path><path d="M 1.5 2.0 L 308.8 2.0 " fill="none" stroke="#000000" stroke-width="1.00" stroke-linejoin="round" transform="matrix(1.00, 0.00, 0.00, -1.00, 368.0, 326.0)"></path><path d="M 1.5 31.2 L 308.8 31.2 " fill="none" stroke="#000000" stroke-width="1.00" stroke-linejoin="round" transform="matrix(1.00, 0.00, 0.00, -1.00, 368.0, 326.0)"></path></g></g></g></g></g><g><g><clipPath id="clip0x7fd38c760480"><path d="M 71.5 252.5 L 225.2 252.5 L 225.2 222.2 L 71.5 222.2 Z M 71.5 252.5 "></path></clipPath><g clip-path="url(#clip0x7fd38c760480)"><g><clipPath id="clip0x7fd38c760c20"><path d="M 72.5 223.2 L 147.9 223.2 L 147.9 251.5 L 72.5 251.5 Z M 72.5 223.2 "></path></clipPath><g clip-path="url(#clip0x7fd38c760c20)"><text xml:space="preserve" font-family="Tahoma,Tahoma" font-size="18.0" fill="#333399" transform="matrix(1.00, 0.00, -0.00, -1.00, 76.1, 229.6)">2</text></g></g></g></g><g><clipPath id="clip0x7fd38c761ef0"><path d="M 71.5 252.5 L 225.2 252.5 L 225.2 222.2 L 71.5 222.2 Z M 71.5 252.5 "></path></clipPath><g clip-path="url(#clip0x7fd38c761ef0)"><g><clipPath id="clip0x7fd38c7626b0"><path d="M 148.9 223.2 L 224.2 223.2 L 224.2 251.5 L 148.9 251.5 Z M 148.9 223.2 "></path></clipPath><g clip-path="url(#clip0x7fd38c7626b0)"><text xml:space="preserve" font-family="Tahoma,Tahoma" font-size="18.0" fill="#333399" transform="matrix(1.00, 0.00, -0.00, -1.00, 152.5, 229.6)">1</text></g></g></g></g><g><clipPath id="clip0x7fd38c763970"><path d="M 71.5 252.5 L 225.2 252.5 L 225.2 222.2 L 71.5 222.2 Z M 71.5 252.5 "></path></clipPath><g clip-path="url(#clip0x7fd38c763970)"><g><clipPath id="clip0x7fd38c7640b0"><path d="M 0.0 0.0 L 720.0 0.0 L 720.0 540.0 L 0.0 540.0 Z M 0.0 0.0 "></path></clipPath><g clip-path="url(#clip0x7fd38c7640b0)"><path d="M 78.4 1.5 L 78.4 31.8 " fill="none" stroke="#000000" stroke-width="1.00" stroke-linejoin="round" transform="matrix(1.00, 0.00, 0.00, -1.00, 70.0, 254.0)"></path><path d="M 2.0 1.5 L 2.0 31.8 " fill="none" stroke="#000000" stroke-width="1.00" stroke-linejoin="round" transform="matrix(1.00, 0.00, 0.00, -1.00, 70.0, 254.0)"></path><path d="M 154.8 1.5 L 154.8 31.8 " fill="none" stroke="#000000" stroke-width="1.00" stroke-linejoin="round" transform="matrix(1.00, 0.00, 0.00, -1.00, 70.0, 254.0)"></path><path d="M 1.5 2.0 L 155.2 2.0 " fill="none" stroke="#000000" stroke-width="1.00" stroke-linejoin="round" transform="matrix(1.00, 0.00, 0.00, -1.00, 70.0, 254.0)"></path><path d="M 1.5 31.2 L 155.2 31.2 " fill="none" stroke="#000000" stroke-width="1.00" stroke-linejoin="round" transform="matrix(1.00, 0.00, 0.00, -1.00, 70.0, 254.0)"></path></g></g></g></g></g><g><g><clipPath id="clip0x7fd38c767b30"><path d="M 366.5 264.5 L 583.5 264.5 L 583.5 234.8 L 366.5 234.8 Z M 366.5 264.5 "></path></clipPath><g clip-path="url(#clip0x7fd38c767b30)"><g><clipPath id="clip0x7fd38c7682d0"><path d="M 367.5 235.8 L 438.5 235.8 L 438.5 263.5 L 367.5 263.5 Z M 367.5 235.8 "></path></clipPath><g clip-path="url(#clip0x7fd38c7682d0)"><text xml:space="preserve" font-family="Tahoma,Tahoma" font-size="18.0" fill="#333399" transform="matrix(1.00, 0.00, -0.00, -1.00, 371.1, 241.6)">7</text></g></g></g></g><g><clipPath id="clip0x7fd38c7695a0"><path d="M 366.5 264.5 L 583.5 264.5 L 583.5 234.8 L 366.5 234.8 Z M 366.5 264.5 "></path></clipPath><g clip-path="url(#clip0x7fd38c7695a0)"><g><clipPath id="clip0x7fd38c769d60"><path d="M 439.5 235.8 L 510.5 235.8 L 510.5 263.5 L 439.5 263.5 Z M 439.5 235.8 "></path></clipPath><g clip-path="url(#clip0x7fd38c769d60)"><text xml:space="preserve" font-family="Tahoma,Tahoma" font-size="18.0" fill="#333399" transform="matrix(1.00, 0.00, -0.00, -1.00, 443.1, 241.6)">5</text></g></g></g></g><g><clipPath id="clip0x7fd38c76b020"><path d="M 366.5 264.5 L 583.5 264.5 L 583.5 234.8 L 366.5 234.8 Z M 366.5 264.5 "></path></clipPath><g clip-path="url(#clip0x7fd38c76b020)"><g><clipPath id="clip0x7fd38c76b790"><path d="M 511.5 235.8 L 582.5 235.8 L 582.5 263.5 L 511.5 263.5 Z M 511.5 235.8 "></path></clipPath><g clip-path="url(#clip0x7fd38c76b790)"><text xml:space="preserve" font-family="Tahoma,Tahoma" font-size="18.0" fill="#333399" transform="matrix(1.00, 0.00, -0.00, -1.00, 515.1, 241.6)">6</text></g></g></g></g><g><clipPath id="clip0x7fd38c76ca20"><path d="M 366.5 264.5 L 583.5 264.5 L 583.5 234.8 L 366.5 234.8 Z M 366.5 264.5 "></path></clipPath><g clip-path="url(#clip0x7fd38c76ca20)"><g><clipPath id="clip0x7fd38c76d160"><path d="M 0.0 0.0 L 720.0 0.0 L 720.0 540.0 L 0.0 540.0 Z M 0.0 0.0 "></path></clipPath><g clip-path="url(#clip0x7fd38c76d160)"><path d="M 74.0 1.5 L 74.0 31.2 " fill="none" stroke="#000000" stroke-width="1.00" stroke-linejoin="round" transform="matrix(1.00, 0.00, 0.00, -1.00, 365.0, 266.0)"></path><path d="M 146.0 1.5 L 146.0 31.2 " fill="none" stroke="#000000" stroke-width="1.00" stroke-linejoin="round" transform="matrix(1.00, 0.00, 0.00, -1.00, 365.0, 266.0)"></path><path d="M 2.0 1.5 L 2.0 31.2 " fill="none" stroke="#000000" stroke-width="1.00" stroke-linejoin="round" transform="matrix(1.00, 0.00, 0.00, -1.00, 365.0, 266.0)"></path><path d="M 218.0 1.5 L 218.0 31.2 " fill="none" stroke="#000000" stroke-width="1.00" stroke-linejoin="round" transform="matrix(1.00, 0.00, 0.00, -1.00, 365.0, 266.0)"></path><path d="M 1.5 2.0 L 218.5 2.0 " fill="none" stroke="#000000" stroke-width="1.00" stroke-linejoin="round" transform="matrix(1.00, 0.00, 0.00, -1.00, 365.0, 266.0)"></path><path d="M 1.5 30.8 L 218.5 30.8 " fill="none" stroke="#000000" stroke-width="1.00" stroke-linejoin="round" transform="matrix(1.00, 0.00, 0.00, -1.00, 365.0, 266.0)"></path></g></g></g></g></g><g><g><clipPath id="clip0x7fd38c7711e0"><path d="M 366.5 204.5 L 583.5 204.5 L 583.5 174.8 L 366.5 174.8 Z M 366.5 204.5 "></path></clipPath><g clip-path="url(#clip0x7fd38c7711e0)"><g><clipPath id="clip0x7fd38c771980"><path d="M 367.5 175.8 L 438.5 175.8 L 438.5 203.5 L 367.5 203.5 Z M 367.5 175.8 "></path></clipPath><g clip-path="url(#clip0x7fd38c771980)"><text xml:space="preserve" font-family="Tahoma,Tahoma" font-size="18.0" fill="#333399" transform="matrix(1.00, 0.00, -0.00, -1.00, 371.1, 181.6)">6</text></g></g></g></g><g><clipPath id="clip0x7fd38c772c50"><path d="M 366.5 204.5 L 583.5 204.5 L 583.5 174.8 L 366.5 174.8 Z M 366.5 204.5 "></path></clipPath><g clip-path="url(#clip0x7fd38c772c50)"><g><clipPath id="clip0x7fd38c773410"><path d="M 439.5 175.8 L 510.5 175.8 L 510.5 203.5 L 439.5 203.5 Z M 439.5 175.8 "></path></clipPath><g clip-path="url(#clip0x7fd38c773410)"><text xml:space="preserve" font-family="Tahoma,Tahoma" font-size="18.0" fill="#333399" transform="matrix(1.00, 0.00, -0.00, -1.00, 443.1, 181.6)">5</text></g></g></g></g><g><clipPath id="clip0x7fd38c7746d0"><path d="M 366.5 204.5 L 583.5 204.5 L 583.5 174.8 L 366.5 174.8 Z M 366.5 204.5 "></path></clipPath><g clip-path="url(#clip0x7fd38c7746d0)"><g><clipPath id="clip0x7fd38c774e40"><path d="M 511.5 175.8 L 582.5 175.8 L 582.5 203.5 L 511.5 203.5 Z M 511.5 175.8 "></path></clipPath><g clip-path="url(#clip0x7fd38c774e40)"><text xml:space="preserve" font-family="Tahoma,Tahoma" font-size="18.0" fill="#333399" transform="matrix(1.00, 0.00, -0.00, -1.00, 515.1, 181.6)">7</text></g></g></g></g><g><clipPath id="clip0x7fd38c7760d0"><path d="M 366.5 204.5 L 583.5 204.5 L 583.5 174.8 L 366.5 174.8 Z M 366.5 204.5 "></path></clipPath><g clip-path="url(#clip0x7fd38c7760d0)"><g><clipPath id="clip0x7fd38c776810"><path d="M 0.0 0.0 L 720.0 0.0 L 720.0 540.0 L 0.0 540.0 Z M 0.0 0.0 "></path></clipPath><g clip-path="url(#clip0x7fd38c776810)"><path d="M 74.0 1.5 L 74.0 31.2 " fill="none" stroke="#000000" stroke-width="1.00" stroke-linejoin="round" transform="matrix(1.00, 0.00, 0.00, -1.00, 365.0, 206.0)"></path><path d="M 146.0 1.5 L 146.0 31.2 " fill="none" stroke="#000000" stroke-width="1.00" stroke-linejoin="round" transform="matrix(1.00, 0.00, 0.00, -1.00, 365.0, 206.0)"></path><path d="M 2.0 1.5 L 2.0 31.2 " fill="none" stroke="#000000" stroke-width="1.00" stroke-linejoin="round" transform="matrix(1.00, 0.00, 0.00, -1.00, 365.0, 206.0)"></path><path d="M 218.0 1.5 L 218.0 31.2 " fill="none" stroke="#000000" stroke-width="1.00" stroke-linejoin="round" transform="matrix(1.00, 0.00, 0.00, -1.00, 365.0, 206.0)"></path><path d="M 1.5 2.0 L 218.5 2.0 " fill="none" stroke="#000000" stroke-width="1.00" stroke-linejoin="round" transform="matrix(1.00, 0.00, 0.00, -1.00, 365.0, 206.0)"></path><path d="M 1.5 30.8 L 218.5 30.8 " fill="none" stroke="#000000" stroke-width="1.00" stroke-linejoin="round" transform="matrix(1.00, 0.00, 0.00, -1.00, 365.0, 206.0)"></path></g></g></g></g></g><g><g><clipPath id="clip0x7fd38c77a870"><path d="M 365.5 150.5 L 519.2 150.5 L 519.2 120.2 L 365.5 120.2 Z M 365.5 150.5 "></path></clipPath><g clip-path="url(#clip0x7fd38c77a870)"><g><clipPath id="clip0x7fd38c77b010"><path d="M 366.5 121.2 L 441.9 121.2 L 441.9 149.5 L 366.5 149.5 Z M 366.5 121.2 "></path></clipPath><g clip-path="url(#clip0x7fd38c77b010)"><text xml:space="preserve" font-family="Tahoma,Tahoma" font-size="18.0" fill="#333399" transform="matrix(1.00, 0.00, -0.00, -1.00, 370.1, 127.6)">6</text></g></g></g></g><g><clipPath id="clip0x7fd38c77c2e0"><path d="M 365.5 150.5 L 519.2 150.5 L 519.2 120.2 L 365.5 120.2 Z M 365.5 150.5 "></path></clipPath><g clip-path="url(#clip0x7fd38c77c2e0)"><g><clipPath id="clip0x7fd38c77caa0"><path d="M 442.9 121.2 L 518.2 121.2 L 518.2 149.5 L 442.9 149.5 Z M 442.9 121.2 "></path></clipPath><g clip-path="url(#clip0x7fd38c77caa0)"><text xml:space="preserve" font-family="Tahoma,Tahoma" font-size="18.0" fill="#333399" transform="matrix(1.00, 0.00, -0.00, -1.00, 446.5, 127.6)">5</text></g></g></g></g><g><clipPath id="clip0x7fd38c77dd60"><path d="M 365.5 150.5 L 519.2 150.5 L 519.2 120.2 L 365.5 120.2 Z M 365.5 150.5 "></path></clipPath><g clip-path="url(#clip0x7fd38c77dd60)"><g><clipPath id="clip0x7fd38c77e4a0"><path d="M 0.0 0.0 L 720.0 0.0 L 720.0 540.0 L 0.0 540.0 Z M 0.0 0.0 "></path></clipPath><g clip-path="url(#clip0x7fd38c77e4a0)"><path d="M 78.4 1.5 L 78.4 31.8 " fill="none" stroke="#000000" stroke-width="1.00" stroke-linejoin="round" transform="matrix(1.00, 0.00, 0.00, -1.00, 364.0, 152.0)"></path><path d="M 2.0 1.5 L 2.0 31.8 " fill="none" stroke="#000000" stroke-width="1.00" stroke-linejoin="round" transform="matrix(1.00, 0.00, 0.00, -1.00, 364.0, 152.0)"></path><path d="M 154.8 1.5 L 154.8 31.8 " fill="none" stroke="#000000" stroke-width="1.00" stroke-linejoin="round" transform="matrix(1.00, 0.00, 0.00, -1.00, 364.0, 152.0)"></path><path d="M 1.5 2.0 L 155.2 2.0 " fill="none" stroke="#000000" stroke-width="1.00" stroke-linejoin="round" transform="matrix(1.00, 0.00, 0.00, -1.00, 364.0, 152.0)"></path><path d="M 1.5 31.2 L 155.2 31.2 " fill="none" stroke="#000000" stroke-width="1.00" stroke-linejoin="round" transform="matrix(1.00, 0.00, 0.00, -1.00, 364.0, 152.0)"></path></g></g></g></g></g><g><g><clipPath id="clip0x7fd38c781a40"><path d="M 366.5 96.5 L 520.2 96.5 L 520.2 66.2 L 366.5 66.2 Z M 366.5 96.5 "></path></clipPath><g clip-path="url(#clip0x7fd38c781a40)"><g><clipPath id="clip0x7fd38c7821e0"><path d="M 367.5 67.2 L 442.9 67.2 L 442.9 95.5 L 367.5 95.5 Z M 367.5 67.2 "></path></clipPath><g clip-path="url(#clip0x7fd38c7821e0)"><text xml:space="preserve" font-family="Tahoma,Tahoma" font-size="18.0" fill="#333399" transform="matrix(1.00, 0.00, -0.00, -1.00, 371.1, 73.6)">5</text></g></g></g></g><g><clipPath id="clip0x7fd38c7834b0"><path d="M 366.5 96.5 L 520.2 96.5 L 520.2 66.2 L 366.5 66.2 Z M 366.5 96.5 "></path></clipPath><g clip-path="url(#clip0x7fd38c7834b0)"><g><clipPath id="clip0x7fd38c783c70"><path d="M 443.9 67.2 L 519.2 67.2 L 519.2 95.5 L 443.9 95.5 Z M 443.9 67.2 "></path></clipPath><g clip-path="url(#clip0x7fd38c783c70)"><text xml:space="preserve" font-family="Tahoma,Tahoma" font-size="18.0" fill="#333399" transform="matrix(1.00, 0.00, -0.00, -1.00, 447.5, 73.6)">6</text></g></g></g></g><g><clipPath id="clip0x7fd38c784f30"><path d="M 366.5 96.5 L 520.2 96.5 L 520.2 66.2 L 366.5 66.2 Z M 366.5 96.5 "></path></clipPath><g clip-path="url(#clip0x7fd38c784f30)"><g><clipPath id="clip0x7fd38c785670"><path d="M 0.0 0.0 L 720.0 0.0 L 720.0 540.0 L 0.0 540.0 Z M 0.0 0.0 "></path></clipPath><g clip-path="url(#clip0x7fd38c785670)"><path d="M 78.4 1.5 L 78.4 31.8 " fill="none" stroke="#000000" stroke-width="1.00" stroke-linejoin="round" transform="matrix(1.00, 0.00, 0.00, -1.00, 365.0, 98.0)"></path><path d="M 2.0 1.5 L 2.0 31.8 " fill="none" stroke="#000000" stroke-width="1.00" stroke-linejoin="round" transform="matrix(1.00, 0.00, 0.00, -1.00, 365.0, 98.0)"></path><path d="M 154.8 1.5 L 154.8 31.8 " fill="none" stroke="#000000" stroke-width="1.00" stroke-linejoin="round" transform="matrix(1.00, 0.00, 0.00, -1.00, 365.0, 98.0)"></path><path d="M 1.5 2.0 L 155.2 2.0 " fill="none" stroke="#000000" stroke-width="1.00" stroke-linejoin="round" transform="matrix(1.00, 0.00, 0.00, -1.00, 365.0, 98.0)"></path><path d="M 1.5 31.2 L 155.2 31.2 " fill="none" stroke="#000000" stroke-width="1.00" stroke-linejoin="round" transform="matrix(1.00, 0.00, 0.00, -1.00, 365.0, 98.0)"></path></g></g></g></g></g><g><g><clipPath id="clip0x7fd38c788f70"><path d="M 71.5 192.5 L 225.2 192.5 L 225.2 162.2 L 71.5 162.2 Z M 71.5 192.5 "></path></clipPath><g clip-path="url(#clip0x7fd38c788f70)"><g><clipPath id="clip0x7fd38c789710"><path d="M 72.5 163.2 L 147.9 163.2 L 147.9 191.5 L 72.5 191.5 Z M 72.5 163.2 "></path></clipPath><g clip-path="url(#clip0x7fd38c789710)"><text xml:space="preserve" font-family="Tahoma,Tahoma" font-size="18.0" fill="#333399" transform="matrix(1.00, 0.00, -0.00, -1.00, 76.1, 169.6)">1</text></g></g></g></g><g><clipPath id="clip0x7fd38c78a9e0"><path d="M 71.5 192.5 L 225.2 192.5 L 225.2 162.2 L 71.5 162.2 Z M 71.5 192.5 "></path></clipPath><g clip-path="url(#clip0x7fd38c78a9e0)"><g><clipPath id="clip0x7fd38c78b1a0"><path d="M 148.9 163.2 L 224.2 163.2 L 224.2 191.5 L 148.9 191.5 Z M 148.9 163.2 "></path></clipPath><g clip-path="url(#clip0x7fd38c78b1a0)"><text xml:space="preserve" font-family="Tahoma,Tahoma" font-size="18.0" fill="#333399" transform="matrix(1.00, 0.00, -0.00, -1.00, 152.5, 169.6)">2</text></g></g></g></g><g><clipPath id="clip0x7fd38c78c460"><path d="M 71.5 192.5 L 225.2 192.5 L 225.2 162.2 L 71.5 162.2 Z M 71.5 192.5 "></path></clipPath><g clip-path="url(#clip0x7fd38c78c460)"><g><clipPath id="clip0x7fd38c78cba0"><path d="M 0.0 0.0 L 720.0 0.0 L 720.0 540.0 L 0.0 540.0 Z M 0.0 0.0 "></path></clipPath><g clip-path="url(#clip0x7fd38c78cba0)"><path d="M 78.4 1.5 L 78.4 31.8 " fill="none" stroke="#000000" stroke-width="1.00" stroke-linejoin="round" transform="matrix(1.00, 0.00, 0.00, -1.00, 70.0, 194.0)"></path><path d="M 2.0 1.5 L 2.0 31.8 " fill="none" stroke="#000000" stroke-width="1.00" stroke-linejoin="round" transform="matrix(1.00, 0.00, 0.00, -1.00, 70.0, 194.0)"></path><path d="M 154.8 1.5 L 154.8 31.8 " fill="none" stroke="#000000" stroke-width="1.00" stroke-linejoin="round" transform="matrix(1.00, 0.00, 0.00, -1.00, 70.0, 194.0)"></path><path d="M 1.5 2.0 L 155.2 2.0 " fill="none" stroke="#000000" stroke-width="1.00" stroke-linejoin="round" transform="matrix(1.00, 0.00, 0.00, -1.00, 70.0, 194.0)"></path><path d="M 1.5 31.2 L 155.2 31.2 " fill="none" stroke="#000000" stroke-width="1.00" stroke-linejoin="round" transform="matrix(1.00, 0.00, 0.00, -1.00, 70.0, 194.0)"></path></g></g></g></g></g><g><g><clipPath id="clip0x7fd38c790580"><path d="M 59.5 42.5 L 678.5 42.5 L 678.5 12.4 L 59.5 12.4 Z M 59.5 42.5 "></path></clipPath><g clip-path="url(#clip0x7fd38c790580)"><g><clipPath id="clip0x7fd38c790d20"><path d="M 60.5 13.4 L 136.8 13.4 L 136.8 41.5 L 60.5 41.5 Z M 60.5 13.4 "></path></clipPath><g clip-path="url(#clip0x7fd38c790d20)"><text xml:space="preserve" font-family="Tahoma,Tahoma" font-size="18.0" fill="#333399" transform="matrix(1.00, 0.00, -0.00, -1.00, 64.1, 19.6)">1</text></g></g></g></g><g><clipPath id="clip0x7fd38c791ff0"><path d="M 59.5 42.5 L 678.5 42.5 L 678.5 12.4 L 59.5 12.4 Z M 59.5 42.5 "></path></clipPath><g clip-path="url(#clip0x7fd38c791ff0)"><g><clipPath id="clip0x7fd38c7927b0"><path d="M 137.8 13.4 L 214.0 13.4 L 214.0 41.5 L 137.8 41.5 Z M 137.8 13.4 "></path></clipPath><g clip-path="url(#clip0x7fd38c7927b0)"><text xml:space="preserve" font-family="Tahoma,Tahoma" font-size="18.0" fill="#333399" transform="matrix(1.00, 0.00, -0.00, -1.00, 141.3, 19.6)">2</text></g></g></g></g><g><clipPath id="clip0x7fd38c793a70"><path d="M 59.5 42.5 L 678.5 42.5 L 678.5 12.4 L 59.5 12.4 Z M 59.5 42.5 "></path></clipPath><g clip-path="url(#clip0x7fd38c793a70)"><g><clipPath id="clip0x7fd38c7941e0"><path d="M 215.0 13.4 L 295.4 13.4 L 295.4 41.5 L 215.0 41.5 Z M 215.0 13.4 "></path></clipPath><g clip-path="url(#clip0x7fd38c7941e0)"><text xml:space="preserve" font-family="Tahoma,Tahoma" font-size="18.0" fill="#333399" transform="matrix(1.00, 0.00, -0.00, -1.00, 218.6, 19.6)">3</text></g></g></g></g><g><clipPath id="clip0x7fd38c795470"><path d="M 59.5 42.5 L 678.5 42.5 L 678.5 12.4 L 59.5 12.4 Z M 59.5 42.5 "></path></clipPath><g clip-path="url(#clip0x7fd38c795470)"><g><clipPath id="clip0x7fd38c795be0"><path d="M 296.4 13.4 L 368.5 13.4 L 368.5 41.5 L 296.4 41.5 Z M 296.4 13.4 "></path></clipPath><g clip-path="url(#clip0x7fd38c795be0)"><text xml:space="preserve" font-family="Tahoma,Tahoma" font-size="18.0" fill="#333399" transform="matrix(1.00, 0.00, -0.00, -1.00, 300.0, 19.6)">4</text></g></g></g></g><g><clipPath id="clip0x7fd38c796e70"><path d="M 59.5 42.5 L 678.5 42.5 L 678.5 12.4 L 59.5 12.4 Z M 59.5 42.5 "></path></clipPath><g clip-path="url(#clip0x7fd38c796e70)"><g><clipPath id="clip0x7fd38c7975e0"><path d="M 369.5 13.4 L 445.8 13.4 L 445.8 41.5 L 369.5 41.5 Z M 369.5 13.4 "></path></clipPath><g clip-path="url(#clip0x7fd38c7975e0)"><text xml:space="preserve" font-family="Tahoma,Tahoma" font-size="18.0" fill="#333399" transform="matrix(1.00, 0.00, -0.00, -1.00, 373.1, 19.6)">5</text></g></g></g></g><g><clipPath id="clip0x7fd38c798870"><path d="M 59.5 42.5 L 678.5 42.5 L 678.5 12.4 L 59.5 12.4 Z M 59.5 42.5 "></path></clipPath><g clip-path="url(#clip0x7fd38c798870)"><g><clipPath id="clip0x7fd38c798fe0"><path d="M 446.8 13.4 L 523.0 13.4 L 523.0 41.5 L 446.8 41.5 Z M 446.8 13.4 "></path></clipPath><g clip-path="url(#clip0x7fd38c798fe0)"><text xml:space="preserve" font-family="Tahoma,Tahoma" font-size="18.0" fill="#333399" transform="matrix(1.00, 0.00, -0.00, -1.00, 450.3, 19.6)">6</text></g></g></g></g><g><clipPath id="clip0x7fd38c79a270"><path d="M 59.5 42.5 L 678.5 42.5 L 678.5 12.4 L 59.5 12.4 Z M 59.5 42.5 "></path></clipPath><g clip-path="url(#clip0x7fd38c79a270)"><g><clipPath id="clip0x7fd38c79aa10"><path d="M 524.0 13.4 L 600.2 13.4 L 600.2 41.5 L 524.0 41.5 Z M 524.0 13.4 "></path></clipPath><g clip-path="url(#clip0x7fd38c79aa10)"><text xml:space="preserve" font-family="Tahoma,Tahoma" font-size="18.0" fill="#333399" transform="matrix(1.00, 0.00, -0.00, -1.00, 527.6, 19.6)">7</text></g></g></g></g><g><clipPath id="clip0x7fd38c79bc80"><path d="M 59.5 42.5 L 678.5 42.5 L 678.5 12.4 L 59.5 12.4 Z M 59.5 42.5 "></path></clipPath><g clip-path="url(#clip0x7fd38c79bc80)"><g><clipPath id="clip0x7fd38c79c3f0"><path d="M 601.2 13.4 L 677.5 13.4 L 677.5 41.5 L 601.2 41.5 Z M 601.2 13.4 "></path></clipPath><g clip-path="url(#clip0x7fd38c79c3f0)"><text xml:space="preserve" font-family="Tahoma,Tahoma" font-size="18.0" fill="#333399" transform="matrix(1.00, 0.00, -0.00, -1.00, 604.8, 19.6)">8</text></g></g></g></g><g><clipPath id="clip0x7fd38c79d680"><path d="M 59.5 42.5 L 678.5 42.5 L 678.5 12.4 L 59.5 12.4 Z M 59.5 42.5 "></path></clipPath><g clip-path="url(#clip0x7fd38c79d680)"><g><clipPath id="clip0x7fd38c79ddc0"><path d="M 0.0 0.0 L 720.0 0.0 L 720.0 540.0 L 0.0 540.0 Z M 0.0 0.0 "></path></clipPath><g clip-path="url(#clip0x7fd38c79ddc0)"><path d="M 79.2 1.5 L 79.2 31.6 " fill="none" stroke="#000000" stroke-width="1.00" stroke-linejoin="round" transform="matrix(1.00, 0.00, 0.00, -1.00, 58.0, 44.0)"></path><path d="M 156.5 1.5 L 156.5 31.6 " fill="none" stroke="#000000" stroke-width="1.00" stroke-linejoin="round" transform="matrix(1.00, 0.00, 0.00, -1.00, 58.0, 44.0)"></path><path d="M 237.9 1.5 L 237.9 31.6 " fill="none" stroke="#000000" stroke-width="1.00" stroke-linejoin="round" transform="matrix(1.00, 0.00, 0.00, -1.00, 58.0, 44.0)"></path><path d="M 311.0 1.5 L 311.0 31.6 " fill="none" stroke="#000000" stroke-width="1.00" stroke-linejoin="round" transform="matrix(1.00, 0.00, 0.00, -1.00, 58.0, 44.0)"></path><path d="M 388.2 1.5 L 388.2 31.6 " fill="none" stroke="#000000" stroke-width="1.00" stroke-linejoin="round" transform="matrix(1.00, 0.00, 0.00, -1.00, 58.0, 44.0)"></path><path d="M 465.5 1.5 L 465.5 31.6 " fill="none" stroke="#000000" stroke-width="1.00" stroke-linejoin="round" transform="matrix(1.00, 0.00, 0.00, -1.00, 58.0, 44.0)"></path><path d="M 542.8 1.5 L 542.8 31.6 " fill="none" stroke="#000000" stroke-width="1.00" stroke-linejoin="round" transform="matrix(1.00, 0.00, 0.00, -1.00, 58.0, 44.0)"></path><path d="M 2.0 1.5 L 2.0 31.6 " fill="none" stroke="#000000" stroke-width="1.00" stroke-linejoin="round" transform="matrix(1.00, 0.00, 0.00, -1.00, 58.0, 44.0)"></path><path d="M 620.0 1.5 L 620.0 31.6 " fill="none" stroke="#000000" stroke-width="1.00" stroke-linejoin="round" transform="matrix(1.00, 0.00, 0.00, -1.00, 58.0, 44.0)"></path><path d="M 1.5 2.0 L 620.5 2.0 " fill="none" stroke="#000000" stroke-width="1.00" stroke-linejoin="round" transform="matrix(1.00, 0.00, 0.00, -1.00, 58.0, 44.0)"></path><path d="M 1.5 31.1 L 620.5 31.1 " fill="none" stroke="#000000" stroke-width="1.00" stroke-linejoin="round" transform="matrix(1.00, 0.00, 0.00, -1.00, 58.0, 44.0)"></path></g></g></g></g></g><path d="M 0.0 0.0 L 51.8 0.0 L 52.2 0.0 " fill="none" stroke="#000000" stroke-width="0.75" stroke-linejoin="round" transform="matrix(-0.76, -0.66, -0.66, 0.76, 155.5, 366.0)"></path><path d="M 114.0 330.0 L 119.3 331.0 L 119.3 331.0 C 119.7 331.1 119.9 331.4 119.8 331.7 C 119.8 332.1 119.4 332.3 119.1 332.2 L 115.9 331.6 L 116.9 334.7 L 116.9 334.7 C 117.0 335.1 116.9 335.4 116.5 335.5 C 116.2 335.6 115.9 335.5 115.8 335.1 C 115.8 335.1 115.8 335.1 115.8 335.1 Z M 114.0 330.0 " fill="#000000"></path><path d="M 0.0 0.0 L 51.8 0.0 L 52.2 0.0 " fill="none" stroke="#000000" stroke-width="0.75" stroke-linejoin="round" transform="matrix(-0.76, -0.66, -0.66, 0.76, 219.9, 366.0)"></path><path d="M 178.4 330.0 L 183.7 331.0 L 183.7 331.0 C 184.0 331.1 184.3 331.4 184.2 331.7 C 184.1 332.1 183.8 332.3 183.5 332.2 L 180.3 331.6 L 181.3 334.7 L 181.3 334.7 C 181.4 335.1 181.2 335.4 180.9 335.5 C 180.6 335.6 180.2 335.5 180.1 335.1 C 180.1 335.1 180.1 335.1 180.1 335.1 Z M 178.4 330.0 " fill="#000000"></path><path d="M 0.0 -0.5 L 36.6 -0.5 L 37.0 -0.5 " fill="none" stroke="#000000" stroke-width="0.75" stroke-linejoin="round" transform="matrix(0.00, -1.00, -1.00, 0.00, 396.0, 366.0)"></path><path d="M 396.5 326.3 L 399.2 331.0 L 399.2 331.0 C 399.4 331.2 399.3 331.6 399.0 331.8 C 398.7 332.0 398.3 331.9 398.1 331.6 L 396.5 328.8 L 394.9 331.6 L 394.9 331.6 C 394.7 331.9 394.3 332.0 394.0 331.8 C 393.7 331.6 393.6 331.2 393.8 331.0 C 393.8 331.0 393.8 331.0 393.8 331.0 Z M 396.5 326.3 " fill="#000000"></path><path d="M -0.2 -0.5 L 36.5 -0.5 L 36.8 -0.5 " fill="none" stroke="#000000" stroke-width="0.75" stroke-linejoin="round" transform="matrix(0.00, -1.00, -1.00, 0.00, 270.0, 364.8)"></path><path d="M 270.5 325.3 L 273.2 330.0 L 273.2 330.0 C 273.4 330.2 273.3 330.6 273.0 330.8 C 272.7 331.0 272.3 330.9 272.1 330.6 L 270.5 327.8 L 268.9 330.6 L 268.9 330.6 C 268.7 330.9 268.3 331.0 268.0 330.8 C 267.7 330.6 267.6 330.2 267.8 330.0 C 267.8 330.0 267.8 330.0 267.8 330.0 Z M 270.5 325.3 " fill="#000000"></path><path d="M -0.2 -0.5 L 36.5 -0.5 L 36.8 -0.5 " fill="none" stroke="#000000" stroke-width="0.75" stroke-linejoin="round" transform="matrix(0.00, -1.00, -1.00, 0.00, 468.0, 367.8)"></path><path d="M 468.5 328.3 L 471.2 333.0 L 471.2 333.0 C 471.4 333.2 471.3 333.6 471.0 333.8 C 470.7 334.0 470.3 333.9 470.1 333.6 L 468.5 330.8 L 466.9 333.6 L 466.9 333.6 C 466.7 333.9 466.3 334.0 466.0 333.8 C 465.7 333.6 465.6 333.2 465.8 333.0 C 465.8 333.0 465.8 333.0 465.8 333.0 Z M 468.5 328.3 " fill="#000000"></path><path d="M 0.0 0.0 L 46.7 0.0 L 47.1 0.0 " fill="none" stroke="#000000" stroke-width="0.75" stroke-linejoin="round" transform="matrix(0.60, -0.80, -0.80, -0.60, 516.0, 366.0)"></path><path d="M 546.0 326.2 L 545.4 331.6 L 545.4 331.6 C 545.3 332.0 545.0 332.2 544.7 332.2 C 544.3 332.1 544.1 331.8 544.1 331.5 L 544.5 328.2 L 541.5 329.5 L 541.5 329.5 C 541.2 329.6 540.8 329.5 540.7 329.2 C 540.5 328.8 540.7 328.5 541.0 328.3 C 541.0 328.3 541.0 328.3 541.0 328.3 Z M 546.0 326.2 " fill="#000000"></path><path d="M 0.0 0.0 L 46.6 0.0 L 47.0 0.0 " fill="none" stroke="#000000" stroke-width="0.75" stroke-linejoin="round" transform="matrix(0.60, -0.80, -0.80, -0.60, 588.0, 364.4)"></path><path d="M 618.0 324.8 L 617.3 330.1 L 617.3 330.1 C 617.3 330.5 617.0 330.7 616.7 330.7 C 616.3 330.6 616.1 330.3 616.1 330.0 L 616.5 326.7 L 613.5 328.0 L 613.5 328.0 C 613.2 328.1 612.8 328.0 612.7 327.7 C 612.5 327.3 612.7 327.0 613.0 326.8 C 613.0 326.8 613.0 326.8 613.0 326.8 Z M 618.0 324.8 " fill="#000000"></path><path d="M 0.0 0.0 L 36.5 0.0 L 37.0 0.0 " fill="none" stroke="#000000" stroke-width="0.75" stroke-linejoin="round" transform="matrix(0.00, -1.00, -1.00, 0.00, 112.5, 294.0)"></path><path d="M 112.5 254.3 L 115.2 259.0 L 115.2 259.0 C 115.4 259.2 115.3 259.6 115.0 259.8 C 114.7 260.0 114.3 259.9 114.1 259.6 L 112.5 256.8 L 110.9 259.6 L 110.9 259.6 C 110.7 259.9 110.3 260.0 110.0 259.8 C 109.7 259.6 109.6 259.2 109.8 259.0 C 109.8 259.0 109.8 259.0 109.8 259.0 Z M 112.5 254.3 " fill="#000000"></path><path d="M -0.1 -0.1 L 36.5 -0.1 L 36.9 -0.1 " fill="none" stroke="#000000" stroke-width="0.75" stroke-linejoin="round" transform="matrix(0.00, -1.00, -1.00, 0.00, 178.4, 292.9)"></path><path d="M 178.5 253.3 L 181.2 258.0 L 181.2 258.0 C 181.4 258.2 181.3 258.6 181.0 258.8 C 180.7 259.0 180.3 258.9 180.1 258.6 L 178.5 255.8 L 176.9 258.6 L 176.9 258.6 C 176.7 258.9 176.3 259.0 176.0 258.8 C 175.7 258.6 175.6 258.2 175.8 258.0 C 175.8 258.0 175.8 258.0 175.8 258.0 Z M 178.5 253.3 " fill="#000000"></path><path d="M 0.0 0.0 L 26.9 0.0 L 27.3 0.0 " fill="none" stroke="#000000" stroke-width="0.75" stroke-linejoin="round" transform="matrix(-0.05, -1.00, -1.00, 0.05, 397.4, 294.0)"></path><path d="M 396.0 264.0 L 398.9 268.6 L 398.9 268.6 C 399.1 268.8 399.0 269.2 398.8 269.4 C 398.5 269.6 398.1 269.5 397.9 269.2 L 396.1 266.5 L 394.6 269.4 L 394.6 269.4 C 394.4 269.7 394.1 269.8 393.8 269.6 C 393.4 269.5 393.3 269.1 393.5 268.8 C 393.5 268.8 393.5 268.8 393.5 268.8 Z M 396.0 264.0 " fill="#000000"></path><path d="M 0.0 0.0 L 26.9 0.0 L 27.3 0.0 " fill="none" stroke="#000000" stroke-width="0.75" stroke-linejoin="round" transform="matrix(-0.05, -1.00, -1.00, 0.05, 469.8, 292.1)"></path><path d="M 468.4 262.1 L 471.3 266.7 L 471.3 266.7 C 471.5 267.0 471.4 267.4 471.1 267.5 C 470.8 267.7 470.5 267.6 470.3 267.4 L 468.5 264.6 L 467.0 267.5 L 467.0 267.5 C 466.8 267.8 466.4 267.9 466.1 267.8 C 465.8 267.6 465.7 267.2 465.9 266.9 C 465.9 266.9 465.9 266.9 465.9 266.9 Z M 468.4 262.1 " fill="#000000"></path><path d="M 0.0 0.0 L 26.9 0.0 L 27.3 0.0 " fill="none" stroke="#000000" stroke-width="0.75" stroke-linejoin="round" transform="matrix(-0.05, -1.00, -1.00, 0.05, 549.6, 293.6)"></path><path d="M 548.2 263.6 L 551.2 268.2 L 551.2 268.2 C 551.4 268.5 551.3 268.9 551.0 269.0 C 550.7 269.2 550.3 269.1 550.1 268.9 L 548.4 266.1 L 546.8 269.0 L 546.8 269.0 C 546.7 269.3 546.3 269.4 546.0 269.3 C 545.7 269.1 545.6 268.7 545.7 268.4 C 545.7 268.4 545.7 268.4 545.7 268.4 Z M 548.2 263.6 " fill="#000000"></path><path d="M 0.0 0.0 L 61.5 0.0 L 61.9 0.0 " fill="none" stroke="#000000" stroke-width="0.75" stroke-linejoin="round" transform="matrix(-0.89, -0.46, -0.46, 0.89, 159.2, 222.0)"></path><path d="M 102.0 192.0 L 107.4 191.8 L 107.4 191.8 C 107.8 191.7 108.1 192.0 108.1 192.4 C 108.1 192.7 107.8 193.0 107.5 193.0 L 104.2 193.2 L 105.9 195.9 L 105.9 195.9 C 106.1 196.2 106.0 196.6 105.7 196.8 C 105.5 197.0 105.1 196.9 104.9 196.6 C 104.9 196.6 104.9 196.6 104.9 196.6 Z M 102.0 192.0 " fill="#000000"></path><path d="M 0.0 0.0 L 81.9 0.0 L 82.2 0.0 " fill="none" stroke="#000000" stroke-width="0.75" stroke-linejoin="round" transform="matrix(0.94, -0.35, -0.35, -0.94, 112.5, 222.0)"></path><path d="M 192.0 192.0 L 188.6 196.2 L 188.6 196.2 C 188.4 196.5 188.0 196.5 187.7 196.3 C 187.4 196.1 187.4 195.7 187.6 195.4 L 189.7 192.9 L 186.4 192.3 L 186.4 192.3 C 186.1 192.3 185.9 192.0 185.9 191.6 C 186.0 191.3 186.3 191.0 186.7 191.1 C 186.7 191.1 186.7 191.1 186.7 191.1 Z M 192.0 192.0 " fill="#000000"></path><path d="M 0.0 0.0 L 148.5 0.0 L 148.9 0.0 " fill="none" stroke="#000000" stroke-width="0.75" stroke-linejoin="round" transform="matrix(0.98, -0.20, -0.20, -0.98, 397.4, 234.0)"></path><path d="M 546.0 204.0 L 541.9 207.6 L 541.9 207.6 C 541.7 207.8 541.3 207.8 541.1 207.5 C 540.8 207.3 540.9 206.9 541.1 206.7 L 543.6 204.5 L 540.5 203.4 L 540.5 203.4 C 540.1 203.3 540.0 203.0 540.1 202.6 C 540.2 202.3 540.5 202.1 540.9 202.3 C 540.9 202.3 540.9 202.3 540.9 202.3 Z M 546.0 204.0 " fill="#000000"></path><path d="M 0.0 0.0 L 147.2 0.0 L 147.5 0.0 " fill="none" stroke="#000000" stroke-width="0.75" stroke-linejoin="round" transform="matrix(-0.98, -0.20, -0.20, 0.98, 544.6, 234.0)"></path><path d="M 397.4 204.0 L 402.5 202.3 L 402.5 202.3 C 402.8 202.2 403.2 202.3 403.3 202.7 C 403.4 203.0 403.2 203.3 402.9 203.4 L 399.8 204.5 L 402.3 206.7 L 402.3 206.7 C 402.5 206.9 402.5 207.3 402.3 207.6 C 402.1 207.8 401.7 207.8 401.4 207.6 C 401.4 207.6 401.4 207.6 401.4 207.6 Z M 397.4 204.0 " fill="#000000"></path><path d="M -0.4 -0.5 L 249.5 -0.5 L 249.6 -0.5 " fill="none" stroke="#FF0000" stroke-width="0.75" stroke-linejoin="round" transform="matrix(0.00, -1.00, -1.00, 0.00, 252.0, 294.6)"></path><path d="M 252.5 42.3 L 255.2 47.0 L 255.2 47.0 C 255.4 47.2 255.3 47.6 255.0 47.8 C 254.7 48.0 254.3 47.9 254.1 47.6 L 252.5 44.8 L 250.9 47.6 L 250.9 47.6 C 250.7 47.9 250.3 48.0 250.0 47.8 C 249.7 47.6 249.6 47.2 249.8 47.0 C 249.8 47.0 249.8 47.0 249.8 47.0 Z M 252.5 42.3 " fill="#FF0000"></path><path d="M 0.0 -0.5 L 320.9 -0.5 L 321.0 -0.5 " fill="none" stroke="#FF0000" stroke-width="0.75" stroke-linejoin="round" transform="matrix(0.00, -1.00, -1.00, 0.00, 330.0, 366.0)"></path><path d="M 330.5 42.3 L 333.2 47.0 L 333.2 47.0 C 333.4 47.2 333.3 47.6 333.0 47.8 C 332.7 48.0 332.3 47.9 332.1 47.6 L 330.5 44.8 L 328.9 47.6 L 328.9 47.6 C 328.7 47.9 328.3 48.0 328.0 47.8 C 327.7 47.6 327.6 47.2 327.8 47.0 C 327.8 47.0 327.8 47.0 327.8 47.0 Z M 330.5 42.3 " fill="#FF0000"></path><path d="M 0.0 -0.5 L 116.9 -0.5 L 117.0 -0.5 " fill="none" stroke="#000000" stroke-width="0.75" stroke-linejoin="round" transform="matrix(0.00, -1.00, -1.00, 0.00, 111.0, 162.0)"></path><path d="M 111.5 42.3 L 114.2 47.0 L 114.2 47.0 C 114.4 47.2 114.3 47.6 114.0 47.8 C 113.7 48.0 113.3 47.9 113.1 47.6 L 111.5 44.8 L 109.9 47.6 L 109.9 47.6 C 109.7 47.9 109.3 48.0 109.0 47.8 C 108.7 47.6 108.6 47.2 108.8 47.0 C 108.8 47.0 108.8 47.0 108.8 47.0 Z M 111.5 42.3 " fill="#000000"></path><path d="M 0.0 -0.1 L 116.9 -0.1 L 117.0 -0.1 " fill="none" stroke="#000000" stroke-width="0.75" stroke-linejoin="round" transform="matrix(0.00, -1.00, -1.00, 0.00, 178.4, 162.0)"></path><path d="M 178.5 42.3 L 181.2 47.0 L 181.2 47.0 C 181.4 47.2 181.3 47.6 181.0 47.8 C 180.7 48.0 180.3 47.9 180.1 47.6 L 178.5 44.8 L 176.9 47.6 L 176.9 47.6 C 176.7 47.9 176.3 48.0 176.0 47.8 C 175.7 47.6 175.6 47.2 175.8 47.0 C 175.8 47.0 175.8 47.0 175.8 47.0 Z M 178.5 42.3 " fill="#000000"></path><path d="M 0.0 0.0 L 26.9 0.0 L 27.3 0.0 " fill="none" stroke="#000000" stroke-width="0.75" stroke-linejoin="round" transform="matrix(-0.05, -1.00, -1.00, 0.05, 399.1, 177.0)"></path><path d="M 397.8 147.0 L 400.7 151.6 L 400.7 151.6 C 400.9 151.8 400.8 152.2 400.5 152.4 C 400.2 152.6 399.8 152.5 399.6 152.2 L 397.9 149.5 L 396.3 152.4 L 396.3 152.4 C 396.2 152.7 395.8 152.8 395.5 152.6 C 395.2 152.5 395.1 152.1 395.2 151.8 C 395.2 151.8 395.2 151.8 395.2 151.8 Z M 397.8 147.0 " fill="#000000"></path><path d="M 0.0 0.0 L 29.2 0.0 L 29.5 0.0 " fill="none" stroke="#000000" stroke-width="0.75" stroke-linejoin="round" transform="matrix(-0.04, -1.00, -1.00, 0.04, 467.8, 179.2)"></path><path d="M 466.4 147.0 L 469.3 151.6 L 469.3 151.6 C 469.5 151.9 469.4 152.2 469.1 152.4 C 468.8 152.6 468.4 152.5 468.2 152.2 L 466.5 149.5 L 465.0 152.4 L 465.0 152.4 C 464.8 152.7 464.4 152.8 464.1 152.6 C 463.8 152.5 463.7 152.1 463.8 151.8 C 463.8 151.8 463.8 151.8 463.8 151.8 Z M 466.4 147.0 " fill="#000000"></path><path d="M 0.0 0.0 L 71.8 0.0 L 72.1 0.0 " fill="none" stroke="#000000" stroke-width="0.75" stroke-linejoin="round" transform="matrix(0.96, -0.28, -0.28, -0.96, 399.9, 117.0)"></path><path d="M 471.8 96.0 L 468.0 99.9 L 468.0 99.9 C 467.8 100.2 467.4 100.2 467.1 100.0 C 466.9 99.7 466.9 99.3 467.1 99.1 L 469.4 96.7 L 466.2 95.9 L 466.2 95.9 C 465.9 95.8 465.6 95.5 465.7 95.2 C 465.8 94.8 466.2 94.6 466.5 94.7 C 466.5 94.7 466.5 94.7 466.5 94.7 Z M 471.8 96.0 " fill="#000000"></path><path d="M 0.0 0.0 L 72.8 0.0 L 73.2 0.0 " fill="none" stroke="#000000" stroke-width="0.75" stroke-linejoin="round" transform="matrix(-0.94, -0.35, -0.35, 0.94, 470.4, 122.2)"></path><path d="M 399.1 96.0 L 404.5 95.1 L 404.5 95.1 C 404.8 95.0 405.1 95.2 405.2 95.6 C 405.2 95.9 405.0 96.2 404.7 96.3 L 401.5 96.9 L 403.5 99.4 L 403.5 99.4 C 403.8 99.6 403.7 100.0 403.5 100.3 C 403.2 100.5 402.8 100.4 402.6 100.2 C 402.6 100.2 402.6 100.2 402.6 100.2 Z M 399.1 96.0 " fill="#000000"></path><path d="M 0.0 0.0 L 26.9 0.0 L 27.3 0.0 " fill="none" stroke="#000000" stroke-width="0.75" stroke-linejoin="round" transform="matrix(-0.05, -1.00, -1.00, 0.05, 409.1, 67.9)"></path><path d="M 407.8 37.9 L 410.7 42.4 L 410.7 42.4 C 410.9 42.7 410.8 43.1 410.5 43.3 C 410.2 43.5 409.8 43.4 409.6 43.1 L 407.9 40.4 L 406.3 43.3 L 406.3 43.3 C 406.2 43.6 405.8 43.7 405.5 43.5 C 405.2 43.4 405.1 43.0 405.2 42.7 C 405.2 42.7 405.2 42.7 405.2 42.7 Z M 407.8 37.9 " fill="#000000"></path><path d="M 0.0 0.0 L 26.9 0.0 L 27.3 0.0 " fill="none" stroke="#000000" stroke-width="0.75" stroke-linejoin="round" transform="matrix(-0.05, -1.00, -1.00, 0.05, 481.4, 67.9)"></path><path d="M 480.0 37.9 L 482.9 42.4 L 482.9 42.4 C 483.1 42.7 483.0 43.1 482.8 43.3 C 482.5 43.5 482.1 43.4 481.9 43.1 L 480.1 40.4 L 478.6 43.3 L 478.6 43.3 C 478.4 43.6 478.1 43.7 477.8 43.5 C 477.4 43.4 477.3 43.0 477.5 42.7 C 477.5 42.7 477.5 42.7 477.5 42.7 Z M 480.0 37.9 " fill="#000000"></path><path d="M 0.4 -0.4 L 123.3 -0.4 L 123.4 -0.4 " fill="none" stroke="#FF0000" stroke-width="0.75" stroke-linejoin="round" transform="matrix(0.00, -1.00, -1.00, 0.00, 551.1, 168.4)"></path><path d="M 551.5 42.3 L 554.2 47.0 L 554.2 47.0 C 554.4 47.2 554.3 47.6 554.0 47.8 C 553.7 48.0 553.3 47.9 553.1 47.6 L 551.5 44.8 L 549.9 47.6 L 549.9 47.6 C 549.7 47.9 549.3 48.0 549.0 47.8 C 548.7 47.6 548.6 47.2 548.8 47.0 C 548.8 47.0 548.8 47.0 548.8 47.0 Z M 551.5 42.3 " fill="#FF0000"></path><path d="M 0.0 -0.4 L 249.9 -0.4 L 250.0 -0.4 " fill="none" stroke="#FF0000" stroke-width="0.75" stroke-linejoin="round" transform="matrix(0.00, -1.00, -1.00, 0.00, 636.1, 295.0)"></path><path d="M 636.5 42.3 L 639.2 47.0 L 639.2 47.0 C 639.4 47.2 639.3 47.6 639.0 47.8 C 638.7 48.0 638.3 47.9 638.1 47.6 L 636.5 44.8 L 634.9 47.6 L 634.9 47.6 C 634.7 47.9 634.3 48.0 634.0 47.8 C 633.7 47.6 633.6 47.2 633.8 47.0 C 633.8 47.0 633.8 47.0 633.8 47.0 Z M 636.5 42.3 " fill="#FF0000"></path></g></svg>