<?xml version="1.0" encoding="UTF-8" standalone="no"?><svg xmlns="http://www.w3.org/2000/svg" xmlns:xlink="http://www.w3.org/1999/xlink" clip-rule="evenodd" stroke-miterlimit="10" viewBox="0 0 1024 768"><desc>SVG generated by Keynote</desc><defs></defs><g transform="matrix(1.00, 0.00, -0.00, -1.00, 0.0, 768.0)"><g><clipPath id="clip0x7ff62f936f40"><path d="M 0.0 768.0 L 1024.0 768.0 L 1024.0 0.0 L 0.0 0.0 Z M 0.0 768.0 "></path></clipPath><g clip-path="url(#clip0x7ff62f936f40)"><image xlink:href="9397CAD6F20342ACC2646ABBCA758461.jpeg" width="2048.00" height="1536.00" transform="matrix(0.50, 0.00, -0.00, -0.50, 0.0, 768.0)"></image></g></g><image xlink:href="7A9175C9391C78CBD370AE590BEA5A4E.png" width="912.00" height="114.00" transform="matrix(1.00, 0.00, -0.00, -1.00, 56.0, 529.2)" opacity="0.50"></image><g><clipPath id="clip0x7ff62cd589c0"><path d="M 60.0 527.0 L 964.0 527.0 L 964.0 421.0 L 60.0 421.0 Z M 60.0 527.2 "></path></clipPath><g clip-path="url(#clip0x7ff62cd589c0)"><image xlink:href="972775F180A1FE13EFE99C2EAE557B55.png" width="904.00" height="107.00" transform="matrix(1.00, 0.00, -0.00, 1.00, 60.0, 420.2)"></image></g></g><image xlink:href="1562CD29C0FF9352AFA0A696AB2DCB45.png" width="498.00" height="53.00" transform="matrix(1.00, 0.00, -0.00, -1.00, 261.0, 492.0)"></image><g><clipPath id="clip0x7ff62cd5b0f0"><path d="M 46.6 420.8 L 977.4 420.8 L 977.4 527.2 L 46.6 527.2 Z M 46.6 420.8 "></path></clipPath><g clip-path="url(#clip0x7ff62cd5b0f0)"><text xml:space="preserve" font-family="HelveticaNeue-Medium,Helvetica Neue" font-size="55.0" fill="#3B3B3B" transform="matrix(1.00, 0.00, -0.00, -1.00, 263.4, 452.7)">A</text><text xml:space="preserve" font-family="HelveticaNeue-Medium,Helvetica Neue" font-size="55.0" fill="#3B3B3B" transform="matrix(1.00, 0.00, -0.00, -1.00, 300.1, 452.7)">p</text><text xml:space="preserve" font-family="HelveticaNeue-Medium,Helvetica Neue" font-size="55.0" fill="#3B3B3B" transform="matrix(1.00, 0.00, -0.00, -1.00, 333.7, 452.7)">p</text><text xml:space="preserve" font-family="HelveticaNeue-Medium,Helvetica Neue" font-size="55.0" fill="#3B3B3B" transform="matrix(1.00, 0.00, -0.00, -1.00, 367.3, 452.7)"> </text><text xml:space="preserve" font-family="HelveticaNeue-Medium,Helvetica Neue" font-size="55.0" fill="#3B3B3B" transform="matrix(1.00, 0.00, -0.00, -1.00, 382.6, 452.7)">D</text><text xml:space="preserve" font-family="HelveticaNeue-Medium,Helvetica Neue" font-size="55.0" fill="#3B3B3B" transform="matrix(1.00, 0.00, -0.00, -1.00, 422.3, 452.7)">e</text><text xml:space="preserve" font-family="HelveticaNeue-Medium,Helvetica Neue" font-size="55.0" fill="#3B3B3B" transform="matrix(1.00, 0.00, -0.00, -1.00, 452.8, 452.7)">s</text><text xml:space="preserve" font-family="HelveticaNeue-Medium,Helvetica Neue" font-size="55.0" fill="#3B3B3B" transform="matrix(1.00, 0.00, -0.00, -1.00, 481.4, 452.7)">i</text><text xml:space="preserve" font-family="HelveticaNeue-Medium,Helvetica Neue" font-size="55.0" fill="#3B3B3B" transform="matrix(1.00, 0.00, -0.00, -1.00, 494.6, 452.7)">g</text><text xml:space="preserve" font-family="HelveticaNeue-Medium,Helvetica Neue" font-size="55.0" fill="#3B3B3B" transform="matrix(1.00, 0.00, -0.00, -1.00, 527.3, 452.7)">n</text><text xml:space="preserve" font-family="HelveticaNeue-Medium,Helvetica Neue" font-size="55.0" fill="#3B3B3B" transform="matrix(1.00, 0.00, -0.00, -1.00, 558.8, 452.7)"> </text><text xml:space="preserve" font-family="HelveticaNeue-Medium,Helvetica Neue" font-size="55.0" fill="#3B3B3B" transform="matrix(1.00, 0.00, -0.00, -1.00, 574.1, 452.7)">T</text><text xml:space="preserve" font-family="HelveticaNeue-Medium,Helvetica Neue" font-size="55.0" fill="#3B3B3B" transform="matrix(1.00, 0.00, -0.00, -1.00, 601.7, 452.7)">u</text><text xml:space="preserve" font-family="HelveticaNeue-Medium,Helvetica Neue" font-size="55.0" fill="#3B3B3B" transform="matrix(1.00, 0.00, -0.00, -1.00, 633.2, 452.7)">t</text><text xml:space="preserve" font-family="HelveticaNeue-Medium,Helvetica Neue" font-size="55.0" fill="#3B3B3B" transform="matrix(1.00, 0.00, -0.00, -1.00, 651.6, 452.7)">o</text><text xml:space="preserve" font-family="HelveticaNeue-Medium,Helvetica Neue" font-size="55.0" fill="#3B3B3B" transform="matrix(1.00, 0.00, -0.00, -1.00, 684.2, 452.7)">r</text><text xml:space="preserve" font-family="HelveticaNeue-Medium,Helvetica Neue" font-size="55.0" fill="#3B3B3B" transform="matrix(1.00, 0.00, -0.00, -1.00, 703.5, 452.7)">i</text><text xml:space="preserve" font-family="HelveticaNeue-Medium,Helvetica Neue" font-size="55.0" fill="#3B3B3B" transform="matrix(1.00, 0.00, -0.00, -1.00, 716.8, 452.7)">a</text><text xml:space="preserve" font-family="HelveticaNeue-Medium,Helvetica Neue" font-size="55.0" fill="#3B3B3B" transform="matrix(1.00, 0.00, -0.00, -1.00, 747.4, 452.7)">l</text></g></g><image xlink:href="5C15FE074A5CB1BFE55EC303F2D2FB4B.png" width="188.00" height="32.00" transform="matrix(1.00, 0.00, -0.00, -1.00, 418.0, 387.0)"></image><text xml:space="preserve" font-family="HelveticaNeue-Medium,Helvetica Neue" font-size="24.0" fill="#FEFFFE" transform="matrix(1.00, 0.00, -0.00, -1.00, 420.9, 366.9)">b</text><text xml:space="preserve" font-family="HelveticaNeue-Medium,Helvetica Neue" font-size="24.0" fill="#FEFFFE" transform="matrix(1.00, 0.00, -0.00, -1.00, 435.5, 366.9)">y</text><text xml:space="preserve" font-family="HelveticaNeue-Medium,Helvetica Neue" font-size="24.0" fill="#FEFFFE" transform="matrix(1.00, 0.00, -0.00, -1.00, 448.0, 366.9)"> </text><text xml:space="preserve" font-family="HelveticaNeue-Medium,Helvetica Neue" font-size="24.0" fill="#FEFFFE" transform="matrix(1.00, 0.00, -0.00, -1.00, 454.7, 366.9)">P</text><text xml:space="preserve" font-family="HelveticaNeue-Medium,Helvetica Neue" font-size="24.0" fill="#FEFFFE" transform="matrix(1.00, 0.00, -0.00, -1.00, 470.7, 366.9)">h</text><text xml:space="preserve" font-family="HelveticaNeue-Medium,Helvetica Neue" font-size="24.0" fill="#FEFFFE" transform="matrix(1.00, 0.00, -0.00, -1.00, 484.4, 366.9)">u</text><text xml:space="preserve" font-family="HelveticaNeue-Medium,Helvetica Neue" font-size="24.0" fill="#FEFFFE" transform="matrix(1.00, 0.00, -0.00, -1.00, 498.2, 366.9)">c</text><text xml:space="preserve" font-family="HelveticaNeue-Medium,Helvetica Neue" font-size="24.0" fill="#FEFFFE" transform="matrix(1.00, 0.00, -0.00, -1.00, 511.6, 366.9)"> </text><text xml:space="preserve" font-family="HelveticaNeue-Medium,Helvetica Neue" font-size="24.0" fill="#FEFFFE" transform="matrix(1.00, 0.00, -0.00, -1.00, 518.2, 366.9)">N</text><text xml:space="preserve" font-family="HelveticaNeue-Medium,Helvetica Neue" font-size="24.0" fill="#FEFFFE" transform="matrix(1.00, 0.00, -0.00, -1.00, 535.6, 366.9)">g</text><text xml:space="preserve" font-family="HelveticaNeue-Medium,Helvetica Neue" font-size="24.0" fill="#FEFFFE" transform="matrix(1.00, 0.00, -0.00, -1.00, 549.8, 366.9)">u</text><text xml:space="preserve" font-family="HelveticaNeue-Medium,Helvetica Neue" font-size="24.0" fill="#FEFFFE" transform="matrix(1.00, 0.00, -0.00, -1.00, 563.6, 366.9)">y</text><text xml:space="preserve" font-family="HelveticaNeue-Medium,Helvetica Neue" font-size="24.0" fill="#FEFFFE" transform="matrix(1.00, 0.00, -0.00, -1.00, 576.0, 366.9)">e</text><text xml:space="preserve" font-family="HelveticaNeue-Medium,Helvetica Neue" font-size="24.0" fill="#FEFFFE" transform="matrix(1.00, 0.00, -0.00, -1.00, 589.4, 366.9)">n</text></g></svg>