<?xml version="1.0" encoding="UTF-8" standalone="no"?><svg xmlns="http://www.w3.org/2000/svg" xmlns:xlink="http://www.w3.org/1999/xlink" clip-rule="evenodd" stroke-miterlimit="10" viewBox="0 0 1024 768"><desc>SVG generated by Keynote</desc><defs></defs><g transform="matrix(1.00, 0.00, -0.00, -1.00, 0.0, 768.0)"><g><clipPath id="clip0x7ff629e90ea0"><path d="M 0.0 768.0 L 1024.0 768.0 L 1024.0 0.0 L 0.0 0.0 Z M 0.0 768.0 "></path></clipPath><g clip-path="url(#clip0x7ff629e90ea0)"><image xlink:href="../../BE4D2DDB-FBE4-467E-AE38-B34F9028D09E/assets/9397CAD6F20342ACC2646ABBCA758461.jpeg" width="2048.00" height="1536.00" transform="matrix(0.50, 0.00, -0.00, -0.50, 0.0, 768.0)"></image></g></g><image xlink:href="../../99C35F40-C8BF-452B-BFD0-8C8D79E868CA/assets/AEC1FA514F77C629F6DAFC97C0B9031F.png" width="783.00" height="145.00" transform="matrix(1.00, 0.00, -0.00, -1.00, 120.8, 454.6)" opacity="0.50"></image><g><clipPath id="clip0x7ff612958840"><path d="M 125.0 453.0 L 899.0 453.0 L 899.0 315.0 L 125.0 315.0 Z M 124.8 452.6 "></path></clipPath><g clip-path="url(#clip0x7ff612958840)"><image xlink:href="../../99C35F40-C8BF-452B-BFD0-8C8D79E868CA/assets/B825BE3D085405B2E92111833D4ADB9A.png" width="775.00" height="139.00" transform="matrix(1.00, 0.00, -0.00, 1.00, 124.8, 314.6)"></image></g></g><image xlink:href="../../9B7E38D4-5168-4993-9BF5-C3582A049213/assets/55CECCF684B86D6D92710BA8FC40F1D5.png" width="22.00" height="32.00" transform="matrix(1.00, 0.00, -0.00, -1.00, 266.0, 398.0)"></image><text xml:space="preserve" font-family="HelveticaNeue-Medium,Helvetica Neue" font-size="40.0" fill="#3B3B3B" transform="matrix(1.00, 0.00, -0.00, -1.00, 265.6, 368.5)">2</text><image xlink:href="../../9B7E38D4-5168-4993-9BF5-C3582A049213/assets/6E305BBEC8E5B22387060700312FDF28.png" width="9.00" height="8.00" transform="matrix(1.00, 0.00, -0.00, -1.00, 289.0, 374.0)"></image><text xml:space="preserve" font-family="HelveticaNeue-Medium,Helvetica Neue" font-size="40.0" fill="#3B3B3B" transform="matrix(1.00, 0.00, -0.00, -1.00, 287.8, 368.5)">.</text><text xml:space="preserve" font-family="HelveticaNeue-Medium,Helvetica Neue" font-size="40.0" fill="#3B3B3B" transform="matrix(1.00, 0.00, -0.00, -1.00, 299.0, 368.5)"> </text><image xlink:href="../../9B7E38D4-5168-4993-9BF5-C3582A049213/assets/6FA7419A5CEA91D34F46F7DA2EFCA716.png" width="26.00" height="33.00" transform="matrix(1.00, 0.00, -0.00, -1.00, 310.0, 398.0)"></image><text xml:space="preserve" font-family="HelveticaNeue-Medium,Helvetica Neue" font-size="40.0" fill="#3B3B3B" transform="matrix(1.00, 0.00, -0.00, -1.00, 310.1, 368.5)">S</text><image xlink:href="../../9B7E38D4-5168-4993-9BF5-C3582A049213/assets/7741B6F5475B701ABEDF6CBB79791E33.png" width="24.00" height="25.00" transform="matrix(1.00, 0.00, -0.00, -1.00, 336.0, 390.0)"></image><text xml:space="preserve" font-family="HelveticaNeue-Medium,Helvetica Neue" font-size="40.0" fill="#3B3B3B" transform="matrix(1.00, 0.00, -0.00, -1.00, 336.0, 368.5)">o</text><image xlink:href="../../9B7E38D4-5168-4993-9BF5-C3582A049213/assets/1ABDF3C0AD3DC48ED2A198FE192101BC.png" width="15.00" height="32.00" transform="matrix(1.00, 0.00, -0.00, -1.00, 359.0, 398.0)"></image><text xml:space="preserve" font-family="HelveticaNeue-Medium,Helvetica Neue" font-size="40.0" fill="#3B3B3B" transform="matrix(1.00, 0.00, -0.00, -1.00, 359.7, 368.5)">f</text><image xlink:href="../../9B7E38D4-5168-4993-9BF5-C3582A049213/assets/7CAD67057E3CDCDEFA78275005B99ECA.png" width="15.00" height="30.00" transform="matrix(1.00, 0.00, -0.00, -1.00, 371.0, 396.0)"></image><text xml:space="preserve" font-family="HelveticaNeue-Medium,Helvetica Neue" font-size="40.0" fill="#3B3B3B" transform="matrix(1.00, 0.00, -0.00, -1.00, 372.3, 368.5)">t</text><image xlink:href="../../9B7E38D4-5168-4993-9BF5-C3582A049213/assets/A991FB728FBAFDB0C11DF65105F208A6.png" width="33.00" height="24.00" transform="matrix(1.00, 0.00, -0.00, -1.00, 385.0, 390.0)"></image><text xml:space="preserve" font-family="HelveticaNeue-Medium,Helvetica Neue" font-size="40.0" fill="#3B3B3B" transform="matrix(1.00, 0.00, -0.00, -1.00, 385.6, 368.5)">w</text><image xlink:href="../../9B7E38D4-5168-4993-9BF5-C3582A049213/assets/265BFC87DB3748E5CA07811CEF4899C1.png" width="23.00" height="25.00" transform="matrix(1.00, 0.00, -0.00, -1.00, 417.0, 390.0)"></image><text xml:space="preserve" font-family="HelveticaNeue-Medium,Helvetica Neue" font-size="40.0" fill="#3B3B3B" transform="matrix(1.00, 0.00, -0.00, -1.00, 416.8, 368.5)">a</text><image xlink:href="../../9B7E38D4-5168-4993-9BF5-C3582A049213/assets/B13E36D9BAB27E3949E2C154EF53CD86.png" width="15.00" height="24.00" transform="matrix(1.00, 0.00, -0.00, -1.00, 440.0, 390.0)"></image><text xml:space="preserve" font-family="HelveticaNeue-Medium,Helvetica Neue" font-size="40.0" fill="#3B3B3B" transform="matrix(1.00, 0.00, -0.00, -1.00, 439.0, 368.5)">r</text><image xlink:href="../../9B7E38D4-5168-4993-9BF5-C3582A049213/assets/1D1118B78118766E4850511ED99FFAF2.png" width="23.00" height="25.00" transform="matrix(1.00, 0.00, -0.00, -1.00, 452.0, 390.0)"></image><text xml:space="preserve" font-family="HelveticaNeue-Medium,Helvetica Neue" font-size="40.0" fill="#3B3B3B" transform="matrix(1.00, 0.00, -0.00, -1.00, 452.4, 368.5)">e</text><text xml:space="preserve" font-family="HelveticaNeue-Medium,Helvetica Neue" font-size="40.0" fill="#3B3B3B" transform="matrix(1.00, 0.00, -0.00, -1.00, 474.6, 368.5)"> </text><image xlink:href="../../9B7E38D4-5168-4993-9BF5-C3582A049213/assets/8D818C82ED8354E5A7F5D92079FD6F95.png" width="23.00" height="32.00" transform="matrix(1.00, 0.00, -0.00, -1.00, 487.0, 398.0)"></image><text xml:space="preserve" font-family="HelveticaNeue-Medium,Helvetica Neue" font-size="40.0" fill="#3B3B3B" transform="matrix(1.00, 0.00, -0.00, -1.00, 485.7, 368.5)">F</text><image xlink:href="../../9B7E38D4-5168-4993-9BF5-C3582A049213/assets/89535320040235775F732A078C286BCF.png" width="24.00" height="25.00" transform="matrix(1.00, 0.00, -0.00, -1.00, 509.0, 390.0)"></image><text xml:space="preserve" font-family="HelveticaNeue-Medium,Helvetica Neue" font-size="40.0" fill="#3B3B3B" transform="matrix(1.00, 0.00, -0.00, -1.00, 509.4, 368.5)">a</text><image xlink:href="../../9B7E38D4-5168-4993-9BF5-C3582A049213/assets/E42C2D1900B22807F0D540D54B552443.png" width="22.00" height="25.00" transform="matrix(1.00, 0.00, -0.00, -1.00, 531.0, 390.0)"></image><text xml:space="preserve" font-family="HelveticaNeue-Medium,Helvetica Neue" font-size="40.0" fill="#3B3B3B" transform="matrix(1.00, 0.00, -0.00, -1.00, 531.7, 368.5)">s</text><image xlink:href="../../9B7E38D4-5168-4993-9BF5-C3582A049213/assets/5F34D0BAAEBC80DD57C52B18FDA041B5.png" width="21.00" height="32.00" transform="matrix(1.00, 0.00, -0.00, -1.00, 553.0, 398.0)"></image><text xml:space="preserve" font-family="HelveticaNeue-Medium,Helvetica Neue" font-size="40.0" fill="#3B3B3B" transform="matrix(1.00, 0.00, -0.00, -1.00, 552.4, 368.5)">h</text><image xlink:href="../../9B7E38D4-5168-4993-9BF5-C3582A049213/assets/59DA68B0A79BEDBEACA19211F1DDC7FD.png" width="8.00" height="32.00" transform="matrix(1.00, 0.00, -0.00, -1.00, 576.0, 398.0)"></image><text xml:space="preserve" font-family="HelveticaNeue-Medium,Helvetica Neue" font-size="40.0" fill="#3B3B3B" transform="matrix(1.00, 0.00, -0.00, -1.00, 575.4, 368.5)">i</text><image xlink:href="../../9B7E38D4-5168-4993-9BF5-C3582A049213/assets/7D15EDCF238B66BA2885583CF2B8FFC1.png" width="24.00" height="25.00" transform="matrix(1.00, 0.00, -0.00, -1.00, 585.0, 390.0)"></image><text xml:space="preserve" font-family="HelveticaNeue-Medium,Helvetica Neue" font-size="40.0" fill="#3B3B3B" transform="matrix(1.00, 0.00, -0.00, -1.00, 585.0, 368.5)">o</text><image xlink:href="../../99C35F40-C8BF-452B-BFD0-8C8D79E868CA/assets/D47E673511EBA908A46CF7DFF864B0AD.png" width="21.00" height="24.00" transform="matrix(1.00, 0.00, -0.00, -1.00, 610.0, 390.0)"></image><text xml:space="preserve" font-family="HelveticaNeue-Medium,Helvetica Neue" font-size="40.0" fill="#3B3B3B" transform="matrix(1.00, 0.00, -0.00, -1.00, 608.8, 368.5)">n</text><text xml:space="preserve" font-family="HelveticaNeue-Medium,Helvetica Neue" font-size="40.0" fill="#3B3B3B" transform="matrix(1.00, 0.00, -0.00, -1.00, 631.7, 368.5)"> </text><image xlink:href="../../9B7E38D4-5168-4993-9BF5-C3582A049213/assets/88C91D19543E033F258EE349B953FE50.png" width="15.00" height="7.00" transform="matrix(1.00, 0.00, -0.00, -1.00, 643.0, 382.0)"></image><text xml:space="preserve" font-family="HelveticaNeue-Medium,Helvetica Neue" font-size="40.0" fill="#3B3B3B" transform="matrix(1.00, 0.00, -0.00, -1.00, 642.8, 368.5)">-</text><text xml:space="preserve" font-family="HelveticaNeue-Medium,Helvetica Neue" font-size="40.0" fill="#3B3B3B" transform="matrix(1.00, 0.00, -0.00, -1.00, 658.4, 368.5)"> </text><image xlink:href="../../9B7E38D4-5168-4993-9BF5-C3582A049213/assets/146DFF72FB072F281FFA7A3F913BAEFF.png" width="33.00" height="32.00" transform="matrix(1.00, 0.00, -0.00, -1.00, 671.0, 398.0)"></image><text xml:space="preserve" font-family="HelveticaNeue-Medium,Helvetica Neue" font-size="40.0" fill="#3B3B3B" transform="matrix(1.00, 0.00, -0.00, -1.00, 669.5, 368.5)">M</text><image xlink:href="../../9B7E38D4-5168-4993-9BF5-C3582A049213/assets/D8F03261F5EA9E953FCA253D1CB92543.png" width="28.00" height="32.00" transform="matrix(1.00, 0.00, -0.00, -1.00, 703.0, 398.0)"></image><text xml:space="preserve" font-family="HelveticaNeue-Medium,Helvetica Neue" font-size="40.0" fill="#3B3B3B" transform="matrix(1.00, 0.00, -0.00, -1.00, 705.1, 368.5)">V</text><image xlink:href="../../9B7E38D4-5168-4993-9BF5-C3582A049213/assets/98B21B45CDD9CC02A14B4BE87677109F.png" width="28.00" height="33.00" transform="matrix(1.00, 0.00, -0.00, -1.00, 730.0, 398.0)"></image><text xml:space="preserve" font-family="HelveticaNeue-Medium,Helvetica Neue" font-size="40.0" fill="#3B3B3B" transform="matrix(1.00, 0.00, -0.00, -1.00, 729.5, 368.5)">C</text></g></svg>