<?xml version="1.0" encoding="UTF-8" standalone="no"?><svg xmlns="http://www.w3.org/2000/svg" xmlns:xlink="http://www.w3.org/1999/xlink" clip-rule="evenodd" stroke-miterlimit="10" viewBox="0 0 157 114"><desc>SVG generated by Keynote</desc><defs></defs><g transform="matrix(1.00, 0.00, -0.00, -1.00, 0.0, 114.0)"><image xlink:href="../../EEFDA636-FF27-4CCE-A456-A99B2D1B74FC/assets/592D150CDCFFF02CC6C769D031E44E41.png" width="154.00" height="108.00" transform="matrix(1.00, 0.00, -0.00, -1.00, 1.0, 109.0)" opacity="0.50"></image><g><clipPath id="clip0x7ff614998420"><path d="M 5.0 22.0 L 5.0 92.0 C 5.0 100.3 11.7 107.0 20.0 107.0 L 136.3 107.0 C 144.6 107.0 151.0 100.3 151.0 92.0 L 151.0 22.0 C 151.0 13.7 144.6 7.0 136.3 7.0 L 20.0 7.0 C 11.7 7.0 5.0 13.7 5.0 22.0 Z M 5.0 22.0 "></path></clipPath><g clip-path="url(#clip0x7ff614998420)"><image xlink:href="../../DE629342-4F0C-4417-94FF-D6D835F92EA0/assets/71D9304BD44382C20CC202032C6D6058.png" width="512.00" height="512.00" transform="matrix(0.50, 0.00, -0.00, -0.50, 5.0, 107.0)"></image></g></g><image xlink:href="../../EEFDA636-FF27-4CCE-A456-A99B2D1B74FC/assets/F51B60CC7FD6CBEB12D8F7244D472E4C.png" width="72.00" height="29.00" transform="matrix(1.00, 0.00, -0.00, -1.00, 42.0, 70.0)"></image><g><clipPath id="clip0x7ff614999e60"><path d="M -2.9 7.0 L 159.3 7.0 L 159.3 107.0 L -2.9 107.0 Z M -2.9 7.0 "></path></clipPath><g clip-path="url(#clip0x7ff614999e60)"><text xml:space="preserve" font-family="HelveticaNeue-Medium,Helvetica Neue" font-size="30.0" fill="#FEFFFE" transform="matrix(1.00, 0.00, -0.00, -1.00, 45.2, 46.1)">V</text><text xml:space="preserve" font-family="HelveticaNeue-Medium,Helvetica Neue" font-size="30.0" fill="#FEFFFE" transform="matrix(1.00, 0.00, -0.00, -1.00, 63.9, 46.1)">i</text><text xml:space="preserve" font-family="HelveticaNeue-Medium,Helvetica Neue" font-size="30.0" fill="#FEFFFE" transform="matrix(1.00, 0.00, -0.00, -1.00, 71.1, 46.1)">e</text><text xml:space="preserve" font-family="HelveticaNeue-Medium,Helvetica Neue" font-size="30.0" fill="#FEFFFE" transform="matrix(1.00, 0.00, -0.00, -1.00, 87.8, 46.1)">w</text></g></g></g></svg>