<?xml version="1.0" encoding="UTF-8" standalone="no"?><svg xmlns="http://www.w3.org/2000/svg" xmlns:xlink="http://www.w3.org/1999/xlink" clip-rule="evenodd" stroke-miterlimit="10" viewBox="0 0 254 182"><desc>SVG generated by Keynote</desc><defs></defs><g transform="matrix(1.00, 0.00, -0.00, -1.00, 0.0, 182.0)"><path d="M 184.7 168.4 C 185.6 168.4 189.5 168.3 189.5 168.2 C 188.1 168.3 185.0 168.3 184.7 168.4 C 184.7 168.4 184.7 168.4 184.7 168.4 Z M 177.1 168.5 C 178.5 168.6 181.5 168.5 182.5 168.4 C 180.9 168.5 177.6 168.4 177.1 168.5 C 177.1 168.5 177.1 168.5 177.1 168.5 Z M 188.8 168.0 C 190.9 167.9 194.8 167.8 195.7 167.7 C 193.6 167.8 189.8 167.9 188.8 168.0 C 188.8 168.0 188.8 168.0 188.8 168.0 Z M 95.3 160.3 C 95.9 160.5 98.7 161.3 98.7 161.2 C 97.7 160.9 95.5 160.2 95.3 160.3 C 95.3 160.3 95.3 160.3 95.3 160.3 Z M 111.3 163.9 C 112.4 164.2 114.8 164.7 115.6 164.7 C 114.3 164.5 111.7 163.9 111.3 163.9 C 111.3 163.9 111.3 163.9 111.3 163.9 Z M 121.2 165.8 C 123.5 166.2 126.1 166.5 125.6 166.4 C 124.8 166.3 121.4 165.7 121.2 165.8 C 121.2 165.8 121.2 165.8 121.2 165.8 Z M 186.3 163.7 C 183.2 163.9 181.0 163.8 179.0 163.8 C 168.8 163.9 184.2 164.0 186.3 163.7 C 186.3 163.7 186.3 163.7 186.3 163.7 Z M 139.6 167.8 C 137.7 167.7 136.3 167.5 135.5 167.5 C 137.1 167.7 139.4 167.9 139.6 167.8 C 139.6 167.8 139.6 167.8 139.6 167.8 Z M 155.6 168.9 C 156.0 169.0 165.9 169.3 171.6 169.3 C 166.8 169.2 155.2 168.8 155.6 168.9 C 155.6 168.9 155.6 168.9 155.6 168.9 Z M 162.3 163.6 C 155.9 163.5 146.1 162.9 141.8 162.5 C 137.5 162.2 149.3 163.4 161.1 163.8 C 172.8 164.2 163.1 163.7 168.0 163.7 C 172.9 163.7 163.3 163.5 158.6 163.4 C 153.9 163.2 161.7 163.5 162.3 163.6 C 162.3 163.6 162.3 163.6 162.3 163.6 Z M 162.6 163.3 C 164.9 163.3 166.9 163.4 168.3 163.3 C 165.9 163.2 163.6 163.1 162.6 163.3 C 162.6 163.3 162.6 163.3 162.6 163.3 Z M 7.8 7.3 C 6.7 7.9 5.3 12.8 4.3 18.1 C 4.0 19.4 3.8 20.8 3.6 22.1 C 2.6 31.7 2.5 41.0 3.1 49.9 C 3.2 51.6 3.3 53.4 3.5 55.1 C 4.1 60.4 4.9 65.6 5.9 70.6 C 6.3 72.3 6.7 73.9 7.1 75.6 C 8.5 81.5 10.4 86.8 12.5 92.0 C 13.6 94.7 14.7 97.3 15.9 100.0 C 16.5 101.3 19.5 106.7 20.7 108.5 C 19.4 106.9 25.1 115.3 24.8 114.9 C 25.6 115.7 26.3 116.7 27.0 117.6 C 27.8 118.5 26.9 117.3 26.0 116.1 C 26.9 117.1 27.7 118.1 28.5 119.2 C 29.4 120.3 30.3 121.3 31.2 122.4 C 34.3 126.0 38.0 129.6 41.4 132.4 C 45.9 136.4 55.3 143.2 63.8 147.7 C 72.3 152.3 79.6 155.0 76.5 153.7 C 69.5 150.7 73.2 152.1 75.0 152.9 C 76.1 153.3 77.6 153.9 79.3 154.6 C 79.2 154.6 79.1 154.6 78.8 154.5 C 81.9 155.8 86.5 157.6 91.2 159.0 C 90.3 158.7 89.2 158.3 88.8 158.1 C 91.2 158.9 89.3 158.2 90.9 158.6 C 95.2 160.0 97.3 160.5 92.3 159.0 C 97.0 160.3 100.1 161.0 105.1 162.0 C 106.9 162.5 105.9 162.2 105.3 162.2 C 108.6 163.0 116.3 164.5 117.1 164.7 C 117.8 164.9 96.6 160.1 100.3 161.1 C 101.7 161.5 104.9 162.3 106.0 162.6 C 103.4 162.0 100.2 161.2 98.5 160.8 C 100.3 161.3 102.9 161.9 104.3 162.3 C 102.5 161.8 101.3 161.6 100.8 161.5 C 103.3 162.1 105.2 162.6 108.4 163.3 C 109.8 163.6 107.2 163.0 110.2 163.6 C 110.7 163.6 108.2 163.1 108.4 163.1 C 110.8 163.6 115.7 164.6 116.9 164.8 C 118.1 165.0 113.9 164.2 113.9 164.2 C 123.3 166.0 135.0 167.3 138.7 167.7 C 142.4 168.0 138.9 167.7 137.4 167.5 C 141.7 167.9 144.9 168.2 150.3 168.5 C 153.7 168.7 152.3 168.6 151.0 168.5 C 152.0 168.6 152.8 168.6 153.3 168.6 C 153.7 168.6 154.7 168.7 155.3 168.7 C 153.2 168.6 149.3 168.3 147.6 168.2 C 150.7 168.3 158.3 168.8 161.1 168.8 C 156.6 168.6 151.9 168.4 147.1 168.0 C 156.5 168.6 166.6 169.1 174.7 169.0 C 173.3 168.9 172.6 168.9 171.5 168.8 C 174.5 168.9 179.2 169.0 182.0 168.8 C 183.6 168.7 186.7 168.6 189.9 168.5 C 184.3 168.7 180.7 168.7 177.0 168.7 C 177.0 168.7 177.4 168.7 178.0 168.7 C 169.6 168.6 165.0 168.7 159.3 168.6 C 158.9 168.5 158.5 168.5 158.0 168.5 C 156.2 168.3 162.7 168.6 163.3 168.5 C 154.8 168.3 146.0 167.7 142.2 167.2 C 151.6 168.0 160.3 168.5 168.0 168.5 C 166.0 168.3 158.4 168.2 154.9 167.9 C 170.9 168.7 173.1 168.3 174.4 168.3 C 173.1 168.3 171.8 168.3 170.5 168.3 C 170.8 168.2 171.2 168.2 171.5 168.2 C 178.9 168.3 188.0 168.0 187.6 168.0 C 187.2 168.0 180.1 168.2 172.9 168.1 C 173.7 168.1 174.4 168.0 175.2 168.0 C 183.7 168.0 193.6 167.5 202.8 167.0 C 201.3 167.0 202.0 167.0 203.9 166.8 C 201.0 166.9 197.0 167.1 194.0 167.2 C 195.0 167.1 196.9 167.1 197.5 167.0 C 196.0 167.0 193.6 167.1 192.9 167.1 C 197.1 166.9 201.7 166.6 206.3 166.3 C 207.2 166.2 204.3 166.4 204.5 166.4 C 208.8 166.1 215.0 165.6 218.3 165.3 C 214.5 165.5 207.3 166.1 205.1 166.2 C 206.5 166.1 208.0 165.9 209.5 165.8 C 212.5 165.6 213.9 165.4 210.5 165.6 C 208.7 165.7 208.8 165.7 209.2 165.7 C 211.3 165.5 218.5 164.9 218.3 164.8 C 216.4 165.0 209.2 165.5 207.4 165.5 C 208.8 165.3 212.4 165.1 212.8 165.0 C 204.8 165.6 205.2 165.5 203.3 165.7 C 204.1 165.7 206.3 165.5 206.3 165.6 C 201.4 165.9 196.7 166.1 191.9 166.3 C 191.9 166.3 191.9 166.3 191.9 166.3 C 191.9 166.3 191.9 166.3 191.9 166.3 C 191.9 166.3 191.9 166.3 191.9 166.3 C 192.3 166.2 192.1 166.1 191.7 166.1 C 193.8 166.0 195.9 165.9 199.7 165.7 C 198.7 165.6 195.2 165.8 191.9 166.0 C 192.0 165.9 192.0 165.9 192.0 165.9 C 197.2 165.7 205.4 165.2 211.0 164.7 C 208.4 164.9 199.1 165.5 193.0 165.7 C 193.2 165.7 193.4 165.7 193.6 165.6 C 185.9 166.0 177.1 166.0 169.1 165.9 C 172.9 165.8 177.5 165.9 182.8 165.8 C 185.2 165.8 187.4 165.6 189.8 165.5 C 196.6 165.3 217.7 163.9 220.1 163.7 C 222.8 163.4 201.3 164.9 201.1 164.9 C 201.0 164.9 210.9 164.2 206.2 164.5 C 203.8 164.7 198.5 165.0 194.8 165.2 C 194.7 165.1 194.5 165.0 194.4 164.9 C 197.6 164.8 201.6 164.5 201.7 164.7 C 203.4 164.6 206.9 164.4 207.4 164.3 C 206.8 164.3 206.0 164.4 206.0 164.4 C 206.8 164.3 208.0 164.2 208.1 164.2 C 204.0 164.4 198.5 164.7 194.2 164.9 C 193.8 164.9 193.5 164.8 193.1 164.8 C 193.2 164.8 196.5 164.6 199.4 164.4 C 202.5 164.3 196.1 164.6 191.1 164.7 C 190.3 164.7 189.6 164.7 188.7 164.7 C 190.5 164.6 192.4 164.6 194.8 164.5 C 197.6 164.3 197.5 164.2 200.3 164.0 C 195.1 164.3 189.0 164.5 184.2 164.6 C 182.5 164.6 180.8 164.5 179.0 164.4 C 182.9 164.4 186.6 164.2 188.8 164.1 C 190.6 164.0 192.5 164.0 193.1 163.9 C 191.4 163.9 195.8 163.7 195.2 163.7 C 192.8 163.9 188.0 164.0 186.3 164.2 C 182.7 164.2 178.7 164.3 175.2 164.3 C 174.8 164.3 174.3 164.3 173.9 164.2 C 176.8 164.2 179.6 164.2 182.8 164.1 C 181.4 164.0 172.7 164.1 166.6 164.0 C 154.2 163.7 142.4 163.3 131.5 162.0 C 131.0 162.0 130.4 161.9 129.7 161.8 C 128.9 161.6 128.1 161.5 127.3 161.3 C 129.9 161.7 132.2 162.0 134.2 162.2 C 126.4 161.1 145.6 163.2 146.9 163.2 C 140.3 162.6 131.0 161.6 122.2 160.2 C 113.3 158.7 104.9 156.8 98.7 155.0 C 101.7 155.8 102.7 156.1 99.5 155.2 C 98.6 154.9 97.7 154.7 96.9 154.4 C 109.3 157.9 123.7 160.7 135.6 161.8 C 128.6 161.0 118.5 159.4 115.8 158.7 C 117.7 159.1 120.5 159.6 120.9 159.6 C 117.5 158.9 106.6 156.8 103.5 155.9 C 118.5 159.6 141.9 162.5 155.7 163.0 C 145.3 162.5 133.7 161.4 123.2 159.7 C 112.8 158.1 103.4 155.9 96.5 153.9 C 98.9 154.6 98.9 154.7 97.7 154.4 C 93.4 153.2 89.2 151.9 85.1 150.4 C 84.3 150.0 84.6 150.1 86.6 150.8 C 88.2 151.4 89.2 151.7 89.8 151.8 C 88.6 151.4 75.9 146.9 86.0 150.5 C 96.1 154.1 115.8 158.7 104.4 155.9 C 93.0 153.0 89.1 151.4 95.0 153.2 C 100.9 154.9 121.3 159.1 114.3 157.7 C 107.4 156.4 93.9 152.7 86.8 150.2 C 79.8 147.7 91.2 152.4 81.2 148.5 C 71.2 144.5 79.6 147.7 77.7 146.9 C 74.8 145.6 69.5 143.2 64.9 140.6 C 61.6 138.7 57.7 136.2 55.8 134.8 C 56.0 134.9 65.4 140.8 61.6 138.5 C 52.3 132.9 43.8 125.3 47.3 128.4 C 42.4 124.3 39.3 121.0 36.7 118.1 C 32.7 113.4 28.8 107.6 28.4 107.0 C 28.1 106.6 25.7 102.9 23.3 98.4 C 20.9 93.9 18.6 88.4 17.7 85.3 C 17.5 84.8 13.9 73.4 13.5 72.4 C 12.2 66.7 11.9 64.1 11.5 61.5 C 11.1 58.9 10.7 56.4 10.1 50.1 C 9.2 39.6 9.3 35.9 9.3 34.0 C 9.3 22.2 9.7 22.1 9.6 15.8 C 9.6 13.9 9.9 10.9 9.7 9.9 C 9.4 7.8 8.8 6.8 7.8 7.3 C 7.8 7.3 7.8 7.3 7.8 7.3 Z M 189.8 166.5 C 192.6 166.5 197.8 166.2 200.9 166.1 C 197.4 166.4 193.1 166.6 188.8 166.7 C 189.1 166.6 189.4 166.6 189.8 166.5 C 189.8 166.5 189.8 166.5 189.8 166.5 Z M 168.5 165.0 C 170.3 165.1 172.4 165.2 174.5 165.1 C 176.4 165.1 178.4 165.2 181.4 165.1 C 181.2 165.0 176.3 165.0 172.5 165.0 C 172.5 165.0 172.5 164.9 172.5 164.9 C 174.3 164.9 176.5 164.8 179.1 164.8 C 180.0 164.8 180.9 164.8 181.8 164.8 C 181.8 164.9 180.4 164.9 179.9 164.9 C 180.6 165.0 182.9 165.0 185.9 165.0 C 186.3 165.0 186.7 165.0 187.1 165.0 C 187.5 165.1 185.2 165.2 187.8 165.1 C 185.9 165.2 181.3 165.2 178.4 165.3 C 181.6 165.1 169.6 165.2 166.8 165.1 C 167.3 165.1 167.9 165.0 168.5 165.0 Z M 146.6 167.9 C 145.1 167.8 143.6 167.7 142.1 167.5 C 144.3 167.7 145.9 167.8 147.5 167.9 C 147.2 167.9 146.9 167.9 146.6 167.9 Z M 48.9 138.0 C 54.2 141.6 66.3 148.7 67.2 149.0 C 68.5 149.7 69.8 150.4 71.2 151.0 C 62.5 147.0 54.1 141.8 48.9 138.0 C 48.9 138.0 48.9 138.0 48.9 138.0 Z M 71.6 144.6 C 72.1 144.8 71.9 144.7 70.7 144.2 C 64.4 141.1 60.9 139.0 64.7 141.2 C 67.9 143.0 75.5 146.6 73.2 145.6 C 70.3 144.2 67.4 142.8 64.5 141.2 C 62.4 140.0 60.4 138.6 58.4 137.2 C 62.8 140.0 67.3 142.5 71.6 144.6 C 71.6 144.6 71.6 144.6 71.6 144.6 Z M 56.1 135.5 C 57.6 136.5 59.5 137.8 61.4 138.9 C 59.7 137.9 58.1 136.9 56.4 135.8 C 56.3 135.7 56.2 135.6 56.1 135.5 Z M 54.3 134.1 C 57.3 136.2 60.5 138.3 57.3 136.2 C 56.6 135.7 55.9 135.3 55.2 134.8 C 54.9 134.5 54.6 134.3 54.3 134.1 Z M 52.4 132.7 C 52.5 132.7 52.9 133.1 53.9 133.9 C 51.9 132.4 48.0 129.3 48.2 129.4 C 49.5 130.4 50.9 131.6 52.4 132.7 C 52.4 132.7 52.4 132.7 52.4 132.7 Z M 45.4 135.6 C 46.7 136.6 47.9 137.6 45.7 135.9 C 44.9 135.3 44.1 134.6 43.3 134.0 C 44.0 134.5 44.7 135.0 45.4 135.6 Z M 143.4 162.4 C 142.4 162.4 138.7 162.0 136.5 161.8 C 136.3 162.0 144.8 162.7 143.4 162.4 C 143.4 162.4 143.4 162.4 143.4 162.4 Z M 158.1 163.2 C 157.0 163.2 153.1 163.0 150.8 162.9 C 150.5 163.2 159.5 163.4 158.1 163.2 C 158.1 163.2 158.1 163.2 158.1 163.2 Z M 17.7 85.3 C 17.7 85.3 17.7 85.3 17.7 85.3 C 17.7 85.3 17.7 85.3 17.7 85.3 C 17.7 85.3 17.7 85.3 17.7 85.3 Z M 17.7 85.3 " fill="#28C439"></path><path d="M 220.9 180.2 C 221.5 180.5 222.0 180.2 222.1 180.1 C 222.2 180.1 222.2 180.1 222.2 180.1 L 222.2 180.1 L 222.2 180.1 L 222.2 180.1 L 222.3 180.0 L 222.5 179.9 L 222.8 179.7 C 223.0 179.6 223.1 179.6 223.3 179.6 C 223.5 179.7 222.4 180.4 222.7 180.5 C 222.9 180.6 226.7 178.1 226.8 178.0 C 227.0 177.7 227.9 177.0 228.2 176.8 C 227.6 177.2 227.2 177.7 227.0 177.9 C 227.0 177.9 226.2 178.7 227.3 178.3 C 227.2 178.4 227.2 178.5 227.2 178.5 L 227.3 178.5 C 227.3 178.5 226.2 179.0 226.3 179.3 C 226.5 179.7 229.3 177.0 229.8 177.1 C 229.3 177.3 229.1 177.6 229.0 177.8 C 229.7 177.1 233.3 174.8 234.0 174.3 C 236.5 172.5 239.0 170.3 241.4 168.4 C 242.5 167.5 243.8 166.5 245.1 165.5 L 247.2 163.9 L 247.3 163.8 L 247.4 163.8 L 247.4 163.7 C 247.6 163.6 247.0 164.1 247.8 163.4 C 248.8 163.1 248.2 159.9 247.3 160.0 C 246.6 159.6 247.1 159.8 247.0 159.8 L 246.9 159.8 L 246.6 159.6 L 246.0 159.4 L 244.7 158.9 C 241.4 157.7 238.0 156.4 235.4 155.2 C 233.6 154.4 226.3 151.9 226.0 151.6 C 225.8 151.5 223.6 150.7 221.5 149.9 L 219.9 149.4 L 219.2 149.1 L 219.0 149.0 L 218.9 149.0 L 218.9 149.0 L 218.9 149.0 L 218.9 149.0 C 219.1 149.2 218.6 148.4 217.2 149.2 C 216.0 151.6 216.9 150.3 216.6 150.7 L 216.6 150.7 L 216.7 151.0 C 216.8 151.9 216.9 152.5 216.9 152.6 C 216.9 152.8 216.5 152.3 216.4 152.3 L 216.5 153.5 C 216.4 153.4 216.3 153.2 216.3 152.9 C 216.3 155.0 217.5 159.5 217.6 161.0 C 217.7 160.8 217.9 161.2 217.9 161.2 C 217.8 161.2 219.0 173.5 219.2 174.9 C 219.3 176.1 220.4 178.9 220.6 177.6 C 220.6 176.7 220.8 177.4 221.0 178.0 C 221.9 176.3 220.9 181.3 222.0 177.4 C 222.0 177.3 222.6 178.5 222.5 179.0 C 222.0 177.3 222.6 178.5 222.5 179.0 C 222.0 177.3 222.6 178.5 222.5 179.0 " fill="#28C439"></path></g></svg>