<?xml version="1.0" encoding="UTF-8" standalone="no"?><svg xmlns="http://www.w3.org/2000/svg" xmlns:xlink="http://www.w3.org/1999/xlink" clip-rule="evenodd" stroke-miterlimit="10" viewBox="0 0 469 33"><desc>SVG generated by Keynote</desc><defs></defs><g transform="matrix(1.00, 0.00, -0.00, -1.00, 0.0, 33.0)"><image xlink:href="99830E0427596579EE5A741A97F2445D.png" width="467.00" height="31.00" transform="matrix(1.00, 0.00, -0.00, -1.00, 1.0, 32.0)"></image><text xml:space="preserve" font-family="HelveticaNeue-BoldItalic,Helvetica Neue" font-style="italic" font-weight="bold" font-size="24.0" fill="#FEFFFE" transform="matrix(1.00, 0.00, -0.00, -1.00, 4.5, 11.9)">-</text><text xml:space="preserve" font-family="HelveticaNeue-BoldItalic,Helvetica Neue" font-style="italic" font-weight="bold" font-size="24.0" fill="#FEFFFE" transform="matrix(1.00, 0.00, -0.00, -1.00, 14.3, 11.9)"> </text><text xml:space="preserve" font-family="HelveticaNeue-BoldItalic,Helvetica Neue" font-style="italic" font-weight="bold" font-size="24.0" fill="#FEFFFE" transform="matrix(1.00, 0.00, -0.00, -1.00, 21.0, 11.9)">J</text><text xml:space="preserve" font-family="HelveticaNeue-BoldItalic,Helvetica Neue" font-style="italic" font-weight="bold" font-size="24.0" fill="#FEFFFE" transform="matrix(1.00, 0.00, -0.00, -1.00, 34.3, 11.9)">o</text><text xml:space="preserve" font-family="HelveticaNeue-BoldItalic,Helvetica Neue" font-style="italic" font-weight="bold" font-size="24.0" fill="#FEFFFE" transform="matrix(1.00, 0.00, -0.00, -1.00, 48.5, 11.9)">n</text><text xml:space="preserve" font-family="HelveticaNeue-BoldItalic,Helvetica Neue" font-style="italic" font-weight="bold" font-size="24.0" fill="#FEFFFE" transform="matrix(1.00, 0.00, -0.00, -1.00, 63.2, 11.9)">a</text><text xml:space="preserve" font-family="HelveticaNeue-BoldItalic,Helvetica Neue" font-style="italic" font-weight="bold" font-size="24.0" fill="#FEFFFE" transform="matrix(1.00, 0.00, -0.00, -1.00, 77.0, 11.9)">t</text><text xml:space="preserve" font-family="HelveticaNeue-BoldItalic,Helvetica Neue" font-style="italic" font-weight="bold" font-size="24.0" fill="#FEFFFE" transform="matrix(1.00, 0.00, -0.00, -1.00, 85.9, 11.9)">h</text><text xml:space="preserve" font-family="HelveticaNeue-BoldItalic,Helvetica Neue" font-style="italic" font-weight="bold" font-size="24.0" fill="#FEFFFE" transform="matrix(1.00, 0.00, -0.00, -1.00, 100.5, 11.9)">a</text><text xml:space="preserve" font-family="HelveticaNeue-BoldItalic,Helvetica Neue" font-style="italic" font-weight="bold" font-size="24.0" fill="#FEFFFE" transform="matrix(1.00, 0.00, -0.00, -1.00, 114.3, 11.9)">n</text><text xml:space="preserve" font-family="HelveticaNeue-BoldItalic,Helvetica Neue" font-style="italic" font-weight="bold" font-size="24.0" fill="#FEFFFE" transform="matrix(1.00, 0.00, -0.00, -1.00, 129.0, 11.9)"> </text><text xml:space="preserve" font-family="HelveticaNeue-BoldItalic,Helvetica Neue" font-style="italic" font-weight="bold" font-size="24.0" fill="#FEFFFE" transform="matrix(1.00, 0.00, -0.00, -1.00, 135.6, 11.9)">I</text><text xml:space="preserve" font-family="HelveticaNeue-BoldItalic,Helvetica Neue" font-style="italic" font-weight="bold" font-size="24.0" fill="#FEFFFE" transform="matrix(1.00, 0.00, -0.00, -1.00, 142.7, 11.9)">v</text><text xml:space="preserve" font-family="HelveticaNeue-BoldItalic,Helvetica Neue" font-style="italic" font-weight="bold" font-size="24.0" fill="#FEFFFE" transform="matrix(1.00, 0.00, -0.00, -1.00, 155.2, 11.9)">e</text><text xml:space="preserve" font-family="HelveticaNeue-BoldItalic,Helvetica Neue" font-style="italic" font-weight="bold" font-size="24.0" fill="#FEFFFE" transform="matrix(1.00, 0.00, -0.00, -1.00, 169.0, 11.9)">.</text><text xml:space="preserve" font-family="HelveticaNeue-BoldItalic,Helvetica Neue" font-style="italic" font-weight="bold" font-size="24.0" fill="#FEFFFE" transform="matrix(1.00, 0.00, -0.00, -1.00, 175.6, 11.9)"> </text><text xml:space="preserve" font-family="HelveticaNeue-BoldItalic,Helvetica Neue" font-style="italic" font-weight="bold" font-size="24.0" fill="#FEFFFE" transform="matrix(1.00, 0.00, -0.00, -1.00, 182.3, 11.9)">S</text><text xml:space="preserve" font-family="HelveticaNeue-BoldItalic,Helvetica Neue" font-style="italic" font-weight="bold" font-size="24.0" fill="#FEFFFE" transform="matrix(1.00, 0.00, -0.00, -1.00, 197.9, 11.9)">V</text><text xml:space="preserve" font-family="HelveticaNeue-BoldItalic,Helvetica Neue" font-style="italic" font-weight="bold" font-size="24.0" fill="#FEFFFE" transform="matrix(1.00, 0.00, -0.00, -1.00, 213.0, 11.9)">P</text><text xml:space="preserve" font-family="HelveticaNeue-BoldItalic,Helvetica Neue" font-style="italic" font-weight="bold" font-size="24.0" fill="#FEFFFE" transform="matrix(1.00, 0.00, -0.00, -1.00, 229.0, 11.9)"> </text><text xml:space="preserve" font-family="HelveticaNeue-BoldItalic,Helvetica Neue" font-style="italic" font-weight="bold" font-size="24.0" fill="#FEFFFE" transform="matrix(1.00, 0.00, -0.00, -1.00, 235.7, 11.9)">D</text><text xml:space="preserve" font-family="HelveticaNeue-BoldItalic,Helvetica Neue" font-style="italic" font-weight="bold" font-size="24.0" fill="#FEFFFE" transform="matrix(1.00, 0.00, -0.00, -1.00, 253.5, 11.9)">e</text><text xml:space="preserve" font-family="HelveticaNeue-BoldItalic,Helvetica Neue" font-style="italic" font-weight="bold" font-size="24.0" fill="#FEFFFE" transform="matrix(1.00, 0.00, -0.00, -1.00, 267.2, 11.9)">s</text><text xml:space="preserve" font-family="HelveticaNeue-BoldItalic,Helvetica Neue" font-style="italic" font-weight="bold" font-size="24.0" fill="#FEFFFE" transform="matrix(1.00, 0.00, -0.00, -1.00, 279.7, 11.9)">i</text><text xml:space="preserve" font-family="HelveticaNeue-BoldItalic,Helvetica Neue" font-style="italic" font-weight="bold" font-size="24.0" fill="#FEFFFE" transform="matrix(1.00, 0.00, -0.00, -1.00, 285.9, 11.9)">g</text><text xml:space="preserve" font-family="HelveticaNeue-BoldItalic,Helvetica Neue" font-style="italic" font-weight="bold" font-size="24.0" fill="#FEFFFE" transform="matrix(1.00, 0.00, -0.00, -1.00, 300.6, 11.9)">n</text><text xml:space="preserve" font-family="HelveticaNeue-BoldItalic,Helvetica Neue" font-style="italic" font-weight="bold" font-size="24.0" fill="#FEFFFE" transform="matrix(1.00, 0.00, -0.00, -1.00, 315.2, 11.9)"> </text><text xml:space="preserve" font-family="HelveticaNeue-BoldItalic,Helvetica Neue" font-style="italic" font-weight="bold" font-size="24.0" fill="#FEFFFE" transform="matrix(1.00, 0.00, -0.00, -1.00, 321.9, 11.9)">o</text><text xml:space="preserve" font-family="HelveticaNeue-BoldItalic,Helvetica Neue" font-style="italic" font-weight="bold" font-size="24.0" fill="#FEFFFE" transform="matrix(1.00, 0.00, -0.00, -1.00, 336.1, 11.9)">f</text><text xml:space="preserve" font-family="HelveticaNeue-BoldItalic,Helvetica Neue" font-style="italic" font-weight="bold" font-size="24.0" fill="#FEFFFE" transform="matrix(1.00, 0.00, -0.00, -1.00, 344.6, 11.9)"> </text><text xml:space="preserve" font-family="HelveticaNeue-BoldItalic,Helvetica Neue" font-style="italic" font-weight="bold" font-size="24.0" fill="#FEFFFE" transform="matrix(1.00, 0.00, -0.00, -1.00, 351.3, 11.9)">A</text><text xml:space="preserve" font-family="HelveticaNeue-BoldItalic,Helvetica Neue" font-style="italic" font-weight="bold" font-size="24.0" fill="#FEFFFE" transform="matrix(1.00, 0.00, -0.00, -1.00, 367.7, 11.9)">p</text><text xml:space="preserve" font-family="HelveticaNeue-BoldItalic,Helvetica Neue" font-style="italic" font-weight="bold" font-size="24.0" fill="#FEFFFE" transform="matrix(1.00, 0.00, -0.00, -1.00, 382.4, 11.9)">p</text><text xml:space="preserve" font-family="HelveticaNeue-BoldItalic,Helvetica Neue" font-style="italic" font-weight="bold" font-size="24.0" fill="#FEFFFE" transform="matrix(1.00, 0.00, -0.00, -1.00, 397.0, 11.9)">l</text><text xml:space="preserve" font-family="HelveticaNeue-BoldItalic,Helvetica Neue" font-style="italic" font-weight="bold" font-size="24.0" fill="#FEFFFE" transform="matrix(1.00, 0.00, -0.00, -1.00, 403.2, 11.9)">e</text><text xml:space="preserve" font-family="HelveticaNeue-BoldItalic,Helvetica Neue" font-style="italic" font-weight="bold" font-size="24.0" fill="#FEFFFE" transform="matrix(1.00, 0.00, -0.00, -1.00, 417.0, 11.9)"> </text><text xml:space="preserve" font-family="HelveticaNeue-BoldItalic,Helvetica Neue" font-style="italic" font-weight="bold" font-size="24.0" fill="#FEFFFE" transform="matrix(1.00, 0.00, -0.00, -1.00, 423.7, 11.9)">I</text><text xml:space="preserve" font-family="HelveticaNeue-BoldItalic,Helvetica Neue" font-style="italic" font-weight="bold" font-size="24.0" fill="#FEFFFE" transform="matrix(1.00, 0.00, -0.00, -1.00, 430.8, 11.9)">n</text><text xml:space="preserve" font-family="HelveticaNeue-BoldItalic,Helvetica Neue" font-style="italic" font-weight="bold" font-size="24.0" fill="#FEFFFE" transform="matrix(1.00, 0.00, -0.00, -1.00, 445.5, 11.9)">c</text><text xml:space="preserve" font-family="HelveticaNeue-BoldItalic,Helvetica Neue" font-style="italic" font-weight="bold" font-size="24.0" fill="#FEFFFE" transform="matrix(1.00, 0.00, -0.00, -1.00, 458.8, 11.9)">.</text></g></svg>