<?xml version="1.0" encoding="UTF-8" standalone="no"?><svg xmlns="http://www.w3.org/2000/svg" xmlns:xlink="http://www.w3.org/1999/xlink" clip-rule="evenodd" stroke-miterlimit="10" viewBox="0 0 168 32"><desc>SVG generated by Keynote</desc><defs></defs><g transform="matrix(1.00, 0.00, -0.00, -1.00, 0.0, 32.0)"><image xlink:href="../../9E4BFF9C-C842-43F4-AEAD-7E3B52798517/assets/934C56126C8DAE90061C8416718FF9B6.png" width="165.00" height="29.00" transform="matrix(1.00, 0.00, -0.00, -1.00, 1.0, 30.0)"></image><text xml:space="preserve" font-family="HelveticaNeue-Medium,Helvetica Neue" font-size="30.0" fill="#28C439" transform="matrix(1.00, 0.00, -0.00, -1.00, 2.2, 6.4)">U</text><text xml:space="preserve" font-family="HelveticaNeue-Medium,Helvetica Neue" font-size="30.0" fill="#28C439" transform="matrix(1.00, 0.00, -0.00, -1.00, 23.9, 6.4)">s</text><text xml:space="preserve" font-family="HelveticaNeue-Medium,Helvetica Neue" font-size="30.0" fill="#28C439" transform="matrix(1.00, 0.00, -0.00, -1.00, 39.5, 6.4)">e</text><text xml:space="preserve" font-family="HelveticaNeue-Medium,Helvetica Neue" font-size="30.0" fill="#28C439" transform="matrix(1.00, 0.00, -0.00, -1.00, 56.2, 6.4)">r</text><text xml:space="preserve" font-family="HelveticaNeue-Medium,Helvetica Neue" font-size="30.0" fill="#28C439" transform="matrix(1.00, 0.00, -0.00, -1.00, 66.7, 6.4)"> </text><text xml:space="preserve" font-family="HelveticaNeue-Medium,Helvetica Neue" font-size="30.0" fill="#28C439" transform="matrix(1.00, 0.00, -0.00, -1.00, 75.1, 6.4)">A</text><text xml:space="preserve" font-family="HelveticaNeue-Medium,Helvetica Neue" font-size="30.0" fill="#28C439" transform="matrix(1.00, 0.00, -0.00, -1.00, 95.1, 6.4)">c</text><text xml:space="preserve" font-family="HelveticaNeue-Medium,Helvetica Neue" font-size="30.0" fill="#28C439" transform="matrix(1.00, 0.00, -0.00, -1.00, 111.7, 6.4)">t</text><text xml:space="preserve" font-family="HelveticaNeue-Medium,Helvetica Neue" font-size="30.0" fill="#28C439" transform="matrix(1.00, 0.00, -0.00, -1.00, 121.7, 6.4)">i</text><text xml:space="preserve" font-family="HelveticaNeue-Medium,Helvetica Neue" font-size="30.0" fill="#28C439" transform="matrix(1.00, 0.00, -0.00, -1.00, 129.0, 6.4)">o</text><text xml:space="preserve" font-family="HelveticaNeue-Medium,Helvetica Neue" font-size="30.0" fill="#28C439" transform="matrix(1.00, 0.00, -0.00, -1.00, 146.8, 6.4)">n</text></g></svg>