<?xml version="1.0" encoding="UTF-8" standalone="no"?><svg xmlns="http://www.w3.org/2000/svg" xmlns:xlink="http://www.w3.org/1999/xlink" clip-rule="evenodd" stroke-miterlimit="10" viewBox="0 0 157 115"><desc>SVG generated by Keynote</desc><defs></defs><g transform="matrix(1.00, 0.00, -0.00, -1.00, 0.0, 115.0)"><image xlink:href="4FE652257847528431D1FC35A00517F1.png" width="154.00" height="108.00" transform="matrix(1.00, 0.00, -0.00, -1.00, 1.0, 109.1)" opacity="0.50"></image><g><clipPath id="clip0x7ff611ca88b0"><path d="M 5.0 22.1 L 5.0 92.1 C 5.0 100.4 11.7 107.0 20.0 107.0 L 136.3 107.0 C 144.6 107.0 151.0 100.4 151.0 92.1 L 151.0 22.1 C 151.0 13.9 144.6 7.0 136.3 7.0 L 20.0 7.0 C 11.7 7.0 5.0 13.9 5.0 22.1 Z M 5.0 22.1 "></path></clipPath><g clip-path="url(#clip0x7ff611ca88b0)"><image xlink:href="../../DE629342-4F0C-4417-94FF-D6D835F92EA0/assets/71D9304BD44382C20CC202032C6D6058.png" width="512.00" height="512.00" transform="matrix(0.50, 0.00, -0.00, -0.50, 5.0, 107.0)"></image></g></g><image xlink:href="91FD3889D62F329BF6B1CF5BDBC5FC98.png" width="72.00" height="29.00" transform="matrix(1.00, 0.00, -0.00, -1.00, 42.0, 70.0)"></image><g><clipPath id="clip0x7ff611ca8c40"><path d="M -2.9 7.1 L 159.3 7.1 L 159.3 107.1 L -2.9 107.1 Z M -2.9 7.1 "></path></clipPath><g clip-path="url(#clip0x7ff611ca8c40)"><text xml:space="preserve" font-family="HelveticaNeue-Medium,Helvetica Neue" font-size="30.0" fill="#FEFFFE" transform="matrix(1.00, 0.00, -0.00, -1.00, 45.2, 46.2)">V</text><text xml:space="preserve" font-family="HelveticaNeue-Medium,Helvetica Neue" font-size="30.0" fill="#FEFFFE" transform="matrix(1.00, 0.00, -0.00, -1.00, 63.9, 46.2)">i</text><text xml:space="preserve" font-family="HelveticaNeue-Medium,Helvetica Neue" font-size="30.0" fill="#FEFFFE" transform="matrix(1.00, 0.00, -0.00, -1.00, 71.1, 46.2)">e</text><text xml:space="preserve" font-family="HelveticaNeue-Medium,Helvetica Neue" font-size="30.0" fill="#FEFFFE" transform="matrix(1.00, 0.00, -0.00, -1.00, 87.8, 46.2)">w</text></g></g></g></svg>