<?xml version="1.0" encoding="UTF-8" standalone="no"?><svg xmlns="http://www.w3.org/2000/svg" xmlns:xlink="http://www.w3.org/1999/xlink" clip-rule="evenodd" stroke-miterlimit="10" viewBox="0 0 1024 768"><desc>SVG generated by Keynote</desc><defs></defs><g transform="matrix(1.00, 0.00, -0.00, -1.00, 0.0, 768.0)"><g><clipPath id="clip0x7ff62be397f0"><path d="M 0.0 768.0 L 1024.0 768.0 L 1024.0 0.0 L 0.0 0.0 Z M 0.0 768.0 "></path></clipPath><g clip-path="url(#clip0x7ff62be397f0)"><image xlink:href="../../BE4D2DDB-FBE4-467E-AE38-B34F9028D09E/assets/9397CAD6F20342ACC2646ABBCA758461.jpeg" width="2048.00" height="1536.00" transform="matrix(0.50, 0.00, -0.00, -0.50, 0.0, 768.0)"></image></g></g><image xlink:href="../../428A35AB-284F-4BA2-8797-0D69212E0ECD/assets/E9A070513B4E4D55444246F49FDAB649.png" width="465.00" height="274.00" transform="matrix(1.00, 0.00, -0.00, -1.00, -112.0, 603.6)" opacity="0.70"></image><g><clipPath id="clip0x7ff62be3c1d0"><path d="M -92.0 586.0 L 333.0 586.0 L 333.0 352.0 L -92.0 352.0 Z M -92.0 586.0 "></path></clipPath><g clip-path="url(#clip0x7ff62be3c1d0)"><image xlink:href="../../55E9911E-4F92-4749-8097-6C2207575093/assets/3AF7774E167AFBC08ED8682EF04584D6.png" width="828.00" height="1668.00" transform="matrix(0.14, 0.00, -0.00, -0.14, 62.4, 586.0)"></image></g></g><image xlink:href="../../EEFDA636-FF27-4CCE-A456-A99B2D1B74FC/assets/FBA601066232B1FB6BC1F81DBA28A6A4.png" width="190.00" height="177.00" transform="matrix(1.00, 0.00, -0.00, -1.00, 794.1, 715.1)" opacity="0.50"></image><g><clipPath id="clip0x7ff614c6b530"><path d="M 953.5 688.4 C 989.1 655.4 989.1 601.9 953.5 568.9 C 918.0 535.9 860.3 535.9 824.8 568.9 C 789.2 601.9 789.2 655.4 824.8 688.4 C 860.3 721.4 918.0 721.4 953.5 688.4 Z M 953.5 688.4 "></path></clipPath><g clip-path="url(#clip0x7ff614c6b530)"><image xlink:href="../../EEFDA636-FF27-4CCE-A456-A99B2D1B74FC/assets/14AA4F468E5EBA534246493D67C8DFF4.png" width="512.00" height="512.00" transform="matrix(0.50, 0.00, -0.00, -0.50, 798.1, 713.1)"></image></g></g><image xlink:href="../../B832E8DE-E617-4A22-90B8-9B61BEE7743C/assets/382A1EBED8FA8487D2743E4019F0EFB0.png" width="142.00" height="29.00" transform="matrix(1.00, 0.00, -0.00, -1.00, 819.0, 641.0)"></image><g><clipPath id="clip0x7ff614c5a360"><path d="M 792.6 544.1 L 985.7 544.1 L 985.7 713.1 L 792.6 713.1 Z M 792.6 544.1 "></path></clipPath><g clip-path="url(#clip0x7ff614c5a360)"><text xml:space="preserve" font-family="HelveticaNeue-Medium,Helvetica Neue" font-size="30.0" fill="#FEFFFE" transform="matrix(1.00, 0.00, -0.00, -1.00, 821.1, 617.0)">C</text><text xml:space="preserve" font-family="HelveticaNeue-Medium,Helvetica Neue" font-size="30.0" fill="#FEFFFE" transform="matrix(1.00, 0.00, -0.00, -1.00, 842.7, 617.0)">o</text><text xml:space="preserve" font-family="HelveticaNeue-Medium,Helvetica Neue" font-size="30.0" fill="#FEFFFE" transform="matrix(1.00, 0.00, -0.00, -1.00, 860.5, 617.0)">n</text><text xml:space="preserve" font-family="HelveticaNeue-Medium,Helvetica Neue" font-size="30.0" fill="#FEFFFE" transform="matrix(1.00, 0.00, -0.00, -1.00, 877.8, 617.0)">t</text><text xml:space="preserve" font-family="HelveticaNeue-Medium,Helvetica Neue" font-size="30.0" fill="#FEFFFE" transform="matrix(1.00, 0.00, -0.00, -1.00, 887.7, 617.0)">r</text><text xml:space="preserve" font-family="HelveticaNeue-Medium,Helvetica Neue" font-size="30.0" fill="#FEFFFE" transform="matrix(1.00, 0.00, -0.00, -1.00, 897.8, 617.0)">o</text><text xml:space="preserve" font-family="HelveticaNeue-Medium,Helvetica Neue" font-size="30.0" fill="#FEFFFE" transform="matrix(1.00, 0.00, -0.00, -1.00, 915.6, 617.0)">l</text><text xml:space="preserve" font-family="HelveticaNeue-Medium,Helvetica Neue" font-size="30.0" fill="#FEFFFE" transform="matrix(1.00, 0.00, -0.00, -1.00, 922.8, 617.0)">l</text><text xml:space="preserve" font-family="HelveticaNeue-Medium,Helvetica Neue" font-size="30.0" fill="#FEFFFE" transform="matrix(1.00, 0.00, -0.00, -1.00, 930.0, 617.0)">e</text><text xml:space="preserve" font-family="HelveticaNeue-Medium,Helvetica Neue" font-size="30.0" fill="#FEFFFE" transform="matrix(1.00, 0.00, -0.00, -1.00, 946.7, 617.0)">r</text></g></g><image xlink:href="../../B832E8DE-E617-4A22-90B8-9B61BEE7743C/assets/0CEE7D6EDF4497DD8D9F10B422C183EF.png" width="154.00" height="108.00" transform="matrix(1.00, 0.00, -0.00, -1.00, 812.0, 336.9)" opacity="0.50"></image><g><clipPath id="clip0x7ff614c65380"><path d="M 816.0 249.9 L 816.0 319.9 C 816.0 328.1 822.7 335.0 831.0 335.0 L 947.3 335.0 C 955.6 335.0 962.0 328.1 962.0 319.9 L 962.0 249.9 C 962.0 241.6 955.6 235.0 947.3 235.0 L 831.0 235.0 C 822.7 235.0 816.0 241.6 816.0 249.9 Z M 816.0 249.9 "></path></clipPath><g clip-path="url(#clip0x7ff614c65380)"><image xlink:href="../../EEFDA636-FF27-4CCE-A456-A99B2D1B74FC/assets/BF7F347A5AA08698479112B0B19D9FB4.png" width="512.00" height="512.00" transform="matrix(0.50, 0.00, -0.00, -0.50, 816.0, 335.0)"></image></g></g><image xlink:href="../../B832E8DE-E617-4A22-90B8-9B61BEE7743C/assets/7ECD22BA78A9871DF4957D475238A2B3.png" width="89.00" height="29.00" transform="matrix(1.00, 0.00, -0.00, -1.00, 845.0, 298.0)"></image><g><clipPath id="clip0x7ff614c64a00"><path d="M 808.1 234.9 L 970.3 234.9 L 970.3 334.9 L 808.1 334.9 Z M 808.1 234.9 "></path></clipPath><g clip-path="url(#clip0x7ff614c64a00)"><text xml:space="preserve" font-family="HelveticaNeue-Medium,Helvetica Neue" font-size="30.0" fill="#FEFFFE" transform="matrix(1.00, 0.00, -0.00, -1.00, 845.8, 273.9)">M</text><text xml:space="preserve" font-family="HelveticaNeue-Medium,Helvetica Neue" font-size="30.0" fill="#FEFFFE" transform="matrix(1.00, 0.00, -0.00, -1.00, 872.5, 273.9)">o</text><text xml:space="preserve" font-family="HelveticaNeue-Medium,Helvetica Neue" font-size="30.0" fill="#FEFFFE" transform="matrix(1.00, 0.00, -0.00, -1.00, 890.3, 273.9)">d</text><text xml:space="preserve" font-family="HelveticaNeue-Medium,Helvetica Neue" font-size="30.0" fill="#FEFFFE" transform="matrix(1.00, 0.00, -0.00, -1.00, 908.6, 273.9)">e</text><text xml:space="preserve" font-family="HelveticaNeue-Medium,Helvetica Neue" font-size="30.0" fill="#FEFFFE" transform="matrix(1.00, 0.00, -0.00, -1.00, 925.3, 273.9)">l</text></g></g><image xlink:href="../../B832E8DE-E617-4A22-90B8-9B61BEE7743C/assets/4FE652257847528431D1FC35A00517F1.png" width="154.00" height="108.00" transform="matrix(1.00, 0.00, -0.00, -1.00, 812.0, 491.1)" opacity="0.50"></image><g><clipPath id="clip0x7ff614c6ec00"><path d="M 816.0 404.1 L 816.0 474.1 C 816.0 482.4 822.7 489.0 831.0 489.0 L 947.3 489.0 C 955.6 489.0 962.0 482.4 962.0 474.1 L 962.0 404.1 C 962.0 395.9 955.6 389.0 947.3 389.0 L 831.0 389.0 C 822.7 389.0 816.0 395.9 816.0 404.1 Z M 816.0 404.1 "></path></clipPath><g clip-path="url(#clip0x7ff614c6ec00)"><image xlink:href="../../DE629342-4F0C-4417-94FF-D6D835F92EA0/assets/71D9304BD44382C20CC202032C6D6058.png" width="512.00" height="512.00" transform="matrix(0.50, 0.00, -0.00, -0.50, 816.0, 489.0)"></image></g></g><image xlink:href="../../B832E8DE-E617-4A22-90B8-9B61BEE7743C/assets/91FD3889D62F329BF6B1CF5BDBC5FC98.png" width="72.00" height="29.00" transform="matrix(1.00, 0.00, -0.00, -1.00, 853.0, 452.0)"></image><g><clipPath id="clip0x7ff614c71fd0"><path d="M 808.1 389.1 L 970.3 389.1 L 970.3 489.1 L 808.1 489.1 Z M 808.1 389.1 "></path></clipPath><g clip-path="url(#clip0x7ff614c71fd0)"><text xml:space="preserve" font-family="HelveticaNeue-Medium,Helvetica Neue" font-size="30.0" fill="#FEFFFE" transform="matrix(1.00, 0.00, -0.00, -1.00, 856.2, 428.2)">V</text><text xml:space="preserve" font-family="HelveticaNeue-Medium,Helvetica Neue" font-size="30.0" fill="#FEFFFE" transform="matrix(1.00, 0.00, -0.00, -1.00, 874.9, 428.2)">i</text><text xml:space="preserve" font-family="HelveticaNeue-Medium,Helvetica Neue" font-size="30.0" fill="#FEFFFE" transform="matrix(1.00, 0.00, -0.00, -1.00, 882.1, 428.2)">e</text><text xml:space="preserve" font-family="HelveticaNeue-Medium,Helvetica Neue" font-size="30.0" fill="#FEFFFE" transform="matrix(1.00, 0.00, -0.00, -1.00, 898.8, 428.2)">w</text></g></g><path d="M 5.0 0.1 C 2.2 0.0 -0.5 2.2 -0.5 5.0 L -0.5 95.0 C -0.5 97.8 2.2 100.1 5.0 100.1 L 380.3 100.1 C 383.1 100.1 385.5 97.8 385.5 95.0 L 385.5 62.2 L 418.3 52.2 L 385.5 42.2 L 385.5 5.0 C 385.5 2.2 383.1 0.1 380.3 0.1 L 5.0 0.1 Z M 5.0 0.0 " fill="none" stroke="#EEEEEE" stroke-width="1.00" transform="matrix(1.00, 0.00, 0.00, -1.00, 337.0, 678.6)"></path><path d="M 5.0 0.4 C 2.2 0.0 -0.5 2.2 -0.5 5.0 L -0.5 95.0 C -0.5 97.8 2.2 100.4 5.0 100.4 L 380.3 100.4 C 383.1 100.4 385.5 97.8 385.5 95.0 L 385.5 62.2 L 418.3 52.2 L 385.5 42.2 L 385.5 5.0 C 385.5 2.2 383.1 0.4 380.3 0.4 L 5.0 0.4 Z M 5.0 0.0 " fill="none" stroke="#EEEEEE" stroke-width="1.00" transform="matrix(1.00, 0.00, 0.00, -1.00, 337.0, 334.9)"></path><path d="M 5.0 0.0 C 2.2 0.0 -0.5 2.2 -0.5 5.0 L -0.5 95.0 C -0.5 97.8 2.2 100.0 5.0 100.0 L 380.4 100.0 C 383.1 100.0 385.5 97.8 385.5 95.0 L 385.5 62.2 L 418.3 52.2 L 385.5 42.2 L 385.5 5.0 C 385.5 2.2 383.1 0.0 380.4 0.0 L 5.0 0.0 Z M 5.0 0.0 " fill="none" stroke="#EEEEEE" stroke-width="1.00" transform="matrix(1.00, 0.00, 0.00, -1.00, 337.0, 489.5)"></path><image xlink:href="../../B832E8DE-E617-4A22-90B8-9B61BEE7743C/assets/CB8EE6FDA6F14CBEF437F2D85A2595FC.png" width="15.00" height="15.00" transform="matrix(1.00, 0.00, -0.00, -1.00, 356.0, 309.0)"></image><text xml:space="preserve" font-family="HelveticaNeue-Medium,Helvetica Neue" font-size="22.5" fill="#FEFFFE" transform="matrix(1.00, 0.00, -0.00, -1.00, 357.4, 294.6)">•</text><image xlink:href="../../B832E8DE-E617-4A22-90B8-9B61BEE7743C/assets/D5D66FD01D2C6AD3D719AC8CE377B5D2.png" width="234.00" height="34.00" transform="matrix(1.00, 0.00, -0.00, -1.00, 384.0, 316.0)"></image><text xml:space="preserve" font-family="HelveticaNeue-Medium,Helvetica Neue" font-size="30.0" fill="#FEFFFE" transform="matrix(1.00, 0.00, -0.00, -1.00, 385.7, 291.8)">L</text><text xml:space="preserve" font-family="HelveticaNeue-Medium,Helvetica Neue" font-size="30.0" fill="#FEFFFE" transform="matrix(1.00, 0.00, -0.00, -1.00, 402.9, 291.8)">i</text><text xml:space="preserve" font-family="HelveticaNeue-Medium,Helvetica Neue" font-size="30.0" fill="#FEFFFE" transform="matrix(1.00, 0.00, -0.00, -1.00, 410.1, 291.8)">s</text><text xml:space="preserve" font-family="HelveticaNeue-Medium,Helvetica Neue" font-size="30.0" fill="#FEFFFE" transform="matrix(1.00, 0.00, -0.00, -1.00, 425.7, 291.8)">t</text><text xml:space="preserve" font-family="HelveticaNeue-Medium,Helvetica Neue" font-size="30.0" fill="#FEFFFE" transform="matrix(1.00, 0.00, -0.00, -1.00, 435.7, 291.8)"> </text><text xml:space="preserve" font-family="HelveticaNeue-Medium,Helvetica Neue" font-size="30.0" fill="#FEFFFE" transform="matrix(1.00, 0.00, -0.00, -1.00, 444.0, 291.8)">o</text><text xml:space="preserve" font-family="HelveticaNeue-Medium,Helvetica Neue" font-size="30.0" fill="#FEFFFE" transform="matrix(1.00, 0.00, -0.00, -1.00, 461.8, 291.8)">f</text><text xml:space="preserve" font-family="HelveticaNeue-Medium,Helvetica Neue" font-size="30.0" fill="#FEFFFE" transform="matrix(1.00, 0.00, -0.00, -1.00, 471.3, 291.8)"> </text><text xml:space="preserve" font-family="HelveticaNeue-Medium,Helvetica Neue" font-size="30.0" fill="#FEFFFE" transform="matrix(1.00, 0.00, -0.00, -1.00, 479.6, 291.8)">q</text><text xml:space="preserve" font-family="HelveticaNeue-Medium,Helvetica Neue" font-size="30.0" fill="#FEFFFE" transform="matrix(1.00, 0.00, -0.00, -1.00, 497.9, 291.8)">u</text><text xml:space="preserve" font-family="HelveticaNeue-Medium,Helvetica Neue" font-size="30.0" fill="#FEFFFE" transform="matrix(1.00, 0.00, -0.00, -1.00, 515.2, 291.8)">e</text><text xml:space="preserve" font-family="HelveticaNeue-Medium,Helvetica Neue" font-size="30.0" fill="#FEFFFE" transform="matrix(1.00, 0.00, -0.00, -1.00, 531.8, 291.8)">s</text><text xml:space="preserve" font-family="HelveticaNeue-Medium,Helvetica Neue" font-size="30.0" fill="#FEFFFE" transform="matrix(1.00, 0.00, -0.00, -1.00, 547.4, 291.8)">t</text><text xml:space="preserve" font-family="HelveticaNeue-Medium,Helvetica Neue" font-size="30.0" fill="#FEFFFE" transform="matrix(1.00, 0.00, -0.00, -1.00, 557.4, 291.8)">i</text><text xml:space="preserve" font-family="HelveticaNeue-Medium,Helvetica Neue" font-size="30.0" fill="#FEFFFE" transform="matrix(1.00, 0.00, -0.00, -1.00, 564.6, 291.8)">o</text><text xml:space="preserve" font-family="HelveticaNeue-Medium,Helvetica Neue" font-size="30.0" fill="#FEFFFE" transform="matrix(1.00, 0.00, -0.00, -1.00, 582.4, 291.8)">n</text><text xml:space="preserve" font-family="HelveticaNeue-Medium,Helvetica Neue" font-size="30.0" fill="#FEFFFE" transform="matrix(1.00, 0.00, -0.00, -1.00, 599.6, 291.8)">s</text><text xml:space="preserve" font-family="HelveticaNeue-Medium,Helvetica Neue" font-size="30.0" fill="#FEFFFE" transform="matrix(1.00, 0.00, -0.00, -1.00, 615.2, 291.8)"> </text><image xlink:href="../../B832E8DE-E617-4A22-90B8-9B61BEE7743C/assets/CB8EE6FDA6F14CBEF437F2D85A2595FC.png" width="15.00" height="15.00" transform="matrix(1.00, 0.00, -0.00, -1.00, 356.0, 272.0)"></image><text xml:space="preserve" font-family="HelveticaNeue-Medium,Helvetica Neue" font-size="22.5" fill="#FEFFFE" transform="matrix(1.00, 0.00, -0.00, -1.00, 357.4, 257.6)">•</text><image xlink:href="../../B832E8DE-E617-4A22-90B8-9B61BEE7743C/assets/7286EA143CCE7E4A5147EF3C77373A76.png" width="214.00" height="29.00" transform="matrix(1.00, 0.00, -0.00, -1.00, 384.0, 279.0)"></image><text xml:space="preserve" font-family="HelveticaNeue-Medium,Helvetica Neue" font-size="30.0" fill="#FEFFFE" transform="matrix(1.00, 0.00, -0.00, -1.00, 385.7, 254.8)">L</text><text xml:space="preserve" font-family="HelveticaNeue-Medium,Helvetica Neue" font-size="30.0" fill="#FEFFFE" transform="matrix(1.00, 0.00, -0.00, -1.00, 402.9, 254.8)">i</text><text xml:space="preserve" font-family="HelveticaNeue-Medium,Helvetica Neue" font-size="30.0" fill="#FEFFFE" transform="matrix(1.00, 0.00, -0.00, -1.00, 410.1, 254.8)">s</text><text xml:space="preserve" font-family="HelveticaNeue-Medium,Helvetica Neue" font-size="30.0" fill="#FEFFFE" transform="matrix(1.00, 0.00, -0.00, -1.00, 425.7, 254.8)">t</text><text xml:space="preserve" font-family="HelveticaNeue-Medium,Helvetica Neue" font-size="30.0" fill="#FEFFFE" transform="matrix(1.00, 0.00, -0.00, -1.00, 435.7, 254.8)"> </text><text xml:space="preserve" font-family="HelveticaNeue-Medium,Helvetica Neue" font-size="30.0" fill="#FEFFFE" transform="matrix(1.00, 0.00, -0.00, -1.00, 444.0, 254.8)">o</text><text xml:space="preserve" font-family="HelveticaNeue-Medium,Helvetica Neue" font-size="30.0" fill="#FEFFFE" transform="matrix(1.00, 0.00, -0.00, -1.00, 461.8, 254.8)">f</text><text xml:space="preserve" font-family="HelveticaNeue-Medium,Helvetica Neue" font-size="30.0" fill="#FEFFFE" transform="matrix(1.00, 0.00, -0.00, -1.00, 471.3, 254.8)"> </text><text xml:space="preserve" font-family="HelveticaNeue-Medium,Helvetica Neue" font-size="30.0" fill="#FEFFFE" transform="matrix(1.00, 0.00, -0.00, -1.00, 479.6, 254.8)">a</text><text xml:space="preserve" font-family="HelveticaNeue-Medium,Helvetica Neue" font-size="30.0" fill="#FEFFFE" transform="matrix(1.00, 0.00, -0.00, -1.00, 496.3, 254.8)">n</text><text xml:space="preserve" font-family="HelveticaNeue-Medium,Helvetica Neue" font-size="30.0" fill="#FEFFFE" transform="matrix(1.00, 0.00, -0.00, -1.00, 513.5, 254.8)">s</text><text xml:space="preserve" font-family="HelveticaNeue-Medium,Helvetica Neue" font-size="30.0" fill="#FEFFFE" transform="matrix(1.00, 0.00, -0.00, -1.00, 529.1, 254.8)">w</text><text xml:space="preserve" font-family="HelveticaNeue-Medium,Helvetica Neue" font-size="30.0" fill="#FEFFFE" transform="matrix(1.00, 0.00, -0.00, -1.00, 552.4, 254.8)">e</text><text xml:space="preserve" font-family="HelveticaNeue-Medium,Helvetica Neue" font-size="30.0" fill="#FEFFFE" transform="matrix(1.00, 0.00, -0.00, -1.00, 569.1, 254.8)">r</text><text xml:space="preserve" font-family="HelveticaNeue-Medium,Helvetica Neue" font-size="30.0" fill="#FEFFFE" transform="matrix(1.00, 0.00, -0.00, -1.00, 579.7, 254.8)">s</text><image xlink:href="../../B832E8DE-E617-4A22-90B8-9B61BEE7743C/assets/43C350A8905464A8E407C2731D075164.png" width="218.00" height="30.00" transform="matrix(1.00, 0.00, -0.00, -1.00, 424.0, 642.0)"></image><text xml:space="preserve" font-family="HelveticaNeue-Medium,Helvetica Neue" font-size="30.0" fill="#FEFFFE" transform="matrix(1.00, 0.00, -0.00, -1.00, 427.8, 617.1)">V</text><text xml:space="preserve" font-family="HelveticaNeue-Medium,Helvetica Neue" font-size="30.0" fill="#FEFFFE" transform="matrix(1.00, 0.00, -0.00, -1.00, 446.4, 617.1)">i</text><text xml:space="preserve" font-family="HelveticaNeue-Medium,Helvetica Neue" font-size="30.0" fill="#FEFFFE" transform="matrix(1.00, 0.00, -0.00, -1.00, 453.7, 617.1)">e</text><text xml:space="preserve" font-family="HelveticaNeue-Medium,Helvetica Neue" font-size="30.0" fill="#FEFFFE" transform="matrix(1.00, 0.00, -0.00, -1.00, 470.3, 617.1)">w</text><text xml:space="preserve" font-family="HelveticaNeue-Medium,Helvetica Neue" font-size="30.0" fill="#FEFFFE" transform="matrix(1.00, 0.00, -0.00, -1.00, 493.7, 617.1)"> </text><text xml:space="preserve" font-family="HelveticaNeue-Medium,Helvetica Neue" font-size="30.0" fill="#FEFFFE" transform="matrix(1.00, 0.00, -0.00, -1.00, 502.0, 617.1)">C</text><text xml:space="preserve" font-family="HelveticaNeue-Medium,Helvetica Neue" font-size="30.0" fill="#FEFFFE" transform="matrix(1.00, 0.00, -0.00, -1.00, 523.7, 617.1)">o</text><text xml:space="preserve" font-family="HelveticaNeue-Medium,Helvetica Neue" font-size="30.0" fill="#FEFFFE" transform="matrix(1.00, 0.00, -0.00, -1.00, 541.5, 617.1)">n</text><text xml:space="preserve" font-family="HelveticaNeue-Medium,Helvetica Neue" font-size="30.0" fill="#FEFFFE" transform="matrix(1.00, 0.00, -0.00, -1.00, 558.7, 617.1)">t</text><text xml:space="preserve" font-family="HelveticaNeue-Medium,Helvetica Neue" font-size="30.0" fill="#FEFFFE" transform="matrix(1.00, 0.00, -0.00, -1.00, 568.7, 617.1)">r</text><text xml:space="preserve" font-family="HelveticaNeue-Medium,Helvetica Neue" font-size="30.0" fill="#FEFFFE" transform="matrix(1.00, 0.00, -0.00, -1.00, 578.7, 617.1)">o</text><text xml:space="preserve" font-family="HelveticaNeue-Medium,Helvetica Neue" font-size="30.0" fill="#FEFFFE" transform="matrix(1.00, 0.00, -0.00, -1.00, 596.5, 617.1)">l</text><text xml:space="preserve" font-family="HelveticaNeue-Medium,Helvetica Neue" font-size="30.0" fill="#FEFFFE" transform="matrix(1.00, 0.00, -0.00, -1.00, 603.7, 617.1)">l</text><text xml:space="preserve" font-family="HelveticaNeue-Medium,Helvetica Neue" font-size="30.0" fill="#FEFFFE" transform="matrix(1.00, 0.00, -0.00, -1.00, 611.0, 617.1)">e</text><text xml:space="preserve" font-family="HelveticaNeue-Medium,Helvetica Neue" font-size="30.0" fill="#FEFFFE" transform="matrix(1.00, 0.00, -0.00, -1.00, 627.6, 617.1)">r</text><image xlink:href="../../B832E8DE-E617-4A22-90B8-9B61BEE7743C/assets/D3FECE0EC5D1C884E0DB18FE97849913.png" width="15.00" height="15.00" transform="matrix(1.00, 0.00, -0.00, -1.00, 356.0, 464.0)"></image><text xml:space="preserve" font-family="HelveticaNeue-Medium,Helvetica Neue" font-size="22.5" fill="#FEFFFE" transform="matrix(1.00, 0.00, -0.00, -1.00, 357.4, 449.2)">•</text><image xlink:href="../../B832E8DE-E617-4A22-90B8-9B61BEE7743C/assets/7AD67CB732D2B9223C3F239CE81EAD04.png" width="317.00" height="31.00" transform="matrix(1.00, 0.00, -0.00, -1.00, 383.0, 471.0)"></image><text xml:space="preserve" font-family="HelveticaNeue-Medium,Helvetica Neue" font-size="30.0" fill="#FEFFFE" transform="matrix(1.00, 0.00, -0.00, -1.00, 385.7, 446.4)">S</text><text xml:space="preserve" font-family="HelveticaNeue-Medium,Helvetica Neue" font-size="30.0" fill="#FEFFFE" transform="matrix(1.00, 0.00, -0.00, -1.00, 405.1, 446.4)">h</text><text xml:space="preserve" font-family="HelveticaNeue-Medium,Helvetica Neue" font-size="30.0" fill="#FEFFFE" transform="matrix(1.00, 0.00, -0.00, -1.00, 422.3, 446.4)">o</text><text xml:space="preserve" font-family="HelveticaNeue-Medium,Helvetica Neue" font-size="30.0" fill="#FEFFFE" transform="matrix(1.00, 0.00, -0.00, -1.00, 440.1, 446.4)">w</text><text xml:space="preserve" font-family="HelveticaNeue-Medium,Helvetica Neue" font-size="30.0" fill="#FEFFFE" transform="matrix(1.00, 0.00, -0.00, -1.00, 463.5, 446.4)"> </text><text xml:space="preserve" font-family="HelveticaNeue-Medium,Helvetica Neue" font-size="30.0" fill="#FEFFFE" transform="matrix(1.00, 0.00, -0.00, -1.00, 471.8, 446.4)">Q</text><text xml:space="preserve" font-family="HelveticaNeue-Medium,Helvetica Neue" font-size="30.0" fill="#FEFFFE" transform="matrix(1.00, 0.00, -0.00, -1.00, 494.6, 446.4)">u</text><text xml:space="preserve" font-family="HelveticaNeue-Medium,Helvetica Neue" font-size="30.0" fill="#FEFFFE" transform="matrix(1.00, 0.00, -0.00, -1.00, 511.8, 446.4)">e</text><text xml:space="preserve" font-family="HelveticaNeue-Medium,Helvetica Neue" font-size="30.0" fill="#FEFFFE" transform="matrix(1.00, 0.00, -0.00, -1.00, 528.5, 446.4)">s</text><text xml:space="preserve" font-family="HelveticaNeue-Medium,Helvetica Neue" font-size="30.0" fill="#FEFFFE" transform="matrix(1.00, 0.00, -0.00, -1.00, 544.1, 446.4)">t</text><text xml:space="preserve" font-family="HelveticaNeue-Medium,Helvetica Neue" font-size="30.0" fill="#FEFFFE" transform="matrix(1.00, 0.00, -0.00, -1.00, 554.1, 446.4)">i</text><text xml:space="preserve" font-family="HelveticaNeue-Medium,Helvetica Neue" font-size="30.0" fill="#FEFFFE" transform="matrix(1.00, 0.00, -0.00, -1.00, 561.3, 446.4)">o</text><text xml:space="preserve" font-family="HelveticaNeue-Medium,Helvetica Neue" font-size="30.0" fill="#FEFFFE" transform="matrix(1.00, 0.00, -0.00, -1.00, 579.1, 446.4)">n</text><text xml:space="preserve" font-family="HelveticaNeue-Medium,Helvetica Neue" font-size="30.0" fill="#FEFFFE" transform="matrix(1.00, 0.00, -0.00, -1.00, 596.3, 446.4)"> </text><text xml:space="preserve" font-family="HelveticaNeue-Medium,Helvetica Neue" font-size="30.0" fill="#FEFFFE" transform="matrix(1.00, 0.00, -0.00, -1.00, 604.7, 446.4)">B</text><text xml:space="preserve" font-family="HelveticaNeue-Medium,Helvetica Neue" font-size="30.0" fill="#FEFFFE" transform="matrix(1.00, 0.00, -0.00, -1.00, 625.8, 446.4)">u</text><text xml:space="preserve" font-family="HelveticaNeue-Medium,Helvetica Neue" font-size="30.0" fill="#FEFFFE" transform="matrix(1.00, 0.00, -0.00, -1.00, 643.0, 446.4)">t</text><text xml:space="preserve" font-family="HelveticaNeue-Medium,Helvetica Neue" font-size="30.0" fill="#FEFFFE" transform="matrix(1.00, 0.00, -0.00, -1.00, 653.0, 446.4)">t</text><text xml:space="preserve" font-family="HelveticaNeue-Medium,Helvetica Neue" font-size="30.0" fill="#FEFFFE" transform="matrix(1.00, 0.00, -0.00, -1.00, 663.0, 446.4)">o</text><text xml:space="preserve" font-family="HelveticaNeue-Medium,Helvetica Neue" font-size="30.0" fill="#FEFFFE" transform="matrix(1.00, 0.00, -0.00, -1.00, 680.8, 446.4)">n</text><text xml:space="preserve" font-family="HelveticaNeue-Medium,Helvetica Neue" font-size="30.0" fill="#FEFFFE" transform="matrix(1.00, 0.00, -0.00, -1.00, 698.0, 446.4)"> </text><image xlink:href="../../B832E8DE-E617-4A22-90B8-9B61BEE7743C/assets/D3FECE0EC5D1C884E0DB18FE97849913.png" width="15.00" height="15.00" transform="matrix(1.00, 0.00, -0.00, -1.00, 356.0, 427.0)"></image><text xml:space="preserve" font-family="HelveticaNeue-Medium,Helvetica Neue" font-size="22.5" fill="#FEFFFE" transform="matrix(1.00, 0.00, -0.00, -1.00, 357.4, 412.2)">•</text><image xlink:href="../../B832E8DE-E617-4A22-90B8-9B61BEE7743C/assets/DA6A99C0E0D4679B04612BE9533B8227.png" width="296.00" height="30.00" transform="matrix(1.00, 0.00, -0.00, -1.00, 383.0, 434.0)"></image><text xml:space="preserve" font-family="HelveticaNeue-Medium,Helvetica Neue" font-size="30.0" fill="#FEFFFE" transform="matrix(1.00, 0.00, -0.00, -1.00, 385.7, 409.4)">S</text><text xml:space="preserve" font-family="HelveticaNeue-Medium,Helvetica Neue" font-size="30.0" fill="#FEFFFE" transform="matrix(1.00, 0.00, -0.00, -1.00, 405.1, 409.4)">h</text><text xml:space="preserve" font-family="HelveticaNeue-Medium,Helvetica Neue" font-size="30.0" fill="#FEFFFE" transform="matrix(1.00, 0.00, -0.00, -1.00, 422.3, 409.4)">o</text><text xml:space="preserve" font-family="HelveticaNeue-Medium,Helvetica Neue" font-size="30.0" fill="#FEFFFE" transform="matrix(1.00, 0.00, -0.00, -1.00, 440.1, 409.4)">w</text><text xml:space="preserve" font-family="HelveticaNeue-Medium,Helvetica Neue" font-size="30.0" fill="#FEFFFE" transform="matrix(1.00, 0.00, -0.00, -1.00, 463.5, 409.4)"> </text><text xml:space="preserve" font-family="HelveticaNeue-Medium,Helvetica Neue" font-size="30.0" fill="#FEFFFE" transform="matrix(1.00, 0.00, -0.00, -1.00, 471.8, 409.4)">A</text><text xml:space="preserve" font-family="HelveticaNeue-Medium,Helvetica Neue" font-size="30.0" fill="#FEFFFE" transform="matrix(1.00, 0.00, -0.00, -1.00, 491.8, 409.4)">n</text><text xml:space="preserve" font-family="HelveticaNeue-Medium,Helvetica Neue" font-size="30.0" fill="#FEFFFE" transform="matrix(1.00, 0.00, -0.00, -1.00, 509.0, 409.4)">s</text><text xml:space="preserve" font-family="HelveticaNeue-Medium,Helvetica Neue" font-size="30.0" fill="#FEFFFE" transform="matrix(1.00, 0.00, -0.00, -1.00, 524.6, 409.4)">w</text><text xml:space="preserve" font-family="HelveticaNeue-Medium,Helvetica Neue" font-size="30.0" fill="#FEFFFE" transform="matrix(1.00, 0.00, -0.00, -1.00, 548.0, 409.4)">e</text><text xml:space="preserve" font-family="HelveticaNeue-Medium,Helvetica Neue" font-size="30.0" fill="#FEFFFE" transform="matrix(1.00, 0.00, -0.00, -1.00, 564.6, 409.4)">r</text><text xml:space="preserve" font-family="HelveticaNeue-Medium,Helvetica Neue" font-size="30.0" fill="#FEFFFE" transform="matrix(1.00, 0.00, -0.00, -1.00, 575.2, 409.4)"> </text><text xml:space="preserve" font-family="HelveticaNeue-Medium,Helvetica Neue" font-size="30.0" fill="#FEFFFE" transform="matrix(1.00, 0.00, -0.00, -1.00, 583.5, 409.4)">B</text><text xml:space="preserve" font-family="HelveticaNeue-Medium,Helvetica Neue" font-size="30.0" fill="#FEFFFE" transform="matrix(1.00, 0.00, -0.00, -1.00, 604.7, 409.4)">u</text><text xml:space="preserve" font-family="HelveticaNeue-Medium,Helvetica Neue" font-size="30.0" fill="#FEFFFE" transform="matrix(1.00, 0.00, -0.00, -1.00, 621.9, 409.4)">t</text><text xml:space="preserve" font-family="HelveticaNeue-Medium,Helvetica Neue" font-size="30.0" fill="#FEFFFE" transform="matrix(1.00, 0.00, -0.00, -1.00, 631.9, 409.4)">t</text><text xml:space="preserve" font-family="HelveticaNeue-Medium,Helvetica Neue" font-size="30.0" fill="#FEFFFE" transform="matrix(1.00, 0.00, -0.00, -1.00, 641.9, 409.4)">o</text><text xml:space="preserve" font-family="HelveticaNeue-Medium,Helvetica Neue" font-size="30.0" fill="#FEFFFE" transform="matrix(1.00, 0.00, -0.00, -1.00, 659.6, 409.4)">n</text></g></svg>