<?xml version="1.0" encoding="UTF-8" standalone="no"?><svg xmlns="http://www.w3.org/2000/svg" xmlns:xlink="http://www.w3.org/1999/xlink" clip-rule="evenodd" stroke-miterlimit="10" viewBox="0 0 222 490"><desc>SVG generated by Keynote</desc><defs></defs><g transform="matrix(1.00, 0.00, -0.00, -1.00, 0.0, 490.0)"><image xlink:href="1B3055EFF3F33FE14EFACF0C6C7C8B07.png" width="14.00" height="14.00" transform="matrix(1.00, 0.00, -0.00, -1.00, 0.0, 485.0)"></image><text xml:space="preserve" font-family="HelveticaNeue-Medium,Helvetica Neue" font-size="12.8" fill="#EAEAEA" transform="matrix(1.00, 0.00, -0.00, -1.00, 4.0, 475.2)">•</text><image xlink:href="CF7A02AC998695C90144E6C8AA858300.png" width="87.00" height="22.00" transform="matrix(1.00, 0.00, -0.00, -1.00, 16.0, 488.0)"></image><text xml:space="preserve" font-family="HelveticaNeue-Medium,Helvetica Neue" font-size="17.0" fill="#EAEAEA" transform="matrix(1.00, 0.00, -0.00, -1.00, 20.0, 473.2)">Q</text><text xml:space="preserve" font-family="HelveticaNeue-Medium,Helvetica Neue" font-size="17.0" fill="#EAEAEA" transform="matrix(1.00, 0.00, -0.00, -1.00, 32.9, 473.2)">u</text><text xml:space="preserve" font-family="HelveticaNeue-Medium,Helvetica Neue" font-size="17.0" fill="#EAEAEA" transform="matrix(1.00, 0.00, -0.00, -1.00, 42.7, 473.2)">e</text><text xml:space="preserve" font-family="HelveticaNeue-Medium,Helvetica Neue" font-size="17.0" fill="#EAEAEA" transform="matrix(1.00, 0.00, -0.00, -1.00, 52.1, 473.2)">s</text><text xml:space="preserve" font-family="HelveticaNeue-Medium,Helvetica Neue" font-size="17.0" fill="#EAEAEA" transform="matrix(1.00, 0.00, -0.00, -1.00, 61.0, 473.2)">t</text><text xml:space="preserve" font-family="HelveticaNeue-Medium,Helvetica Neue" font-size="17.0" fill="#EAEAEA" transform="matrix(1.00, 0.00, -0.00, -1.00, 66.6, 473.2)">i</text><text xml:space="preserve" font-family="HelveticaNeue-Medium,Helvetica Neue" font-size="17.0" fill="#EAEAEA" transform="matrix(1.00, 0.00, -0.00, -1.00, 70.7, 473.2)">o</text><text xml:space="preserve" font-family="HelveticaNeue-Medium,Helvetica Neue" font-size="17.0" fill="#EAEAEA" transform="matrix(1.00, 0.00, -0.00, -1.00, 80.8, 473.2)">n</text><text xml:space="preserve" font-family="HelveticaNeue-Medium,Helvetica Neue" font-size="17.0" fill="#EAEAEA" transform="matrix(1.00, 0.00, -0.00, -1.00, 90.5, 473.2)">s</text><text xml:space="preserve" font-family="HelveticaNeue-Medium,Helvetica Neue" font-size="17.0" fill="#EAEAEA" transform="matrix(1.00, 0.00, -0.00, -1.00, 99.4, 473.2)"> </text><text xml:space="preserve" font-family="HelveticaNeue-Medium,Helvetica Neue" font-size="17.0" fill="#EAEAEA" transform="matrix(1.00, 0.00, -0.00, -1.00, 104.1, 473.2)"> </text><image xlink:href="../../A67961D4-1AB6-4FAA-AFAB-D927DEB09814/assets/1B3055EFF3F33FE14EFACF0C6C7C8B07.png" width="14.00" height="14.00" transform="matrix(1.00, 0.00, -0.00, -1.00, 32.0, 443.0)"></image><text xml:space="preserve" font-family="HelveticaNeue-Medium,Helvetica Neue" font-size="12.8" fill="#EAEAEA" transform="matrix(1.00, 0.00, -0.00, -1.00, 36.0, 433.2)">•</text><image xlink:href="7892C15A1AB8E3644EBC88AE62CC81A9.png" width="132.00" height="25.00" transform="matrix(1.00, 0.00, -0.00, -1.00, 49.0, 446.0)"></image><text xml:space="preserve" font-family="HelveticaNeue-Medium,Helvetica Neue" font-size="17.0" fill="#EAEAEA" transform="matrix(1.00, 0.00, -0.00, -1.00, 52.0, 431.2)">N</text><text xml:space="preserve" font-family="HelveticaNeue-Medium,Helvetica Neue" font-size="17.0" fill="#EAEAEA" transform="matrix(1.00, 0.00, -0.00, -1.00, 64.3, 431.2)">S</text><text xml:space="preserve" font-family="HelveticaNeue-Medium,Helvetica Neue" font-size="17.0" fill="#EAEAEA" transform="matrix(1.00, 0.00, -0.00, -1.00, 75.3, 431.2)">A</text><text xml:space="preserve" font-family="HelveticaNeue-Medium,Helvetica Neue" font-size="17.0" fill="#EAEAEA" transform="matrix(1.00, 0.00, -0.00, -1.00, 86.6, 431.2)">r</text><text xml:space="preserve" font-family="HelveticaNeue-Medium,Helvetica Neue" font-size="17.0" fill="#EAEAEA" transform="matrix(1.00, 0.00, -0.00, -1.00, 92.6, 431.2)">r</text><text xml:space="preserve" font-family="HelveticaNeue-Medium,Helvetica Neue" font-size="17.0" fill="#EAEAEA" transform="matrix(1.00, 0.00, -0.00, -1.00, 98.6, 431.2)">a</text><text xml:space="preserve" font-family="HelveticaNeue-Medium,Helvetica Neue" font-size="17.0" fill="#EAEAEA" transform="matrix(1.00, 0.00, -0.00, -1.00, 108.0, 431.2)">y</text><text xml:space="preserve" font-family="HelveticaNeue-Medium,Helvetica Neue" font-size="17.0" fill="#EAEAEA" transform="matrix(1.00, 0.00, -0.00, -1.00, 116.9, 431.2)"> </text><text xml:space="preserve" font-family="HelveticaNeue-Medium,Helvetica Neue" font-size="17.0" fill="#EAEAEA" transform="matrix(1.00, 0.00, -0.00, -1.00, 121.6, 431.2)">(</text><text xml:space="preserve" font-family="HelveticaNeue-Medium,Helvetica Neue" font-size="17.0" fill="#EAEAEA" transform="matrix(1.00, 0.00, -0.00, -1.00, 126.3, 431.2)">i</text><text xml:space="preserve" font-family="HelveticaNeue-Medium,Helvetica Neue" font-size="17.0" fill="#EAEAEA" transform="matrix(1.00, 0.00, -0.00, -1.00, 130.4, 431.2)">n</text><text xml:space="preserve" font-family="HelveticaNeue-Medium,Helvetica Neue" font-size="17.0" fill="#EAEAEA" transform="matrix(1.00, 0.00, -0.00, -1.00, 140.2, 431.2)"> </text><text xml:space="preserve" font-family="HelveticaNeue-Medium,Helvetica Neue" font-size="17.0" fill="#EAEAEA" transform="matrix(1.00, 0.00, -0.00, -1.00, 144.9, 431.2)">i</text><text xml:space="preserve" font-family="HelveticaNeue-Medium,Helvetica Neue" font-size="17.0" fill="#EAEAEA" transform="matrix(1.00, 0.00, -0.00, -1.00, 149.0, 431.2)">O</text><text xml:space="preserve" font-family="HelveticaNeue-Medium,Helvetica Neue" font-size="17.0" fill="#EAEAEA" transform="matrix(1.00, 0.00, -0.00, -1.00, 161.9, 431.2)">S</text><text xml:space="preserve" font-family="HelveticaNeue-Medium,Helvetica Neue" font-size="17.0" fill="#EAEAEA" transform="matrix(1.00, 0.00, -0.00, -1.00, 172.9, 431.2)">)</text><text xml:space="preserve" font-family="HelveticaNeue-Medium,Helvetica Neue" font-size="17.0" fill="#EAEAEA" transform="matrix(1.00, 0.00, -0.00, -1.00, 177.7, 431.2)"> </text><image xlink:href="../../A67961D4-1AB6-4FAA-AFAB-D927DEB09814/assets/1B3055EFF3F33FE14EFACF0C6C7C8B07.png" width="14.00" height="14.00" transform="matrix(1.00, 0.00, -0.00, -1.00, 32.0, 401.0)"></image><text xml:space="preserve" font-family="HelveticaNeue-Medium,Helvetica Neue" font-size="12.8" fill="#EAEAEA" transform="matrix(1.00, 0.00, -0.00, -1.00, 36.0, 391.2)">•</text><image xlink:href="2A32227C0D95BF02217F8AD1DCA6957A.png" width="173.00" height="25.00" transform="matrix(1.00, 0.00, -0.00, -1.00, 47.0, 404.0)"></image><text xml:space="preserve" font-family="HelveticaNeue-Medium,Helvetica Neue" font-size="17.0" fill="#EAEAEA" transform="matrix(1.00, 0.00, -0.00, -1.00, 52.0, 389.2)">A</text><text xml:space="preserve" font-family="HelveticaNeue-Medium,Helvetica Neue" font-size="17.0" fill="#EAEAEA" transform="matrix(1.00, 0.00, -0.00, -1.00, 63.3, 389.2)">r</text><text xml:space="preserve" font-family="HelveticaNeue-Medium,Helvetica Neue" font-size="17.0" fill="#EAEAEA" transform="matrix(1.00, 0.00, -0.00, -1.00, 69.3, 389.2)">r</text><text xml:space="preserve" font-family="HelveticaNeue-Medium,Helvetica Neue" font-size="17.0" fill="#EAEAEA" transform="matrix(1.00, 0.00, -0.00, -1.00, 75.3, 389.2)">a</text><text xml:space="preserve" font-family="HelveticaNeue-Medium,Helvetica Neue" font-size="17.0" fill="#EAEAEA" transform="matrix(1.00, 0.00, -0.00, -1.00, 84.8, 389.2)">y</text><text xml:space="preserve" font-family="HelveticaNeue-Medium,Helvetica Neue" font-size="17.0" fill="#EAEAEA" transform="matrix(1.00, 0.00, -0.00, -1.00, 93.6, 389.2)">L</text><text xml:space="preserve" font-family="HelveticaNeue-Medium,Helvetica Neue" font-size="17.0" fill="#EAEAEA" transform="matrix(1.00, 0.00, -0.00, -1.00, 103.3, 389.2)">i</text><text xml:space="preserve" font-family="HelveticaNeue-Medium,Helvetica Neue" font-size="17.0" fill="#EAEAEA" transform="matrix(1.00, 0.00, -0.00, -1.00, 107.4, 389.2)">s</text><text xml:space="preserve" font-family="HelveticaNeue-Medium,Helvetica Neue" font-size="17.0" fill="#EAEAEA" transform="matrix(1.00, 0.00, -0.00, -1.00, 116.3, 389.2)">t</text><text xml:space="preserve" font-family="HelveticaNeue-Medium,Helvetica Neue" font-size="17.0" fill="#EAEAEA" transform="matrix(1.00, 0.00, -0.00, -1.00, 121.9, 389.2)"> </text><text xml:space="preserve" font-family="HelveticaNeue-Medium,Helvetica Neue" font-size="17.0" fill="#EAEAEA" transform="matrix(1.00, 0.00, -0.00, -1.00, 126.6, 389.2)">(</text><text xml:space="preserve" font-family="HelveticaNeue-Medium,Helvetica Neue" font-size="17.0" fill="#EAEAEA" transform="matrix(1.00, 0.00, -0.00, -1.00, 131.4, 389.2)">i</text><text xml:space="preserve" font-family="HelveticaNeue-Medium,Helvetica Neue" font-size="17.0" fill="#EAEAEA" transform="matrix(1.00, 0.00, -0.00, -1.00, 135.5, 389.2)">n</text><text xml:space="preserve" font-family="HelveticaNeue-Medium,Helvetica Neue" font-size="17.0" fill="#EAEAEA" transform="matrix(1.00, 0.00, -0.00, -1.00, 145.2, 389.2)"> </text><text xml:space="preserve" font-family="HelveticaNeue-Medium,Helvetica Neue" font-size="17.0" fill="#EAEAEA" transform="matrix(1.00, 0.00, -0.00, -1.00, 150.0, 389.2)">A</text><text xml:space="preserve" font-family="HelveticaNeue-Medium,Helvetica Neue" font-size="17.0" fill="#EAEAEA" transform="matrix(1.00, 0.00, -0.00, -1.00, 161.3, 389.2)">n</text><text xml:space="preserve" font-family="HelveticaNeue-Medium,Helvetica Neue" font-size="17.0" fill="#EAEAEA" transform="matrix(1.00, 0.00, -0.00, -1.00, 171.1, 389.2)">d</text><text xml:space="preserve" font-family="HelveticaNeue-Medium,Helvetica Neue" font-size="17.0" fill="#EAEAEA" transform="matrix(1.00, 0.00, -0.00, -1.00, 181.4, 389.2)">r</text><text xml:space="preserve" font-family="HelveticaNeue-Medium,Helvetica Neue" font-size="17.0" fill="#EAEAEA" transform="matrix(1.00, 0.00, -0.00, -1.00, 187.1, 389.2)">o</text><text xml:space="preserve" font-family="HelveticaNeue-Medium,Helvetica Neue" font-size="17.0" fill="#EAEAEA" transform="matrix(1.00, 0.00, -0.00, -1.00, 197.2, 389.2)">i</text><text xml:space="preserve" font-family="HelveticaNeue-Medium,Helvetica Neue" font-size="17.0" fill="#EAEAEA" transform="matrix(1.00, 0.00, -0.00, -1.00, 201.3, 389.2)">d</text><text xml:space="preserve" font-family="HelveticaNeue-Medium,Helvetica Neue" font-size="17.0" fill="#EAEAEA" transform="matrix(1.00, 0.00, -0.00, -1.00, 211.7, 389.2)">)</text><text xml:space="preserve" font-family="HelveticaNeue-Medium,Helvetica Neue" font-size="17.0" fill="#EAEAEA" transform="matrix(1.00, 0.00, -0.00, -1.00, 216.4, 389.2)"> </text><image xlink:href="../../A67961D4-1AB6-4FAA-AFAB-D927DEB09814/assets/1B3055EFF3F33FE14EFACF0C6C7C8B07.png" width="14.00" height="14.00" transform="matrix(1.00, 0.00, -0.00, -1.00, 0.0, 359.0)"></image><text xml:space="preserve" font-family="HelveticaNeue-Medium,Helvetica Neue" font-size="12.8" fill="#EAEAEA" transform="matrix(1.00, 0.00, -0.00, -1.00, 4.0, 349.2)">•</text><image xlink:href="E4C27A3546F47976491C234C8A4E9B46.png" width="76.00" height="22.00" transform="matrix(1.00, 0.00, -0.00, -1.00, 15.0, 362.0)"></image><text xml:space="preserve" font-family="HelveticaNeue-Medium,Helvetica Neue" font-size="17.0" fill="#EAEAEA" transform="matrix(1.00, 0.00, -0.00, -1.00, 20.0, 347.2)">A</text><text xml:space="preserve" font-family="HelveticaNeue-Medium,Helvetica Neue" font-size="17.0" fill="#EAEAEA" transform="matrix(1.00, 0.00, -0.00, -1.00, 31.3, 347.2)">n</text><text xml:space="preserve" font-family="HelveticaNeue-Medium,Helvetica Neue" font-size="17.0" fill="#EAEAEA" transform="matrix(1.00, 0.00, -0.00, -1.00, 41.1, 347.2)">s</text><text xml:space="preserve" font-family="HelveticaNeue-Medium,Helvetica Neue" font-size="17.0" fill="#EAEAEA" transform="matrix(1.00, 0.00, -0.00, -1.00, 49.9, 347.2)">w</text><text xml:space="preserve" font-family="HelveticaNeue-Medium,Helvetica Neue" font-size="17.0" fill="#EAEAEA" transform="matrix(1.00, 0.00, -0.00, -1.00, 63.1, 347.2)">e</text><text xml:space="preserve" font-family="HelveticaNeue-Medium,Helvetica Neue" font-size="17.0" fill="#EAEAEA" transform="matrix(1.00, 0.00, -0.00, -1.00, 72.6, 347.2)">r</text><text xml:space="preserve" font-family="HelveticaNeue-Medium,Helvetica Neue" font-size="17.0" fill="#EAEAEA" transform="matrix(1.00, 0.00, -0.00, -1.00, 78.6, 347.2)">s</text><text xml:space="preserve" font-family="HelveticaNeue-Medium,Helvetica Neue" font-size="17.0" fill="#EAEAEA" transform="matrix(1.00, 0.00, -0.00, -1.00, 87.4, 347.2)"> </text><image xlink:href="../../A67961D4-1AB6-4FAA-AFAB-D927DEB09814/assets/1B3055EFF3F33FE14EFACF0C6C7C8B07.png" width="14.00" height="14.00" transform="matrix(1.00, 0.00, -0.00, -1.00, 32.0, 317.0)"></image><text xml:space="preserve" font-family="HelveticaNeue-Medium,Helvetica Neue" font-size="12.8" fill="#EAEAEA" transform="matrix(1.00, 0.00, -0.00, -1.00, 36.0, 307.2)">•</text><image xlink:href="../../A67961D4-1AB6-4FAA-AFAB-D927DEB09814/assets/7892C15A1AB8E3644EBC88AE62CC81A9.png" width="132.00" height="25.00" transform="matrix(1.00, 0.00, -0.00, -1.00, 49.0, 320.0)"></image><text xml:space="preserve" font-family="HelveticaNeue-Medium,Helvetica Neue" font-size="17.0" fill="#EAEAEA" transform="matrix(1.00, 0.00, -0.00, -1.00, 52.0, 305.2)">N</text><text xml:space="preserve" font-family="HelveticaNeue-Medium,Helvetica Neue" font-size="17.0" fill="#EAEAEA" transform="matrix(1.00, 0.00, -0.00, -1.00, 64.3, 305.2)">S</text><text xml:space="preserve" font-family="HelveticaNeue-Medium,Helvetica Neue" font-size="17.0" fill="#EAEAEA" transform="matrix(1.00, 0.00, -0.00, -1.00, 75.3, 305.2)">A</text><text xml:space="preserve" font-family="HelveticaNeue-Medium,Helvetica Neue" font-size="17.0" fill="#EAEAEA" transform="matrix(1.00, 0.00, -0.00, -1.00, 86.6, 305.2)">r</text><text xml:space="preserve" font-family="HelveticaNeue-Medium,Helvetica Neue" font-size="17.0" fill="#EAEAEA" transform="matrix(1.00, 0.00, -0.00, -1.00, 92.6, 305.2)">r</text><text xml:space="preserve" font-family="HelveticaNeue-Medium,Helvetica Neue" font-size="17.0" fill="#EAEAEA" transform="matrix(1.00, 0.00, -0.00, -1.00, 98.6, 305.2)">a</text><text xml:space="preserve" font-family="HelveticaNeue-Medium,Helvetica Neue" font-size="17.0" fill="#EAEAEA" transform="matrix(1.00, 0.00, -0.00, -1.00, 108.0, 305.2)">y</text><text xml:space="preserve" font-family="HelveticaNeue-Medium,Helvetica Neue" font-size="17.0" fill="#EAEAEA" transform="matrix(1.00, 0.00, -0.00, -1.00, 116.9, 305.2)"> </text><text xml:space="preserve" font-family="HelveticaNeue-Medium,Helvetica Neue" font-size="17.0" fill="#EAEAEA" transform="matrix(1.00, 0.00, -0.00, -1.00, 121.6, 305.2)">(</text><text xml:space="preserve" font-family="HelveticaNeue-Medium,Helvetica Neue" font-size="17.0" fill="#EAEAEA" transform="matrix(1.00, 0.00, -0.00, -1.00, 126.3, 305.2)">i</text><text xml:space="preserve" font-family="HelveticaNeue-Medium,Helvetica Neue" font-size="17.0" fill="#EAEAEA" transform="matrix(1.00, 0.00, -0.00, -1.00, 130.4, 305.2)">n</text><text xml:space="preserve" font-family="HelveticaNeue-Medium,Helvetica Neue" font-size="17.0" fill="#EAEAEA" transform="matrix(1.00, 0.00, -0.00, -1.00, 140.2, 305.2)"> </text><text xml:space="preserve" font-family="HelveticaNeue-Medium,Helvetica Neue" font-size="17.0" fill="#EAEAEA" transform="matrix(1.00, 0.00, -0.00, -1.00, 144.9, 305.2)">i</text><text xml:space="preserve" font-family="HelveticaNeue-Medium,Helvetica Neue" font-size="17.0" fill="#EAEAEA" transform="matrix(1.00, 0.00, -0.00, -1.00, 149.0, 305.2)">O</text><text xml:space="preserve" font-family="HelveticaNeue-Medium,Helvetica Neue" font-size="17.0" fill="#EAEAEA" transform="matrix(1.00, 0.00, -0.00, -1.00, 161.9, 305.2)">S</text><text xml:space="preserve" font-family="HelveticaNeue-Medium,Helvetica Neue" font-size="17.0" fill="#EAEAEA" transform="matrix(1.00, 0.00, -0.00, -1.00, 172.9, 305.2)">)</text><text xml:space="preserve" font-family="HelveticaNeue-Medium,Helvetica Neue" font-size="17.0" fill="#EAEAEA" transform="matrix(1.00, 0.00, -0.00, -1.00, 177.7, 305.2)"> </text><image xlink:href="../../A67961D4-1AB6-4FAA-AFAB-D927DEB09814/assets/1B3055EFF3F33FE14EFACF0C6C7C8B07.png" width="14.00" height="14.00" transform="matrix(1.00, 0.00, -0.00, -1.00, 32.0, 275.0)"></image><text xml:space="preserve" font-family="HelveticaNeue-Medium,Helvetica Neue" font-size="12.8" fill="#EAEAEA" transform="matrix(1.00, 0.00, -0.00, -1.00, 36.0, 265.2)">•</text><image xlink:href="../../A67961D4-1AB6-4FAA-AFAB-D927DEB09814/assets/2A32227C0D95BF02217F8AD1DCA6957A.png" width="173.00" height="25.00" transform="matrix(1.00, 0.00, -0.00, -1.00, 47.0, 278.0)"></image><text xml:space="preserve" font-family="HelveticaNeue-Medium,Helvetica Neue" font-size="17.0" fill="#EAEAEA" transform="matrix(1.00, 0.00, -0.00, -1.00, 52.0, 263.2)">A</text><text xml:space="preserve" font-family="HelveticaNeue-Medium,Helvetica Neue" font-size="17.0" fill="#EAEAEA" transform="matrix(1.00, 0.00, -0.00, -1.00, 63.3, 263.2)">r</text><text xml:space="preserve" font-family="HelveticaNeue-Medium,Helvetica Neue" font-size="17.0" fill="#EAEAEA" transform="matrix(1.00, 0.00, -0.00, -1.00, 69.3, 263.2)">r</text><text xml:space="preserve" font-family="HelveticaNeue-Medium,Helvetica Neue" font-size="17.0" fill="#EAEAEA" transform="matrix(1.00, 0.00, -0.00, -1.00, 75.3, 263.2)">a</text><text xml:space="preserve" font-family="HelveticaNeue-Medium,Helvetica Neue" font-size="17.0" fill="#EAEAEA" transform="matrix(1.00, 0.00, -0.00, -1.00, 84.8, 263.2)">y</text><text xml:space="preserve" font-family="HelveticaNeue-Medium,Helvetica Neue" font-size="17.0" fill="#EAEAEA" transform="matrix(1.00, 0.00, -0.00, -1.00, 93.6, 263.2)">L</text><text xml:space="preserve" font-family="HelveticaNeue-Medium,Helvetica Neue" font-size="17.0" fill="#EAEAEA" transform="matrix(1.00, 0.00, -0.00, -1.00, 103.3, 263.2)">i</text><text xml:space="preserve" font-family="HelveticaNeue-Medium,Helvetica Neue" font-size="17.0" fill="#EAEAEA" transform="matrix(1.00, 0.00, -0.00, -1.00, 107.4, 263.2)">s</text><text xml:space="preserve" font-family="HelveticaNeue-Medium,Helvetica Neue" font-size="17.0" fill="#EAEAEA" transform="matrix(1.00, 0.00, -0.00, -1.00, 116.3, 263.2)">t</text><text xml:space="preserve" font-family="HelveticaNeue-Medium,Helvetica Neue" font-size="17.0" fill="#EAEAEA" transform="matrix(1.00, 0.00, -0.00, -1.00, 121.9, 263.2)"> </text><text xml:space="preserve" font-family="HelveticaNeue-Medium,Helvetica Neue" font-size="17.0" fill="#EAEAEA" transform="matrix(1.00, 0.00, -0.00, -1.00, 126.6, 263.2)">(</text><text xml:space="preserve" font-family="HelveticaNeue-Medium,Helvetica Neue" font-size="17.0" fill="#EAEAEA" transform="matrix(1.00, 0.00, -0.00, -1.00, 131.4, 263.2)">i</text><text xml:space="preserve" font-family="HelveticaNeue-Medium,Helvetica Neue" font-size="17.0" fill="#EAEAEA" transform="matrix(1.00, 0.00, -0.00, -1.00, 135.5, 263.2)">n</text><text xml:space="preserve" font-family="HelveticaNeue-Medium,Helvetica Neue" font-size="17.0" fill="#EAEAEA" transform="matrix(1.00, 0.00, -0.00, -1.00, 145.2, 263.2)"> </text><text xml:space="preserve" font-family="HelveticaNeue-Medium,Helvetica Neue" font-size="17.0" fill="#EAEAEA" transform="matrix(1.00, 0.00, -0.00, -1.00, 150.0, 263.2)">A</text><text xml:space="preserve" font-family="HelveticaNeue-Medium,Helvetica Neue" font-size="17.0" fill="#EAEAEA" transform="matrix(1.00, 0.00, -0.00, -1.00, 161.3, 263.2)">n</text><text xml:space="preserve" font-family="HelveticaNeue-Medium,Helvetica Neue" font-size="17.0" fill="#EAEAEA" transform="matrix(1.00, 0.00, -0.00, -1.00, 171.1, 263.2)">d</text><text xml:space="preserve" font-family="HelveticaNeue-Medium,Helvetica Neue" font-size="17.0" fill="#EAEAEA" transform="matrix(1.00, 0.00, -0.00, -1.00, 181.4, 263.2)">r</text><text xml:space="preserve" font-family="HelveticaNeue-Medium,Helvetica Neue" font-size="17.0" fill="#EAEAEA" transform="matrix(1.00, 0.00, -0.00, -1.00, 187.1, 263.2)">o</text><text xml:space="preserve" font-family="HelveticaNeue-Medium,Helvetica Neue" font-size="17.0" fill="#EAEAEA" transform="matrix(1.00, 0.00, -0.00, -1.00, 197.2, 263.2)">i</text><text xml:space="preserve" font-family="HelveticaNeue-Medium,Helvetica Neue" font-size="17.0" fill="#EAEAEA" transform="matrix(1.00, 0.00, -0.00, -1.00, 201.3, 263.2)">d</text><text xml:space="preserve" font-family="HelveticaNeue-Medium,Helvetica Neue" font-size="17.0" fill="#EAEAEA" transform="matrix(1.00, 0.00, -0.00, -1.00, 211.7, 263.2)">)</text><text xml:space="preserve" font-family="HelveticaNeue-Medium,Helvetica Neue" font-size="17.0" fill="#EAEAEA" transform="matrix(1.00, 0.00, -0.00, -1.00, 216.4, 263.2)"> </text><image xlink:href="../../A67961D4-1AB6-4FAA-AFAB-D927DEB09814/assets/1B3055EFF3F33FE14EFACF0C6C7C8B07.png" width="14.00" height="14.00" transform="matrix(1.00, 0.00, -0.00, -1.00, 0.0, 233.0)"></image><text xml:space="preserve" font-family="HelveticaNeue-Medium,Helvetica Neue" font-size="12.8" fill="#EAEAEA" transform="matrix(1.00, 0.00, -0.00, -1.00, 4.0, 223.2)">•</text><image xlink:href="7CF477077199313FB4DF736D1DAD6DC5.png" width="82.00" height="22.00" transform="matrix(1.00, 0.00, -0.00, -1.00, 16.0, 236.0)"></image><text xml:space="preserve" font-family="HelveticaNeue-Medium,Helvetica Neue" font-size="17.0" fill="#EAEAEA" transform="matrix(1.00, 0.00, -0.00, -1.00, 20.0, 221.2)">2</text><text xml:space="preserve" font-family="HelveticaNeue-Medium,Helvetica Neue" font-size="17.0" fill="#EAEAEA" transform="matrix(1.00, 0.00, -0.00, -1.00, 29.5, 221.2)"> </text><text xml:space="preserve" font-family="HelveticaNeue-Medium,Helvetica Neue" font-size="17.0" fill="#EAEAEA" transform="matrix(1.00, 0.00, -0.00, -1.00, 34.2, 221.2)">b</text><text xml:space="preserve" font-family="HelveticaNeue-Medium,Helvetica Neue" font-size="17.0" fill="#EAEAEA" transform="matrix(1.00, 0.00, -0.00, -1.00, 44.6, 221.2)">u</text><text xml:space="preserve" font-family="HelveticaNeue-Medium,Helvetica Neue" font-size="17.0" fill="#EAEAEA" transform="matrix(1.00, 0.00, -0.00, -1.00, 54.3, 221.2)">t</text><text xml:space="preserve" font-family="HelveticaNeue-Medium,Helvetica Neue" font-size="17.0" fill="#EAEAEA" transform="matrix(1.00, 0.00, -0.00, -1.00, 60.0, 221.2)">t</text><text xml:space="preserve" font-family="HelveticaNeue-Medium,Helvetica Neue" font-size="17.0" fill="#EAEAEA" transform="matrix(1.00, 0.00, -0.00, -1.00, 65.6, 221.2)">o</text><text xml:space="preserve" font-family="HelveticaNeue-Medium,Helvetica Neue" font-size="17.0" fill="#EAEAEA" transform="matrix(1.00, 0.00, -0.00, -1.00, 75.7, 221.2)">n</text><text xml:space="preserve" font-family="HelveticaNeue-Medium,Helvetica Neue" font-size="17.0" fill="#EAEAEA" transform="matrix(1.00, 0.00, -0.00, -1.00, 85.5, 221.2)">s</text><text xml:space="preserve" font-family="HelveticaNeue-Medium,Helvetica Neue" font-size="17.0" fill="#EAEAEA" transform="matrix(1.00, 0.00, -0.00, -1.00, 94.3, 221.2)"> </text><image xlink:href="../../A67961D4-1AB6-4FAA-AFAB-D927DEB09814/assets/1B3055EFF3F33FE14EFACF0C6C7C8B07.png" width="14.00" height="14.00" transform="matrix(1.00, 0.00, -0.00, -1.00, 32.0, 191.0)"></image><text xml:space="preserve" font-family="HelveticaNeue-Medium,Helvetica Neue" font-size="12.8" fill="#EAEAEA" transform="matrix(1.00, 0.00, -0.00, -1.00, 36.0, 181.2)">•</text><image xlink:href="81DA5CC39DD762B9AD61260E37C6E75F.png" width="137.00" height="25.00" transform="matrix(1.00, 0.00, -0.00, -1.00, 49.0, 194.0)"></image><text xml:space="preserve" font-family="HelveticaNeue-Medium,Helvetica Neue" font-size="17.0" fill="#EAEAEA" transform="matrix(1.00, 0.00, -0.00, -1.00, 52.0, 179.2)">U</text><text xml:space="preserve" font-family="HelveticaNeue-Medium,Helvetica Neue" font-size="17.0" fill="#EAEAEA" transform="matrix(1.00, 0.00, -0.00, -1.00, 64.3, 179.2)">I</text><text xml:space="preserve" font-family="HelveticaNeue-Medium,Helvetica Neue" font-size="17.0" fill="#EAEAEA" transform="matrix(1.00, 0.00, -0.00, -1.00, 69.0, 179.2)">B</text><text xml:space="preserve" font-family="HelveticaNeue-Medium,Helvetica Neue" font-size="17.0" fill="#EAEAEA" transform="matrix(1.00, 0.00, -0.00, -1.00, 81.0, 179.2)">u</text><text xml:space="preserve" font-family="HelveticaNeue-Medium,Helvetica Neue" font-size="17.0" fill="#EAEAEA" transform="matrix(1.00, 0.00, -0.00, -1.00, 90.7, 179.2)">t</text><text xml:space="preserve" font-family="HelveticaNeue-Medium,Helvetica Neue" font-size="17.0" fill="#EAEAEA" transform="matrix(1.00, 0.00, -0.00, -1.00, 96.4, 179.2)">t</text><text xml:space="preserve" font-family="HelveticaNeue-Medium,Helvetica Neue" font-size="17.0" fill="#EAEAEA" transform="matrix(1.00, 0.00, -0.00, -1.00, 102.0, 179.2)">o</text><text xml:space="preserve" font-family="HelveticaNeue-Medium,Helvetica Neue" font-size="17.0" fill="#EAEAEA" transform="matrix(1.00, 0.00, -0.00, -1.00, 112.1, 179.2)">n</text><text xml:space="preserve" font-family="HelveticaNeue-Medium,Helvetica Neue" font-size="17.0" fill="#EAEAEA" transform="matrix(1.00, 0.00, -0.00, -1.00, 121.9, 179.2)"> </text><text xml:space="preserve" font-family="HelveticaNeue-Medium,Helvetica Neue" font-size="17.0" fill="#EAEAEA" transform="matrix(1.00, 0.00, -0.00, -1.00, 126.6, 179.2)">(</text><text xml:space="preserve" font-family="HelveticaNeue-Medium,Helvetica Neue" font-size="17.0" fill="#EAEAEA" transform="matrix(1.00, 0.00, -0.00, -1.00, 131.3, 179.2)">i</text><text xml:space="preserve" font-family="HelveticaNeue-Medium,Helvetica Neue" font-size="17.0" fill="#EAEAEA" transform="matrix(1.00, 0.00, -0.00, -1.00, 135.4, 179.2)">n</text><text xml:space="preserve" font-family="HelveticaNeue-Medium,Helvetica Neue" font-size="17.0" fill="#EAEAEA" transform="matrix(1.00, 0.00, -0.00, -1.00, 145.2, 179.2)"> </text><text xml:space="preserve" font-family="HelveticaNeue-Medium,Helvetica Neue" font-size="17.0" fill="#EAEAEA" transform="matrix(1.00, 0.00, -0.00, -1.00, 149.9, 179.2)">i</text><text xml:space="preserve" font-family="HelveticaNeue-Medium,Helvetica Neue" font-size="17.0" fill="#EAEAEA" transform="matrix(1.00, 0.00, -0.00, -1.00, 154.0, 179.2)">O</text><text xml:space="preserve" font-family="HelveticaNeue-Medium,Helvetica Neue" font-size="17.0" fill="#EAEAEA" transform="matrix(1.00, 0.00, -0.00, -1.00, 166.9, 179.2)">S</text><text xml:space="preserve" font-family="HelveticaNeue-Medium,Helvetica Neue" font-size="17.0" fill="#EAEAEA" transform="matrix(1.00, 0.00, -0.00, -1.00, 178.0, 179.2)">)</text><text xml:space="preserve" font-family="HelveticaNeue-Medium,Helvetica Neue" font-size="17.0" fill="#EAEAEA" transform="matrix(1.00, 0.00, -0.00, -1.00, 182.7, 179.2)"> </text><image xlink:href="../../A67961D4-1AB6-4FAA-AFAB-D927DEB09814/assets/1B3055EFF3F33FE14EFACF0C6C7C8B07.png" width="14.00" height="14.00" transform="matrix(1.00, 0.00, -0.00, -1.00, 32.0, 149.0)"></image><text xml:space="preserve" font-family="HelveticaNeue-Medium,Helvetica Neue" font-size="12.8" fill="#EAEAEA" transform="matrix(1.00, 0.00, -0.00, -1.00, 36.0, 139.2)">•</text><image xlink:href="54ED1B2C402DB2CC7F39F845F9CB2BFC.png" width="154.00" height="25.00" transform="matrix(1.00, 0.00, -0.00, -1.00, 49.0, 152.0)"></image><text xml:space="preserve" font-family="HelveticaNeue-Medium,Helvetica Neue" font-size="17.0" fill="#EAEAEA" transform="matrix(1.00, 0.00, -0.00, -1.00, 52.0, 137.2)">B</text><text xml:space="preserve" font-family="HelveticaNeue-Medium,Helvetica Neue" font-size="17.0" fill="#EAEAEA" transform="matrix(1.00, 0.00, -0.00, -1.00, 64.0, 137.2)">u</text><text xml:space="preserve" font-family="HelveticaNeue-Medium,Helvetica Neue" font-size="17.0" fill="#EAEAEA" transform="matrix(1.00, 0.00, -0.00, -1.00, 73.7, 137.2)">t</text><text xml:space="preserve" font-family="HelveticaNeue-Medium,Helvetica Neue" font-size="17.0" fill="#EAEAEA" transform="matrix(1.00, 0.00, -0.00, -1.00, 79.4, 137.2)">t</text><text xml:space="preserve" font-family="HelveticaNeue-Medium,Helvetica Neue" font-size="17.0" fill="#EAEAEA" transform="matrix(1.00, 0.00, -0.00, -1.00, 85.0, 137.2)">o</text><text xml:space="preserve" font-family="HelveticaNeue-Medium,Helvetica Neue" font-size="17.0" fill="#EAEAEA" transform="matrix(1.00, 0.00, -0.00, -1.00, 95.1, 137.2)">n</text><text xml:space="preserve" font-family="HelveticaNeue-Medium,Helvetica Neue" font-size="17.0" fill="#EAEAEA" transform="matrix(1.00, 0.00, -0.00, -1.00, 104.9, 137.2)"> </text><text xml:space="preserve" font-family="HelveticaNeue-Medium,Helvetica Neue" font-size="17.0" fill="#EAEAEA" transform="matrix(1.00, 0.00, -0.00, -1.00, 109.6, 137.2)">(</text><text xml:space="preserve" font-family="HelveticaNeue-Medium,Helvetica Neue" font-size="17.0" fill="#EAEAEA" transform="matrix(1.00, 0.00, -0.00, -1.00, 114.3, 137.2)">i</text><text xml:space="preserve" font-family="HelveticaNeue-Medium,Helvetica Neue" font-size="17.0" fill="#EAEAEA" transform="matrix(1.00, 0.00, -0.00, -1.00, 118.4, 137.2)">n</text><text xml:space="preserve" font-family="HelveticaNeue-Medium,Helvetica Neue" font-size="17.0" fill="#EAEAEA" transform="matrix(1.00, 0.00, -0.00, -1.00, 128.2, 137.2)"> </text><text xml:space="preserve" font-family="HelveticaNeue-Medium,Helvetica Neue" font-size="17.0" fill="#EAEAEA" transform="matrix(1.00, 0.00, -0.00, -1.00, 132.9, 137.2)">A</text><text xml:space="preserve" font-family="HelveticaNeue-Medium,Helvetica Neue" font-size="17.0" fill="#EAEAEA" transform="matrix(1.00, 0.00, -0.00, -1.00, 144.3, 137.2)">n</text><text xml:space="preserve" font-family="HelveticaNeue-Medium,Helvetica Neue" font-size="17.0" fill="#EAEAEA" transform="matrix(1.00, 0.00, -0.00, -1.00, 154.0, 137.2)">d</text><text xml:space="preserve" font-family="HelveticaNeue-Medium,Helvetica Neue" font-size="17.0" fill="#EAEAEA" transform="matrix(1.00, 0.00, -0.00, -1.00, 164.4, 137.2)">r</text><text xml:space="preserve" font-family="HelveticaNeue-Medium,Helvetica Neue" font-size="17.0" fill="#EAEAEA" transform="matrix(1.00, 0.00, -0.00, -1.00, 170.1, 137.2)">o</text><text xml:space="preserve" font-family="HelveticaNeue-Medium,Helvetica Neue" font-size="17.0" fill="#EAEAEA" transform="matrix(1.00, 0.00, -0.00, -1.00, 180.2, 137.2)">i</text><text xml:space="preserve" font-family="HelveticaNeue-Medium,Helvetica Neue" font-size="17.0" fill="#EAEAEA" transform="matrix(1.00, 0.00, -0.00, -1.00, 184.3, 137.2)">d</text><text xml:space="preserve" font-family="HelveticaNeue-Medium,Helvetica Neue" font-size="17.0" fill="#EAEAEA" transform="matrix(1.00, 0.00, -0.00, -1.00, 194.6, 137.2)">)</text><text xml:space="preserve" font-family="HelveticaNeue-Medium,Helvetica Neue" font-size="17.0" fill="#EAEAEA" transform="matrix(1.00, 0.00, -0.00, -1.00, 199.4, 137.2)"> </text><image xlink:href="../../A67961D4-1AB6-4FAA-AFAB-D927DEB09814/assets/1B3055EFF3F33FE14EFACF0C6C7C8B07.png" width="14.00" height="14.00" transform="matrix(1.00, 0.00, -0.00, -1.00, 0.0, 107.0)"></image><text xml:space="preserve" font-family="HelveticaNeue-Medium,Helvetica Neue" font-size="12.8" fill="#EAEAEA" transform="matrix(1.00, 0.00, -0.00, -1.00, 4.0, 97.2)">•</text><image xlink:href="C79D57FB7FBF6305A56B99B17E57E55D.png" width="69.00" height="22.00" transform="matrix(1.00, 0.00, -0.00, -1.00, 16.0, 110.0)"></image><text xml:space="preserve" font-family="HelveticaNeue-Medium,Helvetica Neue" font-size="17.0" fill="#EAEAEA" transform="matrix(1.00, 0.00, -0.00, -1.00, 20.0, 95.2)">2</text><text xml:space="preserve" font-family="HelveticaNeue-Medium,Helvetica Neue" font-size="17.0" fill="#EAEAEA" transform="matrix(1.00, 0.00, -0.00, -1.00, 29.5, 95.2)"> </text><text xml:space="preserve" font-family="HelveticaNeue-Medium,Helvetica Neue" font-size="17.0" fill="#EAEAEA" transform="matrix(1.00, 0.00, -0.00, -1.00, 34.2, 95.2)">l</text><text xml:space="preserve" font-family="HelveticaNeue-Medium,Helvetica Neue" font-size="17.0" fill="#EAEAEA" transform="matrix(1.00, 0.00, -0.00, -1.00, 38.3, 95.2)">a</text><text xml:space="preserve" font-family="HelveticaNeue-Medium,Helvetica Neue" font-size="17.0" fill="#EAEAEA" transform="matrix(1.00, 0.00, -0.00, -1.00, 47.7, 95.2)">b</text><text xml:space="preserve" font-family="HelveticaNeue-Medium,Helvetica Neue" font-size="17.0" fill="#EAEAEA" transform="matrix(1.00, 0.00, -0.00, -1.00, 58.1, 95.2)">e</text><text xml:space="preserve" font-family="HelveticaNeue-Medium,Helvetica Neue" font-size="17.0" fill="#EAEAEA" transform="matrix(1.00, 0.00, -0.00, -1.00, 67.6, 95.2)">l</text><text xml:space="preserve" font-family="HelveticaNeue-Medium,Helvetica Neue" font-size="17.0" fill="#EAEAEA" transform="matrix(1.00, 0.00, -0.00, -1.00, 71.7, 95.2)">s</text><text xml:space="preserve" font-family="HelveticaNeue-Medium,Helvetica Neue" font-size="17.0" fill="#EAEAEA" transform="matrix(1.00, 0.00, -0.00, -1.00, 80.5, 95.2)"> </text><image xlink:href="../../A67961D4-1AB6-4FAA-AFAB-D927DEB09814/assets/1B3055EFF3F33FE14EFACF0C6C7C8B07.png" width="14.00" height="14.00" transform="matrix(1.00, 0.00, -0.00, -1.00, 32.0, 65.0)"></image><text xml:space="preserve" font-family="HelveticaNeue-Medium,Helvetica Neue" font-size="12.8" fill="#EAEAEA" transform="matrix(1.00, 0.00, -0.00, -1.00, 36.0, 55.2)">•</text><image xlink:href="../../A67961D4-1AB6-4FAA-AFAB-D927DEB09814/assets/81DA5CC39DD762B9AD61260E37C6E75F.png" width="137.00" height="25.00" transform="matrix(1.00, 0.00, -0.00, -1.00, 49.0, 68.0)"></image><text xml:space="preserve" font-family="HelveticaNeue-Medium,Helvetica Neue" font-size="17.0" fill="#EAEAEA" transform="matrix(1.00, 0.00, -0.00, -1.00, 52.0, 53.2)">U</text><text xml:space="preserve" font-family="HelveticaNeue-Medium,Helvetica Neue" font-size="17.0" fill="#EAEAEA" transform="matrix(1.00, 0.00, -0.00, -1.00, 64.3, 53.2)">I</text><text xml:space="preserve" font-family="HelveticaNeue-Medium,Helvetica Neue" font-size="17.0" fill="#EAEAEA" transform="matrix(1.00, 0.00, -0.00, -1.00, 69.0, 53.2)">B</text><text xml:space="preserve" font-family="HelveticaNeue-Medium,Helvetica Neue" font-size="17.0" fill="#EAEAEA" transform="matrix(1.00, 0.00, -0.00, -1.00, 81.0, 53.2)">u</text><text xml:space="preserve" font-family="HelveticaNeue-Medium,Helvetica Neue" font-size="17.0" fill="#EAEAEA" transform="matrix(1.00, 0.00, -0.00, -1.00, 90.7, 53.2)">t</text><text xml:space="preserve" font-family="HelveticaNeue-Medium,Helvetica Neue" font-size="17.0" fill="#EAEAEA" transform="matrix(1.00, 0.00, -0.00, -1.00, 96.4, 53.2)">t</text><text xml:space="preserve" font-family="HelveticaNeue-Medium,Helvetica Neue" font-size="17.0" fill="#EAEAEA" transform="matrix(1.00, 0.00, -0.00, -1.00, 102.0, 53.2)">o</text><text xml:space="preserve" font-family="HelveticaNeue-Medium,Helvetica Neue" font-size="17.0" fill="#EAEAEA" transform="matrix(1.00, 0.00, -0.00, -1.00, 112.1, 53.2)">n</text><text xml:space="preserve" font-family="HelveticaNeue-Medium,Helvetica Neue" font-size="17.0" fill="#EAEAEA" transform="matrix(1.00, 0.00, -0.00, -1.00, 121.9, 53.2)"> </text><text xml:space="preserve" font-family="HelveticaNeue-Medium,Helvetica Neue" font-size="17.0" fill="#EAEAEA" transform="matrix(1.00, 0.00, -0.00, -1.00, 126.6, 53.2)">(</text><text xml:space="preserve" font-family="HelveticaNeue-Medium,Helvetica Neue" font-size="17.0" fill="#EAEAEA" transform="matrix(1.00, 0.00, -0.00, -1.00, 131.3, 53.2)">i</text><text xml:space="preserve" font-family="HelveticaNeue-Medium,Helvetica Neue" font-size="17.0" fill="#EAEAEA" transform="matrix(1.00, 0.00, -0.00, -1.00, 135.4, 53.2)">n</text><text xml:space="preserve" font-family="HelveticaNeue-Medium,Helvetica Neue" font-size="17.0" fill="#EAEAEA" transform="matrix(1.00, 0.00, -0.00, -1.00, 145.2, 53.2)"> </text><text xml:space="preserve" font-family="HelveticaNeue-Medium,Helvetica Neue" font-size="17.0" fill="#EAEAEA" transform="matrix(1.00, 0.00, -0.00, -1.00, 149.9, 53.2)">i</text><text xml:space="preserve" font-family="HelveticaNeue-Medium,Helvetica Neue" font-size="17.0" fill="#EAEAEA" transform="matrix(1.00, 0.00, -0.00, -1.00, 154.0, 53.2)">O</text><text xml:space="preserve" font-family="HelveticaNeue-Medium,Helvetica Neue" font-size="17.0" fill="#EAEAEA" transform="matrix(1.00, 0.00, -0.00, -1.00, 166.9, 53.2)">S</text><text xml:space="preserve" font-family="HelveticaNeue-Medium,Helvetica Neue" font-size="17.0" fill="#EAEAEA" transform="matrix(1.00, 0.00, -0.00, -1.00, 178.0, 53.2)">)</text><text xml:space="preserve" font-family="HelveticaNeue-Medium,Helvetica Neue" font-size="17.0" fill="#EAEAEA" transform="matrix(1.00, 0.00, -0.00, -1.00, 182.7, 53.2)"> </text><image xlink:href="../../A67961D4-1AB6-4FAA-AFAB-D927DEB09814/assets/1B3055EFF3F33FE14EFACF0C6C7C8B07.png" width="14.00" height="14.00" transform="matrix(1.00, 0.00, -0.00, -1.00, 32.0, 23.0)"></image><text xml:space="preserve" font-family="HelveticaNeue-Medium,Helvetica Neue" font-size="12.8" fill="#EAEAEA" transform="matrix(1.00, 0.00, -0.00, -1.00, 36.0, 13.2)">•</text><image xlink:href="../../A67961D4-1AB6-4FAA-AFAB-D927DEB09814/assets/54ED1B2C402DB2CC7F39F845F9CB2BFC.png" width="154.00" height="25.00" transform="matrix(1.00, 0.00, -0.00, -1.00, 49.0, 26.0)"></image><text xml:space="preserve" font-family="HelveticaNeue-Medium,Helvetica Neue" font-size="17.0" fill="#EAEAEA" transform="matrix(1.00, 0.00, -0.00, -1.00, 52.0, 11.2)">B</text><text xml:space="preserve" font-family="HelveticaNeue-Medium,Helvetica Neue" font-size="17.0" fill="#EAEAEA" transform="matrix(1.00, 0.00, -0.00, -1.00, 64.0, 11.2)">u</text><text xml:space="preserve" font-family="HelveticaNeue-Medium,Helvetica Neue" font-size="17.0" fill="#EAEAEA" transform="matrix(1.00, 0.00, -0.00, -1.00, 73.7, 11.2)">t</text><text xml:space="preserve" font-family="HelveticaNeue-Medium,Helvetica Neue" font-size="17.0" fill="#EAEAEA" transform="matrix(1.00, 0.00, -0.00, -1.00, 79.4, 11.2)">t</text><text xml:space="preserve" font-family="HelveticaNeue-Medium,Helvetica Neue" font-size="17.0" fill="#EAEAEA" transform="matrix(1.00, 0.00, -0.00, -1.00, 85.0, 11.2)">o</text><text xml:space="preserve" font-family="HelveticaNeue-Medium,Helvetica Neue" font-size="17.0" fill="#EAEAEA" transform="matrix(1.00, 0.00, -0.00, -1.00, 95.1, 11.2)">n</text><text xml:space="preserve" font-family="HelveticaNeue-Medium,Helvetica Neue" font-size="17.0" fill="#EAEAEA" transform="matrix(1.00, 0.00, -0.00, -1.00, 104.9, 11.2)"> </text><text xml:space="preserve" font-family="HelveticaNeue-Medium,Helvetica Neue" font-size="17.0" fill="#EAEAEA" transform="matrix(1.00, 0.00, -0.00, -1.00, 109.6, 11.2)">(</text><text xml:space="preserve" font-family="HelveticaNeue-Medium,Helvetica Neue" font-size="17.0" fill="#EAEAEA" transform="matrix(1.00, 0.00, -0.00, -1.00, 114.3, 11.2)">i</text><text xml:space="preserve" font-family="HelveticaNeue-Medium,Helvetica Neue" font-size="17.0" fill="#EAEAEA" transform="matrix(1.00, 0.00, -0.00, -1.00, 118.4, 11.2)">n</text><text xml:space="preserve" font-family="HelveticaNeue-Medium,Helvetica Neue" font-size="17.0" fill="#EAEAEA" transform="matrix(1.00, 0.00, -0.00, -1.00, 128.2, 11.2)"> </text><text xml:space="preserve" font-family="HelveticaNeue-Medium,Helvetica Neue" font-size="17.0" fill="#EAEAEA" transform="matrix(1.00, 0.00, -0.00, -1.00, 132.9, 11.2)">A</text><text xml:space="preserve" font-family="HelveticaNeue-Medium,Helvetica Neue" font-size="17.0" fill="#EAEAEA" transform="matrix(1.00, 0.00, -0.00, -1.00, 144.3, 11.2)">n</text><text xml:space="preserve" font-family="HelveticaNeue-Medium,Helvetica Neue" font-size="17.0" fill="#EAEAEA" transform="matrix(1.00, 0.00, -0.00, -1.00, 154.0, 11.2)">d</text><text xml:space="preserve" font-family="HelveticaNeue-Medium,Helvetica Neue" font-size="17.0" fill="#EAEAEA" transform="matrix(1.00, 0.00, -0.00, -1.00, 164.4, 11.2)">r</text><text xml:space="preserve" font-family="HelveticaNeue-Medium,Helvetica Neue" font-size="17.0" fill="#EAEAEA" transform="matrix(1.00, 0.00, -0.00, -1.00, 170.1, 11.2)">o</text><text xml:space="preserve" font-family="HelveticaNeue-Medium,Helvetica Neue" font-size="17.0" fill="#EAEAEA" transform="matrix(1.00, 0.00, -0.00, -1.00, 180.2, 11.2)">i</text><text xml:space="preserve" font-family="HelveticaNeue-Medium,Helvetica Neue" font-size="17.0" fill="#EAEAEA" transform="matrix(1.00, 0.00, -0.00, -1.00, 184.3, 11.2)">d</text><text xml:space="preserve" font-family="HelveticaNeue-Medium,Helvetica Neue" font-size="17.0" fill="#EAEAEA" transform="matrix(1.00, 0.00, -0.00, -1.00, 194.6, 11.2)">)</text></g></svg>