<?xml version="1.0" encoding="UTF-8" standalone="no"?><svg xmlns="http://www.w3.org/2000/svg" xmlns:xlink="http://www.w3.org/1999/xlink" clip-rule="evenodd" stroke-miterlimit="10" viewBox="0 0 137 213"><desc>SVG generated by Keynote</desc><defs></defs><g transform="matrix(1.00, 0.00, -0.00, -1.00, 0.0, 213.0)"><g><clipPath id="clip0x7ff611d0bf10"><path d="M 0.2 0.2 L 136.8 0.2 L 136.8 212.4 L 0.2 212.4 Z M 0.2 0.2 "></path></clipPath><g clip-path="url(#clip0x7ff611d0bf10)"><path d="M -0.2 0.4 L 133.8 0.4 L 133.8 209.4 L -0.2 209.4 Z M 0.0 0.0 " fill="none" stroke="#EEEEEE" stroke-width="1.00" transform="matrix(1.00, 0.00, 0.00, -1.00, 1.7, 210.9)"></path></g></g><g><clipPath id="clip0x7ff611d0d430"><path d="M 17.9 159.3 L 119.7 159.3 L 119.7 176.8 L 17.9 176.8 Z M 17.9 159.3 "></path></clipPath><g clip-path="url(#clip0x7ff611d0d430)"><path d="M 0.1 7.3 L 0.1 7.0 C 0.1 3.1 3.1 -0.2 7.0 -0.2 L 91.8 -0.2 C 95.7 -0.2 99.1 3.1 99.1 7.0 L 99.1 7.5 C 99.1 11.4 95.7 14.8 91.8 14.8 L 7.0 14.8 C 3.1 14.8 0.1 11.1 0.1 7.3 Z M 0.0 7.5 " fill="none" stroke="#EEEEEE" stroke-width="1.00" transform="matrix(1.00, 0.00, 0.00, -1.00, 19.4, 175.3)"></path></g></g><g><clipPath id="clip0x7ff611d0fec0"><path d="M 17.9 62.5 L 119.7 62.5 L 119.7 80.0 L 17.9 80.0 Z M 17.9 62.5 "></path></clipPath><g clip-path="url(#clip0x7ff611d0fec0)"><path d="M 0.1 7.5 L 0.1 7.0 C 0.1 3.1 3.1 -0.0 7.0 -0.0 L 91.8 -0.0 C 95.7 -0.0 99.1 3.1 99.1 7.0 L 99.1 7.5 C 99.1 11.4 95.7 14.0 91.8 14.0 L 7.0 14.0 C 3.1 14.0 0.1 11.3 0.1 7.5 Z M 0.0 7.5 " fill="none" stroke="#EEEEEE" stroke-width="1.00" transform="matrix(1.00, 0.00, 0.00, -1.00, 19.4, 78.5)"></path></g></g><image xlink:href="../../C4386AA6-5CBA-4358-89C5-C6072D2F9ABB/assets/955E781B503BBAC45C95C9BDCC95F878.png" width="22.00" height="1.00" transform="matrix(1.00, 0.00, -0.00, -1.00, 46.0, 70.0)"></image><g><clipPath id="clip0x7ff611d12490"><path d="M 38.8 69.5 L 98.8 69.5 L 98.8 73.5 L 38.8 73.5 Z M 38.8 69.5 "></path></clipPath><g clip-path="url(#clip0x7ff611d12490)"><text xml:space="preserve" font-family="HelveticaNeue-Medium,Helvetica Neue" font-size="22.0" fill="#FEFFFE" transform="matrix(1.00, 0.00, -0.00, -1.00, 49.5, 51.9)">A</text><text xml:space="preserve" font-family="HelveticaNeue-Medium,Helvetica Neue" font-size="22.0" fill="#FEFFFE" transform="matrix(1.00, 0.00, -0.00, -1.00, 64.1, 51.9)">n</text><text xml:space="preserve" font-family="HelveticaNeue-Medium,Helvetica Neue" font-size="22.0" fill="#FEFFFE" transform="matrix(1.00, 0.00, -0.00, -1.00, 76.8, 51.9)">s</text></g></g><image xlink:href="../../C4386AA6-5CBA-4358-89C5-C6072D2F9ABB/assets/7809A46340ACFD314E1718006223FF76.png" width="32.00" height="2.00" transform="matrix(1.00, 0.00, -0.00, -1.00, 46.0, 47.0)"></image><g><clipPath id="clip0x7ff611d0a490"><path d="M 36.6 45.6 L 101.1 45.6 L 101.1 49.6 L 36.6 49.6 Z M 36.6 45.6 "></path></clipPath><g clip-path="url(#clip0x7ff611d0a490)"><text xml:space="preserve" font-family="HelveticaNeue-Medium,Helvetica Neue" font-size="22.0" fill="#FEFFFE" transform="matrix(1.00, 0.00, -0.00, -1.00, 48.9, 28.0)">S</text><text xml:space="preserve" font-family="HelveticaNeue-Medium,Helvetica Neue" font-size="22.0" fill="#FEFFFE" transform="matrix(1.00, 0.00, -0.00, -1.00, 63.1, 28.0)">h</text><text xml:space="preserve" font-family="HelveticaNeue-Medium,Helvetica Neue" font-size="22.0" fill="#FEFFFE" transform="matrix(1.00, 0.00, -0.00, -1.00, 75.7, 28.0)">o</text></g></g><image xlink:href="../../C4386AA6-5CBA-4358-89C5-C6072D2F9ABB/assets/2C87F199A199DCEC16CC4F3B8374B5F3.png" width="32.00" height="1.00" transform="matrix(1.00, 0.00, -0.00, -1.00, 46.0, 145.0)"></image><g><clipPath id="clip0x7ff611d03090"><path d="M 33.8 144.4 L 103.9 144.4 L 103.9 148.4 L 33.8 148.4 Z M 33.8 144.4 "></path></clipPath><g clip-path="url(#clip0x7ff611d03090)"><text xml:space="preserve" font-family="HelveticaNeue-Medium,Helvetica Neue" font-size="22.0" fill="#FEFFFE" transform="matrix(1.00, 0.00, -0.00, -1.00, 48.9, 126.8)">S</text><text xml:space="preserve" font-family="HelveticaNeue-Medium,Helvetica Neue" font-size="22.0" fill="#FEFFFE" transform="matrix(1.00, 0.00, -0.00, -1.00, 63.1, 126.8)">h</text><text xml:space="preserve" font-family="HelveticaNeue-Medium,Helvetica Neue" font-size="22.0" fill="#FEFFFE" transform="matrix(1.00, 0.00, -0.00, -1.00, 75.7, 126.8)">o</text></g></g><image xlink:href="../../C4386AA6-5CBA-4358-89C5-C6072D2F9ABB/assets/FE1C931DDBB43400AEB4AB1F18911F06.png" width="22.00" height="1.00" transform="matrix(1.00, 0.00, -0.00, -1.00, 45.0, 167.0)"></image><g><clipPath id="clip0x7ff611d01130"><path d="M 36.0 166.2 L 101.6 166.2 L 101.6 170.2 L 36.0 170.2 Z M 36.0 166.2 "></path></clipPath><g clip-path="url(#clip0x7ff611d01130)"><text xml:space="preserve" font-family="HelveticaNeue-Medium,Helvetica Neue" font-size="22.0" fill="#FEFFFE" transform="matrix(1.00, 0.00, -0.00, -1.00, 48.0, 148.6)">Q</text><text xml:space="preserve" font-family="HelveticaNeue-Medium,Helvetica Neue" font-size="22.0" fill="#FEFFFE" transform="matrix(1.00, 0.00, -0.00, -1.00, 64.8, 148.6)">u</text><text xml:space="preserve" font-family="HelveticaNeue-Medium,Helvetica Neue" font-size="22.0" fill="#FEFFFE" transform="matrix(1.00, 0.00, -0.00, -1.00, 77.4, 148.6)">e</text></g></g></g></svg>