<?xml version="1.0" encoding="UTF-8" standalone="no"?><svg xmlns="http://www.w3.org/2000/svg" xmlns:xlink="http://www.w3.org/1999/xlink" clip-rule="evenodd" stroke-miterlimit="10" viewBox="0 0 1024 768"><desc>SVG generated by Keynote</desc><defs></defs><g transform="matrix(1.00, 0.00, -0.00, -1.00, 0.0, 768.0)"><g><clipPath id="clip0x7ff62f7514f0"><path d="M 0.0 768.0 L 1024.0 768.0 L 1024.0 0.0 L 0.0 0.0 Z M 0.0 768.0 "></path></clipPath><g clip-path="url(#clip0x7ff62f7514f0)"><image xlink:href="../../BE4D2DDB-FBE4-467E-AE38-B34F9028D09E/assets/9397CAD6F20342ACC2646ABBCA758461.jpeg" width="2048.00" height="1536.00" transform="matrix(0.50, 0.00, -0.00, -0.50, 0.0, 768.0)"></image></g></g><image xlink:href="../../057240CE-1915-45B7-A7E7-B263DFC90716/assets/CD036CB0BEB3F492E73AC0BA0D9748DD.png" width="508.00" height="68.00" transform="matrix(1.00, 0.00, -0.00, -1.00, 257.0, 710.0)"></image><text xml:space="preserve" font-family="HelveticaNeue-Bold,Helvetica Neue" font-weight="bold" font-size="64.0" fill="#FEFFFE" transform="matrix(1.00, 0.00, -0.00, -1.00, 260.1, 660.7)">5</text><text xml:space="preserve" font-family="HelveticaNeue-Bold,Helvetica Neue" font-weight="bold" font-size="64.0" fill="#FEFFFE" transform="matrix(1.00, 0.00, -0.00, -1.00, 295.7, 660.7)">.</text><text xml:space="preserve" font-family="HelveticaNeue-Bold,Helvetica Neue" font-weight="bold" font-size="64.0" fill="#FEFFFE" transform="matrix(1.00, 0.00, -0.00, -1.00, 313.5, 660.7)"> </text><text xml:space="preserve" font-family="HelveticaNeue-Bold,Helvetica Neue" font-weight="bold" font-size="64.0" fill="#FEFFFE" transform="matrix(1.00, 0.00, -0.00, -1.00, 331.3, 660.7)">S</text><text xml:space="preserve" font-family="HelveticaNeue-Bold,Helvetica Neue" font-weight="bold" font-size="64.0" fill="#FEFFFE" transform="matrix(1.00, 0.00, -0.00, -1.00, 372.8, 660.7)">t</text><text xml:space="preserve" font-family="HelveticaNeue-Bold,Helvetica Neue" font-weight="bold" font-size="64.0" fill="#FEFFFE" transform="matrix(1.00, 0.00, -0.00, -1.00, 395.3, 660.7)">o</text><text xml:space="preserve" font-family="HelveticaNeue-Bold,Helvetica Neue" font-weight="bold" font-size="64.0" fill="#FEFFFE" transform="matrix(1.00, 0.00, -0.00, -1.00, 434.4, 660.7)">r</text><text xml:space="preserve" font-family="HelveticaNeue-Bold,Helvetica Neue" font-weight="bold" font-size="64.0" fill="#FEFFFE" transform="matrix(1.00, 0.00, -0.00, -1.00, 459.3, 660.7)">y</text><text xml:space="preserve" font-family="HelveticaNeue-Bold,Helvetica Neue" font-weight="bold" font-size="64.0" fill="#FEFFFE" transform="matrix(1.00, 0.00, -0.00, -1.00, 492.5, 660.7)">b</text><text xml:space="preserve" font-family="HelveticaNeue-Bold,Helvetica Neue" font-weight="bold" font-size="64.0" fill="#FEFFFE" transform="matrix(1.00, 0.00, -0.00, -1.00, 531.6, 660.7)">o</text><text xml:space="preserve" font-family="HelveticaNeue-Bold,Helvetica Neue" font-weight="bold" font-size="64.0" fill="#FEFFFE" transform="matrix(1.00, 0.00, -0.00, -1.00, 570.8, 660.7)">a</text><text xml:space="preserve" font-family="HelveticaNeue-Bold,Helvetica Neue" font-weight="bold" font-size="64.0" fill="#FEFFFE" transform="matrix(1.00, 0.00, -0.00, -1.00, 607.5, 660.7)">r</text><text xml:space="preserve" font-family="HelveticaNeue-Bold,Helvetica Neue" font-weight="bold" font-size="64.0" fill="#FEFFFE" transform="matrix(1.00, 0.00, -0.00, -1.00, 631.2, 660.7)">d</text><text xml:space="preserve" font-family="HelveticaNeue-Bold,Helvetica Neue" font-weight="bold" font-size="64.0" fill="#FEFFFE" transform="matrix(1.00, 0.00, -0.00, -1.00, 670.3, 660.7)">i</text><text xml:space="preserve" font-family="HelveticaNeue-Bold,Helvetica Neue" font-weight="bold" font-size="64.0" fill="#FEFFFE" transform="matrix(1.00, 0.00, -0.00, -1.00, 686.8, 660.7)">n</text><text xml:space="preserve" font-family="HelveticaNeue-Bold,Helvetica Neue" font-weight="bold" font-size="64.0" fill="#FEFFFE" transform="matrix(1.00, 0.00, -0.00, -1.00, 724.8, 660.7)">g</text><g><clipPath id="clip0x7ff62f75be30"><path d="M 330.2 33.2 L 466.8 33.2 L 466.8 245.4 L 330.2 245.4 Z M 330.2 33.2 "></path></clipPath><g clip-path="url(#clip0x7ff62f75be30)"><path d="M -0.2 0.4 L 133.8 0.4 L 133.8 209.4 L -0.2 209.4 Z M 0.0 0.0 " fill="none" stroke="#EEEEEE" stroke-width="1.00" transform="matrix(1.00, 0.00, 0.00, -1.00, 331.7, 243.9)"></path></g></g><g><clipPath id="clip0x7ff62f75ced0"><path d="M 347.9 192.3 L 449.7 192.3 L 449.7 209.8 L 347.9 209.8 Z M 347.9 192.3 "></path></clipPath><g clip-path="url(#clip0x7ff62f75ced0)"><path d="M 0.1 7.3 L 0.1 7.0 C 0.1 3.1 3.1 -0.2 7.0 -0.2 L 91.8 -0.2 C 95.7 -0.2 99.1 3.1 99.1 7.0 L 99.1 7.5 C 99.1 11.4 95.7 14.8 91.8 14.8 L 7.0 14.8 C 3.1 14.8 0.1 11.1 0.1 7.3 Z M 0.0 7.5 " fill="none" stroke="#EEEEEE" stroke-width="1.00" transform="matrix(1.00, 0.00, 0.00, -1.00, 349.4, 208.3)"></path></g></g><g><clipPath id="clip0x7ff62f75e310"><path d="M 347.9 95.5 L 449.7 95.5 L 449.7 113.0 L 347.9 113.0 Z M 347.9 95.5 "></path></clipPath><g clip-path="url(#clip0x7ff62f75e310)"><path d="M 0.1 7.5 L 0.1 7.0 C 0.1 3.1 3.1 -0.0 7.0 -0.0 L 91.8 -0.0 C 95.7 -0.0 99.1 3.1 99.1 7.0 L 99.1 7.5 C 99.1 11.4 95.7 14.0 91.8 14.0 L 7.0 14.0 C 3.1 14.0 0.1 11.3 0.1 7.5 Z M 0.0 7.5 " fill="none" stroke="#EEEEEE" stroke-width="1.00" transform="matrix(1.00, 0.00, 0.00, -1.00, 349.4, 111.5)"></path></g></g><image xlink:href="../../C4386AA6-5CBA-4358-89C5-C6072D2F9ABB/assets/955E781B503BBAC45C95C9BDCC95F878.png" width="22.00" height="1.00" transform="matrix(1.00, 0.00, -0.00, -1.00, 376.0, 103.0)"></image><g><clipPath id="clip0x7ff62f760930"><path d="M 368.8 102.5 L 428.8 102.5 L 428.8 106.5 L 368.8 106.5 Z M 368.8 102.5 "></path></clipPath><g clip-path="url(#clip0x7ff62f760930)"><text xml:space="preserve" font-family="HelveticaNeue-Medium,Helvetica Neue" font-size="22.0" fill="#FEFFFE" transform="matrix(1.00, 0.00, -0.00, -1.00, 379.5, 84.9)">A</text><text xml:space="preserve" font-family="HelveticaNeue-Medium,Helvetica Neue" font-size="22.0" fill="#FEFFFE" transform="matrix(1.00, 0.00, -0.00, -1.00, 394.1, 84.9)">n</text><text xml:space="preserve" font-family="HelveticaNeue-Medium,Helvetica Neue" font-size="22.0" fill="#FEFFFE" transform="matrix(1.00, 0.00, -0.00, -1.00, 406.8, 84.9)">s</text></g></g><image xlink:href="../../C4386AA6-5CBA-4358-89C5-C6072D2F9ABB/assets/7809A46340ACFD314E1718006223FF76.png" width="32.00" height="2.00" transform="matrix(1.00, 0.00, -0.00, -1.00, 376.0, 80.0)"></image><g><clipPath id="clip0x7ff62f765300"><path d="M 366.6 78.6 L 431.1 78.6 L 431.1 82.6 L 366.6 82.6 Z M 366.6 78.6 "></path></clipPath><g clip-path="url(#clip0x7ff62f765300)"><text xml:space="preserve" font-family="HelveticaNeue-Medium,Helvetica Neue" font-size="22.0" fill="#FEFFFE" transform="matrix(1.00, 0.00, -0.00, -1.00, 378.9, 61.0)">S</text><text xml:space="preserve" font-family="HelveticaNeue-Medium,Helvetica Neue" font-size="22.0" fill="#FEFFFE" transform="matrix(1.00, 0.00, -0.00, -1.00, 393.1, 61.0)">h</text><text xml:space="preserve" font-family="HelveticaNeue-Medium,Helvetica Neue" font-size="22.0" fill="#FEFFFE" transform="matrix(1.00, 0.00, -0.00, -1.00, 405.7, 61.0)">o</text></g></g><image xlink:href="../../C4386AA6-5CBA-4358-89C5-C6072D2F9ABB/assets/2C87F199A199DCEC16CC4F3B8374B5F3.png" width="32.00" height="1.00" transform="matrix(1.00, 0.00, -0.00, -1.00, 376.0, 178.0)"></image><g><clipPath id="clip0x7ff62f768600"><path d="M 363.8 177.4 L 433.9 177.4 L 433.9 181.4 L 363.8 181.4 Z M 363.8 177.4 "></path></clipPath><g clip-path="url(#clip0x7ff62f768600)"><text xml:space="preserve" font-family="HelveticaNeue-Medium,Helvetica Neue" font-size="22.0" fill="#FEFFFE" transform="matrix(1.00, 0.00, -0.00, -1.00, 378.9, 159.8)">S</text><text xml:space="preserve" font-family="HelveticaNeue-Medium,Helvetica Neue" font-size="22.0" fill="#FEFFFE" transform="matrix(1.00, 0.00, -0.00, -1.00, 393.1, 159.8)">h</text><text xml:space="preserve" font-family="HelveticaNeue-Medium,Helvetica Neue" font-size="22.0" fill="#FEFFFE" transform="matrix(1.00, 0.00, -0.00, -1.00, 405.7, 159.8)">o</text></g></g><image xlink:href="../../C4386AA6-5CBA-4358-89C5-C6072D2F9ABB/assets/FE1C931DDBB43400AEB4AB1F18911F06.png" width="22.00" height="1.00" transform="matrix(1.00, 0.00, -0.00, -1.00, 375.0, 200.0)"></image><g><clipPath id="clip0x7ff62f76bdc0"><path d="M 366.0 199.2 L 431.6 199.2 L 431.6 203.2 L 366.0 203.2 Z M 366.0 199.2 "></path></clipPath><g clip-path="url(#clip0x7ff62f76bdc0)"><text xml:space="preserve" font-family="HelveticaNeue-Medium,Helvetica Neue" font-size="22.0" fill="#FEFFFE" transform="matrix(1.00, 0.00, -0.00, -1.00, 378.0, 181.6)">Q</text><text xml:space="preserve" font-family="HelveticaNeue-Medium,Helvetica Neue" font-size="22.0" fill="#FEFFFE" transform="matrix(1.00, 0.00, -0.00, -1.00, 394.8, 181.6)">u</text><text xml:space="preserve" font-family="HelveticaNeue-Medium,Helvetica Neue" font-size="22.0" fill="#FEFFFE" transform="matrix(1.00, 0.00, -0.00, -1.00, 407.4, 181.6)">e</text></g></g><g><clipPath id="clip0x7ff62f76e370"><path d="M 784.2 167.9 L 920.8 167.9 L 920.8 380.0 L 784.2 380.0 Z M 784.2 167.9 "></path></clipPath><g clip-path="url(#clip0x7ff62f76e370)"><path d="M -0.2 0.0 L 133.8 0.0 L 133.8 209.0 L -0.2 209.0 Z M 0.0 0.0 " fill="none" stroke="#EEEEEE" stroke-width="1.00" transform="matrix(1.00, 0.00, 0.00, -1.00, 785.7, 378.5)"></path></g></g><g><clipPath id="clip0x7ff62f76f3b0"><path d="M 801.9 326.9 L 903.7 326.9 L 903.7 344.4 L 801.9 344.4 Z M 801.9 326.9 "></path></clipPath><g clip-path="url(#clip0x7ff62f76f3b0)"><path d="M 0.1 7.9 L 0.1 7.0 C 0.1 3.1 3.1 0.4 7.0 0.4 L 91.8 0.4 C 95.7 0.4 99.1 3.1 99.1 7.0 L 99.1 7.5 C 99.1 11.4 95.7 14.4 91.8 14.4 L 7.0 14.4 C 3.1 14.4 0.1 11.7 0.1 7.9 Z M 0.0 7.5 " fill="none" stroke="#EEEEEE" stroke-width="1.00" transform="matrix(1.00, 0.00, 0.00, -1.00, 803.4, 342.9)"></path></g></g><g><clipPath id="clip0x7ff62f7707e0"><path d="M 801.9 230.1 L 903.7 230.1 L 903.7 247.6 L 801.9 247.6 Z M 801.9 230.1 "></path></clipPath><g clip-path="url(#clip0x7ff62f7707e0)"><path d="M 0.1 7.1 L 0.1 7.0 C 0.1 3.1 3.1 -0.4 7.0 -0.4 L 91.8 -0.4 C 95.7 -0.4 99.1 3.1 99.1 7.0 L 99.1 7.5 C 99.1 11.4 95.7 14.6 91.8 14.6 L 7.0 14.6 C 3.1 14.6 0.1 11.0 0.1 7.1 Z M 0.0 7.5 " fill="none" stroke="#EEEEEE" stroke-width="1.00" transform="matrix(1.00, 0.00, 0.00, -1.00, 803.4, 246.1)"></path></g></g><image xlink:href="../../C4386AA6-5CBA-4358-89C5-C6072D2F9ABB/assets/C81C37BE4437815918AE90FBA4F68984.png" width="22.00" height="1.00" transform="matrix(1.00, 0.00, -0.00, -1.00, 830.0, 238.0)"></image><g><clipPath id="clip0x7ff62f772950"><path d="M 822.8 237.1 L 882.8 237.1 L 882.8 241.1 L 822.8 241.1 Z M 822.8 237.1 "></path></clipPath><g clip-path="url(#clip0x7ff62f772950)"><text xml:space="preserve" font-family="HelveticaNeue-Medium,Helvetica Neue" font-size="22.0" fill="#FEFFFE" transform="matrix(1.00, 0.00, -0.00, -1.00, 833.5, 219.5)">A</text><text xml:space="preserve" font-family="HelveticaNeue-Medium,Helvetica Neue" font-size="22.0" fill="#FEFFFE" transform="matrix(1.00, 0.00, -0.00, -1.00, 848.1, 219.5)">n</text><text xml:space="preserve" font-family="HelveticaNeue-Medium,Helvetica Neue" font-size="22.0" fill="#FEFFFE" transform="matrix(1.00, 0.00, -0.00, -1.00, 860.8, 219.5)">s</text></g></g><image xlink:href="../../C4386AA6-5CBA-4358-89C5-C6072D2F9ABB/assets/E2EF725C6917AAECFA8A81A2D63ACFE2.png" width="32.00" height="1.00" transform="matrix(1.00, 0.00, -0.00, -1.00, 830.0, 214.0)"></image><g><clipPath id="clip0x7ff62f713f40"><path d="M 820.6 213.3 L 885.1 213.3 L 885.1 217.3 L 820.6 217.3 Z M 820.6 213.3 "></path></clipPath><g clip-path="url(#clip0x7ff62f713f40)"><text xml:space="preserve" font-family="HelveticaNeue-Medium,Helvetica Neue" font-size="22.0" fill="#FEFFFE" transform="matrix(1.00, 0.00, -0.00, -1.00, 832.9, 195.7)">S</text><text xml:space="preserve" font-family="HelveticaNeue-Medium,Helvetica Neue" font-size="22.0" fill="#FEFFFE" transform="matrix(1.00, 0.00, -0.00, -1.00, 847.1, 195.7)">h</text><text xml:space="preserve" font-family="HelveticaNeue-Medium,Helvetica Neue" font-size="22.0" fill="#FEFFFE" transform="matrix(1.00, 0.00, -0.00, -1.00, 859.7, 195.7)">o</text></g></g><image xlink:href="../../C4386AA6-5CBA-4358-89C5-C6072D2F9ABB/assets/6537D5255CAEDFAC17A60A7E17AA6E58.png" width="32.00" height="1.00" transform="matrix(1.00, 0.00, -0.00, -1.00, 830.0, 313.0)"></image><g><clipPath id="clip0x7ff62f70e2c0"><path d="M 817.8 312.0 L 887.9 312.0 L 887.9 316.0 L 817.8 316.0 Z M 817.8 312.0 "></path></clipPath><g clip-path="url(#clip0x7ff62f70e2c0)"><text xml:space="preserve" font-family="HelveticaNeue-Medium,Helvetica Neue" font-size="22.0" fill="#FEFFFE" transform="matrix(1.00, 0.00, -0.00, -1.00, 832.9, 294.4)">S</text><text xml:space="preserve" font-family="HelveticaNeue-Medium,Helvetica Neue" font-size="22.0" fill="#FEFFFE" transform="matrix(1.00, 0.00, -0.00, -1.00, 847.1, 294.4)">h</text><text xml:space="preserve" font-family="HelveticaNeue-Medium,Helvetica Neue" font-size="22.0" fill="#FEFFFE" transform="matrix(1.00, 0.00, -0.00, -1.00, 859.7, 294.4)">o</text></g></g><image xlink:href="../../C4386AA6-5CBA-4358-89C5-C6072D2F9ABB/assets/C8B80E175D9BEB8344E725090EAB765A.png" width="22.00" height="2.00" transform="matrix(1.00, 0.00, -0.00, -1.00, 829.0, 335.0)"></image><g><clipPath id="clip0x7ff62f7015a0"><path d="M 820.0 333.9 L 885.6 333.9 L 885.6 337.9 L 820.0 337.9 Z M 820.0 333.9 "></path></clipPath><g clip-path="url(#clip0x7ff62f7015a0)"><text xml:space="preserve" font-family="HelveticaNeue-Medium,Helvetica Neue" font-size="22.0" fill="#FEFFFE" transform="matrix(1.00, 0.00, -0.00, -1.00, 832.0, 316.3)">Q</text><text xml:space="preserve" font-family="HelveticaNeue-Medium,Helvetica Neue" font-size="22.0" fill="#FEFFFE" transform="matrix(1.00, 0.00, -0.00, -1.00, 848.8, 316.3)">u</text><text xml:space="preserve" font-family="HelveticaNeue-Medium,Helvetica Neue" font-size="22.0" fill="#FEFFFE" transform="matrix(1.00, 0.00, -0.00, -1.00, 861.4, 316.3)">e</text></g></g><g><clipPath id="clip0x7ff62f703b50"><path d="M 330.2 346.2 L 466.8 346.2 L 466.8 558.4 L 330.2 558.4 Z M 330.2 346.2 "></path></clipPath><g clip-path="url(#clip0x7ff62f703b50)"><path d="M -0.2 0.4 L 133.8 0.4 L 133.8 209.4 L -0.2 209.4 Z M 0.0 0.0 " fill="none" stroke="#EEEEEE" stroke-width="1.00" transform="matrix(1.00, 0.00, 0.00, -1.00, 331.7, 556.9)"></path></g></g><g><clipPath id="clip0x7ff62f704b90"><path d="M 347.9 505.3 L 449.7 505.3 L 449.7 522.8 L 347.9 522.8 Z M 347.9 505.3 "></path></clipPath><g clip-path="url(#clip0x7ff62f704b90)"><path d="M 0.1 7.3 L 0.1 7.0 C 0.1 3.1 3.1 -0.2 7.0 -0.2 L 91.8 -0.2 C 95.7 -0.2 99.1 3.1 99.1 7.0 L 99.1 7.5 C 99.1 11.4 95.7 14.8 91.8 14.8 L 7.0 14.8 C 3.1 14.8 0.1 11.1 0.1 7.3 Z M 0.0 7.5 " fill="none" stroke="#EEEEEE" stroke-width="1.00" transform="matrix(1.00, 0.00, 0.00, -1.00, 349.4, 521.3)"></path></g></g><g><clipPath id="clip0x7ff62f705fc0"><path d="M 347.9 408.5 L 449.7 408.5 L 449.7 426.0 L 347.9 426.0 Z M 347.9 408.5 "></path></clipPath><g clip-path="url(#clip0x7ff62f705fc0)"><path d="M 0.1 7.5 L 0.1 7.0 C 0.1 3.1 3.1 -0.0 7.0 -0.0 L 91.8 -0.0 C 95.7 -0.0 99.1 3.1 99.1 7.0 L 99.1 7.5 C 99.1 11.4 95.7 14.0 91.8 14.0 L 7.0 14.0 C 3.1 14.0 0.1 11.3 0.1 7.5 Z M 0.0 7.5 " fill="none" stroke="#EEEEEE" stroke-width="1.00" transform="matrix(1.00, 0.00, 0.00, -1.00, 349.4, 424.5)"></path></g></g><image xlink:href="../../C4386AA6-5CBA-4358-89C5-C6072D2F9ABB/assets/955E781B503BBAC45C95C9BDCC95F878.png" width="22.00" height="1.00" transform="matrix(1.00, 0.00, -0.00, -1.00, 376.0, 416.0)"></image><g><clipPath id="clip0x7ff62f708720"><path d="M 368.8 415.5 L 428.8 415.5 L 428.8 419.5 L 368.8 419.5 Z M 368.8 415.5 "></path></clipPath><g clip-path="url(#clip0x7ff62f708720)"><text xml:space="preserve" font-family="HelveticaNeue-Medium,Helvetica Neue" font-size="22.0" fill="#FEFFFE" transform="matrix(1.00, 0.00, -0.00, -1.00, 379.5, 397.9)">A</text><text xml:space="preserve" font-family="HelveticaNeue-Medium,Helvetica Neue" font-size="22.0" fill="#FEFFFE" transform="matrix(1.00, 0.00, -0.00, -1.00, 394.1, 397.9)">n</text><text xml:space="preserve" font-family="HelveticaNeue-Medium,Helvetica Neue" font-size="22.0" fill="#FEFFFE" transform="matrix(1.00, 0.00, -0.00, -1.00, 406.8, 397.9)">s</text></g></g><image xlink:href="../../C4386AA6-5CBA-4358-89C5-C6072D2F9ABB/assets/7809A46340ACFD314E1718006223FF76.png" width="32.00" height="2.00" transform="matrix(1.00, 0.00, -0.00, -1.00, 376.0, 393.0)"></image><g><clipPath id="clip0x7ff62f70b800"><path d="M 366.6 391.6 L 431.1 391.6 L 431.1 395.6 L 366.6 395.6 Z M 366.6 391.6 "></path></clipPath><g clip-path="url(#clip0x7ff62f70b800)"><text xml:space="preserve" font-family="HelveticaNeue-Medium,Helvetica Neue" font-size="22.0" fill="#FEFFFE" transform="matrix(1.00, 0.00, -0.00, -1.00, 378.9, 374.0)">S</text><text xml:space="preserve" font-family="HelveticaNeue-Medium,Helvetica Neue" font-size="22.0" fill="#FEFFFE" transform="matrix(1.00, 0.00, -0.00, -1.00, 393.1, 374.0)">h</text><text xml:space="preserve" font-family="HelveticaNeue-Medium,Helvetica Neue" font-size="22.0" fill="#FEFFFE" transform="matrix(1.00, 0.00, -0.00, -1.00, 405.7, 374.0)">o</text></g></g><image xlink:href="../../C4386AA6-5CBA-4358-89C5-C6072D2F9ABB/assets/2C87F199A199DCEC16CC4F3B8374B5F3.png" width="32.00" height="1.00" transform="matrix(1.00, 0.00, -0.00, -1.00, 376.0, 491.0)"></image><g><clipPath id="clip0x7ff62f4f51b0"><path d="M 363.8 490.4 L 433.9 490.4 L 433.9 494.4 L 363.8 494.4 Z M 363.8 490.4 "></path></clipPath><g clip-path="url(#clip0x7ff62f4f51b0)"><text xml:space="preserve" font-family="HelveticaNeue-Medium,Helvetica Neue" font-size="22.0" fill="#FEFFFE" transform="matrix(1.00, 0.00, -0.00, -1.00, 378.9, 472.8)">S</text><text xml:space="preserve" font-family="HelveticaNeue-Medium,Helvetica Neue" font-size="22.0" fill="#FEFFFE" transform="matrix(1.00, 0.00, -0.00, -1.00, 393.1, 472.8)">h</text><text xml:space="preserve" font-family="HelveticaNeue-Medium,Helvetica Neue" font-size="22.0" fill="#FEFFFE" transform="matrix(1.00, 0.00, -0.00, -1.00, 405.7, 472.8)">o</text></g></g><image xlink:href="../../C4386AA6-5CBA-4358-89C5-C6072D2F9ABB/assets/FE1C931DDBB43400AEB4AB1F18911F06.png" width="22.00" height="1.00" transform="matrix(1.00, 0.00, -0.00, -1.00, 375.0, 513.0)"></image><g><clipPath id="clip0x7ff62f4f8950"><path d="M 366.0 512.2 L 431.6 512.2 L 431.6 516.2 L 366.0 516.2 Z M 366.0 512.2 "></path></clipPath><g clip-path="url(#clip0x7ff62f4f8950)"><text xml:space="preserve" font-family="HelveticaNeue-Medium,Helvetica Neue" font-size="22.0" fill="#FEFFFE" transform="matrix(1.00, 0.00, -0.00, -1.00, 378.0, 494.6)">Q</text><text xml:space="preserve" font-family="HelveticaNeue-Medium,Helvetica Neue" font-size="22.0" fill="#FEFFFE" transform="matrix(1.00, 0.00, -0.00, -1.00, 394.8, 494.6)">u</text><text xml:space="preserve" font-family="HelveticaNeue-Medium,Helvetica Neue" font-size="22.0" fill="#FEFFFE" transform="matrix(1.00, 0.00, -0.00, -1.00, 407.4, 494.6)">e</text></g></g><g><clipPath id="clip0x7ff62f4faed0"><path d="M 557.2 346.2 L 693.8 346.2 L 693.8 558.4 L 557.2 558.4 Z M 557.2 346.2 "></path></clipPath><g clip-path="url(#clip0x7ff62f4faed0)"><path d="M -0.2 0.4 L 133.8 0.4 L 133.8 209.4 L -0.2 209.4 Z M 0.0 0.0 " fill="none" stroke="#EEEEEE" stroke-width="1.00" transform="matrix(1.00, 0.00, 0.00, -1.00, 558.7, 556.9)"></path></g></g><g><clipPath id="clip0x7ff62f4fbf10"><path d="M 574.9 505.3 L 676.7 505.3 L 676.7 522.8 L 574.9 522.8 Z M 574.9 505.3 "></path></clipPath><g clip-path="url(#clip0x7ff62f4fbf10)"><path d="M 0.1 7.3 L 0.1 7.0 C 0.1 3.1 3.1 -0.2 7.0 -0.2 L 91.8 -0.2 C 95.7 -0.2 99.1 3.1 99.1 7.0 L 99.1 7.5 C 99.1 11.4 95.7 14.8 91.8 14.8 L 7.0 14.8 C 3.1 14.8 0.1 11.1 0.1 7.3 Z M 0.0 7.5 " fill="none" stroke="#EEEEEE" stroke-width="1.00" transform="matrix(1.00, 0.00, 0.00, -1.00, 576.4, 521.3)"></path></g></g><g><clipPath id="clip0x7ff62f4eeb80"><path d="M 574.9 408.5 L 676.7 408.5 L 676.7 426.0 L 574.9 426.0 Z M 574.9 408.5 "></path></clipPath><g clip-path="url(#clip0x7ff62f4eeb80)"><path d="M 0.1 7.5 L 0.1 7.0 C 0.1 3.1 3.1 -0.0 7.0 -0.0 L 91.8 -0.0 C 95.7 -0.0 99.1 3.1 99.1 7.0 L 99.1 7.5 C 99.1 11.4 95.7 14.0 91.8 14.0 L 7.0 14.0 C 3.1 14.0 0.1 11.3 0.1 7.5 Z M 0.0 7.5 " fill="none" stroke="#EEEEEE" stroke-width="1.00" transform="matrix(1.00, 0.00, 0.00, -1.00, 576.4, 424.5)"></path></g></g><image xlink:href="../../C4386AA6-5CBA-4358-89C5-C6072D2F9ABB/assets/955E781B503BBAC45C95C9BDCC95F878.png" width="22.00" height="1.00" transform="matrix(1.00, 0.00, -0.00, -1.00, 603.0, 416.0)"></image><g><clipPath id="clip0x7ff62f4f1160"><path d="M 595.8 415.5 L 655.8 415.5 L 655.8 419.5 L 595.8 419.5 Z M 595.8 415.5 "></path></clipPath><g clip-path="url(#clip0x7ff62f4f1160)"><text xml:space="preserve" font-family="HelveticaNeue-Medium,Helvetica Neue" font-size="22.0" fill="#FEFFFE" transform="matrix(1.00, 0.00, -0.00, -1.00, 606.5, 397.9)">A</text><text xml:space="preserve" font-family="HelveticaNeue-Medium,Helvetica Neue" font-size="22.0" fill="#FEFFFE" transform="matrix(1.00, 0.00, -0.00, -1.00, 621.1, 397.9)">n</text><text xml:space="preserve" font-family="HelveticaNeue-Medium,Helvetica Neue" font-size="22.0" fill="#FEFFFE" transform="matrix(1.00, 0.00, -0.00, -1.00, 633.8, 397.9)">s</text></g></g><image xlink:href="../../C4386AA6-5CBA-4358-89C5-C6072D2F9ABB/assets/7809A46340ACFD314E1718006223FF76.png" width="32.00" height="2.00" transform="matrix(1.00, 0.00, -0.00, -1.00, 603.0, 393.0)"></image><g><clipPath id="clip0x7ff62f4cfd20"><path d="M 593.6 391.6 L 658.1 391.6 L 658.1 395.6 L 593.6 395.6 Z M 593.6 391.6 "></path></clipPath><g clip-path="url(#clip0x7ff62f4cfd20)"><text xml:space="preserve" font-family="HelveticaNeue-Medium,Helvetica Neue" font-size="22.0" fill="#FEFFFE" transform="matrix(1.00, 0.00, -0.00, -1.00, 605.9, 374.0)">S</text><text xml:space="preserve" font-family="HelveticaNeue-Medium,Helvetica Neue" font-size="22.0" fill="#FEFFFE" transform="matrix(1.00, 0.00, -0.00, -1.00, 620.1, 374.0)">h</text><text xml:space="preserve" font-family="HelveticaNeue-Medium,Helvetica Neue" font-size="22.0" fill="#FEFFFE" transform="matrix(1.00, 0.00, -0.00, -1.00, 632.7, 374.0)">o</text></g></g><image xlink:href="../../C4386AA6-5CBA-4358-89C5-C6072D2F9ABB/assets/2C87F199A199DCEC16CC4F3B8374B5F3.png" width="32.00" height="1.00" transform="matrix(1.00, 0.00, -0.00, -1.00, 603.0, 491.0)"></image><g><clipPath id="clip0x7ff62f4d3040"><path d="M 590.8 490.4 L 660.9 490.4 L 660.9 494.4 L 590.8 494.4 Z M 590.8 490.4 "></path></clipPath><g clip-path="url(#clip0x7ff62f4d3040)"><text xml:space="preserve" font-family="HelveticaNeue-Medium,Helvetica Neue" font-size="22.0" fill="#FEFFFE" transform="matrix(1.00, 0.00, -0.00, -1.00, 605.9, 472.8)">S</text><text xml:space="preserve" font-family="HelveticaNeue-Medium,Helvetica Neue" font-size="22.0" fill="#FEFFFE" transform="matrix(1.00, 0.00, -0.00, -1.00, 620.1, 472.8)">h</text><text xml:space="preserve" font-family="HelveticaNeue-Medium,Helvetica Neue" font-size="22.0" fill="#FEFFFE" transform="matrix(1.00, 0.00, -0.00, -1.00, 632.7, 472.8)">o</text></g></g><image xlink:href="../../C4386AA6-5CBA-4358-89C5-C6072D2F9ABB/assets/FE1C931DDBB43400AEB4AB1F18911F06.png" width="22.00" height="1.00" transform="matrix(1.00, 0.00, -0.00, -1.00, 602.0, 513.0)"></image><g><clipPath id="clip0x7ff62f4d6780"><path d="M 593.0 512.2 L 658.6 512.2 L 658.6 516.2 L 593.0 516.2 Z M 593.0 512.2 "></path></clipPath><g clip-path="url(#clip0x7ff62f4d6780)"><text xml:space="preserve" font-family="HelveticaNeue-Medium,Helvetica Neue" font-size="22.0" fill="#FEFFFE" transform="matrix(1.00, 0.00, -0.00, -1.00, 605.0, 494.6)">Q</text><text xml:space="preserve" font-family="HelveticaNeue-Medium,Helvetica Neue" font-size="22.0" fill="#FEFFFE" transform="matrix(1.00, 0.00, -0.00, -1.00, 621.8, 494.6)">u</text><text xml:space="preserve" font-family="HelveticaNeue-Medium,Helvetica Neue" font-size="22.0" fill="#FEFFFE" transform="matrix(1.00, 0.00, -0.00, -1.00, 634.4, 494.6)">e</text></g></g><g><clipPath id="clip0x7ff62f4d8d00"><path d="M 103.2 164.2 L 239.8 164.2 L 239.8 376.4 L 103.2 376.4 Z M 103.2 164.2 "></path></clipPath><g clip-path="url(#clip0x7ff62f4d8d00)"><path d="M -0.2 0.4 L 133.8 0.4 L 133.8 209.4 L -0.2 209.4 Z M 0.0 0.0 " fill="none" stroke="#EEEEEE" stroke-width="1.00" transform="matrix(1.00, 0.00, 0.00, -1.00, 104.7, 374.9)"></path></g></g><g><clipPath id="clip0x7ff62f4d9e20"><path d="M 120.9 323.3 L 222.7 323.3 L 222.7 340.8 L 120.9 340.8 Z M 120.9 323.3 "></path></clipPath><g clip-path="url(#clip0x7ff62f4d9e20)"><path d="M 0.1 7.3 L 0.1 7.0 C 0.1 3.1 3.1 -0.2 7.0 -0.2 L 91.8 -0.2 C 95.7 -0.2 99.1 3.1 99.1 7.0 L 99.1 7.5 C 99.1 11.4 95.7 14.8 91.8 14.8 L 7.0 14.8 C 3.1 14.8 0.1 11.1 0.1 7.3 Z M 0.0 7.5 " fill="none" stroke="#EEEEEE" stroke-width="1.00" transform="matrix(1.00, 0.00, 0.00, -1.00, 122.4, 339.3)"></path></g></g><g><clipPath id="clip0x7ff62f4db250"><path d="M 120.9 226.5 L 222.7 226.5 L 222.7 244.0 L 120.9 244.0 Z M 120.9 226.5 "></path></clipPath><g clip-path="url(#clip0x7ff62f4db250)"><path d="M 0.1 7.5 L 0.1 7.0 C 0.1 3.1 3.1 -0.0 7.0 -0.0 L 91.8 -0.0 C 95.7 -0.0 99.1 3.1 99.1 7.0 L 99.1 7.5 C 99.1 11.4 95.7 14.0 91.8 14.0 L 7.0 14.0 C 3.1 14.0 0.1 11.3 0.1 7.5 Z M 0.0 7.5 " fill="none" stroke="#EEEEEE" stroke-width="1.00" transform="matrix(1.00, 0.00, 0.00, -1.00, 122.4, 242.5)"></path></g></g><image xlink:href="../../C4386AA6-5CBA-4358-89C5-C6072D2F9ABB/assets/955E781B503BBAC45C95C9BDCC95F878.png" width="22.00" height="1.00" transform="matrix(1.00, 0.00, -0.00, -1.00, 149.0, 234.0)"></image><g><clipPath id="clip0x7ff62f4dd850"><path d="M 141.8 233.5 L 201.8 233.5 L 201.8 237.5 L 141.8 237.5 Z M 141.8 233.5 "></path></clipPath><g clip-path="url(#clip0x7ff62f4dd850)"><text xml:space="preserve" font-family="HelveticaNeue-Medium,Helvetica Neue" font-size="22.0" fill="#FEFFFE" transform="matrix(1.00, 0.00, -0.00, -1.00, 152.5, 215.9)">A</text><text xml:space="preserve" font-family="HelveticaNeue-Medium,Helvetica Neue" font-size="22.0" fill="#FEFFFE" transform="matrix(1.00, 0.00, -0.00, -1.00, 167.1, 215.9)">n</text><text xml:space="preserve" font-family="HelveticaNeue-Medium,Helvetica Neue" font-size="22.0" fill="#FEFFFE" transform="matrix(1.00, 0.00, -0.00, -1.00, 179.8, 215.9)">s</text></g></g><image xlink:href="../../C4386AA6-5CBA-4358-89C5-C6072D2F9ABB/assets/7809A46340ACFD314E1718006223FF76.png" width="32.00" height="2.00" transform="matrix(1.00, 0.00, -0.00, -1.00, 149.0, 211.0)"></image><g><clipPath id="clip0x7ff62f4e1470"><path d="M 139.6 209.6 L 204.1 209.6 L 204.1 213.6 L 139.6 213.6 Z M 139.6 209.6 "></path></clipPath><g clip-path="url(#clip0x7ff62f4e1470)"><text xml:space="preserve" font-family="HelveticaNeue-Medium,Helvetica Neue" font-size="22.0" fill="#FEFFFE" transform="matrix(1.00, 0.00, -0.00, -1.00, 151.9, 192.0)">S</text><text xml:space="preserve" font-family="HelveticaNeue-Medium,Helvetica Neue" font-size="22.0" fill="#FEFFFE" transform="matrix(1.00, 0.00, -0.00, -1.00, 166.1, 192.0)">h</text><text xml:space="preserve" font-family="HelveticaNeue-Medium,Helvetica Neue" font-size="22.0" fill="#FEFFFE" transform="matrix(1.00, 0.00, -0.00, -1.00, 178.7, 192.0)">o</text></g></g><image xlink:href="../../C4386AA6-5CBA-4358-89C5-C6072D2F9ABB/assets/2C87F199A199DCEC16CC4F3B8374B5F3.png" width="32.00" height="1.00" transform="matrix(1.00, 0.00, -0.00, -1.00, 149.0, 309.0)"></image><g><clipPath id="clip0x7ff62f4e4810"><path d="M 136.8 308.4 L 206.9 308.4 L 206.9 312.4 L 136.8 312.4 Z M 136.8 308.4 "></path></clipPath><g clip-path="url(#clip0x7ff62f4e4810)"><text xml:space="preserve" font-family="HelveticaNeue-Medium,Helvetica Neue" font-size="22.0" fill="#FEFFFE" transform="matrix(1.00, 0.00, -0.00, -1.00, 151.9, 290.8)">S</text><text xml:space="preserve" font-family="HelveticaNeue-Medium,Helvetica Neue" font-size="22.0" fill="#FEFFFE" transform="matrix(1.00, 0.00, -0.00, -1.00, 166.1, 290.8)">h</text><text xml:space="preserve" font-family="HelveticaNeue-Medium,Helvetica Neue" font-size="22.0" fill="#FEFFFE" transform="matrix(1.00, 0.00, -0.00, -1.00, 178.7, 290.8)">o</text></g></g><image xlink:href="../../C4386AA6-5CBA-4358-89C5-C6072D2F9ABB/assets/FE1C931DDBB43400AEB4AB1F18911F06.png" width="22.00" height="1.00" transform="matrix(1.00, 0.00, -0.00, -1.00, 148.0, 331.0)"></image><g><clipPath id="clip0x7ff62f4e7fb0"><path d="M 139.0 330.2 L 204.6 330.2 L 204.6 334.2 L 139.0 334.2 Z M 139.0 330.2 "></path></clipPath><g clip-path="url(#clip0x7ff62f4e7fb0)"><text xml:space="preserve" font-family="HelveticaNeue-Medium,Helvetica Neue" font-size="22.0" fill="#FEFFFE" transform="matrix(1.00, 0.00, -0.00, -1.00, 151.0, 312.6)">Q</text><text xml:space="preserve" font-family="HelveticaNeue-Medium,Helvetica Neue" font-size="22.0" fill="#FEFFFE" transform="matrix(1.00, 0.00, -0.00, -1.00, 167.8, 312.6)">u</text><text xml:space="preserve" font-family="HelveticaNeue-Medium,Helvetica Neue" font-size="22.0" fill="#FEFFFE" transform="matrix(1.00, 0.00, -0.00, -1.00, 180.4, 312.6)">e</text></g></g><path d="M 0.0 0.0 L 149.4 0.0 L 149.8 0.0 " fill="none" stroke="#FEFFFF" stroke-width="0.75" stroke-dasharray="1.5, 1.5" transform="matrix(0.56, 0.83, 0.83, -0.56, 242.0, 326.0)"></path><path d="M 327.7 448.4 L 328.3 453.4 L 323.9 450.9 Z M 327.7 448.4 " fill="#FEFFFF"></path><path d="M 0.0 0.0 L 140.7 0.0 L 141.1 0.0 " fill="none" stroke="#FEFFFF" stroke-width="0.75" stroke-dasharray="1.5, 1.5" transform="matrix(0.60, -0.80, -0.80, -0.60, 238.4, 259.6)"></path><path d="M 320.5 145.3 L 325.0 143.0 L 324.1 148.0 Z M 320.5 145.3 " fill="#FEFFFF"></path><path d="M 0.5 -0.1 L 72.4 -0.1 L 72.5 -0.1 " fill="none" stroke="#FEFFFF" stroke-width="0.75" stroke-dasharray="1.5, 1.5" transform="matrix(1.00, 0.00, 0.00, -1.00, 473.5, 459.4)"></path><path d="M 545.6 457.2 L 550.1 459.5 L 545.6 461.8 Z M 545.6 457.2 " fill="#FEFFFF"></path><path d="M 0.0 0.0 L 186.9 0.0 L 187.3 0.0 " fill="none" stroke="#FEFFFF" stroke-width="0.75" stroke-dasharray="1.5, 1.5" transform="matrix(0.40, -0.92, -0.92, -0.40, 700.8, 453.8)"></path><path d="M 773.5 281.6 L 777.4 278.4 L 777.7 283.4 Z M 773.5 281.6 " fill="#FEFFFF"></path><image xlink:href="../../C4386AA6-5CBA-4358-89C5-C6072D2F9ABB/assets/49DE4064D262681A385F8E1E4F98494C.png" width="117.00" height="36.00" transform="matrix(1.00, 0.00, -0.00, -1.00, 109.0, 433.0)"></image><text xml:space="preserve" font-family="HelveticaNeue-Medium,Helvetica Neue" font-size="38.0" fill="#EAEAEA" transform="matrix(1.00, 0.00, -0.00, -1.00, 113.9, 403.6)">V</text><text xml:space="preserve" font-family="HelveticaNeue-Medium,Helvetica Neue" font-size="38.0" fill="#EAEAEA" transform="matrix(1.00, 0.00, -0.00, -1.00, 137.5, 403.6)">i</text><text xml:space="preserve" font-family="HelveticaNeue-Medium,Helvetica Neue" font-size="38.0" fill="#EAEAEA" transform="matrix(1.00, 0.00, -0.00, -1.00, 146.7, 403.6)">e</text><text xml:space="preserve" font-family="HelveticaNeue-Medium,Helvetica Neue" font-size="38.0" fill="#EAEAEA" transform="matrix(1.00, 0.00, -0.00, -1.00, 167.8, 403.6)">w</text><text xml:space="preserve" font-family="HelveticaNeue-Medium,Helvetica Neue" font-size="38.0" fill="#EAEAEA" transform="matrix(1.00, 0.00, -0.00, -1.00, 197.4, 403.6)"> </text><text xml:space="preserve" font-family="HelveticaNeue-Medium,Helvetica Neue" font-size="38.0" fill="#EAEAEA" transform="matrix(1.00, 0.00, -0.00, -1.00, 207.9, 403.6)">1</text><image xlink:href="../../C4386AA6-5CBA-4358-89C5-C6072D2F9ABB/assets/183D33427C38BA694492AA3367B9E734.png" width="145.00" height="36.00" transform="matrix(1.00, 0.00, -0.00, -1.00, 326.0, 608.0)"></image><text xml:space="preserve" font-family="HelveticaNeue-Medium,Helvetica Neue" font-size="38.0" fill="#EAEAEA" transform="matrix(1.00, 0.00, -0.00, -1.00, 330.4, 578.6)">V</text><text xml:space="preserve" font-family="HelveticaNeue-Medium,Helvetica Neue" font-size="38.0" fill="#EAEAEA" transform="matrix(1.00, 0.00, -0.00, -1.00, 354.0, 578.6)">i</text><text xml:space="preserve" font-family="HelveticaNeue-Medium,Helvetica Neue" font-size="38.0" fill="#EAEAEA" transform="matrix(1.00, 0.00, -0.00, -1.00, 363.1, 578.6)">e</text><text xml:space="preserve" font-family="HelveticaNeue-Medium,Helvetica Neue" font-size="38.0" fill="#EAEAEA" transform="matrix(1.00, 0.00, -0.00, -1.00, 384.2, 578.6)">w</text><text xml:space="preserve" font-family="HelveticaNeue-Medium,Helvetica Neue" font-size="38.0" fill="#EAEAEA" transform="matrix(1.00, 0.00, -0.00, -1.00, 413.8, 578.6)"> </text><text xml:space="preserve" font-family="HelveticaNeue-Medium,Helvetica Neue" font-size="38.0" fill="#EAEAEA" transform="matrix(1.00, 0.00, -0.00, -1.00, 424.4, 578.6)">2</text><text xml:space="preserve" font-family="HelveticaNeue-Medium,Helvetica Neue" font-size="38.0" fill="#EAEAEA" transform="matrix(1.00, 0.00, -0.00, -1.00, 445.5, 578.6)">a</text><image xlink:href="../../C4386AA6-5CBA-4358-89C5-C6072D2F9ABB/assets/17A1DAF02AB74DC98DB68AC24472C4DC.png" width="123.00" height="36.00" transform="matrix(1.00, 0.00, -0.00, -1.00, 563.0, 608.0)"></image><text xml:space="preserve" font-family="HelveticaNeue-Medium,Helvetica Neue" font-size="38.0" fill="#EAEAEA" transform="matrix(1.00, 0.00, -0.00, -1.00, 567.9, 578.6)">V</text><text xml:space="preserve" font-family="HelveticaNeue-Medium,Helvetica Neue" font-size="38.0" fill="#EAEAEA" transform="matrix(1.00, 0.00, -0.00, -1.00, 591.5, 578.6)">i</text><text xml:space="preserve" font-family="HelveticaNeue-Medium,Helvetica Neue" font-size="38.0" fill="#EAEAEA" transform="matrix(1.00, 0.00, -0.00, -1.00, 600.7, 578.6)">e</text><text xml:space="preserve" font-family="HelveticaNeue-Medium,Helvetica Neue" font-size="38.0" fill="#EAEAEA" transform="matrix(1.00, 0.00, -0.00, -1.00, 621.8, 578.6)">w</text><text xml:space="preserve" font-family="HelveticaNeue-Medium,Helvetica Neue" font-size="38.0" fill="#EAEAEA" transform="matrix(1.00, 0.00, -0.00, -1.00, 651.4, 578.6)"> </text><text xml:space="preserve" font-family="HelveticaNeue-Medium,Helvetica Neue" font-size="38.0" fill="#EAEAEA" transform="matrix(1.00, 0.00, -0.00, -1.00, 661.9, 578.6)">3</text><image xlink:href="../../C4386AA6-5CBA-4358-89C5-C6072D2F9ABB/assets/5C5FC1BADD2D40347B2DB1339CA665C4.png" width="146.00" height="36.00" transform="matrix(1.00, 0.00, -0.00, -1.00, 325.0, 303.0)"></image><text xml:space="preserve" font-family="HelveticaNeue-Medium,Helvetica Neue" font-size="38.0" fill="#EAEAEA" transform="matrix(1.00, 0.00, -0.00, -1.00, 329.3, 273.8)">V</text><text xml:space="preserve" font-family="HelveticaNeue-Medium,Helvetica Neue" font-size="38.0" fill="#EAEAEA" transform="matrix(1.00, 0.00, -0.00, -1.00, 352.9, 273.8)">i</text><text xml:space="preserve" font-family="HelveticaNeue-Medium,Helvetica Neue" font-size="38.0" fill="#EAEAEA" transform="matrix(1.00, 0.00, -0.00, -1.00, 362.1, 273.8)">e</text><text xml:space="preserve" font-family="HelveticaNeue-Medium,Helvetica Neue" font-size="38.0" fill="#EAEAEA" transform="matrix(1.00, 0.00, -0.00, -1.00, 383.2, 273.8)">w</text><text xml:space="preserve" font-family="HelveticaNeue-Medium,Helvetica Neue" font-size="38.0" fill="#EAEAEA" transform="matrix(1.00, 0.00, -0.00, -1.00, 412.8, 273.8)"> </text><text xml:space="preserve" font-family="HelveticaNeue-Medium,Helvetica Neue" font-size="38.0" fill="#EAEAEA" transform="matrix(1.00, 0.00, -0.00, -1.00, 423.3, 273.8)">2</text><text xml:space="preserve" font-family="HelveticaNeue-Medium,Helvetica Neue" font-size="38.0" fill="#EAEAEA" transform="matrix(1.00, 0.00, -0.00, -1.00, 444.5, 273.8)">b</text><image xlink:href="../../C4386AA6-5CBA-4358-89C5-C6072D2F9ABB/assets/C3F7FA62F9033D04360E38CAA887F0CA.png" width="123.00" height="36.00" transform="matrix(1.00, 0.00, -0.00, -1.00, 790.0, 433.0)"></image><text xml:space="preserve" font-family="HelveticaNeue-Medium,Helvetica Neue" font-size="38.0" fill="#EAEAEA" transform="matrix(1.00, 0.00, -0.00, -1.00, 794.9, 403.6)">V</text><text xml:space="preserve" font-family="HelveticaNeue-Medium,Helvetica Neue" font-size="38.0" fill="#EAEAEA" transform="matrix(1.00, 0.00, -0.00, -1.00, 818.5, 403.6)">i</text><text xml:space="preserve" font-family="HelveticaNeue-Medium,Helvetica Neue" font-size="38.0" fill="#EAEAEA" transform="matrix(1.00, 0.00, -0.00, -1.00, 827.7, 403.6)">e</text><text xml:space="preserve" font-family="HelveticaNeue-Medium,Helvetica Neue" font-size="38.0" fill="#EAEAEA" transform="matrix(1.00, 0.00, -0.00, -1.00, 848.8, 403.6)">w</text><text xml:space="preserve" font-family="HelveticaNeue-Medium,Helvetica Neue" font-size="38.0" fill="#EAEAEA" transform="matrix(1.00, 0.00, -0.00, -1.00, 878.4, 403.6)"> </text><text xml:space="preserve" font-family="HelveticaNeue-Medium,Helvetica Neue" font-size="38.0" fill="#EAEAEA" transform="matrix(1.00, 0.00, -0.00, -1.00, 888.9, 403.6)">4</text></g></svg>