<?xml version="1.0" encoding="UTF-8" standalone="no"?><svg xmlns="http://www.w3.org/2000/svg" xmlns:xlink="http://www.w3.org/1999/xlink" clip-rule="evenodd" stroke-miterlimit="10" viewBox="0 0 137 214"><desc>SVG generated by Keynote</desc><defs></defs><g transform="matrix(1.00, 0.00, -0.00, -1.00, 0.0, 214.0)"><g><clipPath id="clip0x7ff611d480f0"><path d="M 0.2 0.9 L 136.8 0.9 L 136.8 213.0 L 0.2 213.0 Z M 0.2 0.9 "></path></clipPath><g clip-path="url(#clip0x7ff611d480f0)"><path d="M -0.2 0.0 L 133.8 0.0 L 133.8 209.0 L -0.2 209.0 Z M 0.0 0.0 " fill="none" stroke="#EEEEEE" stroke-width="1.00" transform="matrix(1.00, 0.00, 0.00, -1.00, 1.7, 211.5)"></path></g></g><g><clipPath id="clip0x7ff611d45910"><path d="M 17.9 159.9 L 119.7 159.9 L 119.7 177.4 L 17.9 177.4 Z M 17.9 159.9 "></path></clipPath><g clip-path="url(#clip0x7ff611d45910)"><path d="M 0.1 7.9 L 0.1 7.0 C 0.1 3.1 3.1 0.4 7.0 0.4 L 91.8 0.4 C 95.7 0.4 99.1 3.1 99.1 7.0 L 99.1 7.5 C 99.1 11.4 95.7 14.4 91.8 14.4 L 7.0 14.4 C 3.1 14.4 0.1 11.7 0.1 7.9 Z M 0.0 7.5 " fill="none" stroke="#EEEEEE" stroke-width="1.00" transform="matrix(1.00, 0.00, 0.00, -1.00, 19.4, 175.9)"></path></g></g><g><clipPath id="clip0x7ff611d15ef0"><path d="M 17.9 63.1 L 119.7 63.1 L 119.7 80.6 L 17.9 80.6 Z M 17.9 63.1 "></path></clipPath><g clip-path="url(#clip0x7ff611d15ef0)"><path d="M 0.1 7.1 L 0.1 7.0 C 0.1 3.1 3.1 -0.4 7.0 -0.4 L 91.8 -0.4 C 95.7 -0.4 99.1 3.1 99.1 7.0 L 99.1 7.5 C 99.1 11.4 95.7 14.6 91.8 14.6 L 7.0 14.6 C 3.1 14.6 0.1 11.0 0.1 7.1 Z M 0.0 7.5 " fill="none" stroke="#EEEEEE" stroke-width="1.00" transform="matrix(1.00, 0.00, 0.00, -1.00, 19.4, 79.1)"></path></g></g><image xlink:href="C81C37BE4437815918AE90FBA4F68984.png" width="22.00" height="1.00" transform="matrix(1.00, 0.00, -0.00, -1.00, 46.0, 71.0)"></image><g><clipPath id="clip0x7ff6128ad4e0"><path d="M 38.8 70.1 L 98.8 70.1 L 98.8 74.1 L 38.8 74.1 Z M 38.8 70.1 "></path></clipPath><g clip-path="url(#clip0x7ff6128ad4e0)"><text xml:space="preserve" font-family="HelveticaNeue-Medium,Helvetica Neue" font-size="22.0" fill="#FEFFFE" transform="matrix(1.00, 0.00, -0.00, -1.00, 49.5, 52.5)">A</text><text xml:space="preserve" font-family="HelveticaNeue-Medium,Helvetica Neue" font-size="22.0" fill="#FEFFFE" transform="matrix(1.00, 0.00, -0.00, -1.00, 64.1, 52.5)">n</text><text xml:space="preserve" font-family="HelveticaNeue-Medium,Helvetica Neue" font-size="22.0" fill="#FEFFFE" transform="matrix(1.00, 0.00, -0.00, -1.00, 76.8, 52.5)">s</text></g></g><image xlink:href="E2EF725C6917AAECFA8A81A2D63ACFE2.png" width="32.00" height="1.00" transform="matrix(1.00, 0.00, -0.00, -1.00, 46.0, 47.0)"></image><g><clipPath id="clip0x7ff611d2bfe0"><path d="M 36.6 46.3 L 101.1 46.3 L 101.1 50.3 L 36.6 50.3 Z M 36.6 46.3 "></path></clipPath><g clip-path="url(#clip0x7ff611d2bfe0)"><text xml:space="preserve" font-family="HelveticaNeue-Medium,Helvetica Neue" font-size="22.0" fill="#FEFFFE" transform="matrix(1.00, 0.00, -0.00, -1.00, 48.9, 28.7)">S</text><text xml:space="preserve" font-family="HelveticaNeue-Medium,Helvetica Neue" font-size="22.0" fill="#FEFFFE" transform="matrix(1.00, 0.00, -0.00, -1.00, 63.1, 28.7)">h</text><text xml:space="preserve" font-family="HelveticaNeue-Medium,Helvetica Neue" font-size="22.0" fill="#FEFFFE" transform="matrix(1.00, 0.00, -0.00, -1.00, 75.7, 28.7)">o</text></g></g><image xlink:href="6537D5255CAEDFAC17A60A7E17AA6E58.png" width="32.00" height="1.00" transform="matrix(1.00, 0.00, -0.00, -1.00, 46.0, 146.0)"></image><g><clipPath id="clip0x7ff611860580"><path d="M 33.8 145.0 L 103.9 145.0 L 103.9 149.0 L 33.8 149.0 Z M 33.8 145.0 "></path></clipPath><g clip-path="url(#clip0x7ff611860580)"><text xml:space="preserve" font-family="HelveticaNeue-Medium,Helvetica Neue" font-size="22.0" fill="#FEFFFE" transform="matrix(1.00, 0.00, -0.00, -1.00, 48.9, 127.4)">S</text><text xml:space="preserve" font-family="HelveticaNeue-Medium,Helvetica Neue" font-size="22.0" fill="#FEFFFE" transform="matrix(1.00, 0.00, -0.00, -1.00, 63.1, 127.4)">h</text><text xml:space="preserve" font-family="HelveticaNeue-Medium,Helvetica Neue" font-size="22.0" fill="#FEFFFE" transform="matrix(1.00, 0.00, -0.00, -1.00, 75.7, 127.4)">o</text></g></g><image xlink:href="C8B80E175D9BEB8344E725090EAB765A.png" width="22.00" height="2.00" transform="matrix(1.00, 0.00, -0.00, -1.00, 45.0, 168.0)"></image><g><clipPath id="clip0x7ff62f7311e0"><path d="M 36.0 166.9 L 101.6 166.9 L 101.6 170.9 L 36.0 170.9 Z M 36.0 166.9 "></path></clipPath><g clip-path="url(#clip0x7ff62f7311e0)"><text xml:space="preserve" font-family="HelveticaNeue-Medium,Helvetica Neue" font-size="22.0" fill="#FEFFFE" transform="matrix(1.00, 0.00, -0.00, -1.00, 48.0, 149.3)">Q</text><text xml:space="preserve" font-family="HelveticaNeue-Medium,Helvetica Neue" font-size="22.0" fill="#FEFFFE" transform="matrix(1.00, 0.00, -0.00, -1.00, 64.8, 149.3)">u</text><text xml:space="preserve" font-family="HelveticaNeue-Medium,Helvetica Neue" font-size="22.0" fill="#FEFFFE" transform="matrix(1.00, 0.00, -0.00, -1.00, 77.4, 149.3)">e</text></g></g></g></svg>