<?xml version="1.0" encoding="UTF-8" standalone="no"?><svg xmlns="http://www.w3.org/2000/svg" xmlns:xlink="http://www.w3.org/1999/xlink" clip-rule="evenodd" stroke-miterlimit="10" viewBox="0 0 720 540"><desc>SVG generated by Keynote</desc><defs></defs><g transform="matrix(1.00, 0.00, -0.00, -1.00, 0.0, 540.0)"><path d="M 0.0 540.0 L 720.0 540.0 L 720.0 0.0 L 0.0 0.0 Z M 0.0 540.0 " fill="#FFFFFF"></path><text xml:space="preserve" font-family="Tahoma,Tahoma" font-size="10.0" fill="#000000" transform="matrix(1.00, 0.00, -0.00, -1.00, 558.1, 18.0)">2</text><image xlink:href="../../22250E09-6A3E-431F-BB3A-4264367591FE/assets/B6722874741F681C5262648B2A3A9290.png" width="176.00" height="37.00" transform="matrix(1.00, 0.00, -0.00, -1.00, 34.0, 457.0)"></image><text xml:space="preserve" font-family="Tahoma,Tahoma" font-size="36.0" fill="#000000" transform="matrix(1.00, 0.00, -0.00, -1.00, 32.2, 430.1)">D</text><text xml:space="preserve" font-family="Tahoma,Tahoma" font-size="36.0" fill="#000000" transform="matrix(1.00, 0.00, -0.00, -1.00, 56.6, 430.1)">a</text><text xml:space="preserve" font-family="Tahoma,Tahoma" font-size="36.0" fill="#000000" transform="matrix(1.00, 0.00, -0.00, -1.00, 75.5, 430.1)">t</text><text xml:space="preserve" font-family="Tahoma,Tahoma" font-size="36.0" fill="#000000" transform="matrix(1.00, 0.00, -0.00, -1.00, 87.6, 430.1)">a</text><text xml:space="preserve" font-family="Tahoma,Tahoma" font-size="36.0" fill="#000000" transform="matrix(1.00, 0.00, -0.00, -1.00, 106.5, 430.1)"> </text><text xml:space="preserve" font-family="Tahoma,Tahoma" font-size="36.0" fill="#000000" transform="matrix(1.00, 0.00, -0.00, -1.00, 117.7, 430.1)">T</text><text xml:space="preserve" font-family="Tahoma,Tahoma" font-size="36.0" fill="#000000" transform="matrix(1.00, 0.00, -0.00, -1.00, 135.4, 430.1)">y</text><text xml:space="preserve" font-family="Tahoma,Tahoma" font-size="36.0" fill="#000000" transform="matrix(1.00, 0.00, -0.00, -1.00, 153.3, 430.1)">p</text><text xml:space="preserve" font-family="Tahoma,Tahoma" font-size="36.0" fill="#000000" transform="matrix(1.00, 0.00, -0.00, -1.00, 173.2, 430.1)">e</text><text xml:space="preserve" font-family="Tahoma,Tahoma" font-size="36.0" fill="#000000" transform="matrix(1.00, 0.00, -0.00, -1.00, 192.2, 430.1)">s</text><path d="M 0.0 0.0 L 678.0 0.0 " fill="none" stroke="#0000FF" stroke-width="6.00" stroke-linejoin="round" transform="matrix(1.00, 0.00, 0.00, -1.00, 30.0, 402.0)"></path><text xml:space="preserve" font-family="CourierNewPSMT,Courier New" font-size="20.0" fill="#0000FF" transform="matrix(1.00, 0.00, -0.00, -1.00, 30.4, 355.0)">•</text><text xml:space="preserve" font-family="CourierNewPS-ItalicMT,Courier New" font-style="italic" font-size="20.0" fill="#0000FF" transform="matrix(1.00, 0.00, -0.00, -1.00, 42.4, 355.0)">P</text><text xml:space="preserve" font-family="CourierNewPS-ItalicMT,Courier New" font-style="italic" font-size="20.0" fill="#0000FF" transform="matrix(1.00, 0.00, -0.00, -1.00, 54.4, 355.0)">r</text><text xml:space="preserve" font-family="CourierNewPS-ItalicMT,Courier New" font-style="italic" font-size="20.0" fill="#0000FF" transform="matrix(1.00, 0.00, -0.00, -1.00, 66.4, 355.0)">i</text><text xml:space="preserve" font-family="CourierNewPS-ItalicMT,Courier New" font-style="italic" font-size="20.0" fill="#0000FF" transform="matrix(1.00, 0.00, -0.00, -1.00, 78.4, 355.0)">m</text><text xml:space="preserve" font-family="CourierNewPS-ItalicMT,Courier New" font-style="italic" font-size="20.0" fill="#0000FF" transform="matrix(1.00, 0.00, -0.00, -1.00, 90.4, 355.0)">i</text><text xml:space="preserve" font-family="CourierNewPS-ItalicMT,Courier New" font-style="italic" font-size="20.0" fill="#0000FF" transform="matrix(1.00, 0.00, -0.00, -1.00, 102.4, 355.0)">t</text><text xml:space="preserve" font-family="CourierNewPS-ItalicMT,Courier New" font-style="italic" font-size="20.0" fill="#0000FF" transform="matrix(1.00, 0.00, -0.00, -1.00, 114.4, 355.0)">i</text><text xml:space="preserve" font-family="CourierNewPS-ItalicMT,Courier New" font-style="italic" font-size="20.0" fill="#0000FF" transform="matrix(1.00, 0.00, -0.00, -1.00, 126.4, 355.0)">v</text><text xml:space="preserve" font-family="CourierNewPS-ItalicMT,Courier New" font-style="italic" font-size="20.0" fill="#0000FF" transform="matrix(1.00, 0.00, -0.00, -1.00, 138.4, 355.0)">e</text><text xml:space="preserve" font-family="CourierNewPS-ItalicMT,Courier New" font-style="italic" font-size="20.0" fill="#0000FF" transform="matrix(1.00, 0.00, -0.00, -1.00, 150.4, 355.0)"> </text><text xml:space="preserve" font-family="CourierNewPSMT,Courier New" font-size="20.0" fill="#0000FF" transform="matrix(1.00, 0.00, -0.00, -1.00, 30.4, 332.0)">•</text><text xml:space="preserve" font-family="CourierNewPS-ItalicMT,Courier New" font-style="italic" font-size="20.0" fill="#0000FF" transform="matrix(1.00, 0.00, -0.00, -1.00, 42.4, 332.0)">C</text><text xml:space="preserve" font-family="CourierNewPS-ItalicMT,Courier New" font-style="italic" font-size="20.0" fill="#0000FF" transform="matrix(1.00, 0.00, -0.00, -1.00, 54.4, 332.0)">o</text><text xml:space="preserve" font-family="CourierNewPS-ItalicMT,Courier New" font-style="italic" font-size="20.0" fill="#0000FF" transform="matrix(1.00, 0.00, -0.00, -1.00, 66.4, 332.0)">m</text><text xml:space="preserve" font-family="CourierNewPS-ItalicMT,Courier New" font-style="italic" font-size="20.0" fill="#0000FF" transform="matrix(1.00, 0.00, -0.00, -1.00, 78.4, 332.0)">p</text><text xml:space="preserve" font-family="CourierNewPS-ItalicMT,Courier New" font-style="italic" font-size="20.0" fill="#0000FF" transform="matrix(1.00, 0.00, -0.00, -1.00, 90.4, 332.0)">o</text><text xml:space="preserve" font-family="CourierNewPS-ItalicMT,Courier New" font-style="italic" font-size="20.0" fill="#0000FF" transform="matrix(1.00, 0.00, -0.00, -1.00, 102.4, 332.0)">s</text><text xml:space="preserve" font-family="CourierNewPS-ItalicMT,Courier New" font-style="italic" font-size="20.0" fill="#0000FF" transform="matrix(1.00, 0.00, -0.00, -1.00, 114.4, 332.0)">i</text><text xml:space="preserve" font-family="CourierNewPS-ItalicMT,Courier New" font-style="italic" font-size="20.0" fill="#0000FF" transform="matrix(1.00, 0.00, -0.00, -1.00, 126.4, 332.0)">t</text><text xml:space="preserve" font-family="CourierNewPS-ItalicMT,Courier New" font-style="italic" font-size="20.0" fill="#0000FF" transform="matrix(1.00, 0.00, -0.00, -1.00, 138.4, 332.0)">e</text><text xml:space="preserve" font-family="CourierNewPS-ItalicMT,Courier New" font-style="italic" font-size="20.0" fill="#0000FF" transform="matrix(1.00, 0.00, -0.00, -1.00, 150.4, 332.0)"> </text><text xml:space="preserve" font-family="CourierNewPSMT,Courier New" font-size="20.0" fill="#0000FF" transform="matrix(1.00, 0.00, -0.00, -1.00, 30.4, 309.0)">•</text><text xml:space="preserve" font-family="CourierNewPS-ItalicMT,Courier New" font-style="italic" font-size="20.0" fill="#0000FF" transform="matrix(1.00, 0.00, -0.00, -1.00, 42.4, 309.0)">U</text><text xml:space="preserve" font-family="CourierNewPS-ItalicMT,Courier New" font-style="italic" font-size="20.0" fill="#0000FF" transform="matrix(1.00, 0.00, -0.00, -1.00, 54.4, 309.0)">s</text><text xml:space="preserve" font-family="CourierNewPS-ItalicMT,Courier New" font-style="italic" font-size="20.0" fill="#0000FF" transform="matrix(1.00, 0.00, -0.00, -1.00, 66.4, 309.0)">e</text><text xml:space="preserve" font-family="CourierNewPS-ItalicMT,Courier New" font-style="italic" font-size="20.0" fill="#0000FF" transform="matrix(1.00, 0.00, -0.00, -1.00, 78.4, 309.0)">r</text><text xml:space="preserve" font-family="CourierNewPS-ItalicMT,Courier New" font-style="italic" font-size="20.0" fill="#0000FF" transform="matrix(1.00, 0.00, -0.00, -1.00, 90.4, 309.0)"> </text><text xml:space="preserve" font-family="CourierNewPS-ItalicMT,Courier New" font-style="italic" font-size="20.0" fill="#0000FF" transform="matrix(1.00, 0.00, -0.00, -1.00, 102.4, 309.0)">D</text><text xml:space="preserve" font-family="CourierNewPS-ItalicMT,Courier New" font-style="italic" font-size="20.0" fill="#0000FF" transform="matrix(1.00, 0.00, -0.00, -1.00, 114.4, 309.0)">e</text><text xml:space="preserve" font-family="CourierNewPS-ItalicMT,Courier New" font-style="italic" font-size="20.0" fill="#0000FF" transform="matrix(1.00, 0.00, -0.00, -1.00, 126.4, 309.0)">f</text><text xml:space="preserve" font-family="CourierNewPS-ItalicMT,Courier New" font-style="italic" font-size="20.0" fill="#0000FF" transform="matrix(1.00, 0.00, -0.00, -1.00, 138.4, 309.0)">i</text><text xml:space="preserve" font-family="CourierNewPS-ItalicMT,Courier New" font-style="italic" font-size="20.0" fill="#0000FF" transform="matrix(1.00, 0.00, -0.00, -1.00, 150.4, 309.0)">n</text><text xml:space="preserve" font-family="CourierNewPS-ItalicMT,Courier New" font-style="italic" font-size="20.0" fill="#0000FF" transform="matrix(1.00, 0.00, -0.00, -1.00, 162.4, 309.0)">e</text><text xml:space="preserve" font-family="CourierNewPS-ItalicMT,Courier New" font-style="italic" font-size="20.0" fill="#0000FF" transform="matrix(1.00, 0.00, -0.00, -1.00, 174.4, 309.0)">d</text><text xml:space="preserve" font-family="CourierNewPS-ItalicMT,Courier New" font-style="italic" font-size="20.0" fill="#0000FF" transform="matrix(1.00, 0.00, -0.00, -1.00, 186.4, 309.0)">(</text><text xml:space="preserve" font-family="CourierNewPS-ItalicMT,Courier New" font-style="italic" font-size="20.0" fill="#0000FF" transform="matrix(1.00, 0.00, -0.00, -1.00, 198.4, 309.0)">O</text><text xml:space="preserve" font-family="CourierNewPS-ItalicMT,Courier New" font-style="italic" font-size="20.0" fill="#0000FF" transform="matrix(1.00, 0.00, -0.00, -1.00, 210.4, 309.0)">b</text><text xml:space="preserve" font-family="CourierNewPS-ItalicMT,Courier New" font-style="italic" font-size="20.0" fill="#0000FF" transform="matrix(1.00, 0.00, -0.00, -1.00, 222.4, 309.0)">j</text><text xml:space="preserve" font-family="CourierNewPS-ItalicMT,Courier New" font-style="italic" font-size="20.0" fill="#0000FF" transform="matrix(1.00, 0.00, -0.00, -1.00, 234.4, 309.0)">e</text><text xml:space="preserve" font-family="CourierNewPS-ItalicMT,Courier New" font-style="italic" font-size="20.0" fill="#0000FF" transform="matrix(1.00, 0.00, -0.00, -1.00, 246.4, 309.0)">c</text><text xml:space="preserve" font-family="CourierNewPS-ItalicMT,Courier New" font-style="italic" font-size="20.0" fill="#0000FF" transform="matrix(1.00, 0.00, -0.00, -1.00, 258.4, 309.0)">t</text><text xml:space="preserve" font-family="CourierNewPS-ItalicMT,Courier New" font-style="italic" font-size="20.0" fill="#0000FF" transform="matrix(1.00, 0.00, -0.00, -1.00, 270.4, 309.0)">)</text><text xml:space="preserve" font-family="CourierNewPS-ItalicMT,Courier New" font-style="italic" font-size="20.0" fill="#0000FF" transform="matrix(1.00, 0.00, -0.00, -1.00, 282.4, 309.0)"> </text><text xml:space="preserve" font-family="CourierNewPSMT,Courier New" font-size="20.0" fill="#0000FF" transform="matrix(1.00, 0.00, -0.00, -1.00, 30.4, 286.0)">•</text><text xml:space="preserve" font-family="CourierNewPS-ItalicMT,Courier New" font-style="italic" font-size="20.0" fill="#0000FF" transform="matrix(1.00, 0.00, -0.00, -1.00, 42.4, 286.0)">A</text><text xml:space="preserve" font-family="CourierNewPS-ItalicMT,Courier New" font-style="italic" font-size="20.0" fill="#0000FF" transform="matrix(1.00, 0.00, -0.00, -1.00, 54.4, 286.0)">b</text><text xml:space="preserve" font-family="CourierNewPS-ItalicMT,Courier New" font-style="italic" font-size="20.0" fill="#0000FF" transform="matrix(1.00, 0.00, -0.00, -1.00, 66.4, 286.0)">s</text><text xml:space="preserve" font-family="CourierNewPS-ItalicMT,Courier New" font-style="italic" font-size="20.0" fill="#0000FF" transform="matrix(1.00, 0.00, -0.00, -1.00, 78.4, 286.0)">t</text><text xml:space="preserve" font-family="CourierNewPS-ItalicMT,Courier New" font-style="italic" font-size="20.0" fill="#0000FF" transform="matrix(1.00, 0.00, -0.00, -1.00, 90.4, 286.0)">r</text><text xml:space="preserve" font-family="CourierNewPS-ItalicMT,Courier New" font-style="italic" font-size="20.0" fill="#0000FF" transform="matrix(1.00, 0.00, -0.00, -1.00, 102.4, 286.0)">a</text><text xml:space="preserve" font-family="CourierNewPS-ItalicMT,Courier New" font-style="italic" font-size="20.0" fill="#0000FF" transform="matrix(1.00, 0.00, -0.00, -1.00, 114.4, 286.0)">c</text><text xml:space="preserve" font-family="CourierNewPS-ItalicMT,Courier New" font-style="italic" font-size="20.0" fill="#0000FF" transform="matrix(1.00, 0.00, -0.00, -1.00, 126.4, 286.0)">t</text><text xml:space="preserve" font-family="CourierNewPS-ItalicMT,Courier New" font-style="italic" font-size="20.0" fill="#0000FF" transform="matrix(1.00, 0.00, -0.00, -1.00, 138.4, 286.0)"> </text><text xml:space="preserve" font-family="CourierNewPS-ItalicMT,Courier New" font-style="italic" font-size="20.0" fill="#0000FF" transform="matrix(1.00, 0.00, -0.00, -1.00, 150.4, 286.0)"> </text><text xml:space="preserve" font-family="Tahoma,Tahoma" font-size="11.0" fill="#7E7E7E" transform="matrix(1.00, 0.00, -0.00, -1.00, 468.7, 502.4)">C</text><text xml:space="preserve" font-family="Tahoma,Tahoma" font-size="11.0" fill="#7E7E7E" transform="matrix(1.00, 0.00, -0.00, -1.00, 475.3, 502.4)">o</text><text xml:space="preserve" font-family="Tahoma,Tahoma" font-size="11.0" fill="#7E7E7E" transform="matrix(1.00, 0.00, -0.00, -1.00, 481.3, 502.4)">p</text><text xml:space="preserve" font-family="Tahoma,Tahoma" font-size="11.0" fill="#7E7E7E" transform="matrix(1.00, 0.00, -0.00, -1.00, 487.4, 502.4)">y</text><text xml:space="preserve" font-family="Tahoma,Tahoma" font-size="11.0" fill="#7E7E7E" transform="matrix(1.00, 0.00, -0.00, -1.00, 492.8, 502.4)">r</text><text xml:space="preserve" font-family="Tahoma,Tahoma" font-size="11.0" fill="#7E7E7E" transform="matrix(1.00, 0.00, -0.00, -1.00, 496.8, 502.4)">i</text><text xml:space="preserve" font-family="Tahoma,Tahoma" font-size="11.0" fill="#7E7E7E" transform="matrix(1.00, 0.00, -0.00, -1.00, 499.3, 502.4)">g</text><text xml:space="preserve" font-family="Tahoma,Tahoma" font-size="11.0" fill="#7E7E7E" transform="matrix(1.00, 0.00, -0.00, -1.00, 505.4, 502.4)">h</text><text xml:space="preserve" font-family="Tahoma,Tahoma" font-size="11.0" fill="#7E7E7E" transform="matrix(1.00, 0.00, -0.00, -1.00, 511.5, 502.4)">t</text><text xml:space="preserve" font-family="Tahoma,Tahoma" font-size="11.0" fill="#7E7E7E" transform="matrix(1.00, 0.00, -0.00, -1.00, 515.2, 502.4)"> </text><text xml:space="preserve" font-family="Tahoma,Tahoma" font-size="11.0" fill="#7E7E7E" transform="matrix(1.00, 0.00, -0.00, -1.00, 518.6, 502.4)">©</text><text xml:space="preserve" font-family="Tahoma,Tahoma" font-size="11.0" fill="#7E7E7E" transform="matrix(1.00, 0.00, -0.00, -1.00, 528.8, 502.4)"> </text><text xml:space="preserve" font-family="Tahoma,Tahoma" font-size="11.0" fill="#7E7E7E" transform="matrix(1.00, 0.00, -0.00, -1.00, 532.3, 502.4)">T</text><text xml:space="preserve" font-family="Tahoma,Tahoma" font-size="11.0" fill="#7E7E7E" transform="matrix(1.00, 0.00, -0.00, -1.00, 537.7, 502.4)">u</text><text xml:space="preserve" font-family="Tahoma,Tahoma" font-size="11.0" fill="#7E7E7E" transform="matrix(1.00, 0.00, -0.00, -1.00, 543.8, 502.4)">a</text><text xml:space="preserve" font-family="Tahoma,Tahoma" font-size="11.0" fill="#7E7E7E" transform="matrix(1.00, 0.00, -0.00, -1.00, 549.6, 502.4)">n</text><text xml:space="preserve" font-family="Tahoma,Tahoma" font-size="11.0" fill="#7E7E7E" transform="matrix(1.00, 0.00, -0.00, -1.00, 555.7, 502.4)"> </text><text xml:space="preserve" font-family="Tahoma,Tahoma" font-size="11.0" fill="#7E7E7E" transform="matrix(1.00, 0.00, -0.00, -1.00, 559.1, 502.4)">T</text><text xml:space="preserve" font-family="Tahoma,Tahoma" font-size="11.0" fill="#7E7E7E" transform="matrix(1.00, 0.00, -0.00, -1.00, 564.5, 502.4)">r</text><text xml:space="preserve" font-family="Tahoma,Tahoma" font-size="11.0" fill="#7E7E7E" transform="matrix(1.00, 0.00, -0.00, -1.00, 568.3, 502.4)">a</text><text xml:space="preserve" font-family="Tahoma,Tahoma" font-size="11.0" fill="#7E7E7E" transform="matrix(1.00, 0.00, -0.00, -1.00, 574.1, 502.4)">n</text><text xml:space="preserve" font-family="Tahoma,Tahoma" font-size="11.0" fill="#7E7E7E" transform="matrix(1.00, 0.00, -0.00, -1.00, 580.2, 502.4)"> </text><text xml:space="preserve" font-family="Tahoma,Tahoma" font-size="11.0" fill="#7E7E7E" transform="matrix(1.00, 0.00, -0.00, -1.00, 583.7, 502.4)">2</text><text xml:space="preserve" font-family="Tahoma,Tahoma" font-size="11.0" fill="#7E7E7E" transform="matrix(1.00, 0.00, -0.00, -1.00, 589.7, 502.4)">0</text><text xml:space="preserve" font-family="Tahoma,Tahoma" font-size="11.0" fill="#7E7E7E" transform="matrix(1.00, 0.00, -0.00, -1.00, 595.7, 502.4)">1</text><text xml:space="preserve" font-family="Tahoma,Tahoma" font-size="11.0" fill="#7E7E7E" transform="matrix(1.00, 0.00, -0.00, -1.00, 601.7, 502.4)">4</text></g></svg>