<?xml version="1.0" encoding="UTF-8" standalone="no"?><svg xmlns="http://www.w3.org/2000/svg" xmlns:xlink="http://www.w3.org/1999/xlink" clip-rule="evenodd" stroke-miterlimit="10" viewBox="0 0 236 114"><desc>SVG generated by Keynote</desc><defs></defs><g transform="matrix(1.00, 0.00, -0.00, -1.00, 0.0, 114.0)"><image xlink:href="B26CFA3DBFA5787BBC0D18035BCD2DAA.png" width="233.00" height="108.00" transform="matrix(1.00, 0.00, -0.00, -1.00, 1.5, 109.0)" opacity="0.50"></image><g><clipPath id="clip0x7ff613222770"><path d="M 5.5 22.0 L 5.0 92.0 C 5.0 100.3 12.2 107.0 20.5 107.0 L 215.3 107.0 C 223.6 107.0 230.0 100.3 230.0 92.0 L 230.0 22.0 C 230.0 13.7 223.6 7.0 215.3 7.0 L 20.5 7.0 C 12.2 7.0 5.5 13.7 5.5 22.0 Z M 5.5 22.0 "></path></clipPath><g clip-path="url(#clip0x7ff613222770)"><image xlink:href="../../C0A9F950-6AF3-484F-8A01-DFD96BD98398/assets/F8555586B3BD8EBB32970E466DA799E3.png" width="512.00" height="512.00" transform="matrix(0.50, 0.00, -0.00, -0.50, 5.0, 107.0)"></image></g></g><image xlink:href="C3DA600637AABF784BE9A6909B4E91E1.png" width="208.00" height="35.00" transform="matrix(1.00, 0.00, -0.00, -1.00, 14.0, 89.0)"></image><g><clipPath id="clip0x7ff61675dd20"><path d="M -2.3 7.0 L 238.1 7.0 L 238.1 107.0 L -2.3 107.0 Z M -2.3 7.0 "></path></clipPath><g clip-path="url(#clip0x7ff61675dd20)"><text xml:space="preserve" font-family="HelveticaNeue-Medium,Helvetica Neue" font-size="30.0" fill="#FEFFFE" transform="matrix(1.00, 0.00, -0.00, -1.00, 16.5, 64.8)">C</text><text xml:space="preserve" font-family="HelveticaNeue-Medium,Helvetica Neue" font-size="30.0" fill="#FEFFFE" transform="matrix(1.00, 0.00, -0.00, -1.00, 38.1, 64.8)">h</text><text xml:space="preserve" font-family="HelveticaNeue-Medium,Helvetica Neue" font-size="30.0" fill="#FEFFFE" transform="matrix(1.00, 0.00, -0.00, -1.00, 55.3, 64.8)">e</text><text xml:space="preserve" font-family="HelveticaNeue-Medium,Helvetica Neue" font-size="30.0" fill="#FEFFFE" transform="matrix(1.00, 0.00, -0.00, -1.00, 72.0, 64.8)">m</text><text xml:space="preserve" font-family="HelveticaNeue-Medium,Helvetica Neue" font-size="30.0" fill="#FEFFFE" transform="matrix(1.00, 0.00, -0.00, -1.00, 98.1, 64.8)">i</text><text xml:space="preserve" font-family="HelveticaNeue-Medium,Helvetica Neue" font-size="30.0" fill="#FEFFFE" transform="matrix(1.00, 0.00, -0.00, -1.00, 105.4, 64.8)">s</text><text xml:space="preserve" font-family="HelveticaNeue-Medium,Helvetica Neue" font-size="30.0" fill="#FEFFFE" transform="matrix(1.00, 0.00, -0.00, -1.00, 120.9, 64.8)">t</text><text xml:space="preserve" font-family="HelveticaNeue-Medium,Helvetica Neue" font-size="30.0" fill="#FEFFFE" transform="matrix(1.00, 0.00, -0.00, -1.00, 130.9, 64.8)">r</text><text xml:space="preserve" font-family="HelveticaNeue-Medium,Helvetica Neue" font-size="30.0" fill="#FEFFFE" transform="matrix(1.00, 0.00, -0.00, -1.00, 141.5, 64.8)">y</text><text xml:space="preserve" font-family="HelveticaNeue-Medium,Helvetica Neue" font-size="30.0" fill="#FEFFFE" transform="matrix(1.00, 0.00, -0.00, -1.00, 157.0, 64.8)">Q</text><text xml:space="preserve" font-family="HelveticaNeue-Medium,Helvetica Neue" font-size="30.0" fill="#FEFFFE" transform="matrix(1.00, 0.00, -0.00, -1.00, 179.8, 64.8)">u</text><text xml:space="preserve" font-family="HelveticaNeue-Medium,Helvetica Neue" font-size="30.0" fill="#FEFFFE" transform="matrix(1.00, 0.00, -0.00, -1.00, 197.1, 64.8)">i</text><text xml:space="preserve" font-family="HelveticaNeue-Medium,Helvetica Neue" font-size="30.0" fill="#FEFFFE" transform="matrix(1.00, 0.00, -0.00, -1.00, 204.3, 64.8)">z</text><text xml:space="preserve" font-family="HelveticaNeue-Medium,Helvetica Neue" font-size="30.0" fill="#FEFFFE" transform="matrix(1.00, 0.00, -0.00, -1.00, 219.3, 64.8)"> </text></g></g><image xlink:href="A6746E36304D5CED008F1908D441283F.png" width="76.00" height="29.00" transform="matrix(1.00, 0.00, -0.00, -1.00, 80.0, 52.0)"></image><g><clipPath id="clip0x7ff616772ed0"><path d="M -2.3 7.0 L 238.1 7.0 L 238.1 107.0 L -2.3 107.0 Z M -2.3 7.0 "></path></clipPath><g clip-path="url(#clip0x7ff616772ed0)"><text xml:space="preserve" font-family="HelveticaNeue-Medium,Helvetica Neue" font-size="30.0" fill="#FEFFFE" transform="matrix(1.00, 0.00, -0.00, -1.00, 82.0, 27.8)">c</text><text xml:space="preserve" font-family="HelveticaNeue-Medium,Helvetica Neue" font-size="30.0" fill="#FEFFFE" transform="matrix(1.00, 0.00, -0.00, -1.00, 98.7, 27.8)">l</text><text xml:space="preserve" font-family="HelveticaNeue-Medium,Helvetica Neue" font-size="30.0" fill="#FEFFFE" transform="matrix(1.00, 0.00, -0.00, -1.00, 105.9, 27.8)">a</text><text xml:space="preserve" font-family="HelveticaNeue-Medium,Helvetica Neue" font-size="30.0" fill="#FEFFFE" transform="matrix(1.00, 0.00, -0.00, -1.00, 122.6, 27.8)">s</text><text xml:space="preserve" font-family="HelveticaNeue-Medium,Helvetica Neue" font-size="30.0" fill="#FEFFFE" transform="matrix(1.00, 0.00, -0.00, -1.00, 138.2, 27.8)">s</text><text xml:space="preserve" font-family="HelveticaNeue-Medium,Helvetica Neue" font-size="30.0" fill="#FEFFFE" transform="matrix(1.00, 0.00, -0.00, -1.00, 153.7, 27.8)"> </text></g></g></g></svg>