<?xml version="1.0" encoding="UTF-8" standalone="no"?><svg xmlns="http://www.w3.org/2000/svg" xmlns:xlink="http://www.w3.org/1999/xlink" clip-rule="evenodd" stroke-miterlimit="10" viewBox="0 0 222 114"><desc>SVG generated by Keynote</desc><defs></defs><g transform="matrix(1.00, 0.00, -0.00, -1.00, 0.0, 114.0)"><image xlink:href="88BDB02BECB76B2EE784D87A8376E08C.png" width="219.00" height="108.00" transform="matrix(1.00, 0.00, -0.00, -1.00, 1.5, 109.0)" opacity="0.50"></image><g><clipPath id="clip0x7ff616737c70"><path d="M 5.5 22.0 L 5.0 92.0 C 5.0 100.3 12.2 107.0 20.5 107.0 L 201.5 107.0 C 209.8 107.0 217.0 100.3 217.0 92.0 L 217.0 22.0 C 217.0 13.7 209.8 7.0 201.5 7.0 L 20.5 7.0 C 12.2 7.0 5.5 13.7 5.5 22.0 Z M 5.5 22.0 "></path></clipPath><g clip-path="url(#clip0x7ff616737c70)"><image xlink:href="F8555586B3BD8EBB32970E466DA799E3.png" width="512.00" height="512.00" transform="matrix(0.50, 0.00, -0.00, -0.50, 5.0, 107.0)"></image></g></g><image xlink:href="31A4C3FA439A1D970AFE7CC1E955F9E6.png" width="178.00" height="31.00" transform="matrix(1.00, 0.00, -0.00, -1.00, 22.0, 89.0)"></image><g><clipPath id="clip0x7ff61673a070"><path d="M -2.3 7.0 L 224.3 7.0 L 224.3 107.0 L -2.3 107.0 Z M -2.3 7.0 "></path></clipPath><g clip-path="url(#clip0x7ff61673a070)"><text xml:space="preserve" font-family="HelveticaNeue-Medium,Helvetica Neue" font-size="30.0" fill="#FEFFFE" transform="matrix(1.00, 0.00, -0.00, -1.00, 24.6, 64.8)">S</text><text xml:space="preserve" font-family="HelveticaNeue-Medium,Helvetica Neue" font-size="30.0" fill="#FEFFFE" transform="matrix(1.00, 0.00, -0.00, -1.00, 44.0, 64.8)">c</text><text xml:space="preserve" font-family="HelveticaNeue-Medium,Helvetica Neue" font-size="30.0" fill="#FEFFFE" transform="matrix(1.00, 0.00, -0.00, -1.00, 60.7, 64.8)">i</text><text xml:space="preserve" font-family="HelveticaNeue-Medium,Helvetica Neue" font-size="30.0" fill="#FEFFFE" transform="matrix(1.00, 0.00, -0.00, -1.00, 67.9, 64.8)">e</text><text xml:space="preserve" font-family="HelveticaNeue-Medium,Helvetica Neue" font-size="30.0" fill="#FEFFFE" transform="matrix(1.00, 0.00, -0.00, -1.00, 84.6, 64.8)">n</text><text xml:space="preserve" font-family="HelveticaNeue-Medium,Helvetica Neue" font-size="30.0" fill="#FEFFFE" transform="matrix(1.00, 0.00, -0.00, -1.00, 101.8, 64.8)">c</text><text xml:space="preserve" font-family="HelveticaNeue-Medium,Helvetica Neue" font-size="30.0" fill="#FEFFFE" transform="matrix(1.00, 0.00, -0.00, -1.00, 118.5, 64.8)">e</text><text xml:space="preserve" font-family="HelveticaNeue-Medium,Helvetica Neue" font-size="30.0" fill="#FEFFFE" transform="matrix(1.00, 0.00, -0.00, -1.00, 135.2, 64.8)">Q</text><text xml:space="preserve" font-family="HelveticaNeue-Medium,Helvetica Neue" font-size="30.0" fill="#FEFFFE" transform="matrix(1.00, 0.00, -0.00, -1.00, 158.0, 64.8)">u</text><text xml:space="preserve" font-family="HelveticaNeue-Medium,Helvetica Neue" font-size="30.0" fill="#FEFFFE" transform="matrix(1.00, 0.00, -0.00, -1.00, 175.2, 64.8)">i</text><text xml:space="preserve" font-family="HelveticaNeue-Medium,Helvetica Neue" font-size="30.0" fill="#FEFFFE" transform="matrix(1.00, 0.00, -0.00, -1.00, 182.4, 64.8)">z</text><text xml:space="preserve" font-family="HelveticaNeue-Medium,Helvetica Neue" font-size="30.0" fill="#FEFFFE" transform="matrix(1.00, 0.00, -0.00, -1.00, 197.4, 64.8)"> </text></g></g><image xlink:href="9B4D19A4507FE7AA6C0A095E523ED8A5.png" width="77.00" height="29.00" transform="matrix(1.00, 0.00, -0.00, -1.00, 73.0, 52.0)"></image><g><clipPath id="clip0x7ff616745e10"><path d="M -2.3 7.0 L 224.3 7.0 L 224.3 107.0 L -2.3 107.0 Z M -2.3 7.0 "></path></clipPath><g clip-path="url(#clip0x7ff616745e10)"><text xml:space="preserve" font-family="HelveticaNeue-Medium,Helvetica Neue" font-size="30.0" fill="#FEFFFE" transform="matrix(1.00, 0.00, -0.00, -1.00, 75.1, 27.8)">c</text><text xml:space="preserve" font-family="HelveticaNeue-Medium,Helvetica Neue" font-size="30.0" fill="#FEFFFE" transform="matrix(1.00, 0.00, -0.00, -1.00, 91.8, 27.8)">l</text><text xml:space="preserve" font-family="HelveticaNeue-Medium,Helvetica Neue" font-size="30.0" fill="#FEFFFE" transform="matrix(1.00, 0.00, -0.00, -1.00, 99.0, 27.8)">a</text><text xml:space="preserve" font-family="HelveticaNeue-Medium,Helvetica Neue" font-size="30.0" fill="#FEFFFE" transform="matrix(1.00, 0.00, -0.00, -1.00, 115.7, 27.8)">s</text><text xml:space="preserve" font-family="HelveticaNeue-Medium,Helvetica Neue" font-size="30.0" fill="#FEFFFE" transform="matrix(1.00, 0.00, -0.00, -1.00, 131.3, 27.8)">s</text></g></g></g></svg>