<?xml version="1.0" encoding="UTF-8" standalone="no"?><svg xmlns="http://www.w3.org/2000/svg" xmlns:xlink="http://www.w3.org/1999/xlink" clip-rule="evenodd" stroke-miterlimit="10" viewBox="0 0 222 114"><desc>SVG generated by Keynote</desc><defs></defs><g transform="matrix(1.00, 0.00, -0.00, -1.00, 0.0, 114.0)"><image xlink:href="../../C0A9F950-6AF3-484F-8A01-DFD96BD98398/assets/88BDB02BECB76B2EE784D87A8376E08C.png" width="219.00" height="108.00" transform="matrix(1.00, 0.00, -0.00, -1.00, 1.5, 109.0)" opacity="0.50"></image><g><clipPath id="clip0x7ff613219740"><path d="M 5.5 22.0 L 5.0 92.0 C 5.0 100.3 12.2 107.0 20.5 107.0 L 201.5 107.0 C 209.8 107.0 217.0 100.3 217.0 92.0 L 217.0 22.0 C 217.0 13.7 209.8 7.0 201.5 7.0 L 20.5 7.0 C 12.2 7.0 5.5 13.7 5.5 22.0 Z M 5.5 22.0 "></path></clipPath><g clip-path="url(#clip0x7ff613219740)"><image xlink:href="../../DE629342-4F0C-4417-94FF-D6D835F92EA0/assets/71D9304BD44382C20CC202032C6D6058.png" width="512.00" height="512.00" transform="matrix(0.50, 0.00, -0.00, -0.50, 5.0, 107.0)"></image></g></g><image xlink:href="FC7B72EE9E348B767C8D2A3A9E43A37B.png" width="165.00" height="35.00" transform="matrix(1.00, 0.00, -0.00, -1.00, 29.0, 89.0)"></image><g><clipPath id="clip0x7ff61674e2d0"><path d="M -2.3 7.0 L 224.3 7.0 L 224.3 107.0 L -2.3 107.0 Z M -2.3 7.0 "></path></clipPath><g clip-path="url(#clip0x7ff61674e2d0)"><text xml:space="preserve" font-family="HelveticaNeue-Medium,Helvetica Neue" font-size="30.0" fill="#FEFFFE" transform="matrix(1.00, 0.00, -0.00, -1.00, 30.7, 64.8)">H</text><text xml:space="preserve" font-family="HelveticaNeue-Medium,Helvetica Neue" font-size="30.0" fill="#FEFFFE" transform="matrix(1.00, 0.00, -0.00, -1.00, 52.4, 64.8)">i</text><text xml:space="preserve" font-family="HelveticaNeue-Medium,Helvetica Neue" font-size="30.0" fill="#FEFFFE" transform="matrix(1.00, 0.00, -0.00, -1.00, 59.6, 64.8)">s</text><text xml:space="preserve" font-family="HelveticaNeue-Medium,Helvetica Neue" font-size="30.0" fill="#FEFFFE" transform="matrix(1.00, 0.00, -0.00, -1.00, 75.2, 64.8)">t</text><text xml:space="preserve" font-family="HelveticaNeue-Medium,Helvetica Neue" font-size="30.0" fill="#FEFFFE" transform="matrix(1.00, 0.00, -0.00, -1.00, 85.1, 64.8)">o</text><text xml:space="preserve" font-family="HelveticaNeue-Medium,Helvetica Neue" font-size="30.0" fill="#FEFFFE" transform="matrix(1.00, 0.00, -0.00, -1.00, 102.9, 64.8)">r</text><text xml:space="preserve" font-family="HelveticaNeue-Medium,Helvetica Neue" font-size="30.0" fill="#FEFFFE" transform="matrix(1.00, 0.00, -0.00, -1.00, 113.5, 64.8)">y</text><text xml:space="preserve" font-family="HelveticaNeue-Medium,Helvetica Neue" font-size="30.0" fill="#FEFFFE" transform="matrix(1.00, 0.00, -0.00, -1.00, 129.1, 64.8)">Q</text><text xml:space="preserve" font-family="HelveticaNeue-Medium,Helvetica Neue" font-size="30.0" fill="#FEFFFE" transform="matrix(1.00, 0.00, -0.00, -1.00, 151.9, 64.8)">u</text><text xml:space="preserve" font-family="HelveticaNeue-Medium,Helvetica Neue" font-size="30.0" fill="#FEFFFE" transform="matrix(1.00, 0.00, -0.00, -1.00, 169.1, 64.8)">i</text><text xml:space="preserve" font-family="HelveticaNeue-Medium,Helvetica Neue" font-size="30.0" fill="#FEFFFE" transform="matrix(1.00, 0.00, -0.00, -1.00, 176.3, 64.8)">z</text><text xml:space="preserve" font-family="HelveticaNeue-Medium,Helvetica Neue" font-size="30.0" fill="#FEFFFE" transform="matrix(1.00, 0.00, -0.00, -1.00, 191.3, 64.8)"> </text></g></g><image xlink:href="../../C0A9F950-6AF3-484F-8A01-DFD96BD98398/assets/9B4D19A4507FE7AA6C0A095E523ED8A5.png" width="77.00" height="29.00" transform="matrix(1.00, 0.00, -0.00, -1.00, 73.0, 52.0)"></image><g><clipPath id="clip0x7ff616755980"><path d="M -2.3 7.0 L 224.3 7.0 L 224.3 107.0 L -2.3 107.0 Z M -2.3 7.0 "></path></clipPath><g clip-path="url(#clip0x7ff616755980)"><text xml:space="preserve" font-family="HelveticaNeue-Medium,Helvetica Neue" font-size="30.0" fill="#FEFFFE" transform="matrix(1.00, 0.00, -0.00, -1.00, 75.1, 27.8)">c</text><text xml:space="preserve" font-family="HelveticaNeue-Medium,Helvetica Neue" font-size="30.0" fill="#FEFFFE" transform="matrix(1.00, 0.00, -0.00, -1.00, 91.8, 27.8)">l</text><text xml:space="preserve" font-family="HelveticaNeue-Medium,Helvetica Neue" font-size="30.0" fill="#FEFFFE" transform="matrix(1.00, 0.00, -0.00, -1.00, 99.0, 27.8)">a</text><text xml:space="preserve" font-family="HelveticaNeue-Medium,Helvetica Neue" font-size="30.0" fill="#FEFFFE" transform="matrix(1.00, 0.00, -0.00, -1.00, 115.7, 27.8)">s</text><text xml:space="preserve" font-family="HelveticaNeue-Medium,Helvetica Neue" font-size="30.0" fill="#FEFFFE" transform="matrix(1.00, 0.00, -0.00, -1.00, 131.3, 27.8)">s</text><text xml:space="preserve" font-family="HelveticaNeue-Medium,Helvetica Neue" font-size="30.0" fill="#FEFFFE" transform="matrix(1.00, 0.00, -0.00, -1.00, 146.9, 27.8)"> </text></g></g></g></svg>