<?xml version="1.0" encoding="UTF-8" standalone="no"?><svg xmlns="http://www.w3.org/2000/svg" xmlns:xlink="http://www.w3.org/1999/xlink" clip-rule="evenodd" stroke-miterlimit="10" viewBox="0 0 1024 768"><desc>SVG generated by Keynote</desc><defs></defs><g transform="matrix(1.00, 0.00, -0.00, -1.00, 0.0, 768.0)"><g><clipPath id="clip0x7ff61645a340"><path d="M 0.0 768.0 L 1024.0 768.0 L 1024.0 0.0 L 0.0 0.0 Z M 0.0 768.0 "></path></clipPath><g clip-path="url(#clip0x7ff61645a340)"><image xlink:href="../../BE4D2DDB-FBE4-467E-AE38-B34F9028D09E/assets/9397CAD6F20342ACC2646ABBCA758461.jpeg" width="2048.00" height="1536.00" transform="matrix(0.50, 0.00, -0.00, -0.50, 0.0, 768.0)"></image></g></g><image xlink:href="../../9625D971-A7BE-470F-B77D-D9855BD71A15/assets/D397F2D8B9C797E25724622FA7D4F97A.png" width="794.00" height="67.00" transform="matrix(1.00, 0.00, -0.00, -1.00, 116.0, 690.0)"></image><text xml:space="preserve" font-family="HelveticaNeue-Bold,Helvetica Neue" font-weight="bold" font-size="64.0" fill="#FEFFFE" transform="matrix(1.00, 0.00, -0.00, -1.00, 116.9, 640.7)">i</text><text xml:space="preserve" font-family="HelveticaNeue-Bold,Helvetica Neue" font-weight="bold" font-size="64.0" fill="#FEFFFE" transform="matrix(1.00, 0.00, -0.00, -1.00, 133.4, 640.7)">s</text><text xml:space="preserve" font-family="HelveticaNeue-Bold,Helvetica Neue" font-weight="bold" font-size="64.0" fill="#FEFFFE" transform="matrix(1.00, 0.00, -0.00, -1.00, 167.8, 640.7)">-</text><text xml:space="preserve" font-family="HelveticaNeue-Bold,Helvetica Neue" font-weight="bold" font-size="64.0" fill="#FEFFFE" transform="matrix(1.00, 0.00, -0.00, -1.00, 193.9, 640.7)">a</text><text xml:space="preserve" font-family="HelveticaNeue-Bold,Helvetica Neue" font-weight="bold" font-size="64.0" fill="#FEFFFE" transform="matrix(1.00, 0.00, -0.00, -1.00, 230.6, 640.7)"> </text><text xml:space="preserve" font-family="HelveticaNeue-Bold,Helvetica Neue" font-weight="bold" font-size="64.0" fill="#FEFFFE" transform="matrix(1.00, 0.00, -0.00, -1.00, 248.4, 640.7)">R</text><text xml:space="preserve" font-family="HelveticaNeue-Bold,Helvetica Neue" font-weight="bold" font-size="64.0" fill="#FEFFFE" transform="matrix(1.00, 0.00, -0.00, -1.00, 294.6, 640.7)">e</text><text xml:space="preserve" font-family="HelveticaNeue-Bold,Helvetica Neue" font-weight="bold" font-size="64.0" fill="#FEFFFE" transform="matrix(1.00, 0.00, -0.00, -1.00, 331.3, 640.7)">l</text><text xml:space="preserve" font-family="HelveticaNeue-Bold,Helvetica Neue" font-weight="bold" font-size="64.0" fill="#FEFFFE" transform="matrix(1.00, 0.00, -0.00, -1.00, 347.8, 640.7)">a</text><text xml:space="preserve" font-family="HelveticaNeue-Bold,Helvetica Neue" font-weight="bold" font-size="64.0" fill="#FEFFFE" transform="matrix(1.00, 0.00, -0.00, -1.00, 384.6, 640.7)">t</text><text xml:space="preserve" font-family="HelveticaNeue-Bold,Helvetica Neue" font-weight="bold" font-size="64.0" fill="#FEFFFE" transform="matrix(1.00, 0.00, -0.00, -1.00, 407.1, 640.7)">i</text><text xml:space="preserve" font-family="HelveticaNeue-Bold,Helvetica Neue" font-weight="bold" font-size="64.0" fill="#FEFFFE" transform="matrix(1.00, 0.00, -0.00, -1.00, 423.6, 640.7)">o</text><text xml:space="preserve" font-family="HelveticaNeue-Bold,Helvetica Neue" font-weight="bold" font-size="64.0" fill="#FEFFFE" transform="matrix(1.00, 0.00, -0.00, -1.00, 462.7, 640.7)">n</text><text xml:space="preserve" font-family="HelveticaNeue-Bold,Helvetica Neue" font-weight="bold" font-size="64.0" fill="#FEFFFE" transform="matrix(1.00, 0.00, -0.00, -1.00, 500.7, 640.7)">s</text><text xml:space="preserve" font-family="HelveticaNeue-Bold,Helvetica Neue" font-weight="bold" font-size="64.0" fill="#FEFFFE" transform="matrix(1.00, 0.00, -0.00, -1.00, 535.0, 640.7)">h</text><text xml:space="preserve" font-family="HelveticaNeue-Bold,Helvetica Neue" font-weight="bold" font-size="64.0" fill="#FEFFFE" transform="matrix(1.00, 0.00, -0.00, -1.00, 573.0, 640.7)">i</text><text xml:space="preserve" font-family="HelveticaNeue-Bold,Helvetica Neue" font-weight="bold" font-size="64.0" fill="#FEFFFE" transform="matrix(1.00, 0.00, -0.00, -1.00, 589.5, 640.7)">p</text><text xml:space="preserve" font-family="HelveticaNeue-Bold,Helvetica Neue" font-weight="bold" font-size="64.0" fill="#FEFFFE" transform="matrix(1.00, 0.00, -0.00, -1.00, 628.6, 640.7)"> </text><text xml:space="preserve" font-family="HelveticaNeue-Bold,Helvetica Neue" font-weight="bold" font-size="64.0" fill="#FEFFFE" transform="matrix(1.00, 0.00, -0.00, -1.00, 646.4, 640.7)">f</text><text xml:space="preserve" font-family="HelveticaNeue-Bold,Helvetica Neue" font-weight="bold" font-size="64.0" fill="#FEFFFE" transform="matrix(1.00, 0.00, -0.00, -1.00, 667.7, 640.7)">o</text><text xml:space="preserve" font-family="HelveticaNeue-Bold,Helvetica Neue" font-weight="bold" font-size="64.0" fill="#FEFFFE" transform="matrix(1.00, 0.00, -0.00, -1.00, 706.8, 640.7)">r</text><text xml:space="preserve" font-family="HelveticaNeue-Bold,Helvetica Neue" font-weight="bold" font-size="64.0" fill="#FEFFFE" transform="matrix(1.00, 0.00, -0.00, -1.00, 731.7, 640.7)"> </text><text xml:space="preserve" font-family="HelveticaNeue-Bold,Helvetica Neue" font-weight="bold" font-size="64.0" fill="#FEFFFE" transform="matrix(1.00, 0.00, -0.00, -1.00, 749.5, 640.7)">Q</text><text xml:space="preserve" font-family="HelveticaNeue-Bold,Helvetica Neue" font-weight="bold" font-size="64.0" fill="#FEFFFE" transform="matrix(1.00, 0.00, -0.00, -1.00, 799.3, 640.7)">U</text><text xml:space="preserve" font-family="HelveticaNeue-Bold,Helvetica Neue" font-weight="bold" font-size="64.0" fill="#FEFFFE" transform="matrix(1.00, 0.00, -0.00, -1.00, 846.7, 640.7)">I</text><text xml:space="preserve" font-family="HelveticaNeue-Bold,Helvetica Neue" font-weight="bold" font-size="64.0" fill="#FEFFFE" transform="matrix(1.00, 0.00, -0.00, -1.00, 865.6, 640.7)">Z</text><image xlink:href="../../9625D971-A7BE-470F-B77D-D9855BD71A15/assets/2FB68CF47A5F707E9BE10002673AF37A.png" width="219.00" height="108.00" transform="matrix(1.00, 0.00, -0.00, -1.00, 488.0, 588.0)" opacity="0.50"></image><g><clipPath id="clip0x7ff6167e3740"><path d="M 492.0 501.0 L 492.0 571.0 C 492.0 579.3 498.7 586.0 507.0 586.0 L 688.0 586.0 C 696.3 586.0 703.0 579.3 703.0 571.0 L 703.0 501.0 C 703.0 492.7 696.3 486.0 688.0 486.0 L 507.0 486.0 C 498.7 486.0 492.0 492.7 492.0 501.0 Z M 492.0 501.0 "></path></clipPath><g clip-path="url(#clip0x7ff6167e3740)"><image xlink:href="../../9625D971-A7BE-470F-B77D-D9855BD71A15/assets/54E4D6AD82294F7B4327F67323B5058A.png" width="512.00" height="512.00" transform="matrix(0.50, 0.00, -0.00, -0.50, 492.0, 586.0)"></image></g></g><image xlink:href="../../9625D971-A7BE-470F-B77D-D9855BD71A15/assets/B171F9E741705CBD2F0C202871835FE8.png" width="175.00" height="31.00" transform="matrix(1.00, 0.00, -0.00, -1.00, 510.0, 568.0)"></image><g><clipPath id="clip0x7ff6132a5a80"><path d="M 484.2 486.0 L 710.8 486.0 L 710.8 586.0 L 484.2 586.0 Z M 484.2 486.0 "></path></clipPath><g clip-path="url(#clip0x7ff6132a5a80)"><text xml:space="preserve" font-family="HelveticaNeue-Medium,Helvetica Neue" font-size="30.0" fill="#FEFFFE" transform="matrix(1.00, 0.00, -0.00, -1.00, 512.5, 543.8)">G</text><text xml:space="preserve" font-family="HelveticaNeue-Medium,Helvetica Neue" font-size="30.0" fill="#FEFFFE" transform="matrix(1.00, 0.00, -0.00, -1.00, 535.2, 543.8)">e</text><text xml:space="preserve" font-family="HelveticaNeue-Medium,Helvetica Neue" font-size="30.0" fill="#FEFFFE" transform="matrix(1.00, 0.00, -0.00, -1.00, 551.9, 543.8)">n</text><text xml:space="preserve" font-family="HelveticaNeue-Medium,Helvetica Neue" font-size="30.0" fill="#FEFFFE" transform="matrix(1.00, 0.00, -0.00, -1.00, 569.1, 543.8)">e</text><text xml:space="preserve" font-family="HelveticaNeue-Medium,Helvetica Neue" font-size="30.0" fill="#FEFFFE" transform="matrix(1.00, 0.00, -0.00, -1.00, 585.8, 543.8)">r</text><text xml:space="preserve" font-family="HelveticaNeue-Medium,Helvetica Neue" font-size="30.0" fill="#FEFFFE" transform="matrix(1.00, 0.00, -0.00, -1.00, 596.4, 543.8)">a</text><text xml:space="preserve" font-family="HelveticaNeue-Medium,Helvetica Neue" font-size="30.0" fill="#FEFFFE" transform="matrix(1.00, 0.00, -0.00, -1.00, 613.0, 543.8)">l</text><text xml:space="preserve" font-family="HelveticaNeue-Medium,Helvetica Neue" font-size="30.0" fill="#FEFFFE" transform="matrix(1.00, 0.00, -0.00, -1.00, 620.3, 543.8)">Q</text><text xml:space="preserve" font-family="HelveticaNeue-Medium,Helvetica Neue" font-size="30.0" fill="#FEFFFE" transform="matrix(1.00, 0.00, -0.00, -1.00, 643.1, 543.8)">u</text><text xml:space="preserve" font-family="HelveticaNeue-Medium,Helvetica Neue" font-size="30.0" fill="#FEFFFE" transform="matrix(1.00, 0.00, -0.00, -1.00, 660.3, 543.8)">i</text><text xml:space="preserve" font-family="HelveticaNeue-Medium,Helvetica Neue" font-size="30.0" fill="#FEFFFE" transform="matrix(1.00, 0.00, -0.00, -1.00, 667.5, 543.8)">z</text><text xml:space="preserve" font-family="HelveticaNeue-Medium,Helvetica Neue" font-size="30.0" fill="#FEFFFE" transform="matrix(1.00, 0.00, -0.00, -1.00, 682.5, 543.8)"> </text></g></g><image xlink:href="../../9625D971-A7BE-470F-B77D-D9855BD71A15/assets/598AE1B3E738DEDD75E0AA06F0B69C3C.png" width="155.00" height="34.00" transform="matrix(1.00, 0.00, -0.00, -1.00, 520.0, 531.0)"></image><g><clipPath id="clip0x7ff6132b11f0"><path d="M 484.2 486.0 L 710.8 486.0 L 710.8 586.0 L 484.2 586.0 Z M 484.2 486.0 "></path></clipPath><g clip-path="url(#clip0x7ff6132b11f0)"><text xml:space="preserve" font-family="HelveticaNeue-Medium,Helvetica Neue" font-size="30.0" fill="#FEFFFE" transform="matrix(1.00, 0.00, -0.00, -1.00, 522.7, 506.8)">s</text><text xml:space="preserve" font-family="HelveticaNeue-Medium,Helvetica Neue" font-size="30.0" fill="#FEFFFE" transform="matrix(1.00, 0.00, -0.00, -1.00, 538.3, 506.8)">u</text><text xml:space="preserve" font-family="HelveticaNeue-Medium,Helvetica Neue" font-size="30.0" fill="#FEFFFE" transform="matrix(1.00, 0.00, -0.00, -1.00, 555.5, 506.8)">p</text><text xml:space="preserve" font-family="HelveticaNeue-Medium,Helvetica Neue" font-size="30.0" fill="#FEFFFE" transform="matrix(1.00, 0.00, -0.00, -1.00, 573.8, 506.8)">e</text><text xml:space="preserve" font-family="HelveticaNeue-Medium,Helvetica Neue" font-size="30.0" fill="#FEFFFE" transform="matrix(1.00, 0.00, -0.00, -1.00, 590.5, 506.8)">r</text><text xml:space="preserve" font-family="HelveticaNeue-Medium,Helvetica Neue" font-size="30.0" fill="#FEFFFE" transform="matrix(1.00, 0.00, -0.00, -1.00, 600.5, 506.8)">c</text><text xml:space="preserve" font-family="HelveticaNeue-Medium,Helvetica Neue" font-size="30.0" fill="#FEFFFE" transform="matrix(1.00, 0.00, -0.00, -1.00, 617.2, 506.8)">l</text><text xml:space="preserve" font-family="HelveticaNeue-Medium,Helvetica Neue" font-size="30.0" fill="#FEFFFE" transform="matrix(1.00, 0.00, -0.00, -1.00, 624.4, 506.8)">a</text><text xml:space="preserve" font-family="HelveticaNeue-Medium,Helvetica Neue" font-size="30.0" fill="#FEFFFE" transform="matrix(1.00, 0.00, -0.00, -1.00, 641.1, 506.8)">s</text><text xml:space="preserve" font-family="HelveticaNeue-Medium,Helvetica Neue" font-size="30.0" fill="#FEFFFE" transform="matrix(1.00, 0.00, -0.00, -1.00, 656.7, 506.8)">s</text></g></g><image xlink:href="../../C0A9F950-6AF3-484F-8A01-DFD96BD98398/assets/88BDB02BECB76B2EE784D87A8376E08C.png" width="219.00" height="108.00" transform="matrix(1.00, 0.00, -0.00, -1.00, 272.5, 430.0)" opacity="0.50"></image><g><clipPath id="clip0x7ff6132b6d00"><path d="M 276.5 343.0 L 276.0 413.0 C 276.0 421.3 283.2 428.0 291.5 428.0 L 472.5 428.0 C 480.8 428.0 488.0 421.3 488.0 413.0 L 488.0 343.0 C 488.0 334.7 480.8 328.0 472.5 328.0 L 291.5 328.0 C 283.2 328.0 276.5 334.7 276.5 343.0 Z M 276.5 343.0 "></path></clipPath><g clip-path="url(#clip0x7ff6132b6d00)"><image xlink:href="../../C0A9F950-6AF3-484F-8A01-DFD96BD98398/assets/F8555586B3BD8EBB32970E466DA799E3.png" width="512.00" height="512.00" transform="matrix(0.50, 0.00, -0.00, -0.50, 276.0, 428.0)"></image></g></g><image xlink:href="../../C0A9F950-6AF3-484F-8A01-DFD96BD98398/assets/31A4C3FA439A1D970AFE7CC1E955F9E6.png" width="178.00" height="31.00" transform="matrix(1.00, 0.00, -0.00, -1.00, 293.0, 410.0)"></image><g><clipPath id="clip0x7ff6166ab3b0"><path d="M 268.7 328.0 L 495.3 328.0 L 495.3 428.0 L 268.7 428.0 Z M 268.7 328.0 "></path></clipPath><g clip-path="url(#clip0x7ff6166ab3b0)"><text xml:space="preserve" font-family="HelveticaNeue-Medium,Helvetica Neue" font-size="30.0" fill="#FEFFFE" transform="matrix(1.00, 0.00, -0.00, -1.00, 295.6, 385.8)">S</text><text xml:space="preserve" font-family="HelveticaNeue-Medium,Helvetica Neue" font-size="30.0" fill="#FEFFFE" transform="matrix(1.00, 0.00, -0.00, -1.00, 315.0, 385.8)">c</text><text xml:space="preserve" font-family="HelveticaNeue-Medium,Helvetica Neue" font-size="30.0" fill="#FEFFFE" transform="matrix(1.00, 0.00, -0.00, -1.00, 331.7, 385.8)">i</text><text xml:space="preserve" font-family="HelveticaNeue-Medium,Helvetica Neue" font-size="30.0" fill="#FEFFFE" transform="matrix(1.00, 0.00, -0.00, -1.00, 338.9, 385.8)">e</text><text xml:space="preserve" font-family="HelveticaNeue-Medium,Helvetica Neue" font-size="30.0" fill="#FEFFFE" transform="matrix(1.00, 0.00, -0.00, -1.00, 355.6, 385.8)">n</text><text xml:space="preserve" font-family="HelveticaNeue-Medium,Helvetica Neue" font-size="30.0" fill="#FEFFFE" transform="matrix(1.00, 0.00, -0.00, -1.00, 372.8, 385.8)">c</text><text xml:space="preserve" font-family="HelveticaNeue-Medium,Helvetica Neue" font-size="30.0" fill="#FEFFFE" transform="matrix(1.00, 0.00, -0.00, -1.00, 389.5, 385.8)">e</text><text xml:space="preserve" font-family="HelveticaNeue-Medium,Helvetica Neue" font-size="30.0" fill="#FEFFFE" transform="matrix(1.00, 0.00, -0.00, -1.00, 406.2, 385.8)">Q</text><text xml:space="preserve" font-family="HelveticaNeue-Medium,Helvetica Neue" font-size="30.0" fill="#FEFFFE" transform="matrix(1.00, 0.00, -0.00, -1.00, 429.0, 385.8)">u</text><text xml:space="preserve" font-family="HelveticaNeue-Medium,Helvetica Neue" font-size="30.0" fill="#FEFFFE" transform="matrix(1.00, 0.00, -0.00, -1.00, 446.2, 385.8)">i</text><text xml:space="preserve" font-family="HelveticaNeue-Medium,Helvetica Neue" font-size="30.0" fill="#FEFFFE" transform="matrix(1.00, 0.00, -0.00, -1.00, 453.4, 385.8)">z</text><text xml:space="preserve" font-family="HelveticaNeue-Medium,Helvetica Neue" font-size="30.0" fill="#FEFFFE" transform="matrix(1.00, 0.00, -0.00, -1.00, 468.4, 385.8)"> </text></g></g><image xlink:href="../../C0A9F950-6AF3-484F-8A01-DFD96BD98398/assets/9B4D19A4507FE7AA6C0A095E523ED8A5.png" width="77.00" height="29.00" transform="matrix(1.00, 0.00, -0.00, -1.00, 344.0, 373.0)"></image><g><clipPath id="clip0x7ff6166b2e40"><path d="M 268.7 328.0 L 495.3 328.0 L 495.3 428.0 L 268.7 428.0 Z M 268.7 328.0 "></path></clipPath><g clip-path="url(#clip0x7ff6166b2e40)"><text xml:space="preserve" font-family="HelveticaNeue-Medium,Helvetica Neue" font-size="30.0" fill="#FEFFFE" transform="matrix(1.00, 0.00, -0.00, -1.00, 346.1, 348.8)">c</text><text xml:space="preserve" font-family="HelveticaNeue-Medium,Helvetica Neue" font-size="30.0" fill="#FEFFFE" transform="matrix(1.00, 0.00, -0.00, -1.00, 362.8, 348.8)">l</text><text xml:space="preserve" font-family="HelveticaNeue-Medium,Helvetica Neue" font-size="30.0" fill="#FEFFFE" transform="matrix(1.00, 0.00, -0.00, -1.00, 370.0, 348.8)">a</text><text xml:space="preserve" font-family="HelveticaNeue-Medium,Helvetica Neue" font-size="30.0" fill="#FEFFFE" transform="matrix(1.00, 0.00, -0.00, -1.00, 386.7, 348.8)">s</text><text xml:space="preserve" font-family="HelveticaNeue-Medium,Helvetica Neue" font-size="30.0" fill="#FEFFFE" transform="matrix(1.00, 0.00, -0.00, -1.00, 402.3, 348.8)">s</text></g></g><image xlink:href="../../C0A9F950-6AF3-484F-8A01-DFD96BD98398/assets/88BDB02BECB76B2EE784D87A8376E08C.png" width="219.00" height="108.00" transform="matrix(1.00, 0.00, -0.00, -1.00, 705.5, 430.0)" opacity="0.50"></image><g><clipPath id="clip0x7ff6132b92d0"><path d="M 709.5 343.0 L 709.0 413.0 C 709.0 421.3 716.2 428.0 724.5 428.0 L 905.5 428.0 C 913.8 428.0 921.0 421.3 921.0 413.0 L 921.0 343.0 C 921.0 334.7 913.8 328.0 905.5 328.0 L 724.5 328.0 C 716.2 328.0 709.5 334.7 709.5 343.0 Z M 709.5 343.0 "></path></clipPath><g clip-path="url(#clip0x7ff6132b92d0)"><image xlink:href="../../DE629342-4F0C-4417-94FF-D6D835F92EA0/assets/71D9304BD44382C20CC202032C6D6058.png" width="512.00" height="512.00" transform="matrix(0.50, 0.00, -0.00, -0.50, 709.0, 428.0)"></image></g></g><image xlink:href="../../C0A9F950-6AF3-484F-8A01-DFD96BD98398/assets/FC7B72EE9E348B767C8D2A3A9E43A37B.png" width="165.00" height="35.00" transform="matrix(1.00, 0.00, -0.00, -1.00, 733.0, 410.0)"></image><g><clipPath id="clip0x7ff6167e0f50"><path d="M 701.7 328.0 L 928.3 328.0 L 928.3 428.0 L 701.7 428.0 Z M 701.7 328.0 "></path></clipPath><g clip-path="url(#clip0x7ff6167e0f50)"><text xml:space="preserve" font-family="HelveticaNeue-Medium,Helvetica Neue" font-size="30.0" fill="#FEFFFE" transform="matrix(1.00, 0.00, -0.00, -1.00, 734.7, 385.8)">H</text><text xml:space="preserve" font-family="HelveticaNeue-Medium,Helvetica Neue" font-size="30.0" fill="#FEFFFE" transform="matrix(1.00, 0.00, -0.00, -1.00, 756.4, 385.8)">i</text><text xml:space="preserve" font-family="HelveticaNeue-Medium,Helvetica Neue" font-size="30.0" fill="#FEFFFE" transform="matrix(1.00, 0.00, -0.00, -1.00, 763.6, 385.8)">s</text><text xml:space="preserve" font-family="HelveticaNeue-Medium,Helvetica Neue" font-size="30.0" fill="#FEFFFE" transform="matrix(1.00, 0.00, -0.00, -1.00, 779.2, 385.8)">t</text><text xml:space="preserve" font-family="HelveticaNeue-Medium,Helvetica Neue" font-size="30.0" fill="#FEFFFE" transform="matrix(1.00, 0.00, -0.00, -1.00, 789.1, 385.8)">o</text><text xml:space="preserve" font-family="HelveticaNeue-Medium,Helvetica Neue" font-size="30.0" fill="#FEFFFE" transform="matrix(1.00, 0.00, -0.00, -1.00, 806.9, 385.8)">r</text><text xml:space="preserve" font-family="HelveticaNeue-Medium,Helvetica Neue" font-size="30.0" fill="#FEFFFE" transform="matrix(1.00, 0.00, -0.00, -1.00, 817.5, 385.8)">y</text><text xml:space="preserve" font-family="HelveticaNeue-Medium,Helvetica Neue" font-size="30.0" fill="#FEFFFE" transform="matrix(1.00, 0.00, -0.00, -1.00, 833.1, 385.8)">Q</text><text xml:space="preserve" font-family="HelveticaNeue-Medium,Helvetica Neue" font-size="30.0" fill="#FEFFFE" transform="matrix(1.00, 0.00, -0.00, -1.00, 855.9, 385.8)">u</text><text xml:space="preserve" font-family="HelveticaNeue-Medium,Helvetica Neue" font-size="30.0" fill="#FEFFFE" transform="matrix(1.00, 0.00, -0.00, -1.00, 873.1, 385.8)">i</text><text xml:space="preserve" font-family="HelveticaNeue-Medium,Helvetica Neue" font-size="30.0" fill="#FEFFFE" transform="matrix(1.00, 0.00, -0.00, -1.00, 880.3, 385.8)">z</text><text xml:space="preserve" font-family="HelveticaNeue-Medium,Helvetica Neue" font-size="30.0" fill="#FEFFFE" transform="matrix(1.00, 0.00, -0.00, -1.00, 895.3, 385.8)"> </text></g></g><image xlink:href="../../C0A9F950-6AF3-484F-8A01-DFD96BD98398/assets/9B4D19A4507FE7AA6C0A095E523ED8A5.png" width="77.00" height="29.00" transform="matrix(1.00, 0.00, -0.00, -1.00, 777.0, 373.0)"></image><g><clipPath id="clip0x7ff616801240"><path d="M 701.7 328.0 L 928.3 328.0 L 928.3 428.0 L 701.7 428.0 Z M 701.7 328.0 "></path></clipPath><g clip-path="url(#clip0x7ff616801240)"><text xml:space="preserve" font-family="HelveticaNeue-Medium,Helvetica Neue" font-size="30.0" fill="#FEFFFE" transform="matrix(1.00, 0.00, -0.00, -1.00, 779.1, 348.8)">c</text><text xml:space="preserve" font-family="HelveticaNeue-Medium,Helvetica Neue" font-size="30.0" fill="#FEFFFE" transform="matrix(1.00, 0.00, -0.00, -1.00, 795.8, 348.8)">l</text><text xml:space="preserve" font-family="HelveticaNeue-Medium,Helvetica Neue" font-size="30.0" fill="#FEFFFE" transform="matrix(1.00, 0.00, -0.00, -1.00, 803.0, 348.8)">a</text><text xml:space="preserve" font-family="HelveticaNeue-Medium,Helvetica Neue" font-size="30.0" fill="#FEFFFE" transform="matrix(1.00, 0.00, -0.00, -1.00, 819.7, 348.8)">s</text><text xml:space="preserve" font-family="HelveticaNeue-Medium,Helvetica Neue" font-size="30.0" fill="#FEFFFE" transform="matrix(1.00, 0.00, -0.00, -1.00, 835.3, 348.8)">s</text><text xml:space="preserve" font-family="HelveticaNeue-Medium,Helvetica Neue" font-size="30.0" fill="#FEFFFE" transform="matrix(1.00, 0.00, -0.00, -1.00, 850.9, 348.8)"> </text></g></g><image xlink:href="../../C0A9F950-6AF3-484F-8A01-DFD96BD98398/assets/88BDB02BECB76B2EE784D87A8376E08C.png" width="219.00" height="108.00" transform="matrix(1.00, 0.00, -0.00, -1.00, 99.5, 267.0)" opacity="0.50"></image><g><clipPath id="clip0x7ff6166b79d0"><path d="M 103.5 180.0 L 103.0 250.0 C 103.0 258.3 110.2 265.0 118.5 265.0 L 299.5 265.0 C 307.8 265.0 315.0 258.3 315.0 250.0 L 315.0 180.0 C 315.0 171.7 307.8 165.0 299.5 165.0 L 118.5 165.0 C 110.2 165.0 103.5 171.7 103.5 180.0 Z M 103.5 180.0 "></path></clipPath><g clip-path="url(#clip0x7ff6166b79d0)"><image xlink:href="../../C0A9F950-6AF3-484F-8A01-DFD96BD98398/assets/F8555586B3BD8EBB32970E466DA799E3.png" width="512.00" height="512.00" transform="matrix(0.50, 0.00, -0.00, -0.50, 103.0, 265.0)"></image></g></g><image xlink:href="../../C0A9F950-6AF3-484F-8A01-DFD96BD98398/assets/4D87711AC596C95F3E8954006684F569.png" width="171.00" height="35.00" transform="matrix(1.00, 0.00, -0.00, -1.00, 124.0, 247.0)"></image><g><clipPath id="clip0x7ff6166bad40"><path d="M 95.7 165.0 L 322.3 165.0 L 322.3 265.0 L 95.7 265.0 Z M 95.7 165.0 "></path></clipPath><g clip-path="url(#clip0x7ff6166bad40)"><text xml:space="preserve" font-family="HelveticaNeue-Medium,Helvetica Neue" font-size="30.0" fill="#FEFFFE" transform="matrix(1.00, 0.00, -0.00, -1.00, 125.6, 222.8)">B</text><text xml:space="preserve" font-family="HelveticaNeue-Medium,Helvetica Neue" font-size="30.0" fill="#FEFFFE" transform="matrix(1.00, 0.00, -0.00, -1.00, 146.7, 222.8)">i</text><text xml:space="preserve" font-family="HelveticaNeue-Medium,Helvetica Neue" font-size="30.0" fill="#FEFFFE" transform="matrix(1.00, 0.00, -0.00, -1.00, 154.0, 222.8)">o</text><text xml:space="preserve" font-family="HelveticaNeue-Medium,Helvetica Neue" font-size="30.0" fill="#FEFFFE" transform="matrix(1.00, 0.00, -0.00, -1.00, 171.8, 222.8)">l</text><text xml:space="preserve" font-family="HelveticaNeue-Medium,Helvetica Neue" font-size="30.0" fill="#FEFFFE" transform="matrix(1.00, 0.00, -0.00, -1.00, 179.0, 222.8)">o</text><text xml:space="preserve" font-family="HelveticaNeue-Medium,Helvetica Neue" font-size="30.0" fill="#FEFFFE" transform="matrix(1.00, 0.00, -0.00, -1.00, 196.8, 222.8)">g</text><text xml:space="preserve" font-family="HelveticaNeue-Medium,Helvetica Neue" font-size="30.0" fill="#FEFFFE" transform="matrix(1.00, 0.00, -0.00, -1.00, 214.6, 222.8)">y</text><text xml:space="preserve" font-family="HelveticaNeue-Medium,Helvetica Neue" font-size="30.0" fill="#FEFFFE" transform="matrix(1.00, 0.00, -0.00, -1.00, 230.1, 222.8)">Q</text><text xml:space="preserve" font-family="HelveticaNeue-Medium,Helvetica Neue" font-size="30.0" fill="#FEFFFE" transform="matrix(1.00, 0.00, -0.00, -1.00, 252.9, 222.8)">u</text><text xml:space="preserve" font-family="HelveticaNeue-Medium,Helvetica Neue" font-size="30.0" fill="#FEFFFE" transform="matrix(1.00, 0.00, -0.00, -1.00, 270.2, 222.8)">i</text><text xml:space="preserve" font-family="HelveticaNeue-Medium,Helvetica Neue" font-size="30.0" fill="#FEFFFE" transform="matrix(1.00, 0.00, -0.00, -1.00, 277.4, 222.8)">z</text><text xml:space="preserve" font-family="HelveticaNeue-Medium,Helvetica Neue" font-size="30.0" fill="#FEFFFE" transform="matrix(1.00, 0.00, -0.00, -1.00, 292.4, 222.8)"> </text></g></g><image xlink:href="../../C0A9F950-6AF3-484F-8A01-DFD96BD98398/assets/9B4D19A4507FE7AA6C0A095E523ED8A5.png" width="77.00" height="29.00" transform="matrix(1.00, 0.00, -0.00, -1.00, 171.0, 210.0)"></image><g><clipPath id="clip0x7ff6166c0a60"><path d="M 95.7 165.0 L 322.3 165.0 L 322.3 265.0 L 95.7 265.0 Z M 95.7 165.0 "></path></clipPath><g clip-path="url(#clip0x7ff6166c0a60)"><text xml:space="preserve" font-family="HelveticaNeue-Medium,Helvetica Neue" font-size="30.0" fill="#FEFFFE" transform="matrix(1.00, 0.00, -0.00, -1.00, 173.1, 185.8)">c</text><text xml:space="preserve" font-family="HelveticaNeue-Medium,Helvetica Neue" font-size="30.0" fill="#FEFFFE" transform="matrix(1.00, 0.00, -0.00, -1.00, 189.8, 185.8)">l</text><text xml:space="preserve" font-family="HelveticaNeue-Medium,Helvetica Neue" font-size="30.0" fill="#FEFFFE" transform="matrix(1.00, 0.00, -0.00, -1.00, 197.0, 185.8)">a</text><text xml:space="preserve" font-family="HelveticaNeue-Medium,Helvetica Neue" font-size="30.0" fill="#FEFFFE" transform="matrix(1.00, 0.00, -0.00, -1.00, 213.7, 185.8)">s</text><text xml:space="preserve" font-family="HelveticaNeue-Medium,Helvetica Neue" font-size="30.0" fill="#FEFFFE" transform="matrix(1.00, 0.00, -0.00, -1.00, 229.3, 185.8)">s</text><text xml:space="preserve" font-family="HelveticaNeue-Medium,Helvetica Neue" font-size="30.0" fill="#FEFFFE" transform="matrix(1.00, 0.00, -0.00, -1.00, 244.9, 185.8)"> </text></g></g><image xlink:href="../../C0A9F950-6AF3-484F-8A01-DFD96BD98398/assets/B26CFA3DBFA5787BBC0D18035BCD2DAA.png" width="233.00" height="108.00" transform="matrix(1.00, 0.00, -0.00, -1.00, 430.5, 267.0)" opacity="0.50"></image><g><clipPath id="clip0x7ff61645d4d0"><path d="M 434.5 180.0 L 434.0 250.0 C 434.0 258.3 441.2 265.0 449.5 265.0 L 644.3 265.0 C 652.6 265.0 659.0 258.3 659.0 250.0 L 659.0 180.0 C 659.0 171.7 652.6 165.0 644.3 165.0 L 449.5 165.0 C 441.2 165.0 434.5 171.7 434.5 180.0 Z M 434.5 180.0 "></path></clipPath><g clip-path="url(#clip0x7ff61645d4d0)"><image xlink:href="../../C0A9F950-6AF3-484F-8A01-DFD96BD98398/assets/F8555586B3BD8EBB32970E466DA799E3.png" width="512.00" height="512.00" transform="matrix(0.50, 0.00, -0.00, -0.50, 434.0, 265.0)"></image></g></g><image xlink:href="../../C0A9F950-6AF3-484F-8A01-DFD96BD98398/assets/C3DA600637AABF784BE9A6909B4E91E1.png" width="208.00" height="35.00" transform="matrix(1.00, 0.00, -0.00, -1.00, 443.0, 247.0)"></image><g><clipPath id="clip0x7ff616807e00"><path d="M 426.7 165.0 L 667.1 165.0 L 667.1 265.0 L 426.7 265.0 Z M 426.7 165.0 "></path></clipPath><g clip-path="url(#clip0x7ff616807e00)"><text xml:space="preserve" font-family="HelveticaNeue-Medium,Helvetica Neue" font-size="30.0" fill="#FEFFFE" transform="matrix(1.00, 0.00, -0.00, -1.00, 445.5, 222.8)">C</text><text xml:space="preserve" font-family="HelveticaNeue-Medium,Helvetica Neue" font-size="30.0" fill="#FEFFFE" transform="matrix(1.00, 0.00, -0.00, -1.00, 467.1, 222.8)">h</text><text xml:space="preserve" font-family="HelveticaNeue-Medium,Helvetica Neue" font-size="30.0" fill="#FEFFFE" transform="matrix(1.00, 0.00, -0.00, -1.00, 484.3, 222.8)">e</text><text xml:space="preserve" font-family="HelveticaNeue-Medium,Helvetica Neue" font-size="30.0" fill="#FEFFFE" transform="matrix(1.00, 0.00, -0.00, -1.00, 501.0, 222.8)">m</text><text xml:space="preserve" font-family="HelveticaNeue-Medium,Helvetica Neue" font-size="30.0" fill="#FEFFFE" transform="matrix(1.00, 0.00, -0.00, -1.00, 527.1, 222.8)">i</text><text xml:space="preserve" font-family="HelveticaNeue-Medium,Helvetica Neue" font-size="30.0" fill="#FEFFFE" transform="matrix(1.00, 0.00, -0.00, -1.00, 534.4, 222.8)">s</text><text xml:space="preserve" font-family="HelveticaNeue-Medium,Helvetica Neue" font-size="30.0" fill="#FEFFFE" transform="matrix(1.00, 0.00, -0.00, -1.00, 549.9, 222.8)">t</text><text xml:space="preserve" font-family="HelveticaNeue-Medium,Helvetica Neue" font-size="30.0" fill="#FEFFFE" transform="matrix(1.00, 0.00, -0.00, -1.00, 559.9, 222.8)">r</text><text xml:space="preserve" font-family="HelveticaNeue-Medium,Helvetica Neue" font-size="30.0" fill="#FEFFFE" transform="matrix(1.00, 0.00, -0.00, -1.00, 570.5, 222.8)">y</text><text xml:space="preserve" font-family="HelveticaNeue-Medium,Helvetica Neue" font-size="30.0" fill="#FEFFFE" transform="matrix(1.00, 0.00, -0.00, -1.00, 586.0, 222.8)">Q</text><text xml:space="preserve" font-family="HelveticaNeue-Medium,Helvetica Neue" font-size="30.0" fill="#FEFFFE" transform="matrix(1.00, 0.00, -0.00, -1.00, 608.8, 222.8)">u</text><text xml:space="preserve" font-family="HelveticaNeue-Medium,Helvetica Neue" font-size="30.0" fill="#FEFFFE" transform="matrix(1.00, 0.00, -0.00, -1.00, 626.1, 222.8)">i</text><text xml:space="preserve" font-family="HelveticaNeue-Medium,Helvetica Neue" font-size="30.0" fill="#FEFFFE" transform="matrix(1.00, 0.00, -0.00, -1.00, 633.3, 222.8)">z</text><text xml:space="preserve" font-family="HelveticaNeue-Medium,Helvetica Neue" font-size="30.0" fill="#FEFFFE" transform="matrix(1.00, 0.00, -0.00, -1.00, 648.3, 222.8)"> </text></g></g><image xlink:href="../../C0A9F950-6AF3-484F-8A01-DFD96BD98398/assets/A6746E36304D5CED008F1908D441283F.png" width="76.00" height="29.00" transform="matrix(1.00, 0.00, -0.00, -1.00, 509.0, 210.0)"></image><g><clipPath id="clip0x7ff61680e7d0"><path d="M 426.7 165.0 L 667.1 165.0 L 667.1 265.0 L 426.7 265.0 Z M 426.7 165.0 "></path></clipPath><g clip-path="url(#clip0x7ff61680e7d0)"><text xml:space="preserve" font-family="HelveticaNeue-Medium,Helvetica Neue" font-size="30.0" fill="#FEFFFE" transform="matrix(1.00, 0.00, -0.00, -1.00, 511.0, 185.8)">c</text><text xml:space="preserve" font-family="HelveticaNeue-Medium,Helvetica Neue" font-size="30.0" fill="#FEFFFE" transform="matrix(1.00, 0.00, -0.00, -1.00, 527.7, 185.8)">l</text><text xml:space="preserve" font-family="HelveticaNeue-Medium,Helvetica Neue" font-size="30.0" fill="#FEFFFE" transform="matrix(1.00, 0.00, -0.00, -1.00, 534.9, 185.8)">a</text><text xml:space="preserve" font-family="HelveticaNeue-Medium,Helvetica Neue" font-size="30.0" fill="#FEFFFE" transform="matrix(1.00, 0.00, -0.00, -1.00, 551.6, 185.8)">s</text><text xml:space="preserve" font-family="HelveticaNeue-Medium,Helvetica Neue" font-size="30.0" fill="#FEFFFE" transform="matrix(1.00, 0.00, -0.00, -1.00, 567.2, 185.8)">s</text><text xml:space="preserve" font-family="HelveticaNeue-Medium,Helvetica Neue" font-size="30.0" fill="#FEFFFE" transform="matrix(1.00, 0.00, -0.00, -1.00, 582.7, 185.8)"> </text></g></g><path d="M 0.0 0.0 L 152.1 0.0 L 153.1 0.0 " fill="none" stroke="#C8C8C8" stroke-width="2.00" transform="matrix(0.71, 0.71, 0.71, -0.71, 372.8, 428.4)"></path><path d="M 483.8 532.5 L 487.2 542.7 L 477.0 539.3 Z M 483.8 532.5 " fill="#C8C8C8"></path><path d="M 0.0 0.0 L 128.2 0.0 L 129.2 0.0 " fill="none" stroke="#C8C8C8" stroke-width="2.00" transform="matrix(0.56, 0.83, 0.83, -0.56, 199.0, 262.1)"></path><path d="M 274.5 365.8 L 275.8 376.5 L 266.5 371.2 Z M 274.5 365.8 " fill="#C8C8C8"></path><path d="M 0.0 0.0 L 130.8 0.0 L 131.8 0.0 " fill="none" stroke="#C8C8C8" stroke-width="2.00" transform="matrix(-0.71, 0.71, 0.71, 0.71, 797.8, 428.4)"></path><path d="M 708.7 524.3 L 698.5 527.6 L 701.9 517.5 Z M 708.7 524.3 " fill="#C8C8C8"></path><path d="M 0.0 0.0 L 120.9 0.0 L 121.9 0.0 " fill="none" stroke="#C8C8C8" stroke-width="2.00" transform="matrix(-0.45, 0.89, 0.89, 0.45, 548.5, 261.1)"></path><path d="M 498.0 371.0 L 489.4 377.4 L 489.5 366.6 Z M 498.0 371.0 " fill="#C8C8C8"></path><image xlink:href="../../C0A9F950-6AF3-484F-8A01-DFD96BD98398/assets/553A45BDF42B74F67D99D3A354FDEB2B.png" width="71.00" height="36.00" transform="matrix(1.00, 0.00, -0.00, -1.00, 348.0, 516.0)"></image><text xml:space="preserve" font-family="HelveticaNeue-Medium,Helvetica Neue" font-size="38.0" fill="#ECAC0F" transform="matrix(1.00, 0.00, -0.00, -1.00, 350.2, 486.8)">i</text><text xml:space="preserve" font-family="HelveticaNeue-Medium,Helvetica Neue" font-size="38.0" fill="#ECAC0F" transform="matrix(1.00, 0.00, -0.00, -1.00, 359.4, 486.8)">s</text><text xml:space="preserve" font-family="HelveticaNeue-Medium,Helvetica Neue" font-size="38.0" fill="#ECAC0F" transform="matrix(1.00, 0.00, -0.00, -1.00, 379.1, 486.8)">-</text><text xml:space="preserve" font-family="HelveticaNeue-Medium,Helvetica Neue" font-size="38.0" fill="#ECAC0F" transform="matrix(1.00, 0.00, -0.00, -1.00, 393.9, 486.8)">a</text><image xlink:href="../../C0A9F950-6AF3-484F-8A01-DFD96BD98398/assets/FF30F986C2D069FB06EF92EF4B78CD6A.png" width="71.00" height="36.00" transform="matrix(1.00, 0.00, -0.00, -1.00, 778.0, 509.0)"></image><text xml:space="preserve" font-family="HelveticaNeue-Medium,Helvetica Neue" font-size="38.0" fill="#28C439" transform="matrix(1.00, 0.00, -0.00, -1.00, 780.0, 479.8)">i</text><text xml:space="preserve" font-family="HelveticaNeue-Medium,Helvetica Neue" font-size="38.0" fill="#28C439" transform="matrix(1.00, 0.00, -0.00, -1.00, 789.1, 479.8)">s</text><text xml:space="preserve" font-family="HelveticaNeue-Medium,Helvetica Neue" font-size="38.0" fill="#28C439" transform="matrix(1.00, 0.00, -0.00, -1.00, 808.8, 479.8)">-</text><text xml:space="preserve" font-family="HelveticaNeue-Medium,Helvetica Neue" font-size="38.0" fill="#28C439" transform="matrix(1.00, 0.00, -0.00, -1.00, 823.6, 479.8)">a</text><image xlink:href="../../C0A9F950-6AF3-484F-8A01-DFD96BD98398/assets/553A45BDF42B74F67D99D3A354FDEB2B.png" width="71.00" height="36.00" transform="matrix(1.00, 0.00, -0.00, -1.00, 539.0, 334.0)"></image><text xml:space="preserve" font-family="HelveticaNeue-Medium,Helvetica Neue" font-size="38.0" fill="#ECAC0F" transform="matrix(1.00, 0.00, -0.00, -1.00, 541.2, 304.8)">i</text><text xml:space="preserve" font-family="HelveticaNeue-Medium,Helvetica Neue" font-size="38.0" fill="#ECAC0F" transform="matrix(1.00, 0.00, -0.00, -1.00, 550.4, 304.8)">s</text><text xml:space="preserve" font-family="HelveticaNeue-Medium,Helvetica Neue" font-size="38.0" fill="#ECAC0F" transform="matrix(1.00, 0.00, -0.00, -1.00, 570.1, 304.8)">-</text><text xml:space="preserve" font-family="HelveticaNeue-Medium,Helvetica Neue" font-size="38.0" fill="#ECAC0F" transform="matrix(1.00, 0.00, -0.00, -1.00, 584.9, 304.8)">a</text><image xlink:href="../../C0A9F950-6AF3-484F-8A01-DFD96BD98398/assets/553A45BDF42B74F67D99D3A354FDEB2B.png" width="71.00" height="36.00" transform="matrix(1.00, 0.00, -0.00, -1.00, 145.0, 334.0)"></image><text xml:space="preserve" font-family="HelveticaNeue-Medium,Helvetica Neue" font-size="38.0" fill="#ECAC0F" transform="matrix(1.00, 0.00, -0.00, -1.00, 147.2, 304.8)">i</text><text xml:space="preserve" font-family="HelveticaNeue-Medium,Helvetica Neue" font-size="38.0" fill="#ECAC0F" transform="matrix(1.00, 0.00, -0.00, -1.00, 156.4, 304.8)">s</text><text xml:space="preserve" font-family="HelveticaNeue-Medium,Helvetica Neue" font-size="38.0" fill="#ECAC0F" transform="matrix(1.00, 0.00, -0.00, -1.00, 176.1, 304.8)">-</text><text xml:space="preserve" font-family="HelveticaNeue-Medium,Helvetica Neue" font-size="38.0" fill="#ECAC0F" transform="matrix(1.00, 0.00, -0.00, -1.00, 190.9, 304.8)">a</text></g></svg>