<?xml version="1.0" encoding="UTF-8" standalone="no"?><svg xmlns="http://www.w3.org/2000/svg" xmlns:xlink="http://www.w3.org/1999/xlink" clip-rule="evenodd" stroke-miterlimit="10" viewBox="0 0 222 114"><desc>SVG generated by Keynote</desc><defs></defs><g transform="matrix(1.00, 0.00, -0.00, -1.00, 0.0, 114.0)"><image xlink:href="../../C0A9F950-6AF3-484F-8A01-DFD96BD98398/assets/88BDB02BECB76B2EE784D87A8376E08C.png" width="219.00" height="108.00" transform="matrix(1.00, 0.00, -0.00, -1.00, 1.5, 109.0)" opacity="0.50"></image><g><clipPath id="clip0x7ff61674b2f0"><path d="M 5.5 22.0 L 5.0 92.0 C 5.0 100.3 12.2 107.0 20.5 107.0 L 201.5 107.0 C 209.8 107.0 217.0 100.3 217.0 92.0 L 217.0 22.0 C 217.0 13.7 209.8 7.0 201.5 7.0 L 20.5 7.0 C 12.2 7.0 5.5 13.7 5.5 22.0 Z M 5.5 22.0 "></path></clipPath><g clip-path="url(#clip0x7ff61674b2f0)"><image xlink:href="../../C0A9F950-6AF3-484F-8A01-DFD96BD98398/assets/F8555586B3BD8EBB32970E466DA799E3.png" width="512.00" height="512.00" transform="matrix(0.50, 0.00, -0.00, -0.50, 5.0, 107.0)"></image></g></g><image xlink:href="4D87711AC596C95F3E8954006684F569.png" width="171.00" height="35.00" transform="matrix(1.00, 0.00, -0.00, -1.00, 26.0, 89.0)"></image><g><clipPath id="clip0x7ff61674f700"><path d="M -2.3 7.0 L 224.3 7.0 L 224.3 107.0 L -2.3 107.0 Z M -2.3 7.0 "></path></clipPath><g clip-path="url(#clip0x7ff61674f700)"><text xml:space="preserve" font-family="HelveticaNeue-Medium,Helvetica Neue" font-size="30.0" fill="#FEFFFE" transform="matrix(1.00, 0.00, -0.00, -1.00, 27.6, 64.8)">B</text><text xml:space="preserve" font-family="HelveticaNeue-Medium,Helvetica Neue" font-size="30.0" fill="#FEFFFE" transform="matrix(1.00, 0.00, -0.00, -1.00, 48.7, 64.8)">i</text><text xml:space="preserve" font-family="HelveticaNeue-Medium,Helvetica Neue" font-size="30.0" fill="#FEFFFE" transform="matrix(1.00, 0.00, -0.00, -1.00, 56.0, 64.8)">o</text><text xml:space="preserve" font-family="HelveticaNeue-Medium,Helvetica Neue" font-size="30.0" fill="#FEFFFE" transform="matrix(1.00, 0.00, -0.00, -1.00, 73.8, 64.8)">l</text><text xml:space="preserve" font-family="HelveticaNeue-Medium,Helvetica Neue" font-size="30.0" fill="#FEFFFE" transform="matrix(1.00, 0.00, -0.00, -1.00, 81.0, 64.8)">o</text><text xml:space="preserve" font-family="HelveticaNeue-Medium,Helvetica Neue" font-size="30.0" fill="#FEFFFE" transform="matrix(1.00, 0.00, -0.00, -1.00, 98.8, 64.8)">g</text><text xml:space="preserve" font-family="HelveticaNeue-Medium,Helvetica Neue" font-size="30.0" fill="#FEFFFE" transform="matrix(1.00, 0.00, -0.00, -1.00, 116.6, 64.8)">y</text><text xml:space="preserve" font-family="HelveticaNeue-Medium,Helvetica Neue" font-size="30.0" fill="#FEFFFE" transform="matrix(1.00, 0.00, -0.00, -1.00, 132.1, 64.8)">Q</text><text xml:space="preserve" font-family="HelveticaNeue-Medium,Helvetica Neue" font-size="30.0" fill="#FEFFFE" transform="matrix(1.00, 0.00, -0.00, -1.00, 154.9, 64.8)">u</text><text xml:space="preserve" font-family="HelveticaNeue-Medium,Helvetica Neue" font-size="30.0" fill="#FEFFFE" transform="matrix(1.00, 0.00, -0.00, -1.00, 172.2, 64.8)">i</text><text xml:space="preserve" font-family="HelveticaNeue-Medium,Helvetica Neue" font-size="30.0" fill="#FEFFFE" transform="matrix(1.00, 0.00, -0.00, -1.00, 179.4, 64.8)">z</text><text xml:space="preserve" font-family="HelveticaNeue-Medium,Helvetica Neue" font-size="30.0" fill="#FEFFFE" transform="matrix(1.00, 0.00, -0.00, -1.00, 194.4, 64.8)"> </text></g></g><image xlink:href="../../C0A9F950-6AF3-484F-8A01-DFD96BD98398/assets/9B4D19A4507FE7AA6C0A095E523ED8A5.png" width="77.00" height="29.00" transform="matrix(1.00, 0.00, -0.00, -1.00, 73.0, 52.0)"></image><g><clipPath id="clip0x7ff616763f40"><path d="M -2.3 7.0 L 224.3 7.0 L 224.3 107.0 L -2.3 107.0 Z M -2.3 7.0 "></path></clipPath><g clip-path="url(#clip0x7ff616763f40)"><text xml:space="preserve" font-family="HelveticaNeue-Medium,Helvetica Neue" font-size="30.0" fill="#FEFFFE" transform="matrix(1.00, 0.00, -0.00, -1.00, 75.1, 27.8)">c</text><text xml:space="preserve" font-family="HelveticaNeue-Medium,Helvetica Neue" font-size="30.0" fill="#FEFFFE" transform="matrix(1.00, 0.00, -0.00, -1.00, 91.8, 27.8)">l</text><text xml:space="preserve" font-family="HelveticaNeue-Medium,Helvetica Neue" font-size="30.0" fill="#FEFFFE" transform="matrix(1.00, 0.00, -0.00, -1.00, 99.0, 27.8)">a</text><text xml:space="preserve" font-family="HelveticaNeue-Medium,Helvetica Neue" font-size="30.0" fill="#FEFFFE" transform="matrix(1.00, 0.00, -0.00, -1.00, 115.7, 27.8)">s</text><text xml:space="preserve" font-family="HelveticaNeue-Medium,Helvetica Neue" font-size="30.0" fill="#FEFFFE" transform="matrix(1.00, 0.00, -0.00, -1.00, 131.3, 27.8)">s</text><text xml:space="preserve" font-family="HelveticaNeue-Medium,Helvetica Neue" font-size="30.0" fill="#FEFFFE" transform="matrix(1.00, 0.00, -0.00, -1.00, 146.9, 27.8)"> </text></g></g></g></svg>