<?xml version="1.0" encoding="UTF-8" standalone="no"?><svg xmlns="http://www.w3.org/2000/svg" xmlns:xlink="http://www.w3.org/1999/xlink" clip-rule="evenodd" stroke-miterlimit="10" viewBox="0 0 157 115"><desc>SVG generated by Keynote</desc><defs></defs><g transform="matrix(1.00, 0.00, -0.00, -1.00, 0.0, 115.0)"><image xlink:href="../../18080D0F-C138-49BB-ACDD-22D597C70D3D/assets/A570760BD0F4F0BD01CA1F9DE70E38E9.png" width="154.00" height="108.00" transform="matrix(1.00, 0.00, -0.00, -1.00, 1.0, 109.7)" opacity="0.50"></image><g><clipPath id="clip0x7ff61293e360"><path d="M 5.0 22.7 L 5.0 92.7 C 5.0 101.0 11.7 108.0 20.0 108.0 L 136.3 108.0 C 144.6 108.0 151.0 101.0 151.0 92.7 L 151.0 22.7 C 151.0 14.4 144.6 8.0 136.3 8.0 L 20.0 8.0 C 11.7 8.0 5.0 14.4 5.0 22.7 Z M 5.0 22.7 "></path></clipPath><g clip-path="url(#clip0x7ff61293e360)"><image xlink:href="../../EEFDA636-FF27-4CCE-A456-A99B2D1B74FC/assets/BF7F347A5AA08698479112B0B19D9FB4.png" width="512.00" height="512.00" transform="matrix(0.50, 0.00, -0.00, -0.50, 5.0, 108.0)"></image></g></g><image xlink:href="../../18080D0F-C138-49BB-ACDD-22D597C70D3D/assets/ECA3350A6105C69FC899BD332A2B1FBB.png" width="89.00" height="29.00" transform="matrix(1.00, 0.00, -0.00, -1.00, 34.0, 71.0)"></image><g><clipPath id="clip0x7ff614acd880"><path d="M -2.9 7.7 L 159.3 7.7 L 159.3 107.7 L -2.9 107.7 Z M -2.9 7.7 "></path></clipPath><g clip-path="url(#clip0x7ff614acd880)"><text xml:space="preserve" font-family="HelveticaNeue-Medium,Helvetica Neue" font-size="30.0" fill="#FEFFFE" transform="matrix(1.00, 0.00, -0.00, -1.00, 34.8, 46.8)">M</text><text xml:space="preserve" font-family="HelveticaNeue-Medium,Helvetica Neue" font-size="30.0" fill="#FEFFFE" transform="matrix(1.00, 0.00, -0.00, -1.00, 61.5, 46.8)">o</text><text xml:space="preserve" font-family="HelveticaNeue-Medium,Helvetica Neue" font-size="30.0" fill="#FEFFFE" transform="matrix(1.00, 0.00, -0.00, -1.00, 79.3, 46.8)">d</text><text xml:space="preserve" font-family="HelveticaNeue-Medium,Helvetica Neue" font-size="30.0" fill="#FEFFFE" transform="matrix(1.00, 0.00, -0.00, -1.00, 97.6, 46.8)">e</text><text xml:space="preserve" font-family="HelveticaNeue-Medium,Helvetica Neue" font-size="30.0" fill="#FEFFFE" transform="matrix(1.00, 0.00, -0.00, -1.00, 114.3, 46.8)">l</text></g></g></g></svg>