<?xml version="1.0" encoding="UTF-8" standalone="no"?><svg xmlns="http://www.w3.org/2000/svg" xmlns:xlink="http://www.w3.org/1999/xlink" clip-rule="evenodd" stroke-miterlimit="10" viewBox="0 0 579 112"><desc>SVG generated by Keynote</desc><defs></defs><g transform="matrix(1.00, 0.00, -0.00, -1.00, 0.0, 112.0)"><image xlink:href="E71F6A6DFE0940B8D7ADC75BBDA50467.png" width="575.00" height="35.00" transform="matrix(1.00, 0.00, -0.00, -1.00, 2.0, 110.0)"></image><text xml:space="preserve" font-family="HelveticaNeue-Medium,Helvetica Neue" font-size="30.0" fill="#FEFFFE" transform="matrix(1.00, 0.00, -0.00, -1.00, 5.7, 85.8)">V</text><text xml:space="preserve" font-family="HelveticaNeue-Medium,Helvetica Neue" font-size="30.0" fill="#FEFFFE" transform="matrix(1.00, 0.00, -0.00, -1.00, 24.3, 85.8)">i</text><text xml:space="preserve" font-family="HelveticaNeue-Medium,Helvetica Neue" font-size="30.0" fill="#FEFFFE" transform="matrix(1.00, 0.00, -0.00, -1.00, 31.6, 85.8)">e</text><text xml:space="preserve" font-family="HelveticaNeue-Medium,Helvetica Neue" font-size="30.0" fill="#FEFFFE" transform="matrix(1.00, 0.00, -0.00, -1.00, 48.2, 85.8)">w</text><text xml:space="preserve" font-family="HelveticaNeue-Medium,Helvetica Neue" font-size="30.0" fill="#FEFFFE" transform="matrix(1.00, 0.00, -0.00, -1.00, 71.6, 85.8)"> </text><text xml:space="preserve" font-family="HelveticaNeue-Medium,Helvetica Neue" font-size="30.0" fill="#FEFFFE" transform="matrix(1.00, 0.00, -0.00, -1.00, 79.9, 85.8)">O</text><text xml:space="preserve" font-family="HelveticaNeue-Medium,Helvetica Neue" font-size="30.0" fill="#FEFFFE" transform="matrix(1.00, 0.00, -0.00, -1.00, 102.7, 85.8)">b</text><text xml:space="preserve" font-family="HelveticaNeue-Medium,Helvetica Neue" font-size="30.0" fill="#FEFFFE" transform="matrix(1.00, 0.00, -0.00, -1.00, 121.1, 85.8)">j</text><text xml:space="preserve" font-family="HelveticaNeue-Medium,Helvetica Neue" font-size="30.0" fill="#FEFFFE" transform="matrix(1.00, 0.00, -0.00, -1.00, 128.3, 85.8)">e</text><text xml:space="preserve" font-family="HelveticaNeue-Medium,Helvetica Neue" font-size="30.0" fill="#FEFFFE" transform="matrix(1.00, 0.00, -0.00, -1.00, 145.0, 85.8)">c</text><text xml:space="preserve" font-family="HelveticaNeue-Medium,Helvetica Neue" font-size="30.0" fill="#FEFFFE" transform="matrix(1.00, 0.00, -0.00, -1.00, 161.6, 85.8)">t</text><text xml:space="preserve" font-family="HelveticaNeue-Medium,Helvetica Neue" font-size="30.0" fill="#FEFFFE" transform="matrix(1.00, 0.00, -0.00, -1.00, 171.6, 85.8)">s</text><text xml:space="preserve" font-family="HelveticaNeue-Medium,Helvetica Neue" font-size="30.0" fill="#FEFFFE" transform="matrix(1.00, 0.00, -0.00, -1.00, 187.2, 85.8)"> </text><text xml:space="preserve" font-family="HelveticaNeue-Medium,Helvetica Neue" font-size="30.0" fill="#FEFFFE" transform="matrix(1.00, 0.00, -0.00, -1.00, 195.5, 85.8)">c</text><text xml:space="preserve" font-family="HelveticaNeue-Medium,Helvetica Neue" font-size="30.0" fill="#FEFFFE" transform="matrix(1.00, 0.00, -0.00, -1.00, 212.2, 85.8)">a</text><text xml:space="preserve" font-family="HelveticaNeue-Medium,Helvetica Neue" font-size="30.0" fill="#FEFFFE" transform="matrix(1.00, 0.00, -0.00, -1.00, 228.9, 85.8)">n</text><text xml:space="preserve" font-family="HelveticaNeue-Medium,Helvetica Neue" font-size="30.0" fill="#FEFFFE" transform="matrix(1.00, 0.00, -0.00, -1.00, 246.1, 85.8)"> </text><text xml:space="preserve" font-family="HelveticaNeue-Medium,Helvetica Neue" font-size="30.0" fill="#FEFFFE" transform="matrix(1.00, 0.00, -0.00, -1.00, 254.5, 85.8)">b</text><text xml:space="preserve" font-family="HelveticaNeue-Medium,Helvetica Neue" font-size="30.0" fill="#FEFFFE" transform="matrix(1.00, 0.00, -0.00, -1.00, 272.8, 85.8)">e</text><text xml:space="preserve" font-family="HelveticaNeue-Medium,Helvetica Neue" font-size="30.0" fill="#FEFFFE" transform="matrix(1.00, 0.00, -0.00, -1.00, 289.5, 85.8)"> </text><text xml:space="preserve" font-family="HelveticaNeue-Medium,Helvetica Neue" font-size="30.0" fill="#FEFFFE" transform="matrix(1.00, 0.00, -0.00, -1.00, 297.8, 85.8)">s</text><text xml:space="preserve" font-family="HelveticaNeue-Medium,Helvetica Neue" font-size="30.0" fill="#FEFFFE" transform="matrix(1.00, 0.00, -0.00, -1.00, 313.4, 85.8)">e</text><text xml:space="preserve" font-family="HelveticaNeue-Medium,Helvetica Neue" font-size="30.0" fill="#FEFFFE" transform="matrix(1.00, 0.00, -0.00, -1.00, 330.1, 85.8)">e</text><text xml:space="preserve" font-family="HelveticaNeue-Medium,Helvetica Neue" font-size="30.0" fill="#FEFFFE" transform="matrix(1.00, 0.00, -0.00, -1.00, 346.7, 85.8)">n</text><text xml:space="preserve" font-family="HelveticaNeue-Medium,Helvetica Neue" font-size="30.0" fill="#FEFFFE" transform="matrix(1.00, 0.00, -0.00, -1.00, 364.0, 85.8)"> </text><text xml:space="preserve" font-family="HelveticaNeue-Medium,Helvetica Neue" font-size="30.0" fill="#FEFFFE" transform="matrix(1.00, 0.00, -0.00, -1.00, 372.3, 85.8)">b</text><text xml:space="preserve" font-family="HelveticaNeue-Medium,Helvetica Neue" font-size="30.0" fill="#FEFFFE" transform="matrix(1.00, 0.00, -0.00, -1.00, 390.6, 85.8)">y</text><text xml:space="preserve" font-family="HelveticaNeue-Medium,Helvetica Neue" font-size="30.0" fill="#FEFFFE" transform="matrix(1.00, 0.00, -0.00, -1.00, 406.2, 85.8)"> </text><text xml:space="preserve" font-family="HelveticaNeue-Medium,Helvetica Neue" font-size="30.0" fill="#FEFFFE" transform="matrix(1.00, 0.00, -0.00, -1.00, 414.5, 85.8)">u</text><text xml:space="preserve" font-family="HelveticaNeue-Medium,Helvetica Neue" font-size="30.0" fill="#FEFFFE" transform="matrix(1.00, 0.00, -0.00, -1.00, 431.8, 85.8)">s</text><text xml:space="preserve" font-family="HelveticaNeue-Medium,Helvetica Neue" font-size="30.0" fill="#FEFFFE" transform="matrix(1.00, 0.00, -0.00, -1.00, 447.3, 85.8)">e</text><text xml:space="preserve" font-family="HelveticaNeue-Medium,Helvetica Neue" font-size="30.0" fill="#FEFFFE" transform="matrix(1.00, 0.00, -0.00, -1.00, 464.0, 85.8)">r</text><text xml:space="preserve" font-family="HelveticaNeue-Medium,Helvetica Neue" font-size="30.0" fill="#FEFFFE" transform="matrix(1.00, 0.00, -0.00, -1.00, 474.6, 85.8)">s</text><text xml:space="preserve" font-family="HelveticaNeue-Medium,Helvetica Neue" font-size="30.0" fill="#FEFFFE" transform="matrix(1.00, 0.00, -0.00, -1.00, 490.1, 85.8)">.</text><text xml:space="preserve" font-family="HelveticaNeue-Medium,Helvetica Neue" font-size="30.0" fill="#FEFFFE" transform="matrix(1.00, 0.00, -0.00, -1.00, 498.5, 85.8)"> </text><text xml:space="preserve" font-family="HelveticaNeue-Medium,Helvetica Neue" font-size="30.0" fill="#FEFFFE" transform="matrix(1.00, 0.00, -0.00, -1.00, 506.8, 85.8)">T</text><text xml:space="preserve" font-family="HelveticaNeue-Medium,Helvetica Neue" font-size="30.0" fill="#FEFFFE" transform="matrix(1.00, 0.00, -0.00, -1.00, 524.6, 85.8)">h</text><text xml:space="preserve" font-family="HelveticaNeue-Medium,Helvetica Neue" font-size="30.0" fill="#FEFFFE" transform="matrix(1.00, 0.00, -0.00, -1.00, 541.8, 85.8)">e</text><text xml:space="preserve" font-family="HelveticaNeue-Medium,Helvetica Neue" font-size="30.0" fill="#FEFFFE" transform="matrix(1.00, 0.00, -0.00, -1.00, 558.5, 85.8)">y</text><text xml:space="preserve" font-family="HelveticaNeue-Medium,Helvetica Neue" font-size="30.0" fill="#FEFFFE" transform="matrix(1.00, 0.00, -0.00, -1.00, 574.1, 85.8)"> </text><image xlink:href="27EA6C952D01D145E2BCA95626240A08.png" width="484.00" height="29.00" transform="matrix(1.00, 0.00, -0.00, -1.00, 48.0, 73.0)"></image><text xml:space="preserve" font-family="HelveticaNeue-Medium,Helvetica Neue" font-size="30.0" fill="#FEFFFE" transform="matrix(1.00, 0.00, -0.00, -1.00, 49.5, 48.8)">k</text><text xml:space="preserve" font-family="HelveticaNeue-Medium,Helvetica Neue" font-size="30.0" fill="#FEFFFE" transform="matrix(1.00, 0.00, -0.00, -1.00, 65.6, 48.8)">n</text><text xml:space="preserve" font-family="HelveticaNeue-Medium,Helvetica Neue" font-size="30.0" fill="#FEFFFE" transform="matrix(1.00, 0.00, -0.00, -1.00, 82.9, 48.8)">o</text><text xml:space="preserve" font-family="HelveticaNeue-Medium,Helvetica Neue" font-size="30.0" fill="#FEFFFE" transform="matrix(1.00, 0.00, -0.00, -1.00, 100.7, 48.8)">w</text><text xml:space="preserve" font-family="HelveticaNeue-Medium,Helvetica Neue" font-size="30.0" fill="#FEFFFE" transform="matrix(1.00, 0.00, -0.00, -1.00, 124.0, 48.8)"> </text><text xml:space="preserve" font-family="HelveticaNeue-Medium,Helvetica Neue" font-size="30.0" fill="#FEFFFE" transform="matrix(1.00, 0.00, -0.00, -1.00, 132.3, 48.8)">h</text><text xml:space="preserve" font-family="HelveticaNeue-Medium,Helvetica Neue" font-size="30.0" fill="#FEFFFE" transform="matrix(1.00, 0.00, -0.00, -1.00, 149.6, 48.8)">o</text><text xml:space="preserve" font-family="HelveticaNeue-Medium,Helvetica Neue" font-size="30.0" fill="#FEFFFE" transform="matrix(1.00, 0.00, -0.00, -1.00, 167.3, 48.8)">w</text><text xml:space="preserve" font-family="HelveticaNeue-Medium,Helvetica Neue" font-size="30.0" fill="#FEFFFE" transform="matrix(1.00, 0.00, -0.00, -1.00, 190.7, 48.8)"> </text><text xml:space="preserve" font-family="HelveticaNeue-Medium,Helvetica Neue" font-size="30.0" fill="#FEFFFE" transform="matrix(1.00, 0.00, -0.00, -1.00, 199.0, 48.8)">t</text><text xml:space="preserve" font-family="HelveticaNeue-Medium,Helvetica Neue" font-size="30.0" fill="#FEFFFE" transform="matrix(1.00, 0.00, -0.00, -1.00, 209.0, 48.8)">o</text><text xml:space="preserve" font-family="HelveticaNeue-Medium,Helvetica Neue" font-size="30.0" fill="#FEFFFE" transform="matrix(1.00, 0.00, -0.00, -1.00, 226.8, 48.8)"> </text><text xml:space="preserve" font-family="HelveticaNeue-Medium,Helvetica Neue" font-size="30.0" fill="#FEFFFE" transform="matrix(1.00, 0.00, -0.00, -1.00, 235.1, 48.8)">d</text><text xml:space="preserve" font-family="HelveticaNeue-Medium,Helvetica Neue" font-size="30.0" fill="#FEFFFE" transform="matrix(1.00, 0.00, -0.00, -1.00, 253.5, 48.8)">r</text><text xml:space="preserve" font-family="HelveticaNeue-Medium,Helvetica Neue" font-size="30.0" fill="#FEFFFE" transform="matrix(1.00, 0.00, -0.00, -1.00, 264.0, 48.8)">a</text><text xml:space="preserve" font-family="HelveticaNeue-Medium,Helvetica Neue" font-size="30.0" fill="#FEFFFE" transform="matrix(1.00, 0.00, -0.00, -1.00, 280.7, 48.8)">w</text><text xml:space="preserve" font-family="HelveticaNeue-Medium,Helvetica Neue" font-size="30.0" fill="#FEFFFE" transform="matrix(1.00, 0.00, -0.00, -1.00, 304.1, 48.8)"> </text><text xml:space="preserve" font-family="HelveticaNeue-Medium,Helvetica Neue" font-size="30.0" fill="#FEFFFE" transform="matrix(1.00, 0.00, -0.00, -1.00, 312.4, 48.8)">t</text><text xml:space="preserve" font-family="HelveticaNeue-Medium,Helvetica Neue" font-size="30.0" fill="#FEFFFE" transform="matrix(1.00, 0.00, -0.00, -1.00, 322.4, 48.8)">h</text><text xml:space="preserve" font-family="HelveticaNeue-Medium,Helvetica Neue" font-size="30.0" fill="#FEFFFE" transform="matrix(1.00, 0.00, -0.00, -1.00, 339.6, 48.8)">e</text><text xml:space="preserve" font-family="HelveticaNeue-Medium,Helvetica Neue" font-size="30.0" fill="#FEFFFE" transform="matrix(1.00, 0.00, -0.00, -1.00, 356.3, 48.8)">m</text><text xml:space="preserve" font-family="HelveticaNeue-Medium,Helvetica Neue" font-size="30.0" fill="#FEFFFE" transform="matrix(1.00, 0.00, -0.00, -1.00, 382.4, 48.8)">s</text><text xml:space="preserve" font-family="HelveticaNeue-Medium,Helvetica Neue" font-size="30.0" fill="#FEFFFE" transform="matrix(1.00, 0.00, -0.00, -1.00, 398.0, 48.8)">e</text><text xml:space="preserve" font-family="HelveticaNeue-Medium,Helvetica Neue" font-size="30.0" fill="#FEFFFE" transform="matrix(1.00, 0.00, -0.00, -1.00, 414.6, 48.8)">l</text><text xml:space="preserve" font-family="HelveticaNeue-Medium,Helvetica Neue" font-size="30.0" fill="#FEFFFE" transform="matrix(1.00, 0.00, -0.00, -1.00, 421.9, 48.8)">v</text><text xml:space="preserve" font-family="HelveticaNeue-Medium,Helvetica Neue" font-size="30.0" fill="#FEFFFE" transform="matrix(1.00, 0.00, -0.00, -1.00, 437.4, 48.8)">e</text><text xml:space="preserve" font-family="HelveticaNeue-Medium,Helvetica Neue" font-size="30.0" fill="#FEFFFE" transform="matrix(1.00, 0.00, -0.00, -1.00, 454.1, 48.8)">s</text><text xml:space="preserve" font-family="HelveticaNeue-Medium,Helvetica Neue" font-size="30.0" fill="#FEFFFE" transform="matrix(1.00, 0.00, -0.00, -1.00, 469.7, 48.8)"> </text><text xml:space="preserve" font-family="HelveticaNeue-Medium,Helvetica Neue" font-size="30.0" fill="#FEFFFE" transform="matrix(1.00, 0.00, -0.00, -1.00, 478.0, 48.8)">a</text><text xml:space="preserve" font-family="HelveticaNeue-Medium,Helvetica Neue" font-size="30.0" fill="#FEFFFE" transform="matrix(1.00, 0.00, -0.00, -1.00, 494.7, 48.8)">n</text><text xml:space="preserve" font-family="HelveticaNeue-Medium,Helvetica Neue" font-size="30.0" fill="#FEFFFE" transform="matrix(1.00, 0.00, -0.00, -1.00, 511.9, 48.8)">d</text><text xml:space="preserve" font-family="HelveticaNeue-Medium,Helvetica Neue" font-size="30.0" fill="#FEFFFE" transform="matrix(1.00, 0.00, -0.00, -1.00, 530.3, 48.8)"> </text><image xlink:href="8BD873A40E71ADFAFEDBC1BAA86B7603.png" width="333.00" height="34.00" transform="matrix(1.00, 0.00, -0.00, -1.00, 124.0, 36.0)"></image><text xml:space="preserve" font-family="HelveticaNeue-Medium,Helvetica Neue" font-size="30.0" fill="#FEFFFE" transform="matrix(1.00, 0.00, -0.00, -1.00, 125.9, 11.8)">r</text><text xml:space="preserve" font-family="HelveticaNeue-Medium,Helvetica Neue" font-size="30.0" fill="#FEFFFE" transform="matrix(1.00, 0.00, -0.00, -1.00, 136.0, 11.8)">e</text><text xml:space="preserve" font-family="HelveticaNeue-Medium,Helvetica Neue" font-size="30.0" fill="#FEFFFE" transform="matrix(1.00, 0.00, -0.00, -1.00, 152.6, 11.8)">s</text><text xml:space="preserve" font-family="HelveticaNeue-Medium,Helvetica Neue" font-size="30.0" fill="#FEFFFE" transform="matrix(1.00, 0.00, -0.00, -1.00, 168.2, 11.8)">p</text><text xml:space="preserve" font-family="HelveticaNeue-Medium,Helvetica Neue" font-size="30.0" fill="#FEFFFE" transform="matrix(1.00, 0.00, -0.00, -1.00, 186.5, 11.8)">o</text><text xml:space="preserve" font-family="HelveticaNeue-Medium,Helvetica Neue" font-size="30.0" fill="#FEFFFE" transform="matrix(1.00, 0.00, -0.00, -1.00, 204.3, 11.8)">n</text><text xml:space="preserve" font-family="HelveticaNeue-Medium,Helvetica Neue" font-size="30.0" fill="#FEFFFE" transform="matrix(1.00, 0.00, -0.00, -1.00, 221.5, 11.8)">d</text><text xml:space="preserve" font-family="HelveticaNeue-Medium,Helvetica Neue" font-size="30.0" fill="#FEFFFE" transform="matrix(1.00, 0.00, -0.00, -1.00, 239.9, 11.8)"> </text><text xml:space="preserve" font-family="HelveticaNeue-Medium,Helvetica Neue" font-size="30.0" fill="#FEFFFE" transform="matrix(1.00, 0.00, -0.00, -1.00, 248.2, 11.8)">t</text><text xml:space="preserve" font-family="HelveticaNeue-Medium,Helvetica Neue" font-size="30.0" fill="#FEFFFE" transform="matrix(1.00, 0.00, -0.00, -1.00, 258.2, 11.8)">o</text><text xml:space="preserve" font-family="HelveticaNeue-Medium,Helvetica Neue" font-size="30.0" fill="#FEFFFE" transform="matrix(1.00, 0.00, -0.00, -1.00, 276.0, 11.8)"> </text><text xml:space="preserve" font-family="HelveticaNeue-Medium,Helvetica Neue" font-size="30.0" fill="#FEFFFE" transform="matrix(1.00, 0.00, -0.00, -1.00, 284.3, 11.8)">u</text><text xml:space="preserve" font-family="HelveticaNeue-Medium,Helvetica Neue" font-size="30.0" fill="#FEFFFE" transform="matrix(1.00, 0.00, -0.00, -1.00, 301.6, 11.8)">s</text><text xml:space="preserve" font-family="HelveticaNeue-Medium,Helvetica Neue" font-size="30.0" fill="#FEFFFE" transform="matrix(1.00, 0.00, -0.00, -1.00, 317.1, 11.8)">e</text><text xml:space="preserve" font-family="HelveticaNeue-Medium,Helvetica Neue" font-size="30.0" fill="#FEFFFE" transform="matrix(1.00, 0.00, -0.00, -1.00, 333.8, 11.8)">r</text><text xml:space="preserve" font-family="HelveticaNeue-Medium,Helvetica Neue" font-size="30.0" fill="#FEFFFE" transform="matrix(1.00, 0.00, -0.00, -1.00, 344.4, 11.8)"> </text><text xml:space="preserve" font-family="HelveticaNeue-Medium,Helvetica Neue" font-size="30.0" fill="#FEFFFE" transform="matrix(1.00, 0.00, -0.00, -1.00, 352.7, 11.8)">a</text><text xml:space="preserve" font-family="HelveticaNeue-Medium,Helvetica Neue" font-size="30.0" fill="#FEFFFE" transform="matrix(1.00, 0.00, -0.00, -1.00, 369.4, 11.8)">c</text><text xml:space="preserve" font-family="HelveticaNeue-Medium,Helvetica Neue" font-size="30.0" fill="#FEFFFE" transform="matrix(1.00, 0.00, -0.00, -1.00, 386.1, 11.8)">t</text><text xml:space="preserve" font-family="HelveticaNeue-Medium,Helvetica Neue" font-size="30.0" fill="#FEFFFE" transform="matrix(1.00, 0.00, -0.00, -1.00, 396.1, 11.8)">i</text><text xml:space="preserve" font-family="HelveticaNeue-Medium,Helvetica Neue" font-size="30.0" fill="#FEFFFE" transform="matrix(1.00, 0.00, -0.00, -1.00, 403.3, 11.8)">o</text><text xml:space="preserve" font-family="HelveticaNeue-Medium,Helvetica Neue" font-size="30.0" fill="#FEFFFE" transform="matrix(1.00, 0.00, -0.00, -1.00, 421.1, 11.8)">n</text><text xml:space="preserve" font-family="HelveticaNeue-Medium,Helvetica Neue" font-size="30.0" fill="#FEFFFE" transform="matrix(1.00, 0.00, -0.00, -1.00, 438.3, 11.8)">s</text></g></svg>